<?xml version="1.0" standalone="no"?>
<!DOCTYPE svg PUBLIC "-//W3C//DTD SVG 1.1//EN" "http://www.w3.org/Graphics/SVG/1.1/DTD/svg11.dtd" >
<svg>
<metadata>
Created by FontForge 20090622 at Fri Oct 25 07:45:02 2019
 By deploy user
Copyright &#194;&#169; 2011 by Wolfgang Homola, distributed by TypeTogether. All rights reserved.
</metadata>
<defs>
<font id="Soleil-Regular" horiz-adv-x="550" >
  <font-face 
    font-family="Soleil"
    font-weight="400"
    font-stretch="normal"
    units-per-em="1000"
    panose-1="0 0 5 0 0 0 0 0 0 0"
    ascent="750"
    descent="-250"
    x-height="500"
    cap-height="700"
    bbox="-210 -328 1258 976"
    underline-thickness="50"
    underline-position="-50"
    unicode-range="U+000D-U+FB02"
  />
<missing-glyph 
d="M60 664h430v-664h-430v664zM239 191h59v-65h-59v65zM434 53v558h-318v-558h318zM242 336q42 14 65.5 32.5t23.5 52.5q0 23 -16.5 40t-42.5 17q-27 0 -43 -17t-16 -45v-5h-51v2q0 48 32.5 79.5t77.5 31.5q47 0 78.5 -31.5t31.5 -69.5q0 -34 -14.5 -58.5t-30.5 -35.5
t-41 -22v-64h-54v93z" />
    <glyph glyph-name="fi" unicode="fi" horiz-adv-x="596" 
d="M103 420h-57v80h57v72q0 84 31 131q40 59 133 59q35 0 74 -13l-14 -79q-24 8 -49 8q-37 0 -58 -16q-26 -21 -26 -99v-63h135v-80h-135v-420h-91v420zM421 500h91v-500h-91v500zM421 700h91v-102h-91v102z" />
    <glyph glyph-name="fl" unicode="fl" horiz-adv-x="596" 
d="M103 420h-57v80h57v72q0 84 31 131q40 59 133 59q35 0 74 -13l-14 -79q-24 8 -49 8q-37 0 -58 -16q-26 -21 -26 -99v-63h135v-80h-135v-420h-91v420zM421 750h91v-750h-91v750z" />
    <glyph glyph-name="f_f" unicode="ff" horiz-adv-x="674" 
d="M103 420h-57v80h57v72q0 84 31 131q40 59 133 59q46 0 99 -22l-26 -76q-30 14 -62 14q-37 0 -58 -16q-26 -21 -26 -99v-63h115v-80h-115v-420h-91v420zM440 420h-57v80h57v72q0 84 31 131q40 59 133 59q46 0 99 -22l-26 -76q-30 14 -62 14q-37 0 -58 -16q-26 -21 -26 -99
v-63h135v-80h-135v-420h-91v420z" />
    <glyph glyph-name="f_k" unicode="fk" horiz-adv-x="851" 
d="M103 420h-57v80h57v72q0 84 31 131q40 59 133 59q35 0 74 -13l-14 -79q-24 8 -49 8q-37 0 -58 -16q-26 -21 -26 -99v-63h135v-80h-135v-420h-91v420zM421 750h91v-500l2 -1l202 251h112l-175 -204l192 -296h-111l-143 224l-79 -92v-132h-91v750z" />
    <glyph glyph-name="f_b" unicode="fb" horiz-adv-x="963" 
d="M103 420h-57v80h57v72q0 84 31 131q40 59 133 59q35 0 74 -13l-14 -79q-24 8 -49 8q-37 0 -58 -16q-26 -21 -26 -99v-63h135v-80h-135v-420h-91v420zM669 -12q-93 0 -157 66v-54h-91v750h91v-317q26 38 69 58.5t90 20.5q107 0 178.5 -76t71.5 -187q0 -104 -71 -182.5
t-181 -78.5zM657 72q81 0 126 54t45 125q0 73 -47 125t-122 52q-44 0 -86.5 -25.5t-60.5 -69.5v-185q25 -36 65 -56t80 -20z" />
    <glyph glyph-name="f_h" unicode="fh" horiz-adv-x="943" 
d="M103 420h-57v80h57v72q0 84 31 131q40 59 133 59q35 0 74 -13l-14 -79q-24 8 -49 8q-37 0 -58 -16q-26 -21 -26 -99v-63h135v-80h-135v-420h-91v420zM421 750h91v-332q59 94 163 94q98 0 145 -63q45 -61 45 -189v-260h-91v250q0 99 -26 138q-27 40 -87 40
q-42 0 -81.5 -26.5t-67.5 -69.5v-332h-91v750z" />
    <glyph glyph-name="f_t" unicode="ft" horiz-adv-x="683" 
d="M103 420h-57v80h57v72q0 84 31 131q40 59 133 59q46 0 99 -22l-26 -76q-30 14 -62 14q-37 0 -58 -16q-26 -21 -26 -99v-63h125v-80h-125v-420h-91v420zM576 -10q-99 0 -134 78q-16 37 -16 104v248h-57v80h57v120h91v-120h140v-80h-140v-226q0 -24 1 -39q2 -42 18 -63
t52 -21q28 0 56 14l25 -73q-42 -22 -93 -22z" />
    <glyph glyph-name="f_j" unicode="fj" horiz-adv-x="604" 
d="M103 420h-57v80h57v72q0 84 31 131q40 59 133 59q35 0 74 -13l-14 -79q-24 8 -49 8q-37 0 -58 -16q-26 -21 -26 -99v-63h135v-80h-135v-420h-91v420zM373 -222q-56 0 -96 22l26 74q26 -14 56 -14q44 0 57 28t13 86v526h91v-544q0 -59 -14 -95q-32 -83 -133 -83zM429 700
h91v-102h-91v102z" />
    <glyph glyph-name="f_f_j" unicode="ffj" horiz-adv-x="941" 
d="M103 420h-57v80h57v72q0 84 31 131q40 59 133 59q46 0 99 -22l-26 -76q-30 14 -62 14q-37 0 -58 -16q-26 -21 -26 -99v-63h115v-80h-115v-420h-91v420zM440 420h-57v80h57v72q0 84 31 131q40 59 133 59q35 0 74 -13l-14 -79q-24 8 -49 8q-37 0 -58 -16q-26 -21 -26 -99
v-63h135v-80h-135v-420h-91v420zM710 -222q-56 0 -96 22l26 74q26 -14 56 -14q44 0 57 28t13 86v526h91v-544q0 -59 -14 -95q-32 -83 -133 -83zM766 700h91v-102h-91v102z" />
    <glyph glyph-name="f_f_i" unicode="ffi" horiz-adv-x="933" 
d="M103 420h-57v80h57v72q0 84 31 131q40 59 133 59q46 0 99 -22l-26 -76q-30 14 -62 14q-37 0 -58 -16q-26 -21 -26 -99v-63h115v-80h-115v-420h-91v420zM440 420h-57v80h57v72q0 84 31 131q40 59 133 59q35 0 74 -13l-14 -79q-24 8 -49 8q-37 0 -58 -16q-26 -21 -26 -99
v-63h135v-80h-135v-420h-91v420zM758 500h91v-500h-91v500zM758 700h91v-102h-91v102z" />
    <glyph glyph-name="f_f_l" unicode="ffl" horiz-adv-x="933" 
d="M103 420h-57v80h57v72q0 84 31 131q40 59 133 59q46 0 99 -22l-26 -76q-30 14 -62 14q-37 0 -58 -16q-26 -21 -26 -99v-63h115v-80h-115v-420h-91v420zM440 420h-57v80h57v72q0 84 31 131q40 59 133 59q35 0 74 -13l-14 -79q-24 8 -49 8q-37 0 -58 -16q-26 -21 -26 -99
v-63h135v-80h-135v-420h-91v420zM758 750h91v-750h-91v750z" />
    <glyph glyph-name="f_f_k" unicode="ffk" horiz-adv-x="1188" 
d="M103 420h-57v80h57v72q0 84 31 131q40 59 133 59q46 0 99 -22l-26 -76q-30 14 -62 14q-37 0 -58 -16q-26 -21 -26 -99v-63h115v-80h-115v-420h-91v420zM440 420h-57v80h57v72q0 84 31 131q40 59 133 59q35 0 74 -13l-14 -79q-24 8 -49 8q-37 0 -58 -16q-26 -21 -26 -99
v-63h135v-80h-135v-420h-91v420zM758 750h91v-500l2 -1l202 251h112l-175 -204l192 -296h-111l-143 224l-79 -92v-132h-91v750z" />
    <glyph glyph-name="f_f_b" unicode="ffb" horiz-adv-x="1300" 
d="M103 420h-57v80h57v72q0 84 31 131q40 59 133 59q46 0 99 -22l-26 -76q-30 14 -62 14q-37 0 -58 -16q-26 -21 -26 -99v-63h115v-80h-115v-420h-91v420zM440 420h-57v80h57v72q0 84 31 131q40 59 133 59q35 0 74 -13l-14 -79q-24 8 -49 8q-37 0 -58 -16q-26 -21 -26 -99
v-63h135v-80h-135v-420h-91v420zM1006 -12q-93 0 -157 66v-54h-91v750h91v-317q26 38 69 58.5t90 20.5q107 0 178.5 -76t71.5 -187q0 -104 -71 -182.5t-181 -78.5zM994 72q81 0 126 54t45 125q0 73 -47 125t-122 52q-44 0 -86.5 -25.5t-60.5 -69.5v-185q25 -36 65 -56
t80 -20z" />
    <glyph glyph-name="f_f_h" unicode="ffh" horiz-adv-x="1280" 
d="M103 420h-57v80h57v72q0 84 31 131q40 59 133 59q46 0 99 -22l-26 -76q-30 14 -62 14q-37 0 -58 -16q-26 -21 -26 -99v-63h115v-80h-115v-420h-91v420zM440 420h-57v80h57v72q0 84 31 131q40 59 133 59q35 0 74 -13l-14 -79q-24 8 -49 8q-37 0 -58 -16q-26 -21 -26 -99
v-63h135v-80h-135v-420h-91v420zM758 750h91v-332q59 94 163 94q98 0 145 -63q45 -61 45 -189v-260h-91v250q0 99 -26 138q-27 40 -87 40q-42 0 -81.5 -26.5t-67.5 -69.5v-332h-91v750z" />
    <glyph glyph-name="f_f_t" unicode="fft" horiz-adv-x="1020" 
d="M440 420h-57v80h57v72q0 84 31 131q40 59 133 59q46 0 99 -22l-26 -76q-30 14 -62 14q-37 0 -58 -16q-26 -21 -26 -99v-63h125v-80h-125v-420h-91v420zM103 420h-57v80h57v72q0 84 31 131q40 59 133 59q46 0 99 -22l-26 -76q-30 14 -62 14q-37 0 -58 -16q-26 -21 -26 -99
v-63h115v-80h-115v-420h-91v420zM913 -10q-99 0 -134 78q-16 37 -16 104v248h-57v80h57v120h91v-120h140v-80h-140v-226q0 -24 1 -39q2 -42 18 -63t52 -21q28 0 56 14l25 -73q-42 -22 -93 -22z" />
    <glyph glyph-name="f_iacute" unicode="f&#xed;" horiz-adv-x="596" 
d="M103 420h-57v80h57v72q0 84 31 131q40 59 133 59q35 0 74 -13l-14 -79q-24 8 -49 8q-37 0 -58 -16q-26 -21 -26 -99v-63h135v-80h-135v-420h-91v420zM421 500h91v-500h-91v500zM411 611l133 171l67 -50l-138 -169z" />
    <glyph glyph-name="t_t" unicode="tt" horiz-adv-x="692" 
d="M585 -10q-99 0 -134 78q-16 37 -16 104v248h-67v80h67v120h91v-120h140v-80h-140v-226q0 -24 1 -39q2 -42 18 -63t52 -21q28 0 56 14l25 -73q-42 -22 -93 -22zM239 -10q-99 0 -134 78q-16 37 -16 104v248h-67v80h67v120h91v-120h140v-80h-140v-226q0 -24 1 -39
q2 -42 18 -63t52 -21q28 0 56 14l25 -73q-42 -22 -93 -22z" />
    <glyph glyph-name=".notdef" 
d="M60 664h430v-664h-430v664zM239 191h59v-65h-59v65zM434 53v558h-318v-558h318zM242 336q42 14 65.5 32.5t23.5 52.5q0 23 -16.5 40t-42.5 17q-27 0 -43 -17t-16 -45v-5h-51v2q0 48 32.5 79.5t77.5 31.5q47 0 78.5 -31.5t31.5 -69.5q0 -34 -14.5 -58.5t-30.5 -35.5
t-41 -22v-64h-54v93z" />
    <glyph glyph-name=".null" horiz-adv-x="0" 
 />
    <glyph glyph-name="nonmarkingreturn" horiz-adv-x="333" 
 />
    <glyph glyph-name="CR" unicode="&#xd;" horiz-adv-x="500" 
 />
    <glyph glyph-name="space" unicode=" " horiz-adv-x="250" 
 />
    <glyph glyph-name="exclam" unicode="!" horiz-adv-x="317" 
d="M105 589v111h107v-111l-9 -379h-89zM106 116h105v-116h-105v116z" />
    <glyph glyph-name="quotedbl" unicode="&#x22;" horiz-adv-x="477" 
d="M298 700h99l-9 -265h-81zM80 700h99l-9 -265h-81z" />
    <glyph glyph-name="numbersign" unicode="#" horiz-adv-x="720" 
d="M187 189h-122v74h134l24 138h-90v74h102l33 189h81l-33 -189h130l33 189h81l-33 -189h128v-74h-140l-24 -138h96v-74h-108l-32 -189h-81l32 189h-130l-32 -189h-81zM410 263l24 138h-130l-24 -138h130z" />
    <glyph glyph-name="dollar" unicode="$" 
d="M246 -12q-116 4 -216 100l65 61q78 -80 171 -80q58 0 100.5 29t42.5 87q0 22 -9.5 40.5t-20.5 29.5t-36 23.5t-39 18t-47 17.5q-35 13 -54.5 21t-48 24.5t-44 34t-27 45.5t-11.5 63q0 72 50 119.5t129 53.5v95h64v-97q85 -9 164 -65l-57 -67q-59 53 -144 53
q-46 0 -81 -23.5t-35 -68.5q0 -17 8.5 -32t18.5 -24.5t32.5 -20.5t36.5 -16.5t44 -15.5q38 -13 58 -21t52 -26t48.5 -36.5t29.5 -48t13 -66.5q0 -86 -54 -139t-139 -65v-97h-64v94z" />
    <glyph glyph-name="percent" unicode="%" horiz-adv-x="850" 
d="M151 28l497 684l55 -40l-497 -684zM218 387q-67 0 -113.5 46.5t-46.5 112.5q0 67 46.5 113.5t113.5 46.5t113 -46.5t46 -113.5q0 -66 -46 -112.5t-113 -46.5zM219 458q35 0 59 25.5t24 63.5q0 37 -24 62.5t-59 25.5q-37 0 -61.5 -25t-24.5 -63t24.5 -63.5t61.5 -25.5z
M633 -6q-67 0 -113.5 46.5t-46.5 112.5q0 67 46.5 113.5t113.5 46.5t113 -46.5t46 -113.5q0 -66 -46 -112.5t-113 -46.5zM634 65q35 0 59 25.5t24 63.5q0 37 -24 62.5t-59 25.5q-37 0 -61.5 -25t-24.5 -63t24.5 -63.5t61.5 -25.5z" />
    <glyph glyph-name="ampersand" unicode="&#x26;" horiz-adv-x="680" 
d="M515 92q-77 -104 -220 -104q-92 0 -161.5 65.5t-69.5 151.5q0 62 32 111.5t86 78.5q-67 72 -67 146q0 73 60.5 122t137.5 49q64 0 114 -34t66 -92l-84 -24q-18 66 -100 66q-44 0 -73.5 -25.5t-29.5 -66.5q0 -37 24.5 -68.5t82.5 -82.5l-54 -64l-18 16q-39 -19 -62.5 -53
t-23.5 -78q0 -56 44.5 -95t106.5 -39q96 0 148 74l-81 73l55 63l267 -237l-56 -63z" />
    <glyph glyph-name="quotesingle" unicode="'" horiz-adv-x="259" 
d="M80 700h99l-9 -265h-81z" />
    <glyph glyph-name="parenleft" unicode="(" horiz-adv-x="345" 
d="M315 -173q-265 165 -265 477t265 477l38 -65q-209 -137 -209 -412t209 -412z" />
    <glyph glyph-name="parenright" unicode=")" horiz-adv-x="345" 
d="M-8 -108q209 137 209 412t-209 412l38 65q265 -165 265 -477t-265 -477z" />
    <glyph glyph-name="asterisk" unicode="*" horiz-adv-x="490" 
d="M105 427l83 97l-118 29l26 82l116 -48l-10 125h86l-9 -125l115 48l26 -82l-119 -29l84 -97l-70 -50l-70 113l-70 -113z" />
    <glyph glyph-name="plus" unicode="+" 
d="M236 272h-211v78h211v211h78v-211h211v-78h-211v-210h-78v210z" />
    <glyph glyph-name="comma" unicode="," horiz-adv-x="250" 
d="M88 116h102l-66 -250h-87z" />
    <glyph glyph-name="hyphen" unicode="-" horiz-adv-x="460" 
d="M100 320h260v-82h-260v82z" />
    <glyph glyph-name="period" unicode="." horiz-adv-x="250" 
d="M72 116h105v-116h-105v116z" />
    <glyph glyph-name="slash" unicode="/" horiz-adv-x="363" 
d="M0 -26l292 788l71 -27l-292 -788z" />
    <glyph glyph-name="zero" unicode="0" 
d="M275 -12q-112 0 -173.5 91.5t-61.5 252.5t61.5 252.5t173.5 91.5t173.5 -91.5t61.5 -252.5t-61.5 -252.5t-173.5 -91.5zM275 74q67 0 103 65t36 193t-36 193t-103 65t-103 -65t-36 -193t36 -193t103 -65z" />
    <glyph glyph-name="one" unicode="1" horiz-adv-x="344" 
d="M155 550q-13 -7 -100 -44v88q82 41 133 70h61v-664h-94v550z" />
    <glyph glyph-name="two" unicode="2" horiz-adv-x="509" 
d="M58 85q166 174 234 274q61 88 61 141q0 42 -33 67t-76 25q-42 0 -73 -29t-32 -74l-93 19q6 73 67 120.5t135 47.5q81 0 141.5 -49.5t60.5 -126.5q0 -82 -71 -183q-74 -104 -195 -233h296v-84h-422v85z" />
    <glyph glyph-name="three" unicode="3" horiz-adv-x="519" 
d="M246 -12q-66 0 -124 28.5t-87 82.5l74 41q40 -68 130 -68q56 0 94.5 29t38.5 84q0 50 -41 82t-100 32q-46 0 -77 -7v96q63 2 95 10q40 11 64.5 37.5t24.5 61.5q0 41 -31 68t-80 27q-38 0 -67.5 -19t-41.5 -53l-80 33q20 55 71 89t120 34q92 0 148.5 -48.5t56.5 -129.5
q0 -45 -22.5 -83t-60.5 -58q52 -18 84.5 -62.5t32.5 -101.5q0 -94 -64 -149.5t-158 -55.5z" />
    <glyph glyph-name="four" unicode="4" horiz-adv-x="538" 
d="M326 167h-300v101l295 396h97v-413h99v-84h-99v-167h-92v167zM326 251v281l-200 -281h200z" />
    <glyph glyph-name="five" unicode="5" horiz-adv-x="499" 
d="M248 -12q-63 0 -123.5 30.5t-87.5 80.5l75 42q38 -69 124 -69q63 0 100 38.5t37 95.5q0 55 -38 89t-96 34q-62 0 -103 -42l-68 37q11 106 23 340h342v-84h-253q-7 -142 -12 -186q41 19 98 19q83 0 143 -59t60 -145q0 -95 -62.5 -158t-158.5 -63z" />
    <glyph glyph-name="six" unicode="6" horiz-adv-x="534" 
d="M283 -12q-110 0 -176.5 78t-66.5 187q0 152 92.5 271t234.5 177l38 -84q-101 -46 -166 -106.5t-90 -151.5q61 61 150 61q86 0 140.5 -62t54.5 -152q0 -93 -60 -155.5t-151 -62.5zM275 72q56 0 89.5 39t33.5 97q0 57 -32 92.5t-87 35.5q-45 0 -84 -22.5t-60 -61.5
q0 -76 34.5 -128t105.5 -52z" />
    <glyph glyph-name="seven" unicode="7" horiz-adv-x="452" 
d="M69 17l87 197l108 230t64 134h-318v86h422v-69q-145 -303 -276 -617z" />
    <glyph glyph-name="eight" unicode="8" horiz-adv-x="562" 
d="M281 -12q-99 0 -162 56t-63 139q0 111 103 167q-83 49 -83 144q0 77 57 129.5t148 52.5t148 -52.5t57 -129.5q0 -95 -83 -144q103 -56 103 -167q0 -83 -63 -139t-162 -56zM281 72q54 0 91.5 32.5t37.5 82.5q0 48 -38 82t-91 34t-91 -34t-38 -82q0 -50 37.5 -82.5
t91.5 -32.5zM281 387q46 0 78.5 30t32.5 73q0 44 -32 73t-79 29t-79 -29t-32 -73q0 -43 32.5 -73t78.5 -30z" />
    <glyph glyph-name="nine" unicode="9" horiz-adv-x="534" 
d="M129 47q101 46 166 106.5t90 151.5q-61 -61 -150 -61q-86 0 -140.5 62t-54.5 152q0 93 60 155.5t151 62.5q110 0 176.5 -78t66.5 -187q0 -152 -92.5 -271t-234.5 -177zM255 328q45 0 84 22.5t60 61.5q0 76 -34.5 128t-105.5 52q-56 0 -89.5 -39t-33.5 -97q0 -57 32 -92.5
t87 -35.5z" />
    <glyph glyph-name="colon" unicode=":" horiz-adv-x="250" 
d="M72 500h105v-116h-105v116zM72 116h105v-116h-105v116z" />
    <glyph glyph-name="semicolon" unicode=";" horiz-adv-x="250" 
d="M88 116h102l-66 -250h-87zM87 500h105v-116h-105v116z" />
    <glyph glyph-name="less" unicode="&#x3c;" 
d="M24 272v78l501 200v-78l-404 -161l404 -161v-78z" />
    <glyph glyph-name="equal" unicode="=" 
d="M54 428h441v-78h-441v78zM54 272h441v-78h-441v78z" />
    <glyph glyph-name="greater" unicode="&#x3e;" 
d="M25 150l404 161l-404 161v78l501 -200v-78l-501 -200v78z" />
    <glyph glyph-name="question" unicode="?" horiz-adv-x="541" 
d="M217 376q36 12 59.5 22.5t49 28.5t38.5 43t13 58q0 42 -30 72t-75 30q-49 0 -78 -30t-29 -82v-8h-91v4q0 86 58.5 142t139.5 56q83 0 139.5 -56t56.5 -125q0 -84 -41 -129t-113 -78v-114h-97v166zM213 116h105v-116h-105v116z" />
    <glyph glyph-name="at" unicode="@" horiz-adv-x="800" 
d="M395 -139q-142 0 -241 101t-99 243q0 144 99 244.5t241 100.5q156 0 253.5 -91t97.5 -234q0 -89 -39 -150.5t-114 -61.5q-72 0 -97 81q-17 -32 -48.5 -49t-67.5 -17q-71 0 -117 49t-46 123q0 70 45 121.5t120 51.5q57 0 103 -43v32h71v-154q0 -52 6.5 -81t15.5 -37t23 -8
q33 0 50 42t17 102q0 113 -74 180.5t-198 67.5q-111 0 -187 -77.5t-76 -190.5t76 -191t187 -78q63 0 125 30l25 -70q-71 -36 -151 -36zM388 94q26 0 54.5 22t42.5 59v72q-19 27 -45 43t-50 16q-50 0 -75 -31.5t-25 -75.5q0 -43 26.5 -74t71.5 -31z" />
    <glyph glyph-name="A" unicode="A" horiz-adv-x="653" 
d="M286 700h84l268 -700h-111l-55 149h-298l-54 -149h-105zM441 235l-117 319h-1l-117 -319h235z" />
    <glyph glyph-name="B" unicode="B" horiz-adv-x="611" 
d="M95 700h167q118 0 186 -44q74 -48 74 -145q0 -103 -107 -145q136 -41 136 -167q0 -59 -30.5 -103.5t-83.5 -67.5q-67 -28 -184 -28h-158v700zM244 84q102 0 148 21q57 27 57 93q0 54 -38 86t-108 32h-112v-232h53zM258 400q168 0 168 106q0 58 -40 84q-41 26 -147 26h-48
v-216h67z" />
    <glyph glyph-name="C" unicode="C" horiz-adv-x="674" 
d="M436 -12q-160 0 -268 100t-108 262q0 154 109.5 258t266.5 104q101 0 188 -54l-45 -74q-68 42 -143 42q-119 0 -196.5 -78t-77.5 -198q0 -126 76 -201t198 -75q82 0 155 49l51 -71q-94 -64 -206 -64z" />
    <glyph glyph-name="D" unicode="D" horiz-adv-x="720" 
d="M95 700h189q55 0 107.5 -11.5t101.5 -38t86 -65.5t59 -99t22 -133q0 -93 -33 -163.5t-89.5 -110.5t-122.5 -59.5t-141 -19.5h-179v700zM224 86q161 0 247.5 59.5t86.5 198.5q0 131 -76.5 200.5t-215.5 69.5h-75v-528h33z" />
    <glyph glyph-name="E" unicode="E" horiz-adv-x="580" 
d="M95 700h420v-86h-324v-210h324v-86h-324v-232h324v-86h-420v700z" />
    <glyph glyph-name="F" unicode="F" horiz-adv-x="495" 
d="M95 700h355v-86h-259v-229h259v-86h-259v-299h-96v700z" />
    <glyph glyph-name="G" unicode="G" horiz-adv-x="803" 
d="M436 -12q-163 0 -269.5 100.5t-106.5 261.5q0 154 109.5 258t266.5 104q79 0 149.5 -33t121.5 -91l-68 -56q-38 43 -91.5 68.5t-111.5 25.5q-119 0 -196.5 -78t-77.5 -198q0 -126 76 -201t198 -75q115 0 191 73v155h-178v86h274v-266q-50 -64 -125.5 -99t-161.5 -35z" />
    <glyph glyph-name="H" unicode="H" horiz-adv-x="752" 
d="M95 700h96v-296h370v296h96v-700h-96v318h-370v-318h-96v700z" />
    <glyph glyph-name="I" unicode="I" horiz-adv-x="286" 
d="M95 700h96v-700h-96v700z" />
    <glyph glyph-name="J" unicode="J" horiz-adv-x="341" 
d="M85 -12q-48 0 -101 22l26 78q30 -14 61 -14q50 0 67 24q17 23 17 92v510h96v-523q0 -86 -32 -133q-39 -56 -134 -56z" />
    <glyph glyph-name="K" unicode="K" horiz-adv-x="621" 
d="M95 700h96v-357l294 357h117l-233 -276l247 -424h-112l-200 346l-113 -135v-211h-96v700z" />
    <glyph glyph-name="L" unicode="L" horiz-adv-x="500" 
d="M95 700h96v-614h304v-86h-400v700z" />
    <glyph glyph-name="M" unicode="M" horiz-adv-x="923" 
d="M95 700h152l213 -547l216 547h152v-700h-96v591l-239 -591h-67l-235 591v-591h-96v700z" />
    <glyph glyph-name="N" unicode="N" horiz-adv-x="755" 
d="M95 700h84l385 -522v522h96v-700h-85l-384 522v-522h-96v700z" />
    <glyph glyph-name="O" unicode="O" horiz-adv-x="840" 
d="M420 -12q-152 0 -256 105.5t-104 256.5t104 256.5t256 105.5t256 -105.5t104 -256.5t-104 -256.5t-256 -105.5zM420 74q111 0 184.5 79.5t73.5 196.5t-73.5 196.5t-184.5 79.5t-184.5 -79.5t-73.5 -196.5t73.5 -196.5t184.5 -79.5z" />
    <glyph glyph-name="P" unicode="P" horiz-adv-x="581" 
d="M95 700h209q45 0 87 -11.5t78.5 -35t59 -65.5t22.5 -97q0 -56 -22 -98t-59 -66t-79 -35.5t-87 -11.5h-113v-280h-96v700zM279 366q170 0 170 122q0 58 -41 92t-109 34h-108v-248h88z" />
    <glyph glyph-name="Q" unicode="Q" horiz-adv-x="840" 
d="M604 37q-84 -49 -184 -49q-152 0 -256 105.5t-104 256.5t104 256.5t256 105.5t256 -105.5t104 -256.5q0 -155 -107 -259l95 -94l-61 -61zM420 74q66 0 119 29l-98 98l61 61l105 -105q71 77 71 193q0 117 -73.5 196.5t-184.5 79.5t-184.5 -79.5t-73.5 -196.5t73.5 -196.5
t184.5 -79.5z" />
    <glyph glyph-name="R" unicode="R" horiz-adv-x="613" 
d="M95 700h208q58 0 110 -19t90.5 -66.5t38.5 -115.5q0 -83 -49.5 -132.5t-121.5 -64.5l222 -302h-120l-210 296h-72v-296h-96v700zM278 382q74 0 118 28.5t44 85.5q0 53 -39 85.5t-103 32.5h-107v-232h87z" />
    <glyph glyph-name="S" unicode="S" horiz-adv-x="609" 
d="M298 -12q-147 0 -253 105l68 64q48 -47 90 -65t96 -18q60 0 101.5 30.5t41.5 90.5q0 28 -11.5 48.5t-37.5 36.5t-47 24.5t-60 22.5q-42 15 -72 29t-61 36.5t-47.5 54.5t-16.5 72q0 94 60 143.5t151 49.5q122 0 217 -72l-59 -70q-26 24 -66.5 40t-80.5 16q-57 0 -91 -25.5
t-34 -71.5q0 -18 9 -33t19 -24.5t34 -20.5t38 -16.5t46 -16.5q47 -17 76.5 -30.5t65 -38.5t53 -60.5t17.5 -82.5q0 -56 -23 -100t-60 -68.5t-79 -37t-84 -12.5z" />
    <glyph glyph-name="T" unicode="T" horiz-adv-x="488" 
d="M196 614h-176v86h448v-86h-176v-614h-96v614z" />
    <glyph glyph-name="U" unicode="U" horiz-adv-x="722" 
d="M359 -12q-269 0 -269 341v371h96v-396q0 -114 46 -172t129 -58t129 58t46 172v396h96v-371q0 -169 -66 -255t-207 -86z" />
    <glyph glyph-name="V" unicode="V" horiz-adv-x="633" 
d="M5 700h111l203 -554h1l203 554h105l-271 -700h-84z" />
    <glyph glyph-name="W" unicode="W" horiz-adv-x="886" 
d="M5 700h106l140 -528h2l147 528h90l140 -528h2l147 528h102l-200 -700h-96l-140 533h-2l-152 -533h-94z" />
    <glyph glyph-name="X" unicode="X" horiz-adv-x="651" 
d="M262 356l-249 344h123l194 -269l193 269h119l-254 -346l258 -354h-121l-203 277l-196 -277h-121z" />
    <glyph glyph-name="Y" unicode="Y" horiz-adv-x="555" 
d="M228 304l-223 396h119l156 -294h3l155 294h112l-226 -401v-299h-96v304z" />
    <glyph glyph-name="Z" unicode="Z" horiz-adv-x="547" 
d="M40 51l331 563h-323v86h454v-52l-329 -562h354v-86h-487v51z" />
    <glyph glyph-name="bracketleft" unicode="[" horiz-adv-x="311" 
d="M90 750h211v-77h-129v-766h129v-77h-211v920z" />
    <glyph glyph-name="backslash" unicode="\" horiz-adv-x="363" 
d="M0 735l71 27l292 -788l-71 -27z" />
    <glyph glyph-name="bracketright" unicode="]" horiz-adv-x="311" 
d="M10 -93h129v766h-129v77h211v-920h-211v77z" />
    <glyph glyph-name="asciicircum" unicode="^" 
d="M227 681h96l151 -331h-78l-121 254l-121 -254h-78z" />
    <glyph glyph-name="underscore" unicode="_" 
d="M0 -172h550v-63h-550v63z" />
    <glyph glyph-name="grave" unicode="`" horiz-adv-x="360" 
d="M57 726l66 51l123 -169l-55 -42z" />
    <glyph glyph-name="a" unicode="a" horiz-adv-x="546" 
d="M231 -12q-75 0 -126 38t-51 114q0 60 34 99t81.5 53t107.5 14q47 0 100 -11v18q0 120 -118 120q-79 0 -159 -44l-27 76q98 47 197 47q105 0 151.5 -53.5t46.5 -154.5v-304h-87v53q-58 -65 -150 -65zM242 64q64 0 135 60v103q-46 10 -90 10q-144 0 -144 -90
q0 -43 27.5 -63t71.5 -20z" />
    <glyph glyph-name="b" unicode="b" horiz-adv-x="626" 
d="M332 -12q-93 0 -157 66v-54h-91v750h91v-317q26 38 69 58.5t90 20.5q107 0 178.5 -76t71.5 -187q0 -104 -71 -182.5t-181 -78.5zM320 72q81 0 126 54t45 125q0 73 -47 125t-122 52q-44 0 -86.5 -25.5t-60.5 -69.5v-185q25 -36 65 -56t80 -20z" />
    <glyph glyph-name="c" unicode="c" horiz-adv-x="475" 
d="M298 -12q-109 0 -182.5 73t-73.5 189q0 110 76 186t185 76q77 0 141 -43l-43 -75q-45 34 -102 34q-68 0 -116 -52t-48 -126q0 -79 48.5 -128.5t116.5 -49.5q59 0 106 35l45 -70q-60 -49 -153 -49z" />
    <glyph glyph-name="d" unicode="d" horiz-adv-x="626" 
d="M292 -12q-107 0 -178.5 76t-71.5 186q0 104 70.5 183t181.5 79q92 0 157 -67v305h91v-750h-91v67q-26 -38 -69 -58.5t-90 -20.5zM304 72q43 0 85.5 25.5t61.5 68.5v186q-25 36 -65 56t-80 20q-82 0 -126.5 -54t-44.5 -126t47 -124t122 -52z" />
    <glyph glyph-name="e" unicode="e" horiz-adv-x="560" 
d="M290 -12q-116 0 -182 74t-66 188q0 111 71.5 186.5t176.5 75.5q99 0 163.5 -66t64.5 -167q0 -26 -4 -52h-381q5 -68 48.5 -114.5t112.5 -46.5q106 0 149 81l66 -42q-73 -117 -219 -117zM424 300q-3 55 -40.5 94.5t-92.5 39.5q-58 0 -97.5 -37.5t-53.5 -96.5h284z" />
    <glyph glyph-name="f" unicode="f" horiz-adv-x="337" 
d="M103 420h-57v80h57v72q0 84 31 131q40 59 133 59q46 0 99 -22l-26 -76q-30 14 -62 14q-37 0 -58 -16q-26 -21 -26 -99v-63h135v-80h-135v-420h-91v420z" />
    <glyph glyph-name="g" unicode="g" horiz-adv-x="620" 
d="M290 -222q-131 0 -221 66l35 78q36 -26 87 -43t97 -17q71 0 117 36.5t46 111.5v69q-26 -38 -69.5 -58.5t-90.5 -20.5q-106 0 -177.5 74t-71.5 182q0 103 70.5 179.5t181.5 76.5q92 0 157 -67v55h91v-472q0 -80 -26 -131q-62 -119 -226 -119zM303 84q43 0 86 25t62 68v175
q-25 36 -65 56t-80 20q-82 0 -126.5 -52t-44.5 -122t47 -120t121 -50z" />
    <glyph glyph-name="h" unicode="h" horiz-adv-x="606" 
d="M84 750h91v-332q59 94 163 94q98 0 145 -63q45 -61 45 -189v-260h-91v250q0 99 -26 138q-27 40 -87 40q-42 0 -81.5 -26.5t-67.5 -69.5v-332h-91v750z" />
    <glyph glyph-name="i" unicode="i" horiz-adv-x="259" 
d="M84 500h91v-500h-91v500zM84 700h91v-102h-91v102z" />
    <glyph glyph-name="j" unicode="j" horiz-adv-x="267" 
d="M36 -222q-56 0 -96 22l26 74q26 -14 56 -14q44 0 57 28t13 86v526h91v-544q0 -59 -14 -95q-32 -83 -133 -83zM92 700h91v-102h-91v102z" />
    <glyph glyph-name="k" unicode="k" horiz-adv-x="514" 
d="M84 750h91v-500l2 -1l202 251h112l-175 -204l192 -296h-111l-143 224l-79 -92v-132h-91v750z" />
    <glyph glyph-name="l" unicode="l" horiz-adv-x="259" 
d="M84 750h91v-750h-91v750z" />
    <glyph glyph-name="m" unicode="m" horiz-adv-x="919" 
d="M84 500h91v-76q28 40 71 64t86 24q94 0 139 -69q5 -7 12 -23q65 92 174 92q93 0 138 -59q46 -60 46 -193v-260h-91v250q0 100 -24 138q-27 40 -86 40q-35 0 -72.5 -23t-65.5 -60q6 -37 6 -85v-260h-91v250q0 105 -27 143q-25 35 -77 35q-36 0 -73.5 -27t-64.5 -65v-336
h-91v500z" />
    <glyph glyph-name="n" unicode="n" horiz-adv-x="606" 
d="M84 500h91v-82q59 94 163 94q98 0 145 -63q45 -61 45 -189v-260h-91v250q0 99 -26 138q-27 40 -87 40q-42 0 -81.5 -26.5t-67.5 -69.5v-332h-91v500z" />
    <glyph glyph-name="o" unicode="o" horiz-adv-x="594" 
d="M297 -12q-109 0 -182 76t-73 186t73 186t182 76t182 -76t73 -186t-73 -186t-182 -76zM297 72q70 0 116 52t46 126t-46 126t-116 52t-116 -52t-46 -126t46 -126t116 -52z" />
    <glyph glyph-name="p" unicode="p" horiz-adv-x="626" 
d="M84 500h91v-67q26 38 69 58.5t90 20.5q107 0 178.5 -76t71.5 -187q0 -104 -71 -182.5t-181 -78.5q-93 0 -157 66v-304h-91v750zM320 72q81 0 126 54t45 125q0 73 -47 125t-122 52q-44 0 -86.5 -25.5t-60.5 -69.5v-185q25 -36 65 -56t80 -20z" />
    <glyph glyph-name="q" unicode="q" horiz-adv-x="626" 
d="M451 67q-26 -38 -69 -58.5t-90 -20.5q-107 0 -178.5 76t-71.5 186q0 104 70.5 183t181.5 79q92 0 157 -67v55h91v-750h-91v317zM304 72q43 0 85.5 25.5t61.5 68.5v186q-25 36 -65 56t-80 20q-82 0 -126.5 -54t-44.5 -126t47 -124t122 -52z" />
    <glyph glyph-name="r" unicode="r" horiz-adv-x="357" 
d="M84 500h91v-83q53 95 129 95q26 0 54 -6l-17 -97q-21 10 -47 10q-71 0 -119 -84v-335h-91v500z" />
    <glyph glyph-name="s" unicode="s" horiz-adv-x="451" 
d="M215 -12q-112 0 -172 78l64 51q50 -53 109 -53q39 0 64.5 20t25.5 57q0 18 -15.5 33.5t-31.5 23t-49 20.5q-35 14 -52 22t-42.5 25.5t-37 41.5t-11.5 56q0 72 47 110.5t114 38.5q93 0 154 -55l-54 -58q-43 37 -99 37q-34 0 -54.5 -18t-20.5 -48q0 -18 16 -33t32 -22.5
t48 -20.5q30 -12 51 -22.5t45.5 -28t37 -42.5t12.5 -56q0 -79 -52 -118t-129 -39z" />
    <glyph glyph-name="t" unicode="t" horiz-adv-x="346" 
d="M239 -10q-99 0 -134 78q-16 37 -16 104v248h-67v80h67v120h91v-120h140v-80h-140v-226q0 -24 1 -39q2 -42 18 -63t52 -21q28 0 56 14l25 -73q-42 -22 -93 -22z" />
    <glyph glyph-name="u" unicode="u" horiz-adv-x="606" 
d="M268 -12q-98 0 -145 63q-45 61 -45 189v260h91v-250q0 -99 26 -138q27 -40 87 -40q42 0 81.5 26.5t67.5 69.5v332h91v-500h-91v82q-59 -94 -163 -94z" />
    <glyph glyph-name="v" unicode="v" horiz-adv-x="479" 
d="M8 500h101l133 -387h2l132 387h97l-194 -500h-82z" />
    <glyph glyph-name="w" unicode="w" horiz-adv-x="733" 
d="M16 500h98l94 -385h2l111 385h98l101 -385h3l102 385h92l-144 -500h-98l-107 389h-2l-110 -389h-102z" />
    <glyph glyph-name="x" unicode="x" horiz-adv-x="490" 
d="M190 249l-174 251h115l120 -178l119 178h110l-177 -243l181 -257h-116l-125 186l-125 -186h-112z" />
    <glyph glyph-name="y" unicode="y" horiz-adv-x="477" 
d="M110 -194l79 209l-183 485h101l130 -379h2l133 379h99l-281 -725z" />
    <glyph glyph-name="z" unicode="z" horiz-adv-x="454" 
d="M59 41l221 379h-232v80h353v-40l-221 -380h238v-80h-359v41z" />
    <glyph glyph-name="braceleft" unicode="{" horiz-adv-x="311" 
d="M271 -182q-81 0 -131 55.5t-50 143.5v109q0 53 -20.5 89.5t-60.5 44.5l2 82q79 18 79 146v75q0 88 50 143.5t131 55.5q19 0 29 -1v-79q-18 2 -25 2q-54 0 -78.5 -41t-24.5 -107v-75q0 -104 -67 -160q67 -57 67 -160v-97q0 -66 24.5 -107t78.5 -41q9 0 25 2v-79
q-10 -1 -29 -1z" />
    <glyph glyph-name="bar" unicode="|" horiz-adv-x="318" 
d="M120 858h78v-1028h-78v1028z" />
    <glyph glyph-name="braceright" unicode="}" horiz-adv-x="311" 
d="M39 -182q-19 0 -29 1v79q16 -2 25 -2q54 0 78.5 41t24.5 107v97q0 103 67 160q-67 56 -67 160v75q0 66 -24.5 107t-78.5 41q-7 0 -25 -2v79q10 1 29 1q81 0 131 -55.5t50 -143.5v-75q0 -128 79 -146l2 -82q-40 -8 -60.5 -44.5t-20.5 -89.5v-109q0 -88 -50 -143.5
t-131 -55.5z" />
    <glyph glyph-name="asciitilde" unicode="~" 
d="M383 243q-43 0 -84 22.5t-75 45t-61 22.5q-21 0 -38 -13t-17 -33q0 -11 2 -17l-76 -8q-2 16 -2 32q0 56 38 89t98 33q34 0 68 -14t56 -31t48 -31t48 -14q20 0 37.5 13.5t17.5 32.5q0 11 -2 17l76 8q2 -16 2 -32q0 -56 -38 -89t-98 -33z" />
    <glyph glyph-name="uni00A0" unicode="&#xa0;" horiz-adv-x="250" 
 />
    <glyph glyph-name="exclamdown" unicode="&#xa1;" horiz-adv-x="317" 
d="M104 -89l10 379h89l10 -379v-111h-109v111zM106 500h105v-116h-105v116z" />
    <glyph glyph-name="cent" unicode="&#xa2;" 
d="M291 57q-94 14 -154.5 84t-60.5 175q0 97 60.5 169t154.5 89v90h64v-87q67 -4 123 -42l-43 -75q-45 34 -102 34q-68 0 -116 -52t-48 -126q0 -79 48.5 -128.5t116.5 -49.5q59 0 106 35l45 -70q-53 -42 -130 -48v-87h-64v89z" />
    <glyph glyph-name="sterling" unicode="&#xa3;" 
d="M80 86h57v230h-57v84h57v54q0 97 57 159.5t145 62.5q87 0 147 -37l-39 -78q-35 31 -104 31q-115 0 -115 -165v-27h135v-84h-135v-230h258v-86h-406v86z" />
    <glyph glyph-name="currency" unicode="&#xa4;" 
d="M47 148l52 52q-40 56 -40 125q0 67 40 125l-52 52l51 51l52 -52q56 40 125 40q67 0 125 -40l52 52l51 -51l-52 -52q40 -58 40 -125q0 -69 -40 -125l52 -52l-51 -51l-52 52q-58 -40 -125 -40q-69 0 -125 40l-52 -52zM275 187q57 0 97.5 40.5t40.5 97.5t-40.5 97.5
t-97.5 40.5t-97.5 -40.5t-40.5 -97.5t40.5 -97.5t97.5 -40.5z" />
    <glyph glyph-name="yen" unicode="&#xa5;" 
d="M227 118h-172v74h170v64h-170v74h149l-187 334h108l152 -279h2l147 279h106l-190 -334h148v-74h-170v-64h170v-74h-172v-118h-91v118z" />
    <glyph glyph-name="brokenbar" unicode="&#xa6;" horiz-adv-x="318" 
d="M120 750h78v-375h-78v375zM120 175h78v-375h-78v375z" />
    <glyph glyph-name="section" unicode="&#xa7;" 
d="M265 -140q-133 0 -214 75l54 64q70 -63 160 -63q51 0 86.5 23.5t35.5 64.5q0 30 -27 48.5t-79 34.5q-9 3 -37 11t-40.5 12t-37.5 13.5t-37 17t-29.5 20.5t-26 26.5t-15 32.5t-6.5 41q0 51 26.5 89.5t72.5 57.5q-76 45 -76 123t56.5 119.5t137.5 41.5q102 0 177 -50
l-49 -63q-61 37 -132 37q-40 0 -71.5 -18.5t-31.5 -54.5q0 -12 4.5 -22.5t15.5 -19l19.5 -15t28.5 -14l30.5 -11.5t35.5 -12l35 -11q37 -12 62.5 -24t52 -31t40 -47t13.5 -63q0 -43 -27 -80t-70 -58q78 -42 78 -121q0 -87 -60 -130.5t-155 -43.5zM326 186q33 13 56.5 39
t23.5 57q0 14 -4.5 25.5t-16 21.5t-21 16.5t-29.5 14.5t-31.5 12t-37 12t-36.5 11q-38 -12 -61.5 -38.5t-23.5 -56.5q0 -15 5 -27t16.5 -22t21.5 -17t30.5 -14.5t32.5 -11.5t38 -11t37 -11z" />
    <glyph glyph-name="dieresis" unicode="&#xa8;" horiz-adv-x="360" 
d="M235 700h93v-102h-93v102zM32 700h93v-102h-93v102z" />
    <glyph glyph-name="copyright" unicode="&#xa9;" horiz-adv-x="799" 
d="M400 -12q-143 0 -244 101t-101 244t101 244t244 101t244 -101t101 -244t-101 -244t-244 -101zM410 146q-82 0 -138.5 51.5t-56.5 135.5q0 79 56.5 132.5t138.5 53.5q54 0 101 -30l-35 -58q-38 20 -69 20q-50 0 -82 -33t-32 -85q0 -56 31.5 -87.5t82.5 -31.5q39 0 73 25
l38 -58q-53 -35 -108 -35zM400 62q112 0 190.5 79.5t78.5 191.5t-78.5 191.5t-190.5 79.5t-190.5 -79.5t-78.5 -191.5t78.5 -191.5t190.5 -79.5z" />
    <glyph glyph-name="ordfeminine" unicode="&#xaa;" horiz-adv-x="381" 
d="M160 378q-51 0 -86.5 27.5t-35.5 77.5q0 59 43.5 85.5t107.5 26.5q29 0 65 -8v10q0 76 -75 76q-52 0 -106 -29l-21 57q72 33 138 33q136 0 136 -143v-205h-65l-4 34q-35 -42 -97 -42zM172 435q39 0 82 36v67q-31 7 -55 7q-90 0 -90 -58q0 -26 17.5 -39t45.5 -13z" />
    <glyph glyph-name="guillemotleft" unicode="&#xab;" horiz-adv-x="530" 
d="M281 213v119l145 150l44 -88l-127 -122l127 -121l-44 -88zM60 213v119l145 150l44 -88l-127 -122l127 -121l-44 -88z" />
    <glyph glyph-name="logicalnot" unicode="&#xac;" 
d="M447 342h-423v78h501v-290h-78v212z" />
    <glyph glyph-name="uni00AD" unicode="&#xad;" horiz-adv-x="460" 
d="M100 320h260v-82h-260v82z" />
    <glyph glyph-name="registered" unicode="&#xae;" horiz-adv-x="575" 
d="M287 252q-96 0 -164 68t-68 164q0 97 68 165t164 68q97 0 165 -68t68 -165q0 -96 -68 -164t-165 -68zM287 310q72 0 122.5 51t50.5 123q0 73 -50.5 124t-122.5 51q-71 0 -121.5 -51t-50.5 -124q0 -71 50.5 -122.5t121.5 -51.5zM201 604h59q60 0 87 -17.5t27 -55.5
q0 -51 -48 -69l73 -99h-66l-65 91h-13v-91h-54v241zM255 498q33 0 48 6t15 25t-12.5 25t-50.5 6v-62z" />
    <glyph glyph-name="macron" unicode="&#xaf;" horiz-adv-x="360" 
d="M32 678h296v-70h-296v70z" />
    <glyph glyph-name="degree" unicode="&#xb0;" horiz-adv-x="462" 
d="M230 395q-62 0 -106 43t-44 105q0 61 44 105.5t106 44.5q61 0 106.5 -44.5t45.5 -105.5q0 -62 -45.5 -105t-106.5 -43zM230 459q34 0 59 24.5t25 59.5t-25 60.5t-59 25.5t-58 -25.5t-24 -60.5t24 -59.5t58 -24.5z" />
    <glyph glyph-name="plusminus" unicode="&#xb1;" 
d="M236 342h-211v78h211v211h78v-211h211v-78h-211v-210h-78v210zM25 78h500v-78h-500v78z" />
    <glyph glyph-name="uni00B2" unicode="&#xb2;" horiz-adv-x="319" 
d="M38 425q79 82 137 164q32 44 32 77q0 21 -15.5 34t-37.5 13q-23 0 -38 -16t-15 -42l-72 12q4 48 41.5 78t85.5 30q50 0 87.5 -30t37.5 -78q0 -52 -41 -111q-36 -51 -106 -127h165v-62h-261v58z" />
    <glyph glyph-name="uni00B3" unicode="&#xb3;" horiz-adv-x="319" 
d="M149 362q-42 0 -78.5 19.5t-53.5 56.5l59 29q22 -43 72 -43q27 0 46.5 15t19.5 43q0 29 -22 45.5t-56 16.5q-23 0 -38 -4v64q37 2 51 6q21 5 34 19t13 33q0 22 -16 36.5t-41 14.5q-46 0 -57 -42l-60 26q12 36 43.5 57t73.5 21q55 0 92.5 -29.5t37.5 -77.5
q0 -26 -13.5 -49.5t-35.5 -35.5q30 -11 49 -37.5t19 -60.5q0 -57 -40 -90t-99 -33z" />
    <glyph glyph-name="acute" unicode="&#xb4;" horiz-adv-x="360" 
d="M114 608l123 169l66 -51l-134 -160z" />
    <glyph glyph-name="uni00B5" unicode="&#xb5;" 
d="M53 500h91v-250q0 -31 1 -50.5t7.5 -46.5t17.5 -42.5t33.5 -27t53.5 -11.5q42 0 81.5 26.5t67.5 69.5v332h91v-500h-91v82q-59 -94 -163 -94q-58 0 -99 22v-260h-91v750z" />
    <glyph glyph-name="paragraph" unicode="&#xb6;" 
d="M249 282q-87 10 -147 62t-60 147q0 55 22.5 97t59 65.5t78.5 35t87 11.5h56v-875h-96v457zM249 612q-47 -6 -79 -36.5t-32 -84.5t32 -84.5t79 -35.5v241zM402 700h96v-875h-96v875z" />
    <glyph glyph-name="periodcentered" unicode="&#xb7;" horiz-adv-x="250" 
d="M72 375h105v-116h-105v116z" />
    <glyph glyph-name="cedilla" unicode="&#xb8;" horiz-adv-x="360" 
d="M177 -245q-70 0 -103 59l57 28q12 -32 46 -32q19 0 31 13t12 31q0 20 -12.5 33.5t-32.5 13.5q-29 0 -39 -24l-61 32l42 101l57 -11l-24 -64l1 -1q22 16 48 16q35 0 61 -26.5t26 -66.5q0 -41 -31.5 -71.5t-77.5 -30.5z" />
    <glyph glyph-name="uni00B9" unicode="&#xb9;" horiz-adv-x="216" 
d="M90 686q-10 -5 -58 -26v66l83 44h47v-403h-72v319z" />
    <glyph glyph-name="ordmasculine" unicode="&#xba;" horiz-adv-x="410" 
d="M205 378q-75 0 -125 51.5t-50 126.5t50 126.5t125 51.5t125 -51.5t50 -126.5t-50 -126.5t-125 -51.5zM205 443q44 0 72.5 32.5t28.5 80.5t-28.5 80.5t-72.5 32.5t-72.5 -32.5t-28.5 -80.5t28.5 -80.5t72.5 -32.5z" />
    <glyph glyph-name="guillemotright" unicode="&#xbb;" horiz-adv-x="530" 
d="M281 150l127 121l-127 122l44 78l145 -140v-119l-145 -140zM60 150l127 121l-127 122l44 78l145 -140v-119l-145 -140z" />
    <glyph glyph-name="onequarter" unicode="&#xbc;" horiz-adv-x="745" 
d="M80 28l497 684l55 -40l-497 -684zM155 621q-26 -12 -53 -23v62l32 16.5l45 23.5h45v-362h-69v283zM545 89h-156v61l154 209h70v-213h52v-57h-52v-89h-68v89zM545 146v122l-83 -122h83z" />
    <glyph glyph-name="onehalf" unicode="&#xbd;" horiz-adv-x="770" 
d="M80 28l497 684l55 -40l-497 -684zM155 621q-26 -12 -53 -23v62l32 16.5l45 23.5h45v-362h-69v283zM450 53q72 74 125 147q28 38 28 67q0 18 -13 29t-33 11t-33 -14t-13 -38l-69 12q3 44 37.5 71.5t80.5 27.5t80.5 -27.5t34.5 -71.5q0 -43 -39 -99q-32 -46 -93 -110h147
v-58h-240v53z" />
    <glyph glyph-name="threequarters" unicode="&#xbe;" horiz-adv-x="812" 
d="M147 28l497 684l55 -40l-497 -684zM202 335q-39 0 -72 18t-50 53l58 27q18 -40 64 -40q24 0 40.5 13.5t16.5 37.5q0 25 -19.5 39t-50.5 14q-20 0 -32 -3v60q30 0 45 4q41 11 41 47q0 19 -14 31t-37 12q-39 0 -48 -38l-59 26q12 33 41.5 52t66.5 19q50 0 85 -27t35 -70
q0 -23 -12.5 -44t-32.5 -32q28 -10 45 -34t17 -55q0 -50 -37 -80t-91 -30zM612 89h-156v61l154 209h70v-213h52v-57h-52v-89h-68v89zM612 146v122l-83 -122h83z" />
    <glyph glyph-name="questiondown" unicode="&#xbf;" horiz-adv-x="541" 
d="M269 -211q-83 0 -139.5 56t-56.5 125q0 84 41 129t113 78v114h97v-166q-36 -12 -59.5 -22.5t-49 -28.5t-38.5 -43t-13 -58q0 -42 30 -72t75 -30q49 0 78 30t29 82v8h91v-4q0 -86 -58.5 -142t-139.5 -56zM223 501h105v-116h-105v116z" />
    <glyph glyph-name="Agrave" unicode="&#xc0;" horiz-adv-x="653" 
d="M286 700h84l268 -700h-111l-55 149h-298l-54 -149h-105zM441 235l-117 319h-1l-117 -319h235zM176 866l52 66l165 -138l-42 -54z" />
    <glyph glyph-name="Aacute" unicode="&#xc1;" horiz-adv-x="653" 
d="M286 700h84l268 -700h-111l-55 149h-298l-54 -149h-105zM441 235l-117 319h-1l-117 -319h235zM263 794l165 138l52 -66l-175 -126z" />
    <glyph glyph-name="Acircumflex" unicode="&#xc2;" horiz-adv-x="653" 
d="M286 700h84l268 -700h-111l-55 149h-298l-54 -149h-105zM441 235l-117 319h-1l-117 -319h235zM170 788l110 134h95l107 -134l-54 -42l-102 116l-101 -116z" />
    <glyph glyph-name="Atilde" unicode="&#xc3;" horiz-adv-x="653" 
d="M286 700h84l268 -700h-111l-55 149h-298l-54 -149h-105zM441 235l-117 319h-1l-117 -319h235zM417 751q-30 0 -57.5 16t-50 32t-40.5 16q-31 0 -33 -30q0 -7 1 -10l-65 -7q-2 12 -2 27q0 43 27.5 69t70.5 26q37 0 83 -32t65 -32q31 0 33 30q0 7 -1 10l65 7q2 -12 2 -27
q0 -43 -27.5 -69t-70.5 -26z" />
    <glyph glyph-name="Adieresis" unicode="&#xc4;" horiz-adv-x="653" 
d="M286 700h84l268 -700h-111l-55 149h-298l-54 -149h-105zM441 235l-117 319h-1l-117 -319h235zM411 875h102v-111h-102v111zM141 875h102v-111h-102v111z" />
    <glyph glyph-name="Aring" unicode="&#xc5;" horiz-adv-x="653" 
d="M286 700h84l268 -700h-111l-55 149h-298l-54 -149h-105zM441 235l-117 319h-1l-117 -319h235zM329 726q-38 0 -65.5 27.5t-27.5 65.5t27.5 65.5t65.5 27.5t65.5 -27.5t27.5 -65.5t-27.5 -65.5t-65.5 -27.5zM329 775q18 0 31 13t13 31t-13 31t-31 13t-31 -13t-13 -31
t13 -31t31 -13z" />
    <glyph glyph-name="AE" unicode="&#xc6;" horiz-adv-x="986" 
d="M502 700h419v-86h-324v-210h324v-86h-324v-232h324v-86h-420v149h-286l-105 -149h-120zM501 235v321l-226 -321h226z" />
    <glyph glyph-name="Ccedilla" unicode="&#xc7;" horiz-adv-x="674" 
d="M382 -245q-70 0 -103 59l57 28q12 -32 46 -32q19 0 31 13t12 31q0 19 -11.5 33t-31.5 14q-28 0 -41 -24l-62 33l43 93q-118 32 -190 124t-72 223q0 154 109.5 258t266.5 104q101 0 188 -54l-45 -74q-68 42 -143 42q-119 0 -196.5 -78t-77.5 -198q0 -126 76 -201t198 -75
q82 0 155 49l51 -71q-94 -64 -206 -64q-33 0 -58 4l-24 -57l2 -1q18 16 48 16q39 0 63 -27t24 -66q0 -41 -31.5 -71.5t-77.5 -30.5z" />
    <glyph glyph-name="Egrave" unicode="&#xc8;" horiz-adv-x="580" 
d="M95 700h420v-86h-324v-210h324v-86h-324v-232h324v-86h-420v700zM169 866l52 66l165 -138l-42 -54z" />
    <glyph glyph-name="Eacute" unicode="&#xc9;" horiz-adv-x="580" 
d="M95 700h420v-86h-324v-210h324v-86h-324v-232h324v-86h-420v700zM230 794l165 138l52 -66l-175 -126z" />
    <glyph glyph-name="Ecircumflex" unicode="&#xca;" horiz-adv-x="580" 
d="M95 700h420v-86h-324v-210h324v-86h-324v-232h324v-86h-420v700zM154 788l110 134h95l107 -134l-54 -42l-102 116l-101 -116z" />
    <glyph glyph-name="Edieresis" unicode="&#xcb;" horiz-adv-x="580" 
d="M95 700h420v-86h-324v-210h324v-86h-324v-232h324v-86h-420v700zM148 875h100v-111h-100v111zM378 875h100v-111h-100v111z" />
    <glyph glyph-name="Igrave" unicode="&#xcc;" horiz-adv-x="286" 
d="M95 700h96v-700h-96v700zM-7 866l52 66l165 -138l-42 -54z" />
    <glyph glyph-name="Iacute" unicode="&#xcd;" horiz-adv-x="286" 
d="M95 700h96v-700h-96v700zM80 794l165 138l52 -66l-175 -126z" />
    <glyph glyph-name="Icircumflex" unicode="&#xce;" horiz-adv-x="286" 
d="M95 700h96v-700h-96v700zM-13 788l110 134h95l107 -134l-54 -42l-102 116l-101 -116z" />
    <glyph glyph-name="Idieresis" unicode="&#xcf;" horiz-adv-x="286" 
d="M95 700h96v-700h-96v700zM-22 875h102v-111h-102v111zM206 875h102v-111h-102v111z" />
    <glyph glyph-name="Eth" unicode="&#xd0;" horiz-adv-x="720" 
d="M95 321h-70v79h70v300h189q55 0 107.5 -11.5t101.5 -38t86 -65.5t59 -99t22 -133q0 -93 -33 -163.5t-89.5 -110.5t-122.5 -59.5t-141 -19.5h-179v321zM224 86q161 0 247.5 59.5t86.5 198.5q0 131 -76.5 200.5t-215.5 69.5h-75v-214h120v-79h-120v-235h33z" />
    <glyph glyph-name="Ntilde" unicode="&#xd1;" horiz-adv-x="755" 
d="M95 700h84l385 -522v522h96v-700h-85l-384 522v-522h-96v700zM460 751q-30 0 -57.5 16t-50 32t-40.5 16q-31 0 -33 -30q0 -7 1 -10l-65 -7q-2 12 -2 27q0 43 27.5 69t70.5 26q37 0 83 -32t65 -32q31 0 33 30q0 7 -1 10l65 7q2 -12 2 -27q0 -43 -27.5 -69t-70.5 -26z" />
    <glyph glyph-name="Ograve" unicode="&#xd2;" horiz-adv-x="840" 
d="M420 -12q-152 0 -256 105.5t-104 256.5t104 256.5t256 105.5t256 -105.5t104 -256.5t-104 -256.5t-256 -105.5zM420 74q111 0 184.5 79.5t73.5 196.5t-73.5 196.5t-184.5 79.5t-184.5 -79.5t-73.5 -196.5t73.5 -196.5t184.5 -79.5zM270 866l52 66l165 -138l-42 -54z" />
    <glyph glyph-name="Oacute" unicode="&#xd3;" horiz-adv-x="840" 
d="M420 -12q-152 0 -256 105.5t-104 256.5t104 256.5t256 105.5t256 -105.5t104 -256.5t-104 -256.5t-256 -105.5zM420 74q111 0 184.5 79.5t73.5 196.5t-73.5 196.5t-184.5 79.5t-184.5 -79.5t-73.5 -196.5t73.5 -196.5t184.5 -79.5zM357 794l165 138l52 -66l-175 -126z
" />
    <glyph glyph-name="Ocircumflex" unicode="&#xd4;" horiz-adv-x="840" 
d="M420 -12q-152 0 -256 105.5t-104 256.5t104 256.5t256 105.5t256 -105.5t104 -256.5t-104 -256.5t-256 -105.5zM420 74q111 0 184.5 79.5t73.5 196.5t-73.5 196.5t-184.5 79.5t-184.5 -79.5t-73.5 -196.5t73.5 -196.5t184.5 -79.5zM262 788l110 134h95l107 -134l-54 -42
l-102 116l-101 -116z" />
    <glyph glyph-name="Otilde" unicode="&#xd5;" horiz-adv-x="840" 
d="M420 -12q-152 0 -256 105.5t-104 256.5t104 256.5t256 105.5t256 -105.5t104 -256.5t-104 -256.5t-256 -105.5zM420 74q111 0 184.5 79.5t73.5 196.5t-73.5 196.5t-184.5 79.5t-184.5 -79.5t-73.5 -196.5t73.5 -196.5t184.5 -79.5zM515 751q-30 0 -57.5 16t-50 32
t-40.5 16q-31 0 -33 -30q0 -7 1 -10l-65 -7q-2 12 -2 27q0 43 27.5 69t70.5 26q37 0 83 -32t65 -32q31 0 33 30q0 7 -1 10l65 7q2 -12 2 -27q0 -43 -27.5 -69t-70.5 -26z" />
    <glyph glyph-name="Odieresis" unicode="&#xd6;" horiz-adv-x="840" 
d="M420 -12q-152 0 -256 105.5t-104 256.5t104 256.5t256 105.5t256 -105.5t104 -256.5t-104 -256.5t-256 -105.5zM420 74q111 0 184.5 79.5t73.5 196.5t-73.5 196.5t-184.5 79.5t-184.5 -79.5t-73.5 -196.5t73.5 -196.5t184.5 -79.5zM504 875h102v-111h-102v111zM234 875
h102v-111h-102v111z" />
    <glyph glyph-name="multiply" unicode="&#xd7;" 
d="M71 162l149 149l-149 149l55 56l149 -150l150 150l55 -56l-149 -149l148 -148l-55 -56l-149 149l-149 -149z" />
    <glyph glyph-name="Oslash" unicode="&#xd8;" horiz-adv-x="840" 
d="M147 24l35 52q-58 50 -90 121t-32 153q0 151 104 256.5t256 105.5q87 0 165 -40l28 42l67 -42l-29 -43q60 -50 94.5 -123t34.5 -156q0 -151 -104 -256.5t-256 -105.5q-95 0 -173 43l-33 -49zM535 599q-54 27 -115 27q-111 0 -184.5 -79.5t-73.5 -196.5q0 -118 73 -196z
M420 74q111 0 184.5 79.5t73.5 196.5q0 121 -79 202l-302 -447q56 -31 123 -31z" />
    <glyph glyph-name="Ugrave" unicode="&#xd9;" horiz-adv-x="722" 
d="M359 -12q-269 0 -269 341v371h96v-396q0 -114 46 -172t129 -58t129 58t46 172v396h96v-371q0 -169 -66 -255t-207 -86zM211 866l52 66l165 -138l-42 -54z" />
    <glyph glyph-name="Uacute" unicode="&#xda;" horiz-adv-x="722" 
d="M359 -12q-269 0 -269 341v371h96v-396q0 -114 46 -172t129 -58t129 58t46 172v396h96v-371q0 -169 -66 -255t-207 -86zM298 794l165 138l52 -66l-175 -126z" />
    <glyph glyph-name="Ucircumflex" unicode="&#xdb;" horiz-adv-x="722" 
d="M359 -12q-269 0 -269 341v371h96v-396q0 -114 46 -172t129 -58t129 58t46 172v396h96v-371q0 -169 -66 -255t-207 -86zM213 788l110 134h95l107 -134l-54 -42l-102 116l-101 -116z" />
    <glyph glyph-name="Udieresis" unicode="&#xdc;" horiz-adv-x="722" 
d="M359 -12q-269 0 -269 341v371h96v-396q0 -114 46 -172t129 -58t129 58t46 172v396h96v-371q0 -169 -66 -255t-207 -86zM445 875h102v-111h-102v111zM175 875h102v-111h-102v111z" />
    <glyph glyph-name="Yacute" unicode="&#xdd;" horiz-adv-x="555" 
d="M228 304l-223 396h119l156 -294h3l155 294h112l-226 -401v-299h-96v304zM205 794l165 138l52 -66l-175 -126z" />
    <glyph glyph-name="Thorn" unicode="&#xde;" horiz-adv-x="601" 
d="M95 701h96v-137h113q45 0 87 -11.5t78.5 -35t59 -65.5t22.5 -97q0 -56 -22 -98t-59 -66t-79 -35.5t-87 -11.5h-113v-144h-96v701zM279 230q170 0 170 122q0 58 -41 92t-109 34h-108v-248h88z" />
    <glyph glyph-name="germandbls" unicode="&#xdf;" horiz-adv-x="625" 
d="M342 -12q-58 0 -106 26l34 78q33 -20 75 -20q71 0 106.5 39.5t35.5 107.5q0 76 -47.5 115t-122.5 39q-30 0 -44 -2v72h20q50 0 91.5 32t41.5 82q0 55 -33.5 88t-89.5 33q-65 0 -98.5 -41.5t-33.5 -115.5v-521h-91v541q0 99 63.5 160t157.5 61t155 -55.5t61 -147.5
q0 -41 -21 -77t-55 -59q65 -21 102 -73t37 -131q0 -105 -68 -168t-170 -63z" />
    <glyph glyph-name="agrave" unicode="&#xe0;" horiz-adv-x="546" 
d="M231 -12q-75 0 -126 38t-51 114q0 60 34 99t81.5 53t107.5 14q47 0 100 -11v18q0 120 -118 120q-79 0 -159 -44l-27 76q98 47 197 47q105 0 151.5 -53.5t46.5 -154.5v-304h-87v53q-58 -65 -150 -65zM242 64q64 0 135 60v103q-46 10 -90 10q-144 0 -144 -90
q0 -43 27.5 -63t71.5 -20zM136 726l66 51l123 -169l-55 -42z" />
    <glyph glyph-name="aacute" unicode="&#xe1;" horiz-adv-x="546" 
d="M231 -12q-75 0 -126 38t-51 114q0 60 34 99t81.5 53t107.5 14q47 0 100 -11v18q0 120 -118 120q-79 0 -159 -44l-27 76q98 47 197 47q105 0 151.5 -53.5t46.5 -154.5v-304h-87v53q-58 -65 -150 -65zM242 64q64 0 135 60v103q-46 10 -90 10q-144 0 -144 -90
q0 -43 27.5 -63t71.5 -20zM206 608l123 169l66 -51l-134 -160z" />
    <glyph glyph-name="acircumflex" unicode="&#xe2;" horiz-adv-x="546" 
d="M231 -12q-75 0 -126 38t-51 114q0 60 34 99t81.5 53t107.5 14q47 0 100 -11v18q0 120 -118 120q-79 0 -159 -44l-27 76q98 47 197 47q105 0 151.5 -53.5t46.5 -154.5v-304h-87v53q-58 -65 -150 -65zM242 64q64 0 135 60v103q-46 10 -90 10q-144 0 -144 -90
q0 -43 27.5 -63t71.5 -20zM113 602l104 157h88l102 -157l-53 -36l-93 129l-93 -129z" />
    <glyph glyph-name="atilde" unicode="&#xe3;" horiz-adv-x="546" 
d="M231 -12q-75 0 -126 38t-51 114q0 60 34 99t81.5 53t107.5 14q47 0 100 -11v18q0 120 -118 120q-79 0 -159 -44l-27 76q98 47 197 47q105 0 151.5 -53.5t46.5 -154.5v-304h-87v53q-58 -65 -150 -65zM242 64q64 0 135 60v103q-46 10 -90 10q-144 0 -144 -90
q0 -43 27.5 -63t71.5 -20zM338 582q-40 0 -84.5 32t-63.5 32q-31 0 -33 -30q0 -7 1 -10l-65 -7q-2 12 -2 23q0 43 27.5 69t70.5 26q38 0 83.5 -32t64.5 -32q31 0 33 30q0 7 -1 10l65 7q2 -12 2 -23q0 -43 -27.5 -69t-70.5 -26z" />
    <glyph glyph-name="adieresis" unicode="&#xe4;" horiz-adv-x="546" 
d="M231 -12q-75 0 -126 38t-51 114q0 60 34 99t81.5 53t107.5 14q47 0 100 -11v18q0 120 -118 120q-79 0 -159 -44l-27 76q98 47 197 47q105 0 151.5 -53.5t46.5 -154.5v-304h-87v53q-58 -65 -150 -65zM242 64q64 0 135 60v103q-46 10 -90 10q-144 0 -144 -90
q0 -43 27.5 -63t71.5 -20zM317 700h93v-102h-93v102zM114 700h93v-102h-93v102z" />
    <glyph glyph-name="aring" unicode="&#xe5;" horiz-adv-x="546" 
d="M231 -12q-75 0 -126 38t-51 114q0 60 34 99t81.5 53t107.5 14q47 0 100 -11v18q0 120 -118 120q-79 0 -159 -44l-27 76q98 47 197 47q105 0 151.5 -53.5t46.5 -154.5v-304h-87v53q-58 -65 -150 -65zM242 64q64 0 135 60v103q-46 10 -90 10q-144 0 -144 -90
q0 -43 27.5 -63t71.5 -20zM265 565q-38 0 -65.5 27.5t-27.5 65.5t27.5 65.5t65.5 27.5t65.5 -27.5t27.5 -65.5t-27.5 -65.5t-65.5 -27.5zM265 614q18 0 31 13t13 31t-13 31t-31 13t-31 -13t-13 -31t13 -31t31 -13z" />
    <glyph glyph-name="ae" unicode="&#xe6;" horiz-adv-x="891" 
d="M231 -12q-75 0 -126 38t-51 114q0 60 34 99t81.5 53t107.5 14q47 0 100 -11v18q0 120 -118 120q-79 0 -159 -44l-27 76q98 47 197 47q128 0 171 -84q71 84 180 84q99 0 163.5 -66t64.5 -167q0 -26 -4 -52h-381q5 -68 48.5 -114.5t112.5 -46.5q106 0 149 81l66 -42
q-73 -117 -219 -117q-125 0 -193 86q-73 -86 -197 -86zM242 64q81 0 150 76q-16 44 -19 88q-45 9 -86 9q-144 0 -144 -90q0 -43 27.5 -63t71.5 -20zM755 300q-3 55 -40.5 94.5t-92.5 39.5q-58 0 -97.5 -37.5t-53.5 -96.5h284z" />
    <glyph glyph-name="ccedilla" unicode="&#xe7;" horiz-adv-x="475" 
d="M289 -245q-70 0 -103 59l57 28q12 -32 46 -32q19 0 31 13t12 31q0 20 -12.5 33.5t-32.5 13.5q-29 0 -39 -24l-61 32l37 89q-82 22 -132 89.5t-50 162.5q0 110 76 186t185 76q77 0 141 -43l-43 -75q-45 34 -102 34q-68 0 -116 -52t-48 -126q0 -79 48.5 -128.5t116.5 -49.5
q59 0 106 35l45 -70q-60 -49 -153 -49q-11 0 -16 1l-20 -54l1 -1q22 16 48 16q35 0 61 -26.5t26 -66.5q0 -41 -31.5 -71.5t-77.5 -30.5z" />
    <glyph glyph-name="egrave" unicode="&#xe8;" horiz-adv-x="560" 
d="M290 -12q-116 0 -182 74t-66 188q0 111 71.5 186.5t176.5 75.5q99 0 163.5 -66t64.5 -167q0 -26 -4 -52h-381q5 -68 48.5 -114.5t112.5 -46.5q106 0 149 81l66 -42q-73 -117 -219 -117zM424 300q-3 55 -40.5 94.5t-92.5 39.5q-58 0 -97.5 -37.5t-53.5 -96.5h284zM153 726
l66 51l123 -169l-55 -42z" />
    <glyph glyph-name="eacute" unicode="&#xe9;" horiz-adv-x="560" 
d="M290 -12q-116 0 -182 74t-66 188q0 111 71.5 186.5t176.5 75.5q99 0 163.5 -66t64.5 -167q0 -26 -4 -52h-381q5 -68 48.5 -114.5t112.5 -46.5q106 0 149 81l66 -42q-73 -117 -219 -117zM424 300q-3 55 -40.5 94.5t-92.5 39.5q-58 0 -97.5 -37.5t-53.5 -96.5h284zM238 608
l123 169l66 -51l-134 -160z" />
    <glyph glyph-name="ecircumflex" unicode="&#xea;" horiz-adv-x="560" 
d="M290 -12q-116 0 -182 74t-66 188q0 111 71.5 186.5t176.5 75.5q99 0 163.5 -66t64.5 -167q0 -26 -4 -52h-381q5 -68 48.5 -114.5t112.5 -46.5q106 0 149 81l66 -42q-73 -117 -219 -117zM424 300q-3 55 -40.5 94.5t-92.5 39.5q-58 0 -97.5 -37.5t-53.5 -96.5h284zM142 602
l104 157h88l102 -157l-53 -36l-93 129l-93 -129z" />
    <glyph glyph-name="edieresis" unicode="&#xeb;" horiz-adv-x="560" 
d="M290 -12q-116 0 -182 74t-66 188q0 111 71.5 186.5t176.5 75.5q99 0 163.5 -66t64.5 -167q0 -26 -4 -52h-381q5 -68 48.5 -114.5t112.5 -46.5q106 0 149 81l66 -42q-73 -117 -219 -117zM424 300q-3 55 -40.5 94.5t-92.5 39.5q-58 0 -97.5 -37.5t-53.5 -96.5h284zM345 700
h93v-102h-93v102zM142 700h93v-102h-93v102z" />
    <glyph glyph-name="igrave" unicode="&#xec;" horiz-adv-x="259" 
d="M84 500h91v-500h-91v500zM-10 726l66 51l123 -169l-55 -42z" />
    <glyph glyph-name="iacute" unicode="&#xed;" horiz-adv-x="259" 
d="M84 500h91v-500h-91v500zM78 608l123 169l66 -51l-134 -160z" />
    <glyph glyph-name="icircumflex" unicode="&#xee;" horiz-adv-x="259" 
d="M84 500h91v-500h-91v500zM-18 602l104 157h88l102 -157l-53 -36l-93 129l-93 -129z" />
    <glyph glyph-name="idieresis" unicode="&#xef;" horiz-adv-x="259" 
d="M84 500h91v-500h-91v500zM-18 700h93v-102h-93v102zM185 700h93v-102h-93v102z" />
    <glyph glyph-name="eth" unicode="&#xf0;" horiz-adv-x="574" 
d="M279 -12q-106 0 -171.5 73.5t-65.5 174.5q0 94 64.5 162.5t154.5 68.5q69 0 127 -34q-53 92 -159 164l-57 -98l-63 38l57 98q-36 20 -99 47l34 79q63 -28 108 -52l55 95l64 -37l-55 -95q259 -168 259 -440q0 -102 -68.5 -173t-184.5 -71zM287 72q77 0 114 48.5t37 124.5
q0 52 -15 107q-59 32 -131 32q-68 0 -112.5 -39.5t-44.5 -110.5q0 -68 42.5 -115t109.5 -47z" />
    <glyph glyph-name="ntilde" unicode="&#xf1;" horiz-adv-x="606" 
d="M84 500h91v-82q59 94 163 94q98 0 145 -63q45 -61 45 -189v-260h-91v250q0 99 -26 138q-27 40 -87 40q-42 0 -81.5 -26.5t-67.5 -69.5v-332h-91v500zM396 582q-31 0 -58.5 16t-49.5 32t-40 16q-31 0 -33 -30q0 -7 1 -10l-65 -7q-2 12 -2 23q0 43 27.5 69t70.5 26
q38 0 83.5 -32t64.5 -32q31 0 33 30q0 7 -1 10l65 7q2 -12 2 -23q0 -43 -27.5 -69t-70.5 -26z" />
    <glyph glyph-name="ograve" unicode="&#xf2;" horiz-adv-x="594" 
d="M297 -12q-109 0 -182 76t-73 186t73 186t182 76t182 -76t73 -186t-73 -186t-182 -76zM297 72q70 0 116 52t46 126t-46 126t-116 52t-116 -52t-46 -126t46 -126t116 -52zM153 726l66 51l123 -169l-55 -42z" />
    <glyph glyph-name="oacute" unicode="&#xf3;" horiz-adv-x="594" 
d="M297 -12q-109 0 -182 76t-73 186t73 186t182 76t182 -76t73 -186t-73 -186t-182 -76zM297 72q70 0 116 52t46 126t-46 126t-116 52t-116 -52t-46 -126t46 -126t116 -52zM249 608l123 169l66 -51l-134 -160z" />
    <glyph glyph-name="ocircumflex" unicode="&#xf4;" horiz-adv-x="594" 
d="M297 -12q-109 0 -182 76t-73 186t73 186t182 76t182 -76t73 -186t-73 -186t-182 -76zM297 72q70 0 116 52t46 126t-46 126t-116 52t-116 -52t-46 -126t46 -126t116 -52zM149 602l104 157h88l102 -157l-53 -36l-93 129l-93 -129z" />
    <glyph glyph-name="otilde" unicode="&#xf5;" horiz-adv-x="594" 
d="M297 -12q-109 0 -182 76t-73 186t73 186t182 76t182 -76t73 -186t-73 -186t-182 -76zM297 72q70 0 116 52t46 126t-46 126t-116 52t-116 -52t-46 -126t46 -126t116 -52zM378 582q-31 0 -58.5 16t-49.5 32t-40 16q-31 0 -33 -30q0 -7 1 -10l-65 -7q-2 12 -2 23
q0 43 27.5 69t70.5 26q38 0 83.5 -32t64.5 -32q31 0 33 30q0 7 -1 10l65 7q2 -12 2 -23q0 -43 -27.5 -69t-70.5 -26z" />
    <glyph glyph-name="odieresis" unicode="&#xf6;" horiz-adv-x="594" 
d="M297 -12q-109 0 -182 76t-73 186t73 186t182 76t182 -76t73 -186t-73 -186t-182 -76zM297 72q70 0 116 52t46 126t-46 126t-116 52t-116 -52t-46 -126t46 -126t116 -52zM352 700h93v-102h-93v102zM149 700h93v-102h-93v102z" />
    <glyph glyph-name="divide" unicode="&#xf7;" 
d="M24 350h501v-78h-501v78zM222 177h105v-116h-105v116zM222 561h105v-116h-105v116z" />
    <glyph glyph-name="oslash" unicode="&#xf8;" horiz-adv-x="594" 
d="M95 14l28 42q-81 76 -81 194q0 110 73 186t182 76q63 0 116 -28l25 37l54 -35l-26 -38q86 -78 86 -198q0 -110 -73 -186t-182 -76q-65 0 -122 30l-26 -39zM364 412q-32 16 -67 16q-70 0 -116 -52t-46 -126q0 -69 39 -119zM297 72q70 0 116 52t46 126q0 73 -44 123
l-191 -283q31 -18 73 -18z" />
    <glyph glyph-name="ugrave" unicode="&#xf9;" horiz-adv-x="606" 
d="M268 -12q-98 0 -145 63q-45 61 -45 189v260h91v-250q0 -99 26 -138q27 -40 87 -40q42 0 81.5 26.5t67.5 69.5v332h91v-500h-91v82q-59 -94 -163 -94zM174 726l66 51l123 -169l-55 -42z" />
    <glyph glyph-name="uacute" unicode="&#xfa;" horiz-adv-x="606" 
d="M268 -12q-98 0 -145 63q-45 61 -45 189v260h91v-250q0 -99 26 -138q27 -40 87 -40q42 0 81.5 26.5t67.5 69.5v332h91v-500h-91v82q-59 -94 -163 -94zM252 608l123 169l66 -51l-134 -160z" />
    <glyph glyph-name="ucircumflex" unicode="&#xfb;" horiz-adv-x="606" 
d="M268 -12q-98 0 -145 63q-45 61 -45 189v260h91v-250q0 -99 26 -138q27 -40 87 -40q42 0 81.5 26.5t67.5 69.5v332h91v-500h-91v82q-59 -94 -163 -94zM160 602l104 157h88l102 -157l-53 -36l-93 129l-93 -129z" />
    <glyph glyph-name="udieresis" unicode="&#xfc;" horiz-adv-x="606" 
d="M268 -12q-98 0 -145 63q-45 61 -45 189v260h91v-250q0 -99 26 -138q27 -40 87 -40q42 0 81.5 26.5t67.5 69.5v332h91v-500h-91v82q-59 -94 -163 -94zM356 700h93v-102h-93v102zM153 700h93v-102h-93v102z" />
    <glyph glyph-name="yacute" unicode="&#xfd;" horiz-adv-x="477" 
d="M110 -194l79 209l-183 485h101l130 -379h2l133 379h99l-281 -725zM176 608l123 169l66 -51l-134 -160z" />
    <glyph glyph-name="thorn" unicode="&#xfe;" horiz-adv-x="626" 
d="M84 750h91v-317q26 38 69 58.5t90 20.5q107 0 178.5 -76t71.5 -187q0 -104 -71 -182.5t-181 -78.5q-93 0 -157 66v-304h-91v1000zM320 72q81 0 126 54t45 125q0 73 -47 125t-122 52q-44 0 -86.5 -25.5t-60.5 -69.5v-185q25 -36 65 -56t80 -20z" />
    <glyph glyph-name="ydieresis" unicode="&#xff;" horiz-adv-x="477" 
d="M110 -194l79 209l-183 485h101l130 -379h2l133 379h99l-281 -725zM296 700h93v-102h-93v102zM93 700h93v-102h-93v102z" />
    <glyph glyph-name="Amacron" unicode="&#x100;" horiz-adv-x="653" 
d="M286 700h84l268 -700h-111l-55 149h-298l-54 -149h-105zM441 235l-117 319h-1l-117 -319h235zM161 845h330v-71h-330v71z" />
    <glyph glyph-name="amacron" unicode="&#x101;" horiz-adv-x="546" 
d="M231 -12q-75 0 -126 38t-51 114q0 60 34 99t81.5 53t107.5 14q47 0 100 -11v18q0 120 -118 120q-79 0 -159 -44l-27 76q98 47 197 47q105 0 151.5 -53.5t46.5 -154.5v-304h-87v53q-58 -65 -150 -65zM242 64q64 0 135 60v103q-46 10 -90 10q-144 0 -144 -90
q0 -43 27.5 -63t71.5 -20zM124 678h296v-70h-296v70z" />
    <glyph glyph-name="Abreve" unicode="&#x102;" horiz-adv-x="653" 
d="M286 700h84l268 -700h-111l-55 149h-298l-54 -149h-105zM441 235l-117 319h-1l-117 -319h235zM328 756q-65 0 -104 36t-39 96v6h67v-6q0 -32 21 -50t55 -18q33 0 56 18t23 50v6h64v-6q0 -59 -41 -95.5t-102 -36.5z" />
    <glyph glyph-name="abreve" unicode="&#x103;" horiz-adv-x="546" 
d="M231 -12q-75 0 -126 38t-51 114q0 60 34 99t81.5 53t107.5 14q47 0 100 -11v18q0 120 -118 120q-79 0 -159 -44l-27 76q98 47 197 47q105 0 151.5 -53.5t46.5 -154.5v-304h-87v53q-58 -65 -150 -65zM242 64q64 0 135 60v103q-46 10 -90 10q-144 0 -144 -90
q0 -43 27.5 -63t71.5 -20zM283 568q-60 0 -101.5 41.5t-41.5 101.5v14h66v-14q0 -33 22 -56t55 -23q32 0 55.5 23t23.5 56v14h64v-14q0 -60 -41.5 -101.5t-101.5 -41.5z" />
    <glyph glyph-name="Aogonek" unicode="&#x104;" horiz-adv-x="653" 
d="M549 -222q-45 0 -78 26.5t-33 72.5q0 78 89 123l-55 149h-298l-54 -149h-105l271 700h84l268 -700q-61 -15 -89.5 -45t-28.5 -65q0 -44 42 -44q22 0 44 14l32 -51q-34 -31 -89 -31zM441 235l-117 319h-1l-117 -319h235z" />
    <glyph glyph-name="aogonek" unicode="&#x105;" horiz-adv-x="546" 
d="M395 -222q-45 0 -78 26.5t-33 72.5q0 86 97 129v47q-58 -65 -150 -65q-75 0 -126 38t-51 114q0 60 34 99t81.5 53t107.5 14q47 0 100 -11v18q0 120 -118 120q-79 0 -159 -44l-27 76q98 47 197 47q105 0 151.5 -53.5t46.5 -154.5v-304q-51 -15 -76.5 -45.5t-25.5 -64.5
q0 -44 42 -44q22 0 44 14l32 -51q-34 -31 -89 -31zM242 64q64 0 135 60v103q-46 10 -90 10q-144 0 -144 -90q0 -43 27.5 -63t71.5 -20z" />
    <glyph glyph-name="Cacute" unicode="&#x106;" horiz-adv-x="674" 
d="M436 -12q-160 0 -268 100t-108 262q0 154 109.5 258t266.5 104q101 0 188 -54l-45 -74q-68 42 -143 42q-119 0 -196.5 -78t-77.5 -198q0 -126 76 -201t198 -75q82 0 155 49l51 -71q-94 -64 -206 -64zM357 794l165 138l52 -66l-175 -126z" />
    <glyph glyph-name="cacute" unicode="&#x107;" horiz-adv-x="475" 
d="M298 -12q-109 0 -182.5 73t-73.5 189q0 110 76 186t185 76q77 0 141 -43l-43 -75q-45 34 -102 34q-68 0 -116 -52t-48 -126q0 -79 48.5 -128.5t116.5 -49.5q59 0 106 35l45 -70q-60 -49 -153 -49zM249 608l123 169l66 -51l-134 -160z" />
    <glyph glyph-name="Ccircumflex" unicode="&#x108;" horiz-adv-x="674" 
d="M436 -12q-160 0 -268 100t-108 262q0 154 109.5 258t266.5 104q101 0 188 -54l-45 -74q-68 42 -143 42q-119 0 -196.5 -78t-77.5 -198q0 -126 76 -201t198 -75q82 0 155 49l51 -71q-94 -64 -206 -64zM267 788l110 134h95l107 -134l-54 -42l-102 116l-101 -116z" />
    <glyph glyph-name="ccircumflex" unicode="&#x109;" horiz-adv-x="475" 
d="M298 -12q-109 0 -182.5 73t-73.5 189q0 110 76 186t185 76q77 0 141 -43l-43 -75q-45 34 -102 34q-68 0 -116 -52t-48 -126q0 -79 48.5 -128.5t116.5 -49.5q59 0 106 35l45 -70q-60 -49 -153 -49zM143 602l104 157h88l102 -157l-53 -36l-93 129l-93 -129z" />
    <glyph glyph-name="Cdotaccent" unicode="&#x10a;" horiz-adv-x="674" 
d="M436 -12q-160 0 -268 100t-108 262q0 154 109.5 258t266.5 104q101 0 188 -54l-45 -74q-68 42 -143 42q-119 0 -196.5 -78t-77.5 -198q0 -126 76 -201t198 -75q82 0 155 49l51 -71q-94 -64 -206 -64zM369 875h102v-111h-102v111z" />
    <glyph glyph-name="cdotaccent" unicode="&#x10b;" horiz-adv-x="475" 
d="M298 -12q-109 0 -182.5 73t-73.5 189q0 110 76 186t185 76q77 0 141 -43l-43 -75q-45 34 -102 34q-68 0 -116 -52t-48 -126q0 -79 48.5 -128.5t116.5 -49.5q59 0 106 35l45 -70q-60 -49 -153 -49zM236 700h91v-102h-91v102z" />
    <glyph glyph-name="Ccaron" unicode="&#x10c;" horiz-adv-x="674" 
d="M436 -12q-160 0 -268 100t-108 262q0 154 109.5 258t266.5 104q101 0 188 -54l-45 -74q-68 42 -143 42q-119 0 -196.5 -78t-77.5 -198q0 -126 76 -201t198 -75q82 0 155 49l51 -71q-94 -64 -206 -64zM268 886l55 42l102 -116l101 116l54 -42l-110 -134h-95z" />
    <glyph glyph-name="ccaron" unicode="&#x10d;" horiz-adv-x="475" 
d="M298 -12q-109 0 -182.5 73t-73.5 189q0 110 76 186t185 76q77 0 141 -43l-43 -75q-45 34 -102 34q-68 0 -116 -52t-48 -126q0 -79 48.5 -128.5t116.5 -49.5q59 0 106 35l45 -70q-60 -49 -153 -49zM144 726l54 36l93 -129l93 129l54 -36l-104 -157h-88z" />
    <glyph glyph-name="Dcaron" unicode="&#x10e;" horiz-adv-x="720" 
d="M95 700h189q55 0 107.5 -11.5t101.5 -38t86 -65.5t59 -99t22 -133q0 -93 -33 -163.5t-89.5 -110.5t-122.5 -59.5t-141 -19.5h-179v700zM224 86q161 0 247.5 59.5t86.5 198.5q0 131 -76.5 200.5t-215.5 69.5h-75v-528h33zM170 886l55 42l102 -116l101 116l54 -42
l-110 -134h-95z" />
    <glyph glyph-name="dcaron" unicode="&#x10f;" horiz-adv-x="626" 
d="M292 -12q-107 0 -178.5 76t-71.5 186q0 104 70.5 183t181.5 79q92 0 157 -67v305h91v-750h-91v67q-26 -38 -69 -58.5t-90 -20.5zM304 72q43 0 85.5 25.5t61.5 68.5v186q-25 36 -65 56t-80 20q-82 0 -126.5 -54t-44.5 -126t47 -124t122 -52zM612 750h89l-53 -200h-76z" />
    <glyph glyph-name="Dcroat" unicode="&#x110;" horiz-adv-x="720" 
d="M95 321h-70v79h70v300h189q55 0 107.5 -11.5t101.5 -38t86 -65.5t59 -99t22 -133q0 -93 -33 -163.5t-89.5 -110.5t-122.5 -59.5t-141 -19.5h-179v321zM224 86q161 0 247.5 59.5t86.5 198.5q0 131 -76.5 200.5t-215.5 69.5h-75v-214h120v-79h-120v-235h33z" />
    <glyph glyph-name="dcroat" unicode="&#x111;" horiz-adv-x="626" 
d="M292 -12q-107 0 -178.5 76t-71.5 186q0 104 70.5 183t181.5 79q92 0 157 -67v143h-164v72h164v90h91v-90h70v-72h-70v-588h-91v67q-26 -38 -69 -58.5t-90 -20.5zM304 72q43 0 85.5 25.5t61.5 68.5v186q-25 36 -65 56t-80 20q-82 0 -126.5 -54t-44.5 -126t47 -124t122 -52
z" />
    <glyph glyph-name="Emacron" unicode="&#x112;" horiz-adv-x="580" 
d="M95 700h420v-86h-324v-210h324v-86h-324v-232h324v-86h-420v700zM148 845h330v-71h-330v71z" />
    <glyph glyph-name="emacron" unicode="&#x113;" horiz-adv-x="560" 
d="M290 -12q-116 0 -182 74t-66 188q0 111 71.5 186.5t176.5 75.5q99 0 163.5 -66t64.5 -167q0 -26 -4 -52h-381q5 -68 48.5 -114.5t112.5 -46.5q106 0 149 81l66 -42q-73 -117 -219 -117zM424 300q-3 55 -40.5 94.5t-92.5 39.5q-58 0 -97.5 -37.5t-53.5 -96.5h284zM142 678
h296v-70h-296v70z" />
    <glyph glyph-name="Ebreve" unicode="&#x114;" horiz-adv-x="580" 
d="M95 700h420v-86h-324v-210h324v-86h-324v-232h324v-86h-420v700zM328 756q-65 0 -104 36t-39 96v6h67v-6q0 -32 21 -50t55 -18q33 0 56 18t23 50v6h64v-6q0 -59 -41 -95.5t-102 -36.5z" />
    <glyph glyph-name="ebreve" unicode="&#x115;" horiz-adv-x="560" 
d="M290 -12q-116 0 -182 74t-66 188q0 111 71.5 186.5t176.5 75.5q99 0 163.5 -66t64.5 -167q0 -26 -4 -52h-381q5 -68 48.5 -114.5t112.5 -46.5q106 0 149 81l66 -42q-73 -117 -219 -117zM424 300q-3 55 -40.5 94.5t-92.5 39.5q-58 0 -97.5 -37.5t-53.5 -96.5h284zM290 568
q-60 0 -101.5 41.5t-41.5 101.5v14h66v-14q0 -33 22 -56t55 -23q32 0 55.5 23t23.5 56v14h64v-14q0 -60 -41.5 -101.5t-101.5 -41.5z" />
    <glyph glyph-name="Edotaccent" unicode="&#x116;" horiz-adv-x="580" 
d="M95 700h420v-86h-324v-210h324v-86h-324v-232h324v-86h-420v700zM264 875h102v-111h-102v111z" />
    <glyph glyph-name="edotaccent" unicode="&#x117;" horiz-adv-x="560" 
d="M290 -12q-116 0 -182 74t-66 188q0 111 71.5 186.5t176.5 75.5q99 0 163.5 -66t64.5 -167q0 -26 -4 -52h-381q5 -68 48.5 -114.5t112.5 -46.5q106 0 149 81l66 -42q-73 -117 -219 -117zM424 300q-3 55 -40.5 94.5t-92.5 39.5q-58 0 -97.5 -37.5t-53.5 -96.5h284zM239 700
h91v-102h-91v102z" />
    <glyph glyph-name="Eogonek" unicode="&#x118;" horiz-adv-x="580" 
d="M424 -222q-45 0 -78 26.5t-33 72.5q0 80 84 123h-302v700h420v-86h-324v-210h324v-86h-324v-232h324v-86q-60 -8 -90 -42.5t-30 -67.5q0 -44 42 -44q22 0 44 14l32 -51q-34 -31 -89 -31z" />
    <glyph glyph-name="eogonek" unicode="&#x119;" horiz-adv-x="560" 
d="M306 -222q-45 0 -78 26.5t-33 72.5q0 69 70 114q-103 10 -163 82t-60 177q0 111 71.5 186.5t176.5 75.5q99 0 163.5 -66t64.5 -167q0 -26 -4 -52h-381q5 -68 48.5 -114.5t112.5 -46.5q106 0 149 81l66 -42q-49 -80 -129 -105q-53 -17 -78 -47t-25 -63q0 -44 42 -44
q22 0 44 14l32 -51q-34 -31 -89 -31zM424 300q-3 55 -40.5 94.5t-92.5 39.5q-58 0 -97.5 -37.5t-53.5 -96.5h284z" />
    <glyph glyph-name="Ecaron" unicode="&#x11a;" horiz-adv-x="580" 
d="M95 700h420v-86h-324v-210h324v-86h-324v-232h324v-86h-420v700zM154 886l55 42l102 -116l101 116l54 -42l-110 -134h-95z" />
    <glyph glyph-name="ecaron" unicode="&#x11b;" horiz-adv-x="560" 
d="M290 -12q-116 0 -182 74t-66 188q0 111 71.5 186.5t176.5 75.5q99 0 163.5 -66t64.5 -167q0 -26 -4 -52h-381q5 -68 48.5 -114.5t112.5 -46.5q106 0 149 81l66 -42q-73 -117 -219 -117zM424 300q-3 55 -40.5 94.5t-92.5 39.5q-58 0 -97.5 -37.5t-53.5 -96.5h284zM143 726
l54 36l93 -129l93 129l54 -36l-104 -157h-88z" />
    <glyph glyph-name="Gcircumflex" unicode="&#x11c;" horiz-adv-x="803" 
d="M436 -12q-163 0 -269.5 100.5t-106.5 261.5q0 154 109.5 258t266.5 104q79 0 149.5 -33t121.5 -91l-68 -56q-38 43 -91.5 68.5t-111.5 25.5q-119 0 -196.5 -78t-77.5 -198q0 -126 76 -201t198 -75q115 0 191 73v155h-178v86h274v-266q-50 -64 -125.5 -99t-161.5 -35z
M277 788l110 134h95l107 -134l-54 -42l-102 116l-101 -116z" />
    <glyph glyph-name="gcircumflex" unicode="&#x11d;" horiz-adv-x="620" 
d="M290 -222q-131 0 -221 66l35 78q36 -26 87 -43t97 -17q71 0 117 36.5t46 111.5v69q-26 -38 -69.5 -58.5t-90.5 -20.5q-106 0 -177.5 74t-71.5 182q0 103 70.5 179.5t181.5 76.5q92 0 157 -67v55h91v-472q0 -80 -26 -131q-62 -119 -226 -119zM303 84q43 0 86 25t62 68v175
q-25 36 -65 56t-80 20q-82 0 -126.5 -52t-44.5 -122t47 -120t121 -50zM145 602l104 157h88l102 -157l-53 -36l-93 129l-93 -129z" />
    <glyph glyph-name="Gbreve" unicode="&#x11e;" horiz-adv-x="803" 
d="M436 -12q-163 0 -269.5 100.5t-106.5 261.5q0 154 109.5 258t266.5 104q79 0 149.5 -33t121.5 -91l-68 -56q-38 43 -91.5 68.5t-111.5 25.5q-119 0 -196.5 -78t-77.5 -198q0 -126 76 -201t198 -75q115 0 191 73v155h-178v86h274v-266q-50 -64 -125.5 -99t-161.5 -35z
M435 756q-65 0 -104 36t-39 96v6h67v-6q0 -32 21 -50t55 -18q33 0 56 18t23 50v6h64v-6q0 -59 -41 -95.5t-102 -36.5z" />
    <glyph glyph-name="gbreve" unicode="&#x11f;" horiz-adv-x="620" 
d="M290 -222q-131 0 -221 66l35 78q36 -26 87 -43t97 -17q71 0 117 36.5t46 111.5v69q-26 -38 -69.5 -58.5t-90.5 -20.5q-106 0 -177.5 74t-71.5 182q0 103 70.5 179.5t181.5 76.5q92 0 157 -67v55h91v-472q0 -80 -26 -131q-62 -119 -226 -119zM303 84q43 0 86 25t62 68v175
q-25 36 -65 56t-80 20q-82 0 -126.5 -52t-44.5 -122t47 -120t121 -50zM303 568q-60 0 -101.5 41.5t-41.5 101.5v14h66v-14q0 -33 22 -56t55 -23q32 0 55.5 23t23.5 56v14h64v-14q0 -60 -41.5 -101.5t-101.5 -41.5z" />
    <glyph glyph-name="Gdotaccent" unicode="&#x120;" horiz-adv-x="803" 
d="M436 -12q-163 0 -269.5 100.5t-106.5 261.5q0 154 109.5 258t266.5 104q79 0 149.5 -33t121.5 -91l-68 -56q-38 43 -91.5 68.5t-111.5 25.5q-119 0 -196.5 -78t-77.5 -198q0 -126 76 -201t198 -75q115 0 191 73v155h-178v86h274v-266q-50 -64 -125.5 -99t-161.5 -35z
M370 875h102v-111h-102v111z" />
    <glyph glyph-name="gdotaccent" unicode="&#x121;" horiz-adv-x="620" 
d="M290 -222q-131 0 -221 66l35 78q36 -26 87 -43t97 -17q71 0 117 36.5t46 111.5v69q-26 -38 -69.5 -58.5t-90.5 -20.5q-106 0 -177.5 74t-71.5 182q0 103 70.5 179.5t181.5 76.5q92 0 157 -67v55h91v-472q0 -80 -26 -131q-62 -119 -226 -119zM303 84q43 0 86 25t62 68v175
q-25 36 -65 56t-80 20q-82 0 -126.5 -52t-44.5 -122t47 -120t121 -50zM247 700h91v-102h-91v102z" />
    <glyph glyph-name="uni0122" unicode="&#x122;" horiz-adv-x="803" 
d="M436 -12q-163 0 -269.5 100.5t-106.5 261.5q0 154 109.5 258t266.5 104q79 0 149.5 -33t121.5 -91l-68 -56q-38 43 -91.5 68.5t-111.5 25.5q-119 0 -196.5 -78t-77.5 -198q0 -126 76 -201t198 -75q115 0 191 73v155h-178v86h274v-266q-50 -64 -125.5 -99t-161.5 -35z
M368 -56h85l-46 -175h-75z" />
    <glyph glyph-name="uni0123" unicode="&#x123;" horiz-adv-x="620" 
d="M305 746h79l-37 -179h-89zM290 -222q-131 0 -221 66l35 78q36 -26 87 -43t97 -17q71 0 117 36.5t46 111.5v69q-26 -38 -69.5 -58.5t-90.5 -20.5q-106 0 -177.5 74t-71.5 182q0 103 70.5 179.5t181.5 76.5q92 0 157 -67v55h91v-472q0 -80 -26 -131q-62 -119 -226 -119z
M303 84q43 0 86 25t62 68v175q-25 36 -65 56t-80 20q-82 0 -126.5 -52t-44.5 -122t47 -120t121 -50z" />
    <glyph glyph-name="Hcircumflex" unicode="&#x124;" horiz-adv-x="752" 
d="M95 700h96v-296h370v296h96v-700h-96v318h-370v-318h-96v700zM220 788l110 134h95l107 -134l-54 -42l-102 116l-101 -116z" />
    <glyph glyph-name="hcircumflex" unicode="&#x125;" horiz-adv-x="606" 
d="M84 750h91v-332q59 94 163 94q98 0 145 -63q45 -61 45 -189v-260h-91v250q0 99 -26 138q-27 40 -87 40q-42 0 -81.5 -26.5t-67.5 -69.5v-332h-91v750zM-28 788l110 134h95l107 -134l-54 -42l-102 116l-101 -116z" />
    <glyph glyph-name="Hbar" unicode="&#x126;" horiz-adv-x="752" 
d="M95 516h-90v75h90v109h96v-109h370v109h96v-109h90v-75h-90v-516h-96v318h-370v-318h-96v516zM561 404v112h-370v-112h370z" />
    <glyph glyph-name="hbar" unicode="&#x127;" horiz-adv-x="606" 
d="M84 588h-70v72h70v90h91v-90h164v-72h-164v-170q59 94 163 94q98 0 145 -63q45 -61 45 -189v-260h-91v250q0 99 -26 138q-27 40 -87 40q-42 0 -81.5 -26.5t-67.5 -69.5v-332h-91v588z" />
    <glyph glyph-name="Itilde" unicode="&#x128;" horiz-adv-x="286" 
d="M95 700h96v-700h-96v700zM218 751q-30 0 -57.5 16t-50 32t-40.5 16q-31 0 -33 -30q0 -7 1 -10l-65 -7q-2 12 -2 27q0 43 27.5 69t70.5 26q37 0 83 -32t65 -32q31 0 33 30q0 7 -1 10l65 7q2 -12 2 -27q0 -43 -27.5 -69t-70.5 -26z" />
    <glyph glyph-name="itilde" unicode="&#x129;" horiz-adv-x="259" 
d="M84 500h91v-500h-91v500zM204 582q-40 0 -84.5 32t-63.5 32q-31 0 -33 -30q0 -7 1 -10l-65 -7q-2 12 -2 23q0 43 27.5 69t70.5 26q38 0 83.5 -32t64.5 -32q31 0 33 30q0 7 -1 10l65 7q2 -12 2 -23q0 -43 -27.5 -69t-70.5 -26z" />
    <glyph glyph-name="Imacron" unicode="&#x12a;" horiz-adv-x="286" 
d="M95 700h96v-700h-96v700zM-22 845h330v-71h-330v71z" />
    <glyph glyph-name="imacron" unicode="&#x12b;" horiz-adv-x="259" 
d="M84 500h91v-500h-91v500zM-18 678h296v-70h-296v70z" />
    <glyph glyph-name="Ibreve" unicode="&#x12c;" horiz-adv-x="286" 
d="M95 700h96v-700h-96v700zM143 756q-65 0 -104 36t-39 96v6h67v-6q0 -32 21 -50t55 -18q33 0 56 18t23 50v6h64v-6q0 -59 -41 -95.5t-102 -36.5z" />
    <glyph glyph-name="ibreve" unicode="&#x12d;" horiz-adv-x="259" 
d="M84 500h91v-500h-91v500zM130 568q-60 0 -101.5 41.5t-41.5 101.5v14h66v-14q0 -33 22 -56t55 -23q32 0 55.5 23t23.5 56v14h64v-14q0 -60 -41.5 -101.5t-101.5 -41.5z" />
    <glyph glyph-name="Iogonek" unicode="&#x12e;" horiz-adv-x="286" 
d="M122 -222q-45 0 -78 26.5t-33 72.5q0 39 22 72.5t62 52.5v698h96v-700q-53 -15 -75.5 -46t-22.5 -64q0 -44 42 -44q22 0 44 14l32 -51q-34 -31 -89 -31z" />
    <glyph glyph-name="iogonek" unicode="&#x12f;" horiz-adv-x="259" 
d="M111 -222q-45 0 -78 26.5t-33 72.5q0 85 84 125v498h91v-500q-93 -28 -93 -110q0 -44 42 -44q22 0 44 14l32 -51q-34 -31 -89 -31zM84 700h91v-102h-91v102z" />
    <glyph glyph-name="Idotaccent" unicode="&#x130;" horiz-adv-x="286" 
d="M95 700h96v-700h-96v700zM92 875h102v-111h-102v111z" />
    <glyph glyph-name="dotlessi" unicode="&#x131;" horiz-adv-x="259" 
d="M84 500h91v-500h-91v500z" />
    <glyph glyph-name="IJ" unicode="&#x132;" horiz-adv-x="642" 
d="M386 -12q-48 0 -101 22l26 78q30 -14 61 -14q50 0 67 24q17 22 17 92v510h96v-523q0 -86 -32 -133q-39 -56 -134 -56zM95 700h96v-700h-96v700z" />
    <glyph glyph-name="ij" unicode="&#x133;" horiz-adv-x="526" 
d="M295 -222q-56 0 -96 22l26 74q26 -14 56 -14q44 0 57 28t13 86v526h91v-544q0 -59 -14 -95q-32 -83 -133 -83zM84 500h91v-500h-91v500zM84 700h91v-102h-91v102zM351 700h91v-102h-91v102z" />
    <glyph glyph-name="Jcircumflex" unicode="&#x134;" horiz-adv-x="336" 
d="M85 -12q-48 0 -101 22l26 78q30 -14 61 -14q50 0 67 24q17 23 17 92v510h96v-523q0 -86 -32 -133q-39 -56 -134 -56zM47 788l110 134h95l107 -134l-54 -42l-102 116l-101 -116z" />
    <glyph glyph-name="jcircumflex" unicode="&#x135;" horiz-adv-x="267" 
d="M36 -222q-56 0 -96 22l26 74q26 -14 56 -14q44 0 57 28t13 86v526h91v-544q0 -59 -14 -95q-32 -83 -133 -83zM-10 602l104 157h88l102 -157l-53 -36l-93 129l-93 -129z" />
    <glyph glyph-name="uni0136" unicode="&#x136;" horiz-adv-x="621" 
d="M95 700h96v-357l294 357h117l-233 -276l247 -424h-112l-200 346l-113 -135v-211h-96v700zM288 -56h85l-46 -175h-75z" />
    <glyph glyph-name="uni0137" unicode="&#x137;" horiz-adv-x="514" 
d="M84 750h91v-500l2 -1l202 251h112l-175 -204l192 -296h-111l-143 224l-79 -92v-132h-91v750zM229 -56h85l-46 -175h-75z" />
    <glyph glyph-name="kgreenlandic" unicode="&#x138;" horiz-adv-x="514" 
d="M84 500h91v-250l2 -1l202 251h112l-175 -204l192 -296h-111l-143 224l-79 -92v-132h-91v500z" />
    <glyph glyph-name="Lacute" unicode="&#x139;" horiz-adv-x="500" 
d="M95 700h96v-614h304v-86h-400v700zM83 794l165 138l52 -66l-175 -126z" />
    <glyph glyph-name="lacute" unicode="&#x13a;" horiz-adv-x="259" 
d="M84 750h91v-750h-91v750zM67 838l165 138l52 -66l-175 -126z" />
    <glyph glyph-name="uni013B" unicode="&#x13b;" horiz-adv-x="500" 
d="M95 700h96v-614h304v-86h-400v700zM266 -56h85l-46 -175h-75z" />
    <glyph glyph-name="uni013C" unicode="&#x13c;" horiz-adv-x="259" 
d="M84 750h91v-750h-91v750zM85 -56h85l-46 -175h-75z" />
    <glyph glyph-name="Lcaron" unicode="&#x13d;" horiz-adv-x="500" 
d="M95 700h96v-614h304v-86h-400v700zM326 700h89l-53 -200h-76z" />
    <glyph glyph-name="lcaron" unicode="&#x13e;" horiz-adv-x="259" 
d="M84 750h91v-750h-91v750zM245 750h89l-53 -200h-76z" />
    <glyph glyph-name="Ldot" unicode="&#x13f;" horiz-adv-x="500" 
d="M95 700h96v-614h304v-86h-400v700zM345 425h102v-111h-102v111z" />
    <glyph glyph-name="ldot" unicode="&#x140;" horiz-adv-x="319" 
d="M84 750h91v-750h-91v750zM210 425h102v-111h-102v111z" />
    <glyph glyph-name="Lslash" unicode="&#x141;" horiz-adv-x="500" 
d="M95 281l-90 -58v89l90 58v330h96v-287l149 97v-89l-149 -97v-238h304v-86h-400v281z" />
    <glyph glyph-name="lslash" unicode="&#x142;" horiz-adv-x="259" 
d="M84 321l-66 -43v86l66 43v343h91v-303l70 46v-88l-70 -46v-359h-91v321z" />
    <glyph glyph-name="Nacute" unicode="&#x143;" horiz-adv-x="755" 
d="M95 700h84l385 -522v522h96v-700h-85l-384 522v-522h-96v700zM324 794l165 138l52 -66l-175 -126z" />
    <glyph glyph-name="nacute" unicode="&#x144;" horiz-adv-x="606" 
d="M84 500h91v-82q59 94 163 94q98 0 145 -63q45 -61 45 -189v-260h-91v250q0 99 -26 138q-27 40 -87 40q-42 0 -81.5 -26.5t-67.5 -69.5v-332h-91v500zM263 608l123 169l66 -51l-134 -160z" />
    <glyph glyph-name="uni0145" unicode="&#x145;" horiz-adv-x="755" 
d="M95 700h84l385 -522v522h96v-700h-85l-384 522v-522h-96v700zM348 -56h85l-46 -175h-75z" />
    <glyph glyph-name="uni0146" unicode="&#x146;" horiz-adv-x="606" 
d="M84 500h91v-82q59 94 163 94q98 0 145 -63q45 -61 45 -189v-260h-91v250q0 99 -26 138q-27 40 -87 40q-42 0 -81.5 -26.5t-67.5 -69.5v-332h-91v500zM264 -56h85l-46 -175h-75z" />
    <glyph glyph-name="Ncaron" unicode="&#x147;" horiz-adv-x="755" 
d="M95 700h84l385 -522v522h96v-700h-85l-384 522v-522h-96v700zM229 886l55 42l102 -116l101 116l54 -42l-110 -134h-95z" />
    <glyph glyph-name="ncaron" unicode="&#x148;" horiz-adv-x="606" 
d="M84 500h91v-82q59 94 163 94q98 0 145 -63q45 -61 45 -189v-260h-91v250q0 99 -26 138q-27 40 -87 40q-42 0 -81.5 -26.5t-67.5 -69.5v-332h-91v500zM177 726l54 36l93 -129l93 129l54 -36l-104 -157h-88z" />
    <glyph glyph-name="Eng" unicode="&#x14a;" horiz-adv-x="755" 
d="M494 -222q-48 0 -101 22l26 78q30 -14 61 -14q51 0 67 23q17 22 17 93v35l-373 507v-522h-96v700h84l385 -522v522h96v-733q0 -86 -32 -133q-39 -56 -134 -56z" />
    <glyph glyph-name="eng" unicode="&#x14b;" horiz-adv-x="606" 
d="M381 -222q-56 0 -96 22l26 74q26 -14 56 -14q44 0 57 28t13 86v276q0 99 -26 138q-27 40 -87 40q-42 0 -81.5 -26.5t-67.5 -69.5v-332h-91v500h91v-82q59 94 163 94q98 0 145 -63q45 -61 45 -189v-304q0 -59 -14 -95q-32 -83 -133 -83z" />
    <glyph glyph-name="Omacron" unicode="&#x14c;" horiz-adv-x="840" 
d="M420 -12q-152 0 -256 105.5t-104 256.5t104 256.5t256 105.5t256 -105.5t104 -256.5t-104 -256.5t-256 -105.5zM420 74q111 0 184.5 79.5t73.5 196.5t-73.5 196.5t-184.5 79.5t-184.5 -79.5t-73.5 -196.5t73.5 -196.5t184.5 -79.5zM255 845h330v-71h-330v71z" />
    <glyph glyph-name="omacron" unicode="&#x14d;" horiz-adv-x="594" 
d="M297 -12q-109 0 -182 76t-73 186t73 186t182 76t182 -76t73 -186t-73 -186t-182 -76zM297 72q70 0 116 52t46 126t-46 126t-116 52t-116 -52t-46 -126t46 -126t116 -52zM149 678h296v-70h-296v70z" />
    <glyph glyph-name="Obreve" unicode="&#x14e;" horiz-adv-x="840" 
d="M420 -12q-152 0 -256 105.5t-104 256.5t104 256.5t256 105.5t256 -105.5t104 -256.5t-104 -256.5t-256 -105.5zM420 74q111 0 184.5 79.5t73.5 196.5t-73.5 196.5t-184.5 79.5t-184.5 -79.5t-73.5 -196.5t73.5 -196.5t184.5 -79.5zM420 756q-65 0 -104 36t-39 96v6h67v-6
q0 -32 21 -50t55 -18q33 0 56 18t23 50v6h64v-6q0 -59 -41 -95.5t-102 -36.5z" />
    <glyph glyph-name="obreve" unicode="&#x14f;" horiz-adv-x="594" 
d="M297 -12q-109 0 -182 76t-73 186t73 186t182 76t182 -76t73 -186t-73 -186t-182 -76zM297 72q70 0 116 52t46 126t-46 126t-116 52t-116 -52t-46 -126t46 -126t116 -52zM307 568q-60 0 -101.5 41.5t-41.5 101.5v14h66v-14q0 -33 22 -56t55 -23q32 0 55.5 23t23.5 56v14
h64v-14q0 -60 -41.5 -101.5t-101.5 -41.5z" />
    <glyph glyph-name="Ohungarumlaut" unicode="&#x150;" horiz-adv-x="840" 
d="M420 -12q-152 0 -256 105.5t-104 256.5t104 256.5t256 105.5t256 -105.5t104 -256.5t-104 -256.5t-256 -105.5zM420 74q111 0 184.5 79.5t73.5 196.5t-73.5 196.5t-184.5 79.5t-184.5 -79.5t-73.5 -196.5t73.5 -196.5t184.5 -79.5zM251 794l165 138l52 -66l-175 -126z
M468 794l158 133l52 -66l-168 -121z" />
    <glyph glyph-name="ohungarumlaut" unicode="&#x151;" horiz-adv-x="594" 
d="M297 -12q-109 0 -182 76t-73 186t73 186t182 76t182 -76t73 -186t-73 -186t-182 -76zM297 72q70 0 116 52t46 126t-46 126t-116 52t-116 -52t-46 -126t46 -126t116 -52zM175 615l128 178l67 -52l-140 -166zM332 608l125 169l66 -51l-135 -161z" />
    <glyph glyph-name="OE" unicode="&#x152;" horiz-adv-x="1063" 
d="M420 -12q-152 0 -256 105.5t-104 256.5t104 256.5t256 105.5q84 0 158 -45v33h420v-86h-324v-210h324v-86h-324v-232h324v-86h-420v33q-74 -45 -158 -45zM420 74q90 0 158 54v444q-68 54 -158 54q-111 0 -184.5 -79.5t-73.5 -196.5t73.5 -196.5t184.5 -79.5z" />
    <glyph glyph-name="oe" unicode="&#x153;" horiz-adv-x="973" 
d="M297 -12q-109 0 -182 76t-73 186t73 186.5t182 76.5q65 0 118.5 -30t87.5 -82q33 52 85 82t115 30q99 0 163.5 -66t64.5 -167q0 -27 -4 -53h-381q5 -68 48.5 -114.5t112.5 -46.5q106 0 149 81l66 -42q-73 -117 -219 -117q-137 0 -203 108q-73 -108 -203 -108zM298 72
q69 0 115 52.5t46 126.5q0 73 -46 125.5t-115 52.5q-70 0 -116.5 -52.5t-46.5 -125.5q0 -74 46.5 -126.5t116.5 -52.5zM837 301q-3 55 -40.5 94.5t-92.5 39.5q-58 0 -97.5 -37.5t-53.5 -96.5h284z" />
    <glyph glyph-name="Racute" unicode="&#x154;" horiz-adv-x="613" 
d="M95 700h208q58 0 110 -19t90.5 -66.5t38.5 -115.5q0 -83 -49.5 -132.5t-121.5 -64.5l222 -302h-120l-210 296h-72v-296h-96v700zM278 382q74 0 118 28.5t44 85.5q0 53 -39 85.5t-103 32.5h-107v-232h87zM221 794l165 138l52 -66l-175 -126z" />
    <glyph glyph-name="racute" unicode="&#x155;" horiz-adv-x="357" 
d="M84 500h91v-83q53 95 129 95q26 0 54 -6l-17 -97q-21 10 -47 10q-71 0 -119 -84v-335h-91v500zM155 608l123 169l66 -51l-134 -160z" />
    <glyph glyph-name="uni0156" unicode="&#x156;" horiz-adv-x="613" 
d="M95 700h208q58 0 110 -19t90.5 -66.5t38.5 -115.5q0 -83 -49.5 -132.5t-121.5 -64.5l222 -302h-120l-210 296h-72v-296h-96v700zM278 382q74 0 118 28.5t44 85.5q0 53 -39 85.5t-103 32.5h-107v-232h87zM282 -56h85l-46 -175h-75z" />
    <glyph glyph-name="uni0157" unicode="&#x157;" horiz-adv-x="357" 
d="M84 500h91v-83q53 95 129 95q26 0 54 -6l-17 -97q-21 10 -47 10q-71 0 -119 -84v-335h-91v500zM85 -56h85l-46 -175h-75z" />
    <glyph glyph-name="Rcaron" unicode="&#x158;" horiz-adv-x="613" 
d="M95 700h208q58 0 110 -19t90.5 -66.5t38.5 -115.5q0 -83 -49.5 -132.5t-121.5 -64.5l222 -302h-120l-210 296h-72v-296h-96v700zM278 382q74 0 118 28.5t44 85.5q0 53 -39 85.5t-103 32.5h-107v-232h87zM134 886l55 42l102 -116l101 116l54 -42l-110 -134h-95z" />
    <glyph glyph-name="rcaron" unicode="&#x159;" horiz-adv-x="357" 
d="M84 500h91v-83q53 95 129 95q26 0 54 -6l-17 -97q-21 10 -47 10q-71 0 -119 -84v-335h-91v500zM70 726l54 36l93 -129l93 129l54 -36l-104 -157h-88z" />
    <glyph glyph-name="Sacute" unicode="&#x15a;" horiz-adv-x="609" 
d="M298 -12q-147 0 -253 105l68 64q48 -47 90 -65t96 -18q60 0 101.5 30.5t41.5 90.5q0 28 -11.5 48.5t-37.5 36.5t-47 24.5t-60 22.5q-42 15 -72 29t-61 36.5t-47.5 54.5t-16.5 72q0 94 60 143.5t151 49.5q122 0 217 -72l-59 -70q-26 24 -66.5 40t-80.5 16q-57 0 -91 -25.5
t-34 -71.5q0 -18 9 -33t19 -24.5t34 -20.5t38 -16.5t46 -16.5q47 -17 76.5 -30.5t65 -38.5t53 -60.5t17.5 -82.5q0 -56 -23 -100t-60 -68.5t-79 -37t-84 -12.5zM249 794l165 138l52 -66l-175 -126z" />
    <glyph glyph-name="sacute" unicode="&#x15b;" horiz-adv-x="451" 
d="M215 -12q-112 0 -172 78l64 51q50 -53 109 -53q39 0 64.5 20t25.5 57q0 18 -15.5 33.5t-31.5 23t-49 20.5q-35 14 -52 22t-42.5 25.5t-37 41.5t-11.5 56q0 72 47 110.5t114 38.5q93 0 154 -55l-54 -58q-43 37 -99 37q-34 0 -54.5 -18t-20.5 -48q0 -18 16 -33t32 -22.5
t48 -20.5q30 -12 51 -22.5t45.5 -28t37 -42.5t12.5 -56q0 -79 -52 -118t-129 -39zM195 608l123 169l66 -51l-134 -160z" />
    <glyph glyph-name="Scircumflex" unicode="&#x15c;" horiz-adv-x="609" 
d="M298 -12q-147 0 -253 105l68 64q48 -47 90 -65t96 -18q60 0 101.5 30.5t41.5 90.5q0 28 -11.5 48.5t-37.5 36.5t-47 24.5t-60 22.5q-42 15 -72 29t-61 36.5t-47.5 54.5t-16.5 72q0 94 60 143.5t151 49.5q122 0 217 -72l-59 -70q-26 24 -66.5 40t-80.5 16q-57 0 -91 -25.5
t-34 -71.5q0 -18 9 -33t19 -24.5t34 -20.5t38 -16.5t46 -16.5q47 -17 76.5 -30.5t65 -38.5t53 -60.5t17.5 -82.5q0 -56 -23 -100t-60 -68.5t-79 -37t-84 -12.5zM155 788l110 134h95l107 -134l-54 -42l-102 116l-101 -116z" />
    <glyph glyph-name="scircumflex" unicode="&#x15d;" horiz-adv-x="451" 
d="M215 -12q-112 0 -172 78l64 51q50 -53 109 -53q39 0 64.5 20t25.5 57q0 18 -15.5 33.5t-31.5 23t-49 20.5q-35 14 -52 22t-42.5 25.5t-37 41.5t-11.5 56q0 72 47 110.5t114 38.5q93 0 154 -55l-54 -58q-43 37 -99 37q-34 0 -54.5 -18t-20.5 -48q0 -18 16 -33t32 -22.5
t48 -20.5q30 -12 51 -22.5t45.5 -28t37 -42.5t12.5 -56q0 -79 -52 -118t-129 -39zM87 602l104 157h88l102 -157l-53 -36l-93 129l-93 -129z" />
    <glyph glyph-name="Scedilla" unicode="&#x15e;" horiz-adv-x="609" 
d="M314 -245q-70 0 -103 59l57 28q12 -32 46 -32q19 0 31 13t12 31q0 19 -11.5 33t-31.5 14q-28 0 -41 -24l-62 33l38 81q-115 13 -204 102l68 64q48 -47 90 -65t96 -18q60 0 101.5 30.5t41.5 90.5q0 28 -11.5 48.5t-37.5 36.5t-47 24.5t-60 22.5q-42 15 -72 29t-61 36.5
t-47.5 54.5t-16.5 72q0 94 60 143.5t151 49.5q122 0 217 -72l-59 -70q-26 24 -66.5 40t-80.5 16q-57 0 -91 -25.5t-34 -71.5q0 -18 9 -33t19 -24.5t34 -20.5t38 -16.5t46 -16.5q47 -17 76.5 -30.5t65 -38.5t53 -60.5t17.5 -82.5q0 -54 -21.5 -97t-57 -68t-75 -38t-81.5 -15
l-23 -53l2 -1q18 16 48 16q39 0 63 -27t24 -66q0 -41 -31.5 -71.5t-77.5 -30.5z" />
    <glyph glyph-name="scedilla" unicode="&#x15f;" horiz-adv-x="451" 
d="M238 -245q-70 0 -103 59l57 28q12 -32 46 -32q19 0 31 13t12 31q0 20 -12.5 33.5t-32.5 13.5q-28 0 -39 -24l-61 32l34 83q-82 15 -127 74l64 51q50 -53 109 -53q39 0 64.5 20t25.5 57q0 18 -15.5 33.5t-31.5 23t-49 20.5q-35 14 -52 22t-42.5 25.5t-37 41.5t-11.5 56
q0 72 47 110.5t114 38.5q93 0 154 -55l-54 -58q-43 37 -99 37q-34 0 -54.5 -18t-20.5 -48q0 -18 16 -33t32 -22.5t48 -20.5q30 -12 51 -22.5t45.5 -28t37 -42.5t12.5 -56q0 -75 -46.5 -113.5t-118.5 -42.5l-20 -54l1 -1q22 16 48 16q35 0 61 -26.5t26 -66.5
q0 -41 -31.5 -71.5t-77.5 -30.5z" />
    <glyph glyph-name="Scaron" unicode="&#x160;" horiz-adv-x="609" 
d="M298 -12q-147 0 -253 105l68 64q48 -47 90 -65t96 -18q60 0 101.5 30.5t41.5 90.5q0 28 -11.5 48.5t-37.5 36.5t-47 24.5t-60 22.5q-42 15 -72 29t-61 36.5t-47.5 54.5t-16.5 72q0 94 60 143.5t151 49.5q122 0 217 -72l-59 -70q-26 24 -66.5 40t-80.5 16q-57 0 -91 -25.5
t-34 -71.5q0 -18 9 -33t19 -24.5t34 -20.5t38 -16.5t46 -16.5q47 -17 76.5 -30.5t65 -38.5t53 -60.5t17.5 -82.5q0 -56 -23 -100t-60 -68.5t-79 -37t-84 -12.5zM155 886l55 42l102 -116l101 116l54 -42l-110 -134h-95z" />
    <glyph glyph-name="scaron" unicode="&#x161;" horiz-adv-x="451" 
d="M215 -12q-112 0 -172 78l64 51q50 -53 109 -53q39 0 64.5 20t25.5 57q0 18 -15.5 33.5t-31.5 23t-49 20.5q-35 14 -52 22t-42.5 25.5t-37 41.5t-11.5 56q0 72 47 110.5t114 38.5q93 0 154 -55l-54 -58q-43 37 -99 37q-34 0 -54.5 -18t-20.5 -48q0 -18 16 -33t32 -22.5
t48 -20.5q30 -12 51 -22.5t45.5 -28t37 -42.5t12.5 -56q0 -79 -52 -118t-129 -39zM89 726l54 36l93 -129l93 129l54 -36l-104 -157h-88z" />
    <glyph glyph-name="uni0162" unicode="&#x162;" horiz-adv-x="488" 
d="M273 -245q-70 0 -103 59l57 28q12 -32 46 -32q19 0 31 13t12 31q0 19 -11.5 33t-31.5 14q-28 0 -41 -24l-62 33l42 90h-16v614h-176v86h448v-86h-176v-614h-19l-28 -65l2 -1q18 16 48 16q39 0 63 -27t24 -66q0 -41 -31.5 -71.5t-77.5 -30.5z" />
    <glyph glyph-name="uni0163" unicode="&#x163;" horiz-adv-x="346" 
d="M218 -245q-70 0 -103 59l57 28q12 -32 46 -32q19 0 31 13t12 31q0 20 -12.5 33.5t-32.5 13.5q-28 0 -39 -24l-61 32l42 100q-36 19 -53 59q-16 37 -16 104v248h-67v80h67v120h91v-120h140v-80h-140v-226q0 -24 1 -39q2 -42 18 -63t52 -21q28 0 56 14l25 -73
q-42 -22 -93 -22q-18 0 -27 2l-21 -57l1 -1q22 16 48 16q35 0 61 -26.5t26 -66.5q0 -41 -31.5 -71.5t-77.5 -30.5z" />
    <glyph glyph-name="Tcaron" unicode="&#x164;" horiz-adv-x="488" 
d="M196 614h-176v86h448v-86h-176v-614h-96v614zM88 886l55 42l102 -116l101 116l54 -42l-110 -134h-95z" />
    <glyph glyph-name="tcaron" unicode="&#x165;" horiz-adv-x="346" 
d="M239 -10q-99 0 -134 78q-16 37 -16 104v248h-67v80h67v120h91v-120h140v-80h-140v-226q0 -24 1 -39q2 -42 18 -63t52 -21q28 0 56 14l25 -73q-42 -22 -93 -22zM277 750h89l-53 -200h-76z" />
    <glyph glyph-name="Tbar" unicode="&#x166;" horiz-adv-x="488" 
d="M196 321h-110v79h110v214h-176v86h448v-86h-176v-214h110v-79h-110v-321h-96v321z" />
    <glyph glyph-name="tbar" unicode="&#x167;" horiz-adv-x="346" 
d="M239 -10q-99 0 -134 78q-16 37 -16 104v56h-67v72h67v120h-67v80h67v120h91v-120h140v-80h-140v-120h140v-72h-140v-34q0 -24 1 -39q2 -42 18 -63t52 -21q28 0 56 14l25 -73q-42 -22 -93 -22z" />
    <glyph glyph-name="Utilde" unicode="&#x168;" horiz-adv-x="722" 
d="M359 -12q-269 0 -269 341v371h96v-396q0 -114 46 -172t129 -58t129 58t46 172v396h96v-371q0 -169 -66 -255t-207 -86zM435 751q-30 0 -57.5 16t-50 32t-40.5 16q-31 0 -33 -30q0 -7 1 -10l-65 -7q-2 12 -2 27q0 43 27.5 69t70.5 26q37 0 83 -32t65 -32q31 0 33 30
q0 7 -1 10l65 7q2 -12 2 -27q0 -43 -27.5 -69t-70.5 -26z" />
    <glyph glyph-name="utilde" unicode="&#x169;" horiz-adv-x="606" 
d="M268 -12q-98 0 -145 63q-45 61 -45 189v260h91v-250q0 -99 26 -138q27 -40 87 -40q42 0 81.5 26.5t67.5 69.5v332h91v-500h-91v82q-59 -94 -163 -94zM386 582q-31 0 -58.5 16t-49.5 32t-40 16q-31 0 -33 -30q0 -7 1 -10l-65 -7q-2 12 -2 23q0 43 27.5 69t70.5 26
q38 0 83.5 -32t64.5 -32q31 0 33 30q0 7 -1 10l65 7q2 -12 2 -23q0 -43 -27.5 -69t-70.5 -26z" />
    <glyph glyph-name="Umacron" unicode="&#x16a;" horiz-adv-x="722" 
d="M359 -12q-269 0 -269 341v371h96v-396q0 -114 46 -172t129 -58t129 58t46 172v396h96v-371q0 -169 -66 -255t-207 -86zM196 845h330v-71h-330v71z" />
    <glyph glyph-name="umacron" unicode="&#x16b;" horiz-adv-x="606" 
d="M268 -12q-98 0 -145 63q-45 61 -45 189v260h91v-250q0 -99 26 -138q27 -40 87 -40q42 0 81.5 26.5t67.5 69.5v332h91v-500h-91v82q-59 -94 -163 -94zM152 678h296v-70h-296v70z" />
    <glyph glyph-name="Ubreve" unicode="&#x16c;" horiz-adv-x="722" 
d="M359 -12q-269 0 -269 341v371h96v-396q0 -114 46 -172t129 -58t129 58t46 172v396h96v-371q0 -169 -66 -255t-207 -86zM362 756q-65 0 -104 36t-39 96v6h67v-6q0 -32 21 -50t55 -18q33 0 56 18t23 50v6h64v-6q0 -59 -41 -95.5t-102 -36.5z" />
    <glyph glyph-name="ubreve" unicode="&#x16d;" horiz-adv-x="606" 
d="M268 -12q-98 0 -145 63q-45 61 -45 189v260h91v-250q0 -99 26 -138q27 -40 87 -40q42 0 81.5 26.5t67.5 69.5v332h91v-500h-91v82q-59 -94 -163 -94zM305 568q-60 0 -101.5 41.5t-41.5 101.5v14h66v-14q0 -33 22 -56t55 -23q32 0 55.5 23t23.5 56v14h64v-14
q0 -60 -41.5 -101.5t-101.5 -41.5z" />
    <glyph glyph-name="Uring" unicode="&#x16e;" horiz-adv-x="722" 
d="M359 -12q-269 0 -269 341v371h96v-396q0 -114 46 -172t129 -58t129 58t46 172v396h96v-371q0 -169 -66 -255t-207 -86zM361 726q-38 0 -65.5 27.5t-27.5 65.5t27.5 65.5t65.5 27.5t65.5 -27.5t27.5 -65.5t-27.5 -65.5t-65.5 -27.5zM361 775q18 0 31 13t13 31t-13 31
t-31 13t-31 -13t-13 -31t13 -31t31 -13z" />
    <glyph glyph-name="uring" unicode="&#x16f;" horiz-adv-x="606" 
d="M268 -12q-98 0 -145 63q-45 61 -45 189v260h91v-250q0 -99 26 -138q27 -40 87 -40q42 0 81.5 26.5t67.5 69.5v332h91v-500h-91v82q-59 -94 -163 -94zM304 560q-38 0 -65.5 27.5t-27.5 65.5t27.5 65.5t65.5 27.5t65.5 -27.5t27.5 -65.5t-27.5 -65.5t-65.5 -27.5zM304 609
q18 0 31 13t13 31t-13 31t-31 13t-31 -13t-13 -31t13 -31t31 -13z" />
    <glyph glyph-name="Uhungarumlaut" unicode="&#x170;" horiz-adv-x="722" 
d="M359 -12q-269 0 -269 341v371h96v-396q0 -114 46 -172t129 -58t129 58t46 172v396h96v-371q0 -169 -66 -255t-207 -86zM192 794l165 138l52 -66l-175 -126zM409 794l158 133l52 -66l-168 -121z" />
    <glyph glyph-name="uhungarumlaut" unicode="&#x171;" horiz-adv-x="606" 
d="M268 -12q-98 0 -145 63q-45 61 -45 189v260h91v-250q0 -99 26 -138q27 -40 87 -40q42 0 81.5 26.5t67.5 69.5v332h91v-500h-91v82q-59 -94 -163 -94zM164 615l128 178l67 -52l-140 -166zM321 608l125 169l66 -51l-135 -161z" />
    <glyph glyph-name="Uogonek" unicode="&#x172;" horiz-adv-x="722" 
d="M378 -222q-45 0 -78 26.5t-33 72.5q0 72 65 112q-242 16 -242 340v371h96v-396q0 -114 46 -172t129 -58t129 58t46 172v396h96v-371q0 -279 -179 -329q-39 -11 -71.5 -41.5t-32.5 -68.5q0 -44 42 -44q22 0 44 14l32 -51q-34 -31 -89 -31z" />
    <glyph glyph-name="uogonek" unicode="&#x173;" horiz-adv-x="606" 
d="M448 -222q-45 0 -78 26.5t-33 72.5q0 73 94 124v81q-59 -94 -163 -94q-98 0 -145 63q-45 61 -45 189v260h91v-250q0 -99 26 -138q27 -40 87 -40q42 0 81.5 26.5t67.5 69.5v332h91v-500q-52 -16 -77.5 -46t-25.5 -64q0 -44 42 -44q22 0 44 14l32 -51q-34 -31 -89 -31z" />
    <glyph glyph-name="Wcircumflex" unicode="&#x174;" horiz-adv-x="886" 
d="M5 700h106l140 -528h2l147 528h90l140 -528h2l147 528h102l-200 -700h-96l-140 533h-2l-152 -533h-94zM288 788l110 134h95l107 -134l-54 -42l-102 116l-101 -116z" />
    <glyph glyph-name="wcircumflex" unicode="&#x175;" horiz-adv-x="733" 
d="M16 500h98l94 -385h2l111 385h98l101 -385h3l102 385h92l-144 -500h-98l-107 389h-2l-110 -389h-102zM222 602l104 157h88l102 -157l-53 -36l-93 129l-93 -129z" />
    <glyph glyph-name="Ycircumflex" unicode="&#x176;" horiz-adv-x="555" 
d="M228 304l-223 396h119l156 -294h3l155 294h112l-226 -401v-299h-96v304zM122 788l110 134h95l107 -134l-54 -42l-102 116l-101 -116z" />
    <glyph glyph-name="ycircumflex" unicode="&#x177;" horiz-adv-x="477" 
d="M110 -194l79 209l-183 485h101l130 -379h2l133 379h99l-281 -725zM100 602l104 157h88l102 -157l-53 -36l-93 129l-93 -129z" />
    <glyph glyph-name="Ydieresis" unicode="&#x178;" horiz-adv-x="555" 
d="M228 304l-223 396h119l156 -294h3l155 294h112l-226 -401v-299h-96v304zM121 875h100v-111h-100v111zM351 875h100v-111h-100v111z" />
    <glyph glyph-name="Zacute" unicode="&#x179;" horiz-adv-x="547" 
d="M40 51l331 563h-323v86h454v-52l-329 -562h354v-86h-487v51zM198 794l165 138l52 -66l-175 -126z" />
    <glyph glyph-name="zacute" unicode="&#x17a;" horiz-adv-x="454" 
d="M59 41l221 379h-232v80h353v-40l-221 -380h238v-80h-359v41zM175 608l123 169l66 -51l-134 -160z" />
    <glyph glyph-name="Zdotaccent" unicode="&#x17b;" horiz-adv-x="547" 
d="M40 51l331 563h-323v86h454v-52l-329 -562h354v-86h-487v51zM218 875h102v-111h-102v111z" />
    <glyph glyph-name="zdotaccent" unicode="&#x17c;" horiz-adv-x="454" 
d="M59 41l221 379h-232v80h353v-40l-221 -380h238v-80h-359v41zM176 700h91v-102h-91v102z" />
    <glyph glyph-name="Zcaron" unicode="&#x17d;" horiz-adv-x="547" 
d="M40 51l331 563h-323v86h454v-52l-329 -562h354v-86h-487v51zM119 886l55 42l102 -116l101 116l54 -42l-110 -134h-95z" />
    <glyph glyph-name="zcaron" unicode="&#x17e;" horiz-adv-x="454" 
d="M59 41l221 379h-232v80h353v-40l-221 -380h238v-80h-359v41zM91 726l54 36l93 -129l93 129l54 -36l-104 -157h-88z" />
    <glyph glyph-name="longs" unicode="&#x17f;" horiz-adv-x="308" 
d="M80 572q0 94 39 142t126 48q46 0 99 -22l-26 -76q-30 14 -62 14q-50 0 -67 -25t-17 -90v-563h-92v572z" />
    <glyph glyph-name="florin" unicode="&#x192;" 
d="M75 -212q-36 0 -81 12l20 79q26 -7 50 -7q35 0 48 23t19 77l39 344h-80v84h89l13 111q9 79 51.5 122t111.5 43q61 0 128 -32l-36 -76q-34 24 -83 24q-42 0 -59 -24t-23 -76l-11 -92h122v-84h-131l-41 -363q-9 -79 -48 -122t-98 -43z" />
    <glyph glyph-name="AEacute" unicode="&#x1fc;" horiz-adv-x="986" 
d="M502 700h419v-86h-324v-210h324v-86h-324v-232h324v-86h-420v149h-286l-105 -149h-120zM501 235v321l-226 -321h226zM512 794l165 138l52 -66l-175 -126z" />
    <glyph glyph-name="aeacute" unicode="&#x1fd;" horiz-adv-x="891" 
d="M231 -12q-75 0 -126 38t-51 114q0 60 34 99t81.5 53t107.5 14q47 0 100 -11v18q0 120 -118 120q-79 0 -159 -44l-27 76q98 47 197 47q128 0 171 -84q71 84 180 84q99 0 163.5 -66t64.5 -167q0 -26 -4 -52h-381q5 -68 48.5 -114.5t112.5 -46.5q106 0 149 81l66 -42
q-73 -117 -219 -117q-125 0 -193 86q-73 -86 -197 -86zM242 64q81 0 150 76q-16 44 -19 88q-45 9 -86 9q-144 0 -144 -90q0 -43 27.5 -63t71.5 -20zM755 300q-3 55 -40.5 94.5t-92.5 39.5q-58 0 -97.5 -37.5t-53.5 -96.5h284zM397 608l123 169l66 -51l-134 -160z" />
    <glyph glyph-name="uni0218" unicode="&#x218;" horiz-adv-x="609" 
d="M298 -12q-147 0 -253 105l68 64q48 -47 90 -65t96 -18q60 0 101.5 30.5t41.5 90.5q0 28 -11.5 48.5t-37.5 36.5t-47 24.5t-60 22.5q-42 15 -72 29t-61 36.5t-47.5 54.5t-16.5 72q0 94 60 143.5t151 49.5q122 0 217 -72l-59 -70q-26 24 -66.5 40t-80.5 16q-57 0 -91 -25.5
t-34 -71.5q0 -18 9 -33t19 -24.5t34 -20.5t38 -16.5t46 -16.5q47 -17 76.5 -30.5t65 -38.5t53 -60.5t17.5 -82.5q0 -56 -23 -100t-60 -68.5t-79 -37t-84 -12.5zM223 -56h85l-46 -175h-75z" />
    <glyph glyph-name="uni0219" unicode="&#x219;" horiz-adv-x="451" 
d="M215 -12q-112 0 -172 78l64 51q50 -53 109 -53q39 0 64.5 20t25.5 57q0 18 -15.5 33.5t-31.5 23t-49 20.5q-35 14 -52 22t-42.5 25.5t-37 41.5t-11.5 56q0 72 47 110.5t114 38.5q93 0 154 -55l-54 -58q-43 37 -99 37q-34 0 -54.5 -18t-20.5 -48q0 -18 16 -33t32 -22.5
t48 -20.5q30 -12 51 -22.5t45.5 -28t37 -42.5t12.5 -56q0 -79 -52 -118t-129 -39zM158 -56h85l-46 -175h-75z" />
    <glyph glyph-name="uni021A" unicode="&#x21a;" horiz-adv-x="488" 
d="M196 614h-176v86h448v-86h-176v-614h-96v614zM197 -56h85l-46 -175h-75z" />
    <glyph glyph-name="uni021B" unicode="&#x21b;" horiz-adv-x="346" 
d="M239 -10q-99 0 -134 78q-16 37 -16 104v248h-67v80h67v120h91v-120h140v-80h-140v-226q0 -24 1 -39q2 -42 18 -63t52 -21q28 0 56 14l25 -73q-42 -22 -93 -22zM139 -56h85l-46 -175h-75z" />
    <glyph glyph-name="uni0237" unicode="&#x237;" horiz-adv-x="267" 
d="M36 -222q-56 0 -96 22l26 74q26 -14 56 -14q44 0 57 28t13 86v526h91v-544q0 -59 -14 -95q-32 -83 -133 -83z" />
    <glyph glyph-name="uni02BB" unicode="&#x2bb;" horiz-adv-x="360" 
d="M187 746h79l-37 -179h-89z" />
    <glyph glyph-name="uni02BC" unicode="&#x2bc;" horiz-adv-x="360" 
d="M154 712h99l-58 -212h-80z" />
    <glyph glyph-name="circumflex" unicode="&#x2c6;" horiz-adv-x="360" 
d="M32 602l104 157h88l102 -157l-53 -36l-93 129l-93 -129z" />
    <glyph glyph-name="caron" unicode="&#x2c7;" horiz-adv-x="360" 
d="M32 726l54 36l93 -129l93 129l54 -36l-104 -157h-88z" />
    <glyph glyph-name="uni02C9" unicode="&#x2c9;" horiz-adv-x="360" 
d="M32 678h296v-70h-296v70z" />
    <glyph glyph-name="breve" unicode="&#x2d8;" horiz-adv-x="360" 
d="M180 568q-60 0 -101.5 41.5t-41.5 101.5v14h66v-14q0 -33 22 -56t55 -23q32 0 55.5 23t23.5 56v14h64v-14q0 -60 -41.5 -101.5t-101.5 -41.5z" />
    <glyph glyph-name="dotaccent" unicode="&#x2d9;" horiz-adv-x="360" 
d="M135 700h91v-102h-91v102z" />
    <glyph glyph-name="ring" unicode="&#x2da;" horiz-adv-x="360" 
d="M180 580q-38 0 -65.5 27.5t-27.5 65.5t27.5 65.5t65.5 27.5t65.5 -27.5t27.5 -65.5t-27.5 -65.5t-65.5 -27.5zM180 629q18 0 31 13t13 31t-13 31t-31 13t-31 -13t-13 -31t13 -31t31 -13z" />
    <glyph glyph-name="ogonek" unicode="&#x2db;" horiz-adv-x="360" 
d="M160 -222q-45 0 -78 26.5t-33 72.5q0 92 112 135l69 -7l4 -5q-51 -16 -77 -46t-26 -64q0 -44 42 -44q22 0 44 14l32 -51q-34 -31 -89 -31z" />
    <glyph glyph-name="tilde" unicode="&#x2dc;" horiz-adv-x="360" 
d="M255 582q-39 0 -84 32t-64 32q-31 0 -33 -30q0 -7 1 -10l-65 -7q-2 12 -2 23q0 43 27.5 69t70.5 26q38 0 83.5 -32t64.5 -32q31 0 33 30q0 7 -1 10l65 7q2 -12 2 -23q0 -43 -27.5 -69t-70.5 -26z" />
    <glyph glyph-name="hungarumlaut" unicode="&#x2dd;" horiz-adv-x="360" 
d="M40 615l128 178l67 -52l-140 -166zM197 608l125 169l66 -51l-135 -161z" />
    <glyph glyph-name="gravecomb" unicode="&#x300;" horiz-adv-x="0" 
d="M-123 726l66 51l123 -169l-55 -42z" />
    <glyph glyph-name="acutecomb" unicode="&#x301;" horiz-adv-x="0" 
d="M-66 608l123 169l66 -51l-134 -160z" />
    <glyph glyph-name="uni0302" unicode="&#x302;" horiz-adv-x="0" 
d="M-148 602l104 157h88l102 -157l-53 -36l-93 129l-93 -129z" />
    <glyph glyph-name="tildecomb" unicode="&#x303;" horiz-adv-x="0" 
d="M75 582q-39 0 -84 32t-64 32q-31 0 -33 -30q0 -7 1 -10l-65 -7q-2 12 -2 23q0 43 27.5 69t70.5 26q38 0 83.5 -32t64.5 -32q31 0 33 30q0 7 -1 10l65 7q2 -12 2 -23q0 -43 -27.5 -69t-70.5 -26z" />
    <glyph glyph-name="uni0304" unicode="&#x304;" horiz-adv-x="0" 
d="M-148 678h296v-70h-296v70z" />
    <glyph glyph-name="uni0306" unicode="&#x306;" horiz-adv-x="0" 
d="M0 568q-60 0 -101.5 41.5t-41.5 101.5v14h66v-14q0 -33 22 -56t55 -23q32 0 55.5 23t23.5 56v14h64v-14q0 -60 -41.5 -101.5t-101.5 -41.5z" />
    <glyph glyph-name="uni0307" unicode="&#x307;" horiz-adv-x="0" 
d="M-45 700h91v-102h-91v102z" />
    <glyph glyph-name="uni0308" unicode="&#x308;" horiz-adv-x="0" 
d="M55 700h93v-102h-93v102zM-148 700h93v-102h-93v102z" />
    <glyph glyph-name="uni030A" unicode="&#x30a;" horiz-adv-x="0" 
d="M0 580q-38 0 -65.5 27.5t-27.5 65.5t27.5 65.5t65.5 27.5t65.5 -27.5t27.5 -65.5t-27.5 -65.5t-65.5 -27.5zM0 629q18 0 31 13t13 31t-13 31t-31 13t-31 -13t-13 -31t13 -31t31 -13z" />
    <glyph glyph-name="uni030B" unicode="&#x30b;" horiz-adv-x="0" 
d="M-140 615l128 178l67 -52l-140 -166zM17 608l125 169l66 -51l-135 -161z" />
    <glyph glyph-name="uni030C" unicode="&#x30c;" horiz-adv-x="0" 
d="M-148 726l54 36l93 -129l93 129l54 -36l-104 -157h-88z" />
    <glyph glyph-name="uni0312" unicode="&#x312;" horiz-adv-x="0" 
d="M-16 746h79l-37 -179h-89z" />
    <glyph glyph-name="uni0326" unicode="&#x326;" horiz-adv-x="0" 
d="M-44 -56h85l-46 -175h-75z" />
    <glyph glyph-name="uni0327" unicode="&#x327;" horiz-adv-x="0" 
d="M20 -245q-70 0 -103 59l57 28q12 -32 46 -32q19 0 31 13t12 31q0 20 -12.5 33.5t-32.5 13.5q-29 0 -39 -24l-61 32l42 101l57 -11l-24 -64l1 -1q22 16 48 16q35 0 61 -26.5t26 -66.5q0 -41 -31.5 -71.5t-77.5 -30.5z" />
    <glyph glyph-name="uni0328" unicode="&#x328;" horiz-adv-x="0" 
d="M11 -222q-45 0 -78 26.5t-33 72.5q0 92 112 135l69 -7l4 -5q-51 -16 -77 -46t-26 -64q0 -44 42 -44q22 0 44 14l32 -51q-34 -31 -89 -31z" />
    <glyph glyph-name="uni0394" unicode="&#x394;" horiz-adv-x="633" 
d="M276 700h84l268 -700h-623zM485 86l-171 468h-1l-172 -468h344z" />
    <glyph glyph-name="uni03A9" unicode="&#x3a9;" horiz-adv-x="794" 
d="M20 86h184q-77 54 -115.5 129t-38.5 156q0 66 23.5 127t66 109t109.5 76.5t148 28.5t148 -28.5t109.5 -76.5t66 -109t23.5 -127q0 -81 -38.5 -156t-115.5 -129h184v-86h-318v94q88 30 136.5 107.5t48.5 167.5q0 108 -62 182.5t-182 74.5t-182 -74.5t-62 -182.5
q0 -90 48.5 -167.5t136.5 -107.5v-94h-318v86z" />
    <glyph glyph-name="uni03BC" unicode="&#x3bc;" 
d="M53 500h91v-250q0 -31 1 -50.5t7.5 -46.5t17.5 -42.5t33.5 -27t53.5 -11.5q42 0 81.5 26.5t67.5 69.5v332h91v-500h-91v82q-59 -94 -163 -94q-58 0 -99 22v-260h-91v750z" />
    <glyph glyph-name="pi" unicode="&#x3c0;" 
d="M454 -16q-91 23 -100 144q-2 24 -2 39v253h-171v-359q0 -28 -5 -61h-93q7 26 7 70v350h-60v80h507v-80h-94v-244q0 -24 1 -34q2 -36 13 -54.5t35 -23.5z" />
    <glyph glyph-name="Wgrave" unicode="&#x1e80;" horiz-adv-x="886" 
d="M5 700h106l140 -528h2l147 528h90l140 -528h2l147 528h102l-200 -700h-96l-140 533h-2l-152 -533h-94zM295 866l52 66l165 -138l-42 -54z" />
    <glyph glyph-name="wgrave" unicode="&#x1e81;" horiz-adv-x="733" 
d="M16 500h98l94 -385h2l111 385h98l101 -385h3l102 385h92l-144 -500h-98l-107 389h-2l-110 -389h-102zM230 726l66 51l123 -169l-55 -42z" />
    <glyph glyph-name="Wacute" unicode="&#x1e82;" horiz-adv-x="886" 
d="M5 700h106l140 -528h2l147 528h90l140 -528h2l147 528h102l-200 -700h-96l-140 533h-2l-152 -533h-94zM382 794l165 138l52 -66l-175 -126z" />
    <glyph glyph-name="wacute" unicode="&#x1e83;" horiz-adv-x="733" 
d="M16 500h98l94 -385h2l111 385h98l101 -385h3l102 385h92l-144 -500h-98l-107 389h-2l-110 -389h-102zM318 608l123 169l66 -51l-134 -160z" />
    <glyph glyph-name="Wdieresis" unicode="&#x1e84;" horiz-adv-x="886" 
d="M5 700h106l140 -528h2l147 528h90l140 -528h2l147 528h102l-200 -700h-96l-140 533h-2l-152 -533h-94zM529 875h102v-111h-102v111zM259 875h102v-111h-102v111z" />
    <glyph glyph-name="wdieresis" unicode="&#x1e85;" horiz-adv-x="733" 
d="M16 500h98l94 -385h2l111 385h98l101 -385h3l102 385h92l-144 -500h-98l-107 389h-2l-110 -389h-102zM425 700h93v-102h-93v102zM222 700h93v-102h-93v102z" />
    <glyph glyph-name="uni1E9E" unicode="&#x1e9e;" horiz-adv-x="743" 
d="M349 387q12 -1 65 -1q112 0 112 114q0 59 -42.5 94t-115.5 35q-98 0 -141.5 -53t-43.5 -172v-404h-96v422q0 142 72 216t210 74q116 0 184.5 -56.5t68.5 -151.5q0 -46 -19 -84t-52 -59q61 -13 95.5 -58t34.5 -113q0 -92 -61 -145t-167 -53q-74 0 -152 25l20 77
q53 -21 124 -21q65 0 100 29.5t35 85.5q0 62 -34 92t-107 30q-65 0 -90 -4v81z" />
    <glyph glyph-name="Ygrave" unicode="&#x1ef2;" horiz-adv-x="555" 
d="M228 304l-223 396h119l156 -294h3l155 294h112l-226 -401v-299h-96v304zM155 866l52 66l165 -138l-42 -54z" />
    <glyph glyph-name="ygrave" unicode="&#x1ef3;" horiz-adv-x="477" 
d="M110 -194l79 209l-183 485h101l130 -379h2l133 379h99l-281 -725zM127 726l66 51l123 -169l-55 -42z" />
    <glyph glyph-name="uni2009" unicode="&#x2009;" horiz-adv-x="125" 
 />
    <glyph glyph-name="endash" unicode="&#x2013;" horiz-adv-x="600" 
d="M50 350h500v-83h-500v83z" />
    <glyph glyph-name="emdash" unicode="&#x2014;" horiz-adv-x="900" 
d="M50 350h800v-83h-800v83z" />
    <glyph glyph-name="quoteleft" unicode="&#x2018;" horiz-adv-x="273" 
d="M126 700h87l-51 -250h-102z" />
    <glyph glyph-name="quoteright" unicode="&#x2019;" horiz-adv-x="273" 
d="M111 700h102l-66 -250h-87z" />
    <glyph glyph-name="quotesinglbase" unicode="&#x201a;" horiz-adv-x="273" 
d="M111 116h102l-66 -250h-87z" />
    <glyph glyph-name="quotedblleft" unicode="&#x201c;" horiz-adv-x="523" 
d="M356 700h87l-51 -250h-102zM146 700h87l-51 -250h-102z" />
    <glyph glyph-name="quotedblright" unicode="&#x201d;" horiz-adv-x="523" 
d="M341 700h102l-66 -250h-87zM131 700h102l-66 -250h-87z" />
    <glyph glyph-name="quotedblbase" unicode="&#x201e;" horiz-adv-x="523" 
d="M341 116h102l-66 -250h-87zM131 116h102l-66 -250h-87z" />
    <glyph glyph-name="dagger" unicode="&#x2020;" horiz-adv-x="412" 
d="M172 299l4 167l-70 -3h-36v66h36l70 -3l-4 126v48h68v-48l-4 -126l70 3h36v-66h-36l-70 3l4 -167v-161h-68v161z" />
    <glyph glyph-name="daggerdbl" unicode="&#x2021;" horiz-adv-x="412" 
d="M172 281l3 77l-69 -2h-36v66h36l69 -3l-1 23v51l1 44l-69 -2h-36v66h36l69 -3l-3 66v36h68v-36l-3 -66l69 3h36v-66h-36l-69 2l1 -44v-51l-1 -23l69 3h36v-66h-36l-69 2l3 -77v-143h-68v143z" />
    <glyph glyph-name="bullet" unicode="&#x2022;" horiz-adv-x="318" 
d="M159 165q-52 0 -88 36t-36 88t36 88t88 36t88 -36t36 -88t-36 -88t-88 -36z" />
    <glyph glyph-name="ellipsis" unicode="&#x2026;" horiz-adv-x="750" 
d="M572 116h105v-116h-105v116zM72 116h105v-116h-105v116zM322 116h105v-116h-105v116z" />
    <glyph glyph-name="perthousand" unicode="&#x2030;" horiz-adv-x="1236" 
d="M151 28l497 684l55 -40l-497 -684zM218 387q-67 0 -113.5 46.5t-46.5 112.5q0 67 46.5 113.5t113.5 46.5t113 -46.5t46 -113.5q0 -66 -46 -112.5t-113 -46.5zM219 458q35 0 59 25.5t24 63.5q0 37 -24 62.5t-59 25.5q-37 0 -61.5 -25t-24.5 -63t24.5 -63.5t61.5 -25.5z
M633 -6q-67 0 -113.5 46.5t-46.5 112.5q0 67 46.5 113.5t113.5 46.5t113 -46.5t46 -113.5q0 -66 -46 -112.5t-113 -46.5zM634 65q35 0 59 25.5t24 63.5q0 37 -24 62.5t-59 25.5q-37 0 -61.5 -25t-24.5 -63t24.5 -63.5t61.5 -25.5zM1019 -6q-67 0 -113.5 46.5t-46.5 112.5
q0 67 46.5 113.5t113.5 46.5t113 -46.5t46 -113.5q0 -66 -46 -112.5t-113 -46.5zM1020 65q35 0 59 25.5t24 63.5q0 37 -24 62.5t-59 25.5q-37 0 -61.5 -25t-24.5 -63t24.5 -63.5t61.5 -25.5z" />
    <glyph glyph-name="guilsinglleft" unicode="&#x2039;" horiz-adv-x="309" 
d="M60 213v119l145 150l44 -88l-127 -122l127 -121l-44 -88z" />
    <glyph glyph-name="guilsinglright" unicode="&#x203a;" horiz-adv-x="309" 
d="M60 150l127 121l-127 122l44 88l145 -150v-119l-145 -150z" />
    <glyph glyph-name="fraction" unicode="&#x2044;" horiz-adv-x="132" 
d="M-210 28l497 684l55 -40l-497 -684z" />
    <glyph glyph-name="uni2070" unicode="&#x2070;" horiz-adv-x="338" 
d="M169 362q-69 0 -107.5 54.5t-38.5 151.5t38.5 152t107.5 55t107.5 -55t38.5 -152t-38.5 -151.5t-107.5 -54.5zM169 425q72 0 72 143q0 144 -72 144t-72 -144q0 -143 72 -143z" />
    <glyph glyph-name="uni2074" unicode="&#x2074;" horiz-adv-x="334" 
d="M194 470h-174v67q28 36 172 233h73v-239h58v-61h-58v-103h-71v103zM194 531v142q-62 -97 -98 -142h98z" />
    <glyph glyph-name="uni2075" unicode="&#x2075;" horiz-adv-x="315" 
d="M151 362q-41 0 -77 20t-54 55l60 31q19 -43 67 -43q31 0 49.5 21t18.5 50q0 28 -19 46.5t-48 18.5q-35 0 -56 -25l-49 32q9 84 13 202h213v-62h-144q-1 -38 -7 -96q23 10 52 10q50 0 84.5 -35.5t34.5 -86.5q0 -59 -39.5 -98.5t-98.5 -39.5z" />
    <glyph glyph-name="uni2076" unicode="&#x2076;" horiz-adv-x="332" 
d="M175 362q-69 0 -110.5 47.5t-41.5 114.5q0 92 58 162t148 106l26 -59q-118 -51 -146 -137q32 29 77 29q53 0 88 -37t35 -91q0 -57 -38 -96t-96 -39zM170 423q30 0 47.5 21t17.5 51q0 31 -18 50t-47 19q-48 0 -73 -41q0 -43 17.5 -71.5t55.5 -28.5z" />
    <glyph glyph-name="uni2077" unicode="&#x2077;" horiz-adv-x="279" 
d="M39 384q27 65 147 323h-180v63h262v-48q-94 -197 -164 -367z" />
    <glyph glyph-name="uni2078" unicode="&#x2078;" horiz-adv-x="345" 
d="M173 362q-61 0 -100.5 34t-39.5 84q0 64 61 99q-49 31 -49 86q0 47 36 78.5t92 31.5t92 -31.5t36 -78.5q0 -55 -50 -86q61 -35 61 -99q0 -50 -39 -84t-100 -34zM173 424q27 0 46 17.5t19 42.5q0 26 -19 43.5t-46 17.5t-46.5 -17.5t-19.5 -43.5q0 -25 19.5 -42.5
t46.5 -17.5zM173 607q23 0 39.5 16t16.5 38t-16.5 37t-39.5 15t-39.5 -15t-16.5 -37t16.5 -38t39.5 -16z" />
    <glyph glyph-name="uni2079" unicode="&#x2079;" horiz-adv-x="332" 
d="M77 404q118 51 146 137q-32 -29 -77 -29q-53 0 -88 37t-35 91q0 57 38 96t96 39q69 0 110.5 -47.5t41.5 -114.5q0 -92 -58 -162t-148 -106zM162 573q48 0 73 41q0 43 -17.5 71.5t-55.5 28.5q-30 0 -47.5 -21t-17.5 -51q0 -31 18 -50t47 -19z" />
    <glyph glyph-name="uni207A" unicode="&#x207a;" horiz-adv-x="334" 
d="M136 523h-119v61h119v120h61v-120h120v-61h-120v-120h-61v120z" />
    <glyph glyph-name="uni207B" unicode="&#x207b;" horiz-adv-x="341" 
d="M31 584h279v-61h-279v61z" />
    <glyph glyph-name="uni207C" unicode="&#x207c;" horiz-adv-x="341" 
d="M31 530h279v-61h-279v61zM31 638h279v-60h-279v60z" />
    <glyph glyph-name="uni207D" unicode="&#x207d;" horiz-adv-x="217" 
d="M196 262q-167 102 -167 289q0 184 167 287l26 -50q-123 -79 -123 -237q0 -161 122 -239z" />
    <glyph glyph-name="uni207E" unicode="&#x207e;" horiz-adv-x="217" 
d="M-5 312q123 78 123 239q0 156 -123 237l26 50q167 -103 167 -287q0 -187 -168 -289z" />
    <glyph glyph-name="uni207F" unicode="&#x207f;" horiz-adv-x="371" 
d="M48 675h65l3 -46q36 54 92 54q64 0 91.5 -40t27.5 -114v-162h-71v159q0 22 -1.5 35t-6.5 28.5t-18 23t-33 7.5q-48 0 -78 -48v-205h-71v308z" />
    <glyph glyph-name="uni2080" unicode="&#x2080;" horiz-adv-x="337" 
d="M169 -182q-69 0 -107.5 54.5t-38.5 151.5t38.5 152t107.5 55t107.5 -55t38.5 -152t-38.5 -151.5t-107.5 -54.5zM169 -119q72 0 72 143q0 144 -72 144t-72 -144q0 -143 72 -143z" />
    <glyph glyph-name="uni2081" unicode="&#x2081;" horiz-adv-x="216" 
d="M90 141q-10 -5 -58 -26v66l83 44h47v-403h-72v319z" />
    <glyph glyph-name="uni2082" unicode="&#x2082;" horiz-adv-x="319" 
d="M38 -120q79 82 137 164q32 44 32 77q0 21 -15.5 34t-37.5 13q-23 0 -38 -16t-15 -42l-72 12q4 48 41.5 78t85.5 30q50 0 87.5 -30t37.5 -78q0 -52 -41 -111q-36 -51 -106 -127h165v-62h-261v58z" />
    <glyph glyph-name="uni2083" unicode="&#x2083;" horiz-adv-x="319" 
d="M149 -183q-42 0 -78.5 19.5t-53.5 56.5l59 29q22 -43 72 -43q27 0 46.5 15t19.5 43q0 29 -22 45.5t-56 16.5q-23 0 -38 -4v64q37 2 51 6q21 5 34 19t13 33q0 22 -16 36.5t-41 14.5q-46 0 -57 -42l-60 26q12 36 43.5 57t73.5 21q55 0 92.5 -29.5t37.5 -77.5
q0 -26 -13.5 -49.5t-35.5 -35.5q30 -11 49 -37.5t19 -60.5q0 -57 -40 -90t-99 -33z" />
    <glyph glyph-name="uni2084" unicode="&#x2084;" horiz-adv-x="334" 
d="M194 -75h-174v67q28 36 172 233h73v-239h58v-61h-58v-103h-71v103zM194 -14v142q-62 -97 -98 -142h98z" />
    <glyph glyph-name="uni2085" unicode="&#x2085;" horiz-adv-x="315" 
d="M151 -183q-41 0 -77 20t-54 55l60 31q19 -43 67 -43q31 0 49.5 21t18.5 50q0 28 -19 46.5t-48 18.5q-35 0 -56 -25l-49 32q9 84 13 202h213v-62h-144q-1 -38 -7 -96q23 10 52 10q50 0 84.5 -35.5t34.5 -86.5q0 -59 -39.5 -98.5t-98.5 -39.5z" />
    <glyph glyph-name="uni2086" unicode="&#x2086;" horiz-adv-x="330" 
d="M174 -183q-69 0 -110.5 47.5t-41.5 114.5q0 92 58 162t148 106l26 -59q-118 -51 -146 -137q32 29 77 29q53 0 88 -37t35 -91q0 -57 -38 -96t-96 -39zM169 -122q30 0 47.5 21t17.5 51q0 31 -18 50t-47 19q-48 0 -73 -41q0 -43 17.5 -71.5t55.5 -28.5z" />
    <glyph glyph-name="uni2087" unicode="&#x2087;" horiz-adv-x="279" 
d="M39 -161q27 65 147 323h-180v63h262v-48q-94 -197 -164 -367z" />
    <glyph glyph-name="uni2088" unicode="&#x2088;" horiz-adv-x="345" 
d="M173 -183q-61 0 -100.5 34t-39.5 84q0 64 61 99q-49 31 -49 86q0 47 36 78.5t92 31.5t92 -31.5t36 -78.5q0 -55 -50 -86q61 -35 61 -99q0 -50 -39 -84t-100 -34zM173 -121q27 0 46 17.5t19 42.5q0 26 -19 43.5t-46 17.5t-46.5 -17.5t-19.5 -43.5q0 -25 19.5 -42.5
t46.5 -17.5zM173 62q23 0 39.5 16t16.5 38t-16.5 37t-39.5 15t-39.5 -15t-16.5 -37t16.5 -38t39.5 -16z" />
    <glyph glyph-name="uni2089" unicode="&#x2089;" horiz-adv-x="330" 
d="M77 -141q118 51 146 137q-32 -29 -77 -29q-53 0 -88 37t-35 91q0 57 38 96t96 39q69 0 110.5 -47.5t41.5 -114.5q0 -92 -58 -162t-148 -106zM162 28q48 0 73 41q0 43 -17.5 71.5t-55.5 28.5q-30 0 -47.5 -21t-17.5 -51q0 -31 18 -50t47 -19z" />
    <glyph glyph-name="uni208A" unicode="&#x208a;" horiz-adv-x="334" 
d="M136 -22h-119v61h119v120h61v-120h120v-61h-120v-120h-61v120z" />
    <glyph glyph-name="uni208B" unicode="&#x208b;" horiz-adv-x="341" 
d="M31 39h279v-61h-279v61z" />
    <glyph glyph-name="uni208C" unicode="&#x208c;" horiz-adv-x="341" 
d="M31 -15h279v-61h-279v61zM31 93h279v-60h-279v60z" />
    <glyph glyph-name="uni208D" unicode="&#x208d;" horiz-adv-x="217" 
d="M196 -283q-167 102 -167 289q0 184 167 287l26 -50q-123 -79 -123 -237q0 -161 122 -239z" />
    <glyph glyph-name="uni208E" unicode="&#x208e;" horiz-adv-x="217" 
d="M-5 -233q123 78 123 239q0 156 -123 237l26 50q167 -103 167 -287q0 -187 -168 -289z" />
    <glyph glyph-name="uni2090" unicode="&#x2090;" horiz-adv-x="340" 
d="M142 -185q-46 0 -78.5 25t-32.5 71q0 53 39.5 77t96.5 24q26 0 58 -7v8q0 67 -66 67q-47 0 -95 -27l-20 54q62 31 128 31q124 0 124 -129v-187h-63l-4 29q-30 -36 -87 -36zM154 -132q35 0 71 31v60q-29 6 -47 6q-31 0 -54 -12t-23 -39q0 -23 15 -34.5t38 -11.5z" />
    <glyph glyph-name="uni2091" unicode="&#x2091;" horiz-adv-x="349" 
d="M179 -185q-70 0 -112.5 45t-42.5 114q0 70 45 117t111 47q62 0 103.5 -41t41.5 -102q0 -15 -4 -37h-225q4 -37 27.5 -60.5t59.5 -23.5q58 0 86 47l49 -32q-50 -74 -139 -74zM252 10q-2 30 -22 50t-49 20q-63 0 -81 -70h152z" />
    <glyph glyph-name="uni2092" unicode="&#x2092;" horiz-adv-x="367" 
d="M183 -185q-68 0 -113.5 46.5t-45.5 114.5q0 69 45 115.5t114 46.5t114.5 -46.5t45.5 -115.5q0 -68 -45.5 -114.5t-114.5 -46.5zM183 -122q38 0 62.5 28.5t24.5 69.5q0 42 -24.5 70.5t-62.5 28.5t-62 -28.5t-24 -70.5q0 -41 24 -69.5t62 -28.5z" />
    <glyph glyph-name="uni2093" unicode="&#x2093;" horiz-adv-x="330" 
d="M123 -23l-110 153h90l67 -98l67 98h89l-115 -151l114 -157h-91l-70 103l-71 -103h-89z" />
    <glyph glyph-name="uni2096" unicode="&#x2096;" horiz-adv-x="326" 
d="M48 272h71v-280h1l111 138h84l-110 -127l118 -181h-87l-79 125l-38 -45v-80h-71v450z" />
    <glyph glyph-name="uni2097" unicode="&#x2097;" horiz-adv-x="167" 
d="M48 272h71v-450h-71v450z" />
    <glyph glyph-name="uni2098" unicode="&#x2098;" horiz-adv-x="559" 
d="M48 130h65l3 -41q37 49 93 49q61 0 90 -54q38 54 105 54q111 0 111 -156v-160h-71v155q0 22 -1.5 35.5t-6.5 30t-17.5 24.5t-32.5 8q-42 0 -72 -42q3 -23 3 -51v-160h-71v155q0 22 -1 35t-6 30t-17 25t-32 8q-37 0 -71 -42v-211h-71v308z" />
    <glyph glyph-name="uni2099" unicode="&#x2099;" horiz-adv-x="371" 
d="M48 130h65l3 -46q36 54 92 54q64 0 91.5 -40t27.5 -114v-162h-71v159q0 22 -1.5 35t-6.5 28.5t-18 23t-33 7.5q-48 0 -78 -48v-205h-71v308z" />
    <glyph glyph-name="uni209A" unicode="&#x209a;" horiz-adv-x="385" 
d="M48 130h65l4 -39q30 47 96 47q63 0 105.5 -47t42.5 -115q0 -66 -42.5 -113.5t-106.5 -47.5q-58 0 -93 38v-181h-71v458zM198 -122q43 0 66.5 29.5t23.5 69.5t-24.5 69t-64.5 29q-55 0 -80 -49v-109q29 -39 79 -39z" />
    <glyph glyph-name="uni209B" unicode="&#x209b;" horiz-adv-x="288" 
d="M142 -185q-72 0 -117 51l44 41q34 -35 71 -35q20 0 33 9.5t13 27.5q0 10 -8.5 18.5t-17.5 12.5l-28 12q-20 8 -31.5 14t-26.5 17t-22 26.5t-7 35.5q0 44 30.5 68.5t74.5 24.5q61 0 102 -38l-40 -44q-27 25 -61 25q-17 0 -27.5 -8.5t-10.5 -22.5q0 -22 54 -43
q26 -10 42.5 -19.5t32 -29t15.5 -45.5q0 -48 -33.5 -73t-81.5 -25z" />
    <glyph glyph-name="uni209C" unicode="&#x209c;" horiz-adv-x="230" 
d="M154 -185q-96 0 -96 114v141h-39v60h39l8 71h63v-71h82v-60h-82v-128q0 -21 1 -32t9 -22t24 -11q17 0 35 9l21 -54q-28 -17 -65 -17z" />
    <glyph glyph-name="Euro" unicode="&#x20ac;" horiz-adv-x="650" 
d="M423 -12q-121 0 -206.5 61.5t-117.5 168.5h-89v74h75q-2 26 -2 40t2 42h-75v74h90q32 105 117.5 166.5t205.5 61.5q105 0 188 -51l-43 -74q-61 39 -145 39q-81 0 -139 -37t-85 -105h272v-74h-291q-2 -28 -2 -42q0 -27 2 -40h291v-74h-273q27 -68 84.5 -106t140.5 -38
q89 0 156 46l50 -70q-91 -62 -206 -62z" />
    <glyph glyph-name="uni20BA" unicode="&#x20ba;" horiz-adv-x="610" 
d="M44 263v68l90 30v71l-90 -30v68l90 30v166h88v-147l158 52v-68l-158 -52v-71l159 52v-68l-159 -52v-248h5q135 0 190 50t55 182h89v-4q0 -159 -80 -234t-244 -75q-53 0 -103 15v296z" />
    <glyph glyph-name="uni2116" unicode="&#x2116;" horiz-adv-x="1129" 
d="M95 700h84l385 -522v522h96v-700h-85l-384 522v-522h-96v700zM924 356q-75 0 -125 51.5t-50 126.5t50 126.5t125 51.5t125 -51.5t50 -126.5t-50 -126.5t-125 -51.5zM924 421q44 0 72.5 32.5t28.5 80.5t-28.5 80.5t-72.5 32.5t-72.5 -32.5t-28.5 -80.5t28.5 -80.5
t72.5 -32.5z" />
    <glyph glyph-name="trademark" unicode="&#x2122;" horiz-adv-x="979" 
d="M421 700h117l121 -312l123 312h117v-406h-74v322l-131 -322h-70l-129 321v-321h-74v406zM178 634h-98v66h270v-66h-98v-340h-74v340z" />
    <glyph glyph-name="uni2126" unicode="&#x2126;" horiz-adv-x="794" 
d="M20 86h184q-77 54 -115.5 129t-38.5 156q0 66 23.5 127t66 109t109.5 76.5t148 28.5t148 -28.5t109.5 -76.5t66 -109t23.5 -127q0 -81 -38.5 -156t-115.5 -129h184v-86h-318v94q88 30 136.5 107.5t48.5 167.5q0 108 -62 182.5t-182 74.5t-182 -74.5t-62 -182.5
q0 -90 48.5 -167.5t136.5 -107.5v-94h-318v86z" />
    <glyph glyph-name="uni2153" unicode="&#x2153;" horiz-adv-x="770" 
d="M80 28l497 684l55 -40l-497 -684zM155 621q-26 -12 -53 -23v62l32 16.5l45 23.5h45v-362h-69v283zM562 -7q-39 0 -72 18t-50 53l58 27q18 -40 64 -40q24 0 40.5 13.5t16.5 37.5q0 25 -19.5 39t-50.5 14q-20 0 -32 -3v60q30 0 45 4q41 11 41 47q0 19 -14 31t-37 12
q-39 0 -48 -38l-59 26q12 33 41.5 52t66.5 19q50 0 85 -27t35 -70q0 -23 -12.5 -44t-32.5 -32q28 -10 45 -34t17 -55q0 -50 -37 -80t-91 -30z" />
    <glyph glyph-name="uni2154" unicode="&#x2154;" horiz-adv-x="858" 
d="M168 28l497 684l55 -40l-497 -684zM88 394q72 74 125 147q28 38 28 67q0 18 -13 29t-33 11t-33 -14t-13 -38l-69 12q3 44 37.5 71.5t80.5 27.5t80.5 -27.5t34.5 -71.5q0 -43 -39 -99q-32 -46 -93 -110h147v-58h-240v53zM650 -7q-39 0 -72 18t-50 53l58 27q18 -40 64 -40
q24 0 40.5 13.5t16.5 37.5q0 25 -19.5 39t-50.5 14q-20 0 -32 -3v60q30 0 45 4q41 11 41 47q0 19 -14 31t-37 12q-39 0 -48 -38l-59 26q12 33 41.5 52t66.5 19q50 0 85 -27t35 -70q0 -23 -12.5 -44t-32.5 -32q28 -10 45 -34t17 -55q0 -50 -37 -80t-91 -30z" />
    <glyph glyph-name="oneeighth" unicode="&#x215b;" horiz-adv-x="784" 
d="M80 28l497 684l55 -40l-497 -684zM155 621q-26 -12 -53 -23v62l32 16.5l45 23.5h45v-362h-69v283zM577 -7q-56 0 -91.5 30.5t-35.5 75.5q0 58 54 89q-45 28 -45 77q0 42 33 71t85 29t85 -29t33 -71q0 -49 -45 -77q54 -29 54 -89q0 -45 -36 -75.5t-91 -30.5zM577 50
q25 0 41 15t16 38t-16 38.5t-41 15.5t-41 -15.5t-16 -38.5t16 -38t41 -15zM577 214q20 0 34.5 14t14.5 33q0 20 -14.5 33.5t-34.5 13.5q-21 0 -35 -13.5t-14 -33.5t14 -33.5t35 -13.5z" />
    <glyph glyph-name="threeeighths" unicode="&#x215c;" horiz-adv-x="851" 
d="M147 28l497 684l55 -40l-497 -684zM202 335q-39 0 -72 18t-50 53l58 27q18 -40 64 -40q24 0 40.5 13.5t16.5 37.5q0 25 -19.5 39t-50.5 14q-20 0 -32 -3v60q30 0 45 4q41 11 41 47q0 19 -14 31t-37 12q-39 0 -48 -38l-59 26q12 33 41.5 52t66.5 19q50 0 85 -27t35 -70
q0 -23 -12.5 -44t-32.5 -32q28 -10 45 -34t17 -55q0 -50 -37 -80t-91 -30zM644 -7q-56 0 -91.5 30.5t-35.5 75.5q0 58 54 89q-45 28 -45 77q0 42 33 71t85 29t85 -29t33 -71q0 -49 -45 -77q54 -29 54 -89q0 -45 -36 -75.5t-91 -30.5zM644 50q25 0 41 15t16 38t-16 38.5
t-41 15.5t-41 -15.5t-16 -38.5t16 -38t41 -15zM644 214q20 0 34.5 14t14.5 33q0 20 -14.5 33.5t-34.5 13.5q-21 0 -35 -13.5t-14 -33.5t14 -33.5t35 -13.5z" />
    <glyph glyph-name="fiveeighths" unicode="&#x215d;" horiz-adv-x="838" 
d="M134 28l497 684l55 -40l-497 -684zM201 335q-85 0 -121 68l58 29q17 -39 60 -39q27 0 42.5 17.5t15.5 43.5q0 25 -16.5 41t-41.5 16q-31 0 -50 -23l-45 31q8 83 12 181h195v-58h-130q0 -4 -6 -83q18 9 46 9q45 0 76 -32.5t31 -77.5q0 -53 -36 -88t-90 -35zM631 -7
q-56 0 -91.5 30.5t-35.5 75.5q0 58 54 89q-45 28 -45 77q0 42 33 71t85 29t85 -29t33 -71q0 -49 -45 -77q54 -29 54 -89q0 -45 -36 -75.5t-91 -30.5zM631 50q25 0 41 15t16 38t-16 38.5t-41 15.5t-41 -15.5t-16 -38.5t16 -38t41 -15zM631 214q20 0 34.5 14t14.5 33
q0 20 -14.5 33.5t-34.5 13.5q-21 0 -35 -13.5t-14 -33.5t14 -33.5t35 -13.5z" />
    <glyph glyph-name="seveneighths" unicode="&#x215e;" horiz-adv-x="784" 
d="M80 28l497 684l55 -40l-497 -684zM120 354q49 113 136 287h-165v59h241v-44q-82 -169 -149 -331zM577 -7q-56 0 -91.5 30.5t-35.5 75.5q0 58 54 89q-45 28 -45 77q0 42 33 71t85 29t85 -29t33 -71q0 -49 -45 -77q54 -29 54 -89q0 -45 -36 -75.5t-91 -30.5zM577 50
q25 0 41 15t16 38t-16 38.5t-41 15.5t-41 -15.5t-16 -38.5t16 -38t41 -15zM577 214q20 0 34.5 14t14.5 33q0 20 -14.5 33.5t-34.5 13.5q-21 0 -35 -13.5t-14 -33.5t14 -33.5t35 -13.5z" />
    <glyph glyph-name="arrowleft" unicode="&#x2190;" horiz-adv-x="1000" 
d="M20 361l367 364l64 -64l-260 -255h769v-91h-768l259 -254l-64 -64z" />
    <glyph glyph-name="arrowup" unicode="&#x2191;" horiz-adv-x="900" 
d="M404 669l-254 -259l-64 64l364 367l364 -367l-64 -64l-255 260v-769h-91v768z" />
    <glyph glyph-name="arrowright" unicode="&#x2192;" horiz-adv-x="1000" 
d="M549 61l259 254h-768v91h769l-260 255l64 64l367 -364l-367 -364z" />
    <glyph glyph-name="arrowdown" unicode="&#x2193;" horiz-adv-x="900" 
d="M86 248l64 64l254 -259v768h91v-769l255 260l64 -64l-364 -367z" />
    <glyph glyph-name="arrowboth" unicode="&#x2194;" horiz-adv-x="1117" 
d="M70 264l293 291l51 -51l-208 -204h704l-207 204l51 51l293 -291l-293 -292l-51 52l207 204h-704l208 -204l-51 -52z" />
    <glyph glyph-name="uni2196" unicode="&#x2196;" horiz-adv-x="1000" 
d="M247 539l3 -363h-90l-2 517l517 -2v-90l-365 3l544 -544l-64 -64z" />
    <glyph glyph-name="uni2197" unicode="&#x2197;" horiz-adv-x="1000" 
d="M158 60l544 544l-365 -3v90l517 2l-2 -517h-90l3 363l-543 -543z" />
    <glyph glyph-name="uni2198" unicode="&#x2198;" horiz-adv-x="1000" 
d="M337 2v90l365 -3l-544 544l64 64l543 -543l-3 363h90l2 -517z" />
    <glyph glyph-name="uni2199" unicode="&#x2199;" horiz-adv-x="1000" 
d="M160 517h90l-3 -363l543 543l64 -64l-544 -544l365 3v-90l-517 -2z" />
    <glyph glyph-name="arrowdblright" unicode="&#x21d2;" horiz-adv-x="947" 
d="M533 24l134 132h-597v72h670l37 36l-37 36h-670v72h597l-134 132l51 51l293 -291l-293 -292z" />
    <glyph glyph-name="arrowdblboth" unicode="&#x21d4;" horiz-adv-x="1228" 
d="M70 264l293 291l51 -51l-135 -132h669l-134 132l51 51l293 -291l-293 -292l-51 52l134 132h-668l134 -132l-51 -52zM1021 228l37 36l-37 36h-815l-36 -36l36 -36h815z" />
    <glyph glyph-name="uni21FD" unicode="&#x21fd;" horiz-adv-x="948" 
d="M70 264l281 278v-242h527v-72h-527v-243zM280 373l-112 -109l112 -111v220z" />
    <glyph glyph-name="uni21FE" unicode="&#x21fe;" horiz-adv-x="947" 
d="M597 228h-527v72h527v242l280 -278l-280 -279v243zM779 264l-112 109v-220z" />
    <glyph glyph-name="uni21FF" unicode="&#x21ff;" horiz-adv-x="1228" 
d="M70 264l281 278v-242h527v242l280 -278l-280 -279v243h-527v-243zM280 373l-112 -109l112 -111v220zM1060 264l-112 109v-220z" />
    <glyph glyph-name="universal" unicode="&#x2200;" horiz-adv-x="653" 
d="M15 700h111l55 -149h298l54 149h105l-271 -700h-84zM330 146l117 319h-235l117 -319h1z" />
    <glyph glyph-name="partialdiff" unicode="&#x2202;" 
d="M273 -12q-111 0 -182.5 78.5t-71.5 184.5q0 104 70.5 176.5t177.5 72.5q47 0 95 -16q-91 115 -330 215l32 78q234 -97 353 -223.5t119 -308.5q0 -110 -71 -183.5t-192 -73.5zM280 72q73 0 118 49.5t45 118.5q0 84 -28 154q-49 23 -104 23q-90 0 -144.5 -41t-54.5 -123
q0 -74 47.5 -127.5t120.5 -53.5z" />
    <glyph glyph-name="existential" unicode="&#x2203;" horiz-adv-x="580" 
d="M65 86h324v210h-324v86h324v232h-324v86h420v-700h-420v86z" />
    <glyph glyph-name="uni2204" unicode="&#x2204;" horiz-adv-x="580" 
d="M89 -62l18 62h-42v86h66l60 210h-126v86h151l66 232h-217v86h242l24 82l76 -20l-18 -62h96v-700h-297l-23 -82zM389 86v210h-116l-60 -210h176zM389 382v232h-25l-66 -232h91z" />
    <glyph glyph-name="uni2206" unicode="&#x2206;" 
d="M230 570h92l218 -570h-531zM407 81l-134 368h-2l-135 -368h271z" />
    <glyph glyph-name="element" unicode="&#x2208;" 
d="M367 0q-163 0 -240 67.5t-77 182.5t77 182.5t240 67.5h119v-80h-142q-89 0 -138 -36t-61 -94h341v-80h-341q12 -59 61 -94.5t138 -35.5h142v-80h-119z" />
    <glyph glyph-name="notelement" unicode="&#x2209;" 
d="M154 -112l40 140q-144 58 -144 222q0 108 68 174.5t211 74.5l38 133l76 -20l-32 -112h75v-80h-98l-37 -130h135v-80h-158l-36 -127q24 -3 52 -3h142v-80h-119q-56 0 -97 7l-40 -139zM246 210h-101q13 -68 72 -101zM269 290l36 128q-70 -8 -110 -42.5t-50 -85.5h124z" />
    <glyph glyph-name="product" unicode="&#x220f;" 
d="M97 484h-90v86h536v-86h-90v-484h-96v484h-164v-484h-96v484z" />
    <glyph glyph-name="summation" unicode="&#x2211;" 
d="M20 51l255 311l-244 286v52h476v-86h-323l212 -249l-218 -279h354v-86h-512v51z" />
    <glyph glyph-name="minus" unicode="&#x2212;" 
d="M54 350h441v-78h-441v78z" />
    <glyph glyph-name="uni2215" unicode="&#x2215;" horiz-adv-x="363" 
d="M0 -26l292 788l71 -27l-292 -788z" />
    <glyph glyph-name="uni2219" unicode="&#x2219;" 
d="M222 369h105v-116h-105v116z" />
    <glyph glyph-name="radical" unicode="&#x221a;" 
d="M86 419h-86v81h164l99 -381h2l187 631h98l-242 -750h-95z" />
    <glyph glyph-name="infinity" unicode="&#x221e;" horiz-adv-x="778" 
d="M207 82q-70 0 -118.5 48.5t-48.5 117.5q0 68 48.5 116t118.5 48q45 0 85.5 -25t96.5 -83q55 58 95.5 83t86.5 25q70 0 118.5 -48.5t48.5 -117.5q0 -68 -48.5 -116t-118.5 -48q-46 0 -86.5 25t-95.5 83q-56 -58 -96.5 -83t-85.5 -25zM207 159q47 0 130 88q-81 88 -130 88
q-34 0 -57 -26t-23 -62q0 -35 23 -61.5t57 -26.5zM571 159q34 0 57 26t23 62q0 35 -23 61.5t-57 26.5q-47 0 -130 -88q81 -88 130 -88z" />
    <glyph glyph-name="intersection" unicode="&#x2229;" 
d="M50 195q0 166 56.5 241.5t168.5 75.5t168.5 -75.5t56.5 -241.5v-195h-80v229q0 203 -145 203t-145 -203v-229h-80v195z" />
    <glyph glyph-name="union" unicode="&#x222a;" 
d="M275 -12q-112 0 -168.5 75.5t-56.5 241.5v195h80v-229q0 -203 145 -203t145 203v229h80v-195q0 -166 -56.5 -241.5t-168.5 -75.5z" />
    <glyph glyph-name="integral" unicode="&#x222b;" 
d="M145 -221q-36 0 -89 22l26 76q30 -14 52 -14q34 0 52 18q17 18 20 95l26 602q4 100 43 143q37 41 119 41q46 0 99 -22l-26 -76q-30 14 -62 14q-44 0 -62 -18q-17 -18 -20 -95l-26 -602q-4 -100 -43 -143q-37 -41 -109 -41z" />
    <glyph glyph-name="therefore" unicode="&#x2234;" 
d="M223 400h105v-116h-105v116zM66 116h105v-116h-105v116zM380 116h105v-116h-105v116z" />
    <glyph glyph-name="approxequal" unicode="&#x2248;" 
d="M363 327q-37 0 -93 23t-85 23q-52 0 -74 -37l-57 38q38 78 132 78q37 0 93 -23t85 -23q52 0 74 37l57 -38q-38 -78 -132 -78zM363 170q-37 0 -93 23t-85 23q-52 0 -74 -37l-57 38q38 78 132 78q37 0 93 -23t85 -23q52 0 74 37l57 -38q-38 -78 -132 -78z" />
    <glyph glyph-name="notequal" unicode="&#x2260;" 
d="M69 82l75 112h-90v78h143l52 78h-195v78h248l105 156l62 -44l-76 -112h102v-78h-155l-52 -78h207v-78h-260l-105 -156z" />
    <glyph glyph-name="lessequal" unicode="&#x2264;" 
d="M24 342v78l501 200v-78l-404 -161l404 -161v-78zM24 78h501v-78h-501v78z" />
    <glyph glyph-name="greaterequal" unicode="&#x2265;" 
d="M24 220l404 161l-404 161v78l501 -200v-78l-501 -200v78zM24 78h501v-78h-501v78z" />
    <glyph glyph-name="propersubset" unicode="&#x2282;" 
d="M367 0q-163 0 -240 67.5t-77 182.5t77 182.5t240 67.5h119v-80h-142q-104 0 -153.5 -48t-49.5 -122t49.5 -122t153.5 -48h142v-80h-119z" />
    <glyph glyph-name="propersuperset" unicode="&#x2283;" 
d="M64 80h142q104 0 153.5 48t49.5 122t-49.5 122t-153.5 48h-142v80h119q163 0 240 -67.5t77 -182.5t-77 -182.5t-240 -67.5h-119v80z" />
    <glyph glyph-name="notsubset" unicode="&#x2284;" 
d="M154 -112l40 140q-144 58 -144 222q0 108 68 174.5t211 74.5l38 133l76 -20l-32 -112h75v-80h-98l-96 -337q24 -3 52 -3h142v-80h-119q-56 0 -97 7l-40 -139zM305 418q-83 -9 -123.5 -55.5t-40.5 -112.5q0 -97 76 -141z" />
    <glyph glyph-name="uni2285" unicode="&#x2285;" 
d="M107 -112l32 112h-75v80h98l96 336q-21 4 -52 4h-142v80h119q51 0 97 -8l40 140l76 -20l-41 -140q145 -58 145 -222q0 -109 -68 -175t-211 -74l-38 -133zM244 82q84 8 124.5 54.5t40.5 113.5q0 97 -77 141z" />
    <glyph glyph-name="reflexsubset" unicode="&#x2286;" 
d="M367 160q-163 0 -240 67.5t-77 182.5t77 182.5t240 67.5h119v-80h-142q-104 0 -153.5 -48t-49.5 -122t49.5 -122t153.5 -48h142v-80h-119zM62 80h424v-80h-424v80z" />
    <glyph glyph-name="reflexsuperset" unicode="&#x2287;" 
d="M64 240h142q104 0 153.5 48t49.5 122t-49.5 122t-153.5 48h-142v80h119q163 0 240 -67.5t77 -182.5t-77 -182.5t-240 -67.5h-119v80zM64 80h424v-80h-424v80z" />
    <glyph glyph-name="uni22C4" unicode="&#x22c4;" 
d="M83 250l192 305l191 -305l-191 -305zM381 250l-106 170l-106 -170l106 -170z" />
    <glyph glyph-name="filledbox" unicode="&#x25a0;" 
d="M95 394h360v-360h-360v360z" />
    <glyph glyph-name="uni25A1" unicode="&#x25a1;" 
d="M95 394h360v-360h-360v360zM383 106v216h-216v-216h216z" />
    <glyph glyph-name="triagup" unicode="&#x25b2;" horiz-adv-x="428" 
d="M213 439l175 -308h-348z" />
    <glyph glyph-name="uni25B6" unicode="&#x25b6;" horiz-adv-x="398" 
d="M60 459l308 -173l-308 -175v348z" />
    <glyph glyph-name="uni25B7" unicode="&#x25b7;" horiz-adv-x="490" 
d="M60 511l400 -226l-400 -226v452zM317 285l-187 106v-211z" />
    <glyph glyph-name="triagdn" unicode="&#x25bc;" horiz-adv-x="428" 
d="M40 399h348l-173 -308z" />
    <glyph glyph-name="uni25C0" unicode="&#x25c0;" horiz-adv-x="398" 
d="M30 286l308 173v-348z" />
    <glyph glyph-name="uni25C1" unicode="&#x25c1;" horiz-adv-x="490" 
d="M30 285l400 226v-452zM360 391l-187 -106l187 -105v211z" />
    <glyph glyph-name="uni25C6" unicode="&#x25c6;" horiz-adv-x="356" 
d="M30 276l148 236l148 -236l-148 -236z" />
    <glyph glyph-name="uni25C9" unicode="&#x25c9;" horiz-adv-x="366" 
d="M183 139q-59 0 -101.5 42.5t-42.5 101.5t42.5 101.5t101.5 42.5t101.5 -42.5t42.5 -101.5t-42.5 -101.5t-101.5 -42.5zM183 175q44 0 76 32t32 76t-32 76t-76 32t-76 -32t-32 -76t32 -76t76 -32zM183 228q-23 0 -39 16t-16 39t16 39t39 16t39 -16t16 -39t-16 -39t-39 -16
z" />
    <glyph glyph-name="lozenge" unicode="&#x25ca;" 
d="M37 350l196 350h85l196 -350l-196 -350h-85zM429 350l-154 274l-153 -274l153 -274z" />
    <glyph glyph-name="circle" unicode="&#x25cb;" horiz-adv-x="366" 
d="M183 141q-61 0 -104.5 43.5t-43.5 104.5t43.5 104.5t104.5 43.5t104.5 -43.5t43.5 -104.5t-43.5 -104.5t-104.5 -43.5zM183 227q25 0 43.5 18.5t18.5 43.5t-18.5 43.5t-43.5 18.5t-43.5 -18.5t-18.5 -43.5t18.5 -43.5t43.5 -18.5z" />
    <glyph glyph-name="uni25CF" unicode="&#x25cf;" horiz-adv-x="366" 
d="M183 141q-61 0 -104.5 43.5t-43.5 104.5t43.5 104.5t104.5 43.5t104.5 -43.5t43.5 -104.5t-43.5 -104.5t-104.5 -43.5z" />
    <glyph glyph-name="uni25FB" unicode="&#x25fb;" horiz-adv-x="388" 
d="M60 423h268v-268h-268v268zM250 233v112h-112v-112h112z" />
    <glyph glyph-name="uni25FC" unicode="&#x25fc;" horiz-adv-x="388" 
d="M60 423h268v-268h-268v268z" />
    <glyph glyph-name="uni27A1" unicode="&#x27a1;" horiz-adv-x="469" 
d="M80 168l170 117l-170 117l52 74l257 -191l-257 -191z" />
    <glyph glyph-name="uni2B05" unicode="&#x2b05;" horiz-adv-x="469" 
d="M80 285l257 191l52 -74l-170 -117l170 -117l-52 -74z" />
    <glyph glyph-name="uni2B06" unicode="&#x2b06;" horiz-adv-x="542" 
d="M80 219l191 257l191 -257l-74 -52l-117 170l-117 -170z" />
    <glyph glyph-name="uni2B07" unicode="&#x2b07;" horiz-adv-x="542" 
d="M80 351l74 52l117 -170l117 170l74 -52l-191 -257z" />
    <glyph glyph-name="uni2B08" unicode="&#x2b08;" horiz-adv-x="477" 
d="M261 130l38 202l-203 -37l-16 89l317 47l-46 -317z" />
    <glyph glyph-name="uni2B09" unicode="&#x2b09;" horiz-adv-x="477" 
d="M80 431l317 -47l-16 -89l-203 37l38 -202l-90 -16z" />
    <glyph glyph-name="uni2B0A" unicode="&#x2b0a;" horiz-adv-x="477" 
d="M80 161l16 89l203 -37l-38 202l90 16l46 -317z" />
    <glyph glyph-name="uni2B0B" unicode="&#x2b0b;" horiz-adv-x="477" 
d="M126 431l90 -16l-38 -202l203 37l16 -89l-317 -47z" />
    <glyph glyph-name="commainferior" unicode="&#xf6e1;" horiz-adv-x="166" 
d="M45 -98h78l-42 -158h-68z" />
    <glyph glyph-name="commasuperior" unicode="&#xf6e2;" horiz-adv-x="166" 
d="M45 447h78l-42 -158h-68z" />
    <glyph glyph-name="hypheninferior" unicode="&#xf6e5;" horiz-adv-x="276" 
d="M60 24h156v-62h-156v62z" />
    <glyph glyph-name="hyphensuperior" unicode="&#xf6e6;" horiz-adv-x="276" 
d="M60 569h156v-62h-156v62z" />
    <glyph glyph-name="periodinferior" unicode="&#xf6e7;" horiz-adv-x="160" 
d="M41 -98h78v-80h-78v80z" />
    <glyph glyph-name="periodsuperior" unicode="&#xf6e8;" horiz-adv-x="160" 
d="M41 447h78v-80h-78v80z" />
    <glyph glyph-name="IJacute" horiz-adv-x="642" 
d="M95 700h96v-700h-96v700zM80 794l165 138l52 -66l-175 -126zM386 -12q-48 0 -101 22l26 78q30 -14 61 -14q50 0 67 24q17 23 17 92v510h96v-523q0 -86 -32 -133q-39 -56 -134 -56zM439 794l165 138l52 -66l-175 -126z" />
    <glyph glyph-name="i.loclTRK" horiz-adv-x="259" 
d="M84 500h91v-500h-91v500zM84 700h91v-102h-91v102z" />
    <glyph glyph-name="ijacute" horiz-adv-x="526" 
d="M84 500h91v-500h-91v500zM78 608l123 169l66 -51l-134 -160zM295 -222q-56 0 -96 22l26 74q26 -14 56 -14q44 0 57 28t13 86v526h91v-544q0 -59 -14 -95q-32 -83 -133 -83zM347 608l123 169l66 -51l-134 -160z" />
    <glyph glyph-name="s_t" horiz-adv-x="797" 
d="M215 -12q-112 0 -172 78l64 51q50 -53 109 -53q39 0 64.5 20t25.5 57q0 18 -15.5 33.5t-31.5 23t-49 20.5q-35 14 -52 22t-42.5 25.5t-37 41.5t-11.5 56q0 72 47 110.5t114 38.5q93 0 154 -55l-54 -58q-43 37 -99 37q-34 0 -54.5 -18t-20.5 -48q0 -18 16 -33t32 -22.5
t48 -20.5q30 -12 51 -22.5t45.5 -28t37 -42.5t12.5 -56q0 -79 -52 -118t-129 -39zM690 -10q-99 0 -134 78q-16 37 -16 104v248h-67v80h67v120h91v-120h140v-80h-140v-226q0 -24 1 -39q2 -42 18 -63t52 -21q28 0 56 14l25 -73q-42 -22 -93 -22z" />
    <glyph glyph-name="s_p" horiz-adv-x="1077" 
d="M215 -12q-112 0 -172 78l64 51q50 -53 109 -53q39 0 64.5 20t25.5 57q0 18 -15.5 33.5t-31.5 23t-49 20.5q-35 14 -52 22t-42.5 25.5t-37 41.5t-11.5 56q0 72 47 110.5t114 38.5q93 0 154 -55l-54 -58q-43 37 -99 37q-34 0 -54.5 -18t-20.5 -48q0 -18 16 -33t32 -22.5
t48 -20.5q30 -12 51 -22.5t45.5 -28t37 -42.5t12.5 -56q0 -79 -52 -118t-129 -39zM535 500h91v-67q26 38 69 58.5t90 20.5q107 0 178.5 -76t71.5 -187q0 -104 -71 -182.5t-181 -78.5q-93 0 -157 66v-304h-91v750zM771 72q81 0 126 54t45 125q0 73 -47 125t-122 52
q-44 0 -86.5 -25.5t-60.5 -69.5v-185q25 -36 65 -56t80 -20z" />
    <glyph glyph-name="c_t" horiz-adv-x="836" 
d="M298 -12q-109 0 -182.5 73t-73.5 189q0 110 76 186t185 76q77 0 141 -43l-43 -75q-45 34 -102 34q-68 0 -116 -52t-48 -126q0 -79 48.5 -128.5t116.5 -49.5q59 0 106 35l45 -70q-60 -49 -153 -49zM729 -10q-99 0 -134 78q-16 37 -16 104v248h-67v80h67v120h91v-120h140
v-80h-140v-226q0 -24 1 -39q2 -42 18 -63t52 -21q28 0 56 14l25 -73q-42 -22 -93 -22z" />
    <glyph glyph-name="c_h" horiz-adv-x="1081" 
d="M298 -12q-109 0 -182.5 73t-73.5 189q0 110 76 186t185 76q77 0 141 -43l-43 -75q-45 34 -102 34q-68 0 -116 -52t-48 -126q0 -79 48.5 -128.5t116.5 -49.5q59 0 106 35l45 -70q-60 -49 -153 -49zM559 750h91v-332q59 94 163 94q98 0 145 -63q45 -61 45 -189v-260h-91
v250q0 99 -26 138q-27 40 -87 40q-42 0 -81.5 -26.5t-67.5 -69.5v-332h-91v750z" />
    <glyph glyph-name="c_k" horiz-adv-x="989" 
d="M298 -12q-109 0 -182.5 73t-73.5 189q0 110 76 186t185 76q77 0 141 -43l-43 -75q-45 34 -102 34q-68 0 -116 -52t-48 -126q0 -79 48.5 -128.5t116.5 -49.5q59 0 106 35l45 -70q-60 -49 -153 -49zM559 750h91v-500l2 -1l202 251h112l-175 -204l192 -296h-111l-143 224
l-79 -92v-132h-91v750z" />
    <glyph glyph-name="T_h" horiz-adv-x="1094" 
d="M196 614h-176v86h448v-86h-176v-614h-96v614zM572 750h91v-332q59 94 163 94q98 0 145 -63q45 -61 45 -189v-260h-91v250q0 99 -26 138q-27 40 -87 40q-42 0 -81.5 -26.5t-67.5 -69.5v-332h-91v750z" />
    <glyph glyph-name="commaaccentbelow" horiz-adv-x="360" 
d="M133 -56h85l-46 -175h-75z" />
    <glyph glyph-name="caron.alt" horiz-adv-x="360" 
d="M130 700h89l-53 -200h-76z" />
    <glyph glyph-name="tilde.case" horiz-adv-x="360" 
d="M254 751q-30 0 -57.5 16t-50 32t-40.5 16q-31 0 -33 -30q0 -7 1 -10l-65 -7q-2 12 -2 27q0 43 27.5 69t70.5 26q37 0 83 -32t65 -32q31 0 33 30q0 7 -1 10l65 7q2 -12 2 -27q0 -43 -27.5 -69t-70.5 -26z" />
    <glyph glyph-name="ring.case" horiz-adv-x="360" 
d="M180 726q-38 0 -65.5 27.5t-27.5 65.5t27.5 65.5t65.5 27.5t65.5 -27.5t27.5 -65.5t-27.5 -65.5t-65.5 -27.5zM180 775q18 0 31 13t13 31t-13 31t-31 13t-31 -13t-13 -31t13 -31t31 -13z" />
    <glyph glyph-name="circumflex.case" horiz-adv-x="360" 
d="M22 788l110 134h95l107 -134l-54 -42l-102 116l-101 -116z" />
    <glyph glyph-name="acute.case" horiz-adv-x="360" 
d="M102 794l165 138l52 -66l-175 -126z" />
    <glyph glyph-name="grave.case" horiz-adv-x="360" 
d="M41 866l52 66l165 -138l-42 -54z" />
    <glyph glyph-name="dieresis.case" horiz-adv-x="360" 
d="M264 875h102v-111h-102v111zM-6 875h102v-111h-102v111z" />
    <glyph glyph-name="caron.case" horiz-adv-x="360" 
d="M22 886l55 42l102 -116l101 116l54 -42l-110 -134h-95z" />
    <glyph glyph-name="macron.case" horiz-adv-x="360" 
d="M15 845h330v-71h-330v71z" />
    <glyph glyph-name="dotaccent.case" horiz-adv-x="360" 
d="M129 875h102v-111h-102v111z" />
    <glyph glyph-name="hungarumlaut.case" horiz-adv-x="360" 
d="M10 794l165 138l52 -66l-175 -126zM227 794l158 133l52 -66l-168 -121z" />
    <glyph glyph-name="breve.case" horiz-adv-x="360" 
d="M180 756q-65 0 -104 36t-39 96v6h67v-6q0 -32 21 -50t55 -18q33 0 56 18t23 50v6h64v-6q0 -59 -41 -95.5t-102 -36.5z" />
    <glyph glyph-name="hyphen.case" horiz-adv-x="460" 
d="M100 375h260v-82h-260v82z" />
    <glyph glyph-name="at.case" horiz-adv-x="800" 
d="M395 2q-142 0 -241 101t-99 243q0 144 99 244.5t241 100.5q156 0 253.5 -91t97.5 -234q0 -89 -39 -150.5t-114 -61.5q-72 0 -97 81q-17 -32 -48.5 -49t-67.5 -17q-71 0 -117 49t-46 123q0 70 45 121.5t120 51.5q57 0 103 -43v32h71v-154q0 -52 6.5 -81t15.5 -37t23 -8
q33 0 50 42t17 102q0 113 -74 180.5t-198 67.5q-111 0 -187 -77.5t-76 -190.5t76 -191t187 -78q63 0 125 30l25 -70q-71 -36 -151 -36zM388 235q26 0 54.5 22t42.5 59v72q-19 27 -45 43t-50 16q-50 0 -75 -31.5t-25 -75.5q0 -43 26.5 -74t71.5 -31z" />
    <glyph glyph-name="exclamdown.case" horiz-adv-x="317" 
d="M104 111l10 379h89l10 -379v-111h-109v111zM106 700h105v-116h-105v116z" />
    <glyph glyph-name="questiondown.case" horiz-adv-x="541" 
d="M269 -12q-83 0 -139.5 56t-56.5 125q0 84 41 129t113 78v114h97v-166q-36 -12 -59.5 -22.5t-49 -28.5t-38.5 -43t-13 -58q0 -42 30 -72t75 -30q49 0 78 30t29 82v8h91v-4q0 -86 -58.5 -142t-139.5 -56zM223 700h105v-116h-105v116z" />
    <glyph glyph-name="a.sc" horiz-adv-x="553" 
d="M231 570h94l218 -570h-103l-44 119h-245l-43 -119h-98zM367 200l-92 251h-2l-92 -251h186z" />
    <glyph glyph-name="b.sc" horiz-adv-x="541" 
d="M90 570h145q85 0 141 -24q86 -39 86 -130q0 -87 -92 -120q116 -33 116 -134q0 -49 -25.5 -85t-72.5 -54q-60 -23 -161 -23h-137v570zM225 79q84 0 119 16q46 20 46 72q0 40 -31.5 62t-86.5 22h-91v-172h44zM235 330q136 0 136 81q0 43 -34 61.5t-105 18.5h-51v-161h54z
" />
    <glyph glyph-name="c.sc" horiz-adv-x="557" 
d="M363 -12q-131 0 -219.5 82t-88.5 215q0 127 90 212t220 85q83 0 154 -44l-42 -69q-54 32 -113 32q-92 0 -152.5 -61t-60.5 -155q0 -99 58.5 -157.5t153.5 -58.5q65 0 123 38l46 -66q-76 -53 -169 -53z" />
    <glyph glyph-name="d.sc" horiz-adv-x="619" 
d="M90 570h80q169 0 235 -27q169 -66 169 -255q0 -110 -53.5 -178.5t-139.5 -90.5q-74 -19 -207 -19h-84v570zM181 81q96 0 151 13q146 34 146 187q0 129 -97 178q-60 30 -200 30v-408z" />
    <glyph glyph-name="e.sc" horiz-adv-x="515" 
d="M90 570h350v-81h-259v-156h259v-81h-259v-171h259v-81h-350v570z" />
    <glyph glyph-name="f.sc" horiz-adv-x="445" 
d="M90 570h300v-81h-209v-169h209v-81h-209v-239h-91v570z" />
    <glyph glyph-name="g.sc" horiz-adv-x="649" 
d="M353 -12q-131 0 -219.5 82t-88.5 215q0 126 90 211.5t218 85.5q131 0 223 -102l-66 -56q-61 77 -158 77q-91 0 -151 -61.5t-60 -154.5q0 -99 58 -157.5t153 -58.5q90 0 148 60v117h-135v79h224v-226q-41 -53 -103 -82t-133 -29z" />
    <glyph glyph-name="h.sc" horiz-adv-x="664" 
d="M90 570h91v-235h302v235h91v-570h-91v254h-302v-254h-91v570z" />
    <glyph glyph-name="i.sc" horiz-adv-x="271" 
d="M90 570h91v-570h-91v570z" />
    <glyph glyph-name="j.sc" horiz-adv-x="333" 
d="M95 -12q-40 0 -81 18l23 73q21 -10 46 -10q41 0 55 18q14 17 14 77v406h91v-428q0 -68 -28 -106q-36 -48 -120 -48z" />
    <glyph glyph-name="k.sc" horiz-adv-x="552" 
d="M90 570h91v-282l234 282h110l-190 -222l207 -348h-108l-160 276l-93 -109v-167h-91v570z" />
    <glyph glyph-name="l.sc" horiz-adv-x="439" 
d="M90 570h91v-489h248v-81h-339v570z" />
    <glyph glyph-name="m.sc" horiz-adv-x="803" 
d="M90 570h137l172 -444h1l176 444h137v-570h-91v459l-186 -459h-71l-184 458v-458h-91v570z" />
    <glyph glyph-name="n.sc" horiz-adv-x="676" 
d="M90 570h94l311 -423v423h91v-570h-95l-310 423v-423h-91v570z" />
    <glyph glyph-name="o.sc" horiz-adv-x="694" 
d="M347 -12q-128 0 -215 86.5t-87 210.5t87 210.5t215 86.5t215 -86.5t87 -210.5t-87 -210.5t-215 -86.5zM347 69q89 0 147.5 61t58.5 155t-58.5 155t-147.5 61t-147.5 -61t-58.5 -155t58.5 -155t147.5 -61z" />
    <glyph glyph-name="p.sc" horiz-adv-x="516" 
d="M90 570h106q81 0 113 -4q78 -11 127.5 -56t49.5 -116q0 -59 -38.5 -105.5t-100.5 -63.5q-45 -12 -148 -12h-18v-213h-91v570zM214 294q86 0 117 12q59 23 59 86q0 69 -70 89q-24 8 -111 8h-28v-195h33z" />
    <glyph glyph-name="q.sc" horiz-adv-x="694" 
d="M498 26q-70 -38 -151 -38q-128 0 -215 86.5t-87 210.5t87 210.5t215 86.5t215 -86.5t87 -210.5t-87 -211l79 -79l-55 -56zM347 69q48 0 89 19l-76 77l56 56l84 -85q53 61 53 149q0 94 -58.5 155t-147.5 61t-147.5 -61t-58.5 -155t58.5 -155t147.5 -61z" />
    <glyph glyph-name="r.sc" horiz-adv-x="557" 
d="M90 570h129q141 0 204 -40t63 -129q0 -61 -36.5 -104.5t-98.5 -57.5l181 -239h-115l-169 227h-67v-227h-91v570zM210 306q94 0 137 20t43 70q0 55 -37 75t-148 20h-24v-185h29z" />
    <glyph glyph-name="s.sc" horiz-adv-x="491" 
d="M238 -12q-116 0 -203 84l58 62q39 -36 71.5 -50.5t73.5 -14.5q45 0 76 23t31 69q0 14 -3.5 25.5t-13.5 21.5l-16.5 16t-25 14l-25.5 11t-31 11l-30 10q-30 11 -51 21.5t-42.5 27.5t-32.5 43.5t-11 60.5q0 77 51 118t128 41q92 0 174 -57l-50 -66q-61 42 -117 42
q-44 0 -69.5 -19.5t-25.5 -54.5q0 -9 2 -17t7.5 -15t10 -12t14.5 -10.5l16 -9t19.5 -8.5l20.5 -7.5t22.5 -7.5t22.5 -7q33 -11 55.5 -22t47 -30t37 -47.5t12.5 -66.5q0 -60 -35 -102.5t-79.5 -59.5t-88.5 -17z" />
    <glyph glyph-name="t.sc" horiz-adv-x="449" 
d="M179 489h-144v81h379v-81h-144v-489h-91v489z" />
    <glyph glyph-name="u.sc" horiz-adv-x="622" 
d="M309 -12q-229 0 -229 279v303h91v-313q0 -94 36.5 -141t103.5 -47t103.5 47t36.5 141v313h91v-303q0 -279 -233 -279z" />
    <glyph glyph-name="v.sc" horiz-adv-x="541" 
d="M4 570h103l165 -451h2l165 451h98l-221 -570h-94z" />
    <glyph glyph-name="w.sc" horiz-adv-x="797" 
d="M15 570h100l115 -430h1l120 430h100l114 -430h2l120 430h95l-163 -570h-103l-115 434h-2l-124 -434h-103z" />
    <glyph glyph-name="x.sc" horiz-adv-x="558" 
d="M222 287l-212 283h116l156 -214l156 214h113l-213 -280l216 -290h-115l-161 221l-161 -221h-113z" />
    <glyph glyph-name="y.sc" horiz-adv-x="484" 
d="M197 233l-192 337h112l127 -240h2l127 240h106l-191 -334v-236h-91v233z" />
    <glyph glyph-name="z.sc" horiz-adv-x="477" 
d="M45 50l258 439h-255v81h382v-46l-261 -443h283v-81h-407v50z" />
    <glyph glyph-name="ae.sc" horiz-adv-x="847" 
d="M423 570h349v-81h-259v-156h259v-81h-259v-171h259v-81h-350v119h-221l-83 -119h-113zM422 200v236l-165 -236h165z" />
    <glyph glyph-name="eth.sc" horiz-adv-x="614" 
d="M90 257h-60v74h60v239h80q169 0 235 -27q169 -66 169 -255q0 -110 -53.5 -178.5t-139.5 -90.5q-74 -19 -207 -19h-84v257zM181 81q96 0 151 13q146 34 146 187q0 129 -97 178q-60 30 -200 30v-158h110v-74h-110v-176z" />
    <glyph glyph-name="ij.sc" horiz-adv-x="604" 
d="M90 570h91v-570h-91v570zM366 -12q-40 0 -81 18l23 73q21 -10 46 -10q41 0 55 18t14 77v406h91v-428q0 -68 -28 -106q-36 -48 -120 -48z" />
    <glyph glyph-name="eng.sc" horiz-adv-x="676" 
d="M438 -222q-40 0 -81 18l23 72q21 -10 46 -10q41 0 55 18q14 17 14 77v42l-314 428v-423h-91v570h94l311 -423v423h91v-638q0 -68 -28 -106q-36 -48 -120 -48z" />
    <glyph glyph-name="oe.sc" horiz-adv-x="889" 
d="M347 -12q-128 0 -215 86.5t-87 210.5t87 210.5t215 86.5q61 0 117 -27v15h350v-81h-259v-156h259v-81h-259v-171h259v-81h-350v15q-56 -27 -117 -27zM347 69q67 0 117 35v362q-52 35 -117 35q-89 0 -147.5 -61t-58.5 -155t58.5 -155t147.5 -61z" />
    <glyph glyph-name="thorn.sc" horiz-adv-x="536" 
d="M90 570h91v-100h15q81 0 113 -4q78 -11 127.5 -56t49.5 -116q0 -59 -38.5 -105.5t-100.5 -63.5q-45 -12 -148 -12h-18v-113h-91v570zM214 194q86 0 117 12q59 23 59 86q0 69 -70 89q-24 8 -111 8h-28v-195h33z" />
    <glyph glyph-name="germandbls.sc" horiz-adv-x="646" 
d="M309 322q9 -1 52 -1q89 0 89 88q0 43 -33.5 69t-89.5 26q-79 0 -114.5 -41.5t-35.5 -134.5v-330h-91v345q0 118 61 178t180 60q98 0 155.5 -46t57.5 -125q0 -80 -63 -116q54 -11 83 -48t29 -94q0 -77 -48.5 -118.5t-139.5 -41.5q-64 0 -126 20l18 75q46 -18 100 -18
q104 0 104 87q0 90 -108 90q-47 0 -80 -3v79z" />
    <glyph glyph-name="dotlessi.sc" horiz-adv-x="271" 
d="M90 570h91v-570h-91v570z" />
    <glyph glyph-name="kgreenlandic.sc" horiz-adv-x="552" 
d="M90 570h91v-282l234 282h110l-190 -222l207 -348h-108l-160 276l-93 -109v-167h-91v570z" />
    <glyph glyph-name="zero.sc" horiz-adv-x="494" 
d="M247 -12q-99 0 -153 79t-54 218t54 218.5t153 79.5q98 0 152.5 -79.5t54.5 -218.5t-54.5 -218t-152.5 -79zM247 70q54 0 83.5 54.5t29.5 160.5q0 107 -29.5 161.5t-83.5 54.5t-83.5 -54.5t-29.5 -161.5q0 -106 29.5 -160.5t83.5 -54.5z" />
    <glyph glyph-name="one.sc" horiz-adv-x="316" 
d="M140 462q-17 -9 -85 -37v86q73 35 118 61h58v-572h-91v462z" />
    <glyph glyph-name="two.sc" horiz-adv-x="447" 
d="M59 75q143 163 186 226q55 78 55 123q0 33 -22 55.5t-58 22.5q-33 0 -57.5 -24.5t-25.5 -63.5l-91 19q7 65 57 107t118 42q77 0 125.5 -44t48.5 -113t-70 -166q-64 -88 -148 -179h241v-80h-359v75z" />
    <glyph glyph-name="three.sc" horiz-adv-x="470" 
d="M212 -12q-58 0 -104.5 29t-72.5 80l79 40q13 -32 39 -50.5t57 -18.5q47 0 80 26t33 66q0 39 -33.5 65.5t-76.5 26.5q-36 0 -70 -8v91q48 1 81 9q31 8 50 29.5t19 49.5q0 35 -24 57t-60 22q-31 0 -55 -20t-31 -55l-84 29q15 54 66 90t116 36q75 0 120.5 -43t45.5 -113
q0 -36 -17 -68.5t-49 -52.5q44 -17 70 -56t26 -86q0 -77 -59.5 -126t-145.5 -49z" />
    <glyph glyph-name="four.sc" horiz-adv-x="474" 
d="M278 149h-252v91l256 332h85v-343h86v-80h-86v-149h-89v149zM278 229v201q-82 -115 -151 -201h151z" />
    <glyph glyph-name="five.sc" horiz-adv-x="444" 
d="M211 -11q-114 0 -174 97l72 43q35 -60 103 -60q44 0 76 30t32 71q0 49 -26.5 77.5t-79.5 28.5q-43 0 -84 -36l-63 34q18 164 24 296h297v-80h-212q-3 -74 -11 -146q33 10 65 10q76 0 130 -50t54 -127q0 -79 -56.5 -133.5t-146.5 -54.5z" />
    <glyph glyph-name="six.sc" horiz-adv-x="486" 
d="M257 -12q-99 0 -157.5 66.5t-58.5 161.5q0 148 77.5 240t212.5 145l34 -77q-172 -76 -215 -206q51 42 122 42q77 0 125 -53.5t48 -131.5q0 -79 -53.5 -133t-134.5 -54zM249 67q45 0 73.5 31.5t28.5 78.5t-27 75.5t-72 28.5q-36 0 -68.5 -18.5t-49.5 -48.5q0 -63 28 -105
t87 -42z" />
    <glyph glyph-name="seven.sc" horiz-adv-x="399" 
d="M58 17q51 120 220 472h-268v81h369v-62q-108 -224 -236 -530z" />
    <glyph glyph-name="eight.sc" horiz-adv-x="512" 
d="M256 -12q-83 0 -141.5 45t-58.5 123q0 47 24.5 86t67.5 58q-33 18 -52.5 51.5t-19.5 72.5q0 71 51 114.5t129 43.5t129 -43.5t51 -114.5q0 -39 -19.5 -72.5t-52.5 -51.5q43 -19 67.5 -58t24.5 -86q0 -78 -58.5 -123t-141.5 -45zM256 68q48 0 77 26t29 68q0 40 -30 67
t-76 27t-76 -27t-30 -67q0 -42 29 -68t77 -26zM256 336q39 0 64 24t25 59q0 37 -24 60t-65 23t-65 -23t-24 -60q0 -35 25 -59t64 -24z" />
    <glyph glyph-name="nine.sc" horiz-adv-x="486" 
d="M121 44q172 76 215 206q-51 -42 -122 -42q-77 0 -125 53.5t-48 131.5q0 79 53.5 133t134.5 54q99 0 157.5 -66.5t58.5 -161.5q0 -148 -77.5 -240t-212.5 -145zM234 287q36 0 68.5 18.5t49.5 48.5q0 63 -28 105t-87 42q-45 0 -73.5 -31.5t-28.5 -78.5t27 -75.5t72 -28.5z
" />
    <glyph glyph-name="dollar.sc" horiz-adv-x="500" 
d="M224 -11q-97 9 -174 83l58 62q67 -67 141 -67q46 0 78.5 24t32.5 70q0 21 -9 37t-28.5 28t-36 18.5t-46.5 16.5q-32 11 -47.5 17t-41.5 20t-39 29t-23.5 40t-10.5 56q0 70 42.5 110t109.5 47v79h66v-80q68 -8 135 -54l-50 -66q-60 42 -119 42q-39 0 -66 -18t-27 -56
q0 -9 2 -17t7.5 -14.5l10.5 -12t14.5 -11l16 -9t19.5 -8.5t20.5 -7.5l23 -7.5t22.5 -8q34 -12 56 -22.5t46.5 -29.5t36.5 -47t12 -66q0 -76 -49.5 -120.5t-116.5 -54.5v-81h-66v78z" />
    <glyph glyph-name="Euro.sc" horiz-adv-x="635" 
d="M423 -12q-109 0 -186.5 51.5t-105.5 145.5h-75v67h62q-1 10 -1 33q0 21 1 31h-62v68h76q30 90 109.5 144t183.5 54q83 0 154 -44l-42 -69q-54 32 -113 32q-65 0 -115 -31t-76 -86h226v-68h-244q-2 -22 -2 -32q0 -22 1 -32h245v-67h-229q45 -116 193 -116q65 0 123 38
l46 -66q-76 -53 -169 -53z" />
    <glyph glyph-name="cent.sc" horiz-adv-x="500" 
d="M271 -7q-94 14 -154.5 84t-60.5 175q0 97 60.5 169t154.5 89v82h64v-79q67 -4 123 -42l-42 -73q-45 34 -103 34q-68 0 -116 -52.5t-48 -128.5q0 -81 48.5 -131.5t116.5 -50.5q59 0 106 35l45 -65q-53 -42 -130 -48v-80h-64v82z" />
    <glyph glyph-name="sterling.sc" horiz-adv-x="500" 
d="M68 81h48v188h-48v79h48v41q0 84 50.5 138.5t127.5 54.5q73 0 132 -35l-38 -75q-34 30 -91 30q-91 0 -91 -136v-18h114v-79h-114v-188h220v-81h-358v81z" />
    <glyph glyph-name="yen.sc" horiz-adv-x="500" 
d="M203 103h-146v67h144v54h-144v68h123l-157 280h104l126 -227h1l120 227h101l-159 -280h123v-68h-145v-54h145v-67h-147v-103h-89v103z" />
    <glyph glyph-name="florin.sc" horiz-adv-x="500" 
d="M97 -177q-37 0 -75 10l18 75q22 -6 48 -6t35.5 18t14.5 63l33 287h-67v79h76l11 90q8 69 45 106t98 37q51 0 116 -29l-34 -74q-32 24 -74 24q-32 0 -45.5 -20t-17.5 -61l-8 -73h102v-79h-111l-35 -304q-8 -70 -42.5 -106.5t-87.5 -36.5z" />
    <glyph glyph-name="uni20BA.sc" horiz-adv-x="568" 
d="M45 186v68l91 30v71l-91 -30v68l91 30v146h85v-127l156 52v-68l-156 -52v-72l157 53v-68l-157 -52v-171h5q120 0 169.5 45.5t49.5 166.5h86v-4q0 -148 -73 -218.5t-222 -70.5q-53 0 -100 15v219z" />
    <glyph glyph-name="percent.sc" horiz-adv-x="806" 
d="M174 26l407 559l53 -39l-405 -559zM237 313q-56 0 -96 38t-40 93t40 94.5t96 39.5q55 0 94 -39t39 -95q0 -55 -38.5 -93t-94.5 -38zM238 377q25 0 42.5 19.5t17.5 48.5t-17.5 47.5t-42.5 18.5q-28 0 -46.5 -18.5t-18.5 -47.5t18.5 -48.5t46.5 -19.5zM571 -6
q-55 0 -94.5 39t-39.5 94t39 93.5t95 38.5t95.5 -38.5t39.5 -93.5t-39.5 -94t-95.5 -39zM572 61q26 0 43 18.5t17 48.5q0 29 -17 48t-43 19q-27 0 -45 -19t-18 -48q0 -30 18 -48.5t45 -18.5z" />
    <glyph glyph-name="perthousand.sc" horiz-adv-x="1117" 
d="M174 26l407 559l53 -39l-405 -559zM237 313q-56 0 -96 38t-40 93t40 94.5t96 39.5q55 0 94 -39t39 -95q0 -55 -38.5 -93t-94.5 -38zM238 377q25 0 42.5 19.5t17.5 48.5t-17.5 47.5t-42.5 18.5q-28 0 -46.5 -18.5t-18.5 -47.5t18.5 -48.5t46.5 -19.5zM571 -6
q-55 0 -94.5 39t-39.5 94t39 93.5t95 38.5t95.5 -38.5t39.5 -93.5t-39.5 -94t-95.5 -39zM572 61q26 0 43 18.5t17 48.5q0 29 -17 48t-43 19q-27 0 -45 -19t-18 -48q0 -30 18 -48.5t45 -18.5zM883 -6q-56 0 -95.5 39t-39.5 94t39.5 93.5t95.5 38.5t95 -38.5t39 -93.5t-39 -94
t-95 -39zM884 61q26 0 43.5 18.5t17.5 48.5q0 28 -17.5 47.5t-43.5 19.5q-28 0 -46 -19t-18 -48q0 -30 18 -48.5t46 -18.5z" />
    <glyph glyph-name="exclam.sc" horiz-adv-x="300" 
d="M100 480v94h100v-94l-8 -310h-84zM102 102h97v-102h-97v102z" />
    <glyph glyph-name="exclamdown.sc" horiz-adv-x="300" 
d="M100 94l8 310h84l8 -310v-94h-100v94zM101 574h97v-102h-97v102z" />
    <glyph glyph-name="question.sc" horiz-adv-x="471" 
d="M186 311q35 12 52 19.5t38.5 21.5t30.5 33t9 46q0 32 -23 55t-56 23q-37 0 -59 -23t-22 -63v-11l-86 3v3q0 69 49 117.5t118 48.5q70 0 117 -46.5t47 -104.5q0 -29 -8 -54t-18 -40.5t-29.5 -31t-32.5 -23.5t-37 -21v-93h-90v141zM183 102h97v-102h-97v102z" />
    <glyph glyph-name="questiondown.sc" horiz-adv-x="471" 
d="M234 -15q-70 0 -117 46.5t-47 104.5q0 29 8 54t18 40.5t29.5 31t32.5 23.5t37 21v93h90v-141q-35 -12 -52 -19.5t-38.5 -21.5t-30.5 -33t-9 -46q0 -32 23 -55t56 -23q37 0 59 23t22 63v11l86 -3v-3q0 -69 -49 -117.5t-118 -48.5zM191 569h97v-102h-97v102z" />
    <glyph glyph-name="quoteleft.sc" horiz-adv-x="273" 
d="M126 616h87l-51 -250h-102z" />
    <glyph glyph-name="quoteright.sc" horiz-adv-x="273" 
d="M111 616h102l-66 -250h-87z" />
    <glyph glyph-name="quotedblleft.sc" horiz-adv-x="523" 
d="M356 616h87l-51 -250h-102zM146 616h87l-51 -250h-102z" />
    <glyph glyph-name="quotedblright.sc" horiz-adv-x="523" 
d="M341 616h102l-66 -250h-87zM131 616h102l-66 -250h-87z" />
    <glyph glyph-name="aacute.sc" horiz-adv-x="553" 
d="M231 570h94l218 -570h-103l-44 119h-245l-43 -119h-98zM367 200l-92 251h-2l-92 -251h186zM208 653l123 169l66 -51l-134 -160z" />
    <glyph glyph-name="abreve.sc" horiz-adv-x="551" 
d="M231 570h94l218 -570h-103l-44 119h-245l-43 -119h-98zM367 200l-92 251h-2l-92 -251h186zM277 613q-60 0 -101.5 41.5t-41.5 101.5v14h66v-14q0 -33 22 -56t55 -23q32 0 55.5 23t23.5 56v14h64v-14q0 -60 -41.5 -101.5t-101.5 -41.5z" />
    <glyph glyph-name="acircumflex.sc" horiz-adv-x="553" 
d="M231 570h94l218 -570h-103l-44 119h-245l-43 -119h-98zM367 200l-92 251h-2l-92 -251h186zM132 647l104 157h88l102 -157l-53 -36l-93 129l-93 -129z" />
    <glyph glyph-name="adieresis.sc" horiz-adv-x="553" 
d="M231 570h94l218 -570h-103l-44 119h-245l-43 -119h-98zM367 200l-92 251h-2l-92 -251h186zM337 745h93v-102h-93v102zM134 745h93v-102h-93v102z" />
    <glyph glyph-name="aeacute.sc" horiz-adv-x="847" 
d="M423 570h349v-81h-259v-156h259v-81h-259v-171h259v-81h-350v119h-221l-83 -119h-113zM422 200v236l-165 -236h165z" />
    <glyph glyph-name="agrave.sc" horiz-adv-x="553" 
d="M231 570h94l218 -570h-103l-44 119h-245l-43 -119h-98zM367 200l-92 251h-2l-92 -251h186zM154 771l66 51l123 -169l-55 -42z" />
    <glyph glyph-name="amacron.sc" horiz-adv-x="551" 
d="M231 570h94l218 -570h-103l-44 119h-245l-43 -119h-98zM367 200l-92 251h-2l-92 -251h186zM129 723h296v-70h-296v70z" />
    <glyph glyph-name="aogonek.sc" horiz-adv-x="551" 
d="M463 -222q-46 0 -76.5 27t-30.5 72q0 79 84 123l-44 119h-245l-43 -119h-98l221 570h94l218 -570q-54 -16 -83.5 -45.5t-29.5 -65.5q0 -53 54 -53q18 0 34 6l22 -52q-30 -12 -77 -12zM367 200l-92 251h-2l-92 -251h186z" />
    <glyph glyph-name="aring.sc" horiz-adv-x="553" 
d="M231 570h94l218 -570h-103l-44 119h-245l-43 -119h-98zM367 200l-92 251h-2l-92 -251h186zM279 625q-38 0 -65.5 27.5t-27.5 65.5t27.5 65.5t65.5 27.5t65.5 -27.5t27.5 -65.5t-27.5 -65.5t-65.5 -27.5zM279 674q18 0 31 13t13 31t-13 31t-31 13t-31 -13t-13 -31t13 -31
t31 -13z" />
    <glyph glyph-name="atilde.sc" horiz-adv-x="553" 
d="M231 570h94l218 -570h-103l-44 119h-245l-43 -119h-98zM367 200l-92 251h-2l-92 -251h186zM371 627q-39 0 -84 32t-64 32q-31 0 -33 -30q0 -7 1 -10l-65 -7q-2 12 -2 23q0 43 27.5 69t70.5 26q38 0 83.5 -32t64.5 -32q31 0 33 30q0 7 -1 10l65 7q2 -12 2 -23
q0 -43 -27.5 -69t-70.5 -26z" />
    <glyph glyph-name="cacute.sc" horiz-adv-x="557" 
d="M353 -12q-131 0 -219.5 82t-88.5 215q0 127 90 212t220 85q83 0 154 -44l-42 -69q-54 32 -113 32q-92 0 -152.5 -61t-60.5 -155q0 -99 58.5 -157.5t153.5 -58.5q65 0 123 38l46 -66q-76 -53 -169 -53zM294 653l123 169l66 -51l-134 -160z" />
    <glyph glyph-name="ccaron.sc" horiz-adv-x="557" 
d="M353 -12q-131 0 -219.5 82t-88.5 215q0 127 90 212t220 85q83 0 154 -44l-42 -69q-54 32 -113 32q-92 0 -152.5 -61t-60.5 -155q0 -99 58.5 -157.5t153.5 -58.5q65 0 123 38l46 -66q-76 -53 -169 -53zM190 771l54 36l93 -129l93 129l54 -36l-104 -157h-88z" />
    <glyph glyph-name="ccedilla.sc" horiz-adv-x="557" 
d="M315 -245q-70 0 -103 59l57 28q12 -32 46 -32q19 0 31 13t12 31q0 20 -12.5 33.5t-32.5 13.5q-29 0 -39 -24l-61 32l39 93q-93 29 -150 103.5t-57 179.5q0 127 90 212t220 85q83 0 154 -44l-42 -69q-54 32 -113 32q-92 0 -152.5 -61t-60.5 -155q0 -99 58.5 -157.5
t153.5 -58.5q65 0 123 38l46 -66q-76 -53 -169 -53q-23 0 -44 3l-21 -56l1 -1q22 16 48 16q35 0 61 -26.5t26 -66.5q0 -41 -31.5 -71.5t-77.5 -30.5z" />
    <glyph glyph-name="ccircumflex.sc" horiz-adv-x="557" 
d="M187 647l104 157h88l102 -157l-53 -36l-93 129l-93 -129zM353 -12q-131 0 -219.5 82t-88.5 215q0 127 90 212t220 85q83 0 154 -44l-42 -69q-54 32 -113 32q-92 0 -152.5 -61t-60.5 -155q0 -99 58.5 -157.5t153.5 -58.5q65 0 123 38l46 -66q-76 -53 -169 -53z" />
    <glyph glyph-name="cdotaccent.sc" horiz-adv-x="557" 
d="M353 -12q-131 0 -219.5 82t-88.5 215q0 127 90 212t220 85q83 0 154 -44l-42 -69q-54 32 -113 32q-92 0 -152.5 -61t-60.5 -155q0 -99 58.5 -157.5t153.5 -58.5q65 0 123 38l46 -66q-76 -53 -169 -53zM291 745h91v-102h-91v102z" />
    <glyph glyph-name="dcaron.sc" horiz-adv-x="614" 
d="M90 570h80q169 0 235 -27q169 -66 169 -255q0 -110 -53.5 -178.5t-139.5 -90.5q-74 -19 -207 -19h-84v570zM181 81q96 0 151 13q146 34 146 187q0 129 -97 178q-60 30 -200 30v-408zM130 771l54 36l93 -129l93 129l54 -36l-104 -157h-88z" />
    <glyph glyph-name="dcroat.sc" horiz-adv-x="614" 
d="M90 257h-60v74h60v239h80q169 0 235 -27q169 -66 169 -255q0 -110 -53.5 -178.5t-139.5 -90.5q-74 -19 -207 -19h-84v257zM181 81q96 0 151 13q146 34 146 187q0 129 -97 178q-60 30 -200 30v-158h110v-74h-110v-176z" />
    <glyph glyph-name="eacute.sc" horiz-adv-x="515" 
d="M90 570h350v-81h-259v-156h259v-81h-259v-171h259v-81h-350v570zM212 653l123 169l66 -51l-134 -160z" />
    <glyph glyph-name="ebreve.sc" horiz-adv-x="515" 
d="M90 570h350v-81h-259v-156h259v-81h-259v-171h259v-81h-350v570zM274 616q-60 0 -101.5 41.5t-41.5 101.5v14h66v-14q0 -33 22 -56t55 -23q32 0 55.5 23t23.5 56v14h64v-14q0 -60 -41.5 -101.5t-101.5 -41.5z" />
    <glyph glyph-name="ecaron.sc" horiz-adv-x="515" 
d="M90 570h350v-81h-259v-156h259v-81h-259v-171h259v-81h-350v570zM127 771l54 36l93 -129l93 129l54 -36l-104 -157h-88z" />
    <glyph glyph-name="ecircumflex.sc" horiz-adv-x="515" 
d="M90 570h350v-81h-259v-156h259v-81h-259v-171h259v-81h-350v570zM125 647l104 157h88l102 -157l-53 -36l-93 129l-93 -129z" />
    <glyph glyph-name="edieresis.sc" horiz-adv-x="515" 
d="M324 745h93v-102h-93v102zM121 745h93v-102h-93v102zM90 570h350v-81h-259v-156h259v-81h-259v-171h259v-81h-350v570z" />
    <glyph glyph-name="edotaccent.sc" horiz-adv-x="515" 
d="M90 570h350v-81h-259v-156h259v-81h-259v-171h259v-81h-350v570zM238 745h91v-102h-91v102z" />
    <glyph glyph-name="egrave.sc" horiz-adv-x="515" 
d="M90 570h350v-81h-259v-156h259v-81h-259v-171h259v-81h-350v570zM150 771l66 51l123 -169l-55 -42z" />
    <glyph glyph-name="emacron.sc" horiz-adv-x="515" 
d="M90 570h350v-81h-259v-156h259v-81h-259v-171h259v-81h-350v570zM121 723h296v-70h-296v70z" />
    <glyph glyph-name="eogonek.sc" horiz-adv-x="515" 
d="M366 -222q-46 0 -76.5 27t-30.5 72q0 80 89 123h-258v570h350v-81h-259v-156h259v-81h-259v-171h259v-81q-50 -16 -78.5 -46t-28.5 -65q0 -53 54 -53q17 0 34 6l22 -52q-30 -12 -77 -12z" />
    <glyph glyph-name="gbreve.sc" horiz-adv-x="649" 
d="M353 -12q-131 0 -219.5 82t-88.5 215q0 126 90 211.5t218 85.5q131 0 223 -102l-66 -56q-61 77 -158 77q-91 0 -151 -61.5t-60 -154.5q0 -99 58 -157.5t153 -58.5q90 0 148 60v117h-135v79h224v-226q-41 -53 -103 -82t-133 -29zM353 613q-60 0 -101.5 41.5t-41.5 101.5
v14h66v-14q0 -33 22 -56t55 -23q32 0 55.5 23t23.5 56v14h64v-14q0 -60 -41.5 -101.5t-101.5 -41.5z" />
    <glyph glyph-name="gcircumflex.sc" horiz-adv-x="649" 
d="M353 -12q-131 0 -219.5 82t-88.5 215q0 126 90 211.5t218 85.5q131 0 223 -102l-66 -56q-61 77 -158 77q-91 0 -151 -61.5t-60 -154.5q0 -99 58 -157.5t153 -58.5q90 0 148 60v117h-135v79h224v-226q-41 -53 -103 -82t-133 -29zM200 667l104 157h88l102 -157l-53 -36
l-93 129l-93 -129z" />
    <glyph glyph-name="uni0123.sc" horiz-adv-x="649" 
d="M353 -12q-131 0 -219.5 82t-88.5 215q0 126 90 211.5t218 85.5q131 0 223 -102l-66 -56q-61 77 -158 77q-91 0 -151 -61.5t-60 -154.5q0 -99 58 -157.5t153 -58.5q90 0 148 60v117h-135v79h224v-226q-41 -53 -103 -82t-133 -29zM294 -56h85l-46 -175h-75z" />
    <glyph glyph-name="gdotaccent.sc" horiz-adv-x="649" 
d="M353 -12q-131 0 -219.5 82t-88.5 215q0 126 90 211.5t218 85.5q131 0 223 -102l-66 -56q-61 77 -158 77q-91 0 -151 -61.5t-60 -154.5q0 -99 58 -157.5t153 -58.5q90 0 148 60v117h-135v79h224v-226q-41 -53 -103 -82t-133 -29zM291 745h91v-102h-91v102z" />
    <glyph glyph-name="hbar.sc" horiz-adv-x="664" 
d="M90 416h-75v71h75v83h91v-83h302v83h91v-83h75v-71h-75v-416h-91v254h-302v-254h-91v416zM483 335v81h-302v-81h302z" />
    <glyph glyph-name="hcircumflex.sc" horiz-adv-x="664" 
d="M90 570h91v-235h302v235h91v-570h-91v254h-302v-254h-91v570zM190 647l104 157h88l102 -157l-53 -36l-93 129l-93 -129z" />
    <glyph glyph-name="iacute.sc" horiz-adv-x="271" 
d="M90 570h91v-570h-91v570zM85 653l123 169l66 -51l-134 -160z" />
    <glyph glyph-name="ibreve.sc" horiz-adv-x="271" 
d="M90 570h91v-570h-91v570zM135 613q-60 0 -101.5 41.5t-41.5 101.5v14h66v-14q0 -33 22 -56t55 -23q32 0 55.5 23t23.5 56v14h64v-14q0 -60 -41.5 -101.5t-101.5 -41.5z" />
    <glyph glyph-name="icircumflex.sc" horiz-adv-x="271" 
d="M90 570h91v-570h-91v570zM-12 647l104 157h88l102 -157l-53 -36l-93 129l-93 -129z" />
    <glyph glyph-name="idieresis.sc" horiz-adv-x="271" 
d="M90 570h91v-570h-91v570zM191 745h93v-102h-93v102zM-12 745h93v-102h-93v102z" />
    <glyph glyph-name="i.sc.loclTRK" horiz-adv-x="271" 
d="M89 745h93v-102h-93v102zM90 570h91v-570h-91v570z" />
    <glyph glyph-name="igrave.sc" horiz-adv-x="271" 
d="M90 570h91v-570h-91v570zM-2 771l66 51l123 -169l-55 -42z" />
    <glyph glyph-name="imacron.sc" horiz-adv-x="271" 
d="M90 570h91v-570h-91v570zM-12 723h296v-70h-296v70z" />
    <glyph glyph-name="iogonek.sc" horiz-adv-x="271" 
d="M107 -222q-46 0 -76.5 27t-30.5 72q0 80 90 123v570h91v-570q-107 -35 -107 -111q0 -53 54 -53q18 0 34 6l22 -52q-30 -12 -77 -12z" />
    <glyph glyph-name="itilde.sc" horiz-adv-x="271" 
d="M90 570h91v-570h-91v570zM212 627q-40 0 -84.5 32t-63.5 32q-31 0 -33 -30q0 -7 1 -10l-65 -7q-2 12 -2 23q0 43 27.5 69t70.5 26q38 0 83.5 -32t64.5 -32q31 0 33 30q0 7 -1 10l65 7q2 -12 2 -23q0 -43 -27.5 -69t-70.5 -26z" />
    <glyph glyph-name="ijacute.sc" horiz-adv-x="604" 
d="M90 570h91v-570h-91v570zM85 653l123 169l66 -51l-134 -160zM366 -12q-40 0 -81 18l23 73q21 -10 46 -10q41 0 55 18t14 77v406h91v-428q0 -68 -28 -106q-36 -48 -120 -48zM414 653l123 169l66 -51l-134 -160z" />
    <glyph glyph-name="jcircumflex.sc" horiz-adv-x="333" 
d="M95 -12q-40 0 -81 18l23 73q21 -10 46 -10q41 0 55 18q14 17 14 77v406h91v-428q0 -68 -28 -106q-36 -48 -120 -48zM50 647l104 157h88l102 -157l-53 -36l-93 129l-93 -129z" />
    <glyph glyph-name="uni0137.sc" horiz-adv-x="552" 
d="M90 570h91v-282l234 282h110l-190 -222l207 -348h-108l-160 276l-93 -109v-167h-91v570zM250 -56h85l-46 -175h-75z" />
    <glyph glyph-name="lacute.sc" horiz-adv-x="439" 
d="M90 570h91v-489h248v-81h-339v570zM85 653l123 169l66 -51l-134 -160z" />
    <glyph glyph-name="lcaron.sc" horiz-adv-x="439" 
d="M90 570h91v-489h248v-81h-339v570zM297 570h89l-58 -219h-76z" />
    <glyph glyph-name="uni013C.sc" horiz-adv-x="439" 
d="M90 570h91v-489h248v-81h-339v570zM229 -56h85l-46 -175h-75z" />
    <glyph glyph-name="ldot.sc" horiz-adv-x="439" 
d="M90 570h91v-489h248v-81h-339v570zM313 359h91v-102h-91v102z" />
    <glyph glyph-name="lslash.sc" horiz-adv-x="439" 
d="M90 216l-75 -49v85l75 48v270h91v-225l124 81v-84l-124 -81v-180h248v-81h-339v216z" />
    <glyph glyph-name="nacute.sc" horiz-adv-x="676" 
d="M90 570h94l311 -423v423h91v-570h-95l-310 423v-423h-91v570zM272 653l123 169l66 -51l-134 -160z" />
    <glyph glyph-name="ncaron.sc" horiz-adv-x="676" 
d="M90 570h94l311 -423v423h91v-570h-95l-310 423v-423h-91v570zM200 771l54 36l93 -129l93 129l54 -36l-104 -157h-88z" />
    <glyph glyph-name="uni0146.sc" horiz-adv-x="676" 
d="M90 570h94l311 -423v423h91v-570h-95l-310 423v-423h-91v570zM290 -56h85l-46 -175h-75z" />
    <glyph glyph-name="ntilde.sc" horiz-adv-x="676" 
d="M90 570h94l311 -423v423h91v-570h-95l-310 423v-423h-91v570zM414 627q-31 0 -58.5 16t-49.5 32t-40 16q-31 0 -33 -30q0 -7 1 -10l-65 -7q-2 12 -2 23q0 43 27.5 69t70.5 26q38 0 83.5 -32t64.5 -32q31 0 33 30q0 7 -1 10l65 7q2 -12 2 -23q0 -43 -27.5 -69t-70.5 -26z
" />
    <glyph glyph-name="oacute.sc" horiz-adv-x="694" 
d="M347 -12q-128 0 -215 86.5t-87 210.5t87 210.5t215 86.5t215 -86.5t87 -210.5t-87 -210.5t-215 -86.5zM347 69q89 0 147.5 61t58.5 155t-58.5 155t-147.5 61t-147.5 -61t-58.5 -155t58.5 -155t147.5 -61zM294 653l123 169l66 -51l-134 -160z" />
    <glyph glyph-name="obreve.sc" horiz-adv-x="694" 
d="M347 -12q-128 0 -215 86.5t-87 210.5t87 210.5t215 86.5t215 -86.5t87 -210.5t-87 -210.5t-215 -86.5zM347 69q89 0 147.5 61t58.5 155t-58.5 155t-147.5 61t-147.5 -61t-58.5 -155t58.5 -155t147.5 -61zM357 613q-60 0 -101.5 41.5t-41.5 101.5v14h66v-14q0 -33 22 -56
t55 -23q32 0 55.5 23t23.5 56v14h64v-14q0 -60 -41.5 -101.5t-101.5 -41.5z" />
    <glyph glyph-name="ocircumflex.sc" horiz-adv-x="694" 
d="M347 -12q-128 0 -215 86.5t-87 210.5t87 210.5t215 86.5t215 -86.5t87 -210.5t-87 -210.5t-215 -86.5zM347 69q89 0 147.5 61t58.5 155t-58.5 155t-147.5 61t-147.5 -61t-58.5 -155t58.5 -155t147.5 -61zM199 647l104 157h88l102 -157l-53 -36l-93 129l-93 -129z" />
    <glyph glyph-name="odieresis.sc" horiz-adv-x="694" 
d="M347 -12q-128 0 -215 86.5t-87 210.5t87 210.5t215 86.5t215 -86.5t87 -210.5t-87 -210.5t-215 -86.5zM347 69q89 0 147.5 61t58.5 155t-58.5 155t-147.5 61t-147.5 -61t-58.5 -155t58.5 -155t147.5 -61zM402 745h93v-102h-93v102zM199 745h93v-102h-93v102z" />
    <glyph glyph-name="ograve.sc" horiz-adv-x="694" 
d="M347 -12q-128 0 -215 86.5t-87 210.5t87 210.5t215 86.5t215 -86.5t87 -210.5t-87 -210.5t-215 -86.5zM347 69q89 0 147.5 61t58.5 155t-58.5 155t-147.5 61t-147.5 -61t-58.5 -155t58.5 -155t147.5 -61zM207 771l66 51l123 -169l-55 -42z" />
    <glyph glyph-name="ohungarumlaut.sc" horiz-adv-x="694" 
d="M347 -12q-128 0 -215 86.5t-87 210.5t87 210.5t215 86.5t215 -86.5t87 -210.5t-87 -210.5t-215 -86.5zM347 69q89 0 147.5 61t58.5 155t-58.5 155t-147.5 61t-147.5 -61t-58.5 -155t58.5 -155t147.5 -61zM227 660l128 178l67 -52l-140 -166zM384 653l125 169l66 -51
l-135 -161z" />
    <glyph glyph-name="omacron.sc" horiz-adv-x="694" 
d="M347 -12q-128 0 -215 86.5t-87 210.5t87 210.5t215 86.5t215 -86.5t87 -210.5t-87 -210.5t-215 -86.5zM347 69q89 0 147.5 61t58.5 155t-58.5 155t-147.5 61t-147.5 -61t-58.5 -155t58.5 -155t147.5 -61zM199 723h296v-70h-296v70z" />
    <glyph glyph-name="oslash.sc" horiz-adv-x="694" 
d="M119 16l29 43q-103 87 -103 226q0 124 87 210.5t215 86.5q71 0 137 -32l24 35l56 -34l-24 -36q51 -41 80 -101t29 -129q0 -124 -87 -210.5t-215 -86.5q-79 0 -144 34l-28 -40zM437 481q-42 20 -90 20q-89 0 -147.5 -61t-58.5 -155q0 -92 57 -154zM347 69q89 0 147.5 61
t58.5 155q0 96 -63 159l-240 -352q44 -23 97 -23z" />
    <glyph glyph-name="otilde.sc" horiz-adv-x="694" 
d="M347 -12q-128 0 -215 86.5t-87 210.5t87 210.5t215 86.5t215 -86.5t87 -210.5t-87 -210.5t-215 -86.5zM347 69q89 0 147.5 61t58.5 155t-58.5 155t-147.5 61t-147.5 -61t-58.5 -155t58.5 -155t147.5 -61zM431 627q-39 0 -84 32t-64 32q-31 0 -33 -30q0 -7 1 -10l-65 -7
q-2 12 -2 23q0 43 27.5 69t70.5 26q38 0 83.5 -32t64.5 -32q31 0 33 30q0 7 -1 10l65 7q2 -12 2 -23q0 -43 -27.5 -69t-70.5 -26z" />
    <glyph glyph-name="racute.sc" horiz-adv-x="557" 
d="M90 570h129q141 0 204 -40t63 -129q0 -61 -36.5 -104.5t-98.5 -57.5l181 -239h-115l-169 227h-67v-227h-91v570zM210 306q94 0 137 20t43 70q0 55 -37 75t-148 20h-24v-185h29zM225 653l123 169l66 -51l-134 -160z" />
    <glyph glyph-name="rcaron.sc" horiz-adv-x="557" 
d="M90 570h129q141 0 204 -40t63 -129q0 -61 -36.5 -104.5t-98.5 -57.5l181 -239h-115l-169 227h-67v-227h-91v570zM210 306q94 0 137 20t43 70q0 55 -37 75t-148 20h-24v-185h29zM121 771l54 36l93 -129l93 129l54 -36l-104 -157h-88z" />
    <glyph glyph-name="uni0157.sc" horiz-adv-x="557" 
d="M90 570h129q141 0 204 -40t63 -129q0 -61 -36.5 -104.5t-98.5 -57.5l181 -239h-115l-169 227h-67v-227h-91v570zM210 306q94 0 137 20t43 70q0 55 -37 75t-148 20h-24v-185h29zM249 -56h85l-46 -175h-75z" />
    <glyph glyph-name="sacute.sc" horiz-adv-x="491" 
d="M238 -12q-116 0 -203 84l58 62q39 -36 71.5 -50.5t73.5 -14.5q45 0 76 23t31 69q0 14 -3.5 25.5t-13.5 21.5l-16.5 16t-25 14l-25.5 11t-31 11l-30 10q-30 11 -51 21.5t-42.5 27.5t-32.5 43.5t-11 60.5q0 77 51 118t128 41q92 0 174 -57l-50 -66q-61 42 -117 42
q-44 0 -69.5 -19.5t-25.5 -54.5q0 -9 2 -17t7.5 -15t10 -12t14.5 -10.5l16 -9t19.5 -8.5l20.5 -7.5t22.5 -7.5t22.5 -7q33 -11 55.5 -22t47 -30t37 -47.5t12.5 -66.5q0 -60 -35 -102.5t-79.5 -59.5t-88.5 -17zM203 653l123 169l66 -51l-134 -160z" />
    <glyph glyph-name="scaron.sc" horiz-adv-x="491" 
d="M238 -12q-116 0 -203 84l58 62q39 -36 71.5 -50.5t73.5 -14.5q45 0 76 23t31 69q0 14 -3.5 25.5t-13.5 21.5l-16.5 16t-25 14l-25.5 11t-31 11l-30 10q-30 11 -51 21.5t-42.5 27.5t-32.5 43.5t-11 60.5q0 77 51 118t128 41q92 0 174 -57l-50 -66q-61 42 -117 42
q-44 0 -69.5 -19.5t-25.5 -54.5q0 -9 2 -17t7.5 -15t10 -12t14.5 -10.5l16 -9t19.5 -8.5l20.5 -7.5t22.5 -7.5t22.5 -7q33 -11 55.5 -22t47 -30t37 -47.5t12.5 -66.5q0 -60 -35 -102.5t-79.5 -59.5t-88.5 -17zM103 771l54 36l93 -129l93 129l54 -36l-104 -157h-88z" />
    <glyph glyph-name="scedilla.sc" horiz-adv-x="491" 
d="M250 -245q-70 0 -103 59l57 28q12 -32 46 -32q19 0 31 13t12 31q0 20 -12.5 33.5t-32.5 13.5q-28 0 -39 -24l-61 32l35 84q-81 13 -148 79l58 62q39 -36 71.5 -50.5t73.5 -14.5q45 0 76 23t31 69q0 14 -3.5 25.5t-13.5 21.5l-16.5 16t-25 14l-25.5 11t-31 11l-30 10
q-30 11 -51 21.5t-42.5 27.5t-32.5 43.5t-11 60.5q0 77 51 118t128 41q92 0 174 -57l-50 -66q-61 42 -117 42q-44 0 -69.5 -19.5t-25.5 -54.5q0 -9 2 -17t7.5 -15t10 -12t14.5 -10.5l16 -9t19.5 -8.5l20.5 -7.5t22.5 -7.5t22.5 -7q33 -11 55.5 -22t47 -30t37 -47.5
t12.5 -66.5q0 -45 -19.5 -81t-50 -56t-63.5 -30.5t-65 -11.5l-20 -53l1 -1q22 16 48 16q35 0 61 -26.5t26 -66.5q0 -41 -31.5 -71.5t-77.5 -30.5z" />
    <glyph glyph-name="scircumflex.sc" horiz-adv-x="491" 
d="M238 -12q-116 0 -203 84l58 62q39 -36 71.5 -50.5t73.5 -14.5q45 0 76 23t31 69q0 14 -3.5 25.5t-13.5 21.5l-16.5 16t-25 14l-25.5 11t-31 11l-30 10q-30 11 -51 21.5t-42.5 27.5t-32.5 43.5t-11 60.5q0 77 51 118t128 41q92 0 174 -57l-50 -66q-61 42 -117 42
q-44 0 -69.5 -19.5t-25.5 -54.5q0 -9 2 -17t7.5 -15t10 -12t14.5 -10.5l16 -9t19.5 -8.5l20.5 -7.5t22.5 -7.5t22.5 -7q33 -11 55.5 -22t47 -30t37 -47.5t12.5 -66.5q0 -60 -35 -102.5t-79.5 -59.5t-88.5 -17zM103 647l104 157h88l102 -157l-53 -36l-93 129l-93 -129z" />
    <glyph glyph-name="uni0219.sc" horiz-adv-x="491" 
d="M238 -12q-116 0 -203 84l58 62q39 -36 71.5 -50.5t73.5 -14.5q45 0 76 23t31 69q0 14 -3.5 25.5t-13.5 21.5l-16.5 16t-25 14l-25.5 11t-31 11l-30 10q-30 11 -51 21.5t-42.5 27.5t-32.5 43.5t-11 60.5q0 77 51 118t128 41q92 0 174 -57l-50 -66q-61 42 -117 42
q-44 0 -69.5 -19.5t-25.5 -54.5q0 -9 2 -17t7.5 -15t10 -12t14.5 -10.5l16 -9t19.5 -8.5l20.5 -7.5t22.5 -7.5t22.5 -7q33 -11 55.5 -22t47 -30t37 -47.5t12.5 -66.5q0 -60 -35 -102.5t-79.5 -59.5t-88.5 -17zM168 -56h85l-46 -175h-75z" />
    <glyph glyph-name="tbar.sc" horiz-adv-x="449" 
d="M179 257h-89v74h89v158h-144v81h379v-81h-144v-158h89v-74h-89v-257h-91v257z" />
    <glyph glyph-name="tcaron.sc" horiz-adv-x="449" 
d="M179 489h-144v81h379v-81h-144v-489h-91v489zM77 771l54 36l93 -129l93 129l54 -36l-104 -157h-88z" />
    <glyph glyph-name="uni0163.sc" horiz-adv-x="451" 
d="M258 -245q-70 0 -103 59l57 28q12 -32 46 -32q19 0 31 13t12 31q0 20 -12.5 33.5t-32.5 13.5q-29 0 -39 -24l-61 32l38 91h-15v489h-144v81h379v-81h-144v-489h-16l-23 -65l1 -1q22 16 48 16q35 0 61 -26.5t26 -66.5q0 -41 -31.5 -71.5t-77.5 -30.5z" />
    <glyph glyph-name="uni021B.sc" horiz-adv-x="449" 
d="M179 489h-144v81h379v-81h-144v-489h-91v489zM181 -56h85l-46 -175h-75z" />
    <glyph glyph-name="uacute.sc" horiz-adv-x="622" 
d="M309 -12q-229 0 -229 279v303h91v-313q0 -94 36.5 -141t103.5 -47t103.5 47t36.5 141v313h91v-303q0 -279 -233 -279zM256 653l123 169l66 -51l-134 -160z" />
    <glyph glyph-name="ubreve.sc" horiz-adv-x="622" 
d="M309 -12q-229 0 -229 279v303h91v-313q0 -94 36.5 -141t103.5 -47t103.5 47t36.5 141v313h91v-303q0 -279 -233 -279zM311 613q-60 0 -101.5 41.5t-41.5 101.5v14h66v-14q0 -33 22 -56t55 -23q32 0 55.5 23t23.5 56v14h64v-14q0 -60 -41.5 -101.5t-101.5 -41.5z" />
    <glyph glyph-name="ucircumflex.sc" horiz-adv-x="622" 
d="M309 -12q-229 0 -229 279v303h91v-313q0 -94 36.5 -141t103.5 -47t103.5 47t36.5 141v313h91v-303q0 -279 -233 -279zM169 647l104 157h88l102 -157l-53 -36l-93 129l-93 -129z" />
    <glyph glyph-name="udieresis.sc" horiz-adv-x="622" 
d="M309 -12q-229 0 -229 279v303h91v-313q0 -94 36.5 -141t103.5 -47t103.5 47t36.5 141v313h91v-303q0 -279 -233 -279zM366 745h93v-102h-93v102zM163 745h93v-102h-93v102z" />
    <glyph glyph-name="ugrave.sc" horiz-adv-x="622" 
d="M309 -12q-229 0 -229 279v303h91v-313q0 -94 36.5 -141t103.5 -47t103.5 47t36.5 141v313h91v-303q0 -279 -233 -279zM186 771l66 51l123 -169l-55 -42z" />
    <glyph glyph-name="uhungarumlaut.sc" horiz-adv-x="622" 
d="M309 -12q-229 0 -229 279v303h91v-313q0 -94 36.5 -141t103.5 -47t103.5 47t36.5 141v313h91v-303q0 -279 -233 -279zM178 660l128 178l67 -52l-140 -166zM335 653l125 169l66 -51l-135 -161z" />
    <glyph glyph-name="umacron.sc" horiz-adv-x="622" 
d="M309 -12q-229 0 -229 279v303h91v-313q0 -94 36.5 -141t103.5 -47t103.5 47t36.5 141v313h91v-303q0 -279 -233 -279zM163 723h296v-70h-296v70z" />
    <glyph glyph-name="uogonek.sc" horiz-adv-x="622" 
d="M317 -222q-46 0 -76.5 27t-30.5 72q0 34 19 63.5t50 48.5q-199 18 -199 278v303h91v-313q0 -94 36.5 -141t103.5 -47t103.5 47t36.5 141v313h91v-303q0 -226 -165 -273q-40 -12 -66.5 -39.5t-26.5 -61.5q0 -57 54 -57q18 0 34 6l22 -52q-30 -12 -77 -12z" />
    <glyph glyph-name="uring.sc" horiz-adv-x="622" 
d="M309 -12q-229 0 -229 279v303h91v-313q0 -94 36.5 -141t103.5 -47t103.5 47t36.5 141v313h91v-303q0 -279 -233 -279zM311 625q-38 0 -65.5 27.5t-27.5 65.5t27.5 65.5t65.5 27.5t65.5 -27.5t27.5 -65.5t-27.5 -65.5t-65.5 -27.5zM311 674q18 0 31 13t13 31t-13 31
t-31 13t-31 -13t-13 -31t13 -31t31 -13z" />
    <glyph glyph-name="utilde.sc" horiz-adv-x="622" 
d="M309 -12q-229 0 -229 279v303h91v-313q0 -94 36.5 -141t103.5 -47t103.5 47t36.5 141v313h91v-303q0 -279 -233 -279zM393 627q-39 0 -84 32t-64 32q-31 0 -33 -30q0 -7 1 -10l-65 -7q-2 12 -2 23q0 43 27.5 69t70.5 26q38 0 83.5 -32t64.5 -32q31 0 33 30q0 7 -1 10
l65 7q2 -12 2 -23q0 -43 -27.5 -69t-70.5 -26z" />
    <glyph glyph-name="wacute.sc" horiz-adv-x="797" 
d="M15 570h100l115 -430h1l120 430h100l114 -430h2l120 430h95l-163 -570h-103l-115 434h-2l-124 -434h-103zM351 653l123 169l66 -51l-134 -160z" />
    <glyph glyph-name="wcircumflex.sc" horiz-adv-x="797" 
d="M15 570h100l115 -430h1l120 430h100l114 -430h2l120 430h95l-163 -570h-103l-115 434h-2l-124 -434h-103zM253 667l104 157h88l102 -157l-53 -36l-93 129l-93 -129z" />
    <glyph glyph-name="wdieresis.sc" horiz-adv-x="797" 
d="M15 570h100l115 -430h1l120 430h100l114 -430h2l120 430h95l-163 -570h-103l-115 434h-2l-124 -434h-103zM457 745h93v-102h-93v102zM254 745h93v-102h-93v102z" />
    <glyph glyph-name="wgrave.sc" horiz-adv-x="797" 
d="M15 570h100l115 -430h1l120 430h100l114 -430h2l120 430h95l-163 -570h-103l-115 434h-2l-124 -434h-103zM264 771l66 51l123 -169l-55 -42z" />
    <glyph glyph-name="yacute.sc" horiz-adv-x="484" 
d="M197 233l-192 337h112l127 -240h2l127 240h106l-191 -334v-236h-91v233zM183 653l123 169l66 -51l-134 -160z" />
    <glyph glyph-name="ycircumflex.sc" horiz-adv-x="484" 
d="M197 233l-192 337h112l127 -240h2l127 240h106l-191 -334v-236h-91v233zM100 647l104 157h88l102 -157l-53 -36l-93 129l-93 -129z" />
    <glyph glyph-name="ydieresis.sc" horiz-adv-x="484" 
d="M197 233l-192 337h112l127 -240h2l127 240h106l-191 -334v-236h-91v233zM299 745h93v-102h-93v102zM96 745h93v-102h-93v102z" />
    <glyph glyph-name="ygrave.sc" horiz-adv-x="484" 
d="M197 233l-192 337h112l127 -240h2l127 240h106l-191 -334v-236h-91v233zM141 771l66 51l123 -169l-55 -42z" />
    <glyph glyph-name="zacute.sc" horiz-adv-x="477" 
d="M45 50l258 439h-255v81h382v-46l-261 -443h283v-81h-407v50zM183 653l123 169l66 -51l-134 -160z" />
    <glyph glyph-name="zcaron.sc" horiz-adv-x="477" 
d="M45 50l258 439h-255v81h382v-46l-261 -443h283v-81h-407v50zM99 771l54 36l93 -129l93 129l54 -36l-104 -157h-88z" />
    <glyph glyph-name="zdotaccent.sc" horiz-adv-x="477" 
d="M45 50l258 439h-255v81h382v-46l-261 -443h283v-81h-407v50zM187 745h91v-102h-91v102z" />
    <glyph glyph-name="asterisk.sc" horiz-adv-x="470" 
d="M109 443l69 80l-98 24l25 80l96 -42l-8 103h85l-7 -103l95 42l24 -79l-98 -25l71 -80l-70 -50l-58 92l-57 -92z" />
    <glyph glyph-name="ampersand.sc" horiz-adv-x="571" 
d="M435 69q-66 -81 -178 -81q-77 0 -135 54t-58 125q0 48 26 89t68 66q-52 54 -52 116q0 61 50.5 102t114.5 41q54 0 96.5 -29.5t55.5 -79.5l-80 -23q-15 56 -75 56q-33 0 -55 -19.5t-22 -51.5q0 -29 20 -53.5t67 -67.5l-49 -60l-16 16q-63 -34 -63 -101q0 -43 34 -73.5
t82 -30.5q73 0 112 55l-65 60l50 58l223 -199l-52 -58z" />
    <glyph glyph-name="at.sc" horiz-adv-x="681" 
d="M336 -52q-117 0 -199 82.5t-82 199.5t82 199.5t199 82.5q129 0 209.5 -75t80.5 -192q0 -73 -33 -123.5t-97 -50.5q-60 0 -82 63q-32 -51 -90 -51q-61 0 -99 41t-38 102q0 58 37.5 101t101.5 43q45 0 76 -36v27h71v-128q0 -41 4 -63.5t10 -28.5t15 -6q25 0 37 32t12 79
q0 90 -58.5 143t-155.5 53q-87 0 -146.5 -61t-59.5 -150q0 -90 59.5 -151.5t146.5 -61.5q48 0 105 27l23 -66q-62 -31 -129 -31zM331 144q49 0 71 52v74q-24 38 -70 38q-37 0 -56 -24.5t-19 -58.5t20.5 -57.5t53.5 -23.5z" />
    <glyph glyph-name="parenleft.sc" horiz-adv-x="312" 
d="M274 -88q-224 135 -224 393q0 252 223 392l29 -60q-168 -115 -168 -332q0 -222 167 -333z" />
    <glyph glyph-name="parenright.sc" horiz-adv-x="312" 
d="M11 -27q167 109 167 332q0 217 -168 332l35 56q217 -136 217 -388q0 -259 -224 -393z" />
    <glyph glyph-name="bracketleft.sc" horiz-adv-x="283" 
d="M90 665h183v-70h-104v-610h104v-69h-183v749z" />
    <glyph glyph-name="bracketright.sc" horiz-adv-x="283" 
d="M10 -15h104v610h-104v70h183v-749h-183v69z" />
    <glyph glyph-name="braceleft.sc" horiz-adv-x="265" 
d="M226 -95q-68 0 -110 46.5t-42 119.5v87q0 41 -16 70t-48 35v73q64 14 64 114v60q0 73 42 119.5t110 46.5q13 0 29 -2v-70h-26q-77 0 -77 -115v-60q0 -80 -52 -129q52 -49 52 -129v-79q0 -115 77 -115h26v-70q-16 -2 -29 -2z" />
    <glyph glyph-name="braceright.sc" horiz-adv-x="265" 
d="M39 -95q-13 0 -29 2v70h26q77 0 77 115v79q0 80 52 129q-52 49 -52 129v60q0 115 -77 115h-26v70q16 2 29 2q68 0 110 -46.5t42 -119.5v-60q0 -100 64 -114v-73q-32 -6 -48 -35t-16 -70v-87q0 -73 -42 -119.5t-110 -46.5z" />
    <glyph glyph-name="slash.sc" horiz-adv-x="352" 
d="M15 -25l251 675l71 -28l-250 -675z" />
    <glyph glyph-name="backslash.sc" horiz-adv-x="351" 
d="M15 622l71 28l250 -675l-71 -28z" />
    <glyph glyph-name="hyphen.sc" horiz-adv-x="460" 
d="M100 295h260v-82h-260v82z" />
    <glyph glyph-name="endash.sc" horiz-adv-x="600" 
d="M50 325h500v-83h-500v83z" />
    <glyph glyph-name="emdash.sc" horiz-adv-x="900" 
d="M50 325h800v-83h-800v83z" />
    <glyph glyph-name="copyright.sc" horiz-adv-x="679" 
d="M339 -12q-118 0 -201 83t-83 200t83 200t201 83t201.5 -83t83.5 -200t-83.5 -200t-201.5 -83zM352 117q-72 0 -117.5 43.5t-45.5 111.5q0 65 47.5 109.5t115.5 44.5q43 0 81 -23l-32 -55q-23 15 -51 15q-38 0 -62.5 -25.5t-24.5 -65.5q0 -41 24 -66.5t63 -25.5
q27 0 54 19l35 -53q-42 -29 -87 -29zM339 57q87 0 149 63t62 151q0 89 -61.5 152t-149.5 63q-87 0 -148.5 -63t-61.5 -152q0 -88 61.5 -151t148.5 -63z" />
    <glyph glyph-name="uni2116.sc" horiz-adv-x="1070" 
d="M858 226q-78 0 -130.5 51.5t-52.5 126.5t52.5 126.5t130.5 51.5t130 -51.5t52 -126.5t-52 -126.5t-130 -51.5zM858 292q45 0 75 31.5t30 80.5q0 48 -30 79.5t-75 31.5q-46 0 -75.5 -31t-29.5 -80t29.5 -80.5t75.5 -31.5zM90 570h94l311 -423v423h91v-570h-95l-310 423
v-423h-91v570z" />
    <glyph glyph-name="ordfeminine.sc" horiz-adv-x="454" 
d="M191 672h72l149 -386h-82l-30 79h-151l-29 -79h-78zM278 426l-54 145l-53 -145h107z" />
    <glyph glyph-name="ordmasculine.sc" horiz-adv-x="460" 
d="M230 277q-88 0 -147.5 58.5t-59.5 143.5t59.5 143.5t147.5 58.5t147.5 -58.5t59.5 -143.5t-59.5 -143.5t-147.5 -58.5zM230 346q54 0 89 37.5t35 95.5t-35 95t-89 37t-88.5 -37t-34.5 -95t34.5 -95.5t88.5 -37.5z" />
    <glyph glyph-name="zero.osf" horiz-adv-x="610" 
d="M305 -12q-108 0 -186.5 77t-78.5 185t78.5 185t186.5 77t186.5 -77t78.5 -185t-78.5 -185t-186.5 -77zM305 72q72 0 120.5 51t48.5 127t-48.5 127t-120.5 51t-120.5 -51t-48.5 -127t48.5 -127t120.5 -51z" />
    <glyph glyph-name="one.osf" horiz-adv-x="344" 
d="M155 398q-13 -7 -100 -44v88q82 41 133 70h61v-512h-94v398z" />
    <glyph glyph-name="two.osf" horiz-adv-x="509" 
d="M60 96l56.5 38.5l58 39.5l44 32t42.5 34q66 58 66 111q0 38 -24.5 57.5t-67.5 19.5q-39 0 -64.5 -24t-29.5 -66l-91 22q11 68 62 110t124 42q81 0 134 -44t53 -116q0 -90 -112 -179q-43 -35 -135 -89h293v-84h-409v96z" />
    <glyph glyph-name="three.osf" horiz-adv-x="519" 
d="M246 -176q-66 0 -124 28.5t-87 82.5l74 41q40 -68 130 -68q56 0 94.5 29t38.5 84q0 50 -41 82t-100 32q-46 0 -77 -7v96q63 2 95 10q40 11 64.5 37.5t24.5 61.5q0 41 -31 68t-80 27q-38 0 -67.5 -19t-41.5 -53l-80 33q20 55 71 89t120 34q92 0 148.5 -48.5t56.5 -129.5
q0 -45 -22.5 -83t-60.5 -58q52 -18 84.5 -62.5t32.5 -101.5q0 -94 -64 -149.5t-158 -55.5z" />
    <glyph glyph-name="four.osf" horiz-adv-x="548" 
d="M347 0h-327v101l324 399h95v-416h94v-84h-94v-160h-92v160zM347 84v281q-118 -156 -227 -281h227z" />
    <glyph glyph-name="five.osf" horiz-adv-x="499" 
d="M248 -176q-63 0 -123.5 30.5t-87.5 80.5l75 42q38 -69 124 -69q63 0 100 38.5t37 95.5q0 55 -38 89t-96 34q-62 0 -103 -42l-68 37q11 106 23 340h342v-84h-253q-7 -142 -12 -186q41 19 98 19q83 0 143 -59t60 -145q0 -95 -62.5 -158t-158.5 -63z" />
    <glyph glyph-name="six.osf" horiz-adv-x="534" 
d="M283 -12q-110 0 -176.5 78t-66.5 187q0 152 92.5 271t234.5 177l38 -84q-101 -46 -166 -106.5t-90 -151.5q61 61 150 61q86 0 140.5 -62t54.5 -152q0 -93 -60 -155.5t-151 -62.5zM275 72q56 0 89.5 39t33.5 97q0 57 -32 92.5t-87 35.5q-45 0 -84 -22.5t-60 -61.5
q0 -76 34.5 -128t105.5 -52z" />
    <glyph glyph-name="seven.osf" horiz-adv-x="452" 
d="M69 -147l87 197l108 230t64 134h-318v86h422v-69q-145 -303 -276 -617z" />
    <glyph glyph-name="eight.osf" horiz-adv-x="562" 
d="M281 -12q-99 0 -162 56t-63 139q0 111 103 167q-83 49 -83 144q0 77 57 129.5t148 52.5t148 -52.5t57 -129.5q0 -95 -83 -144q103 -56 103 -167q0 -83 -63 -139t-162 -56zM281 72q54 0 91.5 32.5t37.5 82.5q0 48 -38 82t-91 34t-91 -34t-38 -82q0 -50 37.5 -82.5
t91.5 -32.5zM281 387q46 0 78.5 30t32.5 73q0 44 -32 73t-79 29t-79 -29t-32 -73q0 -43 32.5 -73t78.5 -30z" />
    <glyph glyph-name="nine.osf" horiz-adv-x="534" 
d="M129 -117q101 46 166 106.5t90 151.5q-61 -61 -150 -61q-86 0 -140.5 62t-54.5 152q0 93 60 155.5t151 62.5q110 0 176.5 -78t66.5 -187q0 -152 -92.5 -271t-234.5 -177zM255 164q45 0 84 22.5t60 61.5q0 76 -34.5 128t-105.5 52q-56 0 -89.5 -39t-33.5 -97
q0 -57 32 -92.5t87 -35.5z" />
    <glyph glyph-name="dollar.osf" 
d="M246 -12q-116 4 -216 100l65 61q78 -80 171 -80q58 0 100.5 29t42.5 87q0 22 -9.5 40.5t-20.5 29.5t-36 23.5t-39 18t-47 17.5q-35 13 -54.5 21t-48 24.5t-44 34t-27 45.5t-11.5 63q0 72 50 119.5t129 53.5v95h64v-97q85 -9 164 -65l-57 -67q-59 53 -144 53
q-46 0 -81 -23.5t-35 -68.5q0 -17 8.5 -32t18.5 -24.5t32.5 -20.5t36.5 -16.5t44 -15.5q38 -13 58 -21t52 -26t48.5 -36.5t29.5 -48t13 -66.5q0 -86 -54 -139t-139 -65v-97h-64v94z" />
    <glyph glyph-name="Euro.osf" horiz-adv-x="650" 
d="M423 -12q-121 0 -206.5 61.5t-117.5 168.5h-89v74h75q-2 26 -2 40t2 42h-75v74h90q32 105 117.5 166.5t205.5 61.5q105 0 188 -51l-43 -74q-61 39 -145 39q-81 0 -139 -37t-85 -105h272v-74h-291q-2 -28 -2 -42q0 -27 2 -40h291v-74h-273q27 -68 84.5 -106t140.5 -38
q89 0 156 46l50 -70q-91 -62 -206 -62z" />
    <glyph glyph-name="cent.osf" 
d="M291 57q-94 14 -154.5 84t-60.5 175q0 97 60.5 169t154.5 89v90h64v-87q67 -4 123 -42l-43 -75q-45 34 -102 34q-68 0 -116 -52t-48 -126q0 -79 48.5 -128.5t116.5 -49.5q59 0 106 35l45 -70q-53 -42 -130 -48v-87h-64v89z" />
    <glyph glyph-name="sterling.osf" 
d="M80 86h57v230h-57v84h57v54q0 97 57 159.5t145 62.5q87 0 147 -37l-39 -78q-35 31 -104 31q-115 0 -115 -165v-27h135v-84h-135v-230h258v-86h-406v86z" />
    <glyph glyph-name="yen.osf" 
d="M227 118h-172v74h170v64h-170v74h149l-187 334h108l152 -279h2l147 279h106l-190 -334h148v-74h-170v-64h170v-74h-172v-118h-91v118z" />
    <glyph glyph-name="florin.osf" 
d="M75 -212q-36 0 -81 12l20 79q26 -7 50 -7q35 0 48 23t19 77l39 344h-80v84h89l13 111q9 79 51.5 122t111.5 43q61 0 128 -32l-36 -76q-34 24 -83 24q-42 0 -59 -24t-23 -76l-11 -92h122v-84h-131l-41 -363q-9 -79 -48 -122t-98 -43z" />
    <glyph glyph-name="uni20BA.osf" horiz-adv-x="563" 
d="M22 263v68l90 30v71l-90 -30v68l90 30v166h88v-147l158 52v-68l-158 -52v-71l159 52v-68l-159 -52v-248h5q135 0 190 50t55 182h89v-4q0 -159 -80 -234t-244 -75q-53 0 -103 15v296z" />
    <glyph glyph-name="uni2116.osf" horiz-adv-x="1129" 
d="M95 700h84l385 -522v522h96v-700h-85l-384 522v-522h-96v700zM924 356q-75 0 -125 51.5t-50 126.5t50 126.5t125 51.5t125 -51.5t50 -126.5t-50 -126.5t-125 -51.5zM924 421q44 0 72.5 32.5t28.5 80.5t-28.5 80.5t-72.5 32.5t-72.5 -32.5t-28.5 -80.5t28.5 -80.5
t72.5 -32.5z" />
    <glyph glyph-name="percent.osf" horiz-adv-x="850" 
d="M151 28l497 684l55 -40l-497 -684zM218 387q-67 0 -113.5 46.5t-46.5 112.5q0 67 46.5 113.5t113.5 46.5t113 -46.5t46 -113.5q0 -66 -46 -112.5t-113 -46.5zM219 458q35 0 59 25.5t24 63.5q0 37 -24 62.5t-59 25.5q-37 0 -61.5 -25t-24.5 -63t24.5 -63.5t61.5 -25.5z
M633 -6q-67 0 -113.5 46.5t-46.5 112.5q0 67 46.5 113.5t113.5 46.5t113 -46.5t46 -113.5q0 -66 -46 -112.5t-113 -46.5zM634 65q35 0 59 25.5t24 63.5q0 37 -24 62.5t-59 25.5q-37 0 -61.5 -25t-24.5 -63t24.5 -63.5t61.5 -25.5z" />
    <glyph glyph-name="perthousand.osf" horiz-adv-x="1236" 
d="M151 28l497 684l55 -40l-497 -684zM218 387q-67 0 -113.5 46.5t-46.5 112.5q0 67 46.5 113.5t113.5 46.5t113 -46.5t46 -113.5q0 -66 -46 -112.5t-113 -46.5zM219 458q35 0 59 25.5t24 63.5q0 37 -24 62.5t-59 25.5q-37 0 -61.5 -25t-24.5 -63t24.5 -63.5t61.5 -25.5z
M633 -6q-67 0 -113.5 46.5t-46.5 112.5q0 67 46.5 113.5t113.5 46.5t113 -46.5t46 -113.5q0 -66 -46 -112.5t-113 -46.5zM634 65q35 0 59 25.5t24 63.5q0 37 -24 62.5t-59 25.5q-37 0 -61.5 -25t-24.5 -63t24.5 -63.5t61.5 -25.5zM1019 -6q-67 0 -113.5 46.5t-46.5 112.5
q0 67 46.5 113.5t113.5 46.5t113 -46.5t46 -113.5q0 -66 -46 -112.5t-113 -46.5zM1020 65q35 0 59 25.5t24 63.5q0 37 -24 62.5t-59 25.5q-37 0 -61.5 -25t-24.5 -63t24.5 -63.5t61.5 -25.5z" />
    <glyph glyph-name="zeroslash.tf" 
d="M275 -12q-112 0 -173.5 91.5t-61.5 252.5t61.5 252.5t173.5 91.5t173.5 -91.5t61.5 -252.5t-61.5 -252.5t-173.5 -91.5zM275 74q126 0 138 218h-276q5 -108 40.5 -163t97.5 -55zM413 372q-12 218 -138 218q-62 0 -97.5 -55t-40.5 -163h276z" />
    <glyph glyph-name="zero.tf" 
d="M275 -12q-112 0 -173.5 91.5t-61.5 252.5t61.5 252.5t173.5 91.5t173.5 -91.5t61.5 -252.5t-61.5 -252.5t-173.5 -91.5zM275 74q67 0 103 65t36 193t-36 193t-103 65t-103 -65t-36 -193t36 -193t103 -65z" />
    <glyph glyph-name="one.tf" 
d="M113 84h154v474q-81 -41 -174 -79v91q96 43 197 94h71v-580h140v-84h-388v84z" />
    <glyph glyph-name="two.tf" 
d="M71 85q166 174 234 274q61 88 61 141q0 42 -33 67t-76 25q-42 0 -73 -29t-32 -74l-93 19q6 73 67 120.5t135 47.5q81 0 141.5 -49.5t60.5 -126.5q0 -82 -71 -183q-74 -104 -195 -233h296v-84h-422v85z" />
    <glyph glyph-name="three.tf" 
d="M261 -12q-66 0 -124 28.5t-87 82.5l74 41q40 -68 130 -68q56 0 94.5 29t38.5 84q0 50 -41 82t-100 32q-46 0 -77 -7v96q63 2 95 10q40 11 64.5 37.5t24.5 61.5q0 41 -31 68t-80 27q-38 0 -67.5 -19t-41.5 -53l-80 33q20 55 71 89t120 34q92 0 148.5 -48.5t56.5 -129.5
q0 -45 -22.5 -83t-60.5 -58q52 -18 84.5 -62.5t32.5 -101.5q0 -94 -64 -149.5t-158 -55.5z" />
    <glyph glyph-name="four.tf" 
d="M326 167h-300v101l295 396h97v-413h99v-84h-99v-167h-92v167zM326 251v281l-200 -281h200z" />
    <glyph glyph-name="five.tf" 
d="M269 -12q-63 0 -123.5 30.5t-87.5 80.5l75 42q38 -69 124 -69q63 0 100 38.5t37 95.5q0 55 -38 89t-96 34q-62 0 -103 -42l-68 37q11 106 23 340h342v-84h-253q-7 -142 -12 -186q41 19 98 19q83 0 143 -59t60 -145q0 -95 -62.5 -158t-158.5 -63z" />
    <glyph glyph-name="six.tf" 
d="M291 -12q-110 0 -176.5 78t-66.5 187q0 152 92.5 271t234.5 177l38 -84q-101 -46 -166 -106.5t-90 -151.5q61 61 150 61q86 0 140.5 -62t54.5 -152q0 -93 -60 -155.5t-151 -62.5zM283 72q56 0 89.5 39t33.5 97q0 57 -32 92.5t-87 35.5q-45 0 -84 -22.5t-60 -61.5
q0 -76 34.5 -128t105.5 -52z" />
    <glyph glyph-name="seven.tf" 
d="M114 17l87 197l108 230t64 134h-318v86h422v-69q-145 -303 -276 -617z" />
    <glyph glyph-name="eight.tf" 
d="M275 -12q-99 0 -162 56t-63 139q0 111 103 167q-83 49 -83 144q0 77 57 129.5t148 52.5t148 -52.5t57 -129.5q0 -95 -83 -144q103 -56 103 -167q0 -83 -63 -139t-162 -56zM275 72q54 0 91.5 32.5t37.5 82.5q0 48 -38 82t-91 34t-91 -34t-38 -82q0 -50 37.5 -82.5
t91.5 -32.5zM275 387q46 0 78.5 30t32.5 73q0 44 -32 73t-79 29t-79 -29t-32 -73q0 -43 32.5 -73t78.5 -30z" />
    <glyph glyph-name="nine.tf" 
d="M137 47q101 46 166 106.5t90 151.5q-61 -61 -150 -61q-86 0 -140.5 62t-54.5 152q0 93 60 155.5t151 62.5q110 0 176.5 -78t66.5 -187q0 -152 -92.5 -271t-234.5 -177zM263 328q45 0 84 22.5t60 61.5q0 76 -34.5 128t-105.5 52q-56 0 -89.5 -39t-33.5 -97q0 -57 32 -92.5
t87 -35.5z" />
    <glyph glyph-name="dollar.tf" 
d="M246 -12q-116 4 -216 100l65 61q78 -80 171 -80q58 0 100.5 29t42.5 87q0 22 -9.5 40.5t-20.5 29.5t-36 23.5t-39 18t-47 17.5q-35 13 -54.5 21t-48 24.5t-44 34t-27 45.5t-11.5 63q0 72 50 119.5t129 53.5v95h64v-97q85 -9 164 -65l-57 -67q-59 53 -144 53
q-46 0 -81 -23.5t-35 -68.5q0 -17 8.5 -32t18.5 -24.5t32.5 -20.5t36.5 -16.5t44 -15.5q38 -13 58 -21t52 -26t48.5 -36.5t29.5 -48t13 -66.5q0 -86 -54 -139t-139 -65v-97h-64v94z" />
    <glyph glyph-name="Euro.tf" 
d="M325 -12q-90 0 -148 60t-78 170h-79v74h71q-1 13 -1 40q0 28 1 42h-71v74h80q21 109 78.5 168.5t146.5 59.5q139 0 199 -138l-87 -31q-36 83 -112 83q-101 0 -129 -142h179v-74h-188q-1 -14 -1 -42t1 -40h188v-74h-180q28 -144 130 -144q89 0 122 113l90 -25
q-55 -174 -212 -174z" />
    <glyph glyph-name="cent.tf" 
d="M291 57q-94 14 -154.5 84t-60.5 175q0 97 60.5 169t154.5 89v90h64v-87q67 -4 123 -42l-43 -75q-45 34 -102 34q-68 0 -116 -52t-48 -126q0 -79 48.5 -128.5t116.5 -49.5q59 0 106 35l45 -70q-53 -42 -130 -48v-87h-64v89z" />
    <glyph glyph-name="sterling.tf" 
d="M80 86h57v230h-57v84h57v54q0 97 57 159.5t145 62.5q87 0 147 -37l-39 -78q-35 31 -104 31q-115 0 -115 -165v-27h135v-84h-135v-230h258v-86h-406v86z" />
    <glyph glyph-name="yen.tf" 
d="M227 118h-172v74h170v64h-170v74h149l-187 334h108l152 -279h2l147 279h106l-190 -334h148v-74h-170v-64h170v-74h-172v-118h-91v118z" />
    <glyph glyph-name="florin.tf" 
d="M75 -212q-36 0 -81 12l20 79q26 -7 50 -7q35 0 48 23t19 77l39 344h-80v84h89l13 111q9 79 51.5 122t111.5 43q61 0 128 -32l-36 -76q-34 24 -83 24q-42 0 -59 -24t-23 -76l-11 -92h122v-84h-131l-41 -363q-9 -79 -48 -122t-98 -43z" />
    <glyph glyph-name="uni20BA.tf" 
d="M22 263v68l89 29v71l-89 -29v68l89 29v167h83v-149l161 54v-68l-161 -54v-72l162 54v-67l-162 -54v-246h5q133 0 187 49.5t54 178.5h86v-4q0 -157 -78.5 -231t-239.5 -74q-50 0 -97 15v295z" />
    <glyph glyph-name="uni2116.tf" horiz-adv-x="1129" 
d="M95 700h84l385 -522v522h96v-700h-85l-384 522v-522h-96v700zM924 356q-75 0 -125 51.5t-50 126.5t50 126.5t125 51.5t125 -51.5t50 -126.5t-50 -126.5t-125 -51.5zM924 421q44 0 72.5 32.5t28.5 80.5t-28.5 80.5t-72.5 32.5t-72.5 -32.5t-28.5 -80.5t28.5 -80.5
t72.5 -32.5z" />
    <glyph glyph-name="percent.tf" horiz-adv-x="850" 
d="M151 28l497 684l55 -40l-497 -684zM218 387q-67 0 -113.5 46.5t-46.5 112.5q0 67 46.5 113.5t113.5 46.5t113 -46.5t46 -113.5q0 -66 -46 -112.5t-113 -46.5zM219 458q35 0 59 25.5t24 63.5q0 37 -24 62.5t-59 25.5q-37 0 -61.5 -25t-24.5 -63t24.5 -63.5t61.5 -25.5z
M633 -6q-67 0 -113.5 46.5t-46.5 112.5q0 67 46.5 113.5t113.5 46.5t113 -46.5t46 -113.5q0 -66 -46 -112.5t-113 -46.5zM634 65q35 0 59 25.5t24 63.5q0 37 -24 62.5t-59 25.5q-37 0 -61.5 -25t-24.5 -63t24.5 -63.5t61.5 -25.5z" />
    <glyph glyph-name="perthousand.tf" horiz-adv-x="1236" 
d="M151 28l497 684l55 -40l-497 -684zM218 387q-67 0 -113.5 46.5t-46.5 112.5q0 67 46.5 113.5t113.5 46.5t113 -46.5t46 -113.5q0 -66 -46 -112.5t-113 -46.5zM219 458q35 0 59 25.5t24 63.5q0 37 -24 62.5t-59 25.5q-37 0 -61.5 -25t-24.5 -63t24.5 -63.5t61.5 -25.5z
M633 -6q-67 0 -113.5 46.5t-46.5 112.5q0 67 46.5 113.5t113.5 46.5t113 -46.5t46 -113.5q0 -66 -46 -112.5t-113 -46.5zM634 65q35 0 59 25.5t24 63.5q0 37 -24 62.5t-59 25.5q-37 0 -61.5 -25t-24.5 -63t24.5 -63.5t61.5 -25.5zM1019 -6q-67 0 -113.5 46.5t-46.5 112.5
q0 67 46.5 113.5t113.5 46.5t113 -46.5t46 -113.5q0 -66 -46 -112.5t-113 -46.5zM1020 65q35 0 59 25.5t24 63.5q0 37 -24 62.5t-59 25.5q-37 0 -61.5 -25t-24.5 -63t24.5 -63.5t61.5 -25.5z" />
    <glyph glyph-name="zeroslash.tosf" 
d="M275 -12q-106 0 -173 75.5t-67 186.5t67 186.5t173 75.5t173 -75.5t67 -186.5t-67 -186.5t-173 -75.5zM275 72q61 0 97 35.5t44 102.5h-283q8 -67 44 -102.5t98 -35.5zM416 290q-8 66 -44 102t-97 36t-97.5 -36t-44.5 -102h283z" />
    <glyph glyph-name="zero.tosf" 
d="M275 -12q-106 0 -173 75.5t-67 186.5t67 186.5t173 75.5t173 -75.5t67 -186.5t-67 -186.5t-173 -75.5zM275 72q70 0 107 46.5t37 131.5t-37 131.5t-107 46.5t-107 -46.5t-37 -131.5t37 -131.5t107 -46.5z" />
    <glyph glyph-name="one.tosf" 
d="M113 84h154v322q-81 -41 -174 -79v91q96 43 197 94h71v-428h140v-84h-388v84z" />
    <glyph glyph-name="two.tosf" 
d="M83 97q166 114 200 144q67 59 67 110q0 38 -24.5 57.5t-67.5 19.5q-39 0 -64.5 -24t-29.5 -66l-91 22q11 68 62 110t124 42q82 0 135 -44t53 -116q0 -89 -94 -167q-48 -40 -144 -101h283v-84h-409v97z" />
    <glyph glyph-name="three.tosf" 
d="M261 -176q-66 0 -124 28.5t-87 82.5l74 41q40 -68 130 -68q56 0 94.5 29t38.5 84q0 50 -41 82t-100 32q-46 0 -77 -7v96q63 2 95 10q40 11 64.5 37.5t24.5 61.5q0 41 -31 68t-80 27q-38 0 -67.5 -19t-41.5 -53l-80 33q20 55 71 89t120 34q92 0 148.5 -48.5t56.5 -129.5
q0 -45 -22.5 -83t-60.5 -58q52 -18 84.5 -62.5t32.5 -101.5q0 -94 -64 -149.5t-158 -55.5z" />
    <glyph glyph-name="four.tosf" 
d="M344 0h-327v101l324 399h95v-416h94v-84h-94v-160h-92v160zM344 84v281q-118 -156 -227 -281h227z" />
    <glyph glyph-name="five.tosf" 
d="M269 -176q-63 0 -123.5 30.5t-87.5 80.5l75 42q38 -69 124 -69q63 0 100 38.5t37 95.5q0 55 -38 89t-96 34q-62 0 -103 -42l-68 37q11 106 23 340h342v-84h-253q-7 -142 -12 -186q41 19 98 19q83 0 143 -59t60 -145q0 -95 -62.5 -158t-158.5 -63z" />
    <glyph glyph-name="six.tosf" 
d="M291 -12q-110 0 -176.5 78t-66.5 187q0 152 92.5 271t234.5 177l38 -84q-101 -46 -166 -106.5t-90 -151.5q61 61 150 61q86 0 140.5 -62t54.5 -152q0 -93 -60 -155.5t-151 -62.5zM283 72q56 0 89.5 39t33.5 97q0 57 -32 92.5t-87 35.5q-45 0 -84 -22.5t-60 -61.5
q0 -76 34.5 -128t105.5 -52z" />
    <glyph glyph-name="seven.tosf" 
d="M114 -147l87 197l108 230t64 134h-318v86h422v-69q-145 -303 -276 -617z" />
    <glyph glyph-name="eight.tosf" 
d="M275 -12q-99 0 -162 56t-63 139q0 111 103 167q-83 49 -83 144q0 77 57 129.5t148 52.5t148 -52.5t57 -129.5q0 -95 -83 -144q103 -56 103 -167q0 -83 -63 -139t-162 -56zM275 72q54 0 91.5 32.5t37.5 82.5q0 48 -38 82t-91 34t-91 -34t-38 -82q0 -50 37.5 -82.5
t91.5 -32.5zM275 387q46 0 78.5 30t32.5 73q0 44 -32 73t-79 29t-79 -29t-32 -73q0 -43 32.5 -73t78.5 -30z" />
    <glyph glyph-name="nine.tosf" 
d="M137 -117q101 46 166 106.5t90 151.5q-61 -61 -150 -61q-86 0 -140.5 62t-54.5 152q0 93 60 155.5t151 62.5q110 0 176.5 -78t66.5 -187q0 -152 -92.5 -271t-234.5 -177zM263 164q45 0 84 22.5t60 61.5q0 76 -34.5 128t-105.5 52q-56 0 -89.5 -39t-33.5 -97
q0 -57 32 -92.5t87 -35.5z" />
    <glyph glyph-name="dollar.tosf" 
d="M246 -12q-116 4 -216 100l65 61q78 -80 171 -80q58 0 100.5 29t42.5 87q0 22 -9.5 40.5t-20.5 29.5t-36 23.5t-39 18t-47 17.5q-35 13 -54.5 21t-48 24.5t-44 34t-27 45.5t-11.5 63q0 72 50 119.5t129 53.5v95h64v-97q85 -9 164 -65l-57 -67q-59 53 -144 53
q-46 0 -81 -23.5t-35 -68.5q0 -17 8.5 -32t18.5 -24.5t32.5 -20.5t36.5 -16.5t44 -15.5q38 -13 58 -21t52 -26t48.5 -36.5t29.5 -48t13 -66.5q0 -86 -54 -139t-139 -65v-97h-64v94z" />
    <glyph glyph-name="Euro.tosf" 
d="M325 -12q-90 0 -148 60t-78 170h-79v74h71q-1 13 -1 40q0 28 1 42h-71v74h80q21 109 78.5 168.5t146.5 59.5q139 0 199 -138l-87 -31q-36 83 -112 83q-101 0 -129 -142h179v-74h-188q-1 -14 -1 -42t1 -40h188v-74h-180q28 -144 130 -144q89 0 122 113l90 -25
q-55 -174 -212 -174z" />
    <glyph glyph-name="cent.tosf" 
d="M291 57q-94 14 -154.5 84t-60.5 175q0 97 60.5 169t154.5 89v90h64v-87q67 -4 123 -42l-43 -75q-45 34 -102 34q-68 0 -116 -52t-48 -126q0 -79 48.5 -128.5t116.5 -49.5q59 0 106 35l45 -70q-53 -42 -130 -48v-87h-64v89z" />
    <glyph glyph-name="sterling.tosf" 
d="M80 86h57v230h-57v84h57v54q0 97 57 159.5t145 62.5q87 0 147 -37l-39 -78q-35 31 -104 31q-115 0 -115 -165v-27h135v-84h-135v-230h258v-86h-406v86z" />
    <glyph glyph-name="yen.tosf" 
d="M227 118h-172v74h170v64h-170v74h149l-187 334h108l152 -279h2l147 279h106l-190 -334h148v-74h-170v-64h170v-74h-172v-118h-91v118z" />
    <glyph glyph-name="florin.tosf" 
d="M75 -212q-36 0 -81 12l20 79q26 -7 50 -7q35 0 48 23t19 77l39 344h-80v84h89l13 111q9 79 51.5 122t111.5 43q61 0 128 -32l-36 -76q-34 24 -83 24q-42 0 -59 -24t-23 -76l-11 -92h122v-84h-131l-41 -363q-9 -79 -48 -122t-98 -43z" />
    <glyph glyph-name="uni20BA.tosf" 
d="M22 263v68l89 29v71l-89 -29v68l89 29v167h83v-149l161 54v-68l-161 -54v-72l162 54v-67l-162 -54v-246h5q133 0 187 49.5t54 178.5h86v-4q0 -157 -78.5 -231t-239.5 -74q-50 0 -97 15v295z" />
    <glyph glyph-name="uni2116.tosf" horiz-adv-x="1129" 
d="M95 700h84l385 -522v522h96v-700h-85l-384 522v-522h-96v700zM924 356q-75 0 -125 51.5t-50 126.5t50 126.5t125 51.5t125 -51.5t50 -126.5t-50 -126.5t-125 -51.5zM924 421q44 0 72.5 32.5t28.5 80.5t-28.5 80.5t-72.5 32.5t-72.5 -32.5t-28.5 -80.5t28.5 -80.5
t72.5 -32.5z" />
    <glyph glyph-name="percent.tosf" horiz-adv-x="850" 
d="M151 28l497 684l55 -40l-497 -684zM218 387q-67 0 -113.5 46.5t-46.5 112.5q0 67 46.5 113.5t113.5 46.5t113 -46.5t46 -113.5q0 -66 -46 -112.5t-113 -46.5zM219 458q35 0 59 25.5t24 63.5q0 37 -24 62.5t-59 25.5q-37 0 -61.5 -25t-24.5 -63t24.5 -63.5t61.5 -25.5z
M633 -6q-67 0 -113.5 46.5t-46.5 112.5q0 67 46.5 113.5t113.5 46.5t113 -46.5t46 -113.5q0 -66 -46 -112.5t-113 -46.5zM634 65q35 0 59 25.5t24 63.5q0 37 -24 62.5t-59 25.5q-37 0 -61.5 -25t-24.5 -63t24.5 -63.5t61.5 -25.5z" />
    <glyph glyph-name="perthousand.tosf" horiz-adv-x="1236" 
d="M151 28l497 684l55 -40l-497 -684zM218 387q-67 0 -113.5 46.5t-46.5 112.5q0 67 46.5 113.5t113.5 46.5t113 -46.5t46 -113.5q0 -66 -46 -112.5t-113 -46.5zM219 458q35 0 59 25.5t24 63.5q0 37 -24 62.5t-59 25.5q-37 0 -61.5 -25t-24.5 -63t24.5 -63.5t61.5 -25.5z
M633 -6q-67 0 -113.5 46.5t-46.5 112.5q0 67 46.5 113.5t113.5 46.5t113 -46.5t46 -113.5q0 -66 -46 -112.5t-113 -46.5zM634 65q35 0 59 25.5t24 63.5q0 37 -24 62.5t-59 25.5q-37 0 -61.5 -25t-24.5 -63t24.5 -63.5t61.5 -25.5zM1019 -6q-67 0 -113.5 46.5t-46.5 112.5
q0 67 46.5 113.5t113.5 46.5t113 -46.5t46 -113.5q0 -66 -46 -112.5t-113 -46.5zM1020 65q35 0 59 25.5t24 63.5q0 37 -24 62.5t-59 25.5q-37 0 -61.5 -25t-24.5 -63t24.5 -63.5t61.5 -25.5z" />
    <glyph glyph-name="a.sups" horiz-adv-x="340" 
d="M142 360q-46 0 -78.5 25t-32.5 71q0 53 39.5 77t96.5 24q26 0 58 -7v8q0 67 -66 67q-47 0 -95 -27l-20 54q62 31 128 31q124 0 124 -129v-187h-63l-4 29q-30 -36 -87 -36zM154 413q35 0 71 31v60q-29 6 -47 6q-31 0 -54 -12t-23 -39q0 -23 15 -34.5t38 -11.5z" />
    <glyph glyph-name="b.sups" horiz-adv-x="385" 
d="M212 360q-63 0 -96 43l-3 -36h-65v450h71v-178q32 44 94 44q63 0 105.5 -47t42.5 -115q0 -66 -42.5 -113.5t-106.5 -47.5zM198 423q43 0 66.5 29.5t23.5 69.5t-24.5 69t-64.5 29q-55 0 -80 -49v-109q29 -39 79 -39z" />
    <glyph glyph-name="c.sups" horiz-adv-x="294" 
d="M181 360q-68 0 -112.5 45t-44.5 116q0 68 46 115t114 47q55 0 99 -33l-36 -53q-28 23 -61 23q-37 0 -63 -29t-26 -70q0 -43 25.5 -70.5t62.5 -27.5q35 0 63 23l37 -51q-39 -35 -104 -35z" />
    <glyph glyph-name="d.sups" horiz-adv-x="385" 
d="M172 360q-63 0 -105.5 47t-42.5 115q0 65 42.5 113t106.5 48q57 0 93 -39v173h71v-450h-65l-4 40q-29 -47 -96 -47zM186 423q56 0 80 48v110q-30 39 -79 39q-43 0 -66.5 -30t-23.5 -70t24.5 -68.5t64.5 -28.5z" />
    <glyph glyph-name="e.sups" horiz-adv-x="349" 
d="M179 360q-70 0 -112.5 45t-42.5 114q0 70 45 117t111 47q62 0 103.5 -41t41.5 -102q0 -15 -4 -37h-225q4 -37 27.5 -60.5t59.5 -23.5q58 0 86 47l49 -32q-50 -74 -139 -74zM252 555q-2 30 -22 50t-49 20q-63 0 -81 -70h152z" />
    <glyph glyph-name="f.sups" horiz-adv-x="220" 
d="M62 615h-34v60h34v34q0 57 24 86t82 29q34 0 69 -15l-21 -57q-19 9 -41 9q-26 0 -34 -13.5t-8 -43.5v-29h80v-60h-80v-248h-71v248z" />
    <glyph glyph-name="g.sups" horiz-adv-x="381" 
d="M182 231q-80 0 -140 42l27 60q52 -39 111 -39q38 0 62 20t24 61v35q-33 -43 -94 -43q-63 0 -105.5 46t-42.5 112q0 65 42 111.5t107 46.5q61 0 95 -43l4 35h65v-292q0 -77 -44 -114.5t-111 -37.5zM185 430q57 0 81 48v103q-30 39 -79 39q-43 0 -66.5 -28.5t-23.5 -67.5
t24.5 -66.5t63.5 -27.5z" />
    <glyph glyph-name="h.sups" horiz-adv-x="371" 
d="M48 817h71v-184q36 50 95 50q113 0 113 -156v-160h-71v155q0 30 -2.5 47.5t-16.5 34t-41 16.5q-47 0 -77 -48v-205h-71v450z" />
    <glyph glyph-name="i.sups" horiz-adv-x="167" 
d="M48 675h71v-308h-71v308zM48 794h71v-68h-71v68z" />
    <glyph glyph-name="j.sups" horiz-adv-x="184" 
d="M36 232q-32 0 -63 13l20 57q19 -7 30 -7q42 0 42 56v324h71v-332q0 -53 -22.5 -82t-77.5 -29zM65 794h71v-68h-71v68z" />
    <glyph glyph-name="k.sups" horiz-adv-x="326" 
d="M48 817h71v-280h1l111 138h84l-110 -127l118 -181h-87l-79 125l-38 -45v-80h-71v450z" />
    <glyph glyph-name="l.sups" horiz-adv-x="167" 
d="M48 817h71v-450h-71v450z" />
    <glyph glyph-name="m.sups" horiz-adv-x="559" 
d="M48 675h65l3 -41q37 49 93 49q61 0 90 -54q38 54 105 54q111 0 111 -156v-160h-71v155q0 22 -1.5 35.5t-6.5 30t-17.5 24.5t-32.5 8q-42 0 -72 -42q3 -22 3 -51v-160h-71v155q0 22 -1 35t-6 30t-17 25t-32 8q-37 0 -71 -42v-211h-71v308z" />
    <glyph glyph-name="o.sups" horiz-adv-x="367" 
d="M183 360q-68 0 -113.5 46.5t-45.5 114.5q0 69 45 115.5t114 46.5t114.5 -46.5t45.5 -115.5q0 -68 -45.5 -114.5t-114.5 -46.5zM183 423q38 0 62.5 28.5t24.5 69.5q0 42 -24.5 70.5t-62.5 28.5t-62 -28.5t-24 -70.5q0 -41 24 -69.5t62 -28.5z" />
    <glyph glyph-name="p.sups" horiz-adv-x="385" 
d="M48 675h65l4 -39q30 47 96 47q63 0 105.5 -47t42.5 -115q0 -66 -42.5 -113.5t-106.5 -47.5q-58 0 -93 38v-181h-71v458zM198 423q43 0 66.5 29.5t23.5 69.5t-24.5 69t-64.5 29q-55 0 -80 -49v-109q29 -39 79 -39z" />
    <glyph glyph-name="q.sups" horiz-adv-x="385" 
d="M266 403q-32 -43 -94 -43q-63 0 -105.5 47t-42.5 115q0 65 42.5 113t106.5 48q61 0 95 -43l4 35h65v-458h-71v186zM186 423q56 0 80 48v110q-30 39 -79 39q-43 0 -66.5 -30t-23.5 -70t24.5 -68.5t64.5 -28.5z" />
    <glyph glyph-name="r.sups" horiz-adv-x="227" 
d="M48 675h65l3 -44q30 52 75 52q19 0 37 -6l-16 -67q-13 7 -29 7q-41 0 -64 -42v-208h-71v308z" />
    <glyph glyph-name="s.sups" horiz-adv-x="288" 
d="M142 360q-72 0 -117 51l44 41q34 -35 71 -35q20 0 33 9.5t13 27.5q0 10 -8.5 18.5t-17.5 12.5l-28 12q-20 8 -31.5 14t-26.5 17t-22 26.5t-7 35.5q0 44 30.5 68.5t74.5 24.5q61 0 102 -38l-40 -44q-27 25 -61 25q-17 0 -27.5 -8.5t-10.5 -22.5q0 -22 54 -43
q26 -10 42.5 -19.5t32 -29t15.5 -45.5q0 -48 -33.5 -73t-81.5 -25z" />
    <glyph glyph-name="t.sups" horiz-adv-x="230" 
d="M154 360q-96 0 -96 114v141h-39v60h39l8 71h63v-71h82v-60h-82v-128q0 -21 1 -32t9 -22t24 -11q17 0 35 9l21 -54q-28 -17 -65 -17z" />
    <glyph glyph-name="u.sups" horiz-adv-x="371" 
d="M163 359q-64 0 -91.5 40t-27.5 114v162h71v-159q0 -22 1.5 -35t6.5 -28.5t18 -23t33 -7.5q48 0 78 48v205h71v-308h-65l-3 46q-36 -54 -92 -54z" />
    <glyph glyph-name="v.sups" horiz-adv-x="308" 
d="M4 675h79l71 -212h1l71 212h78l-123 -308h-60z" />
    <glyph glyph-name="w.sups" horiz-adv-x="451" 
d="M4 675h77l51 -212h1l60 212h68l55 -211h2l55 211h74l-90 -308h-75l-56 204h-1l-58 -204h-78z" />
    <glyph glyph-name="x.sups" horiz-adv-x="330" 
d="M123 522l-110 153h90l67 -98l67 98h89l-115 -151l114 -157h-91l-70 103l-71 -103h-89z" />
    <glyph glyph-name="y.sups" horiz-adv-x="306" 
d="M66 254l48 127l-110 293h78l70 -204h1l71 204h78l-172 -444z" />
    <glyph glyph-name="z.sups" horiz-adv-x="285" 
d="M33 400l126 215h-132v60h227v-31l-127 -216h137v-61h-231v33z" />
    <glyph glyph-name="b.sinf" horiz-adv-x="385" 
d="M212 -185q-63 0 -96 43l-3 -36h-65v450h71v-178q32 44 94 44q63 0 105.5 -47t42.5 -115q0 -66 -42.5 -113.5t-106.5 -47.5zM198 -122q43 0 66.5 29.5t23.5 69.5t-24.5 69t-64.5 29q-55 0 -80 -49v-109q29 -39 79 -39z" />
    <glyph glyph-name="c.sinf" horiz-adv-x="294" 
d="M181 -185q-68 0 -112.5 45t-44.5 116q0 68 46 115t114 47q55 0 99 -33l-36 -53q-28 23 -61 23q-37 0 -63 -29t-26 -70q0 -43 25.5 -70.5t62.5 -27.5q35 0 63 23l37 -51q-39 -35 -104 -35z" />
    <glyph glyph-name="d.sinf" horiz-adv-x="385" 
d="M172 -185q-63 0 -105.5 47t-42.5 115q0 65 42.5 113t106.5 48q57 0 93 -39v173h71v-450h-65l-4 40q-29 -47 -96 -47zM186 -122q56 0 80 48v110q-30 39 -79 39q-43 0 -66.5 -30t-23.5 -70t24.5 -68.5t64.5 -28.5z" />
    <glyph glyph-name="f.sinf" horiz-adv-x="220" 
d="M62 70h-34v60h34v34q0 57 24 86t82 29q34 0 69 -15l-21 -57q-19 9 -41 9q-26 0 -34 -13.5t-8 -43.5v-29h80v-60h-80v-248h-71v248z" />
    <glyph glyph-name="g.sinf" horiz-adv-x="381" 
d="M182 -314q-80 0 -140 42l27 60q52 -39 111 -39q38 0 62 20t24 61v35q-33 -43 -94 -43q-63 0 -105.5 46t-42.5 112q0 65 42 111.5t107 46.5q61 0 95 -43l4 35h65v-292q0 -77 -44 -114.5t-111 -37.5zM185 -115q57 0 81 48v103q-30 39 -79 39q-43 0 -66.5 -28.5t-23.5 -67.5
t24.5 -66.5t63.5 -27.5z" />
    <glyph glyph-name="h.sinf" horiz-adv-x="371" 
d="M48 272h71v-184q36 50 95 50q113 0 113 -156v-160h-71v155q0 30 -2.5 47.5t-16.5 34t-41 16.5q-47 0 -77 -48v-205h-71v450z" />
    <glyph glyph-name="i.sinf" horiz-adv-x="167" 
d="M48 130h71v-308h-71v308zM48 249h71v-68h-71v68z" />
    <glyph glyph-name="j.sinf" horiz-adv-x="184" 
d="M36 -313q-32 0 -63 13l20 57q19 -7 30 -7q42 0 42 56v324h71v-332q0 -53 -22.5 -82t-77.5 -29zM65 249h71v-68h-71v68z" />
    <glyph glyph-name="q.sinf" horiz-adv-x="385" 
d="M266 -142q-32 -43 -94 -43q-63 0 -105.5 47t-42.5 115q0 65 42.5 113t106.5 48q61 0 95 -43l4 35h65v-458h-71v186zM186 -122q56 0 80 48v110q-30 39 -79 39q-43 0 -66.5 -30t-23.5 -70t24.5 -68.5t64.5 -28.5z" />
    <glyph glyph-name="r.sinf" horiz-adv-x="227" 
d="M48 130h65l3 -44q30 52 75 52q19 0 37 -6l-16 -67q-13 7 -29 7q-41 0 -64 -42v-208h-71v308z" />
    <glyph glyph-name="u.sinf" horiz-adv-x="371" 
d="M163 -186q-64 0 -91.5 40t-27.5 114v162h71v-159q0 -22 1.5 -35t6.5 -28.5t18 -23t33 -7.5q48 0 78 48v205h71v-308h-65l-3 46q-36 -54 -92 -54z" />
    <glyph glyph-name="v.sinf" horiz-adv-x="308" 
d="M4 130h79l71 -212h1l71 212h78l-123 -308h-60z" />
    <glyph glyph-name="w.sinf" horiz-adv-x="451" 
d="M4 130h77l51 -212h1l60 212h68l55 -211h2l55 211h74l-90 -308h-75l-56 204h-1l-58 -204h-78z" />
    <glyph glyph-name="y.sinf" horiz-adv-x="306" 
d="M66 -291l48 127l-110 293h78l70 -204h1l71 204h78l-172 -444z" />
    <glyph glyph-name="z.sinf" horiz-adv-x="285" 
d="M33 -145l126 215h-132v60h227v-31l-127 -216h137v-61h-231v33z" />
    <glyph glyph-name="zero.numr" horiz-adv-x="314" 
d="M157 335q-63 0 -98 49t-35 137t35 137t98 49t98 -49t35 -137t-35 -137t-98 -49zM157 394q62 0 62 127t-62 127t-62 -127t62 -127z" />
    </font>
</defs>
</svg>
