<?xml version="1.0" encoding="utf-8"?>
<svg xmlns="http://www.w3.org/2000/svg" viewBox="0 0 282.538 50">
  <defs>
    <style>
      .cls-1 {
        fill: #3c3c3c;
      }

      .cls-2 {
        fill: #d22b49;
      }
    </style>
  </defs>
  <g id="Group_135" data-name="Group 135" transform="translate(-1782.778 -2665.308)">
    <g id="Group_134" data-name="Group 134">
      <path id="Path_130" data-name="Path 130" class="cls-1" d="M1856.752,2682.935V2702.4h-4.063v-19.463h-5.57v-3.473h15.2v3.473Z"/>
      <path id="Path_131" data-name="Path 131" class="cls-1" d="M1875.168,2702.4l-.2-2.49a6.485,6.485,0,0,1-5.374,2.884,5.674,5.674,0,0,1-4.653-2.163c-1.245-1.638-1.507-3.867-1.507-6.324v-8.781h3.965v8.486a8.38,8.38,0,0,0,.655,4.03,2.7,2.7,0,0,0,2.556,1.279,5.211,5.211,0,0,0,4.194-2.589v-11.206h3.965V2702.4Z"/>
      <path id="Path_132" data-name="Path 132" class="cls-1" d="M1887.521,2687.916c1.016-1.639,2.359-2.785,4.1-2.785a6.45,6.45,0,0,1,2.031.295l-.884,3.7a3.227,3.227,0,0,0-1.606-.361,3.983,3.983,0,0,0-3.473,2.261v11.37h-4v-16.874h3.636Z"/>
      <path id="Path_133" data-name="Path 133" class="cls-1" d="M1899.678,2677.824v9.633a6.594,6.594,0,0,1,5.144-2.326c4.62,0,8.093,3.931,8.093,8.879,0,4.62-3.342,8.782-8.159,8.782a6.666,6.666,0,0,1-5.242-2.36l-.2,1.966h-3.6v-24.574Zm0,19.365a5.4,5.4,0,0,0,4.325,2.13c3.309,0,4.882-2.819,4.882-5.407,0-2.752-1.868-5.308-4.817-5.308a4.905,4.905,0,0,0-4.39,2.621Z"/>
      <path id="Path_134" data-name="Path 134" class="cls-1" d="M1928.152,2702.4l-.2-2.49a6.486,6.486,0,0,1-5.374,2.884,5.671,5.671,0,0,1-4.653-2.163c-1.245-1.638-1.507-3.867-1.507-6.324v-8.781h3.964v8.486a8.367,8.367,0,0,0,.656,4.03,2.7,2.7,0,0,0,2.556,1.279,5.212,5.212,0,0,0,4.194-2.589v-11.206h3.964V2702.4Z"/>
      <path id="Path_135" data-name="Path 135" class="cls-1" d="M1940.637,2702.4h-3.965v-24.574h3.965Z"/>
      <path id="Path_136" data-name="Path 136" class="cls-1" d="M1948.3,2694.96a4.737,4.737,0,0,0,4.718,4.588,4.909,4.909,0,0,0,4.653-2.622l2.687,1.8a8.287,8.287,0,0,1-7.569,4.064c-5.21,0-8.486-3.7-8.486-8.716,0-5.079,3.7-8.945,8.486-8.945a7.662,7.662,0,0,1,7.962,7.831,13.6,13.6,0,0,1-.164,2Zm4.587-6.651c-2.424,0-3.833,1.638-4.357,3.8h8.158A3.8,3.8,0,0,0,1952.891,2688.309Z"/>
      <path id="Path_137" data-name="Path 137" class="cls-1" d="M1968.03,2685.524l.2,2.49a6.485,6.485,0,0,1,5.374-2.883,5.67,5.67,0,0,1,4.653,2.162c1.245,1.638,1.507,3.867,1.507,6.324v8.781H1975.8v-8.486a8.367,8.367,0,0,0-.656-4.03,2.7,2.7,0,0,0-2.555-1.278,5.215,5.215,0,0,0-4.195,2.588V2702.4h-3.964v-16.874Z"/>
      <path id="Path_138" data-name="Path 138" class="cls-1" d="M1988.608,2688.866v6.979c0,.492,0,.885.033,1.409.131,1.311.59,2.065,1.835,2.065a3.841,3.841,0,0,0,1.867-.459l1.18,3.014a7.989,7.989,0,0,1-3.67.885,4.708,4.708,0,0,1-4.817-3.211,9.318,9.318,0,0,1-.426-3.113v-7.569h-2.1v-3.342h2.1l.426-3.866h3.572v3.866h4.456v3.342Z"/>
      <path id="Path_139" data-name="Path 139" class="cls-2" d="M2008.957,2692.9v9.5h-4.063v-22.936h12.254v3.473h-8.191v6.488h8.191v3.473Z"/>
      <path id="Path_140" data-name="Path 140" class="cls-2" d="M2024.914,2702.4h-3.964v-24.574h3.964Z"/>
      <path id="Path_141" data-name="Path 141" class="cls-2" d="M2041.4,2702.4l-.2-2.49a6.486,6.486,0,0,1-5.374,2.884,5.672,5.672,0,0,1-4.653-2.163c-1.245-1.638-1.507-3.867-1.507-6.324v-8.781h3.964v8.486a8.367,8.367,0,0,0,.656,4.03,2.7,2.7,0,0,0,2.556,1.279,5.211,5.211,0,0,0,4.194-2.589v-11.206H2045V2702.4Z"/>
      <path id="Path_142" data-name="Path 142" class="cls-2" d="M2059.025,2693.846l6.259,8.552h-5.079l-3.769-5.57-3.833,5.57h-4.98l6.52-8.519-6.029-8.355h5.046l3.6,5.341,3.67-5.341h4.882Z"/>
    </g>
    <path id="Path_143" data-name="Path 143" class="cls-2" d="M1820.173,2668.6a25,25,0,1,0,9.311,34.1A25,25,0,0,0,1820.173,2668.6Zm3.658,37c-3.234,3.234-6.2,3.427-5.285,2.515.38-.38.784-.787,1.015-1.019,5.285-5.284,4.6-13.885,1.219-17.268-1.255-1.256-2.649-.781-1.828.041,3.028,3.028,1.888,11.005-2.637,15.531-8.1,8.1-18.693,6.1-23.827.962-3.234-3.234-3.427-6.2-2.516-5.285l1.02,1.015c5.284,5.285,13.885,4.6,17.268,1.22,1.255-1.256.781-2.65-.041-1.828-3.028,3.028-11.233,1.66-15.531-2.638-8-8-6.1-18.692-.962-23.827,3.234-3.234,6.2-3.426,5.285-2.515-.381.38-.784.787-1.016,1.019-5.284,5.284-4.6,13.885-1.219,17.268,1.256,1.256,2.65.781,1.828-.041-3.028-3.027-1.651-11.242,2.638-15.531,7.9-7.9,18.692-6.1,23.827-.962,3.234,3.234,3.426,6.2,2.515,5.285-.381-.38-.788-.784-1.019-1.015-5.285-5.285-13.885-4.6-17.268-1.219-1.256,1.255-.782,2.649.04,1.827,3.028-3.028,11.13-1.763,15.531,2.638h0C1831.023,2689.925,1828.965,2700.463,1823.831,2705.6Z"/>
  </g>
</svg>
