<?xml version="1.0" encoding="utf-8"?>
<!-- Generator: Adobe Illustrator 19.0.0, SVG Export Plug-In . SVG Version: 6.00 Build 0)  -->
<svg version="1.1" id="Layer_1" xmlns="http://www.w3.org/2000/svg" xmlns:xlink="http://www.w3.org/1999/xlink" x="0px" y="0px"
	 viewBox="0 0 230 40.7" style="enable-background:new 0 0 230 40.7;" xml:space="preserve">
<style type="text/css">
	.st0{fill:#FFFFFF;}
</style>
<g>
	<path class="st0" d="M60.2,14.3v15.8h-3.3V14.3h-4.5v-2.8h12.4v2.8H60.2z"/>
	<path class="st0" d="M75.2,30.2l-0.2-2c-1.1,1.6-2.7,2.3-4.4,2.3s-2.9-0.7-3.8-1.8c-1-1.3-1.2-3.1-1.2-5.1v-7.1h3.2v6.9
		c0,1.1,0,2.4,0.5,3.3c0.4,0.7,1.1,1,2.1,1c1.3,0,2.6-0.8,3.4-2.1v-9.1h3.2v13.7H75.2z"/>
	<path class="st0" d="M85.3,18.4c0.8-1.3,1.9-2.3,3.3-2.3c0.6,0,1.1,0.1,1.7,0.2l-0.7,3c-0.4-0.2-0.8-0.3-1.3-0.3
		c-1.2,0-2.2,0.7-2.8,1.8v9.3h-3.3V16.5h3L85.3,18.4z"/>
	<path class="st0" d="M95.2,10.2V18c1-1.3,2.7-1.9,4.2-1.9c3.8,0,6.6,3.2,6.6,7.2c0,3.8-2.7,7.1-6.6,7.1c-1.5,0-3.3-0.6-4.3-1.9
		l-0.2,1.6h-2.9v-20H95.2z M95.2,26c0.9,1.2,2.2,1.7,3.5,1.7c2.7,0,4-2.3,4-4.4c0-2.2-1.5-4.3-3.9-4.3c-1.3,0-2.8,0.6-3.6,2.1V26z"
		/>
	<path class="st0" d="M118.3,30.2l-0.2-2c-1.1,1.6-2.7,2.3-4.4,2.3s-2.9-0.7-3.8-1.8c-1-1.3-1.2-3.1-1.2-5.1v-7.1h3.2v6.9
		c0,1.1,0,2.4,0.5,3.3c0.4,0.7,1.1,1,2.1,1c1.3,0,2.6-0.8,3.4-2.1v-9.1h3.2v13.7H118.3z"/>
	<path class="st0" d="M128.5,30.2h-3.2v-20h3.2V30.2z"/>
	<path class="st0" d="M134.7,24.1c0.2,2.1,1.6,3.7,3.8,3.7c1.8,0,2.9-0.7,3.8-2.1l2.2,1.5c-1.5,2.2-3.3,3.3-6.2,3.3
		c-4.2,0-6.9-3-6.9-7.1c0-4.1,3-7.3,6.9-7.3c3.7,0,6.5,2.7,6.5,6.4c0,0.5-0.1,1.1-0.1,1.6H134.7z M138.5,18.7c-2,0-3.1,1.3-3.5,3.1
		h6.6C141.5,20,140.2,18.7,138.5,18.7z"/>
	<path class="st0" d="M150.8,16.5l0.2,2c1.1-1.6,2.7-2.3,4.4-2.3s2.9,0.7,3.8,1.8c1,1.3,1.2,3.1,1.2,5.1v7.1h-3.2v-6.9
		c0-1.1,0-2.4-0.5-3.3c-0.4-0.7-1.1-1-2.1-1c-1.3,0-2.6,0.8-3.4,2.1v9.1h-3.2V16.5H150.8z"/>
	<path class="st0" d="M167.6,19.2v5.7c0,0.4,0,0.7,0,1.1c0.1,1.1,0.5,1.7,1.5,1.7c0.6,0,1.1-0.1,1.5-0.4l1,2.5c-0.8,0.5-2,0.7-3,0.7
		c-2.1,0-3.4-1-3.9-2.6c-0.3-0.7-0.3-1.6-0.3-2.5v-6.2h-1.7v-2.7h1.7l0.3-3.1h2.9v3.1h3.6v2.7H167.6z"/>
	<path class="st0" d="M184.1,22.5v7.7h-3.3V11.5h10v2.8h-6.7v5.3h6.7v2.8H184.1z"/>
	<path class="st0" d="M197.1,30.2h-3.2v-20h3.2V30.2z"/>
	<path class="st0" d="M210.5,30.2l-0.2-2c-1.1,1.6-2.7,2.3-4.4,2.3c-1.7,0-2.9-0.7-3.8-1.8c-1-1.3-1.2-3.1-1.2-5.1v-7.1h3.2v6.9
		c0,1.1,0,2.4,0.5,3.3c0.4,0.7,1.1,1,2.1,1c1.3,0,2.6-0.8,3.4-2.1v-9.1h3.2v13.7H210.5z"/>
	<path class="st0" d="M224.9,23.2l5.1,7h-4.1l-3.1-4.5l-3.1,4.5h-4.1l5.3-6.9l-4.9-6.8h4.1l2.9,4.3l3-4.3h4L224.9,23.2z"/>
</g>
<path class="st0" d="M30.4,2.7C20.7-2.9,8.3,0.5,2.7,10.3C-2.9,20,0.5,32.4,10.3,38c9.8,5.6,22.2,2.2,27.8-7.6
	C43.6,20.7,40.2,8.3,30.4,2.7z M33.4,32.8c-2.6,2.6-5,2.8-4.3,2c0.3-0.3,0.6-0.6,0.8-0.8c4.3-4.3,3.7-11.3,1-14.1
	c-1-1-2.2-0.6-1.5,0c2.5,2.5,1.5,9-2.1,12.6c-6.6,6.6-15.2,5-19.4,0.8c-2.6-2.6-2.8-5-2-4.3c0.3,0.3,0.6,0.6,0.8,0.8
	c4.3,4.3,11.3,3.7,14.1,1c1-1,0.6-2.2,0-1.5c-2.5,2.5-9.1,1.4-12.6-2.1c-6.5-6.5-5-15.2-0.8-19.4c2.6-2.6,5-2.8,4.3-2
	c-0.3,0.3-0.6,0.6-0.8,0.8C6.5,11,7,18,9.8,20.7c1,1,2.2,0.6,1.5,0c-2.5-2.5-1.3-9.2,2.1-12.6c6.4-6.4,15.2-5,19.4-0.8
	c2.6,2.6,2.8,5,2,4.3c-0.3-0.3-0.6-0.6-0.8-0.8C29.7,6.5,22.7,7,20,9.8c-1,1-0.6,2.2,0,1.5c2.5-2.5,9.1-1.4,12.6,2.1c0,0,0,0,0,0
	C39.3,20,37.6,28.6,33.4,32.8z"/>
</svg>
