<?xml version="1.0" standalone="no"?>
<!DOCTYPE svg PUBLIC "-//W3C//DTD SVG 1.1//EN" "http://www.w3.org/Graphics/SVG/1.1/DTD/svg11.dtd" >
<svg>
<metadata>
Created by FontForge 20090622 at Fri Oct 25 07:43:50 2019
 By deploy user
Copyright (c) 2011 by Wolfgang Homola, distributed by TypeTogether. All rights reserved.
</metadata>
<defs>
<font id="Soleil-Book" horiz-adv-x="550" >
  <font-face 
    font-family="Soleil Bk"
    font-weight="400"
    font-stretch="normal"
    units-per-em="1000"
    panose-1="2 0 5 3 0 0 0 2 0 4"
    ascent="750"
    descent="-250"
    x-height="506"
    cap-height="700"
    bbox="-210 -326 1274 1107"
    underline-thickness="50"
    underline-position="-50"
    unicode-range="U+000D-U+FB04"
  />
<missing-glyph 
d="M302 130h-66v69h66v-69zM57 665h437v-665h-437v665zM117 606v-548h316v548h-316zM300 250h-61v91q20 7 32.5 12.5t26.5 15t21 22.5t7 30q0 22 -14.5 37.5t-39.5 15.5t-39.5 -15.5t-14.5 -42.5v-6h-57v4q0 48 32 79.5t79 31.5q48 0 80 -31.5t32 -70.5q0 -46 -23 -71.5
t-61 -42.5v-59z" />
    <glyph glyph-name="ff" unicode="ff" horiz-adv-x="684" 
d="M374 738l-30 -84q-30 15 -66 15q-35 0 -54 -16q-23 -21 -23 -91v-56h114v-89h-114v-417h-103v417h-57v89h57v65q0 86 33 133q41 58 137 58q53 0 106 -24zM716 738l-30 -84q-30 15 -66 15q-35 0 -54 -16q-23 -21 -23 -91v-56h135v-89h-135v-417h-103v417h-57v89h57v65
q0 86 33 133q41 58 137 58q53 0 106 -24z" />
    <glyph glyph-name="fi" unicode="fi" horiz-adv-x="605" 
d="M346 749l-16 -88q-26 8 -52 8q-35 0 -54 -16q-23 -21 -23 -91v-56h135v-89h-135v-417h-103v417h-57v89h57v65q0 86 33 133q41 58 137 58q37 0 78 -13zM525 0h-103v506h103v-506zM525 598h-103v107h103v-107z" />
    <glyph glyph-name="fl" unicode="fl" horiz-adv-x="606" 
d="M346 749l-16 -88q-26 8 -52 8q-35 0 -54 -16q-23 -21 -23 -91v-56h135v-89h-135v-417h-103v417h-57v89h57v65q0 86 33 133q41 58 137 58q37 0 78 -13zM525 750v-750h-103v750h103z" />
    <glyph glyph-name="ffi" unicode="ffi" horiz-adv-x="948" 
d="M688 749l-16 -88q-26 8 -52 8q-35 0 -54 -16q-23 -21 -23 -91v-56h135v-89h-135v-417h-103v417h-57v89h57v65q0 86 33 133q41 58 137 58q37 0 78 -13zM374 738l-30 -84q-30 15 -66 15q-35 0 -54 -16q-23 -21 -23 -91v-56h114v-89h-114v-417h-103v417h-57v89h57v65
q0 86 33 133q41 58 137 58q53 0 106 -24zM868 0h-103v506h103v-506zM868 598h-103v107h103v-107z" />
    <glyph glyph-name="ffl" unicode="ffl" horiz-adv-x="947" 
d="M688 749l-16 -88q-26 8 -52 8q-35 0 -54 -16q-23 -21 -23 -91v-56h135v-89h-135v-417h-103v417h-57v89h57v65q0 86 33 133q41 58 137 58q37 0 78 -13zM374 738l-30 -84q-30 15 -66 15q-35 0 -54 -16q-23 -21 -23 -91v-56h114v-89h-114v-417h-103v417h-57v89h57v65
q0 86 33 133q41 58 137 58q53 0 106 -24zM867 750v-750h-103v750h103z" />
    <glyph glyph-name="f_k" unicode="fk" horiz-adv-x="866" 
d="M346 749l-16 -88q-26 8 -52 8q-35 0 -54 -16q-23 -21 -23 -91v-56h135v-89h-135v-417h-103v417h-57v89h57v65q0 86 33 133q41 58 137 58q37 0 78 -13zM525 750v-486l2 -1l195 243h124l-179 -208l194 -298h-124l-138 218l-74 -86v-132h-103v750h103z" />
    <glyph glyph-name="f_b" unicode="fb" horiz-adv-x="972" 
d="M346 749l-16 -88q-26 8 -52 8q-35 0 -54 -16q-23 -21 -23 -91v-56h135v-89h-135v-417h-103v417h-57v89h57v65q0 86 33 133q41 58 137 58q37 0 78 -13zM422 750h103v-309q26 37 69.5 57t89.5 20q106 0 177 -77t71 -189q0 -106 -70.5 -185t-179.5 -79q-44 0 -87 18.5
t-73 50.5l-2 -57h-98v750zM525 335v-181q25 -35 63 -54t77 -19q77 0 119.5 52t42.5 121q0 70 -44 120.5t-116 50.5q-42 0 -83 -23.5t-59 -66.5z" />
    <glyph glyph-name="f_h" unicode="fh" horiz-adv-x="951" 
d="M346 749l-16 -88q-26 8 -52 8q-35 0 -54 -16q-23 -21 -23 -91v-56h135v-89h-135v-417h-103v417h-57v89h57v65q0 86 33 133q41 58 137 58q37 0 78 -13zM525 750v-322q28 43 71 66.5t91 23.5q96 0 144 -64q45 -62 45 -191v-263h-103v254q0 94 -24 132q-24 39 -83 39
q-40 0 -78 -24.5t-63 -65.5v-335h-103v750h103z" />
    <glyph glyph-name="f_t" unicode="ft" horiz-adv-x="696" 
d="M374 738l-30 -84q-30 15 -66 15q-35 0 -54 -16q-23 -21 -23 -91v-56h122v-89h-122v-417h-103v417h-57v89h57v65q0 86 33 133q41 58 137 58q53 0 106 -24zM670 417h-139v-220q0 -25 1 -40q2 -38 17 -57t47 -19q29 0 57 14l30 -81q-43 -24 -101 -24q-106 0 -139 86
q-15 38 -15 100v241h-56v89h56l5 119h98v-119h139v-89z" />
    <glyph glyph-name="f_j" unicode="fj" horiz-adv-x="614" 
d="M346 749l-16 -88q-26 8 -52 8q-35 0 -54 -16q-23 -21 -23 -91v-56h135v-89h-135v-417h-103v417h-57v89h57v65q0 86 33 133q41 58 137 58q37 0 78 -13zM533 598h-103v107h103v-107zM533 506v-549q0 -67 -18 -104q-35 -77 -137 -77q-57 0 -100 22l29 83q26 -14 57 -14
q42 0 54 26.5t12 79.5v533h103z" />
    <glyph glyph-name="f_f_j" unicode="ffj" horiz-adv-x="956" 
d="M688 749l-16 -88q-26 8 -52 8q-35 0 -54 -16q-23 -21 -23 -91v-56h135v-89h-135v-417h-103v417h-57v89h57v65q0 86 33 133q41 58 137 58q37 0 78 -13zM374 738l-30 -84q-30 15 -66 15q-35 0 -54 -16q-23 -21 -23 -91v-56h114v-89h-114v-417h-103v417h-57v89h57v65
q0 86 33 133q41 58 137 58q53 0 106 -24zM875 598h-103v107h103v-107zM875 506v-549q0 -67 -18 -104q-35 -77 -137 -77q-57 0 -100 22l29 83q26 -14 57 -14q42 0 54 26.5t12 79.5v533h103z" />
    <glyph glyph-name="f_f_k" unicode="ffk" horiz-adv-x="1208" 
d="M688 749l-16 -88q-26 8 -52 8q-35 0 -54 -16q-23 -21 -23 -91v-56h135v-89h-135v-417h-103v417h-57v89h57v65q0 86 33 133q41 58 137 58q37 0 78 -13zM374 738l-30 -84q-30 15 -66 15q-35 0 -54 -16q-23 -21 -23 -91v-56h114v-89h-114v-417h-103v417h-57v89h57v65
q0 86 33 133q41 58 137 58q53 0 106 -24zM867 750v-486l2 -1l195 243h124l-179 -208l194 -298h-124l-138 218l-74 -86v-132h-103v750h103z" />
    <glyph glyph-name="f_f_b" unicode="ffb" horiz-adv-x="1314" 
d="M688 749l-16 -88q-26 8 -52 8q-35 0 -54 -16q-23 -21 -23 -91v-56h135v-89h-135v-417h-103v417h-57v89h57v65q0 86 33 133q41 58 137 58q37 0 78 -13zM374 738l-30 -84q-30 15 -66 15q-35 0 -54 -16q-23 -21 -23 -91v-56h114v-89h-114v-417h-103v417h-57v89h57v65
q0 86 33 133q41 58 137 58q53 0 106 -24zM764 750h103v-309q26 37 69.5 57t89.5 20q106 0 177 -77t71 -189q0 -106 -70.5 -185t-179.5 -79q-44 0 -87 18.5t-73 50.5l-2 -57h-98v750zM867 335v-181q25 -35 63 -54t77 -19q77 0 119.5 52t42.5 121q0 70 -44 120.5t-116 50.5
q-42 0 -83 -23.5t-59 -66.5z" />
    <glyph glyph-name="f_f_h" unicode="ffh" horiz-adv-x="1293" 
d="M688 749l-16 -88q-26 8 -52 8q-35 0 -54 -16q-23 -21 -23 -91v-56h135v-89h-135v-417h-103v417h-57v89h57v65q0 86 33 133q41 58 137 58q37 0 78 -13zM374 738l-30 -84q-30 15 -66 15q-35 0 -54 -16q-23 -21 -23 -91v-56h114v-89h-114v-417h-103v417h-57v89h57v65
q0 86 33 133q41 58 137 58q53 0 106 -24zM867 750v-322q28 43 71 66.5t91 23.5q96 0 144 -64q45 -62 45 -191v-263h-103v254q0 94 -24 132q-24 39 -83 39q-40 0 -78 -24.5t-63 -65.5v-335h-103v750h103z" />
    <glyph glyph-name="f_f_t" unicode="fft" horiz-adv-x="1038" 
d="M374 738l-30 -84q-30 15 -66 15q-35 0 -54 -16q-23 -21 -23 -91v-56h114v-89h-114v-417h-103v417h-57v89h57v65q0 86 33 133q41 58 137 58q53 0 106 -24zM716 738l-30 -84q-30 15 -66 15q-35 0 -54 -16q-23 -21 -23 -91v-56h121v-89h-121v-417h-103v417h-57v89h57v65
q0 86 33 133q41 58 137 58q53 0 106 -24zM1012 417h-139v-220q0 -25 1 -40q2 -38 17 -57t47 -19q29 0 57 14l30 -81q-43 -24 -101 -24q-106 0 -139 86q-15 38 -15 100v241h-56v89h56l5 119h98v-119h139v-89z" />
    <glyph glyph-name="f_iacute" unicode="f&#xed;" horiz-adv-x="606" 
d="M526 0h-103v506h103v-506zM626 736l-143 -168l-64 51l133 175zM374 738l-30 -84q-30 15 -66 15q-35 0 -54 -16q-23 -21 -23 -91v-56h135v-89h-135v-417h-103v417h-57v89h57v65q0 86 33 133q41 58 137 58q53 0 106 -24z" />
    <glyph glyph-name="t_t" unicode="tt" horiz-adv-x="708" 
d="M328 417h-139v-220q0 -25 1 -40q2 -38 17 -57t47 -19q29 0 57 14l30 -81q-43 -24 -101 -24q-106 0 -139 86q-15 38 -15 100v241h-66v89h66l5 119h98v-119h139v-89zM682 417h-139v-220q0 -25 1 -40q2 -38 17 -57t47 -19q29 0 57 14l30 -81q-43 -24 -101 -24
q-106 0 -139 86q-15 38 -15 100v241h-66v89h66l5 119h98v-119h139v-89z" />
    <glyph glyph-name=".notdef" 
d="M302 130h-66v69h66v-69zM57 665h437v-665h-437v665zM117 606v-548h316v548h-316zM300 250h-61v91q20 7 32.5 12.5t26.5 15t21 22.5t7 30q0 22 -14.5 37.5t-39.5 15.5t-39.5 -15.5t-14.5 -42.5v-6h-57v4q0 48 32 79.5t79 31.5q48 0 80 -31.5t32 -70.5q0 -46 -23 -71.5
t-61 -42.5v-59z" />
    <glyph glyph-name=".null" horiz-adv-x="0" 
 />
    <glyph glyph-name="nonmarkingreturn" horiz-adv-x="333" 
 />
    <glyph glyph-name="CR" unicode="&#xd;" horiz-adv-x="500" 
 />
    <glyph glyph-name="space" unicode=" " horiz-adv-x="250" 
 />
    <glyph glyph-name="exclam" unicode="!" horiz-adv-x="319" 
d="M220 700v-114l-10 -369h-100l-11 369v114h121zM218 0h-117v124h117v-124z" />
    <glyph glyph-name="quotedbl" unicode="&#x22;" horiz-adv-x="484" 
d="M178 429h-92l-10 271h111zM398 429h-92l-10 271h111z" />
    <glyph glyph-name="numbersign" unicode="#" horiz-adv-x="690" 
d="M53 263h124l25 139h-84v79h97l33 184h88l-33 -184h130l33 184h88l-33 -184h116v-79h-130l-25 -139h90v-80h-103l-32 -183h-88l32 183h-130l-32 -183h-87l31 183h-110v80zM290 402l-25 -139h129l25 139h-129z" />
    <glyph glyph-name="dollar" unicode="$" 
d="M25 91l71 67q80 -80 168 -80q58 0 97.5 27.5t39.5 81.5q0 14 -4.5 26.5t-9.5 21.5t-18 19t-21 15t-27 13.5t-27.5 11.5l-32 11.5t-30.5 11.5q-36 13 -61 26t-50.5 33.5t-38.5 51t-13 70.5q0 75 50.5 122.5t130.5 54.5v95h69v-97q84 -10 166 -67l-63 -75q-61 55 -144 55
q-42 0 -75 -22.5t-33 -64.5q0 -13 4.5 -24t15 -21t19.5 -16.5t28 -14.5l30.5 -12.5t35.5 -13l35 -12.5q38 -14 63.5 -27.5t52.5 -35.5t40.5 -53.5t13.5 -72.5q0 -85 -55 -138.5t-140 -65.5v-98h-68v95q-117 4 -219 102z" />
    <glyph glyph-name="percent" unicode="%" horiz-adv-x="851" 
d="M219 706q68 0 116 -47t48 -115t-48 -115t-116 -47t-116 47t-48 115t48 115t116 47zM219 628q-35 0 -57.5 -23.5t-22.5 -60.5t22.5 -60.5t57.5 -23.5t57.5 23.5t22.5 60.5t-22.5 60.5t-57.5 23.5zM647 713l58 -43l-497 -683l-59 43zM632 318q68 0 116 -47t48 -115
t-48 -115t-116 -47t-116 47t-48 115t48 115t116 47zM632 240q-35 0 -57.5 -23.5t-22.5 -60.5t22.5 -60.5t57.5 -23.5t57.5 23.5t22.5 60.5t-22.5 60.5t-57.5 23.5z" />
    <glyph glyph-name="ampersand" unicode="&#x26;" horiz-adv-x="683" 
d="M697 49l-61 -69l-123 109q-75 -101 -216 -101q-95 0 -165.5 65.5t-70.5 153.5q0 60 31 109t85 78q-65 72 -65 144q0 75 61.5 124.5t139.5 49.5q68 0 118 -35t67 -97l-95 -27q-17 67 -94 67q-40 0 -67.5 -24t-27.5 -62q0 -35 24.5 -66.5t82.5 -83.5l-60 -70l-19 17
q-36 -18 -57 -50t-21 -72q0 -54 42 -91.5t100 -37.5q88 0 138 70l-79 71l61 70z" />
    <glyph glyph-name="quotesingle" unicode="'" horiz-adv-x="264" 
d="M178 429h-92l-10 271h111z" />
    <glyph glyph-name="parenleft" unicode="(" horiz-adv-x="352" 
d="M358 -101l-41 -73q-271 164 -271 479q0 309 270 478l43 -73q-208 -136 -208 -405q0 -275 207 -406z" />
    <glyph glyph-name="parenright" unicode=")" horiz-adv-x="352" 
d="M306 305q0 -315 -271 -479l-41 73q207 131 207 406q0 269 -208 405l43 73q270 -169 270 -478z" />
    <glyph glyph-name="asterisk" unicode="*" horiz-adv-x="494" 
d="M427 546l-121 -27l86 -95l-78 -56l-67 114l-67 -114l-78 56l85 95l-120 27l29 91l116 -51l-13 126h96l-12 -126l115 51z" />
    <glyph glyph-name="plus" unicode="+" 
d="M319 561v-206h206v-88h-206v-206h-88v206h-206v88h206v206h88z" />
    <glyph glyph-name="comma" unicode="," horiz-adv-x="250" 
d="M182 124l-68 -256h-98l52 256h114z" />
    <glyph glyph-name="hyphen" unicode="-" horiz-adv-x="457" 
d="M361 236h-265v91h265v-91z" />
    <glyph glyph-name="period" unicode="." horiz-adv-x="250" 
d="M183 0h-117v124h117v-124z" />
    <glyph glyph-name="slash" unicode="/" horiz-adv-x="375" 
d="M375 731l-291 -786l-84 32l291 786z" />
    <glyph glyph-name="zero" unicode="0" horiz-adv-x="553" 
d="M276 676q114 0 176.5 -91.5t62.5 -252.5t-62.5 -252.5t-176.5 -91.5q-113 0 -175.5 91.5t-62.5 252.5t62.5 252.5t175.5 91.5zM276 582q-63 0 -96.5 -63t-33.5 -187t34 -187t96 -63q63 0 97 63t34 187t-34 187t-97 63z" />
    <glyph glyph-name="one" unicode="1" horiz-adv-x="348" 
d="M257 0h-106v539q-5 -3 -98 -44v98q72 36 135 71h69v-664z" />
    <glyph glyph-name="two" unicode="2" horiz-adv-x="513" 
d="M485 92v-92h-428v90q160 168 232 273q58 85 58 135q0 39 -29.5 62.5t-70.5 23.5t-69.5 -28.5t-28.5 -72.5l-105 20q6 76 67.5 124.5t138.5 48.5q83 0 144 -49.5t61 -128.5q0 -84 -70 -183q-66 -94 -186 -223h286z" />
    <glyph glyph-name="three" unicode="3" horiz-adv-x="523" 
d="M159 289v101q61 2 91 9q38 11 61 36t23 59q0 38 -29 63.5t-75 25.5q-36 0 -64 -18.5t-38 -51.5l-90 37q20 57 72.5 91.5t121.5 34.5q92 0 151 -49t59 -129q0 -44 -22.5 -82.5t-60.5 -58.5q52 -18 83.5 -63t31.5 -101q0 -94 -65 -149.5t-161 -55.5q-68 0 -127 30.5
t-88 87.5l85 45q38 -70 125 -70q52 0 88 27.5t36 78.5q0 48 -39 78.5t-98 30.5q-38 0 -71 -7z" />
    <glyph glyph-name="four" unicode="4" horiz-adv-x="542" 
d="M424 0h-104v166h-295v105l291 393h108v-406h98v-92h-98v-166zM137 258h183v262z" />
    <glyph glyph-name="five" unicode="5" horiz-adv-x="503" 
d="M439 664v-92h-247q-7 -129 -12 -175q40 18 93 18q84 0 142.5 -59t58.5 -144q0 -96 -64 -160t-161 -64q-66 0 -126 31.5t-88 84.5l85 46q37 -69 119 -69q58 0 92.5 36t34.5 90q0 52 -35 84t-90 32q-60 0 -98 -41l-74 43q10 102 23 339h347z" />
    <glyph glyph-name="six" unicode="6" horiz-adv-x="539" 
d="M371 703l41 -91q-99 -44 -162.5 -101.5t-88.5 -143.5q56 56 141 56q87 0 143 -62t56 -151q0 -95 -61 -158.5t-155 -63.5q-112 0 -179.5 78.5t-67.5 188.5q0 153 94 271t239 177zM145 254q0 -74 32.5 -124t99.5 -50q53 0 85 37t32 92q0 54 -31.5 88t-83.5 34
q-42 0 -78.5 -20.5t-55.5 -56.5z" />
    <glyph glyph-name="seven" unicode="7" horiz-adv-x="458" 
d="M439 664v-73q-144 -301 -275 -615l-97 43l87 196.5l104 221l64 133.5h-312v94h429z" />
    <glyph glyph-name="eight" unicode="8" horiz-adv-x="562" 
d="M407 350q102 -57 102 -166q0 -83 -64 -139.5t-164 -56.5t-163.5 56.5t-63.5 139.5q0 109 101 166q-81 49 -81 144q0 77 58 129.5t149 52.5q92 0 150 -52.5t58 -129.5q0 -94 -82 -144zM281 299q-50 0 -85 -32t-35 -78q0 -47 34.5 -78t85.5 -31t86 31t35 78q0 46 -35.5 78
t-85.5 32zM281 584q-43 0 -73 -27t-30 -69q0 -40 30 -68.5t73 -28.5t73 28t30 69q0 42 -29.5 69t-73.5 27z" />
    <glyph glyph-name="nine" unicode="9" horiz-adv-x="539" 
d="M168 -38l-41 90q205 90 251 245q-57 -55 -141 -55q-87 0 -143 61.5t-56 151.5q0 94 61 157.5t155 63.5q112 0 179.5 -78t67.5 -189q0 -152 -94 -270t-239 -177zM394 411q0 74 -32.5 123.5t-99.5 49.5q-53 0 -85 -36.5t-32 -91.5t31.5 -89t83.5 -34q41 0 78 21t56 57z" />
    <glyph glyph-name="colon" unicode=":" horiz-adv-x="250" 
d="M183 382h-117v124h117v-124zM183 0h-117v124h117v-124z" />
    <glyph glyph-name="semicolon" unicode=";" horiz-adv-x="250" 
d="M182 124l-68 -256h-98l52 256h114zM182 382h-116v124h116v-124z" />
    <glyph glyph-name="less" unicode="&#x3c;" 
d="M21 270v83l507 202v-88l-391 -155l391 -156v-88z" />
    <glyph glyph-name="equal" unicode="=" 
d="M49 439h451v-88h-451v88zM49 272h451v-88h-451v88z" />
    <glyph glyph-name="greater" unicode="&#x3e;" 
d="M529 353v-83l-507 -202v88l391 156l-391 155v88z" />
    <glyph glyph-name="question" unicode="?" horiz-adv-x="542" 
d="M320 217h-108v163q37 13 59.5 22.5t48 27t38 41.5t12.5 55q0 39 -27.5 67t-69.5 28q-46 0 -73 -28t-27 -77v-11h-102v7q0 88 59 144t143 56q85 0 142 -56.5t57 -126.5q0 -44 -12 -78.5t-36 -58.5t-47 -38.5t-57 -30.5v-106zM324 0h-116v124h116v-124z" />
    <glyph glyph-name="at" unicode="@" horiz-adv-x="799" 
d="M548 -100q-74 -37 -154 -37q-142 0 -241.5 101t-99.5 243q0 144 100 244.5t242 100.5q155 0 253.5 -90.5t98.5 -234.5q0 -89 -40 -150t-116 -61q-74 0 -101 78q-34 -61 -113 -61q-69 0 -113 48.5t-44 120.5q0 68 43 119.5t115 51.5q55 0 98 -41v31h78v-153
q0 -68 11 -92.5t32 -24.5q32 0 48.5 38.5t16.5 93.5q0 113 -71.5 179.5t-194.5 66.5q-109 0 -183.5 -75.5t-74.5 -187.5q0 -111 74 -187.5t183 -76.5q61 0 121 30zM476 177v72q-38 52 -86 52q-45 0 -68 -29.5t-23 -70.5q0 -40 24 -68.5t65 -28.5q25 0 50 19.5t38 53.5z" />
    <glyph glyph-name="A" unicode="A" horiz-adv-x="662" 
d="M523 0l-52 144h-287l-52 -144h-118l275 700h91l267 -700h-124zM328 537l-109 -299h218l-108 299h-1z" />
    <glyph glyph-name="B" unicode="B" horiz-adv-x="616" 
d="M91 0v700h171q119 0 187 -44q76 -50 76 -147q0 -102 -102 -143q131 -40 131 -165q0 -59 -31 -104t-86 -69q-67 -28 -184 -28h-162zM198 312v-219h48q100 0 141 19q53 26 53 88q0 51 -36 81.5t-102 30.5h-104zM198 607v-202h62q158 0 158 99q0 55 -37 79t-139 24h-44z" />
    <glyph glyph-name="C" unicode="C" horiz-adv-x="674" 
d="M171 350q0 -122 72 -194.5t190 -72.5q81 0 153 52l58 -79q-96 -68 -213 -68q-160 0 -267 100.5t-107 261.5q0 153 110 257.5t266 104.5q103 0 194 -58l-51 -82q-70 45 -143 45q-114 0 -188 -75.5t-74 -191.5z" />
    <glyph glyph-name="D" unicode="D" horiz-adv-x="718" 
d="M91 0v700h192q71 0 135.5 -19.5t120 -58.5t89 -108.5t33.5 -160.5q0 -93 -33 -163.5t-89.5 -110.5t-123 -59.5t-141.5 -19.5h-183zM547 344q0 127 -73.5 194.5t-207.5 67.5h-68v-512h29q153 0 236.5 58t83.5 192z" />
    <glyph glyph-name="E" unicode="E" horiz-adv-x="580" 
d="M518 0h-427v700h427v-94h-320v-198h320v-94h-320v-220h320v-94z" />
    <glyph glyph-name="F" unicode="F" horiz-adv-x="497" 
d="M454 295h-256v-295h-107v700h363v-94h-256v-217h256v-94z" />
    <glyph glyph-name="G" unicode="G" horiz-adv-x="801" 
d="M617 298h-176v94h283v-268q-51 -66 -127 -101t-164 -35q-162 0 -269 101t-107 261q0 153 110 257.5t266 104.5q165 0 276 -127l-75 -64q-84 96 -201 96q-114 0 -188 -75.5t-74 -191.5q0 -121 72.5 -194t189.5 -73q109 0 184 72v143z" />
    <glyph glyph-name="H" unicode="H" horiz-adv-x="749" 
d="M658 0h-107v314h-353v-314h-107v700h107v-292h353v292h107v-700z" />
    <glyph glyph-name="I" unicode="I" horiz-adv-x="289" 
d="M198 0h-107v700h107v-700z" />
    <glyph glyph-name="J" unicode="J" horiz-adv-x="342" 
d="M256 700v-521q0 -90 -35 -137q-40 -54 -134 -54q-54 0 -109 24l31 87q32 -16 63 -16q46 0 62 24q15 20 15 86v507h107z" />
    <glyph glyph-name="K" unicode="K" horiz-adv-x="626" 
d="M609 700l-234 -278l246 -422h-125l-194 336l-104 -124v-212h-107v700h107v-340l280 340h131z" />
    <glyph glyph-name="L" unicode="L" horiz-adv-x="503" 
d="M498 0h-407v700h107v-606h300v-94z" />
    <glyph glyph-name="M" unicode="M" horiz-adv-x="931" 
d="M733 572l-232 -572h-75l-228 572v-572h-107v700h166l207 -533l211 533h165v-700h-107v572z" />
    <glyph glyph-name="N" unicode="N" horiz-adv-x="753" 
d="M662 0h-95l-369 502v-502h-107v700h94l370 -502v502h107v-700z" />
    <glyph glyph-name="O" unicode="O" horiz-adv-x="838" 
d="M667 350q0 113 -70.5 190t-177.5 77t-177.5 -77t-70.5 -190t70.5 -190t177.5 -77t177.5 77t70.5 190zM781 350q0 -151 -104.5 -256.5t-257.5 -105.5t-257.5 105.5t-104.5 256.5t104.5 256.5t257.5 105.5t257.5 -105.5t104.5 -256.5z" />
    <glyph glyph-name="P" unicode="P" horiz-adv-x="583" 
d="M91 700h212q62 0 116.5 -19.5t94.5 -69t40 -122.5q0 -56 -22.5 -98.5t-60 -66.5t-80 -36t-88.5 -12h-105v-276h-107v700zM198 606v-236h81q161 0 161 116q0 56 -39 88t-103 32h-100z" />
    <glyph glyph-name="Q" unicode="Q" horiz-adv-x="838" 
d="M770 2l-67 -67l-102 101q-82 -48 -182 -48q-153 0 -257.5 105.5t-104.5 256.5t104.5 256.5t257.5 105.5t257.5 -105.5t104.5 -256.5q0 -152 -104 -256zM499 271l104 -104q64 77 64 183q0 113 -70.5 190t-177.5 77t-177.5 -77t-70.5 -190t70.5 -190t177.5 -77q59 0 109 25
l-96 96z" />
    <glyph glyph-name="R" unicode="R" horiz-adv-x="618" 
d="M91 700h211q59 0 112 -19.5t92 -67t39 -116.5q0 -82 -47.5 -131t-118.5 -66l220 -300h-134l-206 292h-61v-292h-107v700zM198 606v-220h80q70 0 111.5 26.5t41.5 81.5q0 50 -37 81t-97 31h-99z" />
    <glyph glyph-name="S" unicode="S" horiz-adv-x="609" 
d="M460 560q-63 57 -146 57q-52 0 -84.5 -24t-32.5 -66q0 -17 8.5 -31.5t18 -23.5t32.5 -19.5t35 -15l43 -15.5q38 -13 61.5 -22.5t56.5 -28.5t51.5 -39.5t32.5 -53.5t14 -72q0 -56 -23 -99.5t-61 -68.5t-80.5 -37.5t-85.5 -12.5q-148 0 -257 108l75 71q47 -47 88 -65.5
t95 -18.5q56 0 95.5 28.5t39.5 84.5q0 21 -9 38.5t-21 29t-35 23.5t-39.5 18.5t-46.5 16.5q-42 15 -71.5 29.5t-60.5 37.5t-47 55.5t-16 73.5q0 94 61.5 144t152.5 50q124 0 221 -75z" />
    <glyph glyph-name="T" unicode="T" horiz-adv-x="489" 
d="M472 606h-174v-606h-107v606h-174v94h455v-94z" />
    <glyph glyph-name="U" unicode="U" horiz-adv-x="721" 
d="M634 700v-371q0 -169 -66.5 -255t-209.5 -86q-140 0 -205.5 86t-65.5 255v371h107v-394q0 -110 44 -166.5t122 -56.5q80 0 123.5 56.5t43.5 166.5v394h107z" />
    <glyph glyph-name="V" unicode="V" horiz-adv-x="643" 
d="M638 700l-275 -700h-91l-267 700h124l194 -536h1l196 536h118z" />
    <glyph glyph-name="W" unicode="W" horiz-adv-x="900" 
d="M502 700l135 -509h2l140 509h116l-200 -700h-107l-137 515h-2l-147 -515h-104l-193 700h119l134 -509h2l141 509h101z" />
    <glyph glyph-name="X" unicode="X" horiz-adv-x="665" 
d="M656 700l-253 -345l258 -355h-137l-195 268l-190 -268h-135l257 355l-249 345h139l186 -260l185 260h134z" />
    <glyph glyph-name="Y" unicode="Y" horiz-adv-x="568" 
d="M335 0h-107v302l-223 398h133l148 -284h2l150 284h125l-228 -403v-297z" />
    <glyph glyph-name="Z" unicode="Z" horiz-adv-x="551" 
d="M507 643l-321 -549h346v-94h-494v57l322 549h-314v94h461v-57z" />
    <glyph glyph-name="bracketleft" unicode="[" horiz-adv-x="316" 
d="M306 -168h-221v917h221v-86h-127v-746h127v-85z" />
    <glyph glyph-name="backslash" unicode="\" horiz-adv-x="373" 
d="M373 -23l-82 -32l-291 787l82 31z" />
    <glyph glyph-name="bracketright" unicode="]" horiz-adv-x="316" 
d="M231 -168h-221v85h127v746h-127v86h221v-917z" />
    <glyph glyph-name="asciicircum" unicode="^" 
d="M477 345h-91l-111 239l-111 -239h-91l151 340h102z" />
    <glyph glyph-name="underscore" unicode="_" 
d="M550 -232h-550v72h550v-72z" />
    <glyph glyph-name="grave" unicode="`" horiz-adv-x="360" 
d="M186 569l-137 163l73 57l126 -173z" />
    <glyph glyph-name="a" unicode="a" horiz-adv-x="553" 
d="M478 0h-95l-3 51q-55 -63 -148 -63q-76 0 -128 39.5t-52 116.5q0 46 19 79.5t52 52t71 27t82 8.5q43 0 99 -11v15q0 117 -115 117q-77 0 -159 -45l-29 83q102 48 204 48q202 0 202 -211v-307zM375 126v102q-45 9 -86 9q-34 0 -62 -6.5t-51 -27t-23 -54.5
q0 -40 26.5 -59.5t67.5 -19.5q62 0 128 56z" />
    <glyph glyph-name="b" unicode="b" horiz-adv-x="630" 
d="M80 750h103v-309q26 37 69.5 57t89.5 20q106 0 177 -77t71 -189q0 -106 -70.5 -185t-179.5 -79q-44 0 -87 18.5t-73 50.5l-2 -57h-98v750zM183 335v-181q25 -35 63 -54t77 -19q77 0 119.5 52t42.5 121q0 70 -44 120.5t-116 50.5q-42 0 -83 -23.5t-59 -66.5z" />
    <glyph glyph-name="c" unicode="c" horiz-adv-x="484" 
d="M408 117l52 -76q-62 -53 -161 -53q-111 0 -185 73.5t-74 191.5q0 111 76 188t187 77q85 0 152 -48l-50 -81q-47 36 -102 36q-66 0 -112 -50.5t-46 -121.5q0 -75 46.5 -123.5t111.5 -48.5q59 0 105 36z" />
    <glyph glyph-name="d" unicode="d" horiz-adv-x="630" 
d="M550 750v-750h-98l-3 67q-26 -38 -70 -58.5t-91 -20.5q-106 0 -177 77t-71 189q0 106 70.5 185t179.5 79q94 0 157 -66v298h103zM447 352q-25 35 -63 54t-77 19q-77 0 -119.5 -52t-42.5 -121q0 -70 44 -120.5t116 -50.5q42 0 83 23.5t59 66.5v181z" />
    <glyph glyph-name="e" unicode="e" horiz-adv-x="567" 
d="M144 227q5 -65 46.5 -108.5t106.5 -43.5q102 0 147 80l72 -47q-39 -62 -93 -91t-131 -29q-116 0 -184 74.5t-68 189.5q0 113 72.5 189.5t179.5 76.5q102 0 168.5 -67t66.5 -168q0 -31 -5 -56h-378zM420 306q-3 53 -38.5 89.5t-87.5 36.5q-56 0 -93 -35t-51 -91h270z" />
    <glyph glyph-name="f" unicode="f" horiz-adv-x="342" 
d="M374 738l-30 -84q-30 15 -66 15q-35 0 -54 -16q-23 -21 -23 -91v-56h135v-89h-135v-417h-103v417h-57v89h57v65q0 86 33 133q41 58 137 58q53 0 106 -24z" />
    <glyph glyph-name="g" unicode="g" horiz-adv-x="625" 
d="M447 183v169q-25 35 -63 54t-77 19q-78 0 -120 -49.5t-42 -117.5q0 -70 44 -117.5t116 -47.5q42 0 83 23.5t59 66.5zM447 77q-26 -37 -69.5 -57t-89.5 -20q-107 0 -177.5 74.5t-70.5 185.5q0 105 70.5 181.5t179.5 76.5q44 0 87 -18.5t73 -50.5l2 57h98v-479
q0 -80 -28 -133q-62 -118 -227 -118q-130 0 -227 68l40 87q37 -27 88 -44.5t96 -17.5q68 0 111.5 35.5t43.5 107.5v65z" />
    <glyph glyph-name="h" unicode="h" horiz-adv-x="609" 
d="M183 750v-322q28 43 71 66.5t91 23.5q96 0 144 -64q45 -62 45 -191v-263h-103v254q0 94 -24 132q-24 39 -83 39q-40 0 -78 -24.5t-63 -65.5v-335h-103v750h103z" />
    <glyph glyph-name="i" unicode="i" horiz-adv-x="263" 
d="M183 0h-103v506h103v-506zM183 598h-103v107h103v-107z" />
    <glyph glyph-name="j" unicode="j" horiz-adv-x="272" 
d="M191 598h-103v107h103v-107zM191 506v-549q0 -67 -18 -104q-35 -77 -137 -77q-57 0 -100 22l29 83q26 -14 57 -14q42 0 54 26.5t12 79.5v533h103z" />
    <glyph glyph-name="k" unicode="k" horiz-adv-x="524" 
d="M183 750v-486l2 -1l195 243h124l-179 -208l194 -298h-124l-138 218l-74 -86v-132h-103v750h103z" />
    <glyph glyph-name="l" unicode="l" horiz-adv-x="263" 
d="M183 750v-750h-103v750h103z" />
    <glyph glyph-name="m" unicode="m" horiz-adv-x="922" 
d="M847 0h-103v254q0 95 -22 132q-24 39 -82 39q-34 0 -69 -21t-61 -56q5 -43 5 -85v-263h-103v254q0 100 -25 136q-22 35 -74 35q-34 0 -69.5 -24t-60.5 -58v-343h-103v506h98l2 -73q29 39 71.5 62t85.5 23q93 0 139 -69q6 -9 12 -22q64 91 174 91q91 0 138 -61t47 -194
v-263z" />
    <glyph glyph-name="n" unicode="n" horiz-adv-x="609" 
d="M80 506h98l3 -80q28 44 71.5 68t92.5 24q96 0 144 -64q45 -62 45 -191v-263h-103v254q0 94 -24 132q-24 39 -83 39q-40 0 -78 -24.5t-63 -65.5v-335h-103v506z" />
    <glyph glyph-name="o" unicode="o" horiz-adv-x="600" 
d="M300 518q111 0 185.5 -76.5t74.5 -188.5t-74.5 -188.5t-185.5 -76.5q-112 0 -186 76.5t-74 188.5t74 188.5t186 76.5zM455 253q0 72 -44 122t-111 50t-111 -50t-44 -122t44 -122t111 -50t111 50t44 122z" />
    <glyph glyph-name="p" unicode="p" horiz-adv-x="630" 
d="M80 506h98l3 -67q26 38 70 58.5t91 20.5q106 0 177 -77t71 -189q0 -106 -70.5 -185t-179.5 -79q-94 0 -157 66v-304h-103v756zM183 335v-181q25 -35 63 -54t77 -19q77 0 119.5 52t42.5 121q0 70 -44 120.5t-116 50.5q-42 0 -83 -23.5t-59 -66.5z" />
    <glyph glyph-name="q" unicode="q" horiz-adv-x="630" 
d="M550 -250h-103v315q-26 -37 -69.5 -57t-89.5 -20q-106 0 -177 77t-71 189q0 106 70.5 185t179.5 79q44 0 87 -18.5t73 -50.5l2 57h98v-756zM447 171v181q-25 35 -63 54t-77 19q-77 0 -119.5 -52t-42.5 -121q0 -70 44 -120.5t116 -50.5q42 0 83 23.5t59 66.5z" />
    <glyph glyph-name="r" unicode="r" horiz-adv-x="361" 
d="M178 506l3 -79q52 91 128 91q31 0 58 -7l-21 -104q-21 11 -48 11q-70 0 -115 -78v-340h-103v506h98z" />
    <glyph glyph-name="s" unicode="s" horiz-adv-x="458" 
d="M394 460l-60 -65q-43 39 -100 39q-31 0 -50 -16.5t-19 -43.5q0 -17 15.5 -32t30.5 -22t47 -20q25 -10 41.5 -17.5t38.5 -21.5t35.5 -28.5t23 -36.5t9.5 -48q0 -80 -53.5 -120t-132.5 -40q-115 0 -182 81l68 59q53 -55 113 -55q36 0 60 18t24 51q0 18 -15.5 33.5t-31.5 23
t-49 20.5q-34 14 -51.5 22.5t-42.5 26.5t-36 42t-11 56q0 73 49 112.5t119 39.5q96 0 160 -58z" />
    <glyph glyph-name="t" unicode="t" horiz-adv-x="354" 
d="M328 417h-139v-220q0 -25 1 -40q2 -38 17 -57t47 -19q29 0 57 14l30 -81q-43 -24 -101 -24q-106 0 -139 86q-15 38 -15 100v241h-66v89h66l5 119h98v-119h139v-89z" />
    <glyph glyph-name="u" unicode="u" horiz-adv-x="609" 
d="M529 0h-98l-3 80q-28 -44 -71.5 -68t-92.5 -24q-96 0 -144 64q-45 62 -45 191v263h103v-254q0 -94 24 -132q24 -39 83 -39q40 0 78 24.5t63 65.5v335h103v-506z" />
    <glyph glyph-name="v" unicode="v" horiz-adv-x="492" 
d="M376 506h111l-200 -506h-88l-192 506h114l127 -375h2z" />
    <glyph glyph-name="w" unicode="w" horiz-adv-x="745" 
d="M427 506l98 -373h3l97 373h106l-147 -506h-109l-102 368h-2l-104 -368h-113l-140 506h111l90 -373h2l106 373h104z" />
    <glyph glyph-name="x" unicode="x" horiz-adv-x="516" 
d="M507 506l-184 -247l186 -259h-132l-121 180l-122 -180h-128l190 254l-178 252h131l116 -172l116 172h126z" />
    <glyph glyph-name="y" unicode="y" horiz-adv-x="490" 
d="M5 506h114l124 -364h2l128 364h112l-285 -735l-91 36l80 212z" />
    <glyph glyph-name="z" unicode="z" horiz-adv-x="461" 
d="M57 47l216 370h-227v89h364v-46l-217 -371h234v-89h-370v47z" />
    <glyph glyph-name="braceleft" unicode="{" horiz-adv-x="319" 
d="M308 -92v-87q-16 -1 -35 -1q-83 0 -134 56.5t-51 144.5v108q0 51 -20 86t-60 43l2 88q78 18 78 140v74q0 88 51 144.5t134 56.5q19 0 35 -1v-87q-20 2 -28 2q-98 0 -98 -141v-75q0 -105 -66 -157q66 -55 66 -158v-96q0 -142 98 -142q8 0 28 2z" />
    <glyph glyph-name="bar" unicode="|" horiz-adv-x="319" 
d="M205 -170h-90v1028h90v-1028z" />
    <glyph glyph-name="braceright" unicode="}" horiz-adv-x="319" 
d="M10 -179v87q20 -2 28 -2q98 0 98 142v96q0 103 66 158q-66 52 -66 157v75q0 141 -98 141q-8 0 -28 -2v87q16 1 35 1q83 0 134 -56.5t51 -144.5v-74q0 -122 78 -140l2 -88q-40 -8 -60 -43t-20 -86v-108q0 -88 -51 -144.5t-134 -56.5q-19 0 -35 1z" />
    <glyph glyph-name="asciitilde" unicode="~" 
d="M115 269l-84 -7q-2 14 -2 29q0 59 38.5 94t100.5 35q35 0 68.5 -14t55 -30.5t48 -30.5t49.5 -14q19 0 34 12.5t15 31.5q0 11 -2 16l84 7q2 -14 2 -29q0 -59 -38.5 -94t-99.5 -35q-36 0 -69.5 14t-55.5 30.5t-48 30.5t-49 14q-20 0 -34.5 -12.5t-14.5 -31.5q0 -10 2 -16z
" />
    <glyph glyph-name="uni00A0" unicode="&#xa0;" horiz-adv-x="250" 
 />
    <glyph glyph-name="exclamdown" unicode="&#xa1;" horiz-adv-x="319" 
d="M99 -194v115l11 368h100l10 -368v-115h-121zM101 506h117v-124h-117v124z" />
    <glyph glyph-name="cent" unicode="&#xa2;" 
d="M439 177l52 -77q-54 -43 -133 -51v-88h-69v89q-96 14 -157 85t-61 178q0 99 61.5 172t156.5 89v90h69v-88q71 -6 128 -46l-50 -81q-46 36 -102 36q-66 0 -111.5 -50.5t-45.5 -121.5q0 -75 46 -123.5t111 -48.5q59 0 105 36z" />
    <glyph glyph-name="sterling" unicode="&#xa3;" 
d="M491 0h-413v94h56v218h-56v92h56v49q0 97 58 160t148 63q87 0 153 -39l-43 -86q-37 33 -103 33q-110 0 -110 -155v-25h133v-92h-133v-218h254v-94z" />
    <glyph glyph-name="currency" unicode="&#xa4;" 
d="M58 325q0 66 38 121l-54 54l58 58l54 -53q55 37 121 37q65 0 121 -37l54 53l58 -58l-54 -54q38 -55 38 -121q0 -67 -38 -121l54 -53l-58 -58l-54 53q-55 -38 -121 -38q-67 0 -121 38l-54 -53l-58 58l54 53q-38 54 -38 121zM143 325q0 -55 38.5 -93.5t93.5 -38.5
t93.5 38.5t38.5 93.5t-38.5 93.5t-93.5 38.5t-93.5 -38.5t-38.5 -93.5z" />
    <glyph glyph-name="yen" unicode="&#xa5;" 
d="M52 256v79h143l-184 329h120l146 -267h2l140 267h119l-187 -329h142v-79h-168v-62h168v-78h-169v-116h-103v116h-169v78h168v62h-168z" />
    <glyph glyph-name="brokenbar" unicode="&#xa6;" horiz-adv-x="319" 
d="M205 -198h-90v380h90v-380zM205 370h-90v380h90v-380z" />
    <glyph glyph-name="section" unicode="&#xa7;" 
d="M452 657l-57 -69q-58 39 -128 39q-37 0 -65.5 -17t-28.5 -50q0 -9 2.5 -17t8.5 -14.5t12.5 -12t17.5 -11.5t19.5 -10t23.5 -9.5t24 -8.5l26.5 -8.5l26.5 -8.5q37 -12 63 -24t52.5 -31.5t40.5 -47.5t14 -64q0 -41 -25.5 -77.5t-68.5 -60.5q72 -41 72 -119
q0 -87 -60.5 -131.5t-155.5 -44.5q-134 0 -221 79l61 71q70 -64 158 -64q48 0 81 21t33 59q0 17 -10.5 31t-31.5 25t-39 17.5t-48 14.5l-55 16t-51.5 21t-49 30.5t-31 41.5t-13.5 58q0 103 96 147q-71 45 -71 121q0 78 57.5 120.5t138.5 42.5q106 0 182 -55zM325 192
q31 13 52.5 37.5t21.5 53.5q0 13 -4 23.5t-15 19.5t-19.5 15t-28.5 13.5l-30 11.5t-36 12t-35 11q-36 -12 -56.5 -36.5t-20.5 -53.5q0 -14 4.5 -25t15 -20t20 -15.5t28.5 -13.5t31 -11t36 -11t36 -11z" />
    <glyph glyph-name="dieresis" unicode="&#xa8;" horiz-adv-x="360" 
d="M126 598h-105v107h105v-107zM339 598h-105v107h105v-107z" />
    <glyph glyph-name="copyright" unicode="&#xa9;" horiz-adv-x="799" 
d="M54 333q0 143 101.5 244t244.5 101t244.5 -101t101.5 -244t-101.5 -244t-244.5 -101t-244.5 101t-101.5 244zM134 333q0 -110 78 -189t188 -79t188 79t78 189q0 111 -78 189.5t-188 78.5t-188 -78.5t-78 -189.5zM517 489l-38 -61q-36 22 -71 22q-49 0 -80.5 -33
t-31.5 -84q0 -56 30.5 -87t81.5 -31q40 0 75 26l41 -60q-56 -38 -114 -38q-84 0 -140.5 52.5t-56.5 137.5q0 80 57.5 134.5t139.5 54.5q54 0 107 -33z" />
    <glyph glyph-name="ordfeminine" unicode="&#xaa;" horiz-adv-x="383" 
d="M250 588v8q-2 72 -73 72q-52 0 -104 -29l-22 61q70 34 140 34q139 0 139 -144v-204h-71l-4 32q-34 -40 -97 -40q-50 0 -86 27.5t-36 77.5q0 59 43.5 85.5t107.5 26.5q27 0 63 -7zM250 537q-30 6 -50 6q-84 0 -84 -55q0 -25 16.5 -37.5t42.5 -12.5q35 0 75 33v66z" />
    <glyph glyph-name="guillemotleft" unicode="&#xab;" horiz-adv-x="544" 
d="M286 331l149 154l52 -92l-127 -122l127 -121l-52 -92l-149 155v118zM57 331l149 154l52 -92l-127 -122l127 -121l-52 -92l-149 155v118z" />
    <glyph glyph-name="logicalnot" unicode="&#xac;" 
d="M23 424h503v-297h-88v209h-415v88z" />
    <glyph glyph-name="uni00AD" unicode="&#xad;" horiz-adv-x="457" 
d="M361 236h-265v91h265v-91z" />
    <glyph glyph-name="registered" unicode="&#xae;" horiz-adv-x="575" 
d="M52 482q0 98 69 166.5t166 68.5q98 0 167 -68.5t69 -166.5q0 -97 -69 -165.5t-167 -68.5q-97 0 -166 68.5t-69 165.5zM399 362h-69l-61 88h-11v-88h-57v240h63q110 0 110 -73q0 -51 -47 -69zM258 556v-59q29 0 43 6t14 23q0 18 -12 24t-45 6zM117 482q0 -72 50 -122.5
t121 -50.5t121 50.5t50 122.5t-50 123t-121 51t-121 -51t-50 -123z" />
    <glyph glyph-name="macron" unicode="&#xaf;" horiz-adv-x="360" 
d="M334 608h-308v77h308v-77z" />
    <glyph glyph-name="degree" unicode="&#xb0;" horiz-adv-x="462" 
d="M76 541q0 63 45 107.5t109 44.5t109 -44.5t45 -107.5t-45 -107.5t-109 -44.5t-109 44.5t-45 107.5zM151 541q0 -34 23 -57t56 -23t56 23t23 57t-23 57t-56 23t-56 -23t-23 -57z" />
    <glyph glyph-name="plusminus" unicode="&#xb1;" 
d="M25 88h500v-88h-500v88zM319 642v-206h206v-88h-206v-206h-88v206h-206v88h206v206h88z" />
    <glyph glyph-name="twosuperior" unicode="&#xb2;" horiz-adv-x="322" 
d="M35 429q80 80 138 158q32 44 32 77q0 20 -14 32.5t-35 12.5q-22 0 -36 -15.5t-14 -41.5l-79 12q3 49 41 80t88 31q53 0 91.5 -30t38.5 -79q0 -56 -40 -111q-41 -57 -108 -122h165v-66h-268v62z" />
    <glyph glyph-name="threesuperior" unicode="&#xb3;" horiz-adv-x="326" 
d="M102 539v66q28 0 50 5q45 12 45 50q0 21 -15.5 35t-39.5 14q-44 0 -55 -41l-65 28q13 37 45.5 58t75.5 21q56 0 95 -29.5t39 -77.5q0 -57 -51 -86q32 -10 51 -37.5t19 -60.5q0 -56 -41 -89.5t-102 -33.5q-44 0 -82 20.5t-55 58.5l64 31q22 -43 71 -43q26 0 44.5 14.5
t18.5 40.5q0 28 -21.5 44t-54.5 16q-17 0 -36 -4z" />
    <glyph glyph-name="acute" unicode="&#xb4;" horiz-adv-x="360" 
d="M311 732l-137 -163l-62 47l126 173z" />
    <glyph glyph-name="mu" unicode="&#xb5;" 
d="M502 0h-98l-3 80q-28 -44 -71.5 -68t-92.5 -24t-85 18v-256h-104v756h103v-254q0 -94 24 -132q24 -39 83 -39q40 0 78 24.5t63 65.5v335h103v-506z" />
    <glyph glyph-name="paragraph" unicode="&#xb6;" 
d="M501 -175h-102v875h102v-875zM345 -175h-102v454q-87 12 -145.5 63.5t-58.5 146.5q0 73 39.5 122.5t94 69t116.5 19.5h56v-875zM140 489q0 -51 29.5 -80.5t73.5 -33.5v229q-44 -5 -73.5 -34.5t-29.5 -80.5z" />
    <glyph glyph-name="periodcentered" unicode="&#xb7;" horiz-adv-x="250" 
d="M183 256h-117v124h117v-124z" />
    <glyph glyph-name="cedilla" unicode="&#xb8;" horiz-adv-x="400" 
d="M191 1l-24 -65l1 -1q22 16 47 16q35 0 62 -27.5t27 -67.5q0 -41 -32 -72.5t-78 -31.5q-71 0 -106 62l59 29q12 -32 45 -32q18 0 30 12.5t12 29.5q0 19 -12.5 32.5t-31.5 13.5q-26 0 -38 -23l-64 33l44 104z" />
    <glyph glyph-name="onesuperior" unicode="&#xb9;" horiz-adv-x="219" 
d="M167 367h-79v312q-47 -21 -58 -25v71l85 44h52v-402z" />
    <glyph glyph-name="ordmasculine" unicode="&#xba;" horiz-adv-x="410" 
d="M205 734q77 0 127 -51t50 -127t-50 -127t-127 -51q-76 0 -126.5 51.5t-50.5 126.5t50.5 126.5t126.5 51.5zM300 556q0 46 -26.5 77.5t-68.5 31.5t-68.5 -31.5t-26.5 -77.5t26.5 -77.5t68.5 -31.5t68.5 31.5t26.5 77.5z" />
    <glyph glyph-name="guillemotright" unicode="&#xbb;" horiz-adv-x="544" 
d="M109 476l149 -146v-118l-149 -146l-52 84l127 120l-127 122zM338 476l149 -146v-118l-149 -146l-52 84l127 120l-127 122z" />
    <glyph glyph-name="onequarter" unicode="&#xbc;" horiz-adv-x="759" 
d="M581 713l59 -43l-498 -683l-59 43zM397 152l154 208h77v-211h51v-62h-51v-87h-75v87h-156v65zM553 149v114q-57 -86 -78 -114h78zM228 338h-76v277q-34 -16 -54 -24v69l34.5 17.5l43.5 22.5h52v-362z" />
    <glyph glyph-name="onehalf" unicode="&#xbd;" horiz-adv-x="784" 
d="M581 713l59 -43l-498 -683l-59 43zM458 57q70 67 126 142q28 38 28 66q0 18 -12 28t-31 10q-20 0 -31.5 -13.5t-11.5 -36.5l-75 13q3 45 38 73t83 28q47 0 82.5 -28t35.5 -73t-39 -98q-28 -40 -91 -105h144v-63h-246v57zM228 338h-76v277q-34 -16 -54 -24v69l34.5 17.5
l43.5 22.5h52v-362z" />
    <glyph glyph-name="threequarters" unicode="&#xbe;" horiz-adv-x="828" 
d="M650 713l59 -43l-497 -683l-59 43zM467 152l154 208h77v-211h50v-62h-50v-87h-75v87h-156v65zM623 149v114q-57 -86 -78 -114h78zM160 492v63q30 0 43 4q39 10 39 44q0 18 -12.5 29.5t-35.5 11.5q-37 0 -46 -37l-63 28q12 34 42 53t68 19q51 0 87 -26.5t36 -70.5
q0 -22 -12.5 -43.5t-32.5 -32.5q28 -11 45 -35t17 -55q0 -51 -38 -80.5t-92 -29.5q-41 0 -75 18.5t-51 54.5l63 29q17 -39 62 -39q23 0 38.5 12.5t15.5 35.5q0 24 -19 37t-49 13q-19 0 -30 -3z" />
    <glyph glyph-name="questiondown" unicode="&#xbf;" horiz-adv-x="542" 
d="M222 290h108v-163q-37 -13 -59.5 -22.5t-48 -27t-38 -41.5t-12.5 -55q0 -39 27.5 -67t69.5 -28q46 0 73 28t27 77v11h102v-7q0 -88 -59 -144t-143 -56q-85 0 -142 56.5t-57 126.5q0 44 12 78.5t36 58.5t47 38.5t57 30.5v106zM218 507h116v-124h-116v124z" />
    <glyph glyph-name="Agrave" unicode="&#xc0;" horiz-adv-x="662" 
d="M523 0l-52 144h-287l-52 -144h-118l275 700h91l267 -700h-124zM328 537l-109 -299h218l-108 299h-1zM353 738l-177 127l58 73l166 -139z" />
    <glyph glyph-name="Aacute" unicode="&#xc1;" horiz-adv-x="662" 
d="M523 0l-52 144h-287l-52 -144h-118l275 700h91l267 -700h-124zM328 537l-109 -299h218l-108 299h-1zM486 865l-177 -127l-47 61l166 139z" />
    <glyph glyph-name="Acircumflex" unicode="&#xc2;" horiz-adv-x="662" 
d="M523 0l-52 144h-287l-52 -144h-118l275 700h91l267 -700h-124zM328 537l-109 -299h218l-108 299h-1zM279 921h111l108 -132l-61 -47l-103 109l-105 -109l-61 47z" />
    <glyph glyph-name="Atilde" unicode="&#xc3;" horiz-adv-x="662" 
d="M523 0l-52 144h-287l-52 -144h-118l275 700h91l267 -700h-124zM328 537l-109 -299h218l-108 299h-1zM452 874l69 7q3 -12 3 -30q0 -44 -28.5 -70.5t-73.5 -26.5q-37 0 -83 30.5t-64 30.5q-29 0 -31 -28q0 -7 1 -10l-69 -7q-3 12 -3 30q0 44 28.5 70.5t73.5 26.5
q37 0 83.5 -30.5t63.5 -30.5q13 0 22 7.5t9 20.5q0 7 -1 10z" />
    <glyph glyph-name="Adieresis" unicode="&#xc4;" horiz-adv-x="662" 
d="M523 0l-52 144h-287l-52 -144h-118l275 700h91l267 -700h-124zM328 537l-109 -299h218l-108 299h-1zM255 763h-113v114h113v-114zM526 763h-113v114h113v-114z" />
    <glyph glyph-name="Aring" unicode="&#xc5;" horiz-adv-x="662" 
d="M523 0l-52 144h-287l-52 -144h-118l275 700h91l267 -700h-124zM328 537l-109 -299h218l-108 299h-1zM238 822q0 40 29 69t69 29t69 -29t29 -69t-29 -69t-69 -29t-69 29t-29 69zM292 822q0 -18 13 -31t31 -13t31 13t13 31t-13 31t-31 13t-31 -13t-13 -31z" />
    <glyph glyph-name="AE" unicode="&#xc6;" horiz-adv-x="992" 
d="M929 0h-427v145h-276l-101 -145h-135l513 700h426v-94h-319v-198h319v-94h-319v-220h319v-94zM290 238h212v303z" />
    <glyph glyph-name="Ccedilla" unicode="&#xc7;" horiz-adv-x="674" 
d="M171 350q0 -122 72 -194.5t190 -72.5q81 0 153 52l58 -79q-96 -68 -213 -68q-32 0 -56 4l-23 -56l2 -1q18 16 48 16q38 0 63 -27.5t25 -67.5q0 -41 -32 -72.5t-78 -31.5q-71 0 -106 62l60 29q11 -32 44 -32q18 0 30 12.5t12 29.5q0 18 -11 32t-30 14q-27 0 -41 -23
l-64 34l43 93q-117 32 -188.5 124.5t-71.5 222.5q0 153 110 257.5t266 104.5q103 0 194 -58l-51 -82q-70 45 -143 45q-114 0 -188 -75.5t-74 -191.5z" />
    <glyph glyph-name="Egrave" unicode="&#xc8;" horiz-adv-x="580" 
d="M518 0h-427v700h427v-94h-320v-198h320v-94h-320v-220h320v-94zM346 738l-177 127l58 73l166 -139z" />
    <glyph glyph-name="Eacute" unicode="&#xc9;" horiz-adv-x="580" 
d="M518 0h-427v700h427v-94h-320v-198h320v-94h-320v-220h320v-94zM453 865l-177 -127l-47 61l166 139z" />
    <glyph glyph-name="Ecircumflex" unicode="&#xca;" horiz-adv-x="580" 
d="M518 0h-427v700h427v-94h-320v-198h320v-94h-320v-220h320v-94zM255 921h111l108 -132l-61 -47l-103 109l-105 -109l-61 47z" />
    <glyph glyph-name="Edieresis" unicode="&#xcb;" horiz-adv-x="580" 
d="M252 763h-112v114h112v-114zM484 763h-112v114h112v-114zM518 0h-427v700h427v-94h-320v-198h320v-94h-320v-220h320v-94z" />
    <glyph glyph-name="Igrave" unicode="&#xcc;" horiz-adv-x="289" 
d="M198 0h-107v700h107v-700zM164 738l-177 127l58 73l166 -139z" />
    <glyph glyph-name="Iacute" unicode="&#xcd;" horiz-adv-x="289" 
d="M198 0h-107v700h107v-700zM306 865l-177 -127l-47 61l166 139z" />
    <glyph glyph-name="Icircumflex" unicode="&#xce;" horiz-adv-x="289" 
d="M198 0h-107v700h107v-700zM90 921h111l108 -132l-61 -47l-103 109l-105 -109l-61 47z" />
    <glyph glyph-name="Idieresis" unicode="&#xcf;" horiz-adv-x="289" 
d="M87 763h-114v114h114v-114zM316 763h-114v114h114v-114zM198 0h-107v700h107v-700z" />
    <glyph glyph-name="Eth" unicode="&#xd0;" horiz-adv-x="718" 
d="M91 0v319h-69v84h69v297h192q71 0 135.5 -19.5t120 -58.5t89 -108.5t33.5 -160.5q0 -93 -33 -163.5t-89.5 -110.5t-123 -59.5t-141.5 -19.5h-183zM547 344q0 127 -73.5 194.5t-207.5 67.5h-68v-203h119v-84h-119v-225h29q153 0 236.5 58t83.5 192z" />
    <glyph glyph-name="Ntilde" unicode="&#xd1;" horiz-adv-x="753" 
d="M662 0h-95l-369 502v-502h-107v700h94l370 -502v502h107v-700zM489 874l69 7q3 -12 3 -30q0 -44 -28.5 -70.5t-73.5 -26.5q-37 0 -83 30.5t-64 30.5q-29 0 -31 -28q0 -7 1 -10l-69 -7q-3 12 -3 30q0 44 28.5 70.5t73.5 26.5q37 0 83.5 -30.5t63.5 -30.5q13 0 22 7.5
t9 20.5q0 7 -1 10z" />
    <glyph glyph-name="Ograve" unicode="&#xd2;" horiz-adv-x="838" 
d="M667 350q0 113 -70.5 190t-177.5 77t-177.5 -77t-70.5 -190t70.5 -190t177.5 -77t177.5 77t70.5 190zM781 350q0 -151 -104.5 -256.5t-257.5 -105.5t-257.5 105.5t-104.5 256.5t104.5 256.5t257.5 105.5t257.5 -105.5t104.5 -256.5zM439 738l-177 127l58 73l166 -139z
" />
    <glyph glyph-name="Oacute" unicode="&#xd3;" horiz-adv-x="838" 
d="M667 350q0 113 -70.5 190t-177.5 77t-177.5 -77t-70.5 -190t70.5 -190t177.5 -77t177.5 77t70.5 190zM781 350q0 -151 -104.5 -256.5t-257.5 -105.5t-257.5 105.5t-104.5 256.5t104.5 256.5t257.5 105.5t257.5 -105.5t104.5 -256.5zM580 865l-177 -127l-47 61l166 139z
" />
    <glyph glyph-name="Ocircumflex" unicode="&#xd4;" horiz-adv-x="838" 
d="M667 350q0 113 -70.5 190t-177.5 77t-177.5 -77t-70.5 -190t70.5 -190t177.5 -77t177.5 77t70.5 190zM781 350q0 -151 -104.5 -256.5t-257.5 -105.5t-257.5 105.5t-104.5 256.5t104.5 256.5t257.5 105.5t257.5 -105.5t104.5 -256.5zM364 921h111l108 -132l-61 -47
l-103 109l-105 -109l-61 47z" />
    <glyph glyph-name="Otilde" unicode="&#xd5;" horiz-adv-x="838" 
d="M667 350q0 113 -70.5 190t-177.5 77t-177.5 -77t-70.5 -190t70.5 -190t177.5 -77t177.5 77t70.5 190zM781 350q0 -151 -104.5 -256.5t-257.5 -105.5t-257.5 105.5t-104.5 256.5t104.5 256.5t257.5 105.5t257.5 -105.5t104.5 -256.5zM543 874l69 7q3 -12 3 -30
q0 -44 -28.5 -70.5t-73.5 -26.5q-37 0 -83 30.5t-64 30.5q-29 0 -31 -28q0 -7 1 -10l-69 -7q-3 12 -3 30q0 44 28.5 70.5t73.5 26.5q37 0 83.5 -30.5t63.5 -30.5q13 0 22 7.5t9 20.5q0 7 -1 10z" />
    <glyph glyph-name="Odieresis" unicode="&#xd6;" horiz-adv-x="838" 
d="M667 350q0 113 -70.5 190t-177.5 77t-177.5 -77t-70.5 -190t70.5 -190t177.5 -77t177.5 77t70.5 190zM781 350q0 -151 -104.5 -256.5t-257.5 -105.5t-257.5 105.5t-104.5 256.5t104.5 256.5t257.5 105.5t257.5 -105.5t104.5 -256.5zM340 763h-113v114h113v-114zM611 763
h-113v114h113v-114z" />
    <glyph glyph-name="multiply" unicode="&#xd7;" 
d="M129 519l146 -146l146 146l62 -62l-146 -146l146 -146l-62 -62l-146 146l-146 -146l-62 62l146 146l-146 146z" />
    <glyph glyph-name="Oslash" unicode="&#xd8;" horiz-adv-x="838" 
d="M683 670l-29 -43q60 -51 93.5 -123t33.5 -154q0 -151 -104.5 -256.5t-257.5 -105.5q-90 0 -169 41l-33 -49l-74 46l35 52q-57 50 -89 120.5t-32 151.5q0 151 104.5 256.5t257.5 105.5q86 0 162 -38l29 43zM667 350q0 114 -71 191l-291 -430q51 -28 114 -28
q107 0 177.5 77t70.5 190zM171 350q0 -111 66 -185l289 427q-50 25 -107 25q-107 0 -177.5 -77t-70.5 -190z" />
    <glyph glyph-name="Ugrave" unicode="&#xd9;" horiz-adv-x="721" 
d="M634 700v-371q0 -169 -66.5 -255t-209.5 -86q-140 0 -205.5 86t-65.5 255v371h107v-394q0 -110 44 -166.5t122 -56.5q80 0 123.5 56.5t43.5 166.5v394h107zM380 738l-177 127l58 73l166 -139z" />
    <glyph glyph-name="Uacute" unicode="&#xda;" horiz-adv-x="721" 
d="M634 700v-371q0 -169 -66.5 -255t-209.5 -86q-140 0 -205.5 86t-65.5 255v371h107v-394q0 -110 44 -166.5t122 -56.5q80 0 123.5 56.5t43.5 166.5v394h107zM518 865l-177 -127l-47 61l166 139z" />
    <glyph glyph-name="Ucircumflex" unicode="&#xdb;" horiz-adv-x="721" 
d="M634 700v-371q0 -169 -66.5 -255t-209.5 -86q-140 0 -205.5 86t-65.5 255v371h107v-394q0 -110 44 -166.5t122 -56.5q80 0 123.5 56.5t43.5 166.5v394h107zM313 921h111l108 -132l-61 -47l-103 109l-105 -109l-61 47z" />
    <glyph glyph-name="Udieresis" unicode="&#xdc;" horiz-adv-x="721" 
d="M634 700v-371q0 -169 -66.5 -255t-209.5 -86q-140 0 -205.5 86t-65.5 255v371h107v-394q0 -110 44 -166.5t122 -56.5q80 0 123.5 56.5t43.5 166.5v394h107zM281 763h-113v114h113v-114zM552 763h-113v114h113v-114z" />
    <glyph glyph-name="Yacute" unicode="&#xdd;" horiz-adv-x="568" 
d="M335 0h-107v302l-223 398h133l148 -284h2l150 284h125l-228 -403v-297zM436 865l-177 -127l-47 61l166 139z" />
    <glyph glyph-name="Thorn" unicode="&#xde;" horiz-adv-x="599" 
d="M91 700h107v-134h105q62 0 116.5 -19.5t94.5 -69t40 -122.5q0 -56 -22.5 -98.5t-60 -66.5t-80 -36t-88.5 -12h-105v-142h-107v700zM440 352q0 56 -39 88t-103 32h-100v-236h81q161 0 161 116z" />
    <glyph glyph-name="germandbls" unicode="&#xdf;" horiz-adv-x="629" 
d="M179 0h-102v539q0 101 65 162t161 61q95 0 158 -55.5t63 -147.5q0 -41 -20.5 -77.5t-53.5 -59.5q64 -22 100 -73.5t36 -128.5q0 -104 -69 -168t-171 -64q-58 0 -104 25l35 86q32 -19 70 -19q67 0 101 38t34 102q0 72 -45 109.5t-117 37.5q-30 0 -45 -2v81h22
q47 0 85.5 30.5t38.5 79.5q0 51 -32 82.5t-84 31.5q-62 0 -94 -39.5t-32 -110.5v-520z" />
    <glyph glyph-name="agrave" unicode="&#xe0;" horiz-adv-x="553" 
d="M478 0h-95l-3 51q-55 -63 -148 -63q-76 0 -128 39.5t-52 116.5q0 46 19 79.5t52 52t71 27t82 8.5q43 0 99 -11v15q0 117 -115 117q-77 0 -159 -45l-29 83q102 48 204 48q202 0 202 -211v-307zM375 126v102q-45 9 -86 9q-34 0 -62 -6.5t-51 -27t-23 -54.5
q0 -40 26.5 -59.5t67.5 -19.5q62 0 128 56zM270 569l-137 163l73 57l126 -173z" />
    <glyph glyph-name="aacute" unicode="&#xe1;" horiz-adv-x="553" 
d="M478 0h-95l-3 51q-55 -63 -148 -63q-76 0 -128 39.5t-52 116.5q0 46 19 79.5t52 52t71 27t82 8.5q43 0 99 -11v15q0 117 -115 117q-77 0 -159 -45l-29 83q102 48 204 48q202 0 202 -211v-307zM375 126v102q-45 9 -86 9q-34 0 -62 -6.5t-51 -27t-23 -54.5
q0 -40 26.5 -59.5t67.5 -19.5q62 0 128 56zM411 732l-137 -163l-62 47l126 173z" />
    <glyph glyph-name="acircumflex" unicode="&#xe2;" horiz-adv-x="553" 
d="M478 0h-95l-3 51q-55 -63 -148 -63q-76 0 -128 39.5t-52 116.5q0 46 19 79.5t52 52t71 27t82 8.5q43 0 99 -11v15q0 117 -115 117q-77 0 -159 -45l-29 83q102 48 204 48q202 0 202 -211v-307zM375 126v102q-45 9 -86 9q-34 0 -62 -6.5t-51 -27t-23 -54.5
q0 -40 26.5 -59.5t67.5 -19.5q62 0 128 56zM210 778h104l103 -168l-60 -39l-96 135l-95 -135l-61 39z" />
    <glyph glyph-name="atilde" unicode="&#xe3;" horiz-adv-x="553" 
d="M478 0h-95l-3 51q-55 -63 -148 -63q-76 0 -128 39.5t-52 116.5q0 46 19 79.5t52 52t71 27t82 8.5q43 0 99 -11v15q0 117 -115 117q-77 0 -159 -45l-29 83q102 48 204 48q202 0 202 -211v-307zM375 126v102q-45 9 -86 9q-34 0 -62 -6.5t-51 -27t-23 -54.5
q0 -40 26.5 -59.5t67.5 -19.5q62 0 128 56zM166 605l-69 -7q-4 14 -4 26q0 44 29 70.5t74 26.5q38 0 84.5 -30.5t62.5 -30.5q29 0 31 29q0 6 -1 9l69 7q4 -14 4 -26q0 -44 -29 -70.5t-74 -26.5q-38 0 -84.5 30.5t-62.5 30.5q-29 0 -31 -29q0 -6 1 -9z" />
    <glyph glyph-name="adieresis" unicode="&#xe4;" horiz-adv-x="553" 
d="M478 0h-95l-3 51q-55 -63 -148 -63q-76 0 -128 39.5t-52 116.5q0 46 19 79.5t52 52t71 27t82 8.5q43 0 99 -11v15q0 117 -115 117q-77 0 -159 -45l-29 83q102 48 204 48q202 0 202 -211v-307zM375 126v102q-45 9 -86 9q-34 0 -62 -6.5t-51 -27t-23 -54.5
q0 -40 26.5 -59.5t67.5 -19.5q62 0 128 56zM214 598h-105v107h105v-107zM427 598h-105v107h105v-107z" />
    <glyph glyph-name="aring" unicode="&#xe5;" horiz-adv-x="553" 
d="M478 0h-95l-3 51q-55 -63 -148 -63q-76 0 -128 39.5t-52 116.5q0 46 19 79.5t52 52t71 27t82 8.5q43 0 99 -11v15q0 117 -115 117q-77 0 -159 -45l-29 83q102 48 204 48q202 0 202 -211v-307zM375 126v102q-45 9 -86 9q-34 0 -62 -6.5t-51 -27t-23 -54.5
q0 -40 26.5 -59.5t67.5 -19.5q62 0 128 56zM174 666q0 40 29 69t69 29t69 -29t29 -69t-29 -69t-69 -29t-69 29t-29 69zM228 666q0 -18 13 -31t31 -13t31 13t13 31t-13 31t-31 13t-31 -13t-13 -31z" />
    <glyph glyph-name="ae" unicode="&#xe6;" horiz-adv-x="898" 
d="M390 142q-14 38 -19 86q-41 9 -82 9q-34 0 -62 -6.5t-51 -27t-23 -54.5q0 -40 26.5 -59.5t67.5 -19.5q79 0 143 72zM775 155l73 -47q-40 -62 -93.5 -91t-130.5 -29q-125 0 -194 84q-76 -84 -198 -84q-76 0 -128 39.5t-52 116.5q0 46 19 79.5t52 52t71 27t82 8.5
q43 0 99 -11v15q0 117 -115 117q-77 0 -159 -45l-29 83q102 48 204 48q124 0 170 -80q70 80 178 80q101 0 167.5 -67t66.5 -168q0 -31 -5 -56h-378q6 -64 47 -108t107 -44q101 0 146 80zM625 432q-56 0 -93 -35t-51 -91h270q-3 53 -38.5 89.5t-87.5 36.5z" />
    <glyph glyph-name="ccedilla" unicode="&#xe7;" horiz-adv-x="484" 
d="M408 117l52 -76q-62 -53 -161 -53q-12 0 -18 1l-20 -53l1 -1q22 16 48 16q35 0 61.5 -27.5t26.5 -67.5q0 -41 -32 -72.5t-78 -31.5q-71 0 -106 62l60 29q11 -32 44 -32q18 0 30 12.5t12 29.5q0 19 -12.5 32.5t-30.5 13.5q-27 0 -39 -23l-64 33l38 90q-81 23 -130.5 91
t-49.5 163q0 111 76 188t187 77q85 0 152 -48l-50 -81q-47 36 -102 36q-66 0 -112 -50.5t-46 -121.5q0 -75 46.5 -123.5t111.5 -48.5q59 0 105 36z" />
    <glyph glyph-name="egrave" unicode="&#xe8;" horiz-adv-x="567" 
d="M144 227q5 -65 46.5 -108.5t106.5 -43.5q102 0 147 80l72 -47q-39 -62 -93 -91t-131 -29q-116 0 -184 74.5t-68 189.5q0 113 72.5 189.5t179.5 76.5q102 0 168.5 -67t66.5 -168q0 -31 -5 -56h-378zM420 306q-3 53 -38.5 89.5t-87.5 36.5q-56 0 -93 -35t-51 -91h270z
M285 569l-137 163l73 57l126 -173z" />
    <glyph glyph-name="eacute" unicode="&#xe9;" horiz-adv-x="567" 
d="M144 227q5 -65 46.5 -108.5t106.5 -43.5q102 0 147 80l72 -47q-39 -62 -93 -91t-131 -29q-116 0 -184 74.5t-68 189.5q0 113 72.5 189.5t179.5 76.5q102 0 168.5 -67t66.5 -168q0 -31 -5 -56h-378zM420 306q-3 53 -38.5 89.5t-87.5 36.5q-56 0 -93 -35t-51 -91h270z
M442 732l-137 -163l-62 47l126 173z" />
    <glyph glyph-name="ecircumflex" unicode="&#xea;" horiz-adv-x="567" 
d="M144 227q5 -65 46.5 -108.5t106.5 -43.5q102 0 147 80l72 -47q-39 -62 -93 -91t-131 -29q-116 0 -184 74.5t-68 189.5q0 113 72.5 189.5t179.5 76.5q102 0 168.5 -67t66.5 -168q0 -31 -5 -56h-378zM420 306q-3 53 -38.5 89.5t-87.5 36.5q-56 0 -93 -35t-51 -91h270z
M241 778h104l103 -168l-60 -39l-96 135l-95 -135l-61 39z" />
    <glyph glyph-name="edieresis" unicode="&#xeb;" horiz-adv-x="567" 
d="M144 227q5 -65 46.5 -108.5t106.5 -43.5q102 0 147 80l72 -47q-39 -62 -93 -91t-131 -29q-116 0 -184 74.5t-68 189.5q0 113 72.5 189.5t179.5 76.5q102 0 168.5 -67t66.5 -168q0 -31 -5 -56h-378zM420 306q-3 53 -38.5 89.5t-87.5 36.5q-56 0 -93 -35t-51 -91h270z
M239 598h-105v107h105v-107zM452 598h-105v107h105v-107z" />
    <glyph glyph-name="igrave" unicode="&#xec;" horiz-adv-x="263" 
d="M183 0h-103v506h103v-506zM121 569l-137 163l73 57l126 -173z" />
    <glyph glyph-name="iacute" unicode="&#xed;" horiz-adv-x="263" 
d="M183 0h-103v506h103v-506zM278 732l-137 -163l-62 47l126 173z" />
    <glyph glyph-name="icircumflex" unicode="&#xee;" horiz-adv-x="263" 
d="M183 0h-103v506h103v-506zM80 778h104l103 -168l-60 -39l-96 135l-95 -135l-61 39z" />
    <glyph glyph-name="idieresis" unicode="&#xef;" horiz-adv-x="263" 
d="M82 598h-105v107h105v-107zM288 598h-105v107h105v-107zM183 0h-103v506h103v-506z" />
    <glyph glyph-name="eth" unicode="&#xf0;" horiz-adv-x="581" 
d="M176 500l-69 41l54 94q-38 21 -95 44l38 87q57 -26 103 -49l52 92l71 -40l-52 -91q263 -166 263 -439q0 -105 -70.5 -178t-188.5 -73q-107 0 -174.5 73.5t-67.5 174.5q0 97 65.5 165t159.5 68q64 0 122 -32q-54 91 -156 158zM297 380q-66 0 -110 -38t-44 -107
q0 -65 41.5 -111.5t105.5 -46.5q75 0 111.5 48.5t36.5 123.5q0 42 -15 98q-57 33 -126 33z" />
    <glyph glyph-name="ntilde" unicode="&#xf1;" horiz-adv-x="609" 
d="M80 506h98l3 -80q28 44 71.5 68t92.5 24q96 0 144 -64q45 -62 45 -191v-263h-103v254q0 94 -24 132q-24 39 -83 39q-40 0 -78 -24.5t-63 -65.5v-335h-103v506zM222 605l-69 -7q-4 14 -4 26q0 44 29 70.5t74 26.5q38 0 84.5 -30.5t62.5 -30.5q29 0 31 29q0 6 -1 9l69 7
q4 -14 4 -26q0 -44 -29 -70.5t-74 -26.5q-38 0 -84.5 30.5t-62.5 30.5q-29 0 -31 -29q0 -6 1 -9z" />
    <glyph glyph-name="ograve" unicode="&#xf2;" horiz-adv-x="600" 
d="M300 518q111 0 185.5 -76.5t74.5 -188.5t-74.5 -188.5t-185.5 -76.5q-112 0 -186 76.5t-74 188.5t74 188.5t186 76.5zM455 253q0 72 -44 122t-111 50t-111 -50t-44 -122t44 -122t111 -50t111 50t44 122zM281 569l-137 163l73 57l126 -173z" />
    <glyph glyph-name="oacute" unicode="&#xf3;" horiz-adv-x="600" 
d="M300 518q111 0 185.5 -76.5t74.5 -188.5t-74.5 -188.5t-185.5 -76.5q-112 0 -186 76.5t-74 188.5t74 188.5t186 76.5zM455 253q0 72 -44 122t-111 50t-111 -50t-44 -122t44 -122t111 -50t111 50t44 122zM451 732l-137 -163l-62 47l126 173z" />
    <glyph glyph-name="ocircumflex" unicode="&#xf4;" horiz-adv-x="600" 
d="M300 518q111 0 185.5 -76.5t74.5 -188.5t-74.5 -188.5t-185.5 -76.5q-112 0 -186 76.5t-74 188.5t74 188.5t186 76.5zM455 253q0 72 -44 122t-111 50t-111 -50t-44 -122t44 -122t111 -50t111 50t44 122zM248 778h104l103 -168l-60 -39l-96 135l-95 -135l-61 39z" />
    <glyph glyph-name="otilde" unicode="&#xf5;" horiz-adv-x="600" 
d="M300 518q111 0 185.5 -76.5t74.5 -188.5t-74.5 -188.5t-185.5 -76.5q-112 0 -186 76.5t-74 188.5t74 188.5t186 76.5zM455 253q0 72 -44 122t-111 50t-111 -50t-44 -122t44 -122t111 -50t111 50t44 122zM205 605l-69 -7q-4 14 -4 26q0 44 29 70.5t74 26.5
q38 0 84.5 -30.5t62.5 -30.5q29 0 31 29q0 6 -1 9l69 7q4 -14 4 -26q0 -44 -29 -70.5t-74 -26.5q-38 0 -84.5 30.5t-62.5 30.5q-29 0 -31 -29q0 -6 1 -9z" />
    <glyph glyph-name="odieresis" unicode="&#xf6;" horiz-adv-x="600" 
d="M300 518q111 0 185.5 -76.5t74.5 -188.5t-74.5 -188.5t-185.5 -76.5q-112 0 -186 76.5t-74 188.5t74 188.5t186 76.5zM455 253q0 72 -44 122t-111 50t-111 -50t-44 -122t44 -122t111 -50t111 50t44 122zM246 598h-105v107h105v-107zM459 598h-105v107h105v-107z" />
    <glyph glyph-name="divide" unicode="&#xf7;" 
d="M24 268v87h501v-87h-501zM333 55h-117v124h117v-124zM333 444h-117v124h117v-124z" />
    <glyph glyph-name="oslash" unicode="&#xf8;" horiz-adv-x="600" 
d="M300 518q64 0 115 -27l25 37l59 -38l-26 -37q87 -79 87 -200q0 -112 -74.5 -188.5t-185.5 -76.5q-65 0 -121 29l-27 -40l-59 38l29 42q-82 77 -82 196q0 112 74 188.5t186 76.5zM455 253q0 68 -39 115l-183 -271q29 -16 67 -16q67 0 111 50t44 122zM145 253
q0 -64 34 -110l182 268q-26 14 -61 14q-67 0 -111 -50t-44 -122z" />
    <glyph glyph-name="ugrave" unicode="&#xf9;" horiz-adv-x="609" 
d="M529 0h-98l-3 80q-28 -44 -71.5 -68t-92.5 -24q-96 0 -144 64q-45 62 -45 191v263h103v-254q0 -94 24 -132q24 -39 83 -39q40 0 78 24.5t63 65.5v335h103v-506zM305 569l-137 163l73 57l126 -173z" />
    <glyph glyph-name="uacute" unicode="&#xfa;" horiz-adv-x="609" 
d="M529 0h-98l-3 80q-28 -44 -71.5 -68t-92.5 -24q-96 0 -144 64q-45 62 -45 191v263h103v-254q0 -94 24 -132q24 -39 83 -39q40 0 78 24.5t63 65.5v335h103v-506zM451 732l-137 -163l-62 47l126 173z" />
    <glyph glyph-name="ucircumflex" unicode="&#xfb;" horiz-adv-x="609" 
d="M529 0h-98l-3 80q-28 -44 -71.5 -68t-92.5 -24q-96 0 -144 64q-45 62 -45 191v263h103v-254q0 -94 24 -132q24 -39 83 -39q40 0 78 24.5t63 65.5v335h103v-506zM257 778h104l103 -168l-60 -39l-96 135l-95 -135l-61 39z" />
    <glyph glyph-name="udieresis" unicode="&#xfc;" horiz-adv-x="609" 
d="M529 0h-98l-3 80q-28 -44 -71.5 -68t-92.5 -24q-96 0 -144 64q-45 62 -45 191v263h103v-254q0 -94 24 -132q24 -39 83 -39q40 0 78 24.5t63 65.5v335h103v-506zM248 598h-105v107h105v-107zM461 598h-105v107h105v-107z" />
    <glyph glyph-name="yacute" unicode="&#xfd;" horiz-adv-x="490" 
d="M5 506h114l124 -364h2l128 364h112l-285 -735l-91 36l80 212zM380 732l-137 -163l-62 47l126 173z" />
    <glyph glyph-name="thorn" unicode="&#xfe;" horiz-adv-x="630" 
d="M80 750h104v-308q26 37 69 56.5t89 19.5q106 0 177 -77t71 -189q0 -106 -70.5 -185t-179.5 -79q-94 0 -156 65v-303h-104v1000zM184 336v-183q25 -35 62.5 -53.5t76.5 -18.5q77 0 119.5 52t42.5 121q0 70 -44 120.5t-116 50.5q-42 0 -82.5 -23t-58.5 -66z" />
    <glyph glyph-name="ydieresis" unicode="&#xff;" horiz-adv-x="490" 
d="M5 506h114l124 -364h2l128 364h112l-285 -735l-91 36l80 212zM193 598h-105v107h105v-107zM406 598h-105v107h105v-107z" />
    <glyph glyph-name="Amacron" unicode="&#x100;" horiz-adv-x="662" 
d="M523 0l-52 144h-287l-52 -144h-118l275 700h91l267 -700h-124zM328 537l-109 -299h218l-108 299h-1zM502 773h-338v77h338v-77z" />
    <glyph glyph-name="amacron" unicode="&#x101;" horiz-adv-x="553" 
d="M478 0h-95l-3 51q-55 -63 -148 -63q-76 0 -128 39.5t-52 116.5q0 46 19 79.5t52 52t71 27t82 8.5q43 0 99 -11v15q0 117 -115 117q-77 0 -159 -45l-29 83q102 48 204 48q202 0 202 -211v-307zM375 126v102q-45 9 -86 9q-34 0 -62 -6.5t-51 -27t-23 -54.5
q0 -40 26.5 -59.5t67.5 -19.5q62 0 128 56zM433 608h-308v77h308v-77z" />
    <glyph glyph-name="Abreve" unicode="&#x102;" horiz-adv-x="662" 
d="M523 0l-52 144h-287l-52 -144h-118l275 700h91l267 -700h-124zM328 537l-109 -299h218l-108 299h-1zM410 906h72v-7q0 -62 -42.5 -102t-105.5 -40t-105.5 40t-42.5 102v7h72v-8q0 -31 22 -50.5t54 -19.5t54 19.5t22 50.5v8z" />
    <glyph glyph-name="abreve" unicode="&#x103;" horiz-adv-x="553" 
d="M478 0h-95l-3 51q-55 -63 -148 -63q-76 0 -128 39.5t-52 116.5q0 46 19 79.5t52 52t71 27t82 8.5q43 0 99 -11v15q0 117 -115 117q-77 0 -159 -45l-29 83q102 48 204 48q202 0 202 -211v-307zM375 126v102q-45 9 -86 9q-34 0 -62 -6.5t-51 -27t-23 -54.5
q0 -40 26.5 -59.5t67.5 -19.5q62 0 128 56zM364 735h72v-18q0 -62 -43 -105t-105 -43t-105 43t-43 105v18h74v-19q0 -32 21.5 -54t52.5 -22q32 0 54 22t22 54v19z" />
    <glyph glyph-name="Aogonek" unicode="&#x104;" horiz-adv-x="662" 
d="M328 537l-109 -299h218l-108 299h-1zM442 -123q0 38 21.5 71.5t59.5 52.5l-52 143h-287l-52 -144h-118l275 700h91l267 -700q-59 -13 -87 -43.5t-28 -63.5q0 -43 44 -43q22 0 44 14l33 -57q-36 -31 -95 -31q-48 0 -82 27t-34 74z" />
    <glyph glyph-name="aogonek" unicode="&#x105;" horiz-adv-x="553" 
d="M375 126v102q-45 9 -86 9q-34 0 -62 -6.5t-51 -27t-23 -54.5q0 -40 26.5 -59.5t67.5 -19.5q62 0 128 56zM478 0q-40 -10 -73.5 -39t-33.5 -68q0 -43 44 -43q23 0 45 14l32 -57q-36 -31 -94 -31q-48 0 -82.5 27t-34.5 72q0 79 102 129l-3 47q-55 -63 -148 -63
q-76 0 -128 39.5t-52 116.5q0 46 19 79.5t52 52t71 27t82 8.5q43 0 99 -11v15q0 117 -115 117q-77 0 -159 -45l-29 83q102 48 204 48q202 0 202 -211v-307z" />
    <glyph glyph-name="Cacute" unicode="&#x106;" horiz-adv-x="674" 
d="M171 350q0 -122 72 -194.5t190 -72.5q81 0 153 52l58 -79q-96 -68 -213 -68q-160 0 -267 100.5t-107 261.5q0 153 110 257.5t266 104.5q103 0 194 -58l-51 -82q-70 45 -143 45q-114 0 -188 -75.5t-74 -191.5zM580 865l-177 -127l-47 61l166 139z" />
    <glyph glyph-name="cacute" unicode="&#x107;" horiz-adv-x="484" 
d="M408 117l52 -76q-62 -53 -161 -53q-111 0 -185 73.5t-74 191.5q0 111 76 188t187 77q85 0 152 -48l-50 -81q-47 36 -102 36q-66 0 -112 -50.5t-46 -121.5q0 -75 46.5 -123.5t111.5 -48.5q59 0 105 36zM451 732l-137 -163l-62 47l126 173z" />
    <glyph glyph-name="Ccircumflex" unicode="&#x108;" horiz-adv-x="674" 
d="M171 350q0 -122 72 -194.5t190 -72.5q81 0 153 52l58 -79q-96 -68 -213 -68q-160 0 -267 100.5t-107 261.5q0 153 110 257.5t266 104.5q103 0 194 -58l-51 -82q-70 45 -143 45q-114 0 -188 -75.5t-74 -191.5zM368 921h111l108 -132l-61 -47l-103 109l-105 -109l-61 47z
" />
    <glyph glyph-name="ccircumflex" unicode="&#x109;" horiz-adv-x="484" 
d="M408 117l52 -76q-62 -53 -161 -53q-111 0 -185 73.5t-74 191.5q0 111 76 188t187 77q85 0 152 -48l-50 -81q-47 36 -102 36q-66 0 -112 -50.5t-46 -121.5q0 -75 46.5 -123.5t111.5 -48.5q59 0 105 36zM242 778h104l103 -168l-60 -39l-96 135l-95 -135l-61 39z" />
    <glyph glyph-name="Cdotaccent" unicode="&#x10a;" horiz-adv-x="674" 
d="M171 350q0 -122 72 -194.5t190 -72.5q81 0 153 52l58 -79q-96 -68 -213 -68q-160 0 -267 100.5t-107 261.5q0 153 110 257.5t266 104.5q103 0 194 -58l-51 -82q-70 45 -143 45q-114 0 -188 -75.5t-74 -191.5zM475 763h-112v114h112v-114z" />
    <glyph glyph-name="cdotaccent" unicode="&#x10b;" horiz-adv-x="484" 
d="M408 117l52 -76q-62 -53 -161 -53q-111 0 -185 73.5t-74 191.5q0 111 76 188t187 77q85 0 152 -48l-50 -81q-47 36 -102 36q-66 0 -112 -50.5t-46 -121.5q0 -75 46.5 -123.5t111.5 -48.5q59 0 105 36zM336 598h-103v107h103v-107z" />
    <glyph glyph-name="Ccaron" unicode="&#x10c;" horiz-adv-x="674" 
d="M171 350q0 -122 72 -194.5t190 -72.5q81 0 153 52l58 -79q-96 -68 -213 -68q-160 0 -267 100.5t-107 261.5q0 153 110 257.5t266 104.5q103 0 194 -58l-51 -82q-70 45 -143 45q-114 0 -188 -75.5t-74 -191.5zM477 753h-111l-108 132l63 47l103 -109l105 109l59 -47z" />
    <glyph glyph-name="ccaron" unicode="&#x10d;" horiz-adv-x="484" 
d="M408 117l52 -76q-62 -53 -161 -53q-111 0 -185 73.5t-74 191.5q0 111 76 188t187 77q85 0 152 -48l-50 -81q-47 36 -102 36q-66 0 -112 -50.5t-46 -121.5q0 -75 46.5 -123.5t111.5 -48.5q59 0 105 36zM345 571h-104l-103 168l62 38l96 -135l95 135l59 -38z" />
    <glyph glyph-name="Dcaron" unicode="&#x10e;" horiz-adv-x="718" 
d="M91 0v700h192q71 0 135.5 -19.5t120 -58.5t89 -108.5t33.5 -160.5q0 -93 -33 -163.5t-89.5 -110.5t-123 -59.5t-141.5 -19.5h-183zM547 344q0 127 -73.5 194.5t-207.5 67.5h-68v-512h29q153 0 236.5 58t83.5 192zM379 753h-111l-108 132l63 47l103 -109l105 109l59 -47z
" />
    <glyph glyph-name="dcaron" unicode="&#x10f;" horiz-adv-x="648" 
d="M550 750v-750h-98l-3 67q-26 -38 -70 -58.5t-91 -20.5q-106 0 -177 77t-71 189q0 106 70.5 185t179.5 79q94 0 157 -66v298h103zM447 352q-25 35 -63 54t-77 19q-77 0 -119.5 -52t-42.5 -121q0 -70 44 -120.5t116 -50.5q42 0 83 23.5t59 66.5v181zM667 546h-86l40 204
h100z" />
    <glyph glyph-name="Dcroat" unicode="&#x110;" horiz-adv-x="718" 
d="M91 0v319h-69v84h69v297h192q71 0 135.5 -19.5t120 -58.5t89 -108.5t33.5 -160.5q0 -93 -33 -163.5t-89.5 -110.5t-123 -59.5t-141.5 -19.5h-183zM547 344q0 127 -73.5 194.5t-207.5 67.5h-68v-203h119v-84h-119v-225h29q153 0 236.5 58t83.5 192z" />
    <glyph glyph-name="dcroat" unicode="&#x111;" horiz-adv-x="630" 
d="M288 -12q-106 0 -177 77t-71 189q0 106 70.5 185t179.5 79q94 0 157 -66v135h-163v78h163v85h103v-85h70v-78h-70v-587h-98l-3 67q-26 -38 -70 -58.5t-91 -20.5zM305 81q42 0 83 23.5t59 66.5v181q-25 35 -63 54t-77 19q-77 0 -119.5 -52t-42.5 -121q0 -70 44 -120.5
t116 -50.5z" />
    <glyph glyph-name="Emacron" unicode="&#x112;" horiz-adv-x="580" 
d="M518 0h-427v700h427v-94h-320v-198h320v-94h-320v-220h320v-94zM481 773h-338v77h338v-77z" />
    <glyph glyph-name="emacron" unicode="&#x113;" horiz-adv-x="567" 
d="M144 227q5 -65 46.5 -108.5t106.5 -43.5q102 0 147 80l72 -47q-39 -62 -93 -91t-131 -29q-116 0 -184 74.5t-68 189.5q0 113 72.5 189.5t179.5 76.5q102 0 168.5 -67t66.5 -168q0 -31 -5 -56h-378zM420 306q-3 53 -38.5 89.5t-87.5 36.5q-56 0 -93 -35t-51 -91h270z
M448 608h-308v77h308v-77z" />
    <glyph glyph-name="Ebreve" unicode="&#x114;" horiz-adv-x="580" 
d="M518 0h-427v700h427v-94h-320v-198h320v-94h-320v-220h320v-94zM400 906h72v-7q0 -62 -42.5 -102t-105.5 -40t-105.5 40t-42.5 102v7h72v-8q0 -31 22 -50.5t54 -19.5t54 19.5t22 50.5v8z" />
    <glyph glyph-name="ebreve" unicode="&#x115;" horiz-adv-x="567" 
d="M144 227q5 -65 46.5 -108.5t106.5 -43.5q102 0 147 80l72 -47q-39 -62 -93 -91t-131 -29q-116 0 -184 74.5t-68 189.5q0 113 72.5 189.5t179.5 76.5q102 0 168.5 -67t66.5 -168q0 -31 -5 -56h-378zM420 306q-3 53 -38.5 89.5t-87.5 36.5q-56 0 -93 -35t-51 -91h270z
M369 735h72v-18q0 -62 -43 -105t-105 -43t-105 43t-43 105v18h74v-19q0 -32 21.5 -54t52.5 -22t53.5 22t22.5 54v19z" />
    <glyph glyph-name="Edotaccent" unicode="&#x116;" horiz-adv-x="580" 
d="M518 0h-427v700h427v-94h-320v-198h320v-94h-320v-220h320v-94zM370 763h-112v114h112v-114z" />
    <glyph glyph-name="edotaccent" unicode="&#x117;" horiz-adv-x="567" 
d="M144 227q5 -65 46.5 -108.5t106.5 -43.5q102 0 147 80l72 -47q-39 -62 -93 -91t-131 -29q-116 0 -184 74.5t-68 189.5q0 113 72.5 189.5t179.5 76.5q102 0 168.5 -67t66.5 -168q0 -31 -5 -56h-378zM420 306q-3 53 -38.5 89.5t-87.5 36.5q-56 0 -93 -35t-51 -91h270z
M340 598h-103v107h103v-107z" />
    <glyph glyph-name="Eogonek" unicode="&#x118;" horiz-adv-x="580" 
d="M91 0v700h427v-94h-320v-198h320v-94h-320v-220h320v-94q-58 -8 -89 -41t-31 -66q0 -43 44 -43q23 0 45 14l32 -57q-36 -31 -94 -31q-48 0 -82.5 27t-34.5 74q0 81 85 123h-302z" />
    <glyph glyph-name="eogonek" unicode="&#x119;" horiz-adv-x="567" 
d="M420 306q-3 53 -38.5 89.5t-87.5 36.5q-56 0 -93 -35t-51 -91h270zM144 227q5 -65 46.5 -108.5t106.5 -43.5q102 0 147 80l72 -47q-47 -75 -127 -106q-47 -18 -73.5 -44.5t-26.5 -56.5q0 -51 44 -51q22 0 45 14l32 -57q-36 -31 -95 -31q-49 0 -82.5 27t-33.5 74
q0 67 66 113q-103 10 -164 83t-61 179q0 113 72.5 189.5t179.5 76.5q102 0 168.5 -67t66.5 -168q0 -31 -5 -56h-378z" />
    <glyph glyph-name="Ecaron" unicode="&#x11a;" horiz-adv-x="580" 
d="M518 0h-427v700h427v-94h-320v-198h320v-94h-320v-220h320v-94zM363 753h-111l-108 132l63 47l103 -109l105 109l59 -47z" />
    <glyph glyph-name="ecaron" unicode="&#x11b;" horiz-adv-x="567" 
d="M144 227q5 -65 46.5 -108.5t106.5 -43.5q102 0 147 80l72 -47q-39 -62 -93 -91t-131 -29q-116 0 -184 74.5t-68 189.5q0 113 72.5 189.5t179.5 76.5q102 0 168.5 -67t66.5 -168q0 -31 -5 -56h-378zM420 306q-3 53 -38.5 89.5t-87.5 36.5q-56 0 -93 -35t-51 -91h270z
M344 571h-104l-103 168l62 38l96 -135l95 135l59 -38z" />
    <glyph glyph-name="Gcircumflex" unicode="&#x11c;" horiz-adv-x="801" 
d="M617 298h-176v94h283v-268q-51 -66 -127 -101t-164 -35q-162 0 -269 101t-107 261q0 153 110 257.5t266 104.5q165 0 276 -127l-75 -64q-84 96 -201 96q-114 0 -188 -75.5t-74 -191.5q0 -121 72.5 -194t189.5 -73q109 0 184 72v143zM378 921h111l108 -132l-61 -47
l-103 109l-105 -109l-61 47z" />
    <glyph glyph-name="gcircumflex" unicode="&#x11d;" horiz-adv-x="625" 
d="M447 183v169q-25 35 -63 54t-77 19q-78 0 -120 -49.5t-42 -117.5q0 -70 44 -117.5t116 -47.5q42 0 83 23.5t59 66.5zM447 77q-26 -37 -69.5 -57t-89.5 -20q-107 0 -177.5 74.5t-70.5 185.5q0 105 70.5 181.5t179.5 76.5q44 0 87 -18.5t73 -50.5l2 57h98v-479
q0 -80 -28 -133q-62 -118 -227 -118q-130 0 -227 68l40 87q37 -27 88 -44.5t96 -17.5q68 0 111.5 35.5t43.5 107.5v65zM244 778h104l103 -168l-60 -39l-96 135l-95 -135l-61 39z" />
    <glyph glyph-name="Gbreve" unicode="&#x11e;" horiz-adv-x="801" 
d="M617 298h-176v94h283v-268q-51 -66 -127 -101t-164 -35q-162 0 -269 101t-107 261q0 153 110 257.5t266 104.5q165 0 276 -127l-75 -64q-84 96 -201 96q-114 0 -188 -75.5t-74 -191.5q0 -121 72.5 -194t189.5 -73q109 0 184 72v143zM510 906h72v-7q0 -62 -42.5 -102
t-105.5 -40t-105.5 40t-42.5 102v7h72v-8q0 -31 22 -50.5t54 -19.5t54 19.5t22 50.5v8z" />
    <glyph glyph-name="gbreve" unicode="&#x11f;" horiz-adv-x="625" 
d="M447 183v169q-25 35 -63 54t-77 19q-78 0 -120 -49.5t-42 -117.5q0 -70 44 -117.5t116 -47.5q42 0 83 23.5t59 66.5zM447 77q-26 -37 -69.5 -57t-89.5 -20q-107 0 -177.5 74.5t-70.5 185.5q0 105 70.5 181.5t179.5 76.5q44 0 87 -18.5t73 -50.5l2 57h98v-479
q0 -80 -28 -133q-62 -118 -227 -118q-130 0 -227 68l40 87q37 -27 88 -44.5t96 -17.5q68 0 111.5 35.5t43.5 107.5v65zM380 735h72v-18q0 -62 -43 -105t-105 -43t-105 43t-43 105v18h74v-19q0 -32 21.5 -54t52.5 -22q32 0 54 22t22 54v19z" />
    <glyph glyph-name="Gdotaccent" unicode="&#x120;" horiz-adv-x="801" 
d="M617 298h-176v94h283v-268q-51 -66 -127 -101t-164 -35q-162 0 -269 101t-107 261q0 153 110 257.5t266 104.5q165 0 276 -127l-75 -64q-84 96 -201 96q-114 0 -188 -75.5t-74 -191.5q0 -121 72.5 -194t189.5 -73q109 0 184 72v143zM476 763h-112v114h112v-114z" />
    <glyph glyph-name="gdotaccent" unicode="&#x121;" horiz-adv-x="625" 
d="M447 183v169q-25 35 -63 54t-77 19q-78 0 -120 -49.5t-42 -117.5q0 -70 44 -117.5t116 -47.5q42 0 83 23.5t59 66.5zM447 77q-26 -37 -69.5 -57t-89.5 -20q-107 0 -177.5 74.5t-70.5 185.5q0 105 70.5 181.5t179.5 76.5q44 0 87 -18.5t73 -50.5l2 57h98v-479
q0 -80 -28 -133q-62 -118 -227 -118q-130 0 -227 68l40 87q37 -27 88 -44.5t96 -17.5q68 0 111.5 35.5t43.5 107.5v65zM347 598h-103v107h103v-107z" />
    <glyph glyph-name="Gcommaaccent" unicode="&#x122;" horiz-adv-x="801" 
d="M617 298h-176v94h283v-268q-51 -66 -127 -101t-164 -35q-162 0 -269 101t-107 261q0 153 110 257.5t266 104.5q165 0 276 -127l-75 -64q-84 96 -201 96q-114 0 -188 -75.5t-74 -191.5q0 -121 72.5 -194t189.5 -73q109 0 184 72v143zM407 -235h-83l36 178h96z" />
    <glyph glyph-name="gcommaaccent" unicode="&#x123;" horiz-adv-x="625" 
d="M447 183v169q-25 35 -63 54t-77 19q-78 0 -120 -49.5t-42 -117.5q0 -70 44 -117.5t116 -47.5q42 0 83 23.5t59 66.5zM447 77q-26 -37 -69.5 -57t-89.5 -20q-107 0 -177.5 74.5t-70.5 185.5q0 105 70.5 181.5t179.5 76.5q44 0 87 -18.5t73 -50.5l2 57h98v-479
q0 -80 -28 -133q-62 -118 -227 -118q-130 0 -227 68l40 87q37 -27 88 -44.5t96 -17.5q68 0 111.5 35.5t43.5 107.5v65zM296 752h86l-37 -182h-98z" />
    <glyph glyph-name="Hcircumflex" unicode="&#x124;" horiz-adv-x="749" 
d="M658 0h-107v314h-353v-314h-107v700h107v-292h353v292h107v-700zM320 921h111l108 -132l-61 -47l-103 109l-105 -109l-61 47z" />
    <glyph glyph-name="hcircumflex" unicode="&#x125;" horiz-adv-x="609" 
d="M183 750v-322q28 43 71 66.5t91 23.5q96 0 144 -64q45 -62 45 -191v-263h-103v254q0 94 -24 132q-24 39 -83 39q-40 0 -78 -24.5t-63 -65.5v-335h-103v750h103zM76 927h111l108 -132l-61 -47l-103 109l-105 -109l-61 47z" />
    <glyph glyph-name="Hbar" unicode="&#x126;" horiz-adv-x="749" 
d="M658 0h-107v314h-353v-314h-107v512h-89v81h89v107h107v-107h353v107h107v-107h89v-81h-89v-512zM198 408h353v104h-353v-104z" />
    <glyph glyph-name="hbar" unicode="&#x127;" horiz-adv-x="609" 
d="M183 750v-85h164v-78h-164v-159q28 43 71 66.5t91 23.5q96 0 144 -64q45 -62 45 -191v-263h-103v254q0 94 -24 132q-24 39 -83 39q-40 0 -78 -24.5t-63 -65.5v-335h-103v587h-70v78h70v85h103z" />
    <glyph glyph-name="Itilde" unicode="&#x128;" horiz-adv-x="289" 
d="M198 0h-107v700h107v-700zM249 874l69 7q3 -12 3 -30q0 -44 -28.5 -70.5t-73.5 -26.5q-37 0 -83 30.5t-64 30.5q-29 0 -31 -28q0 -7 1 -10l-69 -7q-3 12 -3 30q0 44 28.5 70.5t73.5 26.5q37 0 83.5 -30.5t63.5 -30.5q13 0 22 7.5t9 20.5q0 7 -1 10z" />
    <glyph glyph-name="itilde" unicode="&#x129;" horiz-adv-x="263" 
d="M183 0h-103v506h103v-506zM29 605l-69 -7q-4 14 -4 26q0 44 29 70.5t74 26.5q38 0 84.5 -30.5t62.5 -30.5q29 0 31 29q0 6 -1 9l69 7q4 -14 4 -26q0 -44 -29 -70.5t-74 -26.5q-38 0 -84.5 30.5t-62.5 30.5q-29 0 -31 -29q0 -6 1 -9z" />
    <glyph glyph-name="Imacron" unicode="&#x12a;" horiz-adv-x="289" 
d="M198 0h-107v700h107v-700zM314 773h-338v77h338v-77z" />
    <glyph glyph-name="imacron" unicode="&#x12b;" horiz-adv-x="263" 
d="M183 0h-103v506h103v-506zM286 608h-308v77h308v-77z" />
    <glyph glyph-name="Ibreve" unicode="&#x12c;" horiz-adv-x="289" 
d="M198 0h-107v700h107v-700zM221 906h72v-7q0 -62 -42.5 -102t-105.5 -40t-105.5 40t-42.5 102v7h72v-8q0 -31 22 -50.5t54 -19.5t54 19.5t22 50.5v8z" />
    <glyph glyph-name="ibreve" unicode="&#x12d;" horiz-adv-x="263" 
d="M183 0h-103v506h103v-506zM208 735h72v-18q0 -62 -43 -105t-105 -43t-105 43t-43 105v18h74v-19q0 -32 21.5 -54t52.5 -22q32 0 54 22t22 54v19z" />
    <glyph glyph-name="Iogonek" unicode="&#x12e;" horiz-adv-x="289" 
d="M91 3v697h107v-700q-52 -14 -76.5 -44t-24.5 -63q0 -43 44 -43q22 0 45 14l32 -57q-36 -31 -94 -31q-48 0 -82.5 27t-34.5 74q0 40 22 73.5t62 52.5z" />
    <glyph glyph-name="iogonek" unicode="&#x12f;" horiz-adv-x="263" 
d="M183 598h-103v107h103v-107zM80 3v503h103v-506q-49 -14 -72.5 -43t-23.5 -58q0 -49 43 -49q23 0 45 14l33 -57q-37 -31 -95 -31q-48 0 -82.5 27t-34.5 74q0 85 84 126z" />
    <glyph glyph-name="Idotaccent" unicode="&#x130;" horiz-adv-x="289" 
d="M201 763h-113v114h113v-114zM198 0h-107v700h107v-700z" />
    <glyph glyph-name="dotlessi" unicode="&#x131;" horiz-adv-x="263" 
d="M183 0h-103v506h103v-506z" />
    <glyph glyph-name="IJ" unicode="&#x132;" horiz-adv-x="646" 
d="M560 700v-521q0 -90 -35 -137q-41 -54 -134 -54q-54 0 -109 24l31 87q32 -16 63 -16q46 0 62 24q15 20 15 86v507h107zM198 0h-107v700h107v-700z" />
    <glyph glyph-name="ij" unicode="&#x133;" horiz-adv-x="536" 
d="M183 0h-103v506h103v-506zM183 598h-103v107h103v-107zM455 598h-103v107h103v-107zM455 506v-548q0 -67 -18 -104q-35 -77 -137 -77q-57 0 -100 22l29 83q26 -14 57 -14q42 0 54 26.5t12 79.5v532h103z" />
    <glyph glyph-name="Jcircumflex" unicode="&#x134;" horiz-adv-x="342" 
d="M256 700v-521q0 -90 -35 -137q-40 -54 -134 -54q-54 0 -109 24l31 87q32 -16 63 -16q46 0 62 24q15 20 15 86v507h107zM148 921h111l108 -132l-61 -47l-103 109l-105 -109l-61 47z" />
    <glyph glyph-name="jcircumflex" unicode="&#x135;" horiz-adv-x="272" 
d="M191 506v-548q0 -67 -18 -104q-35 -77 -137 -77q-57 0 -100 22l29 83q26 -14 57 -14q42 0 54 26.5t12 79.5v532h103zM88 778h104l103 -168l-60 -39l-96 135l-95 -135l-61 39z" />
    <glyph glyph-name="Kcommaaccent" unicode="&#x136;" horiz-adv-x="626" 
d="M609 700l-234 -278l246 -422h-125l-194 336l-104 -124v-212h-107v700h107v-340l280 340h131zM327 -235h-83l36 178h96z" />
    <glyph glyph-name="kcommaaccent" unicode="&#x137;" horiz-adv-x="524" 
d="M183 750v-486l2 -1l195 243h124l-179 -208l194 -298h-124l-138 218l-74 -86v-132h-103v750h103zM271 -235h-83l36 178h96z" />
    <glyph glyph-name="kgreenlandic" unicode="&#x138;" horiz-adv-x="524" 
d="M80 506h103v-242l2 -1l195 243h124l-179 -208l194 -298h-124l-138 218l-74 -86v-132h-103v506z" />
    <glyph glyph-name="Lacute" unicode="&#x139;" horiz-adv-x="503" 
d="M498 0h-407v700h107v-606h300v-94zM317 865l-177 -127l-47 61l166 139z" />
    <glyph glyph-name="lacute" unicode="&#x13a;" horiz-adv-x="263" 
d="M183 750v-750h-103v750h103zM290 909l-177 -127l-47 61l166 139z" />
    <glyph glyph-name="Lcommaaccent" unicode="&#x13b;" horiz-adv-x="503" 
d="M498 0h-407v700h107v-606h300v-94zM305 -235h-83l36 178h96z" />
    <glyph glyph-name="lcommaaccent" unicode="&#x13c;" horiz-adv-x="263" 
d="M183 750v-750h-103v750h103zM128 -235h-83l36 178h96z" />
    <glyph glyph-name="Lcaron" unicode="&#x13d;" horiz-adv-x="503" 
d="M498 0h-407v700h107v-606h300v-94zM355 496h-86l40 204h100z" />
    <glyph glyph-name="lcaron" unicode="&#x13e;" horiz-adv-x="277" 
d="M183 750v-750h-103v750h103zM300 546h-86l40 204h100z" />
    <glyph glyph-name="Ldot" unicode="&#x13f;" horiz-adv-x="506" 
d="M498 0h-407v700h107v-606h300v-94zM464 313h-112v114h112v-114z" />
    <glyph glyph-name="ldot" unicode="&#x140;" horiz-adv-x="295" 
d="M183 750v-750h-103v750h103zM337 314h-112v114h112v-114z" />
    <glyph glyph-name="Lslash" unicode="&#x141;" horiz-adv-x="503" 
d="M498 0h-407v269l-89 -58v101l89 57v331h107v-277l147 96v-101l-147 -95v-229h300v-94z" />
    <glyph glyph-name="lslash" unicode="&#x142;" horiz-adv-x="263" 
d="M183 0h-103v310l-67 -43v99l67 43v341h103v-289l69 45v-100l-69 -44v-362z" />
    <glyph glyph-name="Nacute" unicode="&#x143;" horiz-adv-x="753" 
d="M662 0h-95l-369 502v-502h-107v700h94l370 -502v502h107v-700zM541 865l-177 -127l-47 61l166 139z" />
    <glyph glyph-name="nacute" unicode="&#x144;" horiz-adv-x="609" 
d="M80 506h98l3 -80q28 44 71.5 68t92.5 24q96 0 144 -64q45 -62 45 -191v-263h-103v254q0 94 -24 132q-24 39 -83 39q-40 0 -78 -24.5t-63 -65.5v-335h-103v506zM464 732l-137 -163l-62 47l126 173z" />
    <glyph glyph-name="Ncommaaccent" unicode="&#x145;" horiz-adv-x="753" 
d="M662 0h-95l-369 502v-502h-107v700h94l370 -502v502h107v-700zM367 -235h-83l36 178h96z" />
    <glyph glyph-name="ncommaaccent" unicode="&#x146;" horiz-adv-x="609" 
d="M80 506h98l3 -80q28 44 71.5 68t92.5 24q96 0 144 -64q45 -62 45 -191v-263h-103v254q0 94 -24 132q-24 39 -83 39q-40 0 -78 -24.5t-63 -65.5v-335h-103v506zM306 -235h-83l36 178h96z" />
    <glyph glyph-name="Ncaron" unicode="&#x147;" horiz-adv-x="753" 
d="M662 0h-95l-369 502v-502h-107v700h94l370 -502v502h107v-700zM438 753h-111l-108 132l63 47l103 -109l105 109l59 -47z" />
    <glyph glyph-name="ncaron" unicode="&#x148;" horiz-adv-x="609" 
d="M80 506h98l3 -80q28 44 71.5 68t92.5 24q96 0 144 -64q45 -62 45 -191v-263h-103v254q0 94 -24 132q-24 39 -83 39q-40 0 -78 -24.5t-63 -65.5v-335h-103v506zM369 571h-104l-103 168l62 38l96 -135l95 135l59 -38z" />
    <glyph glyph-name="napostrophe" unicode="&#x149;" horiz-adv-x="618" 
d="M77 512h-96l50 245h111zM110 506h98l3 -80q28 44 71.5 68t92.5 24q96 0 144 -64q45 -62 45 -191v-263h-103v254q0 94 -24 132q-24 39 -83 39q-40 0 -78 -24.5t-63 -65.5v-335h-103v506z" />
    <glyph glyph-name="Eng" unicode="&#x14a;" horiz-adv-x="753" 
d="M662 700v-732q0 -90 -35 -137q-41 -54 -134 -54q-54 0 -109 24l31 87q32 -16 63 -16q46 0 62 24q15 20 15 86v34l-357 486v-502h-107v700h94l370 -502v502h107z" />
    <glyph glyph-name="eng" unicode="&#x14b;" horiz-adv-x="609" 
d="M80 506h98l3 -80q28 44 71.5 68t92.5 24q96 0 144 -64q45 -62 45 -191v-305q0 -67 -18 -104q-35 -77 -137 -77q-57 0 -100 22l29 83q26 -14 57 -14q42 0 54 26.5t12 79.5v280q0 94 -24 132q-24 39 -83 39q-40 0 -78 -24.5t-63 -65.5v-335h-103v506z" />
    <glyph glyph-name="Omacron" unicode="&#x14c;" horiz-adv-x="838" 
d="M667 350q0 113 -70.5 190t-177.5 77t-177.5 -77t-70.5 -190t70.5 -190t177.5 -77t177.5 77t70.5 190zM781 350q0 -151 -104.5 -256.5t-257.5 -105.5t-257.5 105.5t-104.5 256.5t104.5 256.5t257.5 105.5t257.5 -105.5t104.5 -256.5zM588 773h-338v77h338v-77z" />
    <glyph glyph-name="omacron" unicode="&#x14d;" horiz-adv-x="600" 
d="M300 518q111 0 185.5 -76.5t74.5 -188.5t-74.5 -188.5t-185.5 -76.5q-112 0 -186 76.5t-74 188.5t74 188.5t186 76.5zM455 253q0 72 -44 122t-111 50t-111 -50t-44 -122t44 -122t111 -50t111 50t44 122zM454 608h-308v77h308v-77z" />
    <glyph glyph-name="Obreve" unicode="&#x14e;" horiz-adv-x="838" 
d="M667 350q0 113 -70.5 190t-177.5 77t-177.5 -77t-70.5 -190t70.5 -190t177.5 -77t177.5 77t70.5 190zM781 350q0 -151 -104.5 -256.5t-257.5 -105.5t-257.5 105.5t-104.5 256.5t104.5 256.5t257.5 105.5t257.5 -105.5t104.5 -256.5zM495 906h72v-7q0 -62 -42.5 -102
t-105.5 -40t-105.5 40t-42.5 102v7h72v-8q0 -31 22 -50.5t54 -19.5t54 19.5t22 50.5v8z" />
    <glyph glyph-name="obreve" unicode="&#x14f;" horiz-adv-x="600" 
d="M300 518q111 0 185.5 -76.5t74.5 -188.5t-74.5 -188.5t-185.5 -76.5q-112 0 -186 76.5t-74 188.5t74 188.5t186 76.5zM455 253q0 72 -44 122t-111 50t-111 -50t-44 -122t44 -122t111 -50t111 50t44 122zM376 735h72v-18q0 -62 -43 -105t-105 -43t-105 43t-43 105v18h74
v-19q0 -32 21.5 -54t52.5 -22q32 0 54 22t22 54v19z" />
    <glyph glyph-name="Ohungarumlaut" unicode="&#x150;" horiz-adv-x="838" 
d="M667 350q0 113 -70.5 190t-177.5 77t-177.5 -77t-70.5 -190t70.5 -190t177.5 -77t177.5 77t70.5 190zM781 350q0 -151 -104.5 -256.5t-257.5 -105.5t-257.5 105.5t-104.5 256.5t104.5 256.5t257.5 105.5t257.5 -105.5t104.5 -256.5zM469 865l-177 -127l-47 59l166 139z
M687 861l-171 -123l-47 61l160 135z" />
    <glyph glyph-name="ohungarumlaut" unicode="&#x151;" horiz-adv-x="600" 
d="M300 518q111 0 185.5 -76.5t74.5 -188.5t-74.5 -188.5t-185.5 -76.5q-112 0 -186 76.5t-74 188.5t74 188.5t186 76.5zM455 253q0 72 -44 122t-111 50t-111 -50t-44 -122t44 -122t111 -50t111 50t44 122zM376 745l-142 -168l-62 46l130 180zM540 731l-137 -163l-63 47
l127 173z" />
    <glyph glyph-name="OE" unicode="&#x152;" horiz-adv-x="1061" 
d="M999 0h-427v32q-66 -44 -153 -44q-153 0 -257.5 105.5t-104.5 256.5t104.5 256.5t257.5 105.5q84 0 153 -43v31h427v-94h-320v-198h320v-94h-320v-220h320v-94zM419 83q86 0 153 54v426q-67 54 -153 54q-107 0 -177.5 -77t-70.5 -190t70.5 -190t177.5 -77z" />
    <glyph glyph-name="oe" unicode="&#x153;" horiz-adv-x="977" 
d="M300 518q133 0 204 -107q71 107 198 107q102 0 168.5 -67t66.5 -168q0 -31 -5 -56h-378q5 -65 46.5 -108.5t106.5 -43.5q102 0 147 80l72 -47q-39 -62 -93 -91t-131 -29q-137 0 -201 103q-33 -48 -85 -75.5t-116 -27.5q-112 0 -186 76.5t-74 188.5t74 188.5t186 76.5z
M455 253q0 72 -44 122t-111 50t-111 -50t-44 -122t44 -122t111 -50t111 50t44 122zM704 432q-56 0 -93 -35t-51 -91h270q-3 53 -38.5 89.5t-87.5 36.5z" />
    <glyph glyph-name="Racute" unicode="&#x154;" horiz-adv-x="618" 
d="M91 700h211q59 0 112 -19.5t92 -67t39 -116.5q0 -82 -47.5 -131t-118.5 -66l220 -300h-134l-206 292h-61v-292h-107v700zM198 606v-220h80q70 0 111.5 26.5t41.5 81.5q0 50 -37 81t-97 31h-99zM451 865l-177 -127l-47 61l166 139z" />
    <glyph glyph-name="racute" unicode="&#x155;" horiz-adv-x="361" 
d="M178 506l3 -79q52 91 128 91q31 0 58 -7l-21 -104q-21 11 -48 11q-70 0 -115 -78v-340h-103v506h98zM354 732l-137 -163l-62 47l126 173z" />
    <glyph glyph-name="Rcommaaccent" unicode="&#x156;" horiz-adv-x="618" 
d="M91 700h211q59 0 112 -19.5t92 -67t39 -116.5q0 -82 -47.5 -131t-118.5 -66l220 -300h-134l-206 292h-61v-292h-107v700zM198 606v-220h80q70 0 111.5 26.5t41.5 81.5q0 50 -37 81t-97 31h-99zM321 -235h-83l36 178h96z" />
    <glyph glyph-name="rcommaaccent" unicode="&#x157;" horiz-adv-x="361" 
d="M178 506l3 -79q52 91 128 91q31 0 58 -7l-21 -104q-21 11 -48 11q-70 0 -115 -78v-340h-103v506h98zM128 -235h-83l36 178h96z" />
    <glyph glyph-name="Rcaron" unicode="&#x158;" horiz-adv-x="618" 
d="M91 700h211q59 0 112 -19.5t92 -67t39 -116.5q0 -82 -47.5 -131t-118.5 -66l220 -300h-134l-206 292h-61v-292h-107v700zM198 606v-220h80q70 0 111.5 26.5t41.5 81.5q0 50 -37 81t-97 31h-99zM363 753h-111l-108 132l63 47l103 -109l105 109l59 -47z" />
    <glyph glyph-name="rcaron" unicode="&#x159;" horiz-adv-x="361" 
d="M178 506l3 -79q52 91 128 91q31 0 58 -7l-21 -104q-21 11 -48 11q-70 0 -115 -78v-340h-103v506h98zM271 571h-104l-103 168l62 38l96 -135l95 135l59 -38z" />
    <glyph glyph-name="Sacute" unicode="&#x15a;" horiz-adv-x="612" 
d="M460 560q-63 57 -146 57q-52 0 -84.5 -24t-32.5 -66q0 -17 8.5 -31.5t18 -23.5t32.5 -19.5t35 -15l43 -15.5q38 -13 61.5 -22.5t56.5 -28.5t51.5 -39.5t32.5 -53.5t14 -72q0 -56 -23 -99.5t-61 -68.5t-80.5 -37.5t-85.5 -12.5q-148 0 -257 108l75 71q47 -47 88 -65.5
t95 -18.5q56 0 95.5 28.5t39.5 84.5q0 21 -9 38.5t-21 29t-35 23.5t-39.5 18.5t-46.5 16.5q-42 15 -71.5 29.5t-60.5 37.5t-47 55.5t-16 73.5q0 94 61.5 144t152.5 50q124 0 221 -75zM477 865l-177 -127l-47 61l166 139z" />
    <glyph glyph-name="sacute" unicode="&#x15b;" horiz-adv-x="458" 
d="M394 460l-60 -65q-43 39 -100 39q-31 0 -50 -16.5t-19 -43.5q0 -17 15.5 -32t30.5 -22t47 -20q25 -10 41.5 -17.5t38.5 -21.5t35.5 -28.5t23 -36.5t9.5 -48q0 -80 -53.5 -120t-132.5 -40q-115 0 -182 81l68 59q53 -55 113 -55q36 0 60 18t24 51q0 18 -15.5 33.5t-31.5 23
t-49 20.5q-34 14 -51.5 22.5t-42.5 26.5t-36 42t-11 56q0 73 49 112.5t119 39.5q96 0 160 -58zM397 732l-137 -163l-62 47l126 173z" />
    <glyph glyph-name="Scircumflex" unicode="&#x15c;" horiz-adv-x="612" 
d="M460 560q-63 57 -146 57q-52 0 -84.5 -24t-32.5 -66q0 -17 8.5 -31.5t18 -23.5t32.5 -19.5t35 -15l43 -15.5q38 -13 61.5 -22.5t56.5 -28.5t51.5 -39.5t32.5 -53.5t14 -72q0 -56 -23 -99.5t-61 -68.5t-80.5 -37.5t-85.5 -12.5q-148 0 -257 108l75 71q47 -47 88 -65.5
t95 -18.5q56 0 95.5 28.5t39.5 84.5q0 21 -9 38.5t-21 29t-35 23.5t-39.5 18.5t-46.5 16.5q-42 15 -71.5 29.5t-60.5 37.5t-47 55.5t-16 73.5q0 94 61.5 144t152.5 50q124 0 221 -75zM260 921h111l108 -132l-61 -47l-103 109l-105 -109l-61 47z" />
    <glyph glyph-name="scircumflex" unicode="&#x15d;" horiz-adv-x="458" 
d="M394 460l-60 -65q-43 39 -100 39q-31 0 -50 -16.5t-19 -43.5q0 -17 15.5 -32t30.5 -22t47 -20q25 -10 41.5 -17.5t38.5 -21.5t35.5 -28.5t23 -36.5t9.5 -48q0 -80 -53.5 -120t-132.5 -40q-115 0 -182 81l68 59q53 -55 113 -55q36 0 60 18t24 51q0 18 -15.5 33.5t-31.5 23
t-49 20.5q-34 14 -51.5 22.5t-42.5 26.5t-36 42t-11 56q0 73 49 112.5t119 39.5q96 0 160 -58zM187 778h104l103 -168l-60 -39l-96 135l-95 -135l-61 39z" />
    <glyph glyph-name="Scedilla" unicode="&#x15e;" horiz-adv-x="609" 
d="M460 560q-63 57 -146 57q-52 0 -84.5 -24t-32.5 -66q0 -17 8.5 -31.5t18 -23.5t32.5 -19.5t35 -15l43 -15.5q38 -13 61.5 -22.5t56.5 -28.5t51.5 -39.5t32.5 -53.5t14 -72q0 -71 -38.5 -122t-90.5 -72.5t-110 -23.5l-22 -52l2 -1q18 16 47 16q39 0 64 -27.5t25 -67.5
q0 -41 -32.5 -72.5t-78.5 -31.5q-70 0 -106 62l60 29q12 -32 45 -32q18 0 29.5 12.5t11.5 29.5q0 18 -11 32t-30 14q-26 0 -40 -23l-65 34l38 81q-113 14 -205 105l75 71q47 -47 88 -65.5t95 -18.5q56 0 95.5 28.5t39.5 84.5q0 21 -9 38.5t-21 29t-35 23.5t-39.5 18.5
t-46.5 16.5q-42 15 -71.5 29.5t-60.5 37.5t-47 55.5t-16 73.5q0 94 61.5 144t152.5 50q124 0 221 -75z" />
    <glyph glyph-name="scedilla" unicode="&#x15f;" horiz-adv-x="458" 
d="M394 460l-60 -65q-43 39 -100 39q-31 0 -50 -16.5t-19 -43.5q0 -17 15.5 -32t30.5 -22t47 -20q25 -10 41.5 -17.5t38.5 -21.5t35.5 -28.5t23 -36.5t9.5 -48q0 -76 -49 -116t-123 -43l-19 -53l1 -1q22 16 47 16q35 0 62 -27.5t27 -67.5q0 -41 -32.5 -72.5t-78.5 -31.5
q-71 0 -106 62l60 29q12 -32 45 -32q18 0 29.5 12.5t11.5 29.5q0 19 -12 32.5t-31 13.5q-27 0 -38 -23l-64 33l34 84q-82 14 -132 76l68 59q53 -55 113 -55q36 0 60 18t24 51q0 18 -15.5 33.5t-31.5 23t-49 20.5q-34 14 -51.5 22.5t-42.5 26.5t-36 42t-11 56q0 73 49 112.5
t119 39.5q96 0 160 -58z" />
    <glyph glyph-name="Scaron" unicode="&#x160;" horiz-adv-x="612" 
d="M460 560q-63 57 -146 57q-52 0 -84.5 -24t-32.5 -66q0 -17 8.5 -31.5t18 -23.5t32.5 -19.5t35 -15l43 -15.5q38 -13 61.5 -22.5t56.5 -28.5t51.5 -39.5t32.5 -53.5t14 -72q0 -56 -23 -99.5t-61 -68.5t-80.5 -37.5t-85.5 -12.5q-148 0 -257 108l75 71q47 -47 88 -65.5
t95 -18.5q56 0 95.5 28.5t39.5 84.5q0 21 -9 38.5t-21 29t-35 23.5t-39.5 18.5t-46.5 16.5q-42 15 -71.5 29.5t-60.5 37.5t-47 55.5t-16 73.5q0 94 61.5 144t152.5 50q124 0 221 -75zM368 753h-111l-108 132l63 47l103 -109l105 109l59 -47z" />
    <glyph glyph-name="scaron" unicode="&#x161;" horiz-adv-x="458" 
d="M394 460l-60 -65q-43 39 -100 39q-31 0 -50 -16.5t-19 -43.5q0 -17 15.5 -32t30.5 -22t47 -20q25 -10 41.5 -17.5t38.5 -21.5t35.5 -28.5t23 -36.5t9.5 -48q0 -80 -53.5 -120t-132.5 -40q-115 0 -182 81l68 59q53 -55 113 -55q36 0 60 18t24 51q0 18 -15.5 33.5t-31.5 23
t-49 20.5q-34 14 -51.5 22.5t-42.5 26.5t-36 42t-11 56q0 73 49 112.5t119 39.5q96 0 160 -58zM292 571h-104l-103 168l62 38l96 -135l95 135l59 -38z" />
    <glyph glyph-name="uni0162" unicode="&#x162;" horiz-adv-x="489" 
d="M472 606h-174v-606h-21l-23 -64l1 -1q22 16 47 16q35 0 62 -27.5t27 -67.5q0 -41 -32 -72.5t-78 -31.5q-71 0 -106 62l59 29q12 -32 45 -32q18 0 30 12.5t12 29.5q0 19 -12.5 32.5t-31.5 13.5q-26 0 -38 -23l-64 33l38 91h-22v606h-174v94h455v-94z" />
    <glyph glyph-name="uni0163" unicode="&#x163;" horiz-adv-x="354" 
d="M328 417h-139v-220q0 -25 1 -40q2 -38 17 -57t47 -19q29 0 57 14l30 -81q-43 -24 -101 -24h-10l-20 -54l1 -1q22 16 47 16q35 0 62 -27.5t27 -67.5q0 -41 -32 -72.5t-78 -31.5q-71 0 -106 62l59 29q12 -32 45 -32q18 0 30 12.5t12 29.5q0 19 -12.5 32.5t-31.5 13.5
q-26 0 -38 -23l-64 33l39 94q-50 21 -69 73q-15 38 -15 100v241h-66v89h66l5 119h98v-119h139v-89z" />
    <glyph glyph-name="Tcaron" unicode="&#x164;" horiz-adv-x="489" 
d="M472 606h-174v-606h-107v606h-174v94h455v-94zM298 753h-111l-108 132l63 47l103 -109l105 109l59 -47z" />
    <glyph glyph-name="tcaron" unicode="&#x165;" horiz-adv-x="354" 
d="M328 417h-139v-220q0 -25 1 -40q2 -38 17 -57t47 -19q29 0 57 14l30 -81q-43 -24 -101 -24q-106 0 -139 86q-15 38 -15 100v241h-66v89h66l5 119h98v-119h139v-89zM332 571h-86l40 204h100z" />
    <glyph glyph-name="Tbar" unicode="&#x166;" horiz-adv-x="489" 
d="M472 606h-174v-202h109v-87h-109v-317h-107v317h-109v87h109v202h-174v94h455v-94z" />
    <glyph glyph-name="tbar" unicode="&#x167;" horiz-adv-x="354" 
d="M328 227h-139v-30q0 -25 1 -40q2 -38 17 -57t47 -19q29 0 57 14l30 -81q-43 -24 -101 -24q-106 0 -139 86q-15 38 -15 100v51h-66v81h66v109h-66v89h66l5 119h98v-119h139v-89h-139v-109h139v-81z" />
    <glyph glyph-name="Utilde" unicode="&#x168;" horiz-adv-x="721" 
d="M634 700v-371q0 -169 -66.5 -255t-209.5 -86q-140 0 -205.5 86t-65.5 255v371h107v-394q0 -110 44 -166.5t122 -56.5q80 0 123.5 56.5t43.5 166.5v394h107zM463 874l69 7q3 -12 3 -30q0 -44 -28.5 -70.5t-73.5 -26.5q-37 0 -83 30.5t-64 30.5q-29 0 -31 -28q0 -7 1 -10
l-69 -7q-3 12 -3 30q0 44 28.5 70.5t73.5 26.5q37 0 83.5 -30.5t63.5 -30.5q13 0 22 7.5t9 20.5q0 7 -1 10z" />
    <glyph glyph-name="utilde" unicode="&#x169;" horiz-adv-x="609" 
d="M529 0h-98l-3 80q-28 -44 -71.5 -68t-92.5 -24q-96 0 -144 64q-45 62 -45 191v263h103v-254q0 -94 24 -132q24 -39 83 -39q40 0 78 24.5t63 65.5v335h103v-506zM210 605l-69 -7q-4 14 -4 26q0 44 29 70.5t74 26.5q38 0 84.5 -30.5t62.5 -30.5q29 0 31 29q0 6 -1 9l69 7
q4 -14 4 -26q0 -44 -29 -70.5t-74 -26.5q-38 0 -84.5 30.5t-62.5 30.5q-29 0 -31 -29q0 -6 1 -9z" />
    <glyph glyph-name="Umacron" unicode="&#x16a;" horiz-adv-x="721" 
d="M634 700v-371q0 -169 -66.5 -255t-209.5 -86q-140 0 -205.5 86t-65.5 255v371h107v-394q0 -110 44 -166.5t122 -56.5q80 0 123.5 56.5t43.5 166.5v394h107zM529 773h-338v77h338v-77z" />
    <glyph glyph-name="umacron" unicode="&#x16b;" horiz-adv-x="609" 
d="M529 0h-98l-3 80q-28 -44 -71.5 -68t-92.5 -24q-96 0 -144 64q-45 62 -45 191v263h103v-254q0 -94 24 -132q24 -39 83 -39q40 0 78 24.5t63 65.5v335h103v-506zM456 608h-308v77h308v-77z" />
    <glyph glyph-name="Ubreve" unicode="&#x16c;" horiz-adv-x="721" 
d="M634 700v-371q0 -169 -66.5 -255t-209.5 -86q-140 0 -205.5 86t-65.5 255v371h107v-394q0 -110 44 -166.5t122 -56.5q80 0 123.5 56.5t43.5 166.5v394h107zM437 906h72v-7q0 -62 -42.5 -102t-105.5 -40t-105.5 40t-42.5 102v7h72v-8q0 -31 22 -50.5t54 -19.5t54 19.5
t22 50.5v8z" />
    <glyph glyph-name="ubreve" unicode="&#x16d;" horiz-adv-x="609" 
d="M529 0h-98l-3 80q-28 -44 -71.5 -68t-92.5 -24q-96 0 -144 64q-45 62 -45 191v263h103v-254q0 -94 24 -132q24 -39 83 -39q40 0 78 24.5t63 65.5v335h103v-506zM382 735h72v-18q0 -62 -43 -105t-105 -43t-105 43t-43 105v18h74v-19q0 -32 21.5 -54t52.5 -22q32 0 54 22
t22 54v19z" />
    <glyph glyph-name="Uring" unicode="&#x16e;" horiz-adv-x="721" 
d="M634 700v-371q0 -169 -66.5 -255t-209.5 -86q-140 0 -205.5 86t-65.5 255v371h107v-394q0 -110 44 -166.5t122 -56.5q80 0 123.5 56.5t43.5 166.5v394h107zM262 822q0 40 29 69t69 29t69 -29t29 -69t-29 -69t-69 -29t-69 29t-29 69zM316 822q0 -18 13 -31t31 -13t31 13
t13 31t-13 31t-31 13t-31 -13t-13 -31z" />
    <glyph glyph-name="uring" unicode="&#x16f;" horiz-adv-x="609" 
d="M529 0h-98l-3 80q-28 -44 -71.5 -68t-92.5 -24q-96 0 -144 64q-45 62 -45 191v263h103v-254q0 -94 24 -132q24 -39 83 -39q40 0 78 24.5t63 65.5v335h103v-506zM207 661q0 41 28.5 69.5t69.5 28.5t69.5 -28.5t28.5 -69.5t-28.5 -69.5t-69.5 -28.5t-69.5 28.5t-28.5 69.5z
M261 661q0 -18 13 -31t31 -13t31 13t13 31t-13 31t-31 13t-31 -13t-13 -31z" />
    <glyph glyph-name="Uhungarumlaut" unicode="&#x170;" horiz-adv-x="721" 
d="M634 700v-371q0 -169 -66.5 -255t-209.5 -86q-140 0 -205.5 86t-65.5 255v371h107v-394q0 -110 44 -166.5t122 -56.5q80 0 123.5 56.5t43.5 166.5v394h107zM407 865l-177 -127l-47 59l166 139zM625 861l-171 -123l-47 61l160 135z" />
    <glyph glyph-name="uhungarumlaut" unicode="&#x171;" horiz-adv-x="609" 
d="M529 0h-98l-3 80q-28 -44 -71.5 -68t-92.5 -24q-96 0 -144 64q-45 62 -45 191v263h103v-254q0 -94 24 -132q24 -39 83 -39q40 0 78 24.5t63 65.5v335h103v-506zM366 745l-142 -168l-62 46l130 180zM530 731l-137 -163l-63 47l127 173z" />
    <glyph glyph-name="Uogonek" unicode="&#x172;" horiz-adv-x="721" 
d="M634 700v-371q0 -276 -177 -328q-38 -11 -68 -40t-30 -65q0 -46 44 -46q22 0 44 14l33 -57q-36 -31 -95 -31q-48 0 -82 27t-34 74q0 72 62 112q-244 16 -244 340v371h107v-394q0 -110 44 -166.5t122 -56.5q80 0 123.5 56.5t43.5 166.5v394h107z" />
    <glyph glyph-name="uogonek" unicode="&#x173;" horiz-adv-x="609" 
d="M332 -123q0 80 99 125l-3 78q-28 -44 -71.5 -68t-92.5 -24q-96 0 -144 64q-45 62 -45 191v263h103v-254q0 -94 24 -132q24 -39 83 -39q40 0 78 24.5t63 65.5v335h103v-506q-107 -35 -107 -107q0 -43 44 -43q23 0 45 14l32 -57q-36 -31 -94 -31q-48 0 -82.5 27t-34.5 74z
" />
    <glyph glyph-name="Wcircumflex" unicode="&#x174;" horiz-adv-x="900" 
d="M502 700l135 -509h2l140 509h116l-200 -700h-107l-137 515h-2l-147 -515h-104l-193 700h119l134 -509h2l141 509h101zM397 921h111l108 -132l-61 -47l-103 109l-105 -109l-61 47z" />
    <glyph glyph-name="wcircumflex" unicode="&#x175;" horiz-adv-x="745" 
d="M427 506l98 -373h3l97 373h106l-147 -506h-109l-102 368h-2l-104 -368h-113l-140 506h111l90 -373h2l106 373h104zM323 778h104l103 -168l-60 -39l-96 135l-95 -135l-61 39z" />
    <glyph glyph-name="Ycircumflex" unicode="&#x176;" horiz-adv-x="568" 
d="M335 0h-107v302l-223 398h133l148 -284h2l150 284h125l-228 -403v-297zM230 921h111l108 -132l-61 -47l-103 109l-105 -109l-61 47z" />
    <glyph glyph-name="ycircumflex" unicode="&#x177;" horiz-adv-x="490" 
d="M5 506h114l124 -364h2l128 364h112l-285 -735l-91 36l80 212zM201 778h104l103 -168l-60 -39l-96 135l-95 -135l-61 39z" />
    <glyph glyph-name="Ydieresis" unicode="&#x178;" horiz-adv-x="568" 
d="M335 0h-108v302l-222 398h133l148 -284h2l150 284h125l-228 -403v-297zM228 763h-112v114h112v-114zM467 763h-112v114h112v-114z" />
    <glyph glyph-name="Zacute" unicode="&#x179;" horiz-adv-x="551" 
d="M507 643l-321 -549h346v-94h-494v57l322 549h-314v94h461v-57zM424 865l-177 -127l-47 61l166 139z" />
    <glyph glyph-name="zacute" unicode="&#x17a;" horiz-adv-x="461" 
d="M57 47l216 370h-227v89h364v-46l-217 -371h234v-89h-370v47zM377 732l-137 -163l-62 47l126 173z" />
    <glyph glyph-name="Zdotaccent" unicode="&#x17b;" horiz-adv-x="551" 
d="M507 643l-321 -549h346v-94h-494v57l322 549h-314v94h461v-57zM325 763h-112v114h112v-114z" />
    <glyph glyph-name="zdotaccent" unicode="&#x17c;" horiz-adv-x="461" 
d="M57 47l216 370h-227v89h364v-46l-217 -371h234v-89h-370v47zM276 598h-103v107h103v-107z" />
    <glyph glyph-name="Zcaron" unicode="&#x17d;" horiz-adv-x="551" 
d="M507 643l-321 -549h346v-94h-494v57l322 549h-314v94h461v-57zM329 753h-111l-108 132l63 47l103 -109l105 109l59 -47z" />
    <glyph glyph-name="zcaron" unicode="&#x17e;" horiz-adv-x="461" 
d="M57 47l216 370h-227v89h364v-46l-217 -371h234v-89h-370v47zM292 571h-104l-103 168l62 38l96 -135l95 135l59 -38z" />
    <glyph glyph-name="longs" unicode="&#x17f;" horiz-adv-x="310" 
d="M353 738l-30 -84q-30 15 -66 15q-35 0 -54 -16q-23 -21 -23 -91v-562h-103v571q0 86 33 133q41 58 137 58q53 0 106 -24z" />
    <glyph glyph-name="florin" unicode="&#x192;" 
d="M401 404v-92h-130l-40 -354q-9 -80 -49.5 -123.5t-103.5 -43.5q-38 0 -84 12l22 88q24 -8 50 -8q33 0 45.5 22t18.5 73l38 334h-79v92h89l12 105q9 80 53 123.5t114 43.5q66 0 134 -33l-39 -84q-37 25 -84 25q-40 0 -55.5 -22.5t-21.5 -71.5l-10 -86h120z" />
    <glyph glyph-name="Aringacute" unicode="&#x1fa;" horiz-adv-x="662" 
d="M487 1034l-183 -109l-39 60l176 122zM238 812q0 40 29 69t69 29t69 -29t29 -69t-29 -69t-69 -29t-69 29t-29 69zM292 812q0 -18 13 -31t31 -13t31 13t13 31t-13 31t-31 13t-31 -13t-13 -31zM523 0l-52 144h-287l-52 -144h-118l275 700h91l267 -700h-124zM328 537
l-109 -299h218l-108 299h-1z" />
    <glyph glyph-name="aringacute" unicode="&#x1fb;" horiz-adv-x="553" 
d="M174 646q0 40 29 69t69 29t69 -29t29 -69t-29 -69t-69 -29t-69 29t-29 69zM228 646q0 -18 13 -31t31 -13t31 13t13 31t-13 31t-31 13t-31 -13t-13 -31zM423 868l-183 -109l-39 60l176 122zM478 0h-95l-3 51q-55 -63 -148 -63q-76 0 -128 39.5t-52 116.5q0 46 19 79.5
t52 52t71 27t82 8.5q43 0 99 -11v15q0 117 -115 117q-77 0 -159 -45l-29 83q102 48 204 48q202 0 202 -211v-307zM375 126v102q-45 9 -86 9q-34 0 -62 -6.5t-51 -27t-23 -54.5q0 -40 26.5 -59.5t67.5 -19.5q62 0 128 56z" />
    <glyph glyph-name="AEacute" unicode="&#x1fc;" horiz-adv-x="992" 
d="M929 0h-427v145h-276l-101 -145h-135l513 700h426v-94h-319v-198h319v-94h-319v-220h319v-94zM290 238h212v303zM739 865l-177 -127l-47 61l166 139z" />
    <glyph glyph-name="aeacute" unicode="&#x1fd;" horiz-adv-x="898" 
d="M390 142q-14 38 -19 86q-41 9 -82 9q-34 0 -62 -6.5t-51 -27t-23 -54.5q0 -40 26.5 -59.5t67.5 -19.5q79 0 143 72zM775 155l73 -47q-40 -62 -93.5 -91t-130.5 -29q-125 0 -194 84q-76 -84 -198 -84q-76 0 -128 39.5t-52 116.5q0 46 19 79.5t52 52t71 27t82 8.5
q43 0 99 -11v15q0 117 -115 117q-77 0 -159 -45l-29 83q102 48 204 48q124 0 170 -80q70 80 178 80q101 0 167.5 -67t66.5 -168q0 -31 -5 -56h-378q6 -64 47 -108t107 -44q101 0 146 80zM625 432q-56 0 -93 -35t-51 -91h270q-3 53 -38.5 89.5t-87.5 36.5zM599 732l-137 -163
l-62 47l126 173z" />
    <glyph glyph-name="Oslashacute" unicode="&#x1fe;" horiz-adv-x="838" 
d="M683 670l-29 -43q60 -51 93.5 -123t33.5 -154q0 -151 -104.5 -256.5t-257.5 -105.5q-90 0 -169 41l-33 -49l-74 46l35 52q-57 50 -89 120.5t-32 151.5q0 151 104.5 256.5t257.5 105.5q86 0 162 -38l29 43zM667 350q0 114 -71 191l-291 -430q51 -28 114 -28
q107 0 177.5 77t70.5 190zM171 350q0 -111 66 -185l289 427q-50 25 -107 25q-107 0 -177.5 -77t-70.5 -190zM580 865l-177 -127l-47 61l166 139z" />
    <glyph glyph-name="oslashacute" unicode="&#x1ff;" horiz-adv-x="600" 
d="M451 732l-137 -163l-62 47l126 173zM300 518q64 0 115 -27l25 37l59 -38l-26 -37q87 -79 87 -200q0 -112 -74.5 -188.5t-185.5 -76.5q-65 0 -121 29l-27 -40l-59 38l29 42q-82 77 -82 196q0 112 74 188.5t186 76.5zM455 253q0 68 -39 115l-183 -271q29 -16 67 -16
q67 0 111 50t44 122zM145 253q0 -64 34 -110l182 268q-26 14 -61 14q-67 0 -111 -50t-44 -122z" />
    <glyph glyph-name="Scommaaccent" unicode="&#x218;" horiz-adv-x="609" 
d="M460 560q-63 57 -146 57q-52 0 -84.5 -24t-32.5 -66q0 -17 8.5 -31.5t18 -23.5t32.5 -19.5t35 -15l43 -15.5q38 -13 61.5 -22.5t56.5 -28.5t51.5 -39.5t32.5 -53.5t14 -72q0 -56 -23 -99.5t-61 -68.5t-80.5 -37.5t-85.5 -12.5q-148 0 -257 108l75 71q47 -47 88 -65.5
t95 -18.5q56 0 95.5 28.5t39.5 84.5q0 21 -9 38.5t-21 29t-35 23.5t-39.5 18.5t-46.5 16.5q-42 15 -71.5 29.5t-60.5 37.5t-47 55.5t-16 73.5q0 94 61.5 144t152.5 50q124 0 221 -75zM267 -235h-83l36 178h96z" />
    <glyph glyph-name="scommaaccent" unicode="&#x219;" horiz-adv-x="458" 
d="M394 460l-60 -65q-43 39 -100 39q-31 0 -50 -16.5t-19 -43.5q0 -17 15.5 -32t30.5 -22t47 -20q25 -10 41.5 -17.5t38.5 -21.5t35.5 -28.5t23 -36.5t9.5 -48q0 -80 -53.5 -120t-132.5 -40q-115 0 -182 81l68 59q53 -55 113 -55q36 0 60 18t24 51q0 18 -15.5 33.5t-31.5 23
t-49 20.5q-34 14 -51.5 22.5t-42.5 26.5t-36 42t-11 56q0 73 49 112.5t119 39.5q96 0 160 -58zM203 -235h-83l36 178h96z" />
    <glyph glyph-name="uni021A" unicode="&#x21a;" horiz-adv-x="489" 
d="M472 606h-174v-606h-107v606h-174v94h455v-94zM239 -235h-83l36 178h96z" />
    <glyph glyph-name="uni021B" unicode="&#x21b;" horiz-adv-x="354" 
d="M328 417h-139v-220q0 -25 1 -40q2 -38 17 -57t47 -19q29 0 57 14l30 -81q-43 -24 -101 -24q-106 0 -139 86q-15 38 -15 100v241h-66v89h66l5 119h98v-119h139v-89zM183 -235h-83l36 178h96z" />
    <glyph glyph-name="apostrophe" unicode="&#x2bc;" horiz-adv-x="360" 
d="M151 722h110l-60 -220h-90z" />
    <glyph glyph-name="circumflex" unicode="&#x2c6;" horiz-adv-x="360" 
d="M128 778h104l103 -168l-60 -39l-96 135l-95 -135l-61 39z" />
    <glyph glyph-name="caron" unicode="&#x2c7;" horiz-adv-x="360" 
d="M230 571h-104l-103 168l62 38l96 -135l95 135l59 -38z" />
    <glyph glyph-name="uni02C9" unicode="&#x2c9;" horiz-adv-x="360" 
d="M334 608h-308v77h308v-77z" />
    <glyph glyph-name="breve" unicode="&#x2d8;" horiz-adv-x="360" 
d="M256 735h72v-18q0 -62 -43 -105t-105 -43t-105 43t-43 105v18h74v-19q0 -32 21.5 -54t52.5 -22q32 0 54 22t22 54v19z" />
    <glyph glyph-name="dotaccent" unicode="&#x2d9;" horiz-adv-x="360" 
d="M232 598h-103v107h103v-107z" />
    <glyph glyph-name="ring" unicode="&#x2da;" horiz-adv-x="360" 
d="M82 678q0 40 29 69t69 29t69 -29t29 -69t-29 -69t-69 -29t-69 29t-29 69zM136 678q0 -18 13 -31t31 -13t31 13t13 31t-13 31t-31 13t-31 -13t-13 -31z" />
    <glyph glyph-name="ogonek" unicode="&#x2db;" horiz-adv-x="360" 
d="M162 11h84v-11q-51 -14 -79.5 -44.5t-28.5 -62.5q0 -43 44 -43q23 0 45 14l32 -57q-36 -31 -94 -31q-48 0 -82.5 27t-34.5 74q0 92 114 134z" />
    <glyph glyph-name="tilde" unicode="&#x2dc;" horiz-adv-x="360" 
d="M77 605l-69 -7q-4 14 -4 26q0 44 29 70.5t74 26.5q38 0 84.5 -30.5t62.5 -30.5q29 0 31 29q0 6 -1 9l69 7q4 -14 4 -26q0 -44 -29 -70.5t-74 -26.5q-38 0 -84.5 30.5t-62.5 30.5q-29 0 -31 -29q0 -6 1 -9z" />
    <glyph glyph-name="hungarumlaut" unicode="&#x2dd;" horiz-adv-x="360" 
d="M235 745l-142 -168l-62 46l130 180zM399 731l-137 -163l-63 47l127 173z" />
    <glyph glyph-name="uni0394" unicode="&#x394;" 
d="M545 0h-541l222 572h100zM396 90l-123 339h-2l-125 -339h250z" />
    <glyph glyph-name="uni03A9" unicode="&#x3a9;" horiz-adv-x="794" 
d="M19 92h181q-75 53 -113 127.5t-38 155.5q0 140 96 238.5t252 98.5t252 -98.5t96 -238.5q0 -81 -38 -155.5t-113 -127.5h181v-92h-323v101q84 30 131.5 106t47.5 164q0 104 -60.5 174.5t-173.5 70.5t-173.5 -70.5t-60.5 -174.5q0 -88 47.5 -164t131.5 -106v-101h-323v92z
" />
    <glyph glyph-name="uni03BC" unicode="&#x3bc;" 
d="M502 0h-98l-3 80q-28 -44 -71.5 -68t-92.5 -24t-85 18v-256h-104v756h103v-254q0 -94 24 -132q24 -39 83 -39q40 0 78 24.5t63 65.5v335h103v-506z" />
    <glyph glyph-name="pi" unicode="&#x3c0;" 
d="M540 417h-93v-239q0 -23 1 -33q3 -65 49 -74l-42 -88q-98 25 -109 148q-2 22 -2 38v248h-155v-352q0 -32 -6 -65h-105q8 30 8 73v344h-59v89h513v-89z" />
    <glyph glyph-name="Wgrave" unicode="&#x1e80;" horiz-adv-x="900" 
d="M502 700l135 -509h2l140 509h116l-200 -700h-107l-137 515h-2l-147 -515h-104l-193 700h119l134 -509h2l141 509h101zM472 738l-177 127l58 73l166 -139z" />
    <glyph glyph-name="wgrave" unicode="&#x1e81;" horiz-adv-x="745" 
d="M427 506l98 -373h3l97 373h106l-147 -506h-109l-102 368h-2l-104 -368h-113l-140 506h111l90 -373h2l106 373h104zM364 569l-137 163l73 57l126 -173z" />
    <glyph glyph-name="Wacute" unicode="&#x1e82;" horiz-adv-x="900" 
d="M502 700l135 -509h2l140 509h116l-200 -700h-107l-137 515h-2l-147 -515h-104l-193 700h119l134 -509h2l141 509h101zM613 865l-177 -127l-47 61l166 139z" />
    <glyph glyph-name="wacute" unicode="&#x1e83;" horiz-adv-x="745" 
d="M427 506l98 -373h3l97 373h106l-147 -506h-109l-102 368h-2l-104 -368h-113l-140 506h111l90 -373h2l106 373h104zM521 732l-137 -163l-62 47l126 173z" />
    <glyph glyph-name="Wdieresis" unicode="&#x1e84;" horiz-adv-x="900" 
d="M502 700l135 -509h2l140 509h116l-200 -700h-107l-137 515h-2l-147 -515h-104l-193 700h119l134 -509h2l141 509h101zM373 763h-113v114h113v-114zM644 763h-113v114h113v-114z" />
    <glyph glyph-name="wdieresis" unicode="&#x1e85;" horiz-adv-x="745" 
d="M427 506l98 -373h3l97 373h106l-147 -506h-109l-102 368h-2l-104 -368h-113l-140 506h111l90 -373h2l106 373h104zM321 598h-105v107h105v-107zM534 598h-105v107h105v-107z" />
    <glyph glyph-name="Ygrave" unicode="&#x1ef2;" horiz-adv-x="568" 
d="M335 0h-107v302l-223 398h133l148 -284h2l150 284h125l-228 -403v-297zM331 738l-177 127l58 73l166 -139z" />
    <glyph glyph-name="ygrave" unicode="&#x1ef3;" horiz-adv-x="490" 
d="M5 506h114l124 -364h2l128 364h112l-285 -735l-91 36l80 212zM266 569l-137 163l73 57l126 -173z" />
    <glyph glyph-name="thinspace" unicode="&#x2009;" horiz-adv-x="125" 
 />
    <glyph glyph-name="endash" unicode="&#x2013;" horiz-adv-x="600" 
d="M550 265h-500v92h500v-92z" />
    <glyph glyph-name="emdash" unicode="&#x2014;" horiz-adv-x="900" 
d="M850 265h-800v92h800v-92z" />
    <glyph glyph-name="quoteleft" unicode="&#x2018;" horiz-adv-x="281" 
d="M223 700l-52 -256h-114l68 256h98z" />
    <glyph glyph-name="quoteright" unicode="&#x2019;" horiz-adv-x="281" 
d="M57 444l52 256h114l-68 -256h-98z" />
    <glyph glyph-name="quotesinglbase" unicode="&#x201a;" horiz-adv-x="281" 
d="M57 -132l52 256h114l-68 -256h-98z" />
    <glyph glyph-name="quotedblleft" unicode="&#x201c;" horiz-adv-x="532" 
d="M243 700l-52 -256h-114l68 256h98zM455 700l-52 -256h-114l68 256h98z" />
    <glyph glyph-name="quotedblright" unicode="&#x201d;" horiz-adv-x="532" 
d="M77 444l52 256h114l-68 -256h-98zM289 444l52 256h114l-68 -256h-98z" />
    <glyph glyph-name="quotedblbase" unicode="&#x201e;" horiz-adv-x="532" 
d="M77 -132l52 256h114l-68 -256h-98zM289 -132l52 256h114l-68 -256h-98z" />
    <glyph glyph-name="dagger" unicode="&#x2020;" horiz-adv-x="415" 
d="M168 138v161l3 162l-67 -3h-37v75h37l67 -3l-3 122v48h79v-48l-3 -122l67 3h37v-75h-37l-67 3l3 -162v-161h-79z" />
    <glyph glyph-name="daggerdbl" unicode="&#x2021;" horiz-adv-x="415" 
d="M67 425h37l67 -3l-1 22v46q0 7 0.5 20t0.5 20l-104 -2v74l104 -3l-3 101h79l-3 -101l104 3v-74l-104 2q0 -7 0.5 -20t0.5 -20v-46l-1 -22l67 3h37v-75l-104 2l3 -71v-143h-79v143l3 71l-104 -2v75z" />
    <glyph glyph-name="bullet" unicode="&#x2022;" horiz-adv-x="328" 
d="M35 289q0 53 38 91t91 38t91 -38t38 -91t-38 -91t-91 -38t-91 38t-38 91z" />
    <glyph glyph-name="ellipsis" unicode="&#x2026;" horiz-adv-x="750" 
d="M433 0h-117v124h117v-124zM185 0h-117v124h117v-124zM683 0h-117v124h117v-124z" />
    <glyph glyph-name="perthousand" unicode="&#x2030;" horiz-adv-x="1239" 
d="M219 706q68 0 116 -47t48 -115t-48 -115t-116 -47t-116 47t-48 115t48 115t116 47zM219 628q-35 0 -57.5 -23.5t-22.5 -60.5t22.5 -60.5t57.5 -23.5t57.5 23.5t22.5 60.5t-22.5 60.5t-57.5 23.5zM647 713l58 -43l-497 -683l-59 43zM632 318q68 0 116 -47t48 -115
t-48 -115t-116 -47t-116 47t-48 115t48 115t116 47zM632 240q-35 0 -57.5 -23.5t-22.5 -60.5t22.5 -60.5t57.5 -23.5t57.5 23.5t22.5 60.5t-22.5 60.5t-57.5 23.5zM1020 318q68 0 116 -47t48 -115t-48 -115t-116 -47t-116 47t-48 115t48 115t116 47zM1020 240
q-35 0 -57.5 -23.5t-22.5 -60.5t22.5 -60.5t57.5 -23.5t57.5 23.5t22.5 60.5t-22.5 60.5t-57.5 23.5z" />
    <glyph glyph-name="guilsinglleft" unicode="&#x2039;" horiz-adv-x="316" 
d="M57 331l149 154l52 -92l-127 -122l127 -121l-52 -92l-149 155v118z" />
    <glyph glyph-name="guilsinglright" unicode="&#x203a;" horiz-adv-x="316" 
d="M109 484l149 -154v-118l-149 -155l-52 93l127 120l-127 122z" />
    <glyph glyph-name="fraction" unicode="&#x2044;" horiz-adv-x="136" 
d="M287 713l59 -43l-497 -683l-59 43z" />
    <glyph glyph-name="Euro" unicode="&#x20ac;" horiz-adv-x="650" 
d="M11 371v79h89q34 105 121 165.5t202 60.5q106 0 193 -54l-47 -81q-62 43 -145 43q-76 0 -131.5 -35t-82.5 -99h264v-79h-285q-2 -26 -2 -39q0 -26 2 -38h285v-79h-265q27 -64 83 -99t132 -35q88 0 154 48l55 -76q-92 -65 -211 -65q-116 0 -203 60.5t-120 166.5h-88v79h73
q-2 24 -2 38q0 13 2 39h-73z" />
    <glyph glyph-name="afii61352" unicode="&#x2116;" horiz-adv-x="1132" 
d="M663 0h-96l-369 502v-502h-107v700h94l370 -502v502h108v-700zM927 716q76 0 126.5 -51.5t50.5 -126.5t-50.5 -126.5t-126.5 -51.5q-77 0 -127 51t-50 127t50 127t127 51zM1022 538q0 46 -26.5 77.5t-68.5 31.5t-68.5 -31.5t-26.5 -77.5t26.5 -77.5t68.5 -31.5t68.5 31.5
t26.5 77.5z" />
    <glyph glyph-name="trademark" unicode="&#x2122;" horiz-adv-x="980" 
d="M353 629h-98v-340h-81v340h-98v71h277v-71zM823 605l-129 -316h-68l-126 316v-316h-81v411h126l115 -299l118 299h126v-411h-81v316z" />
    <glyph glyph-name="Omega" unicode="&#x2126;" horiz-adv-x="794" 
d="M19 92h181q-75 53 -113 127.5t-38 155.5q0 140 96 238.5t252 98.5t252 -98.5t96 -238.5q0 -81 -38 -155.5t-113 -127.5h181v-92h-323v101q84 30 131.5 106t47.5 164q0 104 -60.5 174.5t-173.5 70.5t-173.5 -70.5t-60.5 -174.5q0 -88 47.5 -164t131.5 -106v-101h-323v92z
" />
    <glyph glyph-name="onethird" unicode="&#x2153;" horiz-adv-x="785" 
d="M581 713l59 -43l-498 -683l-59 43zM228 338h-76v277q-34 -16 -54 -24v69l34.5 17.5l43.5 22.5h52v-362zM530 151v63q30 0 43 4q39 10 39 44q0 18 -12.5 29.5t-35.5 11.5q-37 0 -46 -37l-63 28q12 34 42 53t68 19q51 0 87 -26.5t36 -70.5q0 -22 -12.5 -43.5t-32.5 -32.5
q28 -11 45 -35t17 -55q0 -51 -38 -80.5t-92 -29.5q-41 0 -75 18.5t-51 54.5l63 29q17 -39 62 -39q23 0 38.5 12.5t15.5 35.5q0 24 -19 37t-49 13q-19 0 -30 -3z" />
    <glyph glyph-name="twothirds" unicode="&#x2154;" horiz-adv-x="876" 
d="M672 713l59 -43l-498 -683l-59 43zM87 397q75 73 126 142q28 38 28 67q0 18 -12 28t-31 10t-31 -13.5t-12 -36.5l-75 13q3 45 38 72.5t83 27.5t83 -27.5t35 -72.5t-38 -99q-36 -48 -92 -104h144v-64h-246v57zM621 151v63q30 0 43 4q39 10 39 44q0 18 -12.5 29.5
t-35.5 11.5q-37 0 -46 -37l-63 28q12 34 42 53t68 19q51 0 87 -26.5t36 -70.5q0 -22 -12.5 -43.5t-32.5 -32.5q28 -11 45 -35t17 -55q0 -51 -38 -80.5t-92 -29.5q-41 0 -75 18.5t-51 54.5l63 29q17 -39 62 -39q23 0 38.5 12.5t15.5 35.5q0 24 -19 37t-49 13q-19 0 -30 -3z
" />
    <glyph glyph-name="oneeighth" unicode="&#x215b;" horiz-adv-x="798" 
d="M581 713l59 -43l-498 -683l-59 43zM718 102q0 -46 -37.5 -77t-92.5 -31q-56 0 -93 30.5t-37 77.5q0 59 54 89q-44 29 -44 77q0 42 33.5 71t86.5 29t86 -29t33 -71q0 -49 -44 -77q55 -29 55 -89zM542 264q0 -19 13 -31.5t33 -12.5q19 0 32.5 12.5t13.5 31.5
q0 18 -13.5 30.5t-32.5 12.5t-32.5 -12.5t-13.5 -30.5zM535 106q0 -21 15 -35.5t38 -14.5t38 14.5t15 35.5t-15 36t-38 15t-38 -15t-15 -36zM228 338h-76v277q-34 -16 -54 -24v69l34.5 17.5l43.5 22.5h52v-362z" />
    <glyph glyph-name="threeeighths" unicode="&#x215c;" horiz-adv-x="868" 
d="M650 713l59 -43l-497 -683l-59 43zM788 102q0 -46 -37.5 -77t-92.5 -31q-56 0 -93 30.5t-37 77.5q0 59 54 89q-44 28 -44 77q0 42 33.5 71t86.5 29t86 -29t33 -71q0 -49 -44 -77q55 -29 55 -89zM612 264q0 -19 13 -31.5t33 -12.5q19 0 32 12.5t13 31.5q0 18 -13 30.5
t-32 12.5t-32.5 -12.5t-13.5 -30.5zM604 106q0 -21 15.5 -35.5t38.5 -14.5q22 0 37.5 14.5t15.5 35.5t-15.5 36t-37.5 15q-23 0 -38.5 -15t-15.5 -36zM160 492v63q30 0 43 4q39 10 39 44q0 18 -12.5 29.5t-35.5 11.5q-37 0 -46 -37l-63 28q12 34 42 53t68 19q51 0 87 -26.5
t36 -70.5q0 -22 -12.5 -43.5t-32.5 -32.5q28 -11 45 -35t17 -55q0 -51 -38 -80.5t-92 -29.5q-41 0 -75 18.5t-51 54.5l63 29q17 -39 62 -39q23 0 38.5 12.5t15.5 35.5q0 24 -19 37t-49 13q-19 0 -30 -3z" />
    <glyph glyph-name="fiveeighths" unicode="&#x215d;" horiz-adv-x="855" 
d="M638 713l59 -43l-497 -683l-59 43zM315 637h-131q0 -6 -6 -78q19 10 47 10q45 0 76 -32.5t31 -78.5q0 -53 -37 -88.5t-91 -35.5q-87 0 -124 70l63 30q15 -37 57 -37q25 0 39.5 16.5t14.5 40.5q0 23 -15 38t-39 15q-30 0 -48 -22l-49 33q8 83 12 182h200v-63zM775 102
q0 -46 -37.5 -77t-92.5 -31q-56 0 -93 31t-37 77q0 58 55 89q-44 28 -44 77q0 42 33 71t86 29t86.5 -29t33.5 -71q0 -49 -44 -77q54 -28 54 -89zM600 264q0 -19 13 -31.5t32 -12.5q20 0 33 12.5t13 31.5q0 18 -13.5 30.5t-32.5 12.5t-32 -12.5t-13 -30.5zM592 106
q0 -21 15.5 -35.5t37.5 -14.5q23 0 38.5 14.5t15.5 35.5t-15.5 36t-38.5 15q-22 0 -37.5 -15t-15.5 -36z" />
    <glyph glyph-name="seveneighths" unicode="&#x215e;" horiz-adv-x="799" 
d="M582 713l59 -43l-498 -683l-59 43zM719 102q0 -46 -37.5 -77t-92.5 -31q-56 0 -93 30.5t-37 77.5q0 59 54 89q-44 29 -44 77q0 42 33.5 71t86.5 29t86.5 -29t33.5 -71q0 -48 -44 -77q54 -29 54 -89zM543 264q0 -19 13 -31.5t33 -12.5q19 0 32.5 12.5t13.5 31.5
q0 18 -13.5 30.5t-32.5 12.5t-32.5 -12.5t-13.5 -30.5zM536 106q0 -21 15 -35.5t38 -14.5t38 14.5t15 35.5t-15 36t-38 15t-38 -15t-15 -36zM336 653q-78 -157 -149 -330l-70 32q33 77 134 281h-162v64h247v-47z" />
    <glyph glyph-name="uni2192" unicode="&#x2192;" horiz-adv-x="953" 
d="M67 224v80h665l-197 194l58 57l293 -291l-293 -292l-58 58l197 194h-665z" />
    <glyph glyph-name="uni2194" unicode="&#x2194;" horiz-adv-x="1138" 
d="M418 498l-198 -194h698l-197 194l57 57l293 -291l-293 -292l-57 58l197 194h-698l198 -194l-57 -58l-294 292l294 291z" />
    <glyph glyph-name="uni21D2" unicode="&#x21d2;" horiz-adv-x="970" 
d="M676 377l-123 121l57 57l293 -291l-293 -292l-57 58l123 121h-609v80h690l34 33l-34 33h-690v80h609z" />
    <glyph glyph-name="uni21D4" unicode="&#x21d4;" horiz-adv-x="1230" 
d="M936 377l-123 121l57 57l293 -291l-293 -292l-57 58l123 121h-641l123 -121l-57 -58l-294 292l294 291l57 -57l-124 -121h642zM213 297l-34 -33l34 -33h804l34 33l-34 33h-804z" />
    <glyph glyph-name="uni21FD" unicode="&#x21fd;" horiz-adv-x="953" 
d="M362 -27l-295 291l295 290v-250h524v-80h-524v-251zM283 367l-105 -103l105 -104v207z" />
    <glyph glyph-name="uni21FE" unicode="&#x21fe;" horiz-adv-x="952" 
d="M885 264l-293 -291v251h-525v80h525v250zM775 264l-105 103v-207z" />
    <glyph glyph-name="uni21FF" unicode="&#x21ff;" horiz-adv-x="1230" 
d="M1163 264l-294 -291v251h-507v-251l-295 291l295 290v-250h507v250zM283 367l-105 -103l105 -104v207zM1052 264l-105 103v-207z" />
    <glyph glyph-name="uni2200" unicode="&#x2200;" horiz-adv-x="662" 
d="M14 700h124l53 -144h286l52 144h118l-274 -700h-92zM333 163l110 299h-219l108 -299h1z" />
    <glyph glyph-name="partialdiff" unicode="&#x2202;" 
d="M30 695l36 86q228 -95 351 -222.5t123 -308.5q0 -113 -73 -187.5t-195 -74.5q-111 0 -184.5 79.5t-73.5 187.5q0 104 71.5 177.5t178.5 73.5q44 0 80 -13q-90 108 -314 202zM408 392q-48 24 -100 24q-86 0 -138 -40.5t-52 -118.5q0 -72 46 -124.5t115 -52.5q71 0 114 48
t43 116q0 81 -28 148z" />
    <glyph glyph-name="uni2203" unicode="&#x2203;" horiz-adv-x="580" 
d="M62 700h427v-700h-427v94h320v198h-320v94h320v220h-320v94z" />
    <glyph glyph-name="uni2204" unicode="&#x2204;" horiz-adv-x="580" 
d="M62 700h240l24 83l80 -21l-18 -62h101v-700h-302l-23 -82l-80 21l17 61h-39v94h66l57 198h-123v94h150l63 220h-213v94zM382 292h-111l-57 -198h168v198zM382 606h-21l-63 -220h84v220z" />
    <glyph glyph-name="Delta" unicode="&#x2206;" horiz-adv-x="633" 
d="M632 0h-631l271 700h92zM474 94l-160 439h-1l-161 -439h322z" />
    <glyph glyph-name="uni2208" unicode="&#x2208;" 
d="M490 0h-122q-164 0 -242.5 68t-78.5 185t78.5 185t242.5 68h122v-88h-144q-84 0 -131.5 -33t-60.5 -87h336v-89h-336q13 -55 60.5 -87.5t131.5 -32.5h144v-89z" />
    <glyph glyph-name="uni2209" unicode="&#x2209;" 
d="M451 615l-31 -109h70v-88h-96l-34 -120h130v-89h-156l-33 -118q28 -2 45 -2h144v-89h-122q-50 0 -91 6l-40 -136l-80 21l39 136q-149 59 -149 226q0 110 70 177.5t216 74.5l37 132zM306 415q-65 -7 -103 -38.5t-49 -78.5h119zM154 209q13 -62 67 -92l26 92h-93z" />
    <glyph glyph-name="product" unicode="&#x220f;" 
d="M546 478h-90v-478h-107v478h-148v-478h-107v478h-90v94h542v-94z" />
    <glyph glyph-name="summation" unicode="&#x2211;" 
d="M402 365l-212 -271h345v-94h-518v56l250 306l-239 281v57h482v-94h-313z" />
    <glyph glyph-name="minus" unicode="&#x2212;" 
d="M49 355h451v-88h-451v88z" />
    <glyph glyph-name="uni2215" unicode="&#x2215;" horiz-adv-x="373" 
d="M375 731l-291 -786l-84 32l291 786z" />
    <glyph glyph-name="uni2219" unicode="&#x2219;" 
d="M333 250h-117v124h117v-124z" />
    <glyph glyph-name="radical" unicode="&#x221a;" 
d="M555 750l-242 -750h-104l-125 417h-85v89h172l93 -360h2l179 604h110z" />
    <glyph glyph-name="infinity" unicode="&#x221e;" horiz-adv-x="778" 
d="M740 247q0 -69 -49.5 -118t-119.5 -49q-46 0 -88.5 26t-94.5 82q-55 -57 -95.5 -82.5t-85.5 -25.5q-71 0 -120 49.5t-49 119.5t49.5 119t119.5 49q45 0 87 -26t96 -82q55 57 95 82.5t86 25.5q71 0 120 -49.5t49 -120.5zM568 167q31 0 52 24t21 57q0 32 -21 57t-52 25
q-42 0 -120 -82q77 -81 120 -81zM210 330q-31 0 -52 -24t-21 -57q0 -32 21 -57t52 -25q42 0 120 82q-77 81 -120 81z" />
    <glyph glyph-name="uni2229" unicode="&#x2229;" 
d="M500 207v-207h-89v241q0 189 -136 189t-136 -189v-241h-89v207q0 311 225 311q111 0 168 -74.5t57 -236.5z" />
    <glyph glyph-name="uni222A" unicode="&#x222a;" 
d="M50 299v207h89v-241q0 -188 136 -188t136 188v241h89v-207q0 -311 -225 -311q-111 0 -168 74.5t-57 236.5z" />
    <glyph glyph-name="integral" unicode="&#x222b;" 
d="M497 738l-28 -84q-30 15 -64 15q-41 0 -57 -17q-16 -16 -19 -89l-26 -598q-4 -101 -46 -146q-37 -40 -110 -40q-38 0 -95 24l28 84q32 -16 55 -16q31 0 47 18q16 17 19 89l25 598q4 102 45 145q38 41 119 41q50 0 107 -24z" />
    <glyph glyph-name="uni2234" unicode="&#x2234;" 
d="M179 0h-117v124h117v-124zM488 0h-116v124h116v-124zM334 276h-117v124h117v-124z" />
    <glyph glyph-name="approxequal" unicode="&#x2248;" 
d="M439 455l62 -44q-39 -84 -137 -84q-38 0 -94.5 24t-84.5 24q-50 0 -74 -40l-63 44q39 85 137 85q38 0 94.5 -24t84.5 -24q50 0 75 39zM439 288l62 -44q-39 -85 -137 -85q-38 0 -94.5 24t-84.5 24q-51 0 -74 -40l-63 44q39 85 137 85q38 0 94.5 -24t84.5 -24q50 0 75 40z
" />
    <glyph glyph-name="notequal" unicode="&#x2260;" 
d="M65 83l340 504l68 -47l-341 -504zM49 439h451v-88h-451v88zM49 272h451v-88h-451v88z" />
    <glyph glyph-name="lessequal" unicode="&#x2264;" 
d="M21 344v82l507 203v-88l-391 -156l391 -156v-88zM21 86h507v-86h-507v86z" />
    <glyph glyph-name="greaterequal" unicode="&#x2265;" 
d="M528 426v-82l-507 -203v88l391 156l-391 156v88zM21 86h507v-86h-507v86z" />
    <glyph glyph-name="uni2282" unicode="&#x2282;" 
d="M490 0h-122q-164 0 -242.5 68t-78.5 185t78.5 185t242.5 68h122v-88h-144q-101 0 -149.5 -46.5t-48.5 -118.5q0 -71 48.5 -117.5t149.5 -46.5h144v-89z" />
    <glyph glyph-name="uni2283" unicode="&#x2283;" 
d="M182 0h-122v89h144q101 0 149.5 46.5t48.5 117.5q0 72 -48.5 118.5t-149.5 46.5h-144v88h122q164 0 242.5 -68t78.5 -185t-78.5 -185t-242.5 -68z" />
    <glyph glyph-name="uni2284" unicode="&#x2284;" 
d="M451 615l-31 -109h70v-88h-96l-93 -327q28 -2 45 -2h144v-89h-122q-50 0 -91 6l-40 -136l-80 21l39 136q-149 59 -149 226q0 110 70 177.5t216 74.5l37 132zM148 253q0 -94 73 -136l85 298q-80 -9 -119 -54t-39 -108z" />
    <glyph glyph-name="uni2285" unicode="&#x2285;" 
d="M393 615l-40 -136q150 -59 150 -226q0 -110 -70 -177.5t-216 -74.5l-37 -131l-81 21l31 109h-70v89h96l93 325q-19 4 -45 4h-144v88h122q53 0 91 -7l40 138zM402 253q0 93 -74 136l-85 -298q81 9 120 53.5t39 108.5z" />
    <glyph glyph-name="uni2286" unicode="&#x2286;" 
d="M490 168h-122q-164 0 -242.5 68t-78.5 185t78.5 185t242.5 68h122v-89h-144q-101 0 -149.5 -46.5t-48.5 -117.5q0 -72 48.5 -118.5t149.5 -46.5h144v-88zM61 0v89h429v-89h-429z" />
    <glyph glyph-name="uni2287" unicode="&#x2287;" 
d="M182 168h-122v88h144q101 0 149.5 46.5t48.5 118.5q0 71 -48.5 117.5t-149.5 46.5h-144v89h122q164 0 242.5 -68t78.5 -185t-78.5 -185t-242.5 -68zM60 0v89h429v-89h-429z" />
    <glyph glyph-name="uni22C4" unicode="&#x22c4;" 
d="M275 -60l-196 310l196 310l196 -310zM174 250l101 -162l101 162l-101 161z" />
    <glyph glyph-name="triangle" unicode="&#x25b3;" horiz-adv-x="398" 
d="M368 286l-308 -175v348z" />
    <glyph glyph-name="lozenge" unicode="&#x25ca;" 
d="M33 350l196 350h93l196 -350l-196 -350h-93zM420 350l-145 258l-144 -258l144 -258z" />
    <glyph glyph-name="circle" unicode="&#x25cb;" horiz-adv-x="366" 
d="M35 289q0 61 43.5 104.5t104.5 43.5t104.5 -43.5t43.5 -104.5t-43.5 -104.5t-104.5 -43.5t-104.5 43.5t-43.5 104.5z" />
    <glyph glyph-name="uni25FB" unicode="&#x25fb;" 
d="M93 396h364v-364h-364v364zM174 315v-202h202v202h-202z" />
    <glyph glyph-name="dotlessj" unicode="&#xf6be;" horiz-adv-x="272" 
d="M191 506v-548q0 -67 -18 -104q-35 -77 -137 -77q-57 0 -100 22l29 83q26 -14 57 -14q42 0 54 26.5t12 79.5v532h103z" />
    <glyph glyph-name="commainferior" unicode="&#xf6e1;" horiz-adv-x="165" 
d="M126 -94l-42 -161h-73l33 161h82z" />
    <glyph glyph-name="commasuperior" unicode="&#xf6e2;" horiz-adv-x="165" 
d="M126 451l-42 -161h-73l33 161h82z" />
    <glyph glyph-name="hypheninferior" unicode="&#xf6e5;" horiz-adv-x="276" 
d="M217 -39h-158v65h158v-65z" />
    <glyph glyph-name="hyphensuperior" unicode="&#xf6e6;" horiz-adv-x="276" 
d="M217 506h-158v65h158v-65z" />
    <glyph glyph-name="periodinferior" unicode="&#xf6e7;" horiz-adv-x="158" 
d="M120 -178h-82v83h82v-83z" />
    <glyph glyph-name="periodsuperior" unicode="&#xf6e8;" horiz-adv-x="158" 
d="M120 367h-82v83h82v-83z" />
    <glyph glyph-name="M.salt" horiz-adv-x="838" 
d="M453 155h-69l-188 382v-537h-105v700h137l190 -394h2l191 394h136v-700h-105v538z" />
    <glyph glyph-name="trademark.salt" horiz-adv-x="881" 
d="M419 700h96l100 -210l101 210h94v-411h-80v265l-91 -183h-49l-90 182v-264h-81v411zM353 629h-98v-340h-81v340h-97v71h276v-71z" />
    <glyph glyph-name="hyphen.case" horiz-adv-x="457" 
d="M361 291h-265v91h265v-91z" />
    <glyph glyph-name="zero.lf" horiz-adv-x="553" 
d="M276 676q114 0 176.5 -91.5t62.5 -252.5t-62.5 -252.5t-176.5 -91.5q-113 0 -175.5 91.5t-62.5 252.5t62.5 252.5t175.5 91.5zM276 582q-63 0 -96.5 -63t-33.5 -187t34 -187t96 -63q63 0 97 63t34 187t-34 187t-97 63z" />
    <glyph glyph-name="one.lf" horiz-adv-x="348" 
d="M257 0h-106v539q-5 -3 -98 -44v98q72 36 135 71h69v-664z" />
    <glyph glyph-name="two.lf" horiz-adv-x="513" 
d="M385 315q-66 -94 -186 -223h286v-92h-428v90q160 168 232 273q58 85 58 135q0 39 -29.5 62.5t-70.5 23.5t-69.5 -28.5t-28.5 -72.5l-105 20q6 76 67.5 124.5t138.5 48.5q83 0 144 -49.5t61 -128.5q0 -84 -70 -183z" />
    <glyph glyph-name="three.lf" horiz-adv-x="523" 
d="M159 289v101q61 2 91 9q38 11 61 36t23 59q0 39 -29 64.5t-75 25.5q-36 0 -64 -18.5t-38 -52.5l-90 37q20 57 72.5 91.5t121.5 34.5q92 0 151 -49t59 -129q0 -44 -22.5 -82.5t-60.5 -58.5q52 -18 83.5 -63t31.5 -101q0 -94 -65 -149.5t-161 -55.5q-68 0 -127 30.5
t-88 87.5l85 45q38 -70 125 -70q52 0 88 27.5t36 78.5q0 48 -39 78.5t-98 30.5q-38 0 -71 -7z" />
    <glyph glyph-name="four.lf" horiz-adv-x="542" 
d="M424 0h-104v166h-295v105l291 393h108v-406h98v-92h-98v-166zM137 258h183v262z" />
    <glyph glyph-name="five.lf" horiz-adv-x="503" 
d="M439 664v-92h-247q-7 -129 -12 -174q40 18 93 18q83 0 142 -59.5t59 -144.5q0 -96 -64 -160t-161 -64q-66 0 -126 31.5t-88 84.5l85 46q37 -69 119 -69q58 0 92.5 36t34.5 90q0 52 -35 84.5t-90 32.5q-59 0 -98 -42l-74 44q10 101 23 338h347z" />
    <glyph glyph-name="six.lf" horiz-adv-x="539" 
d="M371 703l41 -91q-99 -44 -162.5 -101.5t-88.5 -143.5q56 56 141 56q87 0 143 -62t56 -151q0 -95 -61 -158.5t-155 -63.5q-112 0 -179.5 78.5t-67.5 188.5q0 153 94 271t239 177zM279 331q-42 0 -78.5 -20.5t-55.5 -56.5q0 -74 32.5 -124t99.5 -50q53 0 85 37t32 92
q0 54 -31.5 88t-83.5 34z" />
    <glyph glyph-name="seven.lf" horiz-adv-x="458" 
d="M439 664v-73q-144 -301 -275 -615l-97 43l87 196.5l104 221l64 133.5h-312v94h429z" />
    <glyph glyph-name="eight.lf" horiz-adv-x="562" 
d="M281 -12q-100 0 -163.5 56.5t-63.5 139.5q0 109 101 166q-81 49 -81 144q0 77 58 129.5t149 52.5q92 0 150 -52.5t58 -129.5q0 -94 -82 -144q102 -57 102 -166q0 -83 -64 -139.5t-164 -56.5zM281 299q-50 0 -85 -32t-35 -78q0 -47 34.5 -78t85.5 -31t86 31t35 78
q0 46 -35.5 78t-85.5 32zM281 584q-43 0 -73 -27t-30 -69q0 -40 30 -68.5t73 -28.5t73 28t30 69q0 42 -29.5 69t-73.5 27z" />
    <glyph glyph-name="nine.lf" horiz-adv-x="539" 
d="M168 -38l-41 90q205 90 251 245q-57 -55 -141 -55q-87 0 -143 61.5t-56 151.5q0 94 61 157.5t155 63.5q112 0 179.5 -78t67.5 -189q0 -152 -94 -270t-239 -177zM260 333q41 0 78 21t56 57q0 74 -32.5 123.5t-99.5 49.5q-53 0 -85 -36.5t-32 -91.5t31.5 -89t83.5 -34z" />
    <glyph glyph-name="dollar.lf" 
d="M25 91l71 67q80 -80 168 -80q58 0 97.5 27.5t39.5 81.5q0 14 -4.5 26.5t-9.5 21.5t-18 19t-21 15t-27 13.5t-27.5 11.5l-32 11.5t-30.5 11.5q-36 13 -61 26t-50.5 33.5t-38.5 51t-13 70.5q0 75 50.5 122.5t130.5 54.5v95h69v-97q84 -10 166 -67l-63 -75q-61 55 -144 55
q-42 0 -75 -22.5t-33 -64.5q0 -13 4.5 -24t15 -21t19.5 -16.5t28 -14.5l30.5 -12.5t35.5 -13l35 -12.5q38 -14 63.5 -27.5t52.5 -35.5t40.5 -53.5t13.5 -72.5q0 -85 -55 -138.5t-140 -65.5v-98h-68v95q-117 4 -219 102z" />
    <glyph glyph-name="Euro.lf" horiz-adv-x="650" 
d="M11 371v79h89q34 105 121 165.5t202 60.5q106 0 193 -54l-47 -81q-62 43 -145 43q-76 0 -131.5 -35t-82.5 -99h264v-79h-285q-2 -26 -2 -39q0 -26 2 -38h285v-79h-265q27 -64 83 -99t132 -35q88 0 154 48l55 -76q-92 -65 -211 -65q-116 0 -203 60.5t-120 166.5h-88v79h73
q-2 24 -2 38q0 13 2 39h-73z" />
    <glyph glyph-name="cent.lf" 
d="M439 177l52 -77q-54 -43 -133 -51v-88h-69v89q-96 14 -157 85t-61 178q0 99 61.5 172t156.5 89v90h69v-88q71 -6 128 -46l-50 -81q-46 36 -102 36q-66 0 -111.5 -50.5t-45.5 -121.5q0 -75 46 -123.5t111 -48.5q59 0 105 36z" />
    <glyph glyph-name="sterling.lf" 
d="M491 0h-413v94h56v218h-56v92h56v49q0 97 58 160t148 63q87 0 153 -39l-43 -86q-37 33 -103 33q-110 0 -110 -155v-25h133v-92h-133v-218h254v-94z" />
    <glyph glyph-name="yen.lf" 
d="M52 256v79h143l-184 329h120l146 -267h2l140 267h119l-187 -329h142v-79h-168v-62h168v-78h-169v-116h-103v116h-169v78h168v62h-168z" />
    <glyph glyph-name="florin.lf" 
d="M401 404v-92h-130l-40 -354q-9 -80 -49.5 -123.5t-103.5 -43.5q-38 0 -84 12l22 88q24 -8 50 -8q33 0 45.5 22t18.5 73l38 334h-79v92h89l12 105q9 80 53 123.5t114 43.5q66 0 134 -33l-39 -84q-37 25 -84 25q-40 0 -55.5 -22.5t-21.5 -71.5l-10 -86h120z" />
    <glyph glyph-name="afii61352.lf" horiz-adv-x="1132" 
d="M663 0h-96l-369 502v-502h-107v700h94l370 -502v502h108v-700zM927 716q76 0 126.5 -51.5t50.5 -126.5t-50.5 -126.5t-126.5 -51.5q-77 0 -127 51t-50 127t50 127t127 51zM1022 538q0 46 -26.5 77.5t-68.5 31.5t-68.5 -31.5t-26.5 -77.5t26.5 -77.5t68.5 -31.5t68.5 31.5
t26.5 77.5z" />
    <glyph glyph-name="percent.lf" horiz-adv-x="851" 
d="M219 706q68 0 116 -47t48 -115t-48 -115t-116 -47t-116 47t-48 115t48 115t116 47zM219 628q-35 0 -57.5 -23.5t-22.5 -60.5t22.5 -60.5t57.5 -23.5t57.5 23.5t22.5 60.5t-22.5 60.5t-57.5 23.5zM647 713l58 -43l-497 -683l-59 43zM632 318q68 0 116 -47t48 -115
t-48 -115t-116 -47t-116 47t-48 115t48 115t116 47zM632 240q-35 0 -57.5 -23.5t-22.5 -60.5t22.5 -60.5t57.5 -23.5t57.5 23.5t22.5 60.5t-22.5 60.5t-57.5 23.5z" />
    <glyph glyph-name="perthousand.lf" horiz-adv-x="1239" 
d="M219 706q68 0 116 -47t48 -115t-48 -115t-116 -47t-116 47t-48 115t48 115t116 47zM219 628q-35 0 -57.5 -23.5t-22.5 -60.5t22.5 -60.5t57.5 -23.5t57.5 23.5t22.5 60.5t-22.5 60.5t-57.5 23.5zM647 713l58 -43l-497 -683l-59 43zM632 318q68 0 116 -47t48 -115
t-48 -115t-116 -47t-116 47t-48 115t48 115t116 47zM632 240q-35 0 -57.5 -23.5t-22.5 -60.5t22.5 -60.5t57.5 -23.5t57.5 23.5t22.5 60.5t-22.5 60.5t-57.5 23.5zM1020 318q68 0 116 -47t48 -115t-48 -115t-116 -47t-116 47t-48 115t48 115t116 47zM1020 240
q-35 0 -57.5 -23.5t-22.5 -60.5t22.5 -60.5t57.5 -23.5t57.5 23.5t22.5 60.5t-22.5 60.5t-57.5 23.5z" />
    <glyph glyph-name="zero.osf" horiz-adv-x="616" 
d="M308 518q110 0 190 -77.5t80 -187.5q0 -111 -79.5 -188t-190.5 -77t-190.5 77t-79.5 188t79.5 188t190.5 77zM308 426q-69 0 -115.5 -49t-46.5 -124q0 -74 46.5 -123t115.5 -49t115.5 49t46.5 123q0 75 -46.5 124t-115.5 49z" />
    <glyph glyph-name="one.osf" horiz-adv-x="348" 
d="M257 0h-106v390q-33 -17 -98 -43v98q72 36 135 71h69v-516z" />
    <glyph glyph-name="two.osf" horiz-adv-x="512" 
d="M151 337l-103 21q8 72 61.5 116t129.5 44q82 0 137 -44.5t55 -118.5q0 -88 -105 -174q-48 -38 -131 -89h280v-92h-416v102q162 110 199 143q65 58 65 109q0 35 -23 53.5t-62 18.5q-37 0 -61 -24t-26 -65z" />
    <glyph glyph-name="three.osf" horiz-adv-x="523" 
d="M159 131v101q61 2 91 9q38 11 61 36t23 59q0 38 -29 63.5t-75 25.5q-36 0 -64 -18.5t-38 -51.5l-90 37q20 57 72.5 91.5t121.5 34.5q92 0 151 -49t59 -129q0 -44 -22.5 -82.5t-60.5 -58.5q52 -18 83.5 -63t31.5 -101q0 -94 -65 -149.5t-161 -55.5q-68 0 -127 30.5
t-88 87.5l85 45q38 -70 125 -70q52 0 88 27.5t36 78.5q0 48 -39 78.5t-98 30.5q-38 0 -71 -7z" />
    <glyph glyph-name="four.osf" horiz-adv-x="553" 
d="M537 0h-91v-158h-103v158h-323v106l323 400h103v-414h91v-92zM133 92h210v263q-109 -145 -210 -263z" />
    <glyph glyph-name="five.osf" horiz-adv-x="503" 
d="M439 506v-92h-247q-7 -129 -12 -175q40 18 93 18q84 0 142.5 -59t58.5 -144q0 -96 -64 -160t-161 -64q-66 0 -126 31.5t-88 84.5l85 46q37 -69 119 -69q58 0 92.5 36t34.5 90q0 52 -35 84t-90 32q-60 0 -98 -41l-74 43q10 102 23 339h347z" />
    <glyph glyph-name="six.osf" horiz-adv-x="539" 
d="M371 703l41 -91q-99 -44 -162.5 -101.5t-88.5 -143.5q56 56 141 56q87 0 143 -62t56 -151q0 -95 -61 -158.5t-155 -63.5q-112 0 -179.5 78.5t-67.5 188.5q0 153 94 271t239 177zM145 254q0 -74 32.5 -124t99.5 -50q53 0 85 37t32 92q0 54 -31.5 88t-83.5 34
q-42 0 -78.5 -20.5t-55.5 -56.5z" />
    <glyph glyph-name="seven.osf" horiz-adv-x="458" 
d="M439 506v-73q-144 -301 -275 -615l-97 43l87 196.5l104 221l64 133.5h-312v94h429z" />
    <glyph glyph-name="eight.osf" horiz-adv-x="562" 
d="M407 350q102 -57 102 -166q0 -83 -64 -139.5t-164 -56.5t-163.5 56.5t-63.5 139.5q0 109 101 166q-81 49 -81 144q0 77 58 129.5t149 52.5q92 0 150 -52.5t58 -129.5q0 -94 -82 -144zM281 299q-50 0 -85 -32t-35 -78q0 -47 34.5 -78t85.5 -31t86 31t35 78q0 46 -35.5 78
t-85.5 32zM281 584q-43 0 -73 -27t-30 -69q0 -40 30 -68.5t73 -28.5t73 28t30 69q0 42 -29.5 69t-73.5 27z" />
    <glyph glyph-name="nine.osf" horiz-adv-x="539" 
d="M168 -196l-41 90q205 90 251 245q-57 -55 -141 -55q-87 0 -143 61.5t-56 151.5q0 94 61 157.5t155 63.5q112 0 179.5 -78t67.5 -189q0 -152 -94 -270t-239 -177zM394 253q0 74 -32.5 123.5t-99.5 49.5q-53 0 -85 -36.5t-32 -91.5t31.5 -89t83.5 -34q41 0 78 21t56 57z
" />
    <glyph glyph-name="dollar.osf" 
d="M25 91l71 67q80 -80 168 -80q58 0 97.5 27.5t39.5 81.5q0 14 -4.5 26.5t-9.5 21.5t-18 19t-21 15t-27 13.5t-27.5 11.5l-32 11.5t-30.5 11.5q-36 13 -61 26t-50.5 33.5t-38.5 51t-13 70.5q0 75 50.5 122.5t130.5 54.5v95h69v-97q84 -10 166 -67l-63 -75q-61 55 -144 55
q-42 0 -75 -22.5t-33 -64.5q0 -13 4.5 -24t15 -21t19.5 -16.5t28 -14.5l30.5 -12.5t35.5 -13l35 -12.5q38 -14 63.5 -27.5t52.5 -35.5t40.5 -53.5t13.5 -72.5q0 -85 -55 -138.5t-140 -65.5v-98h-68v95q-117 4 -219 102z" />
    <glyph glyph-name="Euro.osf" horiz-adv-x="650" 
d="M11 371v79h89q34 105 121 165.5t202 60.5q106 0 193 -54l-47 -81q-62 43 -145 43q-76 0 -131.5 -35t-82.5 -99h264v-79h-285q-2 -26 -2 -39q0 -26 2 -38h285v-79h-265q27 -64 83 -99t132 -35q88 0 154 48l55 -76q-92 -65 -211 -65q-116 0 -203 60.5t-120 166.5h-88v79h73
q-2 24 -2 38q0 13 2 39h-73z" />
    <glyph glyph-name="cent.osf" 
d="M439 177l52 -77q-54 -43 -133 -51v-88h-69v89q-96 14 -157 85t-61 178q0 99 61.5 172t156.5 89v90h69v-88q71 -6 128 -46l-50 -81q-46 36 -102 36q-66 0 -111.5 -50.5t-45.5 -121.5q0 -75 46 -123.5t111 -48.5q59 0 105 36z" />
    <glyph glyph-name="sterling.osf" 
d="M491 0h-413v94h56v218h-56v92h56v48q0 98 58 161t148 63q88 0 153 -40l-43 -85q-36 32 -103 32q-57 0 -83.5 -41.5t-26.5 -112.5v-25h133v-92h-133v-218h254v-94z" />
    <glyph glyph-name="yen.osf" 
d="M52 267v68h143l-184 329h120l146 -267h2l140 267h119l-187 -329h143v-68h-169v-55h169v-68h-170v-144h-103v144h-169v68h168v55h-168z" />
    <glyph glyph-name="florin.osf" 
d="M401 404v-92h-130l-40 -354q-9 -80 -49.5 -123.5t-103.5 -43.5q-38 0 -84 12l22 88q24 -8 50 -8q33 0 45.5 22t18.5 73l38 334h-79v92h89l12 105q9 80 53 123.5t114 43.5q66 0 134 -33l-39 -84q-37 25 -84 25q-40 0 -55.5 -22.5t-21.5 -71.5l-10 -86h120z" />
    <glyph glyph-name="afii61352.osf" horiz-adv-x="1132" 
d="M663 0h-96l-369 502v-502h-107v700h94l370 -502v502h108v-700zM927 716q76 0 126.5 -51.5t50.5 -126.5t-50.5 -126.5t-126.5 -51.5q-77 0 -127 51t-50 127t50 127t127 51zM1022 538q0 46 -26.5 77.5t-68.5 31.5t-68.5 -31.5t-26.5 -77.5t26.5 -77.5t68.5 -31.5t68.5 31.5
t26.5 77.5z" />
    <glyph glyph-name="percent.osf" horiz-adv-x="851" 
d="M219 706q68 0 116 -47t48 -115t-48 -115t-116 -47t-116 47t-48 115t48 115t116 47zM219 628q-35 0 -57.5 -23.5t-22.5 -60.5t22.5 -60.5t57.5 -23.5t57.5 23.5t22.5 60.5t-22.5 60.5t-57.5 23.5zM647 713l58 -43l-497 -683l-59 43zM632 318q68 0 116 -47t48 -115
t-48 -115t-116 -47t-116 47t-48 115t48 115t116 47zM632 240q-35 0 -57.5 -23.5t-22.5 -60.5t22.5 -60.5t57.5 -23.5t57.5 23.5t22.5 60.5t-22.5 60.5t-57.5 23.5z" />
    <glyph glyph-name="perthousand.osf" horiz-adv-x="1239" 
d="M219 706q68 0 116 -47t48 -115t-48 -115t-116 -47t-116 47t-48 115t48 115t116 47zM219 628q-35 0 -57.5 -23.5t-22.5 -60.5t22.5 -60.5t57.5 -23.5t57.5 23.5t22.5 60.5t-22.5 60.5t-57.5 23.5zM647 713l58 -43l-497 -683l-59 43zM632 318q68 0 116 -47t48 -115
t-48 -115t-116 -47t-116 47t-48 115t48 115t116 47zM632 240q-35 0 -57.5 -23.5t-22.5 -60.5t22.5 -60.5t57.5 -23.5t57.5 23.5t22.5 60.5t-22.5 60.5t-57.5 23.5zM1020 318q68 0 116 -47t48 -115t-48 -115t-116 -47t-116 47t-48 115t48 115t116 47zM1020 240
q-35 0 -57.5 -23.5t-22.5 -60.5t22.5 -60.5t57.5 -23.5t57.5 23.5t22.5 60.5t-22.5 60.5t-57.5 23.5z" />
    <glyph glyph-name="zero.slash" 
d="M275 676q113 0 175.5 -91.5t62.5 -252.5t-62.5 -252.5t-175.5 -91.5t-175.5 91.5t-62.5 252.5t62.5 252.5t175.5 91.5zM275 82q117 0 129 208h-258q10 -208 129 -208zM275 582q-119 0 -129 -207h258q-12 207 -129 207z" />
    <glyph glyph-name="zero.tf" 
d="M275 676q114 0 176.5 -91.5t62.5 -252.5t-62.5 -252.5t-176.5 -91.5q-113 0 -175.5 91.5t-62.5 252.5t62.5 252.5t175.5 91.5zM275 582q-63 0 -96.5 -63t-33.5 -187t34 -187t96 -63q63 0 97 63t34 187t-34 187t-97 63z" />
    <glyph glyph-name="one.tf" 
d="M109 93h152v458q-76 -38 -171 -78v99l200 98h77v-577h140v-93h-398v93z" />
    <glyph glyph-name="two.tf" 
d="M495 92v-92h-428v90q160 168 232 273q58 85 58 135q0 39 -29.5 62.5t-70.5 23.5t-69.5 -28.5t-28.5 -72.5l-105 20q6 76 67.5 124.5t138.5 48.5q83 0 144 -49.5t61 -128.5q0 -84 -70 -183q-66 -94 -186 -223h286z" />
    <glyph glyph-name="three.tf" 
d="M169 289v101q61 2 91 9q38 11 61 36t23 59q0 38 -29 63.5t-75 25.5q-36 0 -64 -18.5t-38 -51.5l-90 37q20 57 72.5 91.5t121.5 34.5q92 0 151 -49t59 -129q0 -44 -22.5 -82.5t-60.5 -58.5q52 -18 83.5 -63t31.5 -101q0 -94 -65 -149.5t-161 -55.5q-68 0 -127 30.5
t-88 87.5l85 45q38 -70 125 -70q52 0 88 27.5t36 78.5q0 48 -39 78.5t-98 30.5q-38 0 -71 -7z" />
    <glyph glyph-name="four.tf" 
d="M422 0h-104v166h-295v105l291 393h108v-406h98v-92h-98v-166zM135 258h183v262z" />
    <glyph glyph-name="five.tf" 
d="M457 664v-92h-247q-7 -129 -12 -175q40 18 93 18q84 0 142.5 -59t58.5 -144q0 -96 -64 -160t-161 -64q-66 0 -126 31.5t-88 84.5l85 46q37 -69 119 -69q58 0 92.5 36t34.5 90q0 52 -35 84t-90 32q-60 0 -98 -41l-74 43q10 102 23 339h347z" />
    <glyph glyph-name="six.tf" 
d="M376 703l41 -91q-99 -44 -162.5 -101.5t-88.5 -143.5q56 56 141 56q87 0 143 -62t56 -151q0 -95 -61 -158.5t-155 -63.5q-112 0 -179.5 78.5t-67.5 188.5q0 153 94 271t239 177zM150 254q0 -74 32.5 -124t99.5 -50q53 0 85 37t32 92q0 54 -31.5 88t-83.5 34
q-42 0 -78.5 -20.5t-55.5 -56.5z" />
    <glyph glyph-name="seven.tf" 
d="M483 664v-73q-144 -301 -275 -615l-97 43l87 196.5l104 221l64 133.5h-312v94h429z" />
    <glyph glyph-name="eight.tf" 
d="M401 350q102 -57 102 -166q0 -83 -64 -139.5t-164 -56.5t-163.5 56.5t-63.5 139.5q0 109 101 166q-81 49 -81 144q0 77 58 129.5t149 52.5q92 0 150 -52.5t58 -129.5q0 -94 -82 -144zM275 299q-50 0 -85 -32t-35 -78q0 -47 34.5 -78t85.5 -31t86 31t35 78q0 46 -35.5 78
t-85.5 32zM275 584q-43 0 -73 -27t-30 -69q0 -40 30 -68.5t73 -28.5t73 28t30 69q0 42 -29.5 69t-73.5 27z" />
    <glyph glyph-name="nine.tf" 
d="M174 -38l-41 90q205 90 251 245q-57 -55 -141 -55q-87 0 -143 61.5t-56 151.5q0 94 61 157.5t155 63.5q112 0 179.5 -78t67.5 -189q0 -152 -94 -270t-239 -177zM400 411q0 74 -32.5 123.5t-99.5 49.5q-53 0 -85 -36.5t-32 -91.5t31.5 -89t83.5 -34q41 0 78 21t56 57z" />
    <glyph glyph-name="dollar.tf" 
d="M25 91l71 67q80 -80 168 -80q58 0 97.5 27.5t39.5 81.5q0 14 -4.5 26.5t-9.5 21.5t-18 19t-21 15t-27 13.5t-27.5 11.5l-32 11.5t-30.5 11.5q-36 13 -61 26t-50.5 33.5t-38.5 51t-13 70.5q0 75 50.5 122.5t130.5 54.5v95h69v-97q84 -10 166 -67l-63 -75q-61 55 -144 55
q-42 0 -75 -22.5t-33 -64.5q0 -13 4.5 -24t15 -21t19.5 -16.5t28 -14.5l30.5 -12.5t35.5 -13l35 -12.5q38 -14 63.5 -27.5t52.5 -35.5t40.5 -53.5t13.5 -72.5q0 -85 -55 -138.5t-140 -65.5v-98h-68v95q-117 4 -219 102z" />
    <glyph glyph-name="Euro.tf" 
d="M19 371v79h79q21 108 78.5 167t148.5 59q70 0 122.5 -36.5t78.5 -104.5l-92 -33q-34 80 -108 80q-94 0 -121 -132h168v-79h-177q-1 -13 -1 -39q0 -27 1 -38h177v-79h-169q27 -133 122 -133q87 0 118 110l95 -28q-55 -176 -214 -176q-91 0 -149 59.5t-79 167.5h-78v79h69
q-1 12 -1 38t1 39h-69z" />
    <glyph glyph-name="cent.tf" 
d="M439 177l52 -77q-54 -43 -133 -51v-88h-69v89q-96 14 -157 85t-61 178q0 99 61.5 172t156.5 89v90h69v-88q71 -6 128 -46l-50 -81q-46 36 -102 36q-66 0 -111.5 -50.5t-45.5 -121.5q0 -75 46 -123.5t111 -48.5q59 0 105 36z" />
    <glyph glyph-name="sterling.tf" 
d="M491 0h-413v94h56v218h-56v92h56v49q0 97 58 160t148 63q87 0 153 -39l-43 -86q-37 33 -103 33q-110 0 -110 -155v-25h133v-92h-133v-218h254v-94z" />
    <glyph glyph-name="yen.tf" 
d="M52 256v79h143l-184 329h120l146 -267h2l140 267h119l-187 -329h142v-79h-168v-62h168v-78h-169v-116h-103v116h-169v78h168v62h-168z" />
    <glyph glyph-name="florin.tf" 
d="M401 404v-92h-130l-40 -354q-9 -80 -49.5 -123.5t-103.5 -43.5q-38 0 -84 12l22 88q24 -8 50 -8q33 0 45.5 22t18.5 73l38 334h-79v92h89l12 105q9 80 53 123.5t114 43.5q66 0 134 -33l-39 -84q-37 25 -84 25q-40 0 -55.5 -22.5t-21.5 -71.5l-10 -86h120z" />
    <glyph glyph-name="afii61352.tf" horiz-adv-x="1132" 
d="M663 0h-96l-369 502v-502h-107v700h94l370 -502v502h108v-700zM927 716q76 0 126.5 -51.5t50.5 -126.5t-50.5 -126.5t-126.5 -51.5q-77 0 -127 51t-50 127t50 127t127 51zM1022 538q0 46 -26.5 77.5t-68.5 31.5t-68.5 -31.5t-26.5 -77.5t26.5 -77.5t68.5 -31.5t68.5 31.5
t26.5 77.5z" />
    <glyph glyph-name="percent.tf" horiz-adv-x="851" 
d="M219 706q68 0 116 -47t48 -115t-48 -115t-116 -47t-116 47t-48 115t48 115t116 47zM219 628q-35 0 -57.5 -23.5t-22.5 -60.5t22.5 -60.5t57.5 -23.5t57.5 23.5t22.5 60.5t-22.5 60.5t-57.5 23.5zM647 713l58 -43l-497 -683l-59 43zM632 318q68 0 116 -47t48 -115
t-48 -115t-116 -47t-116 47t-48 115t48 115t116 47zM632 240q-35 0 -57.5 -23.5t-22.5 -60.5t22.5 -60.5t57.5 -23.5t57.5 23.5t22.5 60.5t-22.5 60.5t-57.5 23.5z" />
    <glyph glyph-name="perthousand.tf" horiz-adv-x="1239" 
d="M219 706q68 0 116 -47t48 -115t-48 -115t-116 -47t-116 47t-48 115t48 115t116 47zM219 628q-35 0 -57.5 -23.5t-22.5 -60.5t22.5 -60.5t57.5 -23.5t57.5 23.5t22.5 60.5t-22.5 60.5t-57.5 23.5zM647 713l58 -43l-497 -683l-59 43zM632 318q68 0 116 -47t48 -115
t-48 -115t-116 -47t-116 47t-48 115t48 115t116 47zM632 240q-35 0 -57.5 -23.5t-22.5 -60.5t22.5 -60.5t57.5 -23.5t57.5 23.5t22.5 60.5t-22.5 60.5t-57.5 23.5zM1020 318q68 0 116 -47t48 -115t-48 -115t-116 -47t-116 47t-48 115t48 115t116 47zM1020 240
q-35 0 -57.5 -23.5t-22.5 -60.5t22.5 -60.5t57.5 -23.5t57.5 23.5t22.5 60.5t-22.5 60.5t-57.5 23.5z" />
    <glyph glyph-name="zeroslash.tosf" 
d="M275 518q108 0 175 -76t67 -189t-67 -189t-175 -76t-175 76t-67 189t67 189t175 76zM275 81q114 0 131 130h-263q17 -130 132 -130zM275 426q-56 0 -90 -34t-42 -96h263q-8 62 -41.5 96t-89.5 34z" />
    <glyph glyph-name="zero.tosf" 
d="M275 518q108 0 175 -76t67 -189t-67 -189t-175 -76t-175 76t-67 189t67 189t175 76zM275 426q-65 0 -100 -45.5t-35 -127.5t35 -127t100 -45t100 45t35 127t-35 127.5t-100 45.5z" />
    <glyph glyph-name="one.tosf" 
d="M109 93h152v304q-79 -38 -171 -78v100q111 50 200 97h77v-423h140v-93h-398v93z" />
    <glyph glyph-name="two.tosf" 
d="M170 337l-103 21q8 72 61.5 116t129.5 44q82 0 137 -44.5t55 -118.5q0 -88 -105 -174q-48 -38 -131 -89h280v-92h-416v102q162 110 199 143q65 58 65 109q0 35 -23 53.5t-62 18.5q-37 0 -61 -24t-26 -65z" />
    <glyph glyph-name="three.tosf" 
d="M169 131v101q61 2 91 9q38 11 61 36t23 59q0 38 -29 63.5t-75 25.5q-36 0 -64 -18.5t-38 -51.5l-90 37q20 57 72.5 91.5t121.5 34.5q92 0 151 -49t59 -129q0 -44 -22.5 -82.5t-60.5 -58.5q52 -18 83.5 -63t31.5 -101q0 -94 -65 -149.5t-161 -55.5q-68 0 -127 30.5
t-88 87.5l85 45q38 -70 125 -70q52 0 88 27.5t36 78.5q0 48 -39 78.5t-98 30.5q-38 0 -71 -7z" />
    <glyph glyph-name="four.tosf" 
d="M533 0h-91v-158h-104v158h-323v106l324 400h103v-414h91v-92zM128 92h210v263q-96 -129 -210 -263z" />
    <glyph glyph-name="five.tosf" 
d="M457 506v-92h-247q-7 -129 -12 -175q40 18 93 18q84 0 142.5 -59t58.5 -144q0 -96 -64 -160t-161 -64q-66 0 -126 31.5t-88 84.5l85 46q37 -69 119 -69q58 0 92.5 36t34.5 90q0 52 -35 84t-90 32q-60 0 -98 -41l-74 43q10 102 23 339h347z" />
    <glyph glyph-name="six.tosf" 
d="M376 703l41 -91q-99 -44 -162.5 -101.5t-88.5 -143.5q56 56 141 56q87 0 143 -62t56 -151q0 -95 -61 -158.5t-155 -63.5q-112 0 -179.5 78.5t-67.5 188.5q0 153 94 271t239 177zM150 254q0 -74 32.5 -124t99.5 -50q53 0 85 37t32 92q0 54 -31.5 88t-83.5 34
q-42 0 -78.5 -20.5t-55.5 -56.5z" />
    <glyph glyph-name="seven.tosf" 
d="M483 506v-73q-144 -301 -275 -615l-97 43l87 196.5l104 221l64 133.5h-312v94h429z" />
    <glyph glyph-name="eight.tosf" 
d="M401 350q102 -57 102 -166q0 -83 -64 -139.5t-164 -56.5t-163.5 56.5t-63.5 139.5q0 109 101 166q-81 49 -81 144q0 77 58 129.5t149 52.5q92 0 150 -52.5t58 -129.5q0 -94 -82 -144zM275 299q-50 0 -85 -32t-35 -78q0 -47 34.5 -78t85.5 -31t86 31t35 78q0 46 -35.5 78
t-85.5 32zM275 584q-43 0 -73 -27t-30 -69q0 -40 30 -68.5t73 -28.5t73 28t30 69q0 42 -29.5 69t-73.5 27z" />
    <glyph glyph-name="nine.tosf" 
d="M174 -196l-41 90q205 90 251 245q-57 -55 -141 -55q-87 0 -143 61.5t-56 151.5q0 94 61 157.5t155 63.5q112 0 179.5 -78t67.5 -189q0 -152 -94 -270t-239 -177zM400 253q0 74 -32.5 123.5t-99.5 49.5q-53 0 -85 -36.5t-32 -91.5t31.5 -89t83.5 -34q41 0 78 21t56 57z
" />
    <glyph glyph-name="dollar.tosf" 
d="M25 91l71 67q80 -80 168 -80q58 0 97.5 27.5t39.5 81.5q0 14 -4.5 26.5t-9.5 21.5t-18 19t-21 15t-27 13.5t-27.5 11.5l-32 11.5t-30.5 11.5q-36 13 -61 26t-50.5 33.5t-38.5 51t-13 70.5q0 75 50.5 122.5t130.5 54.5v95h69v-97q84 -10 166 -67l-63 -75q-61 55 -144 55
q-42 0 -75 -22.5t-33 -64.5q0 -13 4.5 -24t15 -21t19.5 -16.5t28 -14.5l30.5 -12.5t35.5 -13l35 -12.5q38 -14 63.5 -27.5t52.5 -35.5t40.5 -53.5t13.5 -72.5q0 -85 -55 -138.5t-140 -65.5v-98h-68v95q-117 4 -219 102z" />
    <glyph glyph-name="Euro.tosf" 
d="M19 371v79h79q21 108 78.5 167t148.5 59q70 0 122.5 -36.5t78.5 -104.5l-92 -33q-34 80 -108 80q-94 0 -121 -132h168v-79h-177q-1 -13 -1 -39q0 -27 1 -38h177v-79h-169q27 -133 122 -133q87 0 118 110l95 -28q-55 -176 -214 -176q-91 0 -149 59.5t-79 167.5h-78v79h69
q-1 12 -1 38t1 39h-69z" />
    <glyph glyph-name="cent.tosf" 
d="M439 177l52 -77q-54 -43 -133 -51v-88h-69v89q-96 14 -157 85t-61 178q0 99 61.5 172t156.5 89v90h69v-88q71 -6 128 -46l-50 -81q-46 36 -102 36q-66 0 -111.5 -50.5t-45.5 -121.5q0 -75 46 -123.5t111 -48.5q59 0 105 36z" />
    <glyph glyph-name="sterling.tosf" 
d="M491 0h-413v94h56v218h-56v92h56v49q0 97 58 160t148 63q87 0 153 -39l-43 -86q-37 33 -103 33q-110 0 -110 -155v-25h133v-92h-133v-218h254v-94z" />
    <glyph glyph-name="yen.tosf" 
d="M52 256v79h143l-184 329h120l146 -267h2l140 267h119l-187 -329h142v-79h-168v-62h168v-78h-169v-116h-103v116h-169v78h168v62h-168z" />
    <glyph glyph-name="florin.tosf" 
d="M401 404v-92h-130l-40 -354q-9 -80 -49.5 -123.5t-103.5 -43.5q-38 0 -84 12l22 88q24 -8 50 -8q33 0 45.5 22t18.5 73l38 334h-79v92h89l12 105q9 80 53 123.5t114 43.5q66 0 134 -33l-39 -84q-37 25 -84 25q-40 0 -55.5 -22.5t-21.5 -71.5l-10 -86h120z" />
    <glyph glyph-name="afii61352.tosf" horiz-adv-x="1132" 
d="M663 0h-96l-369 502v-502h-107v700h94l370 -502v502h108v-700zM927 716q76 0 126.5 -51.5t50.5 -126.5t-50.5 -126.5t-126.5 -51.5q-77 0 -127 51t-50 127t50 127t127 51zM1022 538q0 46 -26.5 77.5t-68.5 31.5t-68.5 -31.5t-26.5 -77.5t26.5 -77.5t68.5 -31.5t68.5 31.5
t26.5 77.5z" />
    <glyph glyph-name="percent.tosf" horiz-adv-x="851" 
d="M219 706q68 0 116 -47t48 -115t-48 -115t-116 -47t-116 47t-48 115t48 115t116 47zM219 628q-35 0 -57.5 -23.5t-22.5 -60.5t22.5 -60.5t57.5 -23.5t57.5 23.5t22.5 60.5t-22.5 60.5t-57.5 23.5zM647 713l58 -43l-497 -683l-59 43zM632 318q68 0 116 -47t48 -115
t-48 -115t-116 -47t-116 47t-48 115t48 115t116 47zM632 240q-35 0 -57.5 -23.5t-22.5 -60.5t22.5 -60.5t57.5 -23.5t57.5 23.5t22.5 60.5t-22.5 60.5t-57.5 23.5z" />
    <glyph glyph-name="perthousand.tosf" horiz-adv-x="1239" 
d="M219 706q68 0 116 -47t48 -115t-48 -115t-116 -47t-116 47t-48 115t48 115t116 47zM219 628q-35 0 -57.5 -23.5t-22.5 -60.5t22.5 -60.5t57.5 -23.5t57.5 23.5t22.5 60.5t-22.5 60.5t-57.5 23.5zM647 713l58 -43l-497 -683l-59 43zM632 318q68 0 116 -47t48 -115
t-48 -115t-116 -47t-116 47t-48 115t48 115t116 47zM632 240q-35 0 -57.5 -23.5t-22.5 -60.5t22.5 -60.5t57.5 -23.5t57.5 23.5t22.5 60.5t-22.5 60.5t-57.5 23.5zM1020 318q68 0 116 -47t48 -115t-48 -115t-116 -47t-116 47t-48 115t48 115t116 47zM1020 240
q-35 0 -57.5 -23.5t-22.5 -60.5t22.5 -60.5t57.5 -23.5t57.5 23.5t22.5 60.5t-22.5 60.5t-57.5 23.5z" />
    <glyph glyph-name="germandbls.cap" horiz-adv-x="1218" 
d="M1069 560q-63 57 -146 57q-52 0 -84.5 -24t-32.5 -66q0 -17 8.5 -31.5t18 -23.5t32.5 -19.5t35 -15l43 -15.5q38 -13 61.5 -22.5t56.5 -28.5t51.5 -39.5t32.5 -53.5t14 -72q0 -56 -23 -99.5t-61 -68.5t-80.5 -37.5t-85.5 -12.5q-148 0 -257 108l75 71q47 -47 88 -65.5
t95 -18.5q56 0 95.5 28.5t39.5 84.5q0 21 -9 38.5t-21 29t-35 23.5t-39.5 18.5t-46.5 16.5q-42 15 -71.5 29.5t-60.5 37.5t-47 55.5t-16 73.5q0 94 61.5 144t152.5 50q123 0 221 -75zM460 560q-63 57 -146 57q-52 0 -84.5 -24t-32.5 -66q0 -17 8.5 -31.5t18 -23.5
t32.5 -19.5t35 -15l43 -15.5q38 -13 61.5 -22.5t56.5 -28.5t51.5 -39.5t32.5 -53.5t14 -72q0 -56 -23 -99.5t-61 -68.5t-80.5 -37.5t-85.5 -12.5q-148 0 -257 108l75 71q47 -47 88 -65.5t95 -18.5q56 0 95.5 28.5t39.5 84.5q0 21 -9 38.5t-21 29t-35 23.5t-39.5 18.5
t-46.5 16.5q-42 15 -71.5 29.5t-60.5 37.5t-47 55.5t-16 73.5q0 94 61.5 144t152.5 50q124 0 221 -75z" />
    <glyph glyph-name="idotaccent" horiz-adv-x="263" 
d="M183 0h-103v506h103v-506zM183 598h-103v107h103v-107z" />
    <glyph glyph-name="s_t" horiz-adv-x="812" 
d="M394 460l-60 -65q-43 39 -100 39q-31 0 -50 -16.5t-19 -43.5q0 -17 15.5 -32t30.5 -22t47 -20q25 -10 41.5 -17.5t38.5 -21.5t35.5 -28.5t23 -36.5t9.5 -48q0 -80 -53.5 -120t-132.5 -40q-115 0 -182 81l68 59q53 -55 113 -55q36 0 60 18t24 51q0 18 -15.5 33.5t-31.5 23
t-49 20.5q-34 14 -51.5 22.5t-42.5 26.5t-36 42t-11 56q0 73 49 112.5t119 39.5q96 0 160 -58zM786 417h-139v-220q0 -25 1 -40q2 -38 17 -57t47 -19q29 0 57 14l30 -81q-43 -24 -101 -24q-106 0 -139 86q-15 38 -15 100v241h-66v89h66l5 119h98v-119h139v-89z" />
    <glyph glyph-name="s_p" horiz-adv-x="1088" 
d="M394 460l-60 -65q-43 39 -100 39q-31 0 -50 -16.5t-19 -43.5q0 -17 15.5 -32t30.5 -22t47 -20q25 -10 41.5 -17.5t38.5 -21.5t35.5 -28.5t23 -36.5t9.5 -48q0 -80 -53.5 -120t-132.5 -40q-115 0 -182 81l68 59q53 -55 113 -55q36 0 60 18t24 51q0 18 -15.5 33.5t-31.5 23
t-49 20.5q-34 14 -51.5 22.5t-42.5 26.5t-36 42t-11 56q0 73 49 112.5t119 39.5q96 0 160 -58zM538 506h98l3 -67q26 38 70 58.5t91 20.5q106 0 177 -77t71 -189q0 -106 -70.5 -185t-179.5 -79q-94 0 -157 66v-304h-103v756zM641 335v-181q25 -35 63 -54t77 -19
q77 0 119.5 52t42.5 121q0 70 -44 120.5t-116 50.5q-42 0 -83 -23.5t-59 -66.5z" />
    <glyph glyph-name="c_t" horiz-adv-x="853" 
d="M408 117l52 -76q-62 -53 -161 -53q-111 0 -185 73.5t-74 191.5q0 111 76 188t187 77q85 0 152 -48l-50 -81q-47 36 -102 36q-66 0 -112 -50.5t-46 -121.5q0 -75 46.5 -123.5t111.5 -48.5q59 0 105 36zM827 417h-139v-220q0 -25 1 -40q2 -38 17 -57t47 -19q29 0 57 14
l30 -81q-43 -24 -101 -24q-106 0 -139 86q-15 38 -15 100v241h-66v89h66l5 119h98v-119h139v-89z" />
    <glyph glyph-name="c_h" horiz-adv-x="1093" 
d="M408 117l52 -76q-62 -53 -161 -53q-111 0 -185 73.5t-74 191.5q0 111 76 188t187 77q85 0 152 -48l-50 -81q-47 36 -102 36q-66 0 -112 -50.5t-46 -121.5q0 -75 46.5 -123.5t111.5 -48.5q59 0 105 36zM667 750v-322q28 43 71 66.5t91 23.5q96 0 144 -64q45 -62 45 -191
v-263h-103v254q0 94 -24 132q-24 39 -83 39q-40 0 -78 -24.5t-63 -65.5v-335h-103v750h103z" />
    <glyph glyph-name="c_k" horiz-adv-x="1008" 
d="M408 117l52 -76q-62 -53 -161 -53q-111 0 -185 73.5t-74 191.5q0 111 76 188t187 77q85 0 152 -48l-50 -81q-47 36 -102 36q-66 0 -112 -50.5t-46 -121.5q0 -75 46.5 -123.5t111.5 -48.5q59 0 105 36zM667 750v-486l2 -1l195 243h124l-179 -208l194 -298h-124l-138 218
l-74 -86v-132h-103v750h103z" />
    <glyph glyph-name="T_h" horiz-adv-x="1058" 
d="M472 606h-174v-606h-107v606h-174v94h455v-94zM632 750v-322q28 43 71 66.5t91 23.5q96 0 144 -64q45 -62 45 -191v-263h-103v254q0 94 -24 132q-24 39 -83 39q-40 0 -78 -24.5t-63 -65.5v-335h-103v750h103z" />
    <glyph glyph-name="zerosuperior" horiz-adv-x="342" 
d="M171 428q67 0 67 140t-67 140t-67 -140t67 -140zM171 775q71 0 110 -55t39 -152t-39 -152t-110 -55t-110 55t-39 152t39 152t110 55z" />
    <glyph glyph-name="foursuperior" horiz-adv-x="338" 
d="M19 539q35 43 171 230h81v-236h57v-64h-57v-102h-78v102h-174v70zM193 533v133q-67 -102 -92 -133h92z" />
    <glyph glyph-name="fivesuperior" horiz-adv-x="319" 
d="M274 704h-145q-2 -51 -6 -91q23 10 52 10q50 0 84.5 -36t34.5 -86q0 -60 -40 -99t-100 -39q-43 0 -80 20t-55 56l64 33q19 -43 65 -43q29 0 46.5 19.5t17.5 46.5t-17.5 44.5t-45.5 17.5q-35 0 -54 -25l-53 35q9 83 13 202h219v-65z" />
    <glyph glyph-name="sixsuperior" horiz-adv-x="336" 
d="M231 793l27 -64q-115 -47 -143 -129q33 26 74 26q54 0 89.5 -37t35.5 -92q0 -58 -39 -97t-98 -39q-70 0 -112.5 47t-42.5 117q0 94 58.5 163.5t150.5 104.5zM172 561q-46 0 -69 -38q0 -42 16.5 -69t52.5 -27q28 0 44.5 19.5t16.5 47.5q0 30 -17 48.5t-44 18.5z" />
    <glyph glyph-name="sevensuperior" horiz-adv-x="284" 
d="M274 769v-49q-91 -190 -164 -368l-72 33q40 93 146 318h-178v66h268z" />
    <glyph glyph-name="eightsuperior" horiz-adv-x="348" 
d="M303 664q0 -55 -48 -86q60 -35 60 -98q0 -51 -40 -85t-101 -34t-101 34t-40 85q0 64 59 98q-48 32 -48 86q0 47 37 79t93 32q57 0 93 -32t36 -79zM174 543q-25 0 -43 -17t-18 -41q0 -25 18 -42t43 -17q26 0 43 17t17 42t-17 41.5t-43 16.5zM174 709q-21 0 -36 -14
t-15 -35q0 -22 15 -37t36 -15q22 0 36.5 15t14.5 37q0 21 -14.5 35t-36.5 14z" />
    <glyph glyph-name="ninesuperior" horiz-adv-x="336" 
d="M105 343l-27 65q115 46 142 129q-29 -26 -74 -26q-54 0 -89 37t-35 91q0 58 38.5 97t97.5 39q71 0 113.5 -47t42.5 -116q0 -94 -58.5 -164t-150.5 -105zM164 576q44 0 69 38q0 41 -17 68.5t-52 27.5q-28 0 -44.5 -19.5t-16.5 -48.5t17 -47.5t44 -18.5z" />
    <glyph glyph-name="parenleftsuperior" horiz-adv-x="221" 
d="M224 315l-28 -53q-170 102 -170 289q0 184 170 288l29 -53q-122 -79 -122 -235q0 -159 121 -236z" />
    <glyph glyph-name="parenrightsuperior" horiz-adv-x="221" 
d="M24 262l-28 53q122 78 122 236q0 155 -122 235l29 53q169 -105 169 -288q0 -187 -170 -289z" />
    <glyph glyph-name="minussuperior" horiz-adv-x="341" 
d="M29 587h283v-65h-283v65z" />
    <glyph glyph-name="plussuperior" horiz-adv-x="336" 
d="M135 404v118h-117v65h117v118h65v-118h118v-65h-118v-118h-65z" />
    <glyph glyph-name="equalsuperior" horiz-adv-x="341" 
d="M29 642h283v-63h-283v63zM29 531h283v-65h-283v65z" />
    <glyph glyph-name="a.sup" horiz-adv-x="342" 
d="M300 367h-68l-5 28q-30 -35 -86 -35q-47 0 -79 25t-32 71q0 53 39.5 77t96.5 24q31 0 56 -6v7q0 64 -64 64q-44 0 -94 -28l-21 57q62 32 130 32q63 0 95 -34t32 -96v-186zM222 503q-21 5 -43 5q-29 0 -50.5 -11.5t-21.5 -36.5q0 -22 14.5 -33t35.5 -11q32 0 65 28v59z
" />
    <glyph glyph-name="b.sup" horiz-adv-x="386" 
d="M215 360q-61 0 -96 42l-3 -35h-70v450h78v-177q33 43 93 43q63 0 104.5 -47t41.5 -114q0 -66 -41.5 -114t-106.5 -48zM199 616q-52 0 -75 -45v-108q27 -36 74 -36q40 0 62.5 28.5t22.5 66.5q0 39 -23 66.5t-61 27.5z" />
    <glyph glyph-name="c.sup" horiz-adv-x="298" 
d="M247 450l41 -53q-41 -37 -106 -37q-69 0 -114 44.5t-45 116.5q0 69 46 115.5t115 46.5q57 0 103 -35l-41 -56q-26 24 -59 24q-36 0 -60 -27.5t-24 -67.5q0 -41 23.5 -67.5t59.5 -26.5q33 0 61 23z" />
    <glyph glyph-name="d.sup" horiz-adv-x="386" 
d="M269 367l-4 39q-29 -46 -95 -46q-64 0 -105.5 47t-41.5 115q0 65 41.5 113t105.5 48q57 0 92 -38v172h78v-450h-71zM186 427q52 0 76 45v108q-29 36 -75 36q-40 0 -62 -28.5t-22 -67.5q0 -38 23 -65.5t60 -27.5z" />
    <glyph glyph-name="e.sup" horiz-adv-x="350" 
d="M267 468l52 -34q-50 -74 -140 -74q-70 0 -113 44.5t-43 114.5t45 117t112 47q62 0 104.5 -41t42.5 -102q0 -14 -4 -38h-221q4 -35 26 -57t56 -22q54 0 83 45zM181 622q-59 0 -75 -66h141q-2 29 -20.5 47.5t-45.5 18.5z" />
    <glyph glyph-name="f.sup" horiz-adv-x="221" 
d="M239 808l-22 -60q-19 10 -41 10q-24 0 -31.5 -12.5t-7.5 -40.5v-30h78v-63h-78v-245h-78v245h-34v63h34v35q0 56 25 85t82 29q38 0 73 -16z" />
    <glyph glyph-name="g.sup" horiz-adv-x="382" 
d="M340 675v-294q0 -77 -44.5 -114t-111.5 -37q-80 0 -143 42l29 64q53 -40 111 -40q36 0 58.5 19.5t22.5 58.5v34q-33 -41 -92 -41q-64 0 -105.5 46t-41.5 112q0 64 41.5 111t105.5 47q59 0 95 -42l4 34h71zM262 479v101q-29 36 -75 36q-40 0 -62 -27t-22 -65t22.5 -64
t59.5 -26q53 0 77 45z" />
    <glyph glyph-name="h.sup" horiz-adv-x="373" 
d="M124 367h-78v450h78v-182q36 48 89 48q63 0 90 -39t27 -113v-164h-78v160q0 28 -2 44t-15 30.5t-37 14.5q-45 0 -74 -45v-204z" />
    <glyph glyph-name="i.sup" horiz-adv-x="170" 
d="M124 367h-78v308h78v-308zM124 725h-78v69h78v-69z" />
    <glyph glyph-name="j.sup" horiz-adv-x="184" 
d="M-31 244l22 61q16 -8 30 -8q39 0 39 52v326h78v-333q0 -55 -24 -83t-79 -28q-32 0 -66 13zM138 725h-78v69h78v-69z" />
    <glyph glyph-name="k.sup" horiz-adv-x="330" 
d="M124 817v-272h1l104 130h91l-110 -127l118 -181h-95l-76 120l-33 -40v-80h-78v450h78z" />
    <glyph glyph-name="l.sup" horiz-adv-x="170" 
d="M124 817v-450h-78v450h78z" />
    <glyph glyph-name="m.sup" horiz-adv-x="558" 
d="M124 367h-78v308h70l4 -40q37 48 91 48q62 0 90 -52q40 52 104 52q111 0 111 -153v-163h-78v157q0 21 -1.5 33.5t-6 28t-16 23t-30.5 7.5q-37 0 -67 -38q3 -21 3 -48v-163h-78v157q0 21 -1 33t-5.5 28t-16 23.5t-29.5 7.5q-35 0 -66 -38v-211z" />
    <glyph glyph-name="n.sup" horiz-adv-x="373" 
d="M124 367h-78v308h70l4 -45q38 53 93 53q63 0 90 -39t27 -113v-164h-78v160q0 28 -2 44t-15 30.5t-37 14.5q-45 0 -74 -45v-204z" />
    <glyph glyph-name="o.sup" horiz-adv-x="368" 
d="M184 683q70 0 115.5 -46.5t45.5 -115.5q0 -68 -45.5 -114.5t-115.5 -46.5t-115.5 46.5t-45.5 114.5q0 69 45.5 115.5t115.5 46.5zM265 521q0 40 -22.5 67.5t-58.5 27.5t-58.5 -27.5t-22.5 -67.5q0 -39 22.5 -66.5t58.5 -27.5t58.5 27.5t22.5 66.5z" />
    <glyph glyph-name="p.sup" horiz-adv-x="386" 
d="M116 675l5 -38q30 46 95 46q63 0 105 -47t42 -115q0 -65 -41.5 -113t-105.5 -48q-56 0 -92 37v-178h-78v456h70zM200 616q-51 0 -76 -45v-108q27 -36 74 -36q40 0 62.5 28t22.5 67t-23 66.5t-60 27.5z" />
    <glyph glyph-name="q.sup" horiz-adv-x="386" 
d="M171 683q59 0 94 -41l4 33h71v-456h-78v183q-34 -42 -94 -42q-63 0 -104 47t-41 115q0 65 41.5 113t106.5 48zM186 427q52 0 76 45v108q-29 36 -75 36q-40 0 -62 -29t-22 -67t22.5 -65.5t60.5 -27.5z" />
    <glyph glyph-name="r.sup" horiz-adv-x="230" 
d="M124 367h-78v308h70l4 -42q29 50 74 50q17 0 40 -7l-18 -70q-12 8 -30 8q-39 0 -62 -41v-206z" />
    <glyph glyph-name="s.sup" horiz-adv-x="289" 
d="M255 644l-42 -47q-27 25 -61 25q-15 0 -24.5 -7.5t-9.5 -20.5q0 -21 54 -42q18 -7 30.5 -14t27 -18t22 -26.5t7.5 -34.5q0 -49 -34 -74t-83 -25q-72 0 -120 52l46 45q36 -36 72 -36q18 0 30 8.5t12 24.5q0 13 -14 22.5t-42 20.5q-18 7 -29.5 13t-25.5 17t-21 26.5
t-7 35.5q0 44 31.5 69t76.5 25q62 0 104 -39z" />
    <glyph glyph-name="t.sup" horiz-adv-x="232" 
d="M199 435l23 -57q-30 -18 -69 -18q-98 0 -98 115v137h-38v63h39l9 71h68v-71h80v-63h-80v-125q0 -15 0.5 -22.5t3 -18t9.5 -15.5t18 -5q15 0 35 9z" />
    <glyph glyph-name="u.sup" horiz-adv-x="373" 
d="M248 675h78v-308h-70l-4 45q-38 -53 -93 -53q-63 0 -90 39t-27 113v164h78v-160q0 -28 2 -44t15 -30.5t37 -14.5q45 0 74 45v204z" />
    <glyph glyph-name="v.sup" horiz-adv-x="313" 
d="M156 473h1l67 202h86l-124 -308h-66l-116 308h86z" />
    <glyph glyph-name="w.sup" horiz-adv-x="455" 
d="M228 559h-1l-54 -192h-85l-84 308h84l48 -201h1l55 201h73l52 -201h2l51 201h81l-89 -308h-82z" />
    <glyph glyph-name="x.sup" horiz-adv-x="339" 
d="M13 675h98l64 -93l64 93h96l-116 -152l114 -156h-98l-67 98l-67 -98h-97l120 156z" />
    <glyph glyph-name="y.sup" horiz-adv-x="311" 
d="M154 480h2l66 195h85l-172 -445l-70 26l48 128l-109 291h85z" />
    <glyph glyph-name="z.sup" horiz-adv-x="287" 
d="M32 402l123 210h-129v63h231v-33l-124 -212h134v-63h-235v35z" />
    <glyph glyph-name="zeroinferior" horiz-adv-x="342" 
d="M171 -116q67 0 67 140t-67 140t-67 -140t67 -140zM171 231q71 0 110 -55t39 -152t-39 -152t-110 -55t-110 55t-39 152t39 152t110 55z" />
    <glyph glyph-name="oneinferior" horiz-adv-x="219" 
d="M167 -178h-79v312q-47 -21 -58 -25v71l85 44h52v-402z" />
    <glyph glyph-name="twoinferior" horiz-adv-x="322" 
d="M35 -116q80 80 138 158q32 44 32 77q0 20 -14 32.5t-35 12.5q-22 0 -36 -15.5t-14 -41.5l-79 12q3 49 41 80t88 31q53 0 91.5 -30t38.5 -79q0 -56 -40 -111q-41 -57 -108 -122h165v-66h-268v62z" />
    <glyph glyph-name="threeinferior" horiz-adv-x="326" 
d="M102 -6v66q28 0 50 5q45 12 45 50q0 21 -15.5 35t-39.5 14q-44 0 -55 -41l-65 28q13 37 45.5 58t75.5 21q56 0 95 -29.5t39 -77.5q0 -57 -51 -86q32 -10 51 -37.5t19 -60.5q0 -56 -41 -89.5t-102 -33.5q-44 0 -82 20.5t-55 58.5l64 31q22 -43 71 -43q26 0 44.5 14.5
t18.5 40.5q0 28 -21.5 44t-54.5 16q-17 0 -36 -4z" />
    <glyph glyph-name="fourinferior" horiz-adv-x="338" 
d="M19 -6q35 43 171 230h81v-236h57v-64h-57v-102h-78v102h-174v70zM193 -12v133q-67 -102 -92 -133h92z" />
    <glyph glyph-name="fiveinferior" horiz-adv-x="319" 
d="M274 159h-145q-2 -51 -6 -91q23 10 52 10q50 0 84.5 -36t34.5 -86q0 -60 -40 -99t-100 -39q-43 0 -80 20t-55 56l64 33q19 -43 65 -43q29 0 46.5 19.5t17.5 46.5t-17.5 44.5t-45.5 17.5q-35 0 -54 -25l-53 35q9 83 13 202h219v-65z" />
    <glyph glyph-name="sixinferior" horiz-adv-x="336" 
d="M231 248l27 -64q-115 -47 -143 -129q33 26 74 26q54 0 89.5 -37t35.5 -92q0 -58 -39 -97t-98 -39q-70 0 -112.5 47t-42.5 117q0 94 58.5 163.5t150.5 104.5zM172 16q-46 0 -69 -38q0 -42 16.5 -69t52.5 -27q28 0 44.5 19.5t16.5 47.5q0 30 -17 48.5t-44 18.5z" />
    <glyph glyph-name="seveninferior" horiz-adv-x="284" 
d="M274 224v-49q-91 -190 -164 -368l-72 33q40 93 146 318h-178v66h268z" />
    <glyph glyph-name="eightinferior" horiz-adv-x="348" 
d="M303 119q0 -55 -48 -86q60 -35 60 -98q0 -51 -40 -85t-101 -34t-101 34t-40 85q0 64 59 98q-48 32 -48 86q0 47 37 79t93 32q57 0 93 -32t36 -79zM174 -2q-25 0 -43 -17t-18 -41q0 -25 18 -42t43 -17q26 0 43 17t17 42t-17 41.5t-43 16.5zM174 164q-21 0 -36 -14t-15 -35
q0 -22 15 -37t36 -15q22 0 36.5 15t14.5 37q0 21 -14.5 35t-36.5 14z" />
    <glyph glyph-name="nineinferior" horiz-adv-x="336" 
d="M105 -202l-27 65q115 46 142 129q-29 -26 -74 -26q-54 0 -89 37t-35 91q0 58 38.5 97t97.5 39q71 0 113.5 -47t42.5 -116q0 -94 -58.5 -164t-150.5 -105zM164 31q44 0 69 38q0 41 -17 68.5t-52 27.5q-28 0 -44.5 -19.5t-16.5 -48.5t17 -47.5t44 -18.5z" />
    <glyph glyph-name="parenleftinferior" horiz-adv-x="221" 
d="M224 -230l-28 -53q-170 102 -170 289q0 184 170 288l29 -53q-122 -79 -122 -235q0 -159 121 -236z" />
    <glyph glyph-name="parenrightinferior" horiz-adv-x="221" 
d="M24 -283l-28 53q122 78 122 236q0 155 -122 235l29 53q169 -105 169 -288q0 -187 -170 -289z" />
    <glyph glyph-name="minusinferior" horiz-adv-x="341" 
d="M29 42h283v-65h-283v65z" />
    <glyph glyph-name="plusinferior" horiz-adv-x="336" 
d="M135 -141v118h-117v65h117v118h65v-118h118v-65h-118v-118h-65z" />
    <glyph glyph-name="equalinferior" horiz-adv-x="341" 
d="M29 97h283v-63h-283v63zM29 -14h283v-65h-283v65z" />
    <glyph glyph-name="a.sinf" horiz-adv-x="342" 
d="M300 -178h-68l-5 28q-30 -35 -86 -35q-47 0 -79 25t-32 71q0 53 39.5 77t96.5 24q31 0 56 -6v7q0 64 -64 64q-44 0 -94 -28l-21 57q62 32 130 32q63 0 95 -34t32 -96v-186zM222 -42q-21 5 -43 5q-29 0 -50.5 -11.5t-21.5 -36.5q0 -22 14.5 -33t35.5 -11q32 0 65 28v59z
" />
    <glyph glyph-name="b.sinf" horiz-adv-x="386" 
d="M215 -185q-61 0 -96 42l-3 -35h-70v450h78v-177q33 43 93 43q63 0 104.5 -47t41.5 -114q0 -66 -41.5 -114t-106.5 -48zM199 71q-52 0 -75 -45v-108q27 -36 74 -36q40 0 62.5 28.5t22.5 66.5q0 39 -23 66.5t-61 27.5z" />
    <glyph glyph-name="c.sinf" horiz-adv-x="298" 
d="M247 -95l41 -53q-41 -37 -106 -37q-69 0 -114 44.5t-45 116.5q0 69 46 115.5t115 46.5q57 0 103 -35l-41 -56q-26 24 -59 24q-36 0 -60 -27.5t-24 -67.5q0 -41 23.5 -67.5t59.5 -26.5q33 0 61 23z" />
    <glyph glyph-name="d.sinf" horiz-adv-x="386" 
d="M269 -178l-4 39q-29 -46 -95 -46q-64 0 -105.5 47t-41.5 115q0 65 41.5 113t105.5 48q57 0 92 -38v172h78v-450h-71zM186 -118q52 0 76 45v108q-29 36 -75 36q-40 0 -62 -28.5t-22 -67.5q0 -38 23 -65.5t60 -27.5z" />
    <glyph glyph-name="e.sinf" horiz-adv-x="350" 
d="M267 -77l52 -34q-50 -74 -140 -74q-70 0 -113 44.5t-43 114.5t45 117t112 47q62 0 104.5 -41t42.5 -102q0 -14 -4 -38h-221q4 -35 26 -57t56 -22q54 0 83 45zM181 77q-59 0 -75 -66h141q-2 29 -20.5 47.5t-45.5 18.5z" />
    <glyph glyph-name="f.sinf" horiz-adv-x="221" 
d="M239 263l-22 -60q-19 10 -41 10q-24 0 -31.5 -12.5t-7.5 -40.5v-30h78v-63h-78v-245h-78v245h-34v63h34v35q0 56 25 85t82 29q38 0 73 -16z" />
    <glyph glyph-name="g.sinf" horiz-adv-x="382" 
d="M340 130v-294q0 -77 -44.5 -114t-111.5 -37q-80 0 -143 42l29 64q53 -40 111 -40q36 0 58.5 19.5t22.5 58.5v34q-33 -41 -92 -41q-64 0 -105.5 46t-41.5 112q0 64 41.5 111t105.5 47q59 0 95 -42l4 34h71zM262 -66v101q-29 36 -75 36q-40 0 -62 -27t-22 -65t22.5 -64
t59.5 -26q53 0 77 45z" />
    <glyph glyph-name="h.sinf" horiz-adv-x="373" 
d="M124 -178h-78v450h78v-182q36 48 89 48q63 0 90 -39t27 -113v-164h-78v160q0 28 -2 44t-15 30.5t-37 14.5q-45 0 -74 -45v-204z" />
    <glyph glyph-name="i.sinf" horiz-adv-x="170" 
d="M124 -178h-78v308h78v-308zM124 180h-78v69h78v-69z" />
    <glyph glyph-name="j.sinf" horiz-adv-x="184" 
d="M-31 -301l22 61q16 -8 30 -8q39 0 39 52v326h78v-333q0 -55 -24 -83t-79 -28q-32 0 -66 13zM138 180h-78v69h78v-69z" />
    <glyph glyph-name="k.sinf" horiz-adv-x="330" 
d="M124 272v-272h1l104 130h91l-110 -127l118 -181h-95l-76 120l-33 -40v-80h-78v450h78z" />
    <glyph glyph-name="l.sinf" horiz-adv-x="170" 
d="M124 272v-450h-78v450h78z" />
    <glyph glyph-name="m.sinf" horiz-adv-x="558" 
d="M124 -178h-78v308h70l4 -40q38 48 91 48q62 0 90 -52q40 52 104 52q111 0 111 -153v-163h-78v157q0 21 -1.5 33.5t-6 28t-16 23t-30.5 7.5q-37 0 -67 -38q3 -21 3 -48v-163h-78v157q0 21 -1 33t-5.5 28t-16 23.5t-29.5 7.5q-35 0 -66 -38v-211z" />
    <glyph glyph-name="n.sinf" horiz-adv-x="373" 
d="M124 -178h-78v308h70l4 -45q38 53 93 53q63 0 90 -39t27 -113v-164h-78v160q0 28 -2 44t-15 30.5t-37 14.5q-45 0 -74 -45v-204z" />
    <glyph glyph-name="o.sinf" horiz-adv-x="368" 
d="M184 138q70 0 115.5 -46.5t45.5 -115.5q0 -68 -45.5 -114.5t-115.5 -46.5t-115.5 46.5t-45.5 114.5q0 69 45.5 115.5t115.5 46.5zM265 -24q0 40 -22.5 67.5t-58.5 27.5t-58.5 -27.5t-22.5 -67.5q0 -39 22.5 -66.5t58.5 -27.5t58.5 27.5t22.5 66.5z" />
    <glyph glyph-name="p.sinf" horiz-adv-x="386" 
d="M116 130l5 -38q30 46 95 46q63 0 105 -47t42 -115q0 -65 -41.5 -113t-105.5 -48q-56 0 -92 37v-178h-78v456h70zM200 71q-51 0 -76 -45v-108q27 -36 74 -36q40 0 62.5 28t22.5 67t-23 66.5t-60 27.5z" />
    <glyph glyph-name="q.sinf" horiz-adv-x="386" 
d="M171 138q59 0 94 -41l4 33h71v-456h-78v183q-34 -42 -94 -42q-63 0 -104 47t-41 115q0 65 41.5 113t106.5 48zM186 -118q52 0 76 45v108q-29 36 -75 36q-40 0 -62 -29t-22 -67t22.5 -65.5t60.5 -27.5z" />
    <glyph glyph-name="r.sinf" horiz-adv-x="230" 
d="M124 -178h-78v308h70l4 -42q29 50 74 50q17 0 40 -7l-18 -70q-12 8 -30 8q-39 0 -62 -41v-206z" />
    <glyph glyph-name="s.sinf" horiz-adv-x="289" 
d="M255 99l-42 -47q-27 25 -61 25q-15 0 -24.5 -7.5t-9.5 -20.5q0 -21 54 -42q18 -7 30.5 -14t27 -18t22 -26.5t7.5 -34.5q0 -49 -34 -74t-83 -25q-72 0 -120 52l46 45q36 -36 72 -36q18 0 30 8.5t12 24.5q0 13 -14 22.5t-42 20.5q-18 7 -29.5 13t-25.5 17t-21 26.5t-7 35.5
q0 44 31.5 69t76.5 25q62 0 104 -39z" />
    <glyph glyph-name="t.sinf" horiz-adv-x="232" 
d="M199 -110l23 -57q-30 -18 -69 -18q-98 0 -98 115v137h-38v63h39l9 71h68v-71h80v-63h-80v-125q0 -15 0.5 -22.5t3 -18t9.5 -15.5t18 -5q15 0 35 9z" />
    <glyph glyph-name="u.sinf" horiz-adv-x="373" 
d="M248 130h78v-308h-70l-4 45q-38 -53 -93 -53q-63 0 -90 39t-27 113v164h78v-160q0 -28 2 -44t15 -30.5t37 -14.5q45 0 74 45v204z" />
    <glyph glyph-name="v.sinf" horiz-adv-x="313" 
d="M156 -72h1l67 202h86l-124 -308h-66l-116 308h86z" />
    <glyph glyph-name="w.sinf" horiz-adv-x="455" 
d="M228 14h-1l-54 -192h-85l-84 308h84l48 -201h1l55 201h73l52 -201h2l51 201h81l-89 -308h-82z" />
    <glyph glyph-name="x.sinf" horiz-adv-x="339" 
d="M13 130h98l64 -93l64 93h96l-116 -152l114 -156h-98l-67 98l-67 -98h-97l120 156z" />
    <glyph glyph-name="y.sinf" horiz-adv-x="311" 
d="M154 -65h2l66 195h85l-172 -445l-70 26l48 128l-109 291h85z" />
    <glyph glyph-name="z.sinf" horiz-adv-x="287" 
d="M32 -143l123 210h-129v63h231v-33l-124 -212h134v-63h-235v35z" />
    <glyph glyph-name="zero.num" horiz-adv-x="320" 
d="M161 642q-59 0 -59 -121q0 -122 59 -122q58 0 58 122q0 121 -58 121zM296 521q0 -88 -35.5 -137.5t-99.5 -49.5q-65 0 -101 49.5t-36 137.5q0 87 36 136.5t101 49.5q64 0 99.5 -49.5t35.5 -136.5z" />
    <glyph glyph-name="one.num" horiz-adv-x="231" 
d="M174 338h-76v277q-34 -16 -54 -24v69l34.5 17.5l43.5 22.5h52v-362z" />
    <glyph glyph-name="two.num" horiz-adv-x="304" 
d="M37 397q75 73 126 142q28 38 28 67q0 18 -12 28t-31 10t-31 -13.5t-12 -36.5l-75 13q3 45 38 72.5t83 27.5t83 -27.5t35 -72.5t-38 -99q-36 -48 -92 -104h144v-64h-246v57z" />
    <glyph glyph-name="three.num" horiz-adv-x="307" 
d="M98 492v63q30 0 43 4q39 10 39 44q0 18 -12.5 29.5t-35.5 11.5q-37 0 -46 -37l-63 28q12 34 42 53t68 19q51 0 87 -26.5t36 -70.5q0 -22 -12.5 -43.5t-32.5 -32.5q28 -11 45 -35t17 -55q0 -51 -38 -80.5t-92 -29.5q-41 0 -75 18.5t-51 54.5l63 29q17 -39 62 -39
q23 0 38.5 12.5t15.5 35.5q0 24 -19 37t-49 13q-19 0 -30 -3z" />
    <glyph glyph-name="four.num" horiz-adv-x="314" 
d="M21 493l153 207h78v-211h50v-62h-50v-87h-75v87h-156v66zM177 489v115q-5 -7 -35.5 -53.5t-42.5 -61.5h78z" />
    <glyph glyph-name="five.num" horiz-adv-x="300" 
d="M255 637h-131q-1 -30 -5 -78q17 10 46 10q45 0 76 -32.5t31 -78.5q0 -53 -37 -88.5t-91 -35.5q-87 0 -124 70l63 30q16 -37 57 -37q25 0 40 16.5t15 40.5q0 23 -15.5 38t-39.5 15q-30 0 -47 -22l-50 33q8 83 12 182h200v-63z" />
    <glyph glyph-name="six.num" horiz-adv-x="315" 
d="M215 723l27 -60q-101 -41 -129 -113q27 22 64 22q50 0 82 -33t32 -82q0 -53 -35 -88t-90 -35q-64 0 -103 42.5t-39 104.5q0 85 53.5 147.5t137.5 94.5zM101 479q0 -83 60 -83q25 0 39.5 17t14.5 41q0 27 -15.5 42.5t-39.5 15.5q-40 0 -59 -33z" />
    <glyph glyph-name="seven.num" horiz-adv-x="265" 
d="M253 653q-78 -157 -149 -330l-70 32q33 77 134 281h-162v64h247v-47z" />
    <glyph glyph-name="eight.num" horiz-adv-x="332" 
d="M296 441q0 -46 -37.5 -77t-92.5 -31q-56 0 -93 30.5t-37 77.5q0 58 54 88q-44 29 -44 77q0 43 33.5 72t86.5 29t86.5 -29t33.5 -72q0 -48 -44 -77q54 -29 54 -88zM120 602q0 -18 13.5 -31t32.5 -13t32.5 13t13.5 31q0 19 -13.5 31.5t-32.5 12.5q-20 0 -33 -12.5
t-13 -31.5zM113 445q0 -21 15 -35.5t38 -14.5t38 14.5t15 35.5t-15 36t-38 15t-38 -15t-15 -36z" />
    <glyph glyph-name="nine.num" horiz-adv-x="315" 
d="M100 318l-27 60q101 41 129 113q-27 -22 -64 -22q-50 0 -82 33t-32 82q0 53 35 88t90 35q64 0 103 -42.5t39 -104.5q0 -85 -53.5 -147.5t-137.5 -94.5zM214 562q0 83 -60 83q-25 0 -39.5 -17t-14.5 -41q0 -27 15.5 -42.5t39.5 -15.5q40 0 59 33z" />
    <glyph glyph-name="parenleft.ordn" horiz-adv-x="249" 
d="M248 324l-30 -55q-185 114 -185 320q0 207 184 320l32 -55q-137 -88 -137 -265q0 -179 136 -265z" />
    <glyph glyph-name="parenright.ordn" horiz-adv-x="249" 
d="M30 269l-29 55q136 88 136 265t-137 265l32 55q184 -114 184 -320q0 -207 -186 -320z" />
    <glyph glyph-name="hyphen.ordn" horiz-adv-x="308" 
d="M242 542h-176v67h176v-67z" />
    <glyph glyph-name="comma.ordn" horiz-adv-x="183" 
d="M135 475l-46 -175h-75l35 175h86z" />
    <glyph glyph-name="period.ordn" horiz-adv-x="182" 
d="M135 386h-88v89h88v-89z" />
    <glyph glyph-name="minus.ordn" horiz-adv-x="382" 
d="M36 628h309v-68h-309v68z" />
    <glyph glyph-name="plus.ordn" horiz-adv-x="371" 
d="M151 427v133h-132v68h132v132h68v-132h133v-68h-133v-133h-68z" />
    <glyph glyph-name="equal.ordn" horiz-adv-x="382" 
d="M36 686h309v-65h-309v65zM36 567h309v-67h-309v67z" />
    <glyph glyph-name="a.ordn" horiz-adv-x="383" 
d="M250 588v8q-2 72 -73 72q-52 0 -104 -29l-22 61q70 34 140 34q139 0 139 -144v-204h-71l-4 32q-34 -40 -97 -40q-50 0 -86 27.5t-36 77.5q0 59 43.5 85.5t107.5 26.5q27 0 63 -7zM250 537q-30 6 -50 6q-84 0 -84 -55q0 -25 16.5 -37.5t42.5 -12.5q35 0 75 33v66z" />
    <glyph glyph-name="b.ordn" horiz-adv-x="433" 
d="M57 386v500h80v-202q37 50 105 50q70 0 116.5 -52t46.5 -126q0 -71 -46.5 -124.5t-118.5 -53.5q-66 0 -106 46l-3 -38h-74zM137 612v-122q34 -43 87 -43q47 0 73 33t26 77t-27 76t-71 32q-26 0 -50.5 -13.5t-37.5 -39.5z" />
    <glyph glyph-name="c.ordn" horiz-adv-x="329" 
d="M276 473l42 -56q-45 -39 -114 -39q-75 0 -125.5 49.5t-50.5 128.5q0 75 51.5 126.5t127.5 51.5q63 0 108 -37l-39 -58q-29 26 -69 26q-42 0 -69.5 -31.5t-27.5 -77.5q0 -47 28 -78t69 -31q40 0 69 26z" />
    <glyph glyph-name="d.ordn" horiz-adv-x="433" 
d="M376 386h-74l-4 44q-36 -52 -107 -52q-70 0 -116.5 52t-46.5 126q0 72 46.5 125t118.5 53q61 0 103 -44v196h80v-500zM296 622q-34 43 -87 43q-47 0 -73 -33t-26 -77t27 -76t71 -32q26 0 50 13.5t38 39.5v122z" />
    <glyph glyph-name="e.ordn" horiz-adv-x="388" 
d="M297 495l54 -36q-54 -81 -152 -81q-78 0 -124.5 49.5t-46.5 126.5q0 76 49.5 128t122.5 52q68 0 114 -45t46 -113q0 -18 -4 -40h-246q4 -40 29 -66t65 -26q63 0 93 51zM114 593h164q-2 33 -23.5 55t-54.5 22q-34 0 -56 -21.5t-30 -55.5z" />
    <glyph glyph-name="f.ordn" horiz-adv-x="247" 
d="M263 876l-23 -61q-22 11 -44 11q-29 0 -38 -15.5t-9 -48.5v-36h88v-65h-88v-275h-80v275h-38v65h38v42q0 126 116 126q40 0 78 -18z" />
    <glyph glyph-name="g.ordn" horiz-adv-x="429" 
d="M376 726v-322q0 -86 -49 -127t-123 -41q-85 0 -156 46l30 65q58 -42 123 -42q42 0 68.5 22t26.5 65v42q-37 -48 -105 -48q-70 0 -116.5 50.5t-46.5 123.5q0 71 46.5 122.5t118.5 51.5q64 0 105 -47l4 39h74zM296 508v114q-34 43 -87 43q-47 0 -73 -31.5t-26 -74.5
t26.5 -73.5t70.5 -30.5q26 0 51 13.5t38 39.5z" />
    <glyph glyph-name="h.ordn" horiz-adv-x="421" 
d="M137 386h-80v500h80v-209q41 57 106 57q125 0 125 -168v-180h-80v174q0 24 -1.5 38.5t-7 32t-19 26t-35.5 8.5q-52 0 -88 -54v-225z" />
    <glyph glyph-name="i.ordn" horiz-adv-x="194" 
d="M137 386h-80v340h80v-340zM137 783h-80v75h80v-75z" />
    <glyph glyph-name="j.ordn" horiz-adv-x="198" 
d="M-40 251l22 62q16 -9 33 -9q28 0 37 15t9 46v361h80v-368q0 -122 -111 -122q-38 0 -70 15zM141 783h-80v75h80v-75z" />
    <glyph glyph-name="k.ordn" horiz-adv-x="364" 
d="M137 886v-311l121 151h94l-120 -141l129 -199h-97l-85 137l-42 -49v-88h-80v500h80z" />
    <glyph glyph-name="l.ordn" horiz-adv-x="194" 
d="M137 886v-500h-80v500h80z" />
    <glyph glyph-name="m.ordn" horiz-adv-x="628" 
d="M137 386h-80v340h74l2 -49q44 57 106 57q71 0 99 -62q44 62 115 62q122 0 122 -168v-180h-80v174q0 23 -1.5 37.5t-7 32t-19 26.5t-34.5 9q-44 0 -80 -48q3 -16 3 -51v-180h-80v174q0 23 -1.5 37t-6.5 32t-18 27t-34 9q-40 0 -79 -50v-229z" />
    <glyph glyph-name="n.ordn" horiz-adv-x="421" 
d="M136 386h-80v340h74l3 -53q42 61 109 61q125 0 125 -168v-180h-80v174q0 24 -1.5 38.5t-7 32t-19 26t-35.5 8.5q-52 0 -88 -54v-225z" />
    <glyph glyph-name="o.ordn" horiz-adv-x="410" 
d="M205 734q77 0 127 -51t50 -127t-50 -127t-127 -51q-76 0 -126.5 51.5t-50.5 126.5t50.5 126.5t126.5 51.5zM300 556q0 46 -26.5 77.5t-68.5 31.5t-68.5 -31.5t-26.5 -77.5t26.5 -77.5t68.5 -31.5t68.5 31.5t26.5 77.5z" />
    <glyph glyph-name="p.ordn" horiz-adv-x="433" 
d="M57 726h74l3 -44q37 52 107 52t117 -52t47 -126q0 -72 -46 -125t-119 -53q-63 0 -103 43v-201h-80v506zM137 612v-122q34 -43 87 -43q47 0 73 33t26 77t-27 76t-71 32q-26 0 -50.5 -13.5t-37.5 -39.5z" />
    <glyph glyph-name="q.ordn" horiz-adv-x="433" 
d="M376 726v-506h-80v208q-39 -50 -106 -50q-70 0 -116 52t-46 126q0 71 46.5 124.5t119.5 53.5q63 0 105 -46l3 38h74zM296 622q-34 43 -87 43q-47 0 -73 -33t-26 -77t27 -76t71 -32q26 0 50 13.5t38 39.5v122z" />
    <glyph glyph-name="r.ordn" horiz-adv-x="263" 
d="M57 726h74l3 -52q36 60 85 60q18 0 41 -7l-18 -73q-14 7 -32 7q-45 0 -73 -49v-226h-80v340z" />
    <glyph glyph-name="s.ordn" horiz-adv-x="321" 
d="M278 692l-43 -48q-31 27 -68 27q-18 0 -30 -9.5t-12 -24.5q0 -11 10.5 -20.5t20.5 -14t32 -13.5q21 -9 34 -16t29 -19t24 -29t8 -38q0 -54 -37 -81.5t-90 -27.5q-78 0 -128 56l48 46q37 -39 80 -39q21 0 35.5 10t14.5 29q0 11 -9.5 20.5t-20 14.5t-33.5 15q-45 19 -69 41
t-24 60q0 49 34 76t82 27q70 0 112 -42z" />
    <glyph glyph-name="t.ordn" horiz-adv-x="248" 
d="M209 457l24 -62q-32 -17 -74 -17q-105 0 -105 127v156h-41v65h43l8 78h70v-78h90v-65h-90v-143q0 -72 38 -72q20 0 37 11z" />
    <glyph glyph-name="u.ordn" horiz-adv-x="421" 
d="M284 726h80v-340h-74l-3 53q-42 -61 -109 -61q-125 0 -125 168v180h80v-174q0 -24 1.5 -38.5t7 -32t19 -26t35.5 -8.5q52 0 88 54v225z" />
    <glyph glyph-name="v.ordn" horiz-adv-x="348" 
d="M343 726l-135 -340h-75l-128 340h90l80 -243h2l79 243h87z" />
    <glyph glyph-name="w.ordn" horiz-adv-x="509" 
d="M297 726l59 -236h2l58 236h85l-100 -340h-85l-61 229h-1l-63 -229h-89l-94 340h86l55 -236h2l64 236h82z" />
    <glyph glyph-name="x.ordn" horiz-adv-x="365" 
d="M360 386h-102l-76 116l-77 -116h-100l128 171l-120 169h102l74 -110l72 110h99l-124 -166z" />
    <glyph glyph-name="y.ordn" horiz-adv-x="346" 
d="M340 726l-190 -496l-71 27l51 137l-125 332h89l78 -237h2l80 237h86z" />
    <glyph glyph-name="z.ordn" horiz-adv-x="320" 
d="M40 423l138 238h-145v65h251v-35l-141 -240h152v-65h-255v37z" />
    <glyph glyph-name="zero.denom" horiz-adv-x="320" 
d="M161 301q-59 0 -59 -121q0 -122 59 -122q58 0 58 122q0 121 -58 121zM296 180q0 -88 -35.5 -137.5t-99.5 -49.5q-65 0 -101 49.5t-36 137.5q0 87 36 136.5t101 49.5q64 0 99.5 -49.5t35.5 -136.5z" />
    <glyph glyph-name="one.denom" horiz-adv-x="231" 
d="M174 0h-76v277q-34 -16 -54 -24v69l34.5 17.5l43.5 22.5h52v-362z" />
    <glyph glyph-name="two.denom" horiz-adv-x="304" 
d="M37 57q75 73 126 142q28 38 28 67q0 18 -12 28t-31 10t-31 -13.5t-12 -36.5l-75 13q3 45 38 72.5t83 27.5t83 -27.5t35 -72.5t-38 -99q-36 -48 -92 -104h144v-64h-246v57z" />
    <glyph glyph-name="three.denom" horiz-adv-x="307" 
d="M98 151v63q30 0 43 4q39 10 39 44q0 18 -12.5 29.5t-35.5 11.5q-37 0 -46 -37l-63 28q12 34 42 53t68 19q51 0 87 -26.5t36 -70.5q0 -22 -12.5 -43.5t-32.5 -32.5q28 -11 45 -35t17 -55q0 -51 -38 -80.5t-92 -29.5q-41 0 -75 18.5t-51 54.5l63 29q17 -39 62 -39
q23 0 38.5 12.5t15.5 35.5q0 24 -19 37t-49 13q-19 0 -30 -3z" />
    <glyph glyph-name="four.denom" horiz-adv-x="314" 
d="M21 153l153 207h78v-211h50v-62h-50v-87h-75v87h-156v66zM177 149v115q-5 -7 -35.5 -53.5t-42.5 -61.5h78z" />
    <glyph glyph-name="five.denom" horiz-adv-x="300" 
d="M255 296h-131q-1 -30 -5 -78q17 10 46 10q45 0 76 -32.5t31 -78.5q0 -53 -37 -88.5t-91 -35.5q-87 0 -124 70l63 30q16 -37 57 -37q25 0 40 16.5t15 40.5q0 23 -15.5 38t-39.5 15q-30 0 -47 -22l-50 33q8 83 12 182h200v-63z" />
    <glyph glyph-name="six.denom" horiz-adv-x="315" 
d="M215 382l27 -60q-101 -41 -129 -113q27 22 64 22q50 0 82 -33t32 -82q0 -53 -35 -88t-90 -35q-64 0 -103 42.5t-39 104.5q0 85 53.5 147.5t137.5 94.5zM101 138q0 -83 60 -83q25 0 39.5 17t14.5 41q0 27 -15.5 42.5t-39.5 15.5q-40 0 -59 -33z" />
    <glyph glyph-name="seven.denom" horiz-adv-x="265" 
d="M253 312q-78 -157 -149 -330l-70 32q33 77 134 281h-162v64h247v-47z" />
    <glyph glyph-name="eight.denom" horiz-adv-x="332" 
d="M296 100q0 -46 -37.5 -77t-92.5 -31q-56 0 -93 30.5t-37 77.5q0 58 54 88q-44 29 -44 77q0 43 33.5 72t86.5 29t86.5 -29t33.5 -72q0 -48 -44 -77q54 -29 54 -88zM120 261q0 -18 13.5 -31t32.5 -13t32.5 13t13.5 31q0 19 -13.5 31.5t-32.5 12.5q-20 0 -33 -12.5
t-13 -31.5zM113 104q0 -21 15 -35.5t38 -14.5t38 14.5t15 35.5t-15 36t-38 15t-38 -15t-15 -36z" />
    <glyph glyph-name="nine.denom" horiz-adv-x="315" 
d="M100 -23l-27 60q101 41 129 113q-27 -22 -64 -22q-50 0 -82 33t-32 82q0 53 35 88t90 35q64 0 103 -42.5t39 -104.5q0 -85 -53.5 -147.5t-137.5 -94.5zM214 221q0 83 -60 83q-25 0 -39.5 -17t-14.5 -41q0 -27 15.5 -42.5t39.5 -15.5q40 0 59 33z" />
    <glyph glyph-name="onefifth" horiz-adv-x="792" 
d="M581 713l59 -43l-498 -683l-59 43zM695 295h-131q0 -4 -6 -77q21 10 47 10q45 0 76 -32.5t31 -78.5q0 -54 -37 -89t-91 -35q-88 0 -124 69l63 31q15 -38 57 -38q25 0 39.5 16.5t14.5 41.5q0 23 -15 38t-39 15q-29 0 -48 -22l-49 32q8 85 12 183h200v-64zM228 338h-76v277
q-34 -16 -54 -24v69l34.5 17.5l43.5 22.5h52v-362z" />
    <glyph glyph-name="twofifths" horiz-adv-x="883" 
d="M672 713l59 -43l-498 -683l-59 43zM786 295h-131q0 -4 -6 -77q21 10 47 10q45 0 76 -32.5t31 -78.5q0 -54 -37 -89t-91 -35q-88 0 -124 69l63 31q15 -38 57 -38q25 0 39.5 16.5t14.5 41.5q0 23 -15 38t-39 15q-29 0 -48 -22l-49 32q8 85 12 183h200v-64zM87 397
q75 73 126 142q28 38 28 67q0 18 -12 28t-31 10t-31 -13.5t-12 -36.5l-75 13q3 45 38 72.5t83 27.5t83 -27.5t35 -72.5t-38 -99q-36 -48 -92 -104h144v-64h-246v57z" />
    <glyph glyph-name="threefifths" horiz-adv-x="862" 
d="M650 713l59 -43l-497 -683l-59 43zM765 295h-131q0 -4 -6 -77q20 10 47 10q45 0 76 -32.5t31 -78.5q0 -54 -37 -89t-91 -35q-88 0 -124 69l62 31q16 -38 58 -38q25 0 39.5 16.5t14.5 41.5q0 23 -15 38t-39 15q-29 0 -48 -22l-49 32q8 85 12 183h200v-64zM160 492v63
q30 0 43 4q39 10 39 44q0 18 -12.5 29.5t-35.5 11.5q-37 0 -46 -37l-63 28q12 34 42 53t68 19q51 0 87 -26.5t36 -70.5q0 -22 -12.5 -43.5t-32.5 -32.5q28 -11 45 -35t17 -55q0 -51 -38 -80.5t-92 -29.5q-41 0 -75 18.5t-51 54.5l63 29q17 -39 62 -39q23 0 38.5 12.5
t15.5 35.5q0 24 -19 37t-49 13q-19 0 -30 -3z" />
    <glyph glyph-name="fourfifths" horiz-adv-x="905" 
d="M694 713l58 -43l-497 -683l-59 43zM808 295h-131q0 -4 -6 -77q20 10 47 10q45 0 76 -32.5t31 -78.5q0 -54 -37 -89t-91 -35q-88 0 -124 69l62 31q16 -38 58 -38q25 0 39.5 16.5t14.5 41.5q0 23 -15 38t-39 15q-29 0 -48 -22l-49 32q8 85 12 183h200v-64zM80 493l153 207
h78v-211h50v-62h-50v-87h-75v87h-156v66zM236 489v115q-5 -7 -35.5 -53.5t-42.5 -61.5h78z" />
    <glyph glyph-name="onesixth" horiz-adv-x="767" 
d="M581 713l59 -43l-498 -683l-59 43zM228 338h-76v277q-34 -16 -54 -24v69l34.5 17.5l43.5 22.5h52v-362zM611 382l27 -60q-101 -41 -129 -113q27 22 64 22q50 0 82 -33t32 -82q0 -53 -35 -88t-90 -35q-64 0 -103 42.5t-39 104.5q0 85 53.5 147.5t137.5 94.5zM497 138
q0 -83 60 -83q25 0 39.5 17t14.5 41q0 27 -15.5 42.5t-39.5 15.5q-40 0 -59 -33z" />
    <glyph glyph-name="fivesixths" horiz-adv-x="824" 
d="M638 713l59 -43l-497 -683l-59 43zM315 637h-131q0 -6 -6 -78q19 10 47 10q45 0 76 -32.5t31 -78.5q0 -53 -37 -88.5t-91 -35.5q-87 0 -124 70l63 30q15 -37 57 -37q25 0 39.5 16.5t14.5 40.5q0 23 -15 38t-39 15q-30 0 -48 -22l-49 33q8 83 12 182h200v-63zM668 382
l27 -60q-101 -41 -129 -113q27 22 64 22q50 0 82 -33t32 -82q0 -53 -35 -88t-90 -35q-64 0 -103 42.5t-39 104.5q0 85 53.5 147.5t137.5 94.5zM554 138q0 -83 60 -83q25 0 39.5 17t14.5 41q0 27 -15.5 42.5t-39.5 15.5q-40 0 -59 -33z" />
    <glyph glyph-name="oneseventh" horiz-adv-x="811" 
d="M581 713l59 -43l-498 -683l-59 43zM731 312q-73 -148 -149 -330l-69 31q49 115 134 282h-163v64h247v-47zM228 338h-76v277q-34 -16 -54 -24v69l34.5 17.5l43.5 22.5h52v-362z" />
    <glyph glyph-name="twosevenths" horiz-adv-x="902" 
d="M672 713l59 -43l-498 -683l-59 43zM87 397q75 73 126 142q28 38 28 67q0 18 -12 28t-31 10t-31 -13.5t-12 -36.5l-75 13q3 45 38 72.5t83 27.5t83 -27.5t35 -72.5t-38 -99q-36 -48 -92 -104h144v-64h-246v57zM822 312q-73 -148 -149 -330l-69 31q49 115 134 282h-163v64
h247v-47z" />
    <glyph glyph-name="threesevenths" horiz-adv-x="881" 
d="M650 713l59 -43l-497 -683l-59 43zM801 312q-73 -148 -149 -330l-70 31q37 85 134 282h-162v64h247v-47zM160 492v63q30 0 43 4q39 10 39 44q0 18 -12.5 29.5t-35.5 11.5q-37 0 -46 -37l-63 28q12 34 42 53t68 19q51 0 87 -26.5t36 -70.5q0 -22 -12.5 -43.5t-32.5 -32.5
q28 -11 45 -35t17 -55q0 -51 -38 -80.5t-92 -29.5q-41 0 -75 18.5t-51 54.5l63 29q17 -39 62 -39q23 0 38.5 12.5t15.5 35.5q0 24 -19 37t-49 13q-19 0 -30 -3z" />
    <glyph glyph-name="foursevenths" horiz-adv-x="924" 
d="M694 713l58 -43l-497 -683l-59 43zM80 493l153 207h78v-211h50v-62h-50v-87h-75v87h-156v66zM236 489v115q-5 -7 -35.5 -53.5t-42.5 -61.5h78zM844 312q-73 -148 -149 -330l-70 31q37 85 134 282h-162v64h247v-47z" />
    <glyph glyph-name="fivesevenths" horiz-adv-x="869" 
d="M638 713l59 -43l-497 -683l-59 43zM315 637h-131q0 -6 -6 -78q19 10 47 10q45 0 76 -32.5t31 -78.5q0 -53 -37 -88.5t-91 -35.5q-87 0 -124 70l63 30q15 -37 57 -37q25 0 39.5 16.5t14.5 40.5q0 23 -15 38t-39 15q-30 0 -48 -22l-49 33q8 83 12 182h200v-63zM789 312
q-73 -148 -149 -330l-70 31q56 129 134 282h-162v64h247v-47z" />
    <glyph glyph-name="sixsevenths" horiz-adv-x="886" 
d="M656 713l59 -43l-498 -683l-58 43zM806 312q-83 -171 -149 -330l-69 31q49 115 134 282h-163v64h247v-47zM271 723l27 -60q-101 -41 -129 -113q27 22 64 22q50 0 82 -33t32 -82q0 -53 -35 -88t-90 -35q-64 0 -103 42.5t-39 104.5q0 85 53.5 147.5t137.5 94.5zM157 479
q0 -83 60 -83q25 0 39.5 17t14.5 41q0 27 -15.5 42.5t-39.5 15.5q-40 0 -59 -33z" />
    <glyph glyph-name="oneninth" horiz-adv-x="816" 
d="M581 713l59 -43l-498 -683l-59 43zM228 338h-76v277q-34 -16 -54 -24v69l34.5 17.5l43.5 22.5h52v-362zM545 -23l-27 60q101 41 129 113q-27 -22 -64 -22q-50 0 -82 33t-32 82q0 53 35 88t90 35q64 0 103 -42.5t39 -104.5q0 -85 -53.5 -147.5t-137.5 -94.5zM659 221
q0 83 -60 83q-25 0 -39.5 -17t-14.5 -41q0 -27 15.5 -42.5t39.5 -15.5q40 0 59 33z" />
    <glyph glyph-name="twoninths" horiz-adv-x="850" 
d="M653 713l59 -43l-498 -683l-59 43zM69 397q75 75 125 142q28 38 28 67q0 18 -12 28t-31 10t-31 -13.5t-12 -36.5l-75 13q3 45 38 72.5t83 27.5t83.5 -27.5t35.5 -72.5q0 -43 -39 -99q-36 -48 -92 -104h144v-64h-245v57zM617 -23l-27 60q101 41 129 113q-27 -22 -64 -22
q-50 0 -82 33t-32 82q0 53 35 88t90 35q64 0 103 -42.5t39 -104.5q0 -85 -53.5 -147.5t-137.5 -94.5zM731 221q0 83 -60 83q-25 0 -39.5 -17t-14.5 -41q0 -27 15.5 -42.5t39.5 -15.5q40 0 59 33z" />
    <glyph glyph-name="fourninths" horiz-adv-x="866" 
d="M668 713l59 -43l-498 -683l-58 43zM54 493l154 207h77v-211h51v-62h-51v-87h-75v87h-156v66zM210 489v115q-61 -93 -78 -115h78zM633 -23l-27 60q101 41 129 113q-27 -22 -64 -22q-50 0 -82 33t-32 82q0 53 35 88t90 35q64 0 103 -42.5t39 -104.5q0 -85 -53.5 -147.5
t-137.5 -94.5zM747 221q0 83 -60 83q-25 0 -39.5 -17t-14.5 -41q0 -27 15.5 -42.5t39.5 -15.5q40 0 59 33z" />
    <glyph glyph-name="fiveninths" horiz-adv-x="817" 
d="M619 713l59 -43l-497 -683l-59 43zM296 637h-131q0 -6 -6 -78q19 10 47 10q45 0 76 -32.5t31 -78.5q0 -53 -37 -88.5t-91 -35.5q-87 0 -124 70l63 30q15 -37 57 -37q25 0 39.5 16.5t14.5 40.5q0 23 -15 38t-39 15q-30 0 -48 -22l-49 33q8 83 12 182h200v-63zM584 -23
l-27 60q101 41 129 113q-27 -22 -64 -22q-50 0 -82 33t-32 82q0 53 35 88t90 35q64 0 103 -42.5t39 -104.5q0 -85 -53.5 -147.5t-137.5 -94.5zM698 221q0 83 -60 83q-25 0 -39.5 -17t-14.5 -41q0 -27 15.5 -42.5t39.5 -15.5q40 0 59 33z" />
    <glyph glyph-name="sevenninths" horiz-adv-x="771" 
d="M573 713l59 -43l-497 -683l-59 43zM328 653q-78 -157 -149 -330l-70 32q33 77 134 281h-162v64h247v-47zM538 -23l-27 60q101 41 129 113q-27 -22 -64 -22q-50 0 -82 33t-32 82q0 53 35 88t90 35q64 0 103 -42.5t39 -104.5q0 -85 -53.5 -147.5t-137.5 -94.5zM652 221
q0 83 -60 83q-25 0 -39.5 -17t-14.5 -41q0 -27 15.5 -42.5t39.5 -15.5q40 0 59 33z" />
    <glyph glyph-name="eightninths" horiz-adv-x="821" 
d="M623 713l59 -43l-497 -683l-59 43zM304 441q0 -46 -37 -77t-92 -31q-56 0 -93 30.5t-37 77.5q0 58 54 88q-44 28 -44 77q0 43 33.5 72t86.5 29q52 0 85.5 -29t33.5 -72q0 -49 -44 -77q54 -29 54 -88zM129 602q0 -18 13 -31t33 -13q19 0 32 13t13 31q0 19 -13 31.5
t-32 12.5q-20 0 -33 -12.5t-13 -31.5zM121 445q0 -21 15.5 -35.5t38.5 -14.5q22 0 37.5 14.5t15.5 35.5t-15.5 36t-37.5 15q-23 0 -38.5 -15t-15.5 -36zM588 -23l-27 60q101 41 129 113q-27 -22 -64 -22q-50 0 -82 33t-32 82q0 53 35 88t90 35q64 0 103 -42.5t39 -104.5
q0 -85 -53.5 -147.5t-137.5 -94.5zM702 221q0 83 -60 83q-25 0 -39.5 -17t-14.5 -41q0 -27 15.5 -42.5t39.5 -15.5q40 0 59 33z" />
    <glyph glyph-name="commaaccent" horiz-adv-x="360" 
d="M175 -235h-83l36 178h96z" />
    <glyph glyph-name="revcommaaccent" horiz-adv-x="360" 
d="M180 752h86l-37 -182h-98z" />
    <glyph glyph-name="tilde.cap" horiz-adv-x="360" 
d="M283 874l69 7q3 -12 3 -30q0 -44 -28.5 -70.5t-73.5 -26.5q-37 0 -83 30.5t-64 30.5q-29 0 -31 -28q0 -7 1 -10l-69 -7q-3 12 -3 30q0 44 28.5 70.5t73.5 26.5q37 0 83.5 -30.5t63.5 -30.5q13 0 22 7.5t9 20.5q0 7 -1 10z" />
    <glyph glyph-name="ring.cap" horiz-adv-x="360" 
d="M82 822q0 40 29 69t69 29t69 -29t29 -69t-29 -69t-69 -29t-69 29t-29 69zM136 822q0 -18 13 -31t31 -13t31 13t13 31t-13 31t-31 13t-31 -13t-13 -31z" />
    <glyph glyph-name="circumflex.cap" horiz-adv-x="360" 
d="M124 921h111l108 -132l-61 -47l-103 109l-105 -109l-61 47z" />
    <glyph glyph-name="acute.cap" horiz-adv-x="360" 
d="M325 865l-177 -127l-47 61l166 139z" />
    <glyph glyph-name="grave.cap" horiz-adv-x="360" 
d="M211 738l-177 127l58 73l166 -139z" />
    <glyph glyph-name="dieresis.cap" horiz-adv-x="360" 
d="M101 763h-113v114h113v-114zM372 763h-113v114h113v-114z" />
    <glyph glyph-name="caron.cap" horiz-adv-x="360" 
d="M232 753h-111l-108 132l63 47l103 -109l105 109l59 -47z" />
    <glyph glyph-name="macron.cap" horiz-adv-x="360" 
d="M349 773h-338v77h338v-77z" />
    <glyph glyph-name="dotaccent.cap" horiz-adv-x="360" 
d="M236 763h-112v114h112v-114z" />
    <glyph glyph-name="cedilla.cap" horiz-adv-x="360" 
d="M198 2l-28 -66l2 -1q18 16 48 16q38 0 63 -27.5t25 -67.5q0 -41 -32 -72.5t-78 -31.5q-71 0 -106 62l60 29q11 -32 44 -32q18 0 30 12.5t12 29.5q0 18 -11.5 32t-30.5 14q-26 0 -40 -23l-64 34l47 103z" />
    <glyph glyph-name="hungarumlaut.cap" horiz-adv-x="360" 
d="M224 865l-177 -127l-47 59l166 139zM442 861l-171 -123l-47 61l160 135z" />
    <glyph glyph-name="commaaccent.cap" horiz-adv-x="360" 
d="M175 -235h-83l36 178h96z" />
    <glyph glyph-name="breve.cap" horiz-adv-x="360" 
d="M256 906h72v-7q0 -62 -42.5 -102t-105.5 -40t-105.5 40t-42.5 102v7h72v-8q0 -31 22 -50.5t54 -19.5t54 19.5t22 50.5v8z" />
    <glyph glyph-name="caron.alt" horiz-adv-x="360" 
d="M171 546h-86l40 204h100z" />
    <glyph glyph-name="ogonek.cap" horiz-adv-x="360" 
d="M162 11h84v-11q-51 -14 -79.5 -44.5t-28.5 -62.5q0 -43 44 -43q23 0 45 14l32 -57q-36 -31 -94 -31q-48 0 -82.5 27t-34.5 74q0 92 114 134z" />
    <glyph glyph-name="square" horiz-adv-x="388" 
d="M60 155v268h268v-268h-268z" />
    <glyph glyph-name="square.open" horiz-adv-x="388" 
d="M60 155v268h268v-268h-268zM138 345v-112h112v112h-112z" />
    <glyph glyph-name="circle.open" horiz-adv-x="366" 
d="M35 289q0 61 43.5 104.5t104.5 43.5t104.5 -43.5t43.5 -104.5t-43.5 -104.5t-104.5 -43.5t-104.5 43.5t-43.5 104.5zM121 289q0 -25 18.5 -43.5t43.5 -18.5t43.5 18.5t18.5 43.5t-18.5 43.5t-43.5 18.5t-43.5 -18.5t-18.5 -43.5z" />
    <glyph glyph-name="doublecircle" horiz-adv-x="366" 
d="M183 229q-22 0 -37.5 16t-15.5 39q0 22 15.5 38.5t37.5 16.5t37.5 -15.5t15.5 -38.5t-15.5 -39.5t-37.5 -16.5zM183 140q-59 0 -101.5 42.5t-42.5 101.5t42.5 101t101.5 42t101 -42t42 -101t-42 -101.5t-101 -42.5zM183 174q44 0 75 33.5t31 78.5t-31 76t-75 31
t-74.5 -32t-30.5 -77q0 -46 30 -78t75 -32z" />
    <glyph glyph-name="triangle.left" horiz-adv-x="398" 
d="M338 111l-308 175l308 173v-348z" />
    <glyph glyph-name="raute" horiz-adv-x="356" 
d="M178 512l148 -236l-148 -236l-148 236z" />
    <glyph glyph-name="triangleWhiteLeft" horiz-adv-x="495" 
d="M435 516v-462l-405 231zM184 285l175 -99v198z" />
    <glyph glyph-name="triangleWhiteRight" horiz-adv-x="495" 
d="M60 54v462l405 -231zM136 186l176 99l-176 99v-198z" />
    <glyph glyph-name="arrow.right" horiz-adv-x="1000" 
d="M40 310v101h749l-248 243l72 71l367 -364l-367 -364l-72 71l247 242h-748z" />
    <glyph glyph-name="arrow.left" horiz-adv-x="1000" 
d="M964 411v-101h-748l246 -242l-71 -71l-367 364l367 364l71 -71l-247 -243h749z" />
    <glyph glyph-name="arrow.up" horiz-adv-x="900" 
d="M500 -99h-101v748l-242 -247l-71 72l364 367l364 -367l-71 -72l-243 248v-749z" />
    <glyph glyph-name="arrow.down" horiz-adv-x="900" 
d="M399 821h101v-749l243 248l71 -72l-364 -367l-364 367l71 72l242 -247v748z" />
    <glyph glyph-name="arrow.leftup" horiz-adv-x="1000" 
d="M856 64l-72 -72l-528 529l2 -345h-100l-2 517l517 -2v-100l-347 2z" />
    <glyph glyph-name="arrow.rightup" horiz-adv-x="1000" 
d="M226 -8l-72 72l530 529l-347 -2v100l517 2l-2 -517h-100l2 345z" />
    <glyph glyph-name="arrowleft.down" horiz-adv-x="1000" 
d="M784 701l72 -72l-530 -529l347 3v-101l-517 -2l2 517h100l-2 -345z" />
    <glyph glyph-name="arrowright.down" horiz-adv-x="1000" 
d="M154 629l72 72l528 -529l-2 345h100l2 -517l-517 2v101l347 -3z" />
    <glyph glyph-name="arrowright.alt" horiz-adv-x="482" 
d="M402 286l-264 -197l-58 83l167 114l-167 113l58 83z" />
    <glyph glyph-name="arrowleft.alt" horiz-adv-x="482" 
d="M344 89l-264 197l264 196l58 -83l-167 -113l167 -114z" />
    <glyph glyph-name="arrowup.alt" horiz-adv-x="552" 
d="M276 477l196 -264l-82 -58l-114 166l-114 -166l-82 58z" />
    <glyph glyph-name="arrowdown.alt" horiz-adv-x="552" 
d="M276 94l-196 264l82 58l114 -166l114 166l82 -58z" />
    <glyph glyph-name="arrowleftup.alt" horiz-adv-x="485" 
d="M127 104l-47 326l325 -48l-17 -100l-198 37l38 -197z" />
    <glyph glyph-name="arrowrightup.alt" horiz-adv-x="485" 
d="M405 430l-47 -326l-100 18l38 197l-199 -37l-17 100z" />
    <glyph glyph-name="arrowleftdown.alt" horiz-adv-x="485" 
d="M80 104l47 326l101 -18l-38 -197l198 37l17 -99z" />
    <glyph glyph-name="arrowrightdown.alt" horiz-adv-x="485" 
d="M358 430l47 -326l-325 49l17 99l199 -37l-38 197z" />
    <glyph glyph-name="arrowlong.left" horiz-adv-x="1204" 
d="M1134 304v-80h-911l197 -194l-57 -58l-293 292l293 291l57 -57l-197 -194h911z" />
    <glyph glyph-name="arrowlong.right" horiz-adv-x="1204" 
d="M70 224v80h910l-196 194l57 57l293 -291l-293 -292l-57 58l196 194h-910z" />
    <glyph glyph-name="arrowlong.up" horiz-adv-x="723" 
d="M402 -219h-81v910l-194 -196l-57 57l291 293l292 -293l-57 -57l-194 196v-910z" />
    <glyph glyph-name="arrowlong.down" horiz-adv-x="723" 
d="M321 823h81v-910l194 196l57 -57l-292 -293l-291 293l57 57l194 -196v910z" />
    <glyph glyph-name="arrowlong.leftup" horiz-adv-x="921" 
d="M851 -35l-57 -57l-644 644l2 -277h-80l-2 413h414v-81l-277 2z" />
    <glyph glyph-name="arrowlong.leftdown" horiz-adv-x="921" 
d="M794 688l57 -57l-644 -644l277 2v-81h-414l2 413h80l-2 -277z" />
    <glyph glyph-name="arrowlong.rightup" horiz-adv-x="921" 
d="M127 -92l-57 57l643 644l-276 -2v81h414l-2 -413h-80l1 277z" />
    <glyph glyph-name="arrowlong.rightdown" horiz-adv-x="921" 
d="M70 631l57 57l643 -644l-1 277h80l2 -413h-414v81l276 -2z" />
    <glyph glyph-name="ornm1" horiz-adv-x="666" 
d="M240 390q0 -19 15 -34h-201q-14 0 -24 10t-10 24t10 24t24 10h200q-14 -14 -14 -34zM332 154q0 -14 -9 -23t-23 -9h-81q-13 0 -22.5 9t-9.5 23t9.5 23t22.5 9h81q14 0 23 -9t9 -23zM332 232q0 -14 -9 -23t-23 -9h-81q-13 0 -22.5 9t-9.5 23t9.5 23t22.5 9h81q14 0 23 -9
t9 -23zM332 310q0 -14 -9 -23t-23 -9h-81q-13 0 -22.5 9t-9.5 23t9.5 23t22.5 9h81q14 0 23 -9t9 -23zM429 122h-96q13 13 13 32q0 25 -22 39q22 14 22 39t-22 39q22 14 22 39q0 19 -14 33h63v13h-107q-14 0 -24 10t-10 24t10 24t24 10h149q20 0 35.5 -30t39.5 -30h114v-197
h-114q-23 0 -40.5 -22.5t-42.5 -22.5z" />
    <glyph glyph-name="ornm2" horiz-adv-x="666" 
d="M426 390q0 20 -14 34h200q14 0 24 -10t10 -24t-10 -24t-24 -10h-201q15 15 15 34zM40 364h114q24 0 39.5 30t35.5 30h149q14 0 24 -10t10 -24t-10 -24t-24 -10h-107v-13h63q-14 -14 -14 -33q0 -25 22 -39q-22 -14 -22 -39t22 -39q-22 -14 -22 -39q0 -19 13 -32h-101
q-20 0 -37 22.5t-41 22.5h-114v197zM334 154q0 14 9 23t23 9h81q13 0 22.5 -9t9.5 -23t-9.5 -23t-22.5 -9h-81q-14 0 -23 9t-9 23zM334 232q0 14 9 23t23 9h81q13 0 22.5 -9t9.5 -23t-9.5 -23t-22.5 -9h-81q-14 0 -23 9t-9 23zM334 310q0 14 9 23t23 9h81q13 0 22.5 -9
t9.5 -23t-9.5 -23t-22.5 -9h-81q-14 0 -23 9t-9 23z" />
    <glyph glyph-name="ornm3" horiz-adv-x="1100" 
d="M648 588l-61 12l31 154l61 -12zM519 601h62v-157h-62v157zM452 -78l61 -12l-31 -154l-61 12zM581 -91h-62v157h62v-157zM883 157l12 61l154 -31l-12 -61zM896 286v-62h-157v62h157zM217 353l-12 -61l-154 31l12 61zM204 224v62h157v-62h-157zM855 422l-34 51l130 88
l35 -52zM773 522l44 -44l-111 -111l-44 44zM245 88l34 -51l-130 -88l-35 52zM327 -12l-44 44l111 111l44 -44zM717 -50l51 34l88 -130l-52 -35zM817 32l-44 -44l-111 111l44 44zM383 560l-51 -34l-88 130l52 35zM283 478l44 44l111 -111l-44 -44zM765 527l-51 34l86 132
l52 -34zM651 587l57 -23l-58 -145l-58 23zM335 -17l51 -34l-86 -132l-52 34zM449 -77l-57 23l58 145l58 -23zM822 40l34 51l132 -86l-34 -52zM882 154l-23 -57l-145 58l23 58zM278 470l-34 -51l-132 86l34 52zM218 356l23 57l145 -58l-23 -58zM516 600l-61 -11l-29 155
l60 11zM392 564l57 23l59 -145l-58 -23zM584 -90l61 11l29 -155l-60 -11zM708 -54l-57 -23l-59 145l58 23zM895 289l-11 61l155 29l11 -60zM859 413l23 -57l-145 -59l-23 58zM205 221l11 -61l-155 -29l-11 60zM241 97l-23 57l145 59l23 -58z" />
    <glyph glyph-name="ornm4" horiz-adv-x="1174" 
d="M314 256q0 110 78 188.5t188 78.5q111 0 189 -78.5t78 -188.5t-78 -188.5t-189 -78.5q-110 0 -188 78.5t-78 188.5zM376 256q0 -85 59.5 -145t144.5 -60t145 60t60 145t-60 145t-145 60t-144.5 -60t-59.5 -145zM425 256q0 65 45.5 110.5t109.5 45.5t110 -46t46 -110
t-46 -110t-110 -46t-109.5 45.5t-45.5 110.5zM487 256q0 -39 27.5 -66.5t65.5 -27.5q39 0 66.5 27.5t27.5 66.5t-27.5 66.5t-66.5 27.5q-38 0 -65.5 -27.5t-27.5 -66.5zM716 568q0 18 13 31.5t32 13.5q18 0 31 -13.5t13 -31.5q0 -19 -13 -32t-31 -13q-19 0 -32 13t-13 32z
M723 -67q0 19 13 32t32 13q18 0 31 -13t13 -32t-13 -32t-31 -13q-19 0 -32 13t-13 32zM785 -175q0 19 13 32t32 13t32 -13t13 -32t-13 -32t-32 -13t-32 13t-13 32zM858 69q0 18 13.5 31.5t31.5 13.5q19 0 32 -13.5t13 -31.5q0 -19 -13 -32t-32 -13q-18 0 -31.5 13t-13.5 32z
M966 6q0 19 13.5 32t31.5 13q19 0 32 -13t13 -32q0 -18 -13 -31.5t-32 -13.5q-18 0 -31.5 13.5t-13.5 31.5zM293 676q0 18 13 31.5t32 13.5q18 0 31.5 -13.5t13.5 -31.5q0 -19 -13.5 -32t-31.5 -13q-19 0 -32 13t-13 32zM355 568q0 18 13 31.5t32 13.5t32 -13.5t13 -31.5
q0 -19 -13 -32t-32 -13t-32 13t-13 32zM115 499q0 18 13.5 31.5t31.5 13.5q19 0 32 -13.5t13 -31.5q0 -19 -13 -32t-32 -13q-18 0 -31.5 13t-13.5 32zM223 436q0 19 13.5 32t31.5 13q19 0 32 -13t13 -32q0 -18 -13 -31.5t-32 -13.5q-18 0 -31.5 13.5t-13.5 31.5zM909 256
q0 18 13 31.5t32 13.5q18 0 31.5 -13.5t13.5 -31.5q0 -19 -13.5 -32t-31.5 -13q-19 0 -32 13t-13 32zM1034 256q0 18 13 31.5t32 13.5q18 0 31.5 -13.5t13.5 -31.5q0 -19 -13.5 -32t-31.5 -13q-19 0 -32 13t-13 32zM847 436q0 19 13.5 32t31.5 13q19 0 32 -13t13 -32
q0 -18 -13 -31.5t-32 -13.5q-18 0 -31.5 13.5t-13.5 31.5zM293 -164q0 18 13 31.5t32 13.5q18 0 31.5 -13.5t13.5 -31.5q0 -19 -13.5 -32t-31.5 -13q-19 0 -32 13t-13 32zM50 256q0 18 13 31.5t32 13.5t32 -13.5t13 -31.5q0 -19 -13 -32t-32 -13t-32 13t-13 32zM778 676
q0 18 13 31.5t32 13.5t32 -13.5t13 -31.5q0 -19 -13 -32t-32 -13t-32 13t-13 32zM535 616q0 19 13.5 32t31.5 13q19 0 32 -13t13 -32q0 -18 -13 -31t-32 -13q-18 0 -31.5 13t-13.5 31zM535 741q0 19 13.5 32t31.5 13q19 0 32 -13t13 -32q0 -18 -13 -31.5t-32 -13.5
q-18 0 -31.5 13.5t-13.5 31.5zM535 -229q0 18 13.5 31t31.5 13q19 0 32 -13t13 -31q0 -19 -13 -32t-32 -13q-18 0 -31.5 13t-13.5 32zM535 -105q0 19 13.5 32t31.5 13q19 0 32 -13t13 -32q0 -18 -13 -31.5t-32 -13.5q-18 0 -31.5 13.5t-13.5 31.5zM955 499q0 18 13.5 31.5
t31.5 13.5q19 0 32 -13.5t13 -31.5q0 -19 -13 -32t-32 -13q-18 0 -31.5 13t-13.5 32zM535 256q0 18 13.5 31.5t31.5 13.5q19 0 32 -13.5t13 -31.5q0 -19 -13 -32t-32 -13q-18 0 -31.5 13t-13.5 32zM115 13q0 19 13.5 32t31.5 13q19 0 32 -13t13 -32q0 -18 -13 -31.5
t-32 -13.5q-18 0 -31.5 13.5t-13.5 31.5zM223 76q0 18 13.5 31.5t31.5 13.5q19 0 32 -13.5t13 -31.5q0 -19 -13 -32t-32 -13q-18 0 -31.5 13t-13.5 32zM355 -56q0 18 13 31.5t32 13.5t32 -13.5t13 -31.5q0 -19 -13 -32t-32 -13t-32 13t-13 32zM175 256q0 18 13 31.5t32 13.5
q18 0 31.5 -13.5t13.5 -31.5q0 -19 -13.5 -32t-31.5 -13q-19 0 -32 13t-13 32z" />
    <glyph glyph-name="ornm5" horiz-adv-x="1057" 
d="M233 504l48 48l85 -85q13 11 32 21l-89 222l63 25l89 -222q15 5 34 7v121h68v-121q17 -1 37 -8l94 220l62 -28l-93 -218q7 -3 29 -19l84 85l49 -48l-85 -85q11 -14 21 -32l221 89l25 -64l-221 -89q2 -6 7 -33h120v-68h-120q-4 -26 -8 -38l219 -93l-27 -62l-218 92
q-10 -17 -19 -28l85 -85l-49 -48l-84 85q-25 -18 -32 -22l89 -221l-64 -25l-89 221q-16 -4 -33 -6v-121h-68v121q-13 1 -39 7l-92 -219l-62 27l92 218q-20 12 -28 20l-85 -85l-48 48l84 85q-12 15 -21 32l-221 -89l-25 63l220 90q-6 28 -6 33h-120v68h120q1 13 7 37l-218 94
l27 62l218 -93q6 13 19 29zM324 256q0 -85 60 -145t145 -60t144.5 60t59.5 145t-59.5 145t-144.5 60t-145 -60t-60 -145zM373 256q0 64 45.5 110t110.5 46q64 0 109.5 -45.5t45.5 -110.5t-45.5 -110.5t-109.5 -45.5q-65 0 -110.5 46t-45.5 110zM435 256q0 -39 27.5 -66.5
t66.5 -27.5q38 0 65.5 27.5t27.5 66.5t-27.5 66.5t-65.5 27.5q-39 0 -66.5 -27.5t-27.5 -66.5zM484 256q0 18 13 31.5t32 13.5q18 0 31 -13.5t13 -31.5q0 -19 -13 -32t-31 -13q-19 0 -32 13t-13 32z" />
    <glyph glyph-name="ornm6" horiz-adv-x="1105" 
d="M222 -123l-48 48l167 168q-6 6 -22 32l-220 -89l-25 63l220 89q-6 32 -6 34h-238v68h238q1 13 7 37l-218 94l27 62l218 -92q8 13 19 28l-167 168l48 48l168 -168q13 11 32 21l-90 221l64 26l88 -222q15 5 35 7v238h68v-238q17 -1 37 -8l93 220l63 -28l-92 -218
q16 -9 28 -19l167 168l49 -48l-168 -168q9 -12 21 -33l221 90l25 -63l-221 -90q3 -11 7 -33h238v-68h-238q-4 -24 -8 -37l219 -94l-27 -62l-218 91q-15 -22 -19 -27l168 -168l-49 -48l-167 168q-22 -16 -33 -22l90 -221l-64 -25l-89 221q-16 -4 -33 -6v-239h-68v239
q-14 1 -38 7l-93 -219l-62 27l91 219q-12 6 -27 19zM348 256q0 -85 60 -145t145 -60t144.5 60t59.5 145t-59.5 145t-144.5 60t-145 -60t-60 -145zM397 256q0 64 45.5 110t110.5 46q64 0 109.5 -46t45.5 -110t-45.5 -110t-109.5 -46q-65 0 -110.5 46t-45.5 110zM459 256
q0 -39 27.5 -66.5t66.5 -27.5q38 0 65.5 27.5t27.5 66.5t-27.5 66.5t-65.5 27.5q-39 0 -66.5 -27.5t-27.5 -66.5z" />
    <glyph glyph-name="ornm7" horiz-adv-x="1077" 
d="M50 256q0 132 65.5 245t178 178.5t245.5 65.5q132 0 244.5 -65.5t178 -178.5t65.5 -245t-65.5 -245t-178 -178.5t-244.5 -65.5q-133 0 -245.5 65.5t-178 178.5t-65.5 245zM112 256q0 -177 125 -302t302 -125t301.5 125t124.5 302t-124.5 302t-301.5 125t-302 -125
t-125 -302zM161 256q0 157 110.5 267.5t267.5 110.5t267 -110.5t110 -267.5t-110 -267.5t-267 -110.5t-267.5 110.5t-110.5 267.5zM223 256q0 -131 92.5 -223.5t223.5 -92.5t223 92.5t92 223.5t-92.5 223.5t-222.5 92.5q-131 0 -223.5 -92.5t-92.5 -223.5zM272 256
q0 110 78 188.5t189 78.5q110 0 188 -78.5t78 -188.5t-78 -188.5t-188 -78.5q-111 0 -189 78.5t-78 188.5zM334 256q0 -85 60 -145t145 -60t145 60t60 145t-60 145t-145 60t-145 -60t-60 -145zM383 256q0 64 45.5 110t110.5 46t110.5 -46t45.5 -110t-45.5 -110t-110.5 -46
t-110.5 46t-45.5 110zM445 256q0 -39 27.5 -66.5t66.5 -27.5q38 0 66 27.5t28 66.5t-28 66.5t-66 27.5q-39 0 -66.5 -27.5t-27.5 -66.5zM494 256q0 18 13 31.5t32 13.5q18 0 31.5 -13.5t13.5 -31.5q0 -19 -13.5 -32t-31.5 -13q-19 0 -32 13t-13 32z" />
    <glyph glyph-name="ornm8" horiz-adv-x="1106" 
d="M587 442h-68v318h68v-318zM587 -250h-68v318h68v-318zM740 221v68h318v-68h-318zM48 221v68h318v-68h-318zM710 364l-48 48l224 224l48 -48zM220 -126l-48 48l224 224l48 -48zM662 98l48 48l224 -224l-48 -48zM172 588l48 48l224 -224l-48 -48zM655 416l-63 25l119 295
l63 -26zM395 -226l-63 26l119 294l63 -25zM714 153l25 63l295 -119l-26 -63zM72 413l26 63l294 -119l-25 -63zM739 297l-26 63l291 124l27 -63zM102 26l-27 63l292 124l26 -63zM595 69l63 26l124 -291l-63 -27zM324 706l63 27l124 -292l-63 -26z" />
    <glyph glyph-name="ornm9" horiz-adv-x="600" 
d="M550 500v-500h-500v500h500z" />
    <glyph glyph-name="zero.alt" horiz-adv-x="553" 
d="M276 676q114 0 176.5 -91.5t62.5 -252.5t-62.5 -252.5t-176.5 -91.5q-113 0 -175.5 91.5t-62.5 252.5t62.5 252.5t175.5 91.5zM276 582q-62 0 -96 -63t-34 -187t34 -187t96 -63q63 0 97 63t34 187t-34 187t-97 63z" />
    <glyph glyph-name="one.alt" horiz-adv-x="347" 
d="M257 0h-106v539q-5 -3 -98 -44v98q72 36 135 71h69v-664z" />
    <glyph glyph-name="two.alt" horiz-adv-x="512" 
d="M152 483l-104 18q6 77 64 126t139 49q89 0 145.5 -48t56.5 -131q0 -81 -68 -180q-66 -94 -184 -225h278v-92h-416v90q156 169 224 270q58 86 58 138q0 38 -27.5 62t-67.5 24q-41 0 -69 -28t-29 -73z" />
    <glyph glyph-name="three.alt" horiz-adv-x="507" 
d="M162 302l-53 80l186 190h-248v92h396v-80l-176 -175q83 -4 135.5 -64t52.5 -142q0 -91 -66 -153t-163 -62q-64 0 -115.5 31t-81.5 85l83 45q40 -68 113 -68q50 0 86.5 35.5t36.5 85.5t-36 85.5t-86 35.5q-36 0 -64 -21z" />
    <glyph glyph-name="four.alt" horiz-adv-x="542" 
d="M326 664h99v-400h98v-92h-98v-172h-104v172h-289v105zM144 264h177v242q-104 -148 -177 -242z" />
    <glyph glyph-name="five.alt" horiz-adv-x="501" 
d="M189 572q-6 -114 -13 -174q37 18 88 18q83 0 139 -59t56 -148q0 -93 -65 -157t-165 -64q-63 0 -115 31t-81 85l83 45q39 -68 113 -68q50 0 86.5 35t36.5 84q0 56 -31 89.5t-89 33.5q-54 0 -92 -41l-76 43q19 185 27 339h336v-92h-238z" />
    <glyph glyph-name="six.alt" horiz-adv-x="521" 
d="M261 315q-51 0 -83 -33.5t-32 -83.5q0 -48 33.5 -82.5t81.5 -34.5q51 0 82.5 34t31.5 83t-33.5 83t-80.5 34zM245 402q15 5 40 5q78 0 138 -61t60 -146q0 -88 -66 -150t-158 -62q-91 0 -156 61.5t-65 150.5q0 56 35 120q19 37 104.5 172.5t132.5 202.5l86 -52
q-93 -138 -151 -241z" />
    <glyph glyph-name="seven.alt" horiz-adv-x="457" 
d="M438 664v-75q-132 -273 -274 -613l-97 43q53 126 255 551h-312v94h428z" />
    <glyph glyph-name="eight.alt" horiz-adv-x="559" 
d="M502 189q0 -84 -65 -142.5t-158 -58.5t-157.5 59t-64.5 142q0 52 26.5 94.5t71.5 66.5q-80 47 -80 139q0 77 59.5 132t144.5 55q86 0 145.5 -55t59.5 -132q0 -92 -80 -139q45 -24 71.5 -66.5t26.5 -94.5zM181 488q0 -40 28.5 -68.5t69.5 -28.5t70 28.5t29 68.5t-29 68
t-70 28t-69.5 -28t-28.5 -68zM164 189q0 -45 33.5 -77t81.5 -32t81.5 32t33.5 77q0 46 -33 78t-82 32q-48 0 -81.5 -32t-33.5 -78z" />
    <glyph glyph-name="nine.alt" horiz-adv-x="521" 
d="M260 349q51 0 83 34t32 83t-33.5 83.5t-81.5 34.5q-51 0 -82.5 -34t-31.5 -84q0 -48 33.5 -82.5t80.5 -34.5zM276 262q-20 -5 -41 -5q-78 0 -137.5 61t-59.5 146q0 88 66 150t158 62q91 0 156 -61.5t65 -150.5q0 -50 -35 -120q-19 -37 -104.5 -172.5t-132.5 -202.5
l-86 52q95 142 151 241z" />
    <glyph glyph-name="a.smcp" horiz-adv-x="565" 
d="M9 0l225 576h102l220 -576h-116l-43 116h-235l-42 -116h-111zM279 435l-84 -229h169l-83 229h-2z" />
    <glyph glyph-name="b.smcp" horiz-adv-x="557" 
d="M86 0v576h153q85 0 141 -24q91 -40 91 -134q0 -86 -88 -118q111 -33 111 -134q0 -104 -103 -143q-61 -23 -160 -23h-145zM386 171q0 37 -30 58t-81 21h-85v-162h40q77 0 112 15q44 20 44 68zM367 412q0 41 -31.5 58.5t-98.5 17.5h-47v-150h49q128 0 128 74z" />
    <glyph glyph-name="c.smcp" horiz-adv-x="570" 
d="M478 118l52 -74q-79 -56 -174 -56q-134 0 -223.5 83t-89.5 217q0 128 91 214t223 86q87 0 161 -47l-47 -78q-55 35 -115 35q-88 0 -146.5 -59.5t-58.5 -150.5q0 -96 56 -153t148 -57q67 0 123 40z" />
    <glyph glyph-name="d.smcp" horiz-adv-x="618" 
d="M86 576h86q170 0 236 -27q78 -31 125 -95t47 -163q0 -111 -54.5 -180.5t-142.5 -91.5q-74 -19 -207 -19h-90v576zM190 90q90 0 142 13q140 32 140 181q0 126 -93 173q-60 29 -189 29v-396z" />
    <glyph glyph-name="e.smcp" horiz-adv-x="519" 
d="M447 0h-361v576h361v-90h-257v-146h257v-90h-257v-160h257v-90z" />
    <glyph glyph-name="f.smcp" horiz-adv-x="445" 
d="M397 238h-207v-238h-104v576h311v-90h-207v-158h207v-90z" />
    <glyph glyph-name="g.smcp" horiz-adv-x="673" 
d="M596 332v-229q-41 -54 -104.5 -84.5t-136.5 -30.5q-133 0 -222.5 83t-89.5 217q0 128 91 214t221 86t225 -100l-70 -65q-62 75 -156 75q-88 0 -145.5 -59.5t-57.5 -150.5q0 -96 56 -153t147 -57q83 0 140 55v111h-134v88h236z" />
    <glyph glyph-name="h.smcp" horiz-adv-x="666" 
d="M580 0h-104v253h-286v-253h-104v576h104v-233h286v233h104v-576z" />
    <glyph glyph-name="i.smcp" horiz-adv-x="276" 
d="M190 0h-104v576h104v-576z" />
    <glyph glyph-name="j.smcp" horiz-adv-x="335" 
d="M6 9l28 81q27 -12 49 -12q36 0 50 17q12 16 12 70v411h104v-430q0 -70 -33 -111q-38 -47 -119 -47q-44 0 -91 21z" />
    <glyph glyph-name="k.smcp" horiz-adv-x="562" 
d="M190 0h-104v576h104v-271l223 271h124l-193 -226l208 -350h-122l-156 269l-84 -100v-169z" />
    <glyph glyph-name="l.smcp" horiz-adv-x="446" 
d="M436 0h-350v576h104v-486h246v-90z" />
    <glyph glyph-name="m.smcp" horiz-adv-x="816" 
d="M730 576v-576h-104v443l-178 -443h-82l-176 443v-443h-104v576h156l164 -429h2l167 429h155z" />
    <glyph glyph-name="msmcp.salt" horiz-adv-x="757" 
d="M342 117l-154 328v-445h-102v576h140l153 -324h1l152 324h139v-576h-101v445l-156 -328h-72z" />
    <glyph glyph-name="n.smcp" horiz-adv-x="680" 
d="M489 0l-299 407v-407h-104v576h105l299 -407v407h104v-576h-105z" />
    <glyph glyph-name="o.smcp" horiz-adv-x="699" 
d="M656 288q0 -126 -88 -213t-218 -87q-131 0 -219 87t-88 213t88 213t219 87q130 0 218 -87t88 -213zM548 288q0 91 -56 150.5t-142 59.5t-142.5 -59.5t-56.5 -150.5t56.5 -150.5t142.5 -59.5t142 59.5t56 150.5z" />
    <glyph glyph-name="p.smcp" horiz-adv-x="520" 
d="M190 0h-104v576h112q81 0 113 -4q79 -11 130 -57t51 -119q0 -60 -39.5 -107.5t-102.5 -65.5q-44 -12 -142 -12h-18v-211zM384 395q0 64 -65 84q-23 7 -102 7h-27v-185h30q81 1 108 11q56 22 56 83z" />
    <glyph glyph-name="q.smcp" horiz-adv-x="699" 
d="M656 288q0 -122 -84 -209l78 -79l-64 -64l-87 88q-69 -36 -149 -36q-131 0 -219 87t-88 213t88 213t219 87q130 0 218 -87t88 -213zM548 288q0 91 -56 150.5t-142 59.5t-142.5 -59.5t-56.5 -150.5t56.5 -150.5t142.5 -59.5q44 0 79 16l-74 75l63 64l84 -84q46 57 46 139z
" />
    <glyph glyph-name="r.smcp" horiz-adv-x="572" 
d="M86 576h140q138 0 202.5 -41t64.5 -132q0 -60 -35.5 -103.5t-95.5 -59.5l181 -240h-131l-166 225h-56v-225h-104v576zM385 397q0 53 -35 72t-135 19h-25v-175h26q87 0 128 18.5t41 65.5z" />
    <glyph glyph-name="s.smcp" horiz-adv-x="513" 
d="M429 528l-55 -74q-60 44 -119 44q-39 0 -63 -18t-24 -50q0 -14 7 -26.5t15.5 -20t27.5 -16t30.5 -12.5t36.5 -12q38 -13 60.5 -23t50.5 -29.5t41.5 -49.5t13.5 -70q0 -60 -35 -103.5t-81 -61.5t-93 -18q-118 0 -209 87l64 70q39 -36 72 -51.5t73 -15.5q42 0 71.5 22
t29.5 65q0 37 -29 56.5t-89 39.5q-37 12 -59.5 22.5t-49 29t-39.5 46.5t-13 66q0 79 53 121t132 42q95 0 180 -60z" />
    <glyph glyph-name="t.smcp" horiz-adv-x="454" 
d="M422 486h-143v-486h-104v486h-143v90h390v-90z" />
    <glyph glyph-name="u.smcp" horiz-adv-x="629" 
d="M551 576v-306q0 -282 -239 -282q-234 0 -234 282v306h104v-317q0 -90 34.5 -135.5t97.5 -45.5q64 0 98.5 45.5t34.5 135.5v317h104z" />
    <glyph glyph-name="v.smcp" horiz-adv-x="555" 
d="M551 576l-225 -576h-102l-220 576h116l159 -435h2l159 435h111z" />
    <glyph glyph-name="w.smcp" horiz-adv-x="812" 
d="M798 576l-166 -576h-112l-112 422h-2l-121 -422h-112l-159 576h113l109 -413h2l115 413h110l110 -413h2l114 413h109z" />
    <glyph glyph-name="x.smcp" horiz-adv-x="578" 
d="M10 576h131l151 -207l151 207h127l-215 -283l219 -293h-130l-157 214l-155 -214h-128l220 290z" />
    <glyph glyph-name="y.smcp" horiz-adv-x="501" 
d="M302 0h-104v239l-193 337h126l122 -231h2l121 231h120l-194 -339v-237z" />
    <glyph glyph-name="z.smcp" horiz-adv-x="485" 
d="M439 524l-256 -434h278v-90h-418v55l254 431h-251v90h393v-52z" />
    </font>
</defs>
</svg>
