<?xml version="1.0" standalone="no"?>
<!DOCTYPE svg PUBLIC "-//W3C//DTD SVG 1.1//EN" "http://www.w3.org/Graphics/SVG/1.1/DTD/svg11.dtd" >
<svg>
<metadata>
Created by FontForge 20090622 at Fri Oct 25 07:42:59 2019
 By deploy user
Copyright &#194;&#169; 2011 by Wolfgang Homola, distributed by TypeTogether. All rights reserved.
</metadata>
<defs>
<font id="Soleil-Bold" horiz-adv-x="550" >
  <font-face 
    font-family="Soleil"
    font-weight="700"
    font-stretch="normal"
    units-per-em="1000"
    panose-1="0 0 8 0 0 0 0 0 0 0"
    ascent="750"
    descent="-250"
    x-height="526"
    cap-height="700"
    bbox="-210 -321 1327 1002"
    underline-thickness="50"
    underline-position="-50"
    unicode-range="U+000D-U+FB02"
  />
<missing-glyph 
d="M228 226h85v-83h-85v83zM505 0h-459v666h459v-666zM428 74v518h-306v-518h306zM230 356q41 13 61 26.5t20 39.5q0 16 -10 27.5t-28 11.5q-38 0 -38 -44v-12h-77v10q0 49 31.5 81t83.5 32q51 0 83.5 -32.5t32.5 -71.5q0 -42 -20.5 -66.5t-57.5 -43.5v-43h-81v85z" />
    <glyph glyph-name="fi" unicode="fi" horiz-adv-x="638" 
d="M339 631q-25 9 -55 9q-31 0 -44 -16q-14 -19 -14 -64v-34h131v-118h-131v-408h-142v408h-57v118h57v42q0 94 38 140q43 54 148 54q44 0 91 -14zM427 526h142v-526h-142v526zM427 720h142v-121h-142v121z" />
    <glyph glyph-name="fl" unicode="fl" horiz-adv-x="638" 
d="M427 0v750h142v-750h-142zM339 631q-25 9 -55 9q-31 0 -44 -16q-14 -19 -14 -64v-34h131v-118h-131v-408h-142v408h-57v118h57v42q0 94 38 140q43 54 148 54q44 0 91 -14z" />
    <glyph glyph-name="f_f" unicode="ff" horiz-adv-x="716" 
d="M357 623q-33 17 -73 17q-31 0 -44 -16q-14 -19 -14 -64v-34h108v-118h-108v-408h-142v408h-57v118h57v42q0 94 38 140q43 54 148 54q66 0 131 -30zM715 623q-33 17 -73 17q-31 0 -44 -16q-14 -19 -14 -64v-34h131v-118h-131v-408h-142v408h-57v118h57v42q0 94 38 140
q44 54 148 54q66 0 131 -30z" />
    <glyph glyph-name="f_k" unicode="fk" horiz-adv-x="913" 
d="M339 631q-25 9 -55 9q-31 0 -44 -16q-14 -19 -14 -64v-34h131v-118h-131v-408h-142v408h-57v118h57v42q0 94 38 140q43 54 148 54q44 0 91 -14zM620 195l-51 -59v-136h-142v750h142v-438h2l170 214h162l-188 -220l200 -306h-174z" />
    <glyph glyph-name="f_b" unicode="fb" horiz-adv-x="1002" 
d="M339 631q-25 9 -55 9q-31 0 -44 -16q-14 -19 -14 -64v-34h131v-118h-131v-408h-142v408h-57v118h57v42q0 94 38 140q43 54 148 54q44 0 91 -14zM569 471q26 34 69 50.5t86 16.5q104 0 174.5 -80.5t70.5 -196.5q0 -113 -70.5 -193t-175.5 -80q-47 0 -92 18.5t-71 57.5
l-10 -64h-123v750h142v-279zM569 167q47 -57 122 -57q64 0 98.5 46.5t34.5 108.5t-36 106.5t-95 44.5q-82 0 -124 -70v-179z" />
    <glyph glyph-name="f_h" unicode="fh" horiz-adv-x="976" 
d="M339 631q-25 9 -55 9q-31 0 -44 -16q-14 -19 -14 -64v-34h131v-118h-131v-408h-142v408h-57v118h57v42q0 94 38 140q43 54 148 54q44 0 91 -14zM569 464q61 74 155 74q86 0 140 -69q47 -61 47 -196v-273h-142v266q0 81 -16 113q-19 37 -70 37q-32 0 -63.5 -18t-50.5 -49
v-349h-142v750h142v-286z" />
    <glyph glyph-name="f_t" unicode="ft" horiz-adv-x="736" 
d="M357 623q-33 17 -73 17q-31 0 -44 -16q-14 -19 -14 -64v-34h108v-118h-108v-408h-142v408h-57v118h57v42q0 94 38 140q43 54 148 54q66 0 131 -30zM575 204q0 -30 2 -45q6 -50 46 -50q27 0 57 15l44 -105q-53 -31 -125 -31q-60 0 -100.5 30.5t-55.5 82.5q-10 33 -10 88
v219h-54v118h54l22 116h120v-116h134v-118h-134v-204z" />
    <glyph glyph-name="f_j" unicode="fj" horiz-adv-x="644" 
d="M339 631q-25 9 -55 9q-31 0 -44 -16q-14 -19 -14 -64v-34h131v-118h-131v-408h-142v408h-57v118h57v42q0 94 38 140q43 54 148 54q44 0 91 -14zM433 720h142v-121h-142v121zM575 -37q0 -85 -34 -130q-43 -60 -146 -60q-59 0 -114 22l38 113q29 -13 61 -13q33 0 43 20
t10 60v551h142v-563z" />
    <glyph glyph-name="f_f_j" unicode="ffj" horiz-adv-x="1002" 
d="M357 623q-33 17 -73 17q-31 0 -44 -16q-14 -19 -14 -64v-34h108v-118h-108v-408h-142v408h-57v118h57v42q0 94 38 140q43 54 148 54q66 0 131 -30zM697 631q-25 9 -55 9q-31 0 -44 -16q-14 -19 -14 -64v-34h131v-118h-131v-408h-142v408h-57v118h57v42q0 94 38 140
q44 54 148 54q44 0 91 -14zM791 720h142v-121h-142v121zM933 -37q0 -85 -34 -130q-43 -60 -146 -60q-59 0 -114 22l38 113q29 -13 61 -13q33 0 43 20t10 60v551h142v-563z" />
    <glyph glyph-name="f_f_i" unicode="ffi" horiz-adv-x="996" 
d="M785 526h142v-526h-142v526zM785 720h142v-121h-142v121zM357 623q-33 17 -73 17q-31 0 -44 -16q-14 -19 -14 -64v-34h108v-118h-108v-408h-142v408h-57v118h57v42q0 94 38 140q43 54 148 54q66 0 131 -30zM697 631q-25 9 -55 9q-31 0 -44 -16q-14 -19 -14 -64v-34h131
v-118h-131v-408h-142v408h-57v118h57v42q0 94 38 140q44 54 148 54q44 0 91 -14z" />
    <glyph glyph-name="f_f_l" unicode="ffl" horiz-adv-x="996" 
d="M785 0v750h142v-750h-142zM357 623q-33 17 -73 17q-31 0 -44 -16q-14 -19 -14 -64v-34h108v-118h-108v-408h-142v408h-57v118h57v42q0 94 38 140q43 54 148 54q66 0 131 -30zM697 631q-25 9 -55 9q-31 0 -44 -16q-14 -19 -14 -64v-34h131v-118h-131v-408h-142v408h-57
v118h57v42q0 94 38 140q44 54 148 54q44 0 91 -14z" />
    <glyph glyph-name="f_f_k" unicode="ffk" horiz-adv-x="1271" 
d="M357 623q-33 17 -73 17q-31 0 -44 -16q-14 -19 -14 -64v-34h108v-118h-108v-408h-142v408h-57v118h57v42q0 94 38 140q43 54 148 54q66 0 131 -30zM697 631q-25 9 -55 9q-31 0 -44 -16q-14 -19 -14 -64v-34h131v-118h-131v-408h-142v408h-57v118h57v42q0 94 38 140
q44 54 148 54q44 0 91 -14zM978 195l-51 -59v-136h-142v750h142v-438h2l170 214h162l-188 -220l200 -306h-174z" />
    <glyph glyph-name="f_f_b" unicode="ffb" horiz-adv-x="1360" 
d="M357 623q-33 17 -73 17q-31 0 -44 -16q-14 -19 -14 -64v-34h108v-118h-108v-408h-142v408h-57v118h57v42q0 94 38 140q43 54 148 54q66 0 131 -30zM697 631q-25 9 -55 9q-31 0 -44 -16q-14 -19 -14 -64v-34h131v-118h-131v-408h-142v408h-57v118h57v42q0 94 38 140
q44 54 148 54q44 0 91 -14zM927 471q26 34 69 50.5t86 16.5q104 0 174.5 -80.5t70.5 -196.5q0 -113 -70.5 -193t-175.5 -80q-47 0 -92 18.5t-71 57.5l-10 -64h-123v750h142v-279zM927 167q47 -57 122 -57q64 0 98.5 46.5t34.5 108.5t-36 106.5t-95 44.5q-82 0 -124 -70v-179
z" />
    <glyph glyph-name="f_f_h" unicode="ffh" horiz-adv-x="1334" 
d="M357 623q-33 17 -73 17q-31 0 -44 -16q-14 -19 -14 -64v-34h108v-118h-108v-408h-142v408h-57v118h57v42q0 94 38 140q43 54 148 54q66 0 131 -30zM697 631q-25 9 -55 9q-31 0 -44 -16q-14 -19 -14 -64v-34h131v-118h-131v-408h-142v408h-57v118h57v42q0 94 38 140
q44 54 148 54q44 0 91 -14zM927 464q61 74 155 74q86 0 140 -69q47 -61 47 -196v-273h-142v266q0 81 -16 113q-19 37 -70 37q-32 0 -63.5 -18t-50.5 -49v-349h-142v750h142v-286z" />
    <glyph glyph-name="f_f_t" unicode="fft" horiz-adv-x="1094" 
d="M357 623q-33 17 -73 17q-31 0 -44 -16q-14 -19 -14 -64v-34h108v-118h-108v-408h-142v408h-57v118h57v42q0 94 38 140q43 54 148 54q66 0 131 -30zM715 623q-33 17 -73 17q-31 0 -44 -16q-14 -19 -14 -64v-34h108v-118h-108v-408h-142v408h-57v118h57v42q0 94 38 140
q44 54 148 54q66 0 131 -30zM933 204q0 -30 2 -45q6 -50 46 -50q27 0 57 15l44 -105q-53 -31 -125 -31q-60 0 -100.5 30.5t-55.5 82.5q-10 32 -10 88v219h-54v118h54l22 116h120v-116h134v-118h-134v-204z" />
    <glyph glyph-name="f_iacute" unicode="f&#xed;" horiz-adv-x="638" 
d="M438 643l139 185l96 -76l-148 -176zM427 526h142v-526h-142v526zM357 623q-33 17 -73 17q-31 0 -44 -16q-14 -19 -14 -64v-34h131v-118h-131v-408h-142v408h-57v118h57v42q0 94 38 140q43 54 148 54q66 0 131 -30z" />
    <glyph glyph-name="t_t" unicode="tt" horiz-adv-x="756" 
d="M217 204q0 -30 2 -45q6 -50 46 -50q27 0 57 15l44 -105q-53 -31 -125 -31q-60 0 -100.5 30.5t-55.5 82.5q-10 32 -10 88v219h-63v118h63l22 116h120v-116h129v-118h-129v-204zM595 204q0 -30 2 -45q6 -50 46 -50q27 0 57 15l44 -105q-53 -31 -125 -31q-60 0 -100.5 30.5
t-55.5 82.5q-10 33 -10 88v219h-58v118h58l22 116h120v-116h134v-118h-134v-204z" />
    <glyph glyph-name=".notdef" 
d="M228 226h85v-83h-85v83zM505 0h-459v666h459v-666zM428 74v518h-306v-518h306zM230 356q41 13 61 26.5t20 39.5q0 16 -10 27.5t-28 11.5q-38 0 -38 -44v-12h-77v10q0 49 31.5 81t83.5 32q51 0 83.5 -32.5t32.5 -71.5q0 -42 -20.5 -66.5t-57.5 -43.5v-43h-81v85z" />
    <glyph glyph-name=".null" horiz-adv-x="0" 
 />
    <glyph glyph-name="nonmarkingreturn" horiz-adv-x="333" 
 />
    <glyph glyph-name="CR" unicode="&#xd;" horiz-adv-x="500" 
 />
    <glyph glyph-name="space" unicode=" " horiz-adv-x="250" 
 />
    <glyph glyph-name="exclam" unicode="!" horiz-adv-x="327" 
d="M231 239h-135l-11 336v125h157v-125zM87 149h153v-149h-153v149z" />
    <glyph glyph-name="quotedbl" unicode="&#x22;" horiz-adv-x="506" 
d="M66 700h147l-10 -290h-128zM293 700h148l-10 -290h-128z" />
    <glyph glyph-name="numbersign" unicode="#" horiz-adv-x="597" 
d="M135 404h-64v96h83l31 166h110l-32 -166h129l32 166h110l-32 -166h81v-96h-100l-28 -142h71v-96h-89l-31 -166h-110l31 166h-129l-31 -166h-109l31 166h-75v96h94zM345 262l28 142h-128l-28 -142h128z" />
    <glyph glyph-name="dollar" unicode="$" 
d="M99 188q86 -82 158 -82q56 0 86.5 22t30.5 64q0 13 -4 24t-14 20.5t-18 15.5t-26 14l-27.5 12t-33 12.5t-32.5 11.5q-36 13 -61 26t-50.5 34t-39 51.5t-13.5 70.5q0 84 52 133.5t136 56.5v96h83v-98q87 -13 173 -74l-79 -97q-73 59 -144 59q-33 0 -58.5 -18.5
t-25.5 -51.5q0 -10 4 -18.5t13 -15.5t18 -13t25 -12.5t28 -10.5l32.5 -11t32.5 -12q37 -14 63.5 -28t54 -37t42 -56t14.5 -75q0 -87 -56.5 -140t-143.5 -67v-100h-82v96q-122 8 -228 111z" />
    <glyph glyph-name="percent" unicode="%" horiz-adv-x="856" 
d="M225 706q73 0 124.5 -48.5t51.5 -122.5q0 -73 -51.5 -121.5t-124.5 -48.5t-125 48.5t-52 121.5q0 74 52 122.5t125 48.5zM225 606q-29 0 -47 -20t-18 -51t18 -50.5t47 -19.5q28 0 46 19.5t18 50.5t-18 51t-46 20zM632 335q73 0 124.5 -48.5t51.5 -121.5
q0 -74 -51.5 -122.5t-124.5 -48.5t-125 48.5t-52 122.5q0 73 52 121.5t125 48.5zM632 235q-29 0 -47 -19.5t-18 -50.5t18 -51t47 -20q28 0 46 20t18 51t-18 50.5t-46 19.5zM215 -18l-71 53l498 683l71 -53z" />
    <glyph glyph-name="ampersand" unicode="&#x26;" horiz-adv-x="692" 
d="M506 79q-72 -91 -202 -91q-103 0 -177.5 66t-74.5 159q0 52 28.5 99.5t81.5 80.5q-33 35 -46.5 65.5t-13.5 70.5q0 79 64.5 131t147.5 52q76 0 127 -39.5t71 -111.5l-128 -37q-12 69 -74 69q-29 0 -49.5 -19.5t-20.5 -47.5q0 -29 23 -59t83 -84l-78 -90l-22 19
q-55 -32 -55 -93q0 -47 34 -79.5t82 -32.5q66 0 107 54l-72 66l77 91l285 -255l-78 -91z" />
    <glyph glyph-name="quotesingle" unicode="'" horiz-adv-x="279" 
d="M66 700h148l-10 -290h-129z" />
    <glyph glyph-name="parenleft" unicode="(" horiz-adv-x="370" 
d="M322 -177q-290 177 -290 484q0 302 288 482l52 -100q-202 -131 -202 -382q0 -255 201 -383z" />
    <glyph glyph-name="parenright" unicode=")" horiz-adv-x="370" 
d="M50 789q288 -180 288 -482q0 -307 -290 -484l-49 101q201 128 201 383q0 251 -202 382z" />
    <glyph glyph-name="asterisk" unicode="*" horiz-adv-x="506" 
d="M415 415l-104 -76l-58 118l-58 -118l-104 76l94 90l-127 18l39 122l114 -60l-23 126h129l-23 -127l115 61l39 -122l-127 -18z" />
    <glyph glyph-name="plus" unicode="+" 
d="M214 561h120v-190h191v-120h-191v-191h-120v191h-190v120h190v190z" />
    <glyph glyph-name="comma" unicode="," horiz-adv-x="250" 
d="M-4 -126l56 275h151l-72 -275h-135z" />
    <glyph glyph-name="hyphen" unicode="-" horiz-adv-x="447" 
d="M82 349h283v-118h-283v118z" />
    <glyph glyph-name="period" unicode="." horiz-adv-x="250" 
d="M48 149h153v-149h-153v149z" />
    <glyph glyph-name="slash" unicode="/" horiz-adv-x="405" 
d="M0 -14l290 782l115 -45l-290 -783z" />
    <glyph glyph-name="zero" unicode="0" horiz-adv-x="562" 
d="M281 676q118 0 183 -91t65 -253t-65 -253t-183 -91t-183 91t-65 253t65 253t183 91zM281 555q-104 0 -104 -223t104 -223t104 223t-104 223z" />
    <glyph glyph-name="one" unicode="1" horiz-adv-x="359" 
d="M139 501l-94 -41v128l143 76h93v-664h-142v501z" />
    <glyph glyph-name="two" unicode="2" horiz-adv-x="524" 
d="M54 0v105q143 149 226 268q48 70 48 117q0 30 -20.5 49t-52.5 19q-35 0 -55.5 -25.5t-20.5 -68.5l-141 23q7 84 70 136.5t149 52.5q88 0 151.5 -50t63.5 -134q0 -89 -68 -185q-50 -70 -160 -188h256v-119h-446z" />
    <glyph glyph-name="three" unicode="3" horiz-adv-x="536" 
d="M176 395q49 0 78 8q32 8 50.5 28.5t18.5 50.5q0 32 -22.5 53t-61.5 21q-31 0 -52.5 -17.5t-27.5 -49.5l-120 52q20 64 75.5 99.5t125.5 35.5q92 0 158.5 -49t66.5 -129q0 -43 -22.5 -82t-59.5 -60q51 -19 81.5 -64t30.5 -100q0 -94 -69 -149t-171 -55q-73 0 -135.5 37
t-91.5 104l119 55q32 -76 109 -76q40 0 67.5 22t27.5 61q0 45 -33.5 69t-88.5 24q-29 0 -53 -5v116z" />
    <glyph glyph-name="four" unicode="4" horiz-adv-x="553" 
d="M303 163h-281v119q107 139 279 382h142v-384h93v-117h-93v-163h-140v163zM303 481l-60.5 -94.5t-70.5 -106.5h131v201z" />
    <glyph glyph-name="five" unicode="5" horiz-adv-x="516" 
d="M228 545q-3 -73 -10 -137q36 16 77 16q83 0 138 -60.5t55 -143.5q0 -100 -67.5 -166t-167.5 -66q-75 0 -134 34t-91 98l119 60q27 -72 103 -72q42 0 68 30t26 71q0 43 -26 70t-69 27q-51 0 -85 -41l-92 65q16 151 22 334h364v-119h-230z" />
    <glyph glyph-name="six" unicode="6" horiz-adv-x="555" 
d="M435 597q-89 -38 -148 -86.5t-87 -117.5q48 40 112 40q90 0 150 -62t60 -151q0 -98 -64.5 -165t-166.5 -67q-117 0 -187.5 80t-70.5 194q0 154 98.5 268.5t253.5 177.5zM175 259q-6 -63 23 -108.5t86 -45.5q43 0 69.5 31t26.5 75q0 49 -29 77t-72 28q-31 0 -59.5 -15
t-44.5 -42z" />
    <glyph glyph-name="seven" unicode="7" horiz-adv-x="477" 
d="M461 575q-157 -328 -273 -606l-127 57l85.5 192l94.5 198.5l62 128.5h-293v119h451v-89z" />
    <glyph glyph-name="eight" unicode="8" horiz-adv-x="564" 
d="M421 349q49 -29 73.5 -66.5t24.5 -95.5q0 -85 -66.5 -142t-170.5 -57t-170.5 57t-66.5 142q0 58 24.5 95.5t73.5 66.5q-78 49 -78 143q0 83 63.5 133.5t153.5 50.5t153.5 -50.5t63.5 -133.5q0 -94 -78 -143zM282 105q40 0 67 26.5t27 64.5t-27 64.5t-67 26.5t-67 -26.5
t-27 -64.5t27 -64.5t67 -26.5zM282 403q35 0 57 22.5t22 56.5t-22 55.5t-57 21.5t-57 -21.5t-22 -55.5t22 -56.5t57 -22.5z" />
    <glyph glyph-name="nine" unicode="9" horiz-adv-x="555" 
d="M120 67q89 38 148 86.5t87 117.5q-48 -40 -112 -40q-90 0 -150 62t-60 151q0 98 64.5 165t166.5 67q117 0 187.5 -80t70.5 -194q0 -154 -98.5 -268.5t-253.5 -177.5zM380 405q6 63 -23 108.5t-86 45.5q-43 0 -69.5 -31t-26.5 -75q0 -49 29 -77t72 -28q31 0 59.5 15
t44.5 42z" />
    <glyph glyph-name="colon" unicode=":" horiz-adv-x="250" 
d="M48 526h153v-149h-153v149zM48 149h153v-149h-153v149z" />
    <glyph glyph-name="semicolon" unicode=";" horiz-adv-x="250" 
d="M-4 -126l56 275h151l-72 -275h-135zM47 526h152v-149h-152v149z" />
    <glyph glyph-name="less" unicode="&#x3c;" 
d="M537 453l-351 -140l351 -140v-118l-525 209v98l525 210v-119z" />
    <glyph glyph-name="equal" unicode="=" 
d="M517 351h-485v121h485v-121zM517 151h-485v120h485v-120z" />
    <glyph glyph-name="greater" unicode="&#x3e;" 
d="M538 264l-526 -209v118l351 140l-351 140v119l526 -210v-98z" />
    <glyph glyph-name="question" unicode="?" horiz-adv-x="545" 
d="M195 391q39 13 59 21.5t45.5 23.5t36.5 35t11 47q0 32 -19.5 54t-53.5 22q-35 0 -54.5 -22.5t-19.5 -62.5v-21h-139v17q0 92 60.5 149.5t152.5 57.5q93 0 152 -59t59 -132q0 -43 -10.5 -75.5t-33.5 -56t-44.5 -38.5t-56.5 -33v-79h-145v152zM191 149h153v-149h-153v149z
" />
    <glyph glyph-name="at" unicode="@" horiz-adv-x="798" 
d="M554 -91q-81 -40 -162 -40q-145 0 -246 101t-101 243q0 147 103.5 246.5t249.5 99.5q150 0 252.5 -90t102.5 -237q0 -87 -45 -146t-124 -59q-76 0 -110 67q-32 -46 -105 -46q-61 0 -99.5 47.5t-38.5 113.5q0 62 37 112.5t99 50.5q52 0 82 -35v29h100v-150q0 -46 7.5 -67
t26.5 -21q24 0 39 30t15 64q0 113 -61 175t-177 62q-101 0 -169.5 -70t-68.5 -175q0 -103 67.5 -174t164.5 -71q57 0 109 26zM449 255q-27 30 -59 30q-29 0 -44 -23t-15 -54q0 -28 15 -49.5t42 -21.5q43 0 61 47v71z" />
    <glyph glyph-name="A" unicode="A" horiz-adv-x="689" 
d="M467 130h-249l-47 -130h-159l286 700h116l263 -700h-165zM427 247l-81 235h-1l-85 -235h167z" />
    <glyph glyph-name="B" unicode="B" horiz-adv-x="617" 
d="M262 700q121 0 190 -45q82 -53 82 -153q0 -44 -22.5 -80t-65.5 -55q54 -18 85.5 -61t31.5 -98q0 -61 -33.5 -108.5t-91.5 -71.5q-67 -28 -184 -28h-176v700h184zM254 120q86 0 116 15q40 21 40 70q0 44 -28 69t-81 25h-80v-179h33zM261 415q130 0 130 82q0 42 -30 65
q-27 18 -112 18h-28v-165h40z" />
    <glyph glyph-name="C" unicode="C" horiz-adv-x="675" 
d="M202 350q0 -106 59 -171.5t161 -65.5q82 0 149 58l80 -104q-103 -79 -235 -79q-159 0 -263 101.5t-104 260.5q0 153 109 257.5t264 104.5q106 0 215 -68l-69 -111q-71 54 -146 54q-95 0 -157.5 -68.5t-62.5 -168.5z" />
    <glyph glyph-name="D" unicode="D" horiz-adv-x="715" 
d="M282 700q71 0 136.5 -19.5t122.5 -58.5t91 -108.5t34 -160.5q0 -93 -34 -163.5t-91.5 -110.5t-124.5 -59.5t-143 -19.5h-195v700h204zM237 121q276 0 276 223q0 115 -64.5 175t-183.5 60h-44v-458h16z" />
    <glyph glyph-name="E" unicode="E" horiz-adv-x="580" 
d="M78 700h449v-121h-306v-158h306v-121h-306v-179h306v-121h-449v700z" />
    <glyph glyph-name="F" unicode="F" horiz-adv-x="503" 
d="M221 0h-143v700h388v-121h-245v-176h245v-121h-245v-282z" />
    <glyph glyph-name="G" unicode="G" horiz-adv-x="793" 
d="M416 404h311v-273q-107 -143 -305 -143q-161 0 -267 101t-106 261q0 153 109 257.5t264 104.5q175 0 294 -138l-99 -86q-85 99 -195 99q-95 0 -157.5 -68.5t-62.5 -168.5q0 -106 60.5 -171.5t159.5 -65.5q94 0 162 65v105h-168v121z" />
    <glyph glyph-name="H" unicode="H" horiz-adv-x="739" 
d="M518 300h-297v-300h-143v700h143v-279h297v279h143v-700h-143v300z" />
    <glyph glyph-name="I" unicode="I" horiz-adv-x="299" 
d="M78 700h143v-700h-143v700z" />
    <glyph glyph-name="J" unicode="J" horiz-adv-x="340" 
d="M271 186q0 -103 -45 -151q-44 -47 -139 -47q-67 0 -131 32l45 113q35 -20 69 -20q37 0 48 21q10 18 10 69v497h143v-514z" />
    <glyph glyph-name="K" unicode="K" horiz-adv-x="640" 
d="M636 0h-167l-173 303l-75 -89v-214h-143v700h143v-287l236 287h173l-237 -283z" />
    <glyph glyph-name="L" unicode="L" horiz-adv-x="512" 
d="M78 700h143v-579h287v-121h-430v700z" />
    <glyph glyph-name="M" unicode="M" horiz-adv-x="956" 
d="M425 0l-204 513v-513h-143v700h211l188 -488l195 488h207v-700h-143v511l-209 -511h-102z" />
    <glyph glyph-name="N" unicode="N" horiz-adv-x="748" 
d="M221 438v-438h-143v700h126l324 -439v439h143v-700h-129z" />
    <glyph glyph-name="O" unicode="O" horiz-adv-x="831" 
d="M629 350q0 100 -60.5 168.5t-152.5 68.5t-153 -68t-61 -169t61 -169t153 -68t152.5 68.5t60.5 168.5zM782 350q0 -151 -106 -256.5t-260 -105.5q-155 0 -261 105.5t-106 256.5t106 256.5t261 105.5q154 0 260 -105.5t106 -256.5z" />
    <glyph glyph-name="P" unicode="P" horiz-adv-x="588" 
d="M301 700q47 0 91.5 -12t83.5 -36.5t63 -68t24 -100.5q0 -58 -23.5 -102t-63 -68.5t-83.5 -36.5t-92 -12h-80v-264h-143v700h223zM278 385q133 0 133 95q0 46 -31 72.5t-83 26.5h-76v-194h57z" />
    <glyph glyph-name="Q" unicode="Q" horiz-adv-x="831" 
d="M588 30q-79 -42 -172 -42q-155 0 -261 105.5t-106 256.5t106 256.5t261 105.5q154 0 260 -105.5t106 -256.5q0 -144 -96 -246l89 -88l-86 -86zM585 204q44 63 44 146q0 100 -60.5 168.5t-152.5 68.5t-153 -68t-61 -169t61 -169t153 -68q41 0 74 15l-86 85l87 85z" />
    <glyph glyph-name="R" unicode="R" horiz-adv-x="634" 
d="M300 700q45 0 88 -12t82 -35.5t62.5 -66t23.5 -96.5q0 -76 -43 -124.5t-109 -70.5l214 -295h-180l-192 279h-25v-279h-143v700h222zM277 400q57 0 91.5 21.5t34.5 65.5q0 41 -29.5 66.5t-77.5 25.5h-75v-179h56z" />
    <glyph glyph-name="S" unicode="S" horiz-adv-x="609" 
d="M468 527q-74 63 -145 63q-38 0 -64.5 -18.5t-26.5 -51.5q0 -11 3.5 -20.5t11.5 -17.5t14.5 -13t21 -11.5t21.5 -9t25 -8.5t23 -8q48 -16 77.5 -30t66.5 -40t55.5 -65.5t18.5 -91.5q0 -72 -42 -123t-100 -72.5t-123 -21.5q-151 0 -268 117l95 93q48 -46 85.5 -67t88.5 -21
q46 0 78.5 22.5t32.5 66.5q0 21 -9.5 37.5t-32.5 30t-40 21t-53 20.5t-56 22t-50 27t-46 37.5t-28.5 51t-12.5 70.5q0 94 67.5 145t161.5 51q123 0 232 -83z" />
    <glyph glyph-name="T" unicode="T" horiz-adv-x="491" 
d="M317 0h-143v579h-166v121h475v-121h-166v-579z" />
    <glyph glyph-name="U" unicode="U" horiz-adv-x="716" 
d="M640 330q0 -169 -68.5 -255.5t-215.5 -86.5q-280 0 -280 342v370h143v-389q0 -98 37 -148t102 -50t102 50t37 148v389h143v-370z" />
    <glyph glyph-name="V" unicode="V" horiz-adv-x="674" 
d="M267 0l-263 700h166l166 -481h1l174 481h158l-285 -700h-117z" />
    <glyph glyph-name="W" unicode="W" horiz-adv-x="944" 
d="M662 252l118 448h160l-201 -700h-142l-127 460h-2l-131 -460h-137l-196 700h160l115 -448h2l125 448h134l120 -448h2z" />
    <glyph glyph-name="X" unicode="X" horiz-adv-x="708" 
d="M707 0h-188l-169 239l-169 -239h-180l258 352l-250 348h188l161 -230l163 230h179l-252 -342z" />
    <glyph glyph-name="Y" unicode="Y" horiz-adv-x="608" 
d="M227 293l-223 407h178l121 -252h2l132 252h167l-234 -411v-289h-143v293z" />
    <glyph glyph-name="Z" unicode="Z" horiz-adv-x="562" 
d="M546 121v-121h-513v76l295 503h-287v121h481v-73l-296 -506h320z" />
    <glyph glyph-name="bracketleft" unicode="[" horiz-adv-x="330" 
d="M69 747h252v-113h-121v-682h121v-113h-252v908z" />
    <glyph glyph-name="backslash" unicode="\" horiz-adv-x="405" 
d="M0 723l115 45l290 -782l-115 -46z" />
    <glyph glyph-name="bracketright" unicode="]" horiz-adv-x="331" 
d="M9 -48h121v682h-121v113h252v-908h-252v113z" />
    <glyph glyph-name="asciicircum" unicode="^" 
d="M275 519l-80 -189h-130l150 366h120l150 -366h-130z" />
    <glyph glyph-name="underscore" unicode="_" 
d="M0 -122h550v-99h-550v99z" />
    <glyph glyph-name="grave" unicode="`" horiz-adv-x="360" 
d="M120 826l133 -186l-82 -62l-147 172z" />
    <glyph glyph-name="a" unicode="a" horiz-adv-x="575" 
d="M377 45q-46 -57 -143 -57q-78 0 -133.5 45t-55.5 122q0 61 36 101t84.5 54.5t108.5 14.5q43 0 95 -11v8q0 106 -104 106q-71 0 -159 -46l-38 102q110 54 226 54q107 0 162 -58.5t55 -163.5v-316h-123zM369 229q-41 9 -72 9q-46 0 -79.5 -19.5t-33.5 -61.5
q0 -33 23.5 -51.5t56.5 -18.5q55 0 105 45v97z" />
    <glyph glyph-name="b" unicode="b" horiz-adv-x="644" 
d="M211 471q26 34 69 50.5t86 16.5q104 0 174.5 -80.5t70.5 -196.5q0 -113 -70.5 -193t-175.5 -80q-47 0 -92 18.5t-71 57.5l-10 -64h-123v750h142v-279zM211 167q47 -57 122 -57q64 0 98.5 46.5t34.5 108.5t-36 106.5t-95 44.5q-82 0 -124 -70v-179z" />
    <glyph glyph-name="c" unicode="c" horiz-adv-x="511" 
d="M489 53q-73 -65 -189 -65q-117 0 -192 76.5t-75 198.5q0 116 76.5 195.5t194.5 79.5q106 0 185 -65l-73 -99q-45 42 -102 42q-59 0 -97.5 -44.5t-38.5 -108.5q0 -66 38.5 -109.5t95.5 -43.5q60 0 101 40z" />
    <glyph glyph-name="d" unicode="d" horiz-adv-x="644" 
d="M440 65q-26 -40 -70.5 -58.5t-91.5 -18.5q-104 0 -174.5 81t-70.5 196q0 113 70.5 193t176.5 80q97 0 153 -63v275h142v-750h-123zM433 359q-49 57 -122 57q-64 0 -98.5 -46.5t-34.5 -108.5q0 -61 36.5 -106t94.5 -45q83 0 124 69v180z" />
    <glyph glyph-name="e" unicode="e" horiz-adv-x="588" 
d="M177 228q8 -56 42.5 -91t89.5 -35q48 0 79 19t58 59l93 -63q-46 -67 -101.5 -98t-138.5 -31q-119 0 -192.5 75t-73.5 194t77 200t190 81q110 0 182 -69t72 -174q0 -30 -7 -67h-370zM409 325q-2 47 -31.5 74.5t-73.5 27.5q-94 0 -120 -102h225z" />
    <glyph glyph-name="f" unicode="f" horiz-adv-x="358" 
d="M357 623q-33 17 -73 17q-31 0 -44 -16q-14 -19 -14 -64v-34h131v-118h-131v-408h-142v408h-57v118h57v42q0 94 38 140q43 54 148 54q66 0 131 -30z" />
    <glyph glyph-name="g" unicode="g" horiz-adv-x="640" 
d="M575 28q0 -85 -33 -140q-34 -57 -95.5 -86t-136.5 -29q-134 0 -243 72l52 117q43 -32 94 -49.5t92 -17.5q58 0 93 31.5t35 92.5v48q-52 -67 -155 -67q-104 0 -174.5 78.5t-70.5 192.5q0 112 70.5 189.5t176.5 77.5q45 0 89.5 -18t70.5 -56l12 62h123v-498zM433 359
q-49 57 -122 57q-64 0 -98.5 -44.5t-34.5 -104.5t36 -102.5t95 -42.5q83 0 124 69v168z" />
    <glyph glyph-name="h" unicode="h" horiz-adv-x="618" 
d="M211 464q61 74 155 74q86 0 140 -69q47 -61 47 -196v-273h-142v266q0 81 -16 113q-19 37 -70 37q-32 0 -63.5 -18t-50.5 -49v-349h-142v750h142v-286z" />
    <glyph glyph-name="i" unicode="i" horiz-adv-x="280" 
d="M69 526h142v-526h-142v526zM69 720h142v-121h-142v121z" />
    <glyph glyph-name="j" unicode="j" horiz-adv-x="286" 
d="M75 720h142v-121h-142v121zM217 -37q0 -85 -34 -130q-43 -60 -146 -60q-59 0 -114 22l38 113q29 -13 61 -13q33 0 43 20t10 60v551h142v-563z" />
    <glyph glyph-name="k" unicode="k" horiz-adv-x="555" 
d="M262 195l-51 -59v-136h-142v750h142v-438h2l170 214h162l-188 -220l200 -306h-174z" />
    <glyph glyph-name="l" unicode="l" horiz-adv-x="280" 
d="M69 0v750h142v-750h-142z" />
    <glyph glyph-name="m" unicode="m" horiz-adv-x="928" 
d="M721 266q0 81 -16 113q-19 37 -70 37q-62 0 -103 -60q5 -43 5 -83v-273h-142v266q0 84 -16 114q-19 36 -67 36q-56 0 -101 -52v-364h-142v526h123l10 -64q60 76 152 76q45 0 87 -24.5t62 -63.5q62 88 175 88q85 0 138 -68q47 -61 47 -197v-273h-142v266z" />
    <glyph glyph-name="n" unicode="n" horiz-adv-x="618" 
d="M203 454q60 84 163 84q86 0 140 -69q47 -61 47 -196v-273h-142v266q0 81 -16 113q-19 37 -70 37q-32 0 -63.5 -18t-50.5 -49v-349h-142v526h123z" />
    <glyph glyph-name="o" unicode="o" horiz-adv-x="617" 
d="M309 538q119 0 197 -79t78 -196t-78 -196t-197 -79q-120 0 -198 79t-78 196t78 196t198 79zM439 263q0 66 -36 109.5t-94 43.5t-94.5 -44t-36.5 -109t36.5 -109t94.5 -44t94 43.5t36 109.5z" />
    <glyph glyph-name="p" unicode="p" horiz-adv-x="644" 
d="M203 461q26 39 71.5 58t91.5 19q104 0 174.5 -80.5t70.5 -196.5q0 -113 -70.5 -193t-175.5 -80q-99 0 -154 63v-301h-142v776h123zM211 167q47 -57 122 -57q64 0 98.5 46.5t34.5 108.5t-36 106.5t-95 44.5q-82 0 -124 -70v-179z" />
    <glyph glyph-name="q" unicode="q" horiz-adv-x="644" 
d="M433 55q-52 -67 -155 -67q-104 0 -174.5 81t-70.5 196q0 113 70.5 193t176.5 80q45 0 89.5 -18t70.5 -56l12 62h123v-776h-142v305zM433 359q-49 57 -122 57q-64 0 -98.5 -46.5t-34.5 -108.5q0 -61 36.5 -106t94.5 -45q83 0 124 69v180z" />
    <glyph glyph-name="r" unicode="r" horiz-adv-x="374" 
d="M203 456q50 82 123 82q35 0 68 -12l-34 -124q-23 12 -50 12q-64 0 -99 -58v-356h-142v526h123z" />
    <glyph glyph-name="s" unicode="s" horiz-adv-x="481" 
d="M355 383q-50 44 -104 44q-21 0 -36 -11t-15 -29q0 -22 20.5 -36.5t62.5 -31.5q29 -12 43 -18.5t39.5 -21.5t38 -30t23 -39t10.5 -53q0 -82 -59.5 -125.5t-142.5 -43.5q-122 0 -212 90l81 84q33 -32 60.5 -47t63.5 -15q25 0 46 12t21 34q0 6 -1.5 11.5t-5.5 10.5l-7.5 9
t-10.5 8.5l-12 7.5t-14.5 7.5l-15 7t-16.5 7t-17 7.5q-61 26 -96.5 59.5t-35.5 95.5q0 76 55.5 118.5t132.5 42.5q109 0 182 -69z" />
    <glyph glyph-name="t" unicode="t" horiz-adv-x="378" 
d="M217 204q0 -30 2 -45q6 -50 46 -50q27 0 57 15l44 -105q-53 -31 -125 -31q-60 0 -100.5 30.5t-55.5 82.5q-10 32 -10 88v219h-63v118h63l22 116h120v-116h134v-118h-134v-204z" />
    <glyph glyph-name="u" unicode="u" horiz-adv-x="618" 
d="M415 72q-60 -84 -163 -84q-86 0 -140 69q-47 61 -47 196v273h142v-266q0 -81 16 -113q19 -37 70 -37q32 0 63.5 18t50.5 49v349h142v-526h-123z" />
    <glyph glyph-name="v" unicode="v" horiz-adv-x="539" 
d="M319 0h-116l-198 526h157l106 -324h2l107 324h158z" />
    <glyph glyph-name="w" unicode="w" horiz-adv-x="777" 
d="M541 201l83 325h148l-151 -526h-150l-83 301h-2l-84 -301h-153l-144 526h151l78 -326h2l91 326h125l86 -325h3z" />
    <glyph glyph-name="x" unicode="x" horiz-adv-x="597" 
d="M586 0h-182l-108 158l-112 -158h-179l208 268l-190 258h181l104 -152l106 152h178l-203 -262z" />
    <glyph glyph-name="y" unicode="y" horiz-adv-x="531" 
d="M264 213h2l108 313h154l-296 -767l-127 49l84 223l-186 495h155z" />
    <glyph glyph-name="z" unicode="z" horiz-adv-x="483" 
d="M39 408v118h398v-65l-202 -343h219v-118h-404v66l200 342h-211z" />
    <glyph glyph-name="braceleft" unicode="{" horiz-adv-x="344" 
d="M9 357q74 18 74 123v71q0 91 54.5 149t143.5 58q18 0 54 -3v-109h-39q-82 0 -82 -119v-73q0 -106 -63 -150q30 -22 46.5 -63t16.5 -88v-92q0 -120 84 -120h37v-109q-36 -4 -54 -4q-89 0 -143.5 58.5t-54.5 149.5v103q0 43 -19 73.5t-57 37.5z" />
    <glyph glyph-name="bar" unicode="|" horiz-adv-x="324" 
d="M98 858h128v-1028h-128v1028z" />
    <glyph glyph-name="braceright" unicode="}" horiz-adv-x="344" 
d="M335 250q-74 -18 -74 -123v-92q0 -91 -54.5 -149t-143.5 -58q-18 0 -54 3v109h39q82 0 82 119v94q0 106 63 150q-30 22 -46.5 63t-16.5 88v71q0 120 -84 120h-37v109q36 4 54 4q89 0 143.5 -58.5t54.5 -149.5v-82q0 -43 19 -73.5t57 -37.5z" />
    <glyph glyph-name="asciitilde" unicode="~" 
d="M20 261q-2 10 -2 19q0 67 40.5 109t107.5 42q48 0 89 -22.5t72.5 -44.5t56.5 -22q17 0 28 11.5t11 30.5q0 8 -1 12l108 5q2 -10 2 -19q0 -67 -40.5 -109t-107.5 -42q-48 0 -89 22.5t-72.5 44.5t-56.5 22q-17 0 -27.5 -11.5t-10.5 -30.5q0 -8 1 -12z" />
    <glyph glyph-name="uni00A0" unicode="&#xa0;" horiz-adv-x="250" 
 />
    <glyph glyph-name="exclamdown" unicode="&#xa1;" horiz-adv-x="327" 
d="M96 287h135l11 -336v-125h-157v125zM240 377h-153v149h153v-149z" />
    <glyph glyph-name="cent" unicode="&#xa2;" 
d="M511 92q-58 -51 -143 -62v-90h-84v89q-102 14 -165 88t-63 185q0 105 63 181t165 91v91h84v-91q80 -10 143 -61l-72 -100q-48 43 -102 43q-59 0 -98 -45t-39 -109q0 -65 39 -109t95 -44q60 0 101 40z" />
    <glyph glyph-name="sterling" unicode="&#xa3;" 
d="M72 121h54v177h-54v120h54v29q0 100 61 164.5t156 64.5q90 0 171 -48l-55 -108q-45 36 -100 36q-44 0 -69 -31.5t-25 -88.5v-18h128v-120h-128v-177h243v-121h-436v121z" />
    <glyph glyph-name="currency" unicode="&#xa4;" 
d="M56 326q0 56 29 109l-58 58l81 81l59 -58q50 29 108 29q56 0 108 -29l59 58l81 -81l-59 -58q30 -52 30 -109t-29 -109l58 -57l-81 -81l-58 58q-48 -30 -109 -30t-110 29l-57 -57l-81 81l58 57q-29 49 -29 109zM162 326q0 -47 33 -80.5t80 -33.5t80 33.5t33 80.5
q0 46 -33 79.5t-80 33.5t-80 -33t-33 -80z" />
    <glyph glyph-name="yen" unicode="&#xa5;" 
d="M168 351l-176 314h160l126 -229h2l118 229h159l-179 -314h126v-94h-162v-56h162v-93h-162v-108h-139v108h-162v93h162v56h-162v94h127z" />
    <glyph glyph-name="brokenbar" unicode="&#xa6;" horiz-adv-x="324" 
d="M98 204h128v-397h-128v397zM98 750h128v-397h-128v397z" />
    <glyph glyph-name="section" unicode="&#xa7;" 
d="M390 554q-51 45 -118 45q-26 0 -46 -12.5t-20 -35.5q0 -7 2 -13.5t7.5 -12t10.5 -10t14.5 -9.5l16.5 -8.5t20 -8t21 -7l23.5 -7.5t23.5 -8q38 -13 63.5 -25t53.5 -32t42.5 -49t14.5 -67q0 -80 -84 -139q54 -42 54 -111q0 -87 -63.5 -135.5t-156.5 -48.5q-139 0 -243 93
l84 91q69 -68 153 -68q34 0 60 14.5t26 42.5q0 15 -8 27t-27 21t-33.5 14.5t-46 14.5t-45.5 14q-69 23 -109 58t-40 100q0 98 85 145q-54 46 -54 114q0 78 59 124t141 46q121 0 202 -71zM321 211q57 24 57 73q0 7 -2 13t-7 11.5t-10 9.5t-14.5 9l-16.5 8.5t-20.5 8.5l-22 8
l-25 8.5l-25.5 8.5q-54 -21 -54 -72q0 -26 24.5 -41.5t77.5 -32.5z" />
    <glyph glyph-name="dieresis" unicode="&#xa8;" horiz-adv-x="360" 
d="M-12 720h143v-121h-143v121zM229 720h143v-121h-143v121z" />
    <glyph glyph-name="copyright" unicode="&#xa9;" horiz-adv-x="799" 
d="M51 333q0 142 104.5 243.5t249.5 101.5t249.5 -101.5t104.5 -243.5t-104.5 -243.5t-249.5 -101.5t-249.5 101.5t-104.5 243.5zM159 333q0 -102 72 -175t174 -73t174 73t72 175t-72 175t-174 73t-174 -73t-72 -175zM477 405q-28 22 -63 22q-39 0 -63.5 -27.5t-24.5 -68.5
q0 -45 22.5 -71t65.5 -26q33 0 65 26l52 -65q-51 -46 -117 -46q-82 0 -135 50t-53 132q0 77 54.5 129.5t133.5 52.5q57 0 113 -39z" />
    <glyph glyph-name="ordfeminine" unicode="&#xaa;" horiz-adv-x="389" 
d="M46 697q76 37 147 37q69 0 109.5 -36.5t40.5 -109.5v-202h-90l-6 27q-32 -35 -94 -35q-49 0 -85.5 28t-36.5 78q0 59 43.5 85.5t107.5 26.5q23 0 58 -5v4q-3 59 -68 59q-51 0 -100 -32zM240 532q-19 4 -36 4q-28 0 -47.5 -11.5t-19.5 -35.5q0 -39 47 -39q32 0 56 21v61z
" />
    <glyph glyph-name="guillemotleft" unicode="&#xab;" horiz-adv-x="589" 
d="M540 388l-127 -121l127 -120l-78 -106l-161 169v115l161 168zM287 388l-126 -121l126 -120l-77 -106l-161 169v115l161 168z" />
    <glyph glyph-name="logicalnot" unicode="&#xac;" 
d="M531 119h-120v197h-393v120h513v-317z" />
    <glyph glyph-name="uni00AD" unicode="&#xad;" horiz-adv-x="447" 
d="M82 349h283v-118h-283v118z" />
    <glyph glyph-name="registered" unicode="&#xae;" horiz-adv-x="575" 
d="M43 475q0 100 72 171t173 71t173 -71t72 -171t-72 -170.5t-173 -70.5t-173 70.5t-72 170.5zM123 475q0 -70 48 -119t117 -49t117 49t48 119q0 71 -48 120t-117 49t-117 -49t-48 -120zM271 437h-4v-76h-65v234h74q41 0 69 -18.5t28 -55.5q0 -47 -43 -66l70 -94h-80z
M267 495q40 0 40 23q0 14 -8.5 19t-31.5 5v-47z" />
    <glyph glyph-name="macron" unicode="&#xaf;" horiz-adv-x="360" 
d="M9 707h342v-98h-342v98z" />
    <glyph glyph-name="degree" unicode="&#xb0;" horiz-adv-x="462" 
d="M228 599q28 0 46.5 -19.5t18.5 -47.5t-18.5 -47.5t-46.5 -19.5t-46.5 19.5t-18.5 47.5t18.5 47.5t46.5 19.5zM228 370q68 0 115 47t47 115t-47 115t-115 47t-115 -47t-47 -115t47 -115t115 -47z" />
    <glyph glyph-name="plusminus" unicode="&#xb1;" 
d="M214 684h120v-196h197v-120h-197v-197h-120v197h-196v120h196v196zM531 0h-513v120h513v-120z" />
    <glyph glyph-name="uni00B2" unicode="&#xb2;" horiz-adv-x="331" 
d="M26 441q84 73 140 141q32 44 32 74q0 19 -10 29.5t-27 10.5q-18 0 -28 -15.5t-10 -39.5l-104 13q2 55 41.5 88t96.5 33q60 0 103 -31t43 -83q0 -57 -40 -107q-50 -60 -111 -110h163v-77h-289v74z" />
    <glyph glyph-name="uni00B3" unicode="&#xb3;" horiz-adv-x="347" 
d="M114 608q5 -1 15 -1q15 0 31 4q39 10 39 42q0 19 -12.5 31t-33.5 12q-39 0 -52 -39l-80 36q15 39 51 60.5t82 21.5q62 0 105.5 -29t43.5 -77q0 -59 -57 -88q39 -12 57.5 -40t18.5 -61q0 -54 -45 -87t-111 -33q-51 0 -93 22.5t-59 64.5l80 37q22 -45 65 -45
q25 0 40.5 13.5t15.5 33.5q0 25 -19.5 38.5t-49.5 13.5q-10 0 -32 -2v72z" />
    <glyph glyph-name="acute" unicode="&#xb4;" horiz-adv-x="360" 
d="M106 640l133 186l96 -76l-147 -172z" />
    <glyph glyph-name="uni00B5" unicode="&#xb5;" 
d="M175 257q0 -33 2 -52.5t9.5 -44.5t26 -37.5t48.5 -12.5q32 0 63 17.5t51 48.5v350h142v-526h-123l-11 72q-61 -84 -163 -84q-22 0 -45 7v-245h-142v776h142v-269z" />
    <glyph glyph-name="paragraph" unicode="&#xb6;" 
d="M391 700h121v-875h-121v875zM224 270q-85 15 -140.5 67.5t-55.5 145.5q0 57 23.5 100.5t62.5 68t83 36.5t91 12h56v-875h-120v445zM224 578q-32 -2 -54.5 -27.5t-22.5 -67.5t22.5 -67.5t54.5 -27.5v190z" />
    <glyph glyph-name="periodcentered" unicode="&#xb7;" horiz-adv-x="250" 
d="M48 394h153v-149h-153v149z" />
    <glyph glyph-name="cedilla" unicode="&#xb8;" horiz-adv-x="400" 
d="M157 -61q20 15 47 15q37 0 65 -29t28 -72t-33 -76.5t-81 -33.5q-76 0 -116 70l69 33q12 -32 40 -32q16 0 26.5 10.5t10.5 26.5t-11 28t-26 12q-24 0 -37 -20l-73 37l49 113l68 -13l-27 -69h1z" />
    <glyph glyph-name="uni00B9" unicode="&#xb9;" horiz-adv-x="229" 
d="M81 658q-20 -10 -56 -23v85q31 15 91 48h68v-401h-103v291z" />
    <glyph glyph-name="ordmasculine" unicode="&#xba;" horiz-adv-x="413" 
d="M206 734q80 0 131.5 -51t51.5 -127t-51.5 -127t-131.5 -51t-131.5 51t-51.5 127t51.5 127t131.5 51zM206 653q-35 0 -56 -27t-21 -70t21 -70t56 -27t56 27t21 70t-21 70t-56 27z" />
    <glyph glyph-name="guillemotright" unicode="&#xbb;" horiz-adv-x="589" 
d="M287 209l-161 -165l-77 103l126 120l-126 120l77 103l161 -165v-116zM540 209l-161 -165l-78 103l127 120l-127 120l78 103l161 -165v-116z" />
    <glyph glyph-name="onequarter" unicode="&#xbc;" horiz-adv-x="802" 
d="M165 -18l-71 53l498 683l71 -53zM143 596q-29 -16 -57 -26v89q54 27 80 41h75v-362h-98v258zM424 160l151 201h100v-204h47v-78h-47v-79h-95v79h-156v81zM580 248q-29 -45 -64 -91h64v91z" />
    <glyph glyph-name="onehalf" unicode="&#xbd;" horiz-adv-x="828" 
d="M663 665l-498 -683l-71 53l498 683zM86 659q54 27 80 41h75v-362h-98v258q-29 -16 -57 -26v89zM484 68q79 66 127 126q29 34 29 66t-34 32q-16 0 -25.5 -12t-9.5 -32l-93 15q3 50 39.5 78t90.5 28q53 0 91.5 -28.5t38.5 -75.5q0 -48 -38 -98q-33 -40 -87 -87h135v-80
h-264v68z" />
    <glyph glyph-name="threequarters" unicode="&#xbe;" horiz-adv-x="880" 
d="M243 -18l-71 53l499 683l71 -53zM179 558q21 0 31 3q31 8 31 36q0 15 -10 24.5t-29 9.5q-33 0 -39 -33l-77 36q13 35 46 54.5t73 19.5q54 0 93 -26.5t39 -70.5q0 -23 -13.5 -45t-34.5 -33q29 -10 47 -35.5t18 -55.5q0 -52 -41 -81.5t-97 -29.5q-45 0 -82 20.5t-54 58.5
l77 35q14 -37 55 -37q18 0 31.5 10t13.5 29q0 43 -61 43q-12 0 -24 -3l-1 71h8zM502 160l151 201h100v-204h47v-78h-47v-79h-95v79h-156v81zM658 248q-29 -45 -64 -91h64v91z" />
    <glyph glyph-name="questiondown" unicode="&#xbf;" horiz-adv-x="545" 
d="M350 135q-39 -13 -59 -21.5t-45.5 -23.5t-36.5 -35t-11 -47q0 -32 19.5 -54t53.5 -22q35 0 54.5 22.5t19.5 62.5v21h139v-17q0 -92 -60.5 -149.5t-152.5 -57.5q-93 0 -152 59t-59 132q0 43 10.5 75.5t33.5 56t44.5 38.5t56.5 33v79h145v-152zM354 377h-153v149h153v-149z
" />
    <glyph glyph-name="Agrave" unicode="&#xc0;" horiz-adv-x="689" 
d="M467 130h-249l-47 -130h-159l286 700h116l263 -700h-165zM427 247l-81 235h-1l-85 -235h167zM248 958l172 -144l-64 -81l-182 128z" />
    <glyph glyph-name="Aacute" unicode="&#xc1;" horiz-adv-x="689" 
d="M467 130h-249l-47 -130h-159l286 700h116l263 -700h-165zM427 247l-81 235h-1l-85 -235h167zM256 814l172 144l74 -97l-182 -128z" />
    <glyph glyph-name="Acircumflex" unicode="&#xc2;" horiz-adv-x="689" 
d="M467 130h-249l-47 -130h-159l286 700h116l263 -700h-165zM427 247l-81 235h-1l-85 -235h167zM548 794l-82 -60l-111 126l-112 -126l-81 60l117 149h156z" />
    <glyph glyph-name="Atilde" unicode="&#xc3;" horiz-adv-x="689" 
d="M467 130h-249l-47 -130h-159l286 700h116l263 -700h-165zM427 247l-81 235h-1l-85 -235h167zM548 887q6 -19 6 -39q0 -46 -31.5 -74.5t-83.5 -28.5q-37 0 -85.5 25.5t-60.5 25.5q-23 0 -25 -23q0 -5 1 -7l-81 -9q-7 23 -7 39q0 46 32 74.5t84 28.5q36 0 85 -25.5
t60 -25.5q10 0 17.5 6t7.5 17q0 5 -1 7z" />
    <glyph glyph-name="Adieresis" unicode="&#xc4;" horiz-adv-x="689" 
d="M467 130h-249l-47 -130h-159l286 700h116l263 -700h-165zM427 247l-81 235h-1l-85 -235h167zM143 882h149v-120h-149v120zM420 882h149v-120h-149v120z" />
    <glyph glyph-name="Aring" unicode="&#xc5;" horiz-adv-x="689" 
d="M467 130h-249l-47 -130h-159l286 700h116l263 -700h-165zM427 247l-81 235h-1l-85 -235h167zM357 943q47 0 80 -33t33 -80t-33 -80t-80 -33t-80 33t-33 80t33 80t80 33zM357 876q-19 0 -32.5 -13t-13.5 -33t13.5 -33t32.5 -13t32.5 13t13.5 33t-13.5 33t-32.5 13z" />
    <glyph glyph-name="AE" unicode="&#xc6;" horiz-adv-x="1009" 
d="M507 131h-247l-88 -131h-181l516 700h449v-121h-305v-158h305v-121h-305v-179h305v-121h-449v131zM507 496l-168 -248h168v248z" />
    <glyph glyph-name="Ccedilla" unicode="&#xc7;" horiz-adv-x="675" 
d="M568 533q-71 54 -146 54q-95 0 -157.5 -68.5t-62.5 -168.5q0 -106 59 -171.5t161 -65.5q82 0 149 58l80 -104q-103 -79 -235 -79q-25 0 -49 3l-20 -52h1q20 15 47 15q38 0 65.5 -29t27.5 -72t-33.5 -76.5t-81.5 -33.5q-76 0 -115 70l69 33q12 -32 40 -32q16 0 26.5 10.5
t10.5 26.5t-10.5 28t-25.5 12q-25 0 -38 -20l-73 38l43 95q-114 33 -182.5 126t-68.5 220q0 153 109 257.5t264 104.5q106 0 215 -68z" />
    <glyph glyph-name="Egrave" unicode="&#xc8;" horiz-adv-x="580" 
d="M78 700h449v-121h-306v-158h306v-121h-306v-179h306v-121h-449v700zM241 958l172 -144l-64 -81l-182 128z" />
    <glyph glyph-name="Eacute" unicode="&#xc9;" horiz-adv-x="580" 
d="M78 700h449v-121h-306v-158h306v-121h-306v-179h306v-121h-449v700zM222 814l172 144l74 -97l-182 -128z" />
    <glyph glyph-name="Ecircumflex" unicode="&#xca;" horiz-adv-x="580" 
d="M78 700h449v-121h-306v-158h306v-121h-306v-179h306v-121h-449v700zM501 794l-82 -60l-111 126l-112 -126l-81 60l117 149h156z" />
    <glyph glyph-name="Edieresis" unicode="&#xcb;" horiz-adv-x="580" 
d="M117 882h148v-120h-148v120zM353 882h149v-120h-149v120zM78 700h449v-121h-306v-158h306v-121h-306v-179h306v-121h-449v700z" />
    <glyph glyph-name="Igrave" unicode="&#xcc;" horiz-adv-x="299" 
d="M78 700h143v-700h-143v700zM43 958l172 -144l-64 -81l-182 128z" />
    <glyph glyph-name="Iacute" unicode="&#xcd;" horiz-adv-x="299" 
d="M78 700h143v-700h-143v700zM85 814l172 144l74 -97l-182 -128z" />
    <glyph glyph-name="Icircumflex" unicode="&#xce;" horiz-adv-x="299" 
d="M78 700h143v-700h-143v700zM342 794l-82 -60l-111 126l-112 -126l-81 60l117 149h156z" />
    <glyph glyph-name="Idieresis" unicode="&#xcf;" horiz-adv-x="299" 
d="M-41 882h149v-120h-149v120zM191 882h149v-120h-149v120zM78 700h143v-700h-143v700z" />
    <glyph glyph-name="Eth" unicode="&#xd0;" horiz-adv-x="715" 
d="M282 700q71 0 136.5 -19.5t122.5 -58.5t91 -108.5t34 -160.5q0 -93 -34 -163.5t-91.5 -110.5t-124.5 -59.5t-143 -19.5h-195v313h-67v98h67v289h204zM334 411v-98h-113v-192h16q276 0 276 223q0 115 -64.5 175t-183.5 60h-44v-168h113z" />
    <glyph glyph-name="Ntilde" unicode="&#xd1;" horiz-adv-x="748" 
d="M221 438v-438h-143v700h126l324 -439v439h143v-700h-129zM567 887q6 -19 6 -39q0 -46 -31.5 -74.5t-83.5 -28.5q-37 0 -85.5 25.5t-60.5 25.5q-23 0 -25 -23q0 -5 1 -7l-81 -9q-7 23 -7 39q0 46 32 74.5t84 28.5q36 0 85 -25.5t60 -25.5q10 0 17.5 6t7.5 17q0 5 -1 7z
" />
    <glyph glyph-name="Ograve" unicode="&#xd2;" horiz-adv-x="831" 
d="M629 350q0 100 -60.5 168.5t-152.5 68.5t-153 -68t-61 -169t61 -169t153 -68t152.5 68.5t60.5 168.5zM782 350q0 -151 -106 -256.5t-260 -105.5q-155 0 -261 105.5t-106 256.5t106 256.5t261 105.5q154 0 260 -105.5t106 -256.5zM312 958l172 -144l-64 -81l-182 128z" />
    <glyph glyph-name="Oacute" unicode="&#xd3;" horiz-adv-x="831" 
d="M629 350q0 100 -60.5 168.5t-152.5 68.5t-153 -68t-61 -169t61 -169t153 -68t152.5 68.5t60.5 168.5zM782 350q0 -151 -106 -256.5t-260 -105.5q-155 0 -261 105.5t-106 256.5t106 256.5t261 105.5q154 0 260 -105.5t106 -256.5zM351 814l172 144l74 -97l-182 -128z" />
    <glyph glyph-name="Ocircumflex" unicode="&#xd4;" horiz-adv-x="831" 
d="M629 350q0 100 -60.5 168.5t-152.5 68.5t-153 -68t-61 -169t61 -169t153 -68t152.5 68.5t60.5 168.5zM782 350q0 -151 -106 -256.5t-260 -105.5q-155 0 -261 105.5t-106 256.5t106 256.5t261 105.5q154 0 260 -105.5t106 -256.5zM610 794l-82 -60l-111 126l-112 -126
l-81 60l117 149h156z" />
    <glyph glyph-name="Otilde" unicode="&#xd5;" horiz-adv-x="831" 
d="M629 350q0 100 -60.5 168.5t-152.5 68.5t-153 -68t-61 -169t61 -169t153 -68t152.5 68.5t60.5 168.5zM782 350q0 -151 -106 -256.5t-260 -105.5q-155 0 -261 105.5t-106 256.5t106 256.5t261 105.5q154 0 260 -105.5t106 -256.5zM615 887q6 -19 6 -39q0 -46 -31.5 -74.5
t-83.5 -28.5q-37 0 -85.5 25.5t-60.5 25.5q-23 0 -25 -23q0 -5 1 -7l-81 -9q-7 23 -7 39q0 46 32 74.5t84 28.5q36 0 85 -25.5t60 -25.5q10 0 17.5 6t7.5 17q0 5 -1 7z" />
    <glyph glyph-name="Odieresis" unicode="&#xd6;" horiz-adv-x="831" 
d="M629 350q0 100 -60.5 168.5t-152.5 68.5t-153 -68t-61 -169t61 -169t153 -68t152.5 68.5t60.5 168.5zM782 350q0 -151 -106 -256.5t-260 -105.5q-155 0 -261 105.5t-106 256.5t106 256.5t261 105.5q154 0 260 -105.5t106 -256.5zM203 882h149v-120h-149v120zM480 882h149
v-120h-149v120z" />
    <glyph glyph-name="multiply" unicode="&#xd7;" 
d="M274 226l-134 -134l-85 85l135 134l-135 135l86 85l133 -134l135 134l85 -85l-134 -134l135 -135l-85 -85z" />
    <glyph glyph-name="Oslash" unicode="&#xd8;" horiz-adv-x="831" 
d="M782 350q0 -151 -106 -256.5t-260 -105.5q-84 0 -157 34l-34 -50l-93 61l34 50q-117 107 -117 267q0 151 106 256.5t261 105.5q78 0 152 -32l31 46l93 -61l-30 -45q120 -109 120 -270zM629 350q0 87 -47 151l-250 -370q39 -18 84 -18q92 0 152.5 68.5t60.5 168.5z
M202 350q0 -85 44 -148l249 369q-38 16 -79 16q-92 0 -153 -68t-61 -169z" />
    <glyph glyph-name="Ugrave" unicode="&#xd9;" horiz-adv-x="716" 
d="M640 330q0 -169 -68.5 -255.5t-215.5 -86.5q-280 0 -280 342v370h143v-389q0 -98 37 -148t102 -50t102 50t37 148v389h143v-370zM251 958l172 -144l-64 -81l-182 128z" />
    <glyph glyph-name="Uacute" unicode="&#xda;" horiz-adv-x="716" 
d="M640 330q0 -169 -68.5 -255.5t-215.5 -86.5q-280 0 -280 342v370h143v-389q0 -98 37 -148t102 -50t102 50t37 148v389h143v-370zM277 814l172 144l74 -97l-182 -128z" />
    <glyph glyph-name="Ucircumflex" unicode="&#xdb;" horiz-adv-x="716" 
d="M640 330q0 -169 -68.5 -255.5t-215.5 -86.5q-280 0 -280 342v370h143v-389q0 -98 37 -148t102 -50t102 50t37 148v389h143v-370zM554 794l-82 -60l-111 126l-112 -126l-81 60l117 149h156z" />
    <glyph glyph-name="Udieresis" unicode="&#xdc;" horiz-adv-x="716" 
d="M640 330q0 -169 -68.5 -255.5t-215.5 -86.5q-280 0 -280 342v370h143v-389q0 -98 37 -148t102 -50t102 50t37 148v389h143v-370zM146 882h149v-120h-149v120zM423 882h149v-120h-149v120z" />
    <glyph glyph-name="Yacute" unicode="&#xdd;" horiz-adv-x="608" 
d="M227 293l-223 407h178l121 -252h2l132 252h167l-234 -411v-289h-143v293zM229 814l172 144l74 -97l-182 -128z" />
    <glyph glyph-name="Thorn" unicode="&#xde;" horiz-adv-x="594" 
d="M221 572h80q47 0 91.5 -12t83.5 -36.5t63 -68t24 -100.5q0 -58 -23.5 -102t-63 -68.5t-83.5 -36.5t-92 -12h-80v-143h-143v707h143v-128zM411 352q0 46 -31 72.5t-83 26.5h-76v-194h57q133 0 133 95z" />
    <glyph glyph-name="germandbls" unicode="&#xdf;" horiz-adv-x="641" 
d="M66 534q0 106 70 167t173 61q98 0 167 -54.5t69 -148.5q0 -90 -68 -140q60 -22 94 -75t34 -122q0 -102 -72 -168t-174 -66q-51 0 -97 20l36 112q26 -13 56 -13q53 0 82 32t29 84q0 60 -37.5 93.5t-97.5 33.5q-26 0 -50 -4v111q10 -1 28 -1q38 0 68 26.5t30 69.5
q0 40 -26.5 65.5t-67.5 25.5q-108 0 -108 -127v-516h-138v534z" />
    <glyph glyph-name="agrave" unicode="&#xe0;" horiz-adv-x="575" 
d="M377 45q-46 -57 -143 -57q-78 0 -133.5 45t-55.5 122q0 61 36 101t84.5 54.5t108.5 14.5q43 0 95 -11v8q0 106 -104 106q-71 0 -159 -46l-38 102q110 54 226 54q107 0 162 -58.5t55 -163.5v-316h-123zM369 229q-41 9 -72 9q-46 0 -79.5 -19.5t-33.5 -61.5
q0 -33 23.5 -51.5t56.5 -18.5q55 0 105 45v97zM221 826l133 -186l-82 -62l-147 172z" />
    <glyph glyph-name="aacute" unicode="&#xe1;" horiz-adv-x="575" 
d="M377 45q-46 -57 -143 -57q-78 0 -133.5 45t-55.5 122q0 61 36 101t84.5 54.5t108.5 14.5q43 0 95 -11v8q0 106 -104 106q-71 0 -159 -46l-38 102q110 54 226 54q107 0 162 -58.5t55 -163.5v-316h-123zM369 229q-41 9 -72 9q-46 0 -79.5 -19.5t-33.5 -61.5
q0 -33 23.5 -51.5t56.5 -18.5q55 0 105 45v97zM231 640l133 186l96 -76l-147 -172z" />
    <glyph glyph-name="acircumflex" unicode="&#xe2;" horiz-adv-x="575" 
d="M377 45q-46 -57 -143 -57q-78 0 -133.5 45t-55.5 122q0 61 36 101t84.5 54.5t108.5 14.5q43 0 95 -11v8q0 106 -104 106q-71 0 -159 -46l-38 102q110 54 226 54q107 0 162 -58.5t55 -163.5v-316h-123zM369 229q-41 9 -72 9q-46 0 -79.5 -19.5t-33.5 -61.5
q0 -33 23.5 -51.5t56.5 -18.5q55 0 105 45v97zM466 631l-80 -48l-105 129l-104 -129l-80 48l114 168h143z" />
    <glyph glyph-name="atilde" unicode="&#xe3;" horiz-adv-x="575" 
d="M377 45q-46 -57 -143 -57q-78 0 -133.5 45t-55.5 122q0 61 36 101t84.5 54.5t108.5 14.5q43 0 95 -11v8q0 106 -104 106q-71 0 -159 -46l-38 102q110 54 226 54q107 0 162 -58.5t55 -163.5v-316h-123zM369 229q-41 9 -72 9q-46 0 -79.5 -19.5t-33.5 -61.5
q0 -33 23.5 -51.5t56.5 -18.5q55 0 105 45v97zM106 593q-6 19 -6 38q0 46 31.5 74.5t83.5 28.5q37 0 86 -25.5t60 -25.5q23 0 25 23q0 6 -1 7l81 9q6 -19 6 -38q0 -46 -31.5 -74.5t-83.5 -28.5q-37 0 -86 25.5t-60 25.5q-23 0 -25 -23q0 -6 1 -7z" />
    <glyph glyph-name="adieresis" unicode="&#xe4;" horiz-adv-x="575" 
d="M377 45q-46 -57 -143 -57q-78 0 -133.5 45t-55.5 122q0 61 36 101t84.5 54.5t108.5 14.5q43 0 95 -11v8q0 106 -104 106q-71 0 -159 -46l-38 102q110 54 226 54q107 0 162 -58.5t55 -163.5v-316h-123zM369 229q-41 9 -72 9q-46 0 -79.5 -19.5t-33.5 -61.5
q0 -33 23.5 -51.5t56.5 -18.5q55 0 105 45v97zM90 720h143v-121h-143v121zM331 720h143v-121h-143v121z" />
    <glyph glyph-name="aring" unicode="&#xe5;" horiz-adv-x="575" 
d="M377 45q-46 -57 -143 -57q-78 0 -133.5 45t-55.5 122q0 61 36 101t84.5 54.5t108.5 14.5q43 0 95 -11v8q0 106 -104 106q-71 0 -159 -46l-38 102q110 54 226 54q107 0 162 -58.5t55 -163.5v-316h-123zM369 229q-41 9 -72 9q-46 0 -79.5 -19.5t-33.5 -61.5
q0 -33 23.5 -51.5t56.5 -18.5q55 0 105 45v97zM182 689q0 47 33 80t80 33t80 -33t33 -80t-33 -80t-80 -33t-80 33t-33 80zM250 689q0 -19 13 -32t32 -13t32 13t13 32t-13 32t-32 13t-32 -13t-13 -32z" />
    <glyph glyph-name="ae" unicode="&#xe6;" horiz-adv-x="921" 
d="M510 228q8 -56 42.5 -91t89.5 -35q48 0 79 19t58 59l93 -63q-46 -67 -101.5 -98t-138.5 -31q-120 0 -195 77q-47 -45 -95.5 -61t-107.5 -16q-78 0 -133.5 45t-55.5 122q0 61 36 101t84.5 54.5t108.5 14.5q43 0 95 -11v8q0 106 -104 106q-71 0 -159 -46l-38 102
q110 54 226 54q114 0 167 -68q71 68 172 68q110 0 182 -69t72 -174q0 -30 -7 -67h-370zM385 149q-13 33 -18 80q-39 9 -70 9q-46 0 -79.5 -19.5t-33.5 -61.5q0 -33 23.5 -51.5t56.5 -18.5q70 0 121 62zM742 325q-2 47 -31.5 74.5t-73.5 27.5q-94 0 -120 -102h225z" />
    <glyph glyph-name="ccedilla" unicode="&#xe7;" horiz-adv-x="511" 
d="M489 53q-73 -65 -189 -65q-16 0 -23 1l-19 -50h1q20 15 46 15q37 0 65.5 -29t28.5 -72t-33.5 -76.5t-81.5 -33.5q-76 0 -115 70l68 33q13 -32 40 -32q17 0 27.5 10.5t10.5 26.5t-11 28t-26 12q-25 0 -37 -20l-74 37l41 94q-80 27 -127.5 96.5t-47.5 164.5
q0 116 76.5 195.5t194.5 79.5q106 0 185 -65l-73 -99q-45 42 -102 42q-59 0 -97.5 -44.5t-38.5 -108.5q0 -66 38.5 -109.5t95.5 -43.5q60 0 101 40z" />
    <glyph glyph-name="egrave" unicode="&#xe8;" horiz-adv-x="588" 
d="M177 228q8 -56 42.5 -91t89.5 -35q48 0 79 19t58 59l93 -63q-46 -67 -101.5 -98t-138.5 -31q-119 0 -192.5 75t-73.5 194t77 200t190 81q110 0 182 -69t72 -174q0 -30 -7 -67h-370zM409 325q-2 47 -31.5 74.5t-73.5 27.5q-94 0 -120 -102h225zM228 826l133 -186l-82 -62
l-147 172z" />
    <glyph glyph-name="eacute" unicode="&#xe9;" horiz-adv-x="588" 
d="M177 228q8 -56 42.5 -91t89.5 -35q48 0 79 19t58 59l93 -63q-46 -67 -101.5 -98t-138.5 -31q-119 0 -192.5 75t-73.5 194t77 200t190 81q110 0 182 -69t72 -174q0 -30 -7 -67h-370zM409 325q-2 47 -31.5 74.5t-73.5 27.5q-94 0 -120 -102h225zM258 640l133 186l96 -76
l-147 -172z" />
    <glyph glyph-name="ecircumflex" unicode="&#xea;" horiz-adv-x="588" 
d="M177 228q8 -56 42.5 -91t89.5 -35q48 0 79 19t58 59l93 -63q-46 -67 -101.5 -98t-138.5 -31q-119 0 -192.5 75t-73.5 194t77 200t190 81q110 0 182 -69t72 -174q0 -30 -7 -67h-370zM409 325q-2 47 -31.5 74.5t-73.5 27.5q-94 0 -120 -102h225zM487 631l-80 -48l-105 129
l-104 -129l-80 48l114 168h143z" />
    <glyph glyph-name="edieresis" unicode="&#xeb;" horiz-adv-x="588" 
d="M177 228q8 -56 42.5 -91t89.5 -35q48 0 79 19t58 59l93 -63q-46 -67 -101.5 -98t-138.5 -31q-119 0 -192.5 75t-73.5 194t77 200t190 81q110 0 182 -69t72 -174q0 -30 -7 -67h-370zM409 325q-2 47 -31.5 74.5t-73.5 27.5q-94 0 -120 -102h225zM110 720h143v-121h-143v121
zM351 720h143v-121h-143v121z" />
    <glyph glyph-name="igrave" unicode="&#xec;" horiz-adv-x="280" 
d="M69 526h142v-526h-142v526zM63 826l133 -186l-82 -62l-147 172z" />
    <glyph glyph-name="iacute" unicode="&#xed;" horiz-adv-x="280" 
d="M69 526h142v-526h-142v526zM83 640l133 186l96 -76l-147 -172z" />
    <glyph glyph-name="icircumflex" unicode="&#xee;" horiz-adv-x="280" 
d="M69 526h142v-526h-142v526zM324 631l-80 -48l-105 129l-104 -129l-80 48l114 168h143z" />
    <glyph glyph-name="idieresis" unicode="&#xef;" horiz-adv-x="280" 
d="M-38 720h143v-121h-143v121zM176 720h143v-121h-143v121zM69 526h142v-526h-142v526z" />
    <glyph glyph-name="eth" unicode="&#xf0;" horiz-adv-x="609" 
d="M99 552l45 84q-34 16 -79 33l49 114l87 -39l43 80l91 -48l-41 -78q282 -158 282 -436q0 -117 -79 -195.5t-203 -78.5q-109 0 -185 74.5t-76 175.5q0 105 70 171.5t177 66.5q58 0 105 -28q-49 82 -149 142l-47 -87zM424 327q-50 32 -111 32q-57 0 -96 -30.5t-39 -87.5
q0 -56 35 -96t87 -40q67 0 99 43.5t32 110.5q0 31 -7 68z" />
    <glyph glyph-name="ntilde" unicode="&#xf1;" horiz-adv-x="618" 
d="M203 454q60 84 163 84q86 0 140 -69q47 -61 47 -196v-273h-142v266q0 81 -16 113q-19 37 -70 37q-32 0 -63.5 -18t-50.5 -49v-349h-142v526h123zM156 593q-6 19 -6 38q0 46 31.5 74.5t83.5 28.5q37 0 86 -25.5t60 -25.5q23 0 25 23q0 6 -1 7l81 9q6 -19 6 -38
q0 -46 -31.5 -74.5t-83.5 -28.5q-37 0 -86 25.5t-60 25.5q-23 0 -25 -23q0 -6 1 -7z" />
    <glyph glyph-name="ograve" unicode="&#xf2;" horiz-adv-x="617" 
d="M309 538q119 0 197 -79t78 -196t-78 -196t-197 -79q-120 0 -198 79t-78 196t78 196t198 79zM439 263q0 66 -36 109.5t-94 43.5t-94.5 -44t-36.5 -109t36.5 -109t94.5 -44t94 43.5t36 109.5zM212 826l133 -186l-82 -62l-147 172z" />
    <glyph glyph-name="oacute" unicode="&#xf3;" horiz-adv-x="617" 
d="M309 538q119 0 197 -79t78 -196t-78 -196t-197 -79q-120 0 -198 79t-78 196t78 196t198 79zM439 263q0 66 -36 109.5t-94 43.5t-94.5 -44t-36.5 -109t36.5 -109t94.5 -44t94 43.5t36 109.5zM261 640l133 186l96 -76l-147 -172z" />
    <glyph glyph-name="ocircumflex" unicode="&#xf4;" horiz-adv-x="617" 
d="M309 538q119 0 197 -79t78 -196t-78 -196t-197 -79q-120 0 -198 79t-78 196t78 196t198 79zM439 263q0 66 -36 109.5t-94 43.5t-94.5 -44t-36.5 -109t36.5 -109t94.5 -44t94 43.5t36 109.5zM494 631l-80 -48l-105 129l-104 -129l-80 48l114 168h143z" />
    <glyph glyph-name="otilde" unicode="&#xf5;" horiz-adv-x="617" 
d="M309 538q119 0 197 -79t78 -196t-78 -196t-197 -79q-120 0 -198 79t-78 196t78 196t198 79zM439 263q0 66 -36 109.5t-94 43.5t-94.5 -44t-36.5 -109t36.5 -109t94.5 -44t94 43.5t36 109.5zM145 593q-6 19 -6 38q0 46 31.5 74.5t83.5 28.5q37 0 86 -25.5t60 -25.5
q23 0 25 23q0 6 -1 7l81 9q6 -19 6 -38q0 -46 -31.5 -74.5t-83.5 -28.5q-37 0 -86 25.5t-60 25.5q-23 0 -25 -23q0 -6 1 -7z" />
    <glyph glyph-name="odieresis" unicode="&#xf6;" horiz-adv-x="617" 
d="M309 538q119 0 197 -79t78 -196t-78 -196t-197 -79q-120 0 -198 79t-78 196t78 196t198 79zM439 263q0 66 -36 109.5t-94 43.5t-94.5 -44t-36.5 -109t36.5 -109t94.5 -44t94 43.5t36 109.5zM117 720h143v-121h-143v121zM358 720h143v-121h-143v121z" />
    <glyph glyph-name="divide" unicode="&#xf7;" 
d="M525 370v-113h-501v113h501zM197 187h153v-149h-153v149zM197 589h153v-149h-153v149z" />
    <glyph glyph-name="oslash" unicode="&#xf8;" horiz-adv-x="617" 
d="M309 538q62 0 114 -23l24 35l73 -48l-23 -34q87 -81 87 -205q0 -117 -78 -196t-197 -79q-64 0 -120 25l-28 -42l-73 48l28 43q-83 80 -83 201q0 117 78 196t198 79zM439 263q0 49 -22 87l-156 -231q23 -9 48 -9q58 0 94 43.5t36 109.5zM178 263q0 -45 19 -83l154 229
q-23 7 -42 7q-58 0 -94.5 -44t-36.5 -109z" />
    <glyph glyph-name="ugrave" unicode="&#xf9;" horiz-adv-x="618" 
d="M414 72q-60 -84 -163 -84q-86 0 -140 69q-47 61 -47 196v273h142v-266q0 -81 16 -113q18 -37 70 -37q32 0 63.5 18t50.5 49v349h142v-526h-123zM246 826l133 -186l-82 -62l-147 172z" />
    <glyph glyph-name="uacute" unicode="&#xfa;" horiz-adv-x="618" 
d="M414 72q-60 -84 -163 -84q-86 0 -140 69q-47 61 -47 196v273h142v-266q0 -81 16 -113q18 -37 70 -37q32 0 63.5 18t50.5 49v349h142v-526h-123zM251 640l133 186l96 -76l-147 -172z" />
    <glyph glyph-name="ucircumflex" unicode="&#xfb;" horiz-adv-x="618" 
d="M414 72q-60 -84 -163 -84q-86 0 -140 69q-47 61 -47 196v273h142v-266q0 -81 16 -113q18 -37 70 -37q32 0 63.5 18t50.5 49v349h142v-526h-123zM495 631l-80 -48l-105 129l-104 -129l-80 48l114 168h143z" />
    <glyph glyph-name="udieresis" unicode="&#xfc;" horiz-adv-x="618" 
d="M414 72q-60 -84 -163 -84q-86 0 -140 69q-47 61 -47 196v273h142v-266q0 -81 16 -113q18 -37 70 -37q32 0 63.5 18t50.5 49v349h142v-526h-123zM115 720h143v-121h-143v121zM356 720h143v-121h-143v121z" />
    <glyph glyph-name="yacute" unicode="&#xfd;" horiz-adv-x="531" 
d="M264 213h2l108 313h154l-296 -767l-127 49l84 223l-186 495h155zM198 640l133 186l96 -76l-147 -172z" />
    <glyph glyph-name="thorn" unicode="&#xfe;" horiz-adv-x="644" 
d="M211 471q26 34 69 50.5t86 16.5q104 0 174.5 -80.5t70.5 -196.5q0 -113 -70.5 -193t-175.5 -80q-100 0 -154 62v-300h-142v1000h142v-279zM211 167q47 -57 122 -57q64 0 98.5 46.5t34.5 108.5t-36 106.5t-95 44.5q-82 0 -124 -70v-179z" />
    <glyph glyph-name="ydieresis" unicode="&#xff;" horiz-adv-x="531" 
d="M264 213h2l108 313h154l-296 -767l-127 49l84 223l-186 495h155zM76 720h143v-121h-143v121zM317 720h143v-121h-143v121z" />
    <glyph glyph-name="Amacron" unicode="&#x100;" horiz-adv-x="689" 
d="M467 130h-249l-47 -130h-159l286 700h116l263 -700h-165zM427 247l-81 235h-1l-85 -235h167zM172 867h364v-95h-364v95z" />
    <glyph glyph-name="amacron" unicode="&#x101;" horiz-adv-x="575" 
d="M377 45q-46 -57 -143 -57q-78 0 -133.5 45t-55.5 122q0 61 36 101t84.5 54.5t108.5 14.5q43 0 95 -11v8q0 106 -104 106q-71 0 -159 -46l-38 102q110 54 226 54q107 0 162 -58.5t55 -163.5v-316h-123zM369 229q-41 9 -72 9q-46 0 -79.5 -19.5t-33.5 -61.5
q0 -33 23.5 -51.5t56.5 -18.5q55 0 105 45v97zM110 707h342v-98h-342v98z" />
    <glyph glyph-name="Abreve" unicode="&#x102;" horiz-adv-x="689" 
d="M467 130h-249l-47 -130h-159l286 700h116l263 -700h-165zM427 247l-81 235h-1l-85 -235h167zM294 909q-1 -5 -1 -13q0 -27 17 -44.5t45 -17.5t46.5 17.5t18.5 44.5q0 8 -1 13h101v-12q0 -68 -47.5 -112t-117.5 -44t-117.5 44t-47.5 112v12h104z" />
    <glyph glyph-name="abreve" unicode="&#x103;" horiz-adv-x="575" 
d="M377 45q-46 -57 -143 -57q-78 0 -133.5 45t-55.5 122q0 61 36 101t84.5 54.5t108.5 14.5q43 0 95 -11v8q0 106 -104 106q-71 0 -159 -46l-38 102q110 54 226 54q107 0 162 -58.5t55 -163.5v-316h-123zM369 229q-41 9 -72 9q-46 0 -79.5 -19.5t-33.5 -61.5
q0 -33 23.5 -51.5t56.5 -18.5q55 0 105 45v97zM453 750q0 -69 -48 -116.5t-117 -47.5t-117 47.5t-48 116.5v17h102q-1 -5 -1 -19q0 -28 18.5 -48.5t45.5 -20.5t46 20.5t19 48.5q0 14 -1 19h101v-17z" />
    <glyph glyph-name="Aogonek" unicode="&#x104;" horiz-adv-x="689" 
d="M427 247l-81 235h-1l-85 -235h167zM677 0q-60 -8 -95.5 -32t-35.5 -60q0 -40 49 -40q22 0 48 13l33 -78q-48 -30 -112 -30q-57 0 -95.5 30t-38.5 77q0 40 21 72.5t59 51.5l-43 126h-249l-47 -130h-159l286 700h116z" />
    <glyph glyph-name="aogonek" unicode="&#x105;" horiz-adv-x="575" 
d="M368 229q-41 9 -71 9q-46 0 -79.5 -19.5t-33.5 -61.5q0 -33 23.5 -51.5t56.5 -18.5q54 0 104 45v97zM511 0q-53 -12 -86 -35.5t-33 -56.5q0 -40 49 -40q24 0 48 13l33 -78q-48 -30 -112 -30q-57 0 -95.5 30t-38.5 77q0 82 110 125l-9 40q-46 -57 -143 -57
q-78 0 -133.5 45t-55.5 122q0 61 36 101t84.5 54.5t108.5 14.5q42 0 94 -11v8q0 106 -103 106q-71 0 -159 -46l-38 102q110 54 226 54q107 0 162 -58.5t55 -163.5v-316z" />
    <glyph glyph-name="Cacute" unicode="&#x106;" horiz-adv-x="675" 
d="M202 350q0 -106 59 -171.5t161 -65.5q82 0 149 58l80 -104q-103 -79 -235 -79q-159 0 -263 101.5t-104 260.5q0 153 109 257.5t264 104.5q106 0 215 -68l-69 -111q-71 54 -146 54q-95 0 -157.5 -68.5t-62.5 -168.5zM349 814l172 144l74 -97l-182 -128z" />
    <glyph glyph-name="cacute" unicode="&#x107;" horiz-adv-x="511" 
d="M489 53q-73 -65 -189 -65q-117 0 -192 76.5t-75 198.5q0 116 76.5 195.5t194.5 79.5q106 0 185 -65l-73 -99q-45 42 -102 42q-59 0 -97.5 -44.5t-38.5 -108.5q0 -66 38.5 -109.5t95.5 -43.5q60 0 101 40zM262 640l133 186l96 -76l-147 -172z" />
    <glyph glyph-name="Ccircumflex" unicode="&#x108;" horiz-adv-x="675" 
d="M202 350q0 -106 59 -171.5t161 -65.5q82 0 149 58l80 -104q-103 -79 -235 -79q-159 0 -263 101.5t-104 260.5q0 153 109 257.5t264 104.5q106 0 215 -68l-69 -111q-71 54 -146 54q-95 0 -157.5 -68.5t-62.5 -168.5zM612 794l-82 -60l-111 126l-112 -126l-81 60l117 149
h156z" />
    <glyph glyph-name="ccircumflex" unicode="&#x109;" horiz-adv-x="511" 
d="M489 53q-73 -65 -189 -65q-117 0 -192 76.5t-75 198.5q0 116 76.5 195.5t194.5 79.5q106 0 185 -65l-73 -99q-45 42 -102 42q-59 0 -97.5 -44.5t-38.5 -108.5q0 -66 38.5 -109.5t95.5 -43.5q60 0 101 40zM486 631l-80 -48l-105 129l-104 -129l-80 48l114 168h143z" />
    <glyph glyph-name="Cdotaccent" unicode="&#x10a;" horiz-adv-x="675" 
d="M202 350q0 -106 59 -171.5t161 -65.5q82 0 149 58l80 -104q-103 -79 -235 -79q-159 0 -263 101.5t-104 260.5q0 153 109 257.5t264 104.5q106 0 215 -68l-69 -111q-71 54 -146 54q-95 0 -157.5 -68.5t-62.5 -168.5zM342 882h146v-120h-146v120z" />
    <glyph glyph-name="cdotaccent" unicode="&#x10b;" horiz-adv-x="511" 
d="M489 53q-73 -65 -189 -65q-117 0 -192 76.5t-75 198.5q0 116 76.5 195.5t194.5 79.5q106 0 185 -65l-73 -99q-45 42 -102 42q-59 0 -97.5 -44.5t-38.5 -108.5q0 -66 38.5 -109.5t95.5 -43.5q60 0 101 40zM222 720h142v-121h-142v121z" />
    <glyph glyph-name="Ccaron" unicode="&#x10c;" horiz-adv-x="675" 
d="M202 350q0 -106 59 -171.5t161 -65.5q82 0 149 58l80 -104q-103 -79 -235 -79q-159 0 -263 101.5t-104 260.5q0 153 109 257.5t264 104.5q106 0 215 -68l-69 -111q-71 54 -146 54q-95 0 -157.5 -68.5t-62.5 -168.5zM226 895l83 60l111 -126l112 126l80 -60l-117 -149
h-156z" />
    <glyph glyph-name="ccaron" unicode="&#x10d;" horiz-adv-x="511" 
d="M489 53q-73 -65 -189 -65q-117 0 -192 76.5t-75 198.5q0 116 76.5 195.5t194.5 79.5q106 0 185 -65l-73 -99q-45 42 -102 42q-59 0 -97.5 -44.5t-38.5 -108.5q0 -66 38.5 -109.5t95.5 -43.5q60 0 101 40zM118 762l81 48l105 -129l104 129l79 -48l-114 -168h-143z" />
    <glyph glyph-name="Dcaron" unicode="&#x10e;" horiz-adv-x="715" 
d="M282 700q71 0 136.5 -19.5t122.5 -58.5t91 -108.5t34 -160.5q0 -93 -34 -163.5t-91.5 -110.5t-124.5 -59.5t-143 -19.5h-195v700h204zM237 121q276 0 276 223q0 115 -64.5 175t-183.5 60h-44v-458h16zM130 895l83 60l111 -126l112 126l80 -60l-117 -149h-156z" />
    <glyph glyph-name="dcaron" unicode="&#x10f;" horiz-adv-x="717" 
d="M440 65q-26 -40 -70.5 -58.5t-91.5 -18.5q-104 0 -174.5 81t-70.5 196q0 113 70.5 193t176.5 80q97 0 153 -63v275h142v-750h-123zM433 359q-49 57 -122 57q-64 0 -98.5 -46.5t-34.5 -108.5q0 -61 36.5 -106t94.5 -45q83 0 124 69v180zM650 750h132l-57 -217h-119z" />
    <glyph glyph-name="Dcroat" unicode="&#x110;" horiz-adv-x="715" 
d="M11 313v98h67v289h204q71 0 136.5 -19.5t122.5 -58.5t91 -108.5t34 -160.5q0 -93 -34 -163.5t-91.5 -110.5t-124.5 -59.5t-143 -19.5h-195v313h-67zM513 344q0 115 -64.5 175t-183.5 60h-44v-168h113v-98h-113v-192h16q276 0 276 223z" />
    <glyph glyph-name="dcroat" unicode="&#x111;" horiz-adv-x="644" 
d="M440 65q-26 -40 -70.5 -58.5t-91.5 -18.5q-104 0 -174.5 81t-70.5 196q0 113 70.5 193t176.5 80q97 0 153 -63v111h-160v96h160v68h142v-68h68v-96h-68v-586h-123zM433 359q-49 57 -122 57q-64 0 -98.5 -46.5t-34.5 -108.5q0 -61 36.5 -106t94.5 -45q83 0 124 69v180z
" />
    <glyph glyph-name="Emacron" unicode="&#x112;" horiz-adv-x="580" 
d="M78 700h449v-121h-306v-158h306v-121h-306v-179h306v-121h-449v700zM127 867h364v-95h-364v95z" />
    <glyph glyph-name="emacron" unicode="&#x113;" horiz-adv-x="588" 
d="M177 228q8 -56 42.5 -91t89.5 -35q48 0 79 19t58 59l93 -63q-46 -67 -101.5 -98t-138.5 -31q-119 0 -192.5 75t-73.5 194t77 200t190 81q110 0 182 -69t72 -174q0 -30 -7 -67h-370zM409 325q-2 47 -31.5 74.5t-73.5 27.5q-94 0 -120 -102h225zM134 707h342v-98h-342v98z
" />
    <glyph glyph-name="Ebreve" unicode="&#x114;" horiz-adv-x="580" 
d="M78 700h449v-121h-306v-158h306v-121h-306v-179h306v-121h-449v700zM250 909q-1 -5 -1 -13q0 -27 17 -44.5t45 -17.5t46.5 17.5t18.5 44.5q0 8 -1 13h101v-12q0 -68 -47.5 -112t-117.5 -44t-117.5 44t-47.5 112v12h104z" />
    <glyph glyph-name="ebreve" unicode="&#x115;" horiz-adv-x="588" 
d="M177 228q8 -56 42.5 -91t89.5 -35q48 0 79 19t58 59l93 -63q-46 -67 -101.5 -98t-138.5 -31q-119 0 -192.5 75t-73.5 194t77 200t190 81q110 0 182 -69t72 -174q0 -30 -7 -67h-370zM409 325q-2 47 -31.5 74.5t-73.5 27.5q-94 0 -120 -102h225zM468 750q0 -69 -48 -116.5
t-117 -47.5t-117 47.5t-48 116.5v17h102q-1 -5 -1 -19q0 -28 18.5 -48.5t45.5 -20.5t46 20.5t19 48.5q0 14 -1 19h101v-17z" />
    <glyph glyph-name="Edotaccent" unicode="&#x116;" horiz-adv-x="580" 
d="M78 700h449v-121h-306v-158h306v-121h-306v-179h306v-121h-449v700zM238 882h146v-120h-146v120z" />
    <glyph glyph-name="edotaccent" unicode="&#x117;" horiz-adv-x="588" 
d="M177 228q8 -56 42.5 -91t89.5 -35q48 0 79 19t58 59l93 -63q-46 -67 -101.5 -98t-138.5 -31q-119 0 -192.5 75t-73.5 194t77 200t190 81q110 0 182 -69t72 -174q0 -30 -7 -67h-370zM409 325q-2 47 -31.5 74.5t-73.5 27.5q-94 0 -120 -102h225zM228 720h142v-121h-142v121
z" />
    <glyph glyph-name="Eogonek" unicode="&#x118;" horiz-adv-x="580" 
d="M527 579h-306v-158h306v-121h-306v-179h306v-121q-54 -10 -86 -34t-32 -58q0 -40 50 -40q23 0 47 13l33 -78q-46 -30 -111 -30q-57 0 -96 30t-39 77q0 81 89 120h-304v700h449v-121z" />
    <glyph glyph-name="eogonek" unicode="&#x119;" horiz-adv-x="588" 
d="M409 325q-2 47 -31.5 74.5t-73.5 27.5q-94 0 -120 -102h225zM539 117q-51 -74 -132 -112q-81 -37 -81 -88q0 -22 13 -35.5t37 -13.5q23 0 47 13l33 -78q-46 -30 -112 -30q-56 0 -95 30t-39 77q0 69 54 110q-105 11 -168 84t-63 183q0 119 77 200t190 81q110 0 182 -69
t72 -174q0 -30 -7 -67h-370q8 -56 42.5 -91t89.5 -35q48 0 79 19t58 59z" />
    <glyph glyph-name="Ecaron" unicode="&#x11a;" horiz-adv-x="580" 
d="M78 700h449v-121h-306v-158h306v-121h-306v-179h306v-121h-449v700zM112 895l83 60l111 -126l112 126l80 -60l-117 -149h-156z" />
    <glyph glyph-name="ecaron" unicode="&#x11b;" horiz-adv-x="588" 
d="M177 228q8 -56 42.5 -91t89.5 -35q48 0 79 19t58 59l93 -63q-46 -67 -101.5 -98t-138.5 -31q-119 0 -192.5 75t-73.5 194t77 200t190 81q110 0 182 -69t72 -174q0 -30 -7 -67h-370zM409 325q-2 47 -31.5 74.5t-73.5 27.5q-94 0 -120 -102h225zM118 762l81 48l105 -129
l104 129l79 -48l-114 -168h-143z" />
    <glyph glyph-name="Gcircumflex" unicode="&#x11c;" horiz-adv-x="793" 
d="M416 404h311v-273q-107 -143 -305 -143q-161 0 -267 101t-106 261q0 153 109 257.5t264 104.5q175 0 294 -138l-99 -86q-85 99 -195 99q-95 0 -157.5 -68.5t-62.5 -168.5q0 -106 60.5 -171.5t159.5 -65.5q94 0 162 65v105h-168v121zM622 794l-82 -60l-111 126l-112 -126
l-81 60l117 149h156z" />
    <glyph glyph-name="gcircumflex" unicode="&#x11d;" horiz-adv-x="640" 
d="M575 28q0 -85 -33 -140q-34 -57 -95.5 -86t-136.5 -29q-134 0 -243 72l52 117q43 -32 94 -49.5t92 -17.5q58 0 93 31.5t35 92.5v48q-52 -67 -155 -67q-104 0 -174.5 78.5t-70.5 192.5q0 112 70.5 189.5t176.5 77.5q45 0 89.5 -18t70.5 -56l12 62h123v-498zM433 359
q-49 57 -122 57q-64 0 -98.5 -44.5t-34.5 -104.5t36 -102.5t95 -42.5q83 0 124 69v168zM490 631l-80 -48l-105 129l-104 -129l-80 48l114 168h143z" />
    <glyph glyph-name="Gbreve" unicode="&#x11e;" horiz-adv-x="793" 
d="M416 404h311v-273q-107 -143 -305 -143q-161 0 -267 101t-106 261q0 153 109 257.5t264 104.5q175 0 294 -138l-99 -86q-85 99 -195 99q-95 0 -157.5 -68.5t-62.5 -168.5q0 -106 60.5 -171.5t159.5 -65.5q94 0 162 65v105h-168v121zM368 909q-1 -5 -1 -13q0 -27 17 -44.5
t45 -17.5t46.5 17.5t18.5 44.5q0 8 -1 13h101v-12q0 -68 -47.5 -112t-117.5 -44t-117.5 44t-47.5 112v12h104z" />
    <glyph glyph-name="gbreve" unicode="&#x11f;" horiz-adv-x="640" 
d="M575 28q0 -85 -33 -140q-34 -57 -95.5 -86t-136.5 -29q-134 0 -243 72l52 117q43 -32 94 -49.5t92 -17.5q58 0 93 31.5t35 92.5v48q-52 -67 -155 -67q-104 0 -174.5 78.5t-70.5 192.5q0 112 70.5 189.5t176.5 77.5q45 0 89.5 -18t70.5 -56l12 62h123v-498zM433 359
q-49 57 -122 57q-64 0 -98.5 -44.5t-34.5 -104.5t36 -102.5t95 -42.5q83 0 124 69v168zM474 750q0 -69 -48 -116.5t-117 -47.5t-117 47.5t-48 116.5v17h102q-1 -5 -1 -19q0 -28 18.5 -48.5t45.5 -20.5t46 20.5t19 48.5q0 14 -1 19h101v-17z" />
    <glyph glyph-name="Gdotaccent" unicode="&#x120;" horiz-adv-x="793" 
d="M416 404h311v-273q-107 -143 -305 -143q-161 0 -267 101t-106 261q0 153 109 257.5t264 104.5q175 0 294 -138l-99 -86q-85 99 -195 99q-95 0 -157.5 -68.5t-62.5 -168.5q0 -106 60.5 -171.5t159.5 -65.5q94 0 162 65v105h-168v121zM342 882h146v-120h-146v120z" />
    <glyph glyph-name="gdotaccent" unicode="&#x121;" horiz-adv-x="640" 
d="M575 28q0 -85 -33 -140q-34 -57 -95.5 -86t-136.5 -29q-134 0 -243 72l52 117q43 -32 94 -49.5t92 -17.5q58 0 93 31.5t35 92.5v48q-52 -67 -155 -67q-104 0 -174.5 78.5t-70.5 192.5q0 112 70.5 189.5t176.5 77.5q45 0 89.5 -18t70.5 -56l12 62h123v-498zM433 359
q-49 57 -122 57q-64 0 -98.5 -44.5t-34.5 -104.5t36 -102.5t95 -42.5q83 0 124 69v168zM233 720h142v-121h-142v121z" />
    <glyph glyph-name="uni0122" unicode="&#x122;" horiz-adv-x="793" 
d="M416 404h311v-273q-107 -143 -305 -143q-161 0 -267 101t-106 261q0 153 109 257.5t264 104.5q175 0 294 -138l-99 -86q-85 99 -195 99q-95 0 -157.5 -68.5t-62.5 -168.5q0 -106 60.5 -171.5t159.5 -65.5q94 0 162 65v105h-168v121zM337 -58h127l-55 -191h-108z" />
    <glyph glyph-name="uni0123" unicode="&#x123;" horiz-adv-x="640" 
d="M575 28q0 -85 -33 -140q-34 -57 -95.5 -86t-136.5 -29q-134 0 -243 72l52 117q43 -32 94 -49.5t92 -17.5q58 0 93 31.5t35 92.5v48q-52 -67 -155 -67q-104 0 -174.5 78.5t-70.5 192.5q0 112 70.5 189.5t176.5 77.5q45 0 89.5 -18t70.5 -56l12 62h123v-498zM433 359
q-49 57 -122 57q-64 0 -98.5 -44.5t-34.5 -104.5t36 -102.5t95 -42.5q83 0 124 69v168zM371 579h-128l56 192h109z" />
    <glyph glyph-name="Hcircumflex" unicode="&#x124;" horiz-adv-x="739" 
d="M518 300h-297v-300h-143v700h143v-279h297v279h143v-700h-143v300zM563 794l-82 -60l-111 126l-112 -126l-81 60l117 149h156z" />
    <glyph glyph-name="hcircumflex" unicode="&#x125;" horiz-adv-x="618" 
d="M211 464q61 74 155 74q86 0 140 -69q47 -61 47 -196v-273h-142v266q0 81 -16 113q-19 37 -70 37q-32 0 -63.5 -18t-50.5 -49v-349h-142v750h142v-286zM332 819l-82 -60l-111 126l-112 -126l-81 60l117 149h156z" />
    <glyph glyph-name="Hbar" unicode="&#x126;" horiz-adv-x="739" 
d="M518 300h-297v-300h-143v501h-85v97h85v102h143v-102h297v102h143v-102h85v-97h-85v-501h-143v300zM518 501h-297v-80h297v80z" />
    <glyph glyph-name="hbar" unicode="&#x127;" horiz-adv-x="618" 
d="M370 682v-97h-159v-121q61 74 155 74q86 0 140 -69q47 -61 47 -196v-273h-142v266q0 81 -16 113q-19 37 -70 37q-32 0 -63.5 -18t-50.5 -49v-349h-142v585h-69v97h69v68h142v-68h159z" />
    <glyph glyph-name="Itilde" unicode="&#x128;" horiz-adv-x="299" 
d="M78 700h143v-700h-143v700zM333 887q6 -19 6 -39q0 -46 -31.5 -74.5t-83.5 -28.5q-37 0 -85.5 25.5t-60.5 25.5q-23 0 -25 -23q0 -5 1 -7l-81 -9q-7 23 -7 39q0 46 32 74.5t84 28.5q36 0 85 -25.5t60 -25.5q10 0 17.5 6t7.5 17q0 5 -1 7z" />
    <glyph glyph-name="itilde" unicode="&#x129;" horiz-adv-x="280" 
d="M69 526h142v-526h-142v526zM-40 593q-6 19 -6 38q0 46 31.5 74.5t83.5 28.5q37 0 86 -25.5t60 -25.5q23 0 25 23q0 6 -1 7l81 9q6 -19 6 -38q0 -46 -31.5 -74.5t-83.5 -28.5q-37 0 -86 25.5t-60 25.5q-23 0 -25 -23q0 -6 1 -7z" />
    <glyph glyph-name="Imacron" unicode="&#x12a;" horiz-adv-x="299" 
d="M78 700h143v-700h-143v700zM-32 867h364v-95h-364v95z" />
    <glyph glyph-name="imacron" unicode="&#x12b;" horiz-adv-x="280" 
d="M69 526h142v-526h-142v526zM-31 707h342v-98h-342v98z" />
    <glyph glyph-name="Ibreve" unicode="&#x12c;" horiz-adv-x="299" 
d="M78 700h143v-700h-143v700zM89 909q-1 -5 -1 -13q0 -27 17 -44.5t45 -17.5t46.5 17.5t18.5 44.5q0 8 -1 13h101v-12q0 -68 -47.5 -112t-117.5 -44t-117.5 44t-47.5 112v12h104z" />
    <glyph glyph-name="ibreve" unicode="&#x12d;" horiz-adv-x="280" 
d="M69 526h142v-526h-142v526zM305 750q0 -69 -48 -116.5t-117 -47.5t-117 47.5t-48 116.5v17h102q-1 -5 -1 -19q0 -28 18.5 -48.5t45.5 -20.5t46 20.5t19 48.5q0 14 -1 19h101v-17z" />
    <glyph glyph-name="Iogonek" unicode="&#x12e;" horiz-adv-x="299" 
d="M221 700v-700q-111 -25 -111 -92q0 -40 50 -40q23 0 47 13l33 -78q-46 -30 -111 -30q-57 0 -96 30t-39 77q0 40 22.5 73t61.5 52v695h143z" />
    <glyph glyph-name="iogonek" unicode="&#x12f;" horiz-adv-x="280" 
d="M69 720h142v-121h-142v121zM211 526v-526q-109 -25 -109 -92q0 -40 49 -40q23 0 47 13l33 -78q-46 -30 -111 -30q-57 0 -96 30t-39 77q0 40 22.5 73t61.5 52v521h142z" />
    <glyph glyph-name="Idotaccent" unicode="&#x130;" horiz-adv-x="299" 
d="M77 882h145v-120h-145v120zM78 700h143v-700h-143v700z" />
    <glyph glyph-name="dotlessi" unicode="&#x131;" horiz-adv-x="280" 
d="M69 526h142v-526h-142v526z" />
    <glyph glyph-name="IJ" unicode="&#x132;" horiz-adv-x="674" 
d="M78 700h143v-700h-143v700zM605 186q0 -103 -45 -151q-44 -47 -139 -47q-67 0 -131 32l45 113q35 -20 69 -20q35 0 48 21q10 18 10 69v497h143v-514z" />
    <glyph glyph-name="ij" unicode="&#x133;" horiz-adv-x="566" 
d="M69 526h142v-526h-142v526zM69 720h142v-121h-142v121zM355 720h142v-121h-142v121zM497 -37q0 -85 -34 -130q-43 -60 -146 -60q-59 0 -114 22l38 113q29 -13 61 -13q33 0 43 20t10 60v551h142v-563z" />
    <glyph glyph-name="Jcircumflex" unicode="&#x134;" horiz-adv-x="340" 
d="M271 186q0 -103 -45 -151q-44 -47 -139 -47q-67 0 -131 32l45 113q35 -20 69 -20q37 0 48 21q10 18 10 69v497h143v-514zM392 794l-82 -60l-111 126l-112 -126l-81 60l117 149h156z" />
    <glyph glyph-name="jcircumflex" unicode="&#x135;" horiz-adv-x="287" 
d="M218 -37q0 -85 -34 -130q-45 -60 -147 -60q-59 0 -114 22l38 112q29 -13 61 -13q33 0 43 20t10 60v552h143v-563zM330 631l-80 -48l-105 129l-104 -129l-80 48l114 168h143z" />
    <glyph glyph-name="uni0136" unicode="&#x136;" horiz-adv-x="640" 
d="M636 0h-167l-173 303l-75 -89v-214h-143v700h143v-287l236 287h173l-237 -283zM256 -58h127l-55 -191h-108z" />
    <glyph glyph-name="uni0137" unicode="&#x137;" horiz-adv-x="555" 
d="M262 195l-51 -59v-136h-142v750h142v-438h2l170 214h162l-188 -220l200 -306h-174zM210 -58h127l-55 -191h-108z" />
    <glyph glyph-name="kgreenlandic" unicode="&#x138;" horiz-adv-x="555" 
d="M211 312h2l170 214h162l-188 -220l200 -306h-174l-121 195l-51 -59v-136h-142v526h142v-214z" />
    <glyph glyph-name="Lacute" unicode="&#x139;" horiz-adv-x="512" 
d="M78 700h143v-579h287v-121h-430v700zM82 814l172 144l74 -97l-182 -128z" />
    <glyph glyph-name="lacute" unicode="&#x13a;" horiz-adv-x="280" 
d="M69 0v750h142v-750h-142zM60 858l172 144l74 -97l-182 -128z" />
    <glyph glyph-name="uni013B" unicode="&#x13b;" horiz-adv-x="512" 
d="M78 700h143v-579h287v-121h-430v700zM235 -58h127l-55 -191h-108z" />
    <glyph glyph-name="uni013C" unicode="&#x13c;" horiz-adv-x="280" 
d="M69 0v750h142v-750h-142zM70 -58h127l-55 -191h-108z" />
    <glyph glyph-name="Lcaron" unicode="&#x13d;" horiz-adv-x="512" 
d="M78 700h143v-579h287v-121h-430v700zM360 700h132l-57 -217h-119z" />
    <glyph glyph-name="lcaron" unicode="&#x13e;" horiz-adv-x="353" 
d="M69 0v750h142v-750h-142zM286 750h132l-57 -217h-119z" />
    <glyph glyph-name="Ldot" unicode="&#x13f;" horiz-adv-x="512" 
d="M78 700h143v-579h287v-121h-430v700zM330 432h146v-120h-146v120z" />
    <glyph glyph-name="ldot" unicode="&#x140;" horiz-adv-x="408" 
d="M69 0v750h142v-750h-142zM269 436h146v-120h-146v120z" />
    <glyph glyph-name="Lslash" unicode="&#x141;" horiz-adv-x="512" 
d="M78 230l-85 -55v136l85 55v334h143v-246l141 92v-136l-141 -92v-197h287v-121h-430v230z" />
    <glyph glyph-name="lslash" unicode="&#x142;" horiz-adv-x="299" 
d="M289 545v-138l-69 -44v-363h-142v277l-68 -44v138l68 43v336h142v-249z" />
    <glyph glyph-name="Nacute" unicode="&#x143;" horiz-adv-x="748" 
d="M221 438v-438h-143v700h126l324 -439v439h143v-700h-129zM293 814l172 144l74 -97l-182 -128z" />
    <glyph glyph-name="nacute" unicode="&#x144;" horiz-adv-x="618" 
d="M203 454q60 84 163 84q86 0 140 -69q47 -61 47 -196v-273h-142v266q0 81 -16 113q-19 37 -70 37q-32 0 -63.5 -18t-50.5 -49v-349h-142v526h123zM257 640l133 186l96 -76l-147 -172z" />
    <glyph glyph-name="uni0145" unicode="&#x145;" horiz-adv-x="748" 
d="M221 438v-438h-143v700h126l324 -439v439h143v-700h-129zM321 -58h127l-55 -191h-108z" />
    <glyph glyph-name="uni0146" unicode="&#x146;" horiz-adv-x="618" 
d="M203 454q60 84 163 84q86 0 140 -69q47 -61 47 -196v-273h-142v266q0 81 -16 113q-19 37 -70 37q-32 0 -63.5 -18t-50.5 -49v-349h-142v526h123zM236 -58h127l-55 -191h-108z" />
    <glyph glyph-name="Ncaron" unicode="&#x147;" horiz-adv-x="748" 
d="M221 438v-438h-143v700h126l324 -439v439h143v-700h-129zM190 895l83 60l111 -126l112 126l80 -60l-117 -149h-156z" />
    <glyph glyph-name="ncaron" unicode="&#x148;" horiz-adv-x="618" 
d="M203 454q60 84 163 84q86 0 140 -69q47 -61 47 -196v-273h-142v266q0 81 -16 113q-19 37 -70 37q-32 0 -63.5 -18t-50.5 -49v-349h-142v526h123zM145 762l81 48l105 -129l104 129l79 -48l-114 -168h-143z" />
    <glyph glyph-name="Eng" unicode="&#x14a;" horiz-adv-x="748" 
d="M671 -28q0 -103 -45 -151q-44 -47 -139 -47q-67 0 -131 32l45 113q35 -20 69 -20t47 21q10 18 10 69v31l-306 418v-438h-143v700h126l323 -439v439h144v-728z" />
    <glyph glyph-name="eng" unicode="&#x14b;" horiz-adv-x="618" 
d="M203 454q60 84 163 84q86 0 140 -69q47 -61 47 -196v-310q0 -85 -34 -130q-43 -60 -146 -60q-59 0 -114 22l38 113q29 -13 61 -13q33 0 43 20t10 60v291q0 81 -16 113q-19 37 -70 37q-32 0 -63.5 -18t-50.5 -49v-349h-142v526h123z" />
    <glyph glyph-name="Omacron" unicode="&#x14c;" horiz-adv-x="831" 
d="M629 350q0 100 -60.5 168.5t-152.5 68.5t-153 -68t-61 -169t61 -169t153 -68t152.5 68.5t60.5 168.5zM782 350q0 -151 -106 -256.5t-260 -105.5q-155 0 -261 105.5t-106 256.5t106 256.5t261 105.5q154 0 260 -105.5t106 -256.5zM234 867h364v-95h-364v95z" />
    <glyph glyph-name="omacron" unicode="&#x14d;" horiz-adv-x="617" 
d="M309 538q119 0 197 -79t78 -196t-78 -196t-197 -79q-120 0 -198 79t-78 196t78 196t198 79zM439 263q0 66 -36 109.5t-94 43.5t-94.5 -44t-36.5 -109t36.5 -109t94.5 -44t94 43.5t36 109.5zM138 707h342v-98h-342v98z" />
    <glyph glyph-name="Obreve" unicode="&#x14e;" horiz-adv-x="831" 
d="M629 350q0 100 -60.5 168.5t-152.5 68.5t-153 -68t-61 -169t61 -169t153 -68t152.5 68.5t60.5 168.5zM782 350q0 -151 -106 -256.5t-260 -105.5q-155 0 -261 105.5t-106 256.5t106 256.5t261 105.5q154 0 260 -105.5t106 -256.5zM355 909q-1 -5 -1 -13q0 -27 17 -44.5
t45 -17.5t46.5 17.5t18.5 44.5q0 8 -1 13h101v-12q0 -68 -47.5 -112t-117.5 -44t-117.5 44t-47.5 112v12h104z" />
    <glyph glyph-name="obreve" unicode="&#x14f;" horiz-adv-x="617" 
d="M309 538q119 0 197 -79t78 -196t-78 -196t-197 -79q-120 0 -198 79t-78 196t78 196t198 79zM439 263q0 66 -36 109.5t-94 43.5t-94.5 -44t-36.5 -109t36.5 -109t94.5 -44t94 43.5t36 109.5zM474 750q0 -69 -48 -116.5t-117 -47.5t-117 47.5t-48 116.5v17h102
q-1 -5 -1 -19q0 -28 18.5 -48.5t45.5 -20.5t46 20.5t19 48.5q0 14 -1 19h101v-17z" />
    <glyph glyph-name="Ohungarumlaut" unicode="&#x150;" horiz-adv-x="831" 
d="M629 350q0 100 -60.5 168.5t-152.5 68.5t-153 -68t-61 -169t61 -169t153 -68t152.5 68.5t60.5 168.5zM782 350q0 -151 -106 -256.5t-260 -105.5q-155 0 -261 105.5t-106 256.5t106 256.5t261 105.5q154 0 260 -105.5t106 -256.5zM471 814l168 141l74 -97l-178 -125z
M225 810l172 144l72 -93l-182 -128z" />
    <glyph glyph-name="ohungarumlaut" unicode="&#x151;" horiz-adv-x="617" 
d="M309 538q119 0 197 -79t78 -196t-78 -196t-197 -79q-120 0 -198 79t-78 196t78 196t198 79zM439 263q0 66 -36 109.5t-94 43.5t-94.5 -44t-36.5 -109t36.5 -109t94.5 -44t94 43.5t36 109.5zM167 642l132 188l95 -73l-147 -172zM368 640l130 183l96 -76l-144 -169z" />
    <glyph glyph-name="OE" unicode="&#x152;" horiz-adv-x="1056" 
d="M553 19q-70 -31 -137 -31q-155 0 -261 105.5t-106 256.5t106 256.5t261 105.5q68 0 137 -31v19h449v-121h-305v-158h305v-121h-305v-179h305v-121h-449v19zM416 113q81 0 137 48v378q-56 48 -137 48q-92 0 -153 -68t-61 -169t61 -169t153 -68z" />
    <glyph glyph-name="oe" unicode="&#x153;" horiz-adv-x="991" 
d="M580 228q8 -56 42.5 -91t89.5 -35q48 0 79 19t58 59l93 -63q-46 -67 -101.5 -98t-138.5 -31q-126 0 -196 84q-76 -84 -197 -84q-120 0 -198 79t-78 196t78 196t198 79q127 0 201 -90q74 90 193 90q110 0 182 -69t72 -174q0 -30 -7 -67h-370zM439 263q0 66 -36 109.5
t-94 43.5t-94.5 -44t-36.5 -109t36.5 -109t94.5 -44t94 43.5t36 109.5zM812 325q-2 47 -31.5 74.5t-73.5 27.5q-94 0 -120 -102h225z" />
    <glyph glyph-name="Racute" unicode="&#x154;" horiz-adv-x="634" 
d="M300 700q45 0 88 -12t82 -35.5t62.5 -66t23.5 -96.5q0 -76 -43 -124.5t-109 -70.5l214 -295h-180l-192 279h-25v-279h-143v700h222zM277 400q57 0 91.5 21.5t34.5 65.5q0 41 -29.5 66.5t-77.5 25.5h-75v-179h56zM209 814l172 144l74 -97l-182 -128z" />
    <glyph glyph-name="racute" unicode="&#x155;" horiz-adv-x="374" 
d="M203 456q50 82 123 82q35 0 68 -12l-34 -124q-23 12 -50 12q-64 0 -99 -58v-356h-142v526h123zM155 640l133 186l96 -76l-147 -172z" />
    <glyph glyph-name="uni0156" unicode="&#x156;" horiz-adv-x="634" 
d="M300 700q45 0 88 -12t82 -35.5t62.5 -66t23.5 -96.5q0 -76 -43 -124.5t-109 -70.5l214 -295h-180l-192 279h-25v-279h-143v700h222zM277 400q57 0 91.5 21.5t34.5 65.5q0 41 -29.5 66.5t-77.5 25.5h-75v-179h56zM249 -58h127l-55 -191h-108z" />
    <glyph glyph-name="uni0157" unicode="&#x157;" horiz-adv-x="374" 
d="M203 456q50 82 123 82q35 0 68 -12l-34 -124q-23 12 -50 12q-64 0 -99 -58v-356h-142v526h123zM70 -58h127l-55 -191h-108z" />
    <glyph glyph-name="Rcaron" unicode="&#x158;" horiz-adv-x="634" 
d="M300 700q45 0 88 -12t82 -35.5t62.5 -66t23.5 -96.5q0 -76 -43 -124.5t-109 -70.5l214 -295h-180l-192 279h-25v-279h-143v700h222zM277 400q57 0 91.5 21.5t34.5 65.5q0 41 -29.5 66.5t-77.5 25.5h-75v-179h56zM91 895l83 60l111 -126l112 126l80 -60l-117 -149h-156z
" />
    <glyph glyph-name="rcaron" unicode="&#x159;" horiz-adv-x="374" 
d="M203 456q50 82 123 82q35 0 68 -12l-34 -124q-23 12 -50 12q-64 0 -99 -58v-356h-142v526h123zM45 762l81 48l105 -129l104 129l79 -48l-114 -168h-143z" />
    <glyph glyph-name="Sacute" unicode="&#x15a;" horiz-adv-x="609" 
d="M468 527q-74 63 -145 63q-38 0 -64.5 -18.5t-26.5 -51.5q0 -11 3.5 -20.5t11.5 -17.5t14.5 -13t21 -11.5t21.5 -9t25 -8.5t23 -8q48 -16 77.5 -30t66.5 -40t55.5 -65.5t18.5 -91.5q0 -72 -42 -123t-100 -72.5t-123 -21.5q-151 0 -268 117l95 93q48 -46 85.5 -67t88.5 -21
q46 0 78.5 22.5t32.5 66.5q0 21 -9.5 37.5t-32.5 30t-40 21t-53 20.5t-56 22t-50 27t-46 37.5t-28.5 51t-12.5 70.5q0 94 67.5 145t161.5 51q123 0 232 -83zM261 814l172 144l74 -97l-182 -128z" />
    <glyph glyph-name="sacute" unicode="&#x15b;" horiz-adv-x="481" 
d="M355 383q-50 44 -104 44q-21 0 -36 -11t-15 -29q0 -22 20.5 -36.5t62.5 -31.5q29 -12 43 -18.5t39.5 -21.5t38 -30t23 -39t10.5 -53q0 -82 -59.5 -125.5t-142.5 -43.5q-122 0 -212 90l81 84q33 -32 60.5 -47t63.5 -15q25 0 46 12t21 34q0 6 -1.5 11.5t-5.5 10.5l-7.5 9
t-10.5 8.5l-12 7.5t-14.5 7.5l-15 7t-16.5 7t-17 7.5q-61 26 -96.5 59.5t-35.5 95.5q0 76 55.5 118.5t132.5 42.5q109 0 182 -69zM207 640l133 186l96 -76l-147 -172z" />
    <glyph glyph-name="Scircumflex" unicode="&#x15c;" horiz-adv-x="609" 
d="M468 527q-74 63 -145 63q-38 0 -64.5 -18.5t-26.5 -51.5q0 -11 3.5 -20.5t11.5 -17.5t14.5 -13t21 -11.5t21.5 -9t25 -8.5t23 -8q48 -16 77.5 -30t66.5 -40t55.5 -65.5t18.5 -91.5q0 -72 -42 -123t-100 -72.5t-123 -21.5q-151 0 -268 117l95 93q48 -46 85.5 -67t88.5 -21
q46 0 78.5 22.5t32.5 66.5q0 21 -9.5 37.5t-32.5 30t-40 21t-53 20.5t-56 22t-50 27t-46 37.5t-28.5 51t-12.5 70.5q0 94 67.5 145t161.5 51q123 0 232 -83zM517 794l-82 -60l-111 126l-112 -126l-81 60l117 149h156z" />
    <glyph glyph-name="scircumflex" unicode="&#x15d;" horiz-adv-x="481" 
d="M355 383q-50 44 -104 44q-21 0 -36 -11t-15 -29q0 -22 20.5 -36.5t62.5 -31.5q29 -12 43 -18.5t39.5 -21.5t38 -30t23 -39t10.5 -53q0 -82 -59.5 -125.5t-142.5 -43.5q-122 0 -212 90l81 84q33 -32 60.5 -47t63.5 -15q25 0 46 12t21 34q0 6 -1.5 11.5t-5.5 10.5l-7.5 9
t-10.5 8.5l-12 7.5t-14.5 7.5l-15 7t-16.5 7t-17 7.5q-61 26 -96.5 59.5t-35.5 95.5q0 76 55.5 118.5t132.5 42.5q109 0 182 -69zM437 631l-80 -48l-105 129l-104 -129l-80 48l114 168h143z" />
    <glyph glyph-name="Scedilla" unicode="&#x15e;" horiz-adv-x="609" 
d="M468 527q-74 63 -145 63q-38 0 -64.5 -18.5t-26.5 -51.5q0 -11 3.5 -20.5t11.5 -17.5t14.5 -13t21 -11.5t21.5 -9t25 -8.5t23 -8q48 -16 77.5 -30t66.5 -40t55.5 -65.5t18.5 -91.5q0 -70 -39.5 -120t-95 -72.5t-118.5 -24.5l-19 -49h1q19 15 46 15q39 0 66.5 -28.5
t27.5 -72.5q0 -43 -33.5 -76.5t-81.5 -33.5q-76 0 -115 70l68 33q13 -32 41 -32q16 0 26.5 10.5t10.5 26.5t-10.5 28t-26.5 12q-24 0 -37 -20l-74 38l38 84q-115 17 -208 112l95 93q48 -46 85.5 -67t88.5 -21q46 0 78.5 22.5t32.5 66.5q0 21 -9.5 37.5t-32.5 30t-40 21
t-53 20.5t-56 22t-50 27t-46 37.5t-28.5 51t-12.5 70.5q0 94 67 144.5t162 50.5q124 0 232 -82z" />
    <glyph glyph-name="scedilla" unicode="&#x15f;" horiz-adv-x="481" 
d="M355 383q-50 44 -104 44q-21 0 -36 -11t-15 -29q0 -22 20.5 -36.5t62.5 -31.5q29 -12 43 -18.5t39.5 -21.5t38 -30t23 -39t10.5 -53q0 -80 -56 -123.5t-137 -45.5l-18 -49h1q20 15 46 15q37 0 65.5 -29t28.5 -72t-33.5 -76.5t-81.5 -33.5q-76 0 -116 70l69 33
q13 -32 40 -32q17 0 27 10.5t10 26.5t-10.5 28t-26.5 12q-24 0 -36 -20l-74 37l38 87q-83 16 -150 83l81 84q33 -32 60.5 -47t63.5 -15q25 0 46 12t21 34q0 6 -1.5 11.5t-5.5 10.5l-7.5 9t-10.5 8.5l-12 7.5t-14.5 7.5l-15 7t-16.5 7t-17 7.5q-61 26 -96.5 59.5t-35.5 95.5
q0 76 55.5 118.5t132.5 42.5q109 0 182 -69z" />
    <glyph glyph-name="Scaron" unicode="&#x160;" horiz-adv-x="609" 
d="M468 527q-74 63 -145 63q-38 0 -64.5 -18.5t-26.5 -51.5q0 -11 3.5 -20.5t11.5 -17.5t14.5 -13t21 -11.5t21.5 -9t25 -8.5t23 -8q48 -16 77.5 -30t66.5 -40t55.5 -65.5t18.5 -91.5q0 -72 -42 -123t-100 -72.5t-123 -21.5q-151 0 -268 117l95 93q48 -46 85.5 -67t88.5 -21
q46 0 78.5 22.5t32.5 66.5q0 21 -9.5 37.5t-32.5 30t-40 21t-53 20.5t-56 22t-50 27t-46 37.5t-28.5 51t-12.5 70.5q0 94 67.5 145t161.5 51q123 0 232 -83zM132 895l83 60l111 -126l112 126l80 -60l-117 -149h-156z" />
    <glyph glyph-name="scaron" unicode="&#x161;" horiz-adv-x="481" 
d="M355 383q-50 44 -104 44q-21 0 -36 -11t-15 -29q0 -22 20.5 -36.5t62.5 -31.5q29 -12 43 -18.5t39.5 -21.5t38 -30t23 -39t10.5 -53q0 -82 -59.5 -125.5t-142.5 -43.5q-122 0 -212 90l81 84q33 -32 60.5 -47t63.5 -15q25 0 46 12t21 34q0 6 -1.5 11.5t-5.5 10.5l-7.5 9
t-10.5 8.5l-12 7.5t-14.5 7.5l-15 7t-16.5 7t-17 7.5q-61 26 -96.5 59.5t-35.5 95.5q0 76 55.5 118.5t132.5 42.5q109 0 182 -69zM73 762l81 48l105 -129l104 129l79 -48l-114 -168h-143z" />
    <glyph glyph-name="uni0162" unicode="&#x162;" horiz-adv-x="491" 
d="M317 0h-36l-24 -61h1q21 15 47 15q38 0 65.5 -29t27.5 -72t-33 -76.5t-81 -33.5q-76 0 -116 70l69 33q12 -32 40 -32q16 0 26.5 10.5t10.5 26.5t-10.5 28t-25.5 12q-25 0 -38 -20l-73 38l40 91h-33v579h-166v121h475v-121h-166v-579z" />
    <glyph glyph-name="uni0163" unicode="&#x163;" horiz-adv-x="378" 
d="M217 204q0 -30 2 -45q6 -50 46 -50q27 0 57 15l44 -105q-53 -31 -125 -31q-3 0 -10 0.5t-10 0.5l-19 -50h1q20 15 47 15q37 0 65 -29t28 -72t-33 -76.5t-81 -33.5q-76 0 -116 70l69 33q12 -32 40 -32q16 0 26.5 10.5t10.5 26.5t-11 28t-26 12q-24 0 -37 -20l-73 37
l43 100q-53 30 -70 93q-10 32 -10 88v219h-63v118h63l22 116h120v-116h134v-118h-134v-204z" />
    <glyph glyph-name="Tcaron" unicode="&#x164;" horiz-adv-x="491" 
d="M317 0h-143v579h-166v121h475v-121h-166v-579zM53 895l83 60l111 -126l112 126l80 -60l-117 -149h-156z" />
    <glyph glyph-name="tcaron" unicode="&#x165;" horiz-adv-x="378" 
d="M217 204q0 -30 2 -45q6 -50 46 -50q27 0 57 15l44 -105q-53 -31 -125 -31q-60 0 -100.5 30.5t-55.5 82.5q-10 32 -10 88v219h-63v118h63l22 116h120v-116h134v-118h-134v-204zM298 805h132l-57 -217h-119z" />
    <glyph glyph-name="Tbar" unicode="&#x166;" horiz-adv-x="491" 
d="M317 417h103v-114h-103v-303h-143v303h-103v114h103v162h-166v121h475v-121h-166v-162z" />
    <glyph glyph-name="tbar" unicode="&#x167;" horiz-adv-x="379" 
d="M218 204q0 -30 2 -45q6 -50 46 -50q27 0 57 15l44 -105q-51 -30 -125 -30q-61 0 -101.5 30t-55.5 82q-10 32 -10 88v33h-64v112h64v74h-63v118h63l22 116h121v-116h134v-118h-134v-74h134v-112h-134v-18z" />
    <glyph glyph-name="Utilde" unicode="&#x168;" horiz-adv-x="716" 
d="M640 330q0 -169 -68.5 -255.5t-215.5 -86.5q-280 0 -280 342v370h143v-389q0 -98 37 -148t102 -50t102 50t37 148v389h143v-370zM539 887q6 -19 6 -39q0 -46 -31.5 -74.5t-83.5 -28.5q-37 0 -85.5 25.5t-60.5 25.5q-23 0 -25 -23q0 -5 1 -7l-81 -9q-7 23 -7 39
q0 46 32 74.5t84 28.5q36 0 85 -25.5t60 -25.5q10 0 17.5 6t7.5 17q0 5 -1 7z" />
    <glyph glyph-name="utilde" unicode="&#x169;" horiz-adv-x="618" 
d="M414 72q-60 -84 -163 -84q-86 0 -140 69q-47 61 -47 196v273h142v-266q0 -81 16 -113q18 -37 70 -37q32 0 63.5 18t50.5 49v349h142v-526h-123zM138 593q-6 19 -6 38q0 46 31.5 74.5t83.5 28.5q37 0 86 -25.5t60 -25.5q23 0 25 23q0 6 -1 7l81 9q6 -19 6 -38
q0 -46 -31.5 -74.5t-83.5 -28.5q-37 0 -86 25.5t-60 25.5q-23 0 -25 -23q0 -6 1 -7z" />
    <glyph glyph-name="Umacron" unicode="&#x16a;" horiz-adv-x="716" 
d="M640 330q0 -169 -68.5 -255.5t-215.5 -86.5q-280 0 -280 342v370h143v-389q0 -98 37 -148t102 -50t102 50t37 148v389h143v-370zM176 867h364v-95h-364v95z" />
    <glyph glyph-name="umacron" unicode="&#x16b;" horiz-adv-x="618" 
d="M414 72q-60 -84 -163 -84q-86 0 -140 69q-47 61 -47 196v273h142v-266q0 -81 16 -113q18 -37 70 -37q32 0 63.5 18t50.5 49v349h142v-526h-123zM136 707h342v-98h-342v98z" />
    <glyph glyph-name="Ubreve" unicode="&#x16c;" horiz-adv-x="716" 
d="M640 330q0 -169 -68.5 -255.5t-215.5 -86.5q-280 0 -280 342v370h143v-389q0 -98 37 -148t102 -50t102 50t37 148v389h143v-370zM297 909q-1 -5 -1 -13q0 -27 17 -44.5t45 -17.5t46.5 17.5t18.5 44.5q0 8 -1 13h101v-12q0 -68 -47.5 -112t-117.5 -44t-117.5 44t-47.5 112
v12h104z" />
    <glyph glyph-name="ubreve" unicode="&#x16d;" horiz-adv-x="618" 
d="M414 72q-60 -84 -163 -84q-86 0 -140 69q-47 61 -47 196v273h142v-266q0 -81 16 -113q18 -37 70 -37q32 0 63.5 18t50.5 49v349h142v-526h-123zM473 750q0 -69 -48 -116.5t-117 -47.5t-117 47.5t-48 116.5v17h102q-1 -5 -1 -19q0 -28 18.5 -48.5t45.5 -20.5t46 20.5
t19 48.5q0 14 -1 19h101v-17z" />
    <glyph glyph-name="Uring" unicode="&#x16e;" horiz-adv-x="716" 
d="M640 330q0 -169 -68.5 -255.5t-215.5 -86.5q-280 0 -280 342v370h143v-389q0 -98 37 -148t102 -50t102 50t37 148v389h143v-370zM358 943q47 0 80 -33t33 -80t-33 -80t-80 -33t-80 33t-33 80t33 80t80 33zM358 876q-20 0 -33 -13t-13 -33t13 -33t33 -13t33 13t13 33
t-13 33t-33 13z" />
    <glyph glyph-name="uring" unicode="&#x16f;" horiz-adv-x="618" 
d="M414 72q-60 -84 -163 -84q-86 0 -140 69q-47 61 -47 196v273h142v-266q0 -81 16 -113q18 -37 70 -37q32 0 63.5 18t50.5 49v349h142v-526h-123zM195 687q0 47 33 80t80 33t80 -33t33 -80t-33 -80t-80 -33t-80 33t-33 80zM263 687q0 -19 13 -32t32 -13t32 13t13 32t-13 32
t-32 13t-32 -13t-13 -32z" />
    <glyph glyph-name="Uhungarumlaut" unicode="&#x170;" horiz-adv-x="716" 
d="M640 330q0 -169 -68.5 -255.5t-215.5 -86.5q-280 0 -280 342v370h143v-389q0 -98 37 -148t102 -50t102 50t37 148v389h143v-370zM403 814l168 141l74 -97l-178 -125zM157 810l172 144l72 -93l-182 -128z" />
    <glyph glyph-name="uhungarumlaut" unicode="&#x171;" horiz-adv-x="618" 
d="M414 72q-60 -84 -163 -84q-86 0 -140 69q-47 61 -47 196v273h142v-266q0 -81 16 -113q18 -37 70 -37q32 0 63.5 18t50.5 49v349h142v-526h-123zM157 642l132 188l95 -73l-147 -172zM358 640l130 183l96 -76l-144 -169z" />
    <glyph glyph-name="Uogonek" unicode="&#x172;" horiz-adv-x="716" 
d="M640 330q0 -269 -172 -326q-33 -11 -55.5 -35t-22.5 -52q0 -22 13 -35.5t36 -13.5t47 13l33 -78q-46 -30 -111 -30q-57 0 -95.5 30t-38.5 77q0 70 53 109q-251 17 -251 341v370h143v-389q0 -98 37 -148t102 -50t102 50t37 148v389h143v-370z" />
    <glyph glyph-name="uogonek" unicode="&#x173;" horiz-adv-x="618" 
d="M549 0q-118 -27 -118 -92q0 -40 49 -40q24 0 48 13l33 -78q-48 -30 -112 -30q-57 0 -95.5 30t-38.5 77q0 84 110 125l-10 67q-60 -84 -163 -84q-86 0 -140 69q-47 61 -47 196v273h142v-266q0 -81 16 -113q19 -37 70 -37q32 0 63.5 18t50.5 49v349h142v-526z" />
    <glyph glyph-name="Wcircumflex" unicode="&#x174;" horiz-adv-x="944" 
d="M662 252l118 448h160l-201 -700h-142l-127 460h-2l-131 -460h-137l-196 700h160l115 -448h2l125 448h134l120 -448h2zM666 794l-82 -60l-111 126l-112 -126l-81 60l117 149h156z" />
    <glyph glyph-name="wcircumflex" unicode="&#x175;" horiz-adv-x="777" 
d="M541 201l83 325h148l-151 -526h-150l-83 301h-2l-84 -301h-153l-144 526h151l78 -326h2l91 326h125l86 -325h3zM575 631l-80 -48l-105 129l-104 -129l-80 48l114 168h143z" />
    <glyph glyph-name="Ycircumflex" unicode="&#x176;" horiz-adv-x="608" 
d="M227 293l-223 407h178l121 -252h2l132 252h167l-234 -411v-289h-143v293zM498 794l-82 -60l-111 126l-112 -126l-81 60l117 149h156z" />
    <glyph glyph-name="ycircumflex" unicode="&#x177;" horiz-adv-x="531" 
d="M264 213h2l108 313h154l-296 -767l-127 49l84 223l-186 495h155zM453 631l-80 -48l-105 129l-104 -129l-80 48l114 168h143z" />
    <glyph glyph-name="Ydieresis" unicode="&#x178;" horiz-adv-x="608" 
d="M226 295l-222 405h177l122 -252h2l132 252h167l-234 -411v-289h-144v295zM102 882h149v-120h-149v120zM368 882h148v-120h-148v120z" />
    <glyph glyph-name="Zacute" unicode="&#x179;" horiz-adv-x="562" 
d="M546 121v-121h-513v76l295 503h-287v121h481v-73l-296 -506h320zM191 814l172 144l74 -97l-182 -128z" />
    <glyph glyph-name="zacute" unicode="&#x17a;" horiz-adv-x="483" 
d="M39 408v118h398v-65l-202 -343h219v-118h-404v66l200 342h-211zM161 640l133 186l96 -76l-147 -172z" />
    <glyph glyph-name="Zdotaccent" unicode="&#x17b;" horiz-adv-x="562" 
d="M546 121v-121h-513v76l295 503h-287v121h481v-73l-296 -506h320zM195 882h146v-120h-146v120z" />
    <glyph glyph-name="zdotaccent" unicode="&#x17c;" horiz-adv-x="483" 
d="M39 408v118h398v-65l-202 -343h219v-118h-404v66l200 342h-211zM164 720h142v-121h-142v121z" />
    <glyph glyph-name="Zcaron" unicode="&#x17d;" horiz-adv-x="562" 
d="M546 121v-121h-513v76l295 503h-287v121h481v-73l-296 -506h320zM89 895l83 60l111 -126l112 126l80 -60l-117 -149h-156z" />
    <glyph glyph-name="zcaron" unicode="&#x17e;" horiz-adv-x="483" 
d="M39 408v118h398v-65l-202 -343h219v-118h-404v66l200 342h-211zM58 762l81 48l105 -129l104 129l79 -48l-114 -168h-143z" />
    <glyph glyph-name="longs" unicode="&#x17f;" horiz-adv-x="316" 
d="M335 625q-36 19 -70 19q-37 0 -48.5 -21.5t-11.5 -66.5v-556h-139v563q0 96 43.5 147.5t129.5 51.5q62 0 133 -31z" />
    <glyph glyph-name="florin" unicode="&#x192;" 
d="M300 298l-36 -324q-10 -83 -56.5 -128.5t-119.5 -45.5q-44 0 -95 14l28 114q24 -9 51 -9q20 0 32 11.5t15.5 25.5t6.5 40l34 302h-73v119h86l10 86q10 83 57.5 128t123.5 45q75 0 151 -36l-46 -111q-45 29 -90 29q-31 0 -42.5 -19t-15.5 -58l-7 -64h112v-119h-126z" />
    <glyph glyph-name="AEacute" unicode="&#x1fc;" horiz-adv-x="1009" 
d="M507 131h-247l-88 -131h-181l516 700h449v-121h-305v-158h305v-121h-305v-179h305v-121h-449v131zM507 496l-168 -248h168v248zM521 814l172 144l74 -97l-182 -128z" />
    <glyph glyph-name="aeacute" unicode="&#x1fd;" horiz-adv-x="921" 
d="M510 228q8 -56 42.5 -91t89.5 -35q48 0 79 19t58 59l93 -63q-46 -67 -101.5 -98t-138.5 -31q-120 0 -195 77q-47 -45 -95.5 -61t-107.5 -16q-78 0 -133.5 45t-55.5 122q0 61 36 101t84.5 54.5t108.5 14.5q43 0 95 -11v8q0 106 -104 106q-71 0 -159 -46l-38 102
q110 54 226 54q114 0 167 -68q71 68 172 68q110 0 182 -69t72 -174q0 -30 -7 -67h-370zM385 149q-13 33 -18 80q-39 9 -70 9q-46 0 -79.5 -19.5t-33.5 -61.5q0 -33 23.5 -51.5t56.5 -18.5q70 0 121 62zM742 325q-2 47 -31.5 74.5t-73.5 27.5q-94 0 -120 -102h225zM408 640
l133 186l96 -76l-147 -172z" />
    <glyph glyph-name="uni0218" unicode="&#x218;" horiz-adv-x="609" 
d="M468 527q-74 63 -145 63q-38 0 -64.5 -18.5t-26.5 -51.5q0 -11 3.5 -20.5t11.5 -17.5t14.5 -13t21 -11.5t21.5 -9t25 -8.5t23 -8q48 -16 77.5 -30t66.5 -40t55.5 -65.5t18.5 -91.5q0 -72 -42 -123t-100 -72.5t-123 -21.5q-151 0 -268 117l95 93q48 -46 85.5 -67t88.5 -21
q46 0 78.5 22.5t32.5 66.5q0 21 -9.5 37.5t-32.5 30t-40 21t-53 20.5t-56 22t-50 27t-46 37.5t-28.5 51t-12.5 70.5q0 94 67.5 145t161.5 51q123 0 232 -83zM211 -58h127l-55 -191h-108z" />
    <glyph glyph-name="uni0219" unicode="&#x219;" horiz-adv-x="481" 
d="M355 383q-50 44 -104 44q-21 0 -36 -11t-15 -29q0 -22 20.5 -36.5t62.5 -31.5q29 -12 43 -18.5t39.5 -21.5t38 -30t23 -39t10.5 -53q0 -82 -59.5 -125.5t-142.5 -43.5q-122 0 -212 90l81 84q33 -32 60.5 -47t63.5 -15q25 0 46 12t21 34q0 6 -1.5 11.5t-5.5 10.5l-7.5 9
t-10.5 8.5l-12 7.5t-14.5 7.5l-15 7t-16.5 7t-17 7.5q-61 26 -96.5 59.5t-35.5 95.5q0 76 55.5 118.5t132.5 42.5q109 0 182 -69zM150 -58h127l-55 -191h-108z" />
    <glyph glyph-name="uni021A" unicode="&#x21a;" horiz-adv-x="492" 
d="M317 0h-143v579h-166v121h475v-121h-166v-579zM175 -58h127l-55 -191h-108z" />
    <glyph glyph-name="uni021B" unicode="&#x21b;" horiz-adv-x="378" 
d="M217 204q0 -30 2 -45q6 -50 46 -50q27 0 57 15l44 -105q-53 -31 -125 -31q-60 0 -100.5 30.5t-55.5 82.5q-10 32 -10 88v219h-63v118h63l22 116h120v-116h134v-118h-134v-204zM127 -58h127l-55 -191h-108z" />
    <glyph glyph-name="uni0237" unicode="&#x237;" horiz-adv-x="287" 
d="M218 -37q0 -85 -34 -130q-45 -60 -147 -60q-59 0 -114 22l38 112q29 -13 61 -13q33 0 43 20t10 60v552h143v-563z" />
    <glyph glyph-name="uni02BB" unicode="&#x2bb;" horiz-adv-x="360" 
d="M229 579h-128l56 192h109z" />
    <glyph glyph-name="uni02BC" unicode="&#x2bc;" horiz-adv-x="360" 
d="M218 506h-119l41 244h145z" />
    <glyph glyph-name="circumflex" unicode="&#x2c6;" horiz-adv-x="360" 
d="M364 631l-80 -48l-105 129l-104 -129l-80 48l114 168h143z" />
    <glyph glyph-name="caron" unicode="&#x2c7;" horiz-adv-x="360" 
d="M-5 762l81 48l105 -129l104 129l79 -48l-114 -168h-143z" />
    <glyph glyph-name="uni02C9" unicode="&#x2c9;" horiz-adv-x="360" 
d="M9 707h342v-98h-342v98z" />
    <glyph glyph-name="breve" unicode="&#x2d8;" horiz-adv-x="360" 
d="M345 750q0 -69 -48 -116.5t-117 -47.5t-117 47.5t-48 116.5v17h102q-1 -5 -1 -19q0 -28 18.5 -48.5t45.5 -20.5t46 20.5t19 48.5q0 14 -1 19h101v-17z" />
    <glyph glyph-name="dotaccent" unicode="&#x2d9;" horiz-adv-x="360" 
d="M109 720h142v-121h-142v121z" />
    <glyph glyph-name="ring" unicode="&#x2da;" horiz-adv-x="360" 
d="M67 693q0 47 33 80t80 33t80 -33t33 -80t-33 -80t-80 -33t-80 33t-33 80zM135 693q0 -19 13 -32t32 -13t32 13t13 32t-13 32t-32 13t-32 -13t-13 -32z" />
    <glyph glyph-name="ogonek" unicode="&#x2db;" horiz-adv-x="360" 
d="M283 0q-112 -26 -112 -92q0 -40 49 -40q22 0 48 13l32 -78q-46 -30 -111 -30q-57 0 -95.5 30t-38.5 77q0 91 111 129l117 -2v-7z" />
    <glyph glyph-name="tilde" unicode="&#x2dc;" horiz-adv-x="360" 
d="M0 593q-6 19 -6 38q0 46 31.5 74.5t83.5 28.5q37 0 86 -25.5t60 -25.5q23 0 25 23q0 6 -1 7l81 9q6 -19 6 -38q0 -46 -31.5 -74.5t-83.5 -28.5q-37 0 -86 25.5t-60 25.5q-23 0 -25 -23q0 -6 1 -7z" />
    <glyph glyph-name="hungarumlaut" unicode="&#x2dd;" horiz-adv-x="360" 
d="M5 642l132 188l95 -73l-147 -172zM206 640l130 183l96 -76l-144 -169z" />
    <glyph glyph-name="gravecomb" unicode="&#x300;" horiz-adv-x="0" 
d="M-60 826l133 -186l-82 -62l-147 172z" />
    <glyph glyph-name="acutecomb" unicode="&#x301;" horiz-adv-x="0" 
d="M-74 640l133 186l96 -76l-147 -172z" />
    <glyph glyph-name="uni0302" unicode="&#x302;" horiz-adv-x="0" 
d="M184 631l-80 -48l-105 129l-104 -129l-80 48l114 168h143z" />
    <glyph glyph-name="tildecomb" unicode="&#x303;" horiz-adv-x="0" 
d="M-180 593q-6 19 -6 38q0 46 31.5 74.5t83.5 28.5q37 0 86 -25.5t60 -25.5q23 0 25 23q0 6 -1 7l81 9q6 -19 6 -38q0 -46 -31.5 -74.5t-83.5 -28.5q-37 0 -86 25.5t-60 25.5q-23 0 -25 -23q0 -6 1 -7z" />
    <glyph glyph-name="uni0304" unicode="&#x304;" horiz-adv-x="0" 
d="M-171 707h342v-98h-342v98z" />
    <glyph glyph-name="uni0306" unicode="&#x306;" horiz-adv-x="0" 
d="M165 750q0 -69 -48 -116.5t-117 -47.5t-117 47.5t-48 116.5v17h102q-1 -5 -1 -19q0 -28 18.5 -48.5t45.5 -20.5t46 20.5t19 48.5q0 14 -1 19h101v-17z" />
    <glyph glyph-name="uni0307" unicode="&#x307;" horiz-adv-x="0" 
d="M-71 720h142v-121h-142v121z" />
    <glyph glyph-name="uni0308" unicode="&#x308;" horiz-adv-x="0" 
d="M-192 720h143v-121h-143v121zM49 720h143v-121h-143v121z" />
    <glyph glyph-name="uni030A" unicode="&#x30a;" horiz-adv-x="0" 
d="M-113 693q0 47 33 80t80 33t80 -33t33 -80t-33 -80t-80 -33t-80 33t-33 80zM-45 693q0 -19 13 -32t32 -13t32 13t13 32t-13 32t-32 13t-32 -13t-13 -32z" />
    <glyph glyph-name="uni030B" unicode="&#x30b;" horiz-adv-x="0" 
d="M-175 642l132 188l95 -73l-147 -172zM26 640l130 183l96 -76l-144 -169z" />
    <glyph glyph-name="uni030C" unicode="&#x30c;" horiz-adv-x="0" 
d="M-185 762l81 48l105 -129l104 129l79 -48l-114 -168h-143z" />
    <glyph glyph-name="uni0312" unicode="&#x312;" horiz-adv-x="0" 
d="M45 579h-128l56 192h109z" />
    <glyph glyph-name="uni0326" unicode="&#x326;" horiz-adv-x="0" 
d="M-66 -58h127l-55 -191h-108z" />
    <glyph glyph-name="uni0327" unicode="&#x327;" horiz-adv-x="0" 
d="M-3 -61q20 15 47 15q37 0 65 -29t28 -72t-33 -76.5t-81 -33.5q-76 0 -116 70l69 33q12 -32 40 -32q16 0 26.5 10.5t10.5 26.5t-11 28t-26 12q-24 0 -37 -20l-73 37l49 113l68 -13l-27 -69h1z" />
    <glyph glyph-name="uni0328" unicode="&#x328;" horiz-adv-x="0" 
d="M105 0q-112 -26 -112 -92q0 -40 49 -40q22 0 48 13l32 -78q-46 -30 -111 -30q-57 0 -95.5 30t-38.5 77q0 91 111 129l117 -2v-7z" />
    <glyph glyph-name="uni0394" unicode="&#x394;" horiz-adv-x="633" 
d="M259 700h118l268 -700h-657zM313 467l-126 -346h253l-125 346h-2z" />
    <glyph glyph-name="uni03A9" unicode="&#x3a9;" horiz-adv-x="794" 
d="M187 111q-69 51 -105.5 123.5t-36.5 151.5q0 146 102.5 236t249.5 90t249.5 -90t102.5 -236q0 -79 -36.5 -151.5t-105.5 -123.5h172v-111h-341v122q74 28 118 100t44 155q0 94 -57.5 151.5t-145.5 57.5t-145.5 -57.5t-57.5 -151.5q0 -83 44 -155t118 -100v-122h-341v111
h172z" />
    <glyph glyph-name="uni03BC" unicode="&#x3bc;" 
d="M175 257q0 -33 2 -52.5t9.5 -44.5t26 -37.5t48.5 -12.5q32 0 63 17.5t51 48.5v350h142v-526h-123l-11 72q-61 -84 -163 -84q-22 0 -45 7v-245h-142v776h142v-269z" />
    <glyph glyph-name="pi" unicode="&#x3c0;" 
d="M548 411h-89v-225q0 -22 1 -31q1 -51 53 -61l-53 -114q-63 15 -97.5 57t-40.5 103q-1 10 -1 37v234h-109v-333q0 -37 -7 -78h-142q10 38 10 83v328h-57v115h532v-115z" />
    <glyph glyph-name="Wgrave" unicode="&#x1e80;" horiz-adv-x="944" 
d="M662 252l118 448h160l-201 -700h-142l-127 460h-2l-131 -460h-137l-196 700h160l115 -448h2l125 448h134l120 -448h2zM381 958l172 -144l-64 -81l-182 128z" />
    <glyph glyph-name="wgrave" unicode="&#x1e81;" horiz-adv-x="777" 
d="M541 201l83 325h148l-151 -526h-150l-83 301h-2l-84 -301h-153l-144 526h151l78 -326h2l91 326h125l86 -325h3zM312 826l133 -186l-82 -62l-147 172z" />
    <glyph glyph-name="Wacute" unicode="&#x1e82;" horiz-adv-x="944" 
d="M662 252l118 448h160l-201 -700h-142l-127 460h-2l-131 -460h-137l-196 700h160l115 -448h2l125 448h134l120 -448h2zM408 814l172 144l74 -97l-182 -128z" />
    <glyph glyph-name="wacute" unicode="&#x1e83;" horiz-adv-x="777" 
d="M541 201l83 325h148l-151 -526h-150l-83 301h-2l-84 -301h-153l-144 526h151l78 -326h2l91 326h125l86 -325h3zM331 640l133 186l96 -76l-147 -172z" />
    <glyph glyph-name="Wdieresis" unicode="&#x1e84;" horiz-adv-x="944" 
d="M662 252l118 448h160l-201 -700h-142l-127 460h-2l-131 -460h-137l-196 700h160l115 -448h2l125 448h134l120 -448h2zM260 882h149v-120h-149v120zM537 882h149v-120h-149v120z" />
    <glyph glyph-name="wdieresis" unicode="&#x1e85;" horiz-adv-x="777" 
d="M541 201l83 325h148l-151 -526h-150l-83 301h-2l-84 -301h-153l-144 526h151l78 -326h2l91 326h125l86 -325h3zM198 720h143v-121h-143v121zM439 720h143v-121h-143v121z" />
    <glyph glyph-name="uni1E9E" unicode="&#x1e9e;" horiz-adv-x="767" 
d="M361 396q13 -1 54 -1q97 0 97 97q0 48 -35 76t-96 28q-82 0 -120 -46t-38 -145v-404h-144v422q0 141 78.5 215t227.5 74q123 0 195.5 -55.5t72.5 -149.5q0 -99 -77 -146q65 -15 100.5 -59t35.5 -110q0 -95 -64 -148.5t-179 -53.5q-79 0 -152 26l26 105q48 -20 108 -20
q54 0 83.5 24t29.5 68q0 101 -119 101q-48 0 -84 -4v106z" />
    <glyph glyph-name="Ygrave" unicode="&#x1ef2;" horiz-adv-x="608" 
d="M227 293l-223 407h178l121 -252h2l132 252h167l-234 -411v-289h-143v293zM224 958l172 -144l-64 -81l-182 128z" />
    <glyph glyph-name="ygrave" unicode="&#x1ef3;" horiz-adv-x="531" 
d="M264 213h2l108 313h154l-296 -767l-127 49l84 223l-186 495h155zM231 826l133 -186l-82 -62l-147 172z" />
    <glyph glyph-name="uni2009" unicode="&#x2009;" horiz-adv-x="125" 
 />
    <glyph glyph-name="endash" unicode="&#x2013;" horiz-adv-x="600" 
d="M50 378h500v-119h-500v119z" />
    <glyph glyph-name="emdash" unicode="&#x2014;" horiz-adv-x="900" 
d="M50 378h800v-119h-800v119z" />
    <glyph glyph-name="quoteleft" unicode="&#x2018;" horiz-adv-x="306" 
d="M49 424l73 276h135l-57 -276h-151z" />
    <glyph glyph-name="quoteright" unicode="&#x2019;" horiz-adv-x="306" 
d="M257 700l-73 -276h-135l57 276h151z" />
    <glyph glyph-name="quotesinglbase" unicode="&#x201a;" horiz-adv-x="306" 
d="M257 149l-73 -276h-135l57 276h151z" />
    <glyph glyph-name="quotedblleft" unicode="&#x201c;" horiz-adv-x="571" 
d="M66 424l73 276h135l-57 -276h-151zM297 424l73 276h135l-57 -276h-151z" />
    <glyph glyph-name="quotedblright" unicode="&#x201d;" horiz-adv-x="571" 
d="M505 700l-73 -276h-135l57 276h151zM274 700l-73 -276h-135l57 276h151z" />
    <glyph glyph-name="quotedblbase" unicode="&#x201e;" horiz-adv-x="571" 
d="M505 149l-73 -276h-135l57 276h151zM274 149l-73 -276h-135l57 276h151z" />
    <glyph glyph-name="dagger" unicode="&#x2020;" horiz-adv-x="425" 
d="M158 446l-59 -2h-41v102h41l59 -3l-3 109v48h115v-48l-3 -109l59 3h41v-102h-41l-59 2l3 -147v-161h-115v161z" />
    <glyph glyph-name="daggerdbl" unicode="&#x2021;" horiz-adv-x="425" 
d="M157 507l-99 -2v101l99 -2l-2 96h115l-2 -96l99 2v-101l-99 2v-76l99 2v-101l-99 2l2 -53v-143h-115v143l2 53l-99 -2v101l99 -2v76z" />
    <glyph glyph-name="bullet" unicode="&#x2022;" horiz-adv-x="355" 
d="M35 289q0 59 42 101t101 42t100.5 -42t41.5 -101t-41.5 -101t-100.5 -42t-101 42t-42 101z" />
    <glyph glyph-name="ellipsis" unicode="&#x2026;" horiz-adv-x="750" 
d="M55 149h152v-149h-152v149zM542 149h152v-149h-152v149zM298 149h153v-149h-153v149z" />
    <glyph glyph-name="perthousand" unicode="&#x2030;" horiz-adv-x="1248" 
d="M1023 335q73 0 125 -48.5t52 -121.5q0 -74 -52 -122.5t-125 -48.5t-124.5 48.5t-51.5 122.5q0 73 51.5 121.5t124.5 48.5zM1024 235q-29 0 -47 -19.5t-18 -50.5t18 -51t47 -20q27 0 45.5 20t18.5 51q0 30 -18.5 50t-45.5 20zM225 706q73 0 124.5 -48.5t51.5 -122.5
q0 -73 -51.5 -121.5t-124.5 -48.5t-125 48.5t-52 121.5q0 74 52 122.5t125 48.5zM225 606q-29 0 -47 -20t-18 -51t18 -50.5t47 -19.5q28 0 46 19.5t18 50.5t-18 51t-46 20zM632 335q73 0 124.5 -48.5t51.5 -121.5q0 -74 -51.5 -122.5t-124.5 -48.5t-125 48.5t-52 122.5
q0 73 52 121.5t125 48.5zM632 235q-29 0 -47 -19.5t-18 -50.5t18 -51t47 -20q28 0 46 20t18 51t-18 50.5t-46 19.5zM215 -18l-71 53l498 683l71 -53z" />
    <glyph glyph-name="guilsinglleft" unicode="&#x2039;" horiz-adv-x="337" 
d="M287 388l-126 -121l126 -120l-77 -106l-161 169v115l161 168z" />
    <glyph glyph-name="guilsinglright" unicode="&#x203a;" horiz-adv-x="337" 
d="M287 209l-161 -168l-77 106l126 120l-126 120l77 106l161 -168v-116z" />
    <glyph glyph-name="fraction" unicode="&#x2044;" horiz-adv-x="149" 
d="M-139 -18l-71 53l498 683l71 -53z" />
    <glyph glyph-name="uni2070" unicode="&#x2070;" horiz-adv-x="352" 
d="M176 439q52 0 52 128q0 129 -52 129q-51 0 -51 -129q0 -128 51 -128zM176 775q75 0 116.5 -55.5t41.5 -152.5t-41.5 -152t-116.5 -55t-116 55t-41 152q0 98 41 153t116 55z" />
    <glyph glyph-name="uni2074" unicode="&#x2074;" horiz-adv-x="351" 
d="M16 545q72 90 168 223h107v-227h52v-77h-52v-97h-102v97h-173v81zM189 644q-49 -73 -72 -103h72v103z" />
    <glyph glyph-name="uni2075" unicode="&#x2075;" horiz-adv-x="332" 
d="M143 691q0 -39 -5 -76q28 13 53 13q52 0 85.5 -37.5t33.5 -88.5q0 -61 -42.5 -101.5t-104.5 -40.5q-105 0 -147 82l76 38q17 -41 59 -41q23 0 37.5 15.5t14.5 37.5q0 23 -14.5 37.5t-38.5 14.5q-29 0 -47 -24l-63 43q7 72 12 205h239v-77h-148z" />
    <glyph glyph-name="uni2076" unicode="&#x2076;" horiz-adv-x="353" 
d="M270 716q-104 -34 -132 -105q29 18 64 18q57 0 95 -37t38 -94q0 -62 -42.5 -100t-105.5 -38q-75 0 -121.5 46t-46.5 122q0 100 60.5 168.5t159.5 99.5zM124 522q0 -36 14 -60t43 -24q22 0 35 16t13 38q0 24 -13.5 41t-35.5 17q-33 0 -56 -28z" />
    <glyph glyph-name="uni2077" unicode="&#x2077;" horiz-adv-x="300" 
d="M291 713q-64 -132 -163 -369l-94 44q64 147 145 302h-174v78h286v-55z" />
    <glyph glyph-name="uni2078" unicode="&#x2078;" horiz-adv-x="357" 
d="M317 662q0 -54 -49 -85q61 -37 61 -96q0 -52 -44 -86.5t-107 -34.5t-106.5 34t-43.5 87q0 62 59 96q-48 32 -48 85q0 48 39.5 80.5t99.5 32.5q61 0 100 -32.5t39 -80.5zM178 536q-19 0 -31.5 -14t-12.5 -36q0 -21 12.5 -35t31.5 -14t32 14t13 35q0 22 -13 36t-32 14z
M178 696q-16 0 -26 -11.5t-10 -29.5t10 -30t26 -12t26 12t10 30t-10 29.5t-26 11.5z" />
    <glyph glyph-name="uni2079" unicode="&#x2079;" horiz-adv-x="353" 
d="M84 419q104 34 132 105q-28 -18 -64 -18q-57 0 -95 37t-38 94q0 62 42.5 100t105.5 38q75 0 121.5 -46t46.5 -122q0 -100 -60.5 -168.5t-159.5 -99.5zM230 613q0 36 -14 60t-43 24q-22 0 -35 -16t-13 -38q0 -24 13.5 -41t35.5 -17q33 0 56 28z" />
    <glyph glyph-name="uni207A" unicode="&#x207a;" horiz-adv-x="341" 
d="M21 517v80h109v110h80v-110h110v-80h-110v-110h-80v110h-109z" />
    <glyph glyph-name="uni207B" unicode="&#x207b;" horiz-adv-x="342" 
d="M318 517h-294v80h294v-80z" />
    <glyph glyph-name="uni207C" unicode="&#x207c;" horiz-adv-x="342" 
d="M318 581h-294v75h294v-75zM318 457h-294v75h294v-75z" />
    <glyph glyph-name="uni207D" unicode="&#x207d;" horiz-adv-x="232" 
d="M195 261q-177 105 -177 290q0 183 177 291l39 -63q-120 -78 -120 -228q0 -151 119 -227z" />
    <glyph glyph-name="uni207E" unicode="&#x207e;" horiz-adv-x="232" 
d="M-1 324q120 77 120 227q0 149 -120 228l39 63q176 -108 176 -291q0 -185 -177 -290z" />
    <glyph glyph-name="uni207F" unicode="&#x207f;" horiz-adv-x="378" 
d="M39 676h88l5 -44q45 52 96 52q113 0 113 -145v-172h-100v164q0 16 -1 26t-4.5 22.5t-12.5 18.5t-23 6q-32 0 -61 -36v-201h-100v309z" />
    <glyph glyph-name="uni2080" unicode="&#x2080;" horiz-adv-x="352" 
d="M176 -105q52 0 52 128q0 129 -52 129q-51 0 -51 -129q0 -128 51 -128zM176 231q75 0 116.5 -55.5t41.5 -152.5t-41.5 -152t-116.5 -55t-116 55t-41 152q0 98 41 153t116 55z" />
    <glyph glyph-name="uni2081" unicode="&#x2081;" horiz-adv-x="229" 
d="M81 113q-20 -10 -56 -23v85q31 15 91 48h68v-401h-103v291z" />
    <glyph glyph-name="uni2082" unicode="&#x2082;" horiz-adv-x="331" 
d="M26 -104q84 73 140 141q32 44 32 74q0 19 -10 29.5t-27 10.5q-18 0 -28 -15.5t-10 -39.5l-104 13q2 55 41.5 88t96.5 33q60 0 103 -31t43 -83q0 -57 -40 -107q-50 -60 -111 -110h163v-77h-289v74z" />
    <glyph glyph-name="uni2083" unicode="&#x2083;" horiz-adv-x="347" 
d="M114 63q5 -1 15 -1q15 0 31 4q39 10 39 42q0 19 -12.5 31t-33.5 12q-39 0 -52 -39l-80 36q15 39 51 60.5t82 21.5q62 0 105.5 -29t43.5 -77q0 -59 -57 -88q39 -12 57.5 -40t18.5 -61q0 -54 -45 -87t-111 -33q-51 0 -93 22.5t-59 64.5l80 37q22 -45 65 -45q25 0 40.5 13.5
t15.5 33.5q0 25 -19.5 38.5t-49.5 13.5q-10 0 -32 -2v72z" />
    <glyph glyph-name="uni2084" unicode="&#x2084;" horiz-adv-x="351" 
d="M16 0q72 90 168 223h107v-227h52v-77h-52v-97h-102v97h-173v81zM189 99q-49 -73 -72 -103h72v103z" />
    <glyph glyph-name="uni2085" unicode="&#x2085;" horiz-adv-x="332" 
d="M143 146q0 -39 -5 -76q28 13 53 13q52 0 85.5 -37.5t33.5 -88.5q0 -61 -42.5 -101.5t-104.5 -40.5q-105 0 -147 82l76 38q17 -41 59 -41q23 0 37.5 15.5t14.5 37.5q0 23 -14.5 37.5t-38.5 14.5q-29 0 -47 -24l-63 43q7 72 12 205h239v-77h-148z" />
    <glyph glyph-name="uni2086" unicode="&#x2086;" horiz-adv-x="353" 
d="M270 171q-104 -34 -132 -105q28 18 64 18q57 0 95 -37t38 -94q0 -62 -42.5 -100t-105.5 -38q-75 0 -121.5 46t-46.5 122q0 100 60.5 168.5t159.5 99.5zM124 -23q0 -36 14 -60t43 -24q22 0 35 16t13 38q0 24 -13.5 41t-35.5 17q-33 0 -56 -28z" />
    <glyph glyph-name="uni2087" unicode="&#x2087;" horiz-adv-x="300" 
d="M291 168q-64 -132 -163 -369l-94 44q64 147 145 302h-174v78h286v-55z" />
    <glyph glyph-name="uni2088" unicode="&#x2088;" horiz-adv-x="357" 
d="M317 117q0 -54 -49 -85q61 -37 61 -96q0 -52 -44 -86.5t-107 -34.5t-106.5 34t-43.5 87q0 62 59 96q-48 32 -48 85q0 48 39.5 80.5t99.5 32.5q61 0 100 -32.5t39 -80.5zM178 -9q-19 0 -31.5 -14t-12.5 -36q0 -21 12.5 -35t31.5 -14t32 14t13 35q0 22 -13 36t-32 14z
M178 151q-16 0 -26 -11.5t-10 -29.5t10 -30t26 -12t26 12t10 30t-10 29.5t-26 11.5z" />
    <glyph glyph-name="uni2089" unicode="&#x2089;" horiz-adv-x="353" 
d="M84 -126q104 34 132 105q-28 -18 -64 -18q-57 0 -95 37t-38 94q0 62 42.5 100t105.5 38q75 0 121.5 -46t46.5 -122q0 -100 -60.5 -168.5t-159.5 -99.5zM230 68q0 36 -14 60t-43 24q-22 0 -35 -16t-13 -38q0 -24 13.5 -41t35.5 -17q33 0 56 28z" />
    <glyph glyph-name="uni208A" unicode="&#x208a;" horiz-adv-x="341" 
d="M21 -28v80h109v110h80v-110h110v-80h-110v-110h-80v110h-109z" />
    <glyph glyph-name="uni208B" unicode="&#x208b;" horiz-adv-x="342" 
d="M318 -28h-294v80h294v-80z" />
    <glyph glyph-name="uni208C" unicode="&#x208c;" horiz-adv-x="342" 
d="M318 36h-294v75h294v-75zM318 -88h-294v75h294v-75z" />
    <glyph glyph-name="uni208D" unicode="&#x208d;" horiz-adv-x="232" 
d="M195 -284q-177 105 -177 290q0 183 177 291l39 -63q-120 -78 -120 -228q0 -151 119 -227z" />
    <glyph glyph-name="uni208E" unicode="&#x208e;" horiz-adv-x="232" 
d="M-1 -221q120 77 120 227q0 149 -120 228l39 63q176 -108 176 -291q0 -185 -177 -290z" />
    <glyph glyph-name="uni2090" unicode="&#x2090;" horiz-adv-x="349" 
d="M222 -155q-31 -30 -84 -30q-47 0 -80 25.5t-33 71.5q0 53 39.5 77t98.5 24q27 0 51 -4v5q0 24 -15.5 38t-43.5 14q-47 0 -90 -30l-25 68q65 35 134 35q63 0 100.5 -33.5t37.5 -99.5v-184h-85zM214 -45q-16 3 -30 3q-60 0 -60 -42q0 -36 44 -36q23 0 46 18v57z" />
    <glyph glyph-name="uni2091" unicode="&#x2091;" horiz-adv-x="353" 
d="M322 -112q-51 -73 -142 -73q-70 0 -115 44t-45 114t46.5 118t114.5 48q63 0 108 -41.5t45 -103.5q0 -17 -5 -40h-208q8 -65 66 -65q44 0 72 42zM232 14q-2 23 -16.5 37.5t-35.5 14.5q-43 0 -56 -52h108z" />
    <glyph glyph-name="uni2092" unicode="&#x2092;" horiz-adv-x="372" 
d="M186 139q73 0 120 -46.5t47 -115.5q0 -70 -46.5 -116t-120.5 -46t-120.5 46t-46.5 116q0 69 47 115.5t120 46.5zM251 -23q0 36 -18 60t-47 24t-47 -24t-18 -60t18 -60t47 -24q30 0 47.5 23.5t17.5 60.5z" />
    <glyph glyph-name="uni2093" unicode="&#x2093;" horiz-adv-x="368" 
d="M189 51l55 80h121l-120 -155l115 -154h-123l-55 83l-58 -83h-121l123 157l-113 152h123z" />
    <glyph glyph-name="uni2096" unicode="&#x2096;" horiz-adv-x="341" 
d="M140 25l83 106h111l-110 -129l118 -180h-120l-64 104l-19 -23v-81h-100v449h100v-246h1z" />
    <glyph glyph-name="uni2097" unicode="&#x2097;" horiz-adv-x="178" 
d="M39 -178v449h100v-449h-100z" />
    <glyph glyph-name="uni2098" unicode="&#x2098;" horiz-adv-x="555" 
d="M39 131h88l4 -37q41 45 87 45q61 0 90 -46q45 46 100 46q111 0 111 -145v-172h-100v163q0 21 -1.5 34.5t-11 26.5t-27.5 13q-27 0 -53 -27q3 -18 3 -38v-172h-100v163q0 22 -1.5 35t-11 26t-27.5 13q-25 0 -50 -25v-212h-100v309z" />
    <glyph glyph-name="uni2099" unicode="&#x2099;" horiz-adv-x="378" 
d="M39 131h88l5 -44q45 52 96 52q113 0 113 -145v-172h-100v164q0 16 -1 26t-4.5 22.5t-12.5 18.5t-23 6q-32 0 -61 -36v-201h-100v309z" />
    <glyph glyph-name="uni209A" unicode="&#x209a;" horiz-adv-x="387" 
d="M132 95q32 44 93 44q63 0 103 -48t40 -114q0 -65 -39.5 -113.5t-101.5 -48.5q-52 0 -88 33v-169h-100v452h88zM139 -79q23 -26 60 -26q30 0 48.5 23.5t18.5 59.5q0 35 -18.5 58t-46.5 23q-39 0 -62 -34v-104z" />
    <glyph glyph-name="uni209B" unicode="&#x209b;" horiz-adv-x="292" 
d="M217 39q-27 27 -61 27q-24 0 -24 -22q0 -3 1 -5.5t3 -5t4 -4.5t6 -4t7 -4t8 -4l8.5 -3.5l9.5 -4t10 -4.5q35 -15 56.5 -35t21.5 -53q0 -51 -36.5 -76.5t-87.5 -25.5q-75 0 -130 54l53 58q39 -39 74 -39q28 0 28 21q0 4 -1.5 7.5t-5 7t-6.5 6t-10 6t-10.5 5t-12 5.5
l-12.5 6q-35 15 -54.5 34t-19.5 53q0 47 34.5 73.5t81.5 26.5q68 0 114 -43z" />
    <glyph glyph-name="uni209C" unicode="&#x209c;" horiz-adv-x="237" 
d="M230 -164q-39 -21 -80 -21q-105 0 -105 118v125h-35v73h40l14 70h81v-70h76v-73h-76v-115q0 -17 1 -25t6 -16.5t16 -8.5q15 0 34 10z" />
    <glyph glyph-name="Euro" unicode="&#x20ac;" horiz-adv-x="650" 
d="M99 457q26 71 81 122.5t117 74t125 22.5q107 0 211 -64l-61 -103q-66 53 -145 53q-125 0 -181 -105h236v-95h-265q-2 -10 -2 -30q0 -23 2 -33h265v-93h-239q28 -54 78 -79t106 -25q85 0 147 56l73 -94q-101 -76 -229 -76q-102 0 -192.5 55.5t-127.5 162.5h-84v93h66
q-2 22 -2 33q0 10 2 30h-66v95h85z" />
    <glyph glyph-name="uni20BA" unicode="&#x20ba;" horiz-adv-x="618" 
d="M35 242v87l84 29v58l-84 -28v87l84 29v162h133v-128l134 45v-88l-134 -45v-58l135 45v-87l-135 -45v-201h5q102 0 146 39.5t44 155.5h135v-4q0 -164 -78 -238t-234 -74q-84 0 -151 15v273z" />
    <glyph glyph-name="uni2116" unicode="&#x2116;" horiz-adv-x="1143" 
d="M221 438v-438h-143v700h126l324 -439v439h143v-700h-129zM936 728q80 0 131.5 -51t51.5 -127t-51.5 -127t-131.5 -51t-131.5 51t-51.5 127t51.5 127t131.5 51zM936 647q-35 0 -56 -27t-21 -70t21 -70t56 -27t56 27t21 70t-21 70t-56 27z" />
    <glyph glyph-name="trademark" unicode="&#x2122;" horiz-adv-x="983" 
d="M266 274h-103v341h-97v85h297v-85h-97v-341zM633 274l-119 298v-298h-101v426h153l99 -258l103 258h150v-426h-102v296l-121 -296h-62z" />
    <glyph glyph-name="uni2126" unicode="&#x2126;" horiz-adv-x="794" 
d="M187 111q-69 51 -105.5 123.5t-36.5 151.5q0 146 102.5 236t249.5 90t249.5 -90t102.5 -236q0 -79 -36.5 -151.5t-105.5 -123.5h172v-111h-341v122q74 28 118 100t44 155q0 94 -57.5 151.5t-145.5 57.5t-145.5 -57.5t-57.5 -151.5q0 -83 44 -155t118 -100v-122h-341v111
h172z" />
    <glyph glyph-name="uni2153" unicode="&#x2153;" horiz-adv-x="831" 
d="M165 -18l-71 53l498 683l71 -53zM143 596q-29 -16 -57 -26v89q54 27 80 41h75v-362h-98v258zM576 219q20 0 31 3q31 8 31 36q0 15 -10 24.5t-29 9.5q-33 0 -39 -33l-77 36q13 35 46 54.5t73 19.5q54 0 93 -26.5t39 -70.5q0 -23 -13.5 -45t-34.5 -33q29 -10 47 -35.5
t18 -55.5q0 -52 -41 -81.5t-97 -29.5q-45 0 -82 20.5t-54 58.5l77 35q14 -37 55 -37q18 0 31.5 10t13.5 29q0 43 -61 43q-12 0 -24 -3l-1 71h8z" />
    <glyph glyph-name="uni2154" unicode="&#x2154;" horiz-adv-x="931" 
d="M265 -18l-71 53l499 683l71 -53zM86 406q80 70 127 127q29 37 29 66q0 15 -9.5 23.5t-24.5 8.5q-16 0 -25.5 -12t-9.5 -32l-93 15q2 50 38.5 78t91.5 28q52 0 91 -28.5t39 -75.5q0 -50 -38 -98q-34 -42 -88 -87h136v-80h-264v67zM676 219q20 0 31 3q31 8 31 36
q0 15 -10 24.5t-29 9.5q-33 0 -39 -33l-77 36q13 35 46 54.5t73 19.5q54 0 93 -26.5t39 -70.5q0 -23 -13.5 -45t-34.5 -33q29 -10 47 -35.5t18 -55.5q0 -52 -41 -81.5t-97 -29.5q-45 0 -82 20.5t-54 58.5l77 35q14 -37 55 -37q18 0 31.5 10t13.5 29q0 43 -61 43
q-12 0 -24 -3l-1 71h8z" />
    <glyph glyph-name="oneeighth" unicode="&#x215b;" horiz-adv-x="841" 
d="M165 -18l-71 53l498 683l71 -53zM143 596q-29 -16 -57 -26v89q54 27 80 41h75v-362h-98v258zM761 103q0 -50 -41.5 -80t-98.5 -30q-56 0 -97.5 30t-41.5 80q0 59 55 87q-44 30 -44 77q0 43 35.5 73t92.5 30t93 -30t36 -73q0 -47 -45 -77q56 -27 56 -87zM586 263
q0 -15 10 -25t25 -10t25.5 10t10.5 25q0 14 -10.5 24t-25.5 10t-25 -10t-10 -24zM580 106q0 -17 12 -28.5t29 -11.5q18 0 30 11.5t12 28.5t-12 29t-30 12q-17 0 -29 -12t-12 -29z" />
    <glyph glyph-name="threeeighths" unicode="&#x215c;" horiz-adv-x="920" 
d="M243 -18l-71 53l499 683l71 -53zM179 558q21 0 31 3q31 8 31 36q0 15 -10 24.5t-29 9.5q-33 0 -39 -33l-77 36q13 35 46 54.5t73 19.5q54 0 93 -26.5t39 -70.5q0 -23 -13.5 -45t-34.5 -33q29 -10 47 -35.5t18 -55.5q0 -52 -41 -81.5t-97 -29.5q-45 0 -82 20.5t-54 58.5
l77 35q14 -37 55 -37q18 0 31.5 10t13.5 29q0 43 -61 43q-12 0 -24 -3l-1 71h8zM840 103q0 -50 -41.5 -80t-98.5 -30q-56 0 -97.5 30t-41.5 80q0 59 55 87q-44 30 -44 77q0 43 35.5 73t92.5 30t93 -30t36 -73q0 -47 -45 -77q56 -27 56 -87zM665 263q0 -15 10 -25t25 -10
t25.5 10t10.5 25q0 14 -10.5 24t-25.5 10t-25 -10t-10 -24zM659 106q0 -17 12 -28.5t29 -11.5q18 0 30 11.5t12 28.5t-12 29t-30 12q-17 0 -29 -12t-12 -29z" />
    <glyph glyph-name="fiveeighths" unicode="&#x215d;" horiz-adv-x="910" 
d="M233 -18l-71 53l499 683l71 -53zM197 620q-1 -24 -5 -60q20 12 48 12q47 0 77 -34t30 -79q0 -54 -38.5 -91t-94.5 -37q-96 0 -134 74l77 37q13 -34 49 -34q20 0 31.5 12.5t11.5 32.5q0 19 -11.5 31t-32.5 12q-24 0 -40 -20l-63 38q8 86 12 186h216v-80h-133zM830 103
q0 -50 -41.5 -80t-98.5 -30q-56 0 -97.5 30t-41.5 80q0 59 55 87q-44 30 -44 77q0 43 35.5 73t92.5 30t93 -30t36 -73q0 -47 -45 -77q56 -27 56 -87zM655 263q0 -15 10 -25t25 -10t25.5 10t10.5 25q0 14 -10.5 24t-25.5 10t-25 -10t-10 -24zM649 106q0 -17 12 -28.5
t29 -11.5q18 0 30 11.5t12 28.5t-12 29t-30 12q-17 0 -29 -12t-12 -29z" />
    <glyph glyph-name="seveneighths" unicode="&#x215e;" horiz-adv-x="846" 
d="M169 -18l-71 53l499 683l71 -53zM349 644q-61 -116 -150 -326l-90 39q47 111 128 263h-154v80h266v-56zM766 103q0 -50 -41.5 -80t-98.5 -30q-56 0 -97.5 30t-41.5 80q0 59 55 87q-44 30 -44 77q0 43 35.5 73t92.5 30t93 -30t36 -73q0 -47 -45 -77q56 -27 56 -87z
M591 263q0 -15 10 -25t25 -10t25.5 10t10.5 25q0 14 -10.5 24t-25.5 10t-25 -10t-10 -24zM585 106q0 -17 12 -28.5t29 -11.5q18 0 30 11.5t12 28.5t-12 29t-30 12q-17 0 -29 -12t-12 -29z" />
    <glyph glyph-name="arrowleft" unicode="&#x2190;" horiz-adv-x="1000" 
d="M407 725l96 -93l-207 -204h685v-135h-685l207 -204l-96 -93l-367 364z" />
    <glyph glyph-name="arrowup" unicode="&#x2191;" horiz-adv-x="900" 
d="M721 378l-204 207v-685h-135v685l-204 -207l-93 96l365 367l364 -367z" />
    <glyph glyph-name="arrowright" unicode="&#x2192;" horiz-adv-x="1000" 
d="M518 89l207 204h-685v135h685l-207 204l96 93l367 -365l-367 -364z" />
    <glyph glyph-name="arrowdown" unicode="&#x2193;" horiz-adv-x="900" 
d="M85 248l93 96l204 -207v685h135v-685l204 207l93 -96l-364 -367z" />
    <glyph glyph-name="arrowboth" unicode="&#x2194;" horiz-adv-x="1206" 
d="M352 -28l-293 292l293 292l77 -75l-165 -163h678l-165 163l77 75l293 -292l-293 -292l-77 75l165 163h-678l165 -163z" />
    <glyph glyph-name="uni2196" unicode="&#x2196;" horiz-adv-x="1000" 
d="M281 464l2 -289h-134l-1 518l518 -1v-134l-290 2l485 -484l-96 -96z" />
    <glyph glyph-name="uni2197" unicode="&#x2197;" horiz-adv-x="1000" 
d="M624 560l-290 -2v134l518 1l-1 -518h-134l2 289l-484 -484l-96 96z" />
    <glyph glyph-name="uni2198" unicode="&#x2198;" horiz-adv-x="1000" 
d="M719 229l-2 289h134l1 -518l-518 1v134l290 -2l-485 484l96 96z" />
    <glyph glyph-name="uni2199" unicode="&#x2199;" horiz-adv-x="1000" 
d="M376 133l290 2v-134l-518 -1l1 518h134l-2 -289l484 484l96 -96z" />
    <glyph glyph-name="arrowdblright" unicode="&#x21d2;" horiz-adv-x="1045" 
d="M810 240l26 24l-26 24h-751v106h645l-88 87l76 75l294 -292l-294 -292l-76 75l88 87h-645v106h751z" />
    <glyph glyph-name="arrowdblboth" unicode="&#x21d4;" horiz-adv-x="1238" 
d="M885 556l294 -292l-294 -292l-76 75l88 87h-556l88 -87l-76 -75l-294 292l294 292l76 -75l-88 -87h556l-88 87zM235 240h768l26 24l-26 24h-768l-26 -24z" />
    <glyph glyph-name="uni21FD" unicode="&#x21fd;" horiz-adv-x="971" 
d="M396 591v-273h516v-108h-516v-274l-337 328zM292 181v165l-83 -82z" />
    <glyph glyph-name="uni21FE" unicode="&#x21fe;" horiz-adv-x="971" 
d="M575 210h-516v108h516v273l337 -327l-337 -328v274zM679 181l83 83l-83 82v-165z" />
    <glyph glyph-name="uni21FF" unicode="&#x21ff;" horiz-adv-x="1237" 
d="M396 591v-273h445v273l337 -327l-337 -328v274h-445v-274l-337 328zM945 181l83 83l-83 82v-165zM292 181v165l-83 -82z" />
    <glyph glyph-name="universal" unicode="&#x2200;" horiz-adv-x="689" 
d="M222 570h249l47 130h159l-286 -700h-116l-263 700h165zM262 453l81 -235h1l85 235h-167z" />
    <glyph glyph-name="partialdiff" unicode="&#x2202;" 
d="M71 795q484 -205 484 -531q0 -121 -79.5 -198.5t-204.5 -77.5q-114 0 -194 82.5t-80 196.5q0 105 75.5 182t182.5 77q14 0 34 -4q-85 84 -264 160zM387 387q-42 21 -87 21q-71 0 -117 -37.5t-46 -102.5q0 -64 39.5 -112.5t101.5 -48.5t99 43.5t37 106.5q0 68 -27 130z
" />
    <glyph glyph-name="existential" unicode="&#x2203;" horiz-adv-x="580" 
d="M502 0h-449v121h306v158h-306v121h306v179h-306v121h449v-700z" />
    <glyph glyph-name="uni2204" unicode="&#x2204;" horiz-adv-x="580" 
d="M502 700v-700h-317l-23 -82l-95 25l16 57h-30v121h65l45 158h-110v121h145l51 179h-196v121h231l25 87l95 -25l-18 -62h116zM220 121h139v158h-94zM300 400h59v179h-8z" />
    <glyph glyph-name="uni2206" unicode="&#x2206;" 
d="M213 577h126l221 -577h-571zM270 366l-90 -249h184l-92 249h-2z" />
    <glyph glyph-name="element" unicode="&#x2208;" 
d="M371 0q-170 0 -251.5 71t-81.5 192t81.5 192t251.5 71h130v-116h-150q-132 0 -169 -89h319v-116h-319q37 -89 169 -89h150v-116h-130z" />
    <glyph glyph-name="notelement" unicode="&#x2209;" 
d="M201 25q-163 59 -163 238q0 116 75 186t231 76l36 126l96 -25l-29 -100h54v-116h-87l-26 -89h113v-116h-146l-26 -89h172v-116h-130q-43 0 -74 4l-37 -129l-95 25zM310 407q-97 -13 -128 -86h103zM182 205q16 -39 53 -62l17 62h-70z" />
    <glyph glyph-name="product" unicode="&#x220f;" 
d="M468 0h-140v461h-106v-461h-139v461h-88v116h560v-116h-87v-461z" />
    <glyph glyph-name="summation" unicode="&#x2211;" 
d="M544 121v-121h-537v73l235 288l-225 265v74h503v-121h-283l182 -214l-190 -244h315z" />
    <glyph glyph-name="minus" unicode="&#x2212;" 
d="M517 251h-485v120h485v-120z" />
    <glyph glyph-name="uni2215" unicode="&#x2215;" horiz-adv-x="405" 
d="M0 -14l290 782l115 -45l-290 -783z" />
    <glyph glyph-name="uni2219" unicode="&#x2219;" 
d="M198 388h153v-149h-153v149z" />
    <glyph glyph-name="radical" unicode="&#x221a;" 
d="M196 0l-120 410h-80v116h197l74 -295h2l153 519h147l-242 -750h-131z" />
    <glyph glyph-name="infinity" unicode="&#x221e;" horiz-adv-x="778" 
d="M395 324q50 54 90.5 81t86.5 27q73 0 123 -52.5t50 -127.5t-50 -127t-123 -52q-89 0 -189 108q-50 -54 -90.5 -81t-86.5 -27q-73 0 -123 52.5t-50 128.5q0 74 50 126t123 52q88 0 189 -108zM471 253q61 -63 87 -63q22 0 36.5 19t14.5 44t-14.5 44t-36.5 19q-26 0 -87 -63
zM307 254q-60 62 -87 62q-22 0 -36.5 -18.5t-14.5 -43.5t14.5 -44.5t36.5 -19.5q27 0 87 64z" />
    <glyph glyph-name="intersection" unicode="&#x2229;" 
d="M384 0v279q0 73 -30 108t-79 35t-79 -35t-30 -108v-279h-116v244q0 150 60 222t166 72q105 0 164.5 -72t59.5 -222v-244h-116z" />
    <glyph glyph-name="union" unicode="&#x222a;" 
d="M166 526v-279q0 -73 30 -108t79 -35t79 35t30 108v279h116v-244q0 -150 -60 -222t-166 -72q-105 0 -164.5 72t-59.5 222v244h116z" />
    <glyph glyph-name="integral" unicode="&#x222b;" 
d="M75 -80q35 -22 63 -22q21 0 32 14q12 17 14 73l23 584q5 105 51 151q42 42 120 42q66 0 133 -31l-37 -110q-33 21 -68 21q-30 0 -42 -13q-14 -15 -17 -73l-25 -584q-5 -107 -54 -155q-39 -38 -114 -38q-49 0 -116 31z" />
    <glyph glyph-name="therefore" unicode="&#x2234;" 
d="M51 149h153v-149h-153v149zM199 400h153v-149h-153v149zM347 149h153v-149h-153v149z" />
    <glyph glyph-name="approxequal" unicode="&#x2248;" 
d="M29 194q20 48 60.5 77t92.5 29q39 0 98.5 -27t84.5 -27q47 0 75 49l81 -63q-20 -49 -60 -77.5t-93 -28.5q-39 0 -98.5 27t-84.5 27q-47 0 -75 -49zM128 500h54q39 0 98.5 -27t84.5 -27q46 0 75 48l81 -62q-20 -49 -60 -77.5t-93 -28.5q-39 0 -98.5 27t-84.5 27
q-46 0 -75 -49l-81 63l20 47z" />
    <glyph glyph-name="notequal" unicode="&#x2260;" 
d="M399 598l85 -59l-51 -75h84v-113h-160l-54 -80h214v-113h-291l-88 -130l-85 58l48 72h-69v113h145l55 80h-200v113h277z" />
    <glyph glyph-name="lessequal" unicode="&#x2264;" 
d="M537 538l-351 -140l351 -140v-119l-525 210v98l525 209v-118zM537 0h-525v113h525v-113z" />
    <glyph glyph-name="greaterequal" unicode="&#x2265;" 
d="M537 349l-525 -210v119l351 140l-351 140v118l525 -209v-98zM537 0h-525v113h525v-113z" />
    <glyph glyph-name="propersubset" unicode="&#x2282;" 
d="M371 0q-170 0 -251.5 71t-81.5 192t81.5 192t251.5 71h130v-116h-150q-91 0 -135.5 -41.5t-44.5 -105.5t44.5 -105.5t135.5 -41.5h150v-116h-130z" />
    <glyph glyph-name="propersuperset" unicode="&#x2283;" 
d="M49 116h150q91 0 135.5 41.5t44.5 105.5t-44.5 105.5t-135.5 41.5h-150v116h130q170 0 251.5 -71t81.5 -192t-81.5 -192t-251.5 -71h-130v116z" />
    <glyph glyph-name="notsubset" unicode="&#x2284;" 
d="M201 25q-163 59 -163 238q0 116 75 186t231 76l36 126l96 -25l-29 -100h54v-116h-87l-85 -294h172v-116h-130q-43 0 -74 4l-37 -129l-95 25zM310 407q-70 -9 -104.5 -48.5t-34.5 -95.5q0 -82 64 -120z" />
    <glyph glyph-name="uni2285" unicode="&#x2285;" 
d="M349 500q163 -59 163 -237q0 -116 -75.5 -186.5t-230.5 -76.5l-36 -125l-96 25l29 100h-54v116h87l84 293q-7 1 -21 1h-150v116h130q28 0 74 -4l37 129l95 -25zM240 118q70 9 104.5 49t34.5 96q0 79 -64 119z" />
    <glyph glyph-name="reflexsubset" unicode="&#x2286;" 
d="M371 191q-170 0 -251.5 71t-81.5 192t81.5 192t251.5 71h130v-116h-150q-91 0 -135.5 -41.5t-44.5 -105.5t44.5 -105.5t135.5 -41.5h150v-116h-130zM501 116v-116h-443v116h443z" />
    <glyph glyph-name="reflexsuperset" unicode="&#x2287;" 
d="M49 307h150q91 0 135.5 41.5t44.5 105.5t-44.5 105.5t-135.5 41.5h-150v116h130q170 0 251.5 -71t81.5 -192t-81.5 -192t-251.5 -71h-130v116zM49 0v116h443v-116h-443z" />
    <glyph glyph-name="uni22C4" unicode="&#x22c4;" 
d="M275 575l210 -325l-210 -325l-210 325zM361 250l-86 135l-86 -135l86 -135z" />
    <glyph glyph-name="filledbox" unicode="&#x25a0;" 
d="M462 27h-374v374h374v-374z" />
    <glyph glyph-name="uni25A1" unicode="&#x25a1;" 
d="M462 27h-374v374h374v-374zM353 136v156h-156v-156h156z" />
    <glyph glyph-name="triagup" unicode="&#x25b2;" horiz-adv-x="428" 
d="M40 131l173 308l175 -308h-348z" />
    <glyph glyph-name="uni25B6" unicode="&#x25b6;" horiz-adv-x="398" 
d="M60 459l308 -173l-308 -175v348z" />
    <glyph glyph-name="uni25B7" unicode="&#x25b7;" horiz-adv-x="542" 
d="M482 285l-422 -246v492zM157 363v-157l138 79z" />
    <glyph glyph-name="triagdn" unicode="&#x25bc;" horiz-adv-x="428" 
d="M388 399l-173 -308l-175 308h348z" />
    <glyph glyph-name="uni25C0" unicode="&#x25c0;" horiz-adv-x="398" 
d="M338 459v-348l-308 175z" />
    <glyph glyph-name="uni25C1" unicode="&#x25c1;" horiz-adv-x="512" 
d="M30 285l422 246v-492zM355 363l-138 -78l138 -79v157z" />
    <glyph glyph-name="uni25C6" unicode="&#x25c6;" horiz-adv-x="356" 
d="M178 40l-148 236l148 236l148 -236z" />
    <glyph glyph-name="uni25C9" unicode="&#x25c9;" horiz-adv-x="366" 
d="M39 283q0 59 42.5 101.5t101.5 42.5t101.5 -42.5t42.5 -101.5t-42.5 -101.5t-101.5 -42.5t-101.5 42.5t-42.5 101.5zM128 283q0 23 16 39t39 16t39 -16t16 -39t-16 -39t-39 -16t-39 16t-16 39zM75 283q0 -44 32 -76t76 -32t76 32t32 76t-32 76t-76 32t-76 -32t-32 -76z
" />
    <glyph glyph-name="lozenge" unicode="&#x25ca;" 
d="M333 700l196 -350l-196 -350h-116l-196 350l196 350h116zM390 350l-116 208l-114 -208l114 -208z" />
    <glyph glyph-name="circle" unicode="&#x25cb;" horiz-adv-x="366" 
d="M35 289q0 61 43.5 104.5t104.5 43.5t104.5 -43.5t43.5 -104.5t-43.5 -104.5t-104.5 -43.5t-104.5 43.5t-43.5 104.5zM121 289q0 -25 18.5 -43.5t43.5 -18.5t43.5 18.5t18.5 43.5t-18.5 43.5t-43.5 18.5t-43.5 -18.5t-18.5 -43.5z" />
    <glyph glyph-name="uni25CF" unicode="&#x25cf;" horiz-adv-x="366" 
d="M35 289q0 61 43.5 104.5t104.5 43.5t104.5 -43.5t43.5 -104.5t-43.5 -104.5t-104.5 -43.5t-104.5 43.5t-43.5 104.5z" />
    <glyph glyph-name="uni25FB" unicode="&#x25fb;" horiz-adv-x="388" 
d="M328 423v-268h-268v268h268zM250 233v112h-112v-112h112z" />
    <glyph glyph-name="uni25FC" unicode="&#x25fc;" horiz-adv-x="388" 
d="M328 423v-268h-268v268h268z" />
    <glyph glyph-name="uni27A1" unicode="&#x27a1;" horiz-adv-x="523" 
d="M80 184l156 103l-156 103l78 109l285 -212l-285 -212z" />
    <glyph glyph-name="uni2B05" unicode="&#x2b05;" horiz-adv-x="523" 
d="M365 499l78 -109l-156 -103l156 -103l-78 -109l-285 212z" />
    <glyph glyph-name="uni2B06" unicode="&#x2b06;" horiz-adv-x="584" 
d="M395 116l-103 156l-103 -156l-109 78l212 285l212 -285z" />
    <glyph glyph-name="uni2B07" unicode="&#x2b07;" horiz-adv-x="584" 
d="M189 459l103 -156l103 156l109 -78l-212 -286l-212 286z" />
    <glyph glyph-name="uni2B08" unicode="&#x2b08;" horiz-adv-x="512" 
d="M248 96l37 183l-183 -37l-22 132l352 52l-52 -352z" />
    <glyph glyph-name="uni2B09" unicode="&#x2b09;" horiz-adv-x="512" 
d="M432 374l-22 -132l-183 37l37 -183l-132 -22l-52 352z" />
    <glyph glyph-name="uni2B0A" unicode="&#x2b0a;" horiz-adv-x="512" 
d="M80 126l22 132l183 -37l-37 183l132 22l52 -352z" />
    <glyph glyph-name="uni2B0B" unicode="&#x2b0b;" horiz-adv-x="512" 
d="M264 404l-37 -183l183 37l22 -132l-352 -52l52 352z" />
    <glyph glyph-name="commainferior" unicode="&#xf6e1;" horiz-adv-x="164" 
d="M6 -250l34 167h96l-44 -167h-86z" />
    <glyph glyph-name="commasuperior" unicode="&#xf6e2;" horiz-adv-x="164" 
d="M6 295l34 167h96l-44 -167h-86z" />
    <glyph glyph-name="hypheninferior" unicode="&#xf6e5;" horiz-adv-x="277" 
d="M57 32h163v-74h-163v74z" />
    <glyph glyph-name="hyphensuperior" unicode="&#xf6e6;" horiz-adv-x="277" 
d="M57 577h163v-74h-163v74z" />
    <glyph glyph-name="periodinferior" unicode="&#xf6e7;" horiz-adv-x="153" 
d="M28 -84h97v-94h-97v94z" />
    <glyph glyph-name="periodsuperior" unicode="&#xf6e8;" horiz-adv-x="153" 
d="M28 461h97v-94h-97v94z" />
    <glyph glyph-name="IJacute" horiz-adv-x="674" 
d="M78 700h143v-700h-143v700zM605 186q0 -103 -45 -151q-44 -47 -139 -47q-67 0 -131 32l45 113q35 -20 69 -20q35 0 48 21q10 18 10 69v497h143v-514zM85 814l172 144l74 -97l-182 -128zM467 814l172 144l74 -97l-182 -128z" />
    <glyph glyph-name="i.loclTRK" horiz-adv-x="280" 
d="M69 526h142v-526h-142v526zM69 720h142v-121h-142v121z" />
    <glyph glyph-name="ijacute" horiz-adv-x="566" 
d="M69 526h142v-526h-142v526zM83 640l133 186l96 -76l-147 -172zM372 640l133 186l96 -76l-147 -172zM498 -37q0 -85 -34 -130q-45 -60 -147 -60q-59 0 -114 22l38 112q29 -13 61 -13q33 0 43 20t10 60v552h143v-563z" />
    <glyph glyph-name="s_t" horiz-adv-x="859" 
d="M355 383q-50 44 -104 44q-21 0 -36 -11t-15 -29q0 -22 20.5 -36.5t62.5 -31.5q29 -12 43 -18.5t39.5 -21.5t38 -30t23 -39t10.5 -53q0 -82 -59.5 -125.5t-142.5 -43.5q-122 0 -212 90l81 84q33 -32 60.5 -47t63.5 -15q25 0 46 12t21 34q0 6 -1.5 11.5t-5.5 10.5l-7.5 9
t-10.5 8.5l-12 7.5t-14.5 7.5l-15 7t-16.5 7t-17 7.5q-61 26 -96.5 59.5t-35.5 95.5q0 76 55.5 118.5t132.5 42.5q109 0 182 -69zM698 204q0 -30 2 -45q6 -50 46 -50q27 0 57 15l44 -105q-53 -31 -125 -31q-60 0 -100.5 30.5t-55.5 82.5q-10 32 -10 88v219h-63v118h63
l22 116h120v-116h134v-118h-134v-204z" />
    <glyph glyph-name="s_p" horiz-adv-x="1125" 
d="M355 383q-50 44 -104 44q-21 0 -36 -11t-15 -29q0 -22 20.5 -36.5t62.5 -31.5q29 -12 43 -18.5t39.5 -21.5t38 -30t23 -39t10.5 -53q0 -82 -59.5 -125.5t-142.5 -43.5q-122 0 -212 90l81 84q33 -32 60.5 -47t63.5 -15q25 0 46 12t21 34q0 6 -1.5 11.5t-5.5 10.5l-7.5 9
t-10.5 8.5l-12 7.5t-14.5 7.5l-15 7t-16.5 7t-17 7.5q-61 26 -96.5 59.5t-35.5 95.5q0 76 55.5 118.5t132.5 42.5q109 0 182 -69zM684 461q26 39 71.5 58t91.5 19q104 0 174.5 -80.5t70.5 -196.5q0 -113 -70.5 -193t-175.5 -80q-99 0 -154 63v-301h-142v776h123zM692 167
q48 -57 122 -57q64 0 98.5 46.5t34.5 108.5t-36 106.5t-95 44.5q-82 0 -124 -70v-179z" />
    <glyph glyph-name="c_t" horiz-adv-x="909" 
d="M489 53q-73 -65 -189 -65q-117 0 -192 76.5t-75 198.5q0 116 76.5 195.5t194.5 79.5q106 0 185 -65l-73 -99q-45 42 -102 42q-59 0 -97.5 -44.5t-38.5 -108.5q0 -66 38.5 -109.5t95.5 -43.5q60 0 101 40zM748 204q0 -30 2 -45q6 -50 46 -50q27 0 57 15l44 -105
q-53 -31 -125 -31q-60 0 -100.5 30.5t-55.5 82.5q-10 32 -10 88v219h-63v118h63l22 116h120v-116h134v-118h-134v-204z" />
    <glyph glyph-name="c_h" horiz-adv-x="1129" 
d="M489 53q-73 -65 -189 -65q-117 0 -192 76.5t-75 198.5q0 116 76.5 195.5t194.5 79.5q106 0 185 -65l-73 -99q-45 42 -102 42q-59 0 -97.5 -44.5t-38.5 -108.5q0 -66 38.5 -109.5t95.5 -43.5q60 0 101 40zM722 464q61 74 155 74q86 0 140 -69q47 -61 47 -196v-273h-142
v266q0 81 -16 113q-18 37 -70 37q-32 0 -63.5 -18t-50.5 -49v-349h-142v750h142v-286z" />
    <glyph glyph-name="c_k" horiz-adv-x="1066" 
d="M489 53q-73 -65 -189 -65q-117 0 -192 76.5t-75 198.5q0 116 76.5 195.5t194.5 79.5q106 0 185 -65l-73 -99q-45 42 -102 42q-59 0 -97.5 -44.5t-38.5 -108.5q0 -66 38.5 -109.5t95.5 -43.5q60 0 101 40zM773 195l-51 -59v-136h-142v750h142v-438h2l170 214h162
l-188 -220l200 -306h-174z" />
    <glyph glyph-name="T_h" horiz-adv-x="1109" 
d="M317 0h-143v579h-166v121h475v-121h-166v-579zM702 464q61 74 155 74q86 0 140 -69q47 -61 47 -196v-273h-142v266q0 81 -16 113q-18 37 -70 37q-32 0 -63.5 -18t-50.5 -49v-349h-142v750h142v-286z" />
    <glyph glyph-name="commaaccentbelow" horiz-adv-x="360" 
d="M114 -58h127l-55 -191h-108z" />
    <glyph glyph-name="caron.alt" horiz-adv-x="360" 
d="M111 750h132l-57 -217h-119z" />
    <glyph glyph-name="tilde.case" horiz-adv-x="360" 
d="M360 887q6 -19 6 -39q0 -46 -31.5 -74.5t-83.5 -28.5q-37 0 -85.5 25.5t-60.5 25.5q-23 0 -25 -23q0 -5 1 -7l-81 -9q-7 23 -7 39q0 46 32 74.5t84 28.5q36 0 85 -25.5t60 -25.5q10 0 17.5 6t7.5 17q0 5 -1 7z" />
    <glyph glyph-name="ring.case" horiz-adv-x="360" 
d="M180 943q47 0 80 -33t33 -80t-33 -80t-80 -33t-80 33t-33 80t33 80t80 33zM180 876q-20 0 -33 -13t-13 -33t13 -33t33 -13t33 13t13 33t-13 33t-33 13z" />
    <glyph glyph-name="circumflex.case" horiz-adv-x="360" 
d="M372 794l-82 -60l-111 126l-112 -126l-81 60l117 149h156z" />
    <glyph glyph-name="acute.case" horiz-adv-x="360" 
d="M95 814l172 144l74 -97l-182 -128z" />
    <glyph glyph-name="grave.case" horiz-adv-x="360" 
d="M85 958l172 -144l-64 -81l-182 128z" />
    <glyph glyph-name="dieresis.case" horiz-adv-x="360" 
d="M-33 882h149v-120h-149v120zM244 882h149v-120h-149v120z" />
    <glyph glyph-name="caron.case" horiz-adv-x="360" 
d="M-14 895l83 60l111 -126l112 126l80 -60l-117 -149h-156z" />
    <glyph glyph-name="macron.case" horiz-adv-x="360" 
d="M-2 867h364v-95h-364v95z" />
    <glyph glyph-name="dotaccent.case" horiz-adv-x="360" 
d="M107 882h146v-120h-146v120z" />
    <glyph glyph-name="hungarumlaut.case" horiz-adv-x="360" 
d="M215 814l168 141l74 -97l-178 -125zM-31 810l172 144l72 -93l-182 -128z" />
    <glyph glyph-name="breve.case" horiz-adv-x="360" 
d="M119 909q-1 -5 -1 -13q0 -27 17 -44.5t45 -17.5t46.5 17.5t18.5 44.5q0 8 -1 13h101v-12q0 -68 -47.5 -112t-117.5 -44t-117.5 44t-47.5 112v12h104z" />
    <glyph glyph-name="hyphen.case" horiz-adv-x="447" 
d="M82 404h283v-118h-283v118z" />
    <glyph glyph-name="at.case" horiz-adv-x="798" 
d="M554 38q-81 -40 -162 -40q-145 0 -246 101t-101 243q0 147 103.5 246.5t249.5 99.5q150 0 252.5 -90t102.5 -237q0 -87 -45 -146t-124 -59q-76 0 -110 67q-32 -46 -105 -46q-61 0 -99.5 47.5t-38.5 113.5q0 62 37 112.5t99 50.5q52 0 82 -35v29h100v-150q0 -46 7.5 -67
t26.5 -21q24 0 39 30t15 64q0 113 -61 175t-177 62q-101 0 -169.5 -70t-68.5 -175q0 -103 67.5 -174t164.5 -71q57 0 109 26zM449 384q-27 30 -59 30q-29 0 -44 -23t-15 -54q0 -28 15 -49.5t42 -21.5q43 0 61 47v71z" />
    <glyph glyph-name="exclamdown.case" horiz-adv-x="327" 
d="M96 461h135l11 -336v-125h-157v125zM240 551h-153v149h153v-149z" />
    <glyph glyph-name="questiondown.case" horiz-adv-x="545" 
d="M350 309q-39 -13 -59 -21.5t-45.5 -23.5t-36.5 -35t-11 -47q0 -32 19.5 -54t53.5 -22q35 0 54.5 22.5t19.5 62.5v21h139v-17q0 -92 -60.5 -149.5t-152.5 -57.5q-93 0 -152 59t-59 132q0 43 10.5 75.5t33.5 56t44.5 38.5t56.5 33v79h145v-152zM354 551h-153v149h153v-149z
" />
    <glyph glyph-name="a.sc" horiz-adv-x="608" 
d="M373 595l227 -595h-158l-39 107h-202l-38 -107h-154l238 595h126zM360 223l-58 170h-2l-58 -170h118z" />
    <glyph glyph-name="b.sc" horiz-adv-x="574" 
d="M250 595q84 0 143 -24q105 -41 105 -146q0 -81 -74 -114q46 -15 71.5 -51t25.5 -82q0 -112 -121 -155q-66 -23 -158 -23h-169v595h177zM246 117q64 0 91 11q35 15 35 55q0 30 -23 47t-63 17h-71v-130h31zM252 358q103 0 103 58q0 33 -24 47t-79 14h-37v-119h37z" />
    <glyph glyph-name="c.sc" horiz-adv-x="585" 
d="M555 52q-82 -64 -190 -64q-143 0 -235.5 86t-92.5 223q0 133 95 221.5t233 88.5q93 0 182 -58l-63 -105q-61 45 -121 45q-78 0 -128.5 -54t-50.5 -138q0 -88 48 -139.5t131 -51.5q65 0 120 45z" />
    <glyph glyph-name="d.sc" horiz-adv-x="631" 
d="M179 595q165 0 238 -28q82 -33 131.5 -99.5t49.5 -167.5q0 -113 -58 -185.5t-150 -95.5q-83 -19 -208 -19h-108v595h105zM217 118q68 1 114 12q120 29 120 163q0 117 -79 157q-53 26 -155 27v-359z" />
    <glyph glyph-name="e.sc" horiz-adv-x="530" 
d="M74 595h395v-118h-252v-114h252v-118h-252v-127h252v-118h-395v595z" />
    <glyph glyph-name="f.sc" horiz-adv-x="462" 
d="M217 0h-143v595h346v-118h-203v-126h203v-118h-203v-233z" />
    <glyph glyph-name="g.sc" horiz-adv-x="684" 
d="M623 114q-41 -57 -109.5 -91.5t-145.5 -34.5q-139 0 -233 85.5t-94 223.5q0 132 95 221t232 89q126 0 229 -95l-83 -93q-63 70 -147 70q-77 0 -128 -54t-51 -138q0 -88 50 -139.5t129 -51.5q68 0 116 41v92h-133v116h273v-241z" />
    <glyph glyph-name="h.sc" horiz-adv-x="671" 
d="M454 248h-237v-248h-143v595h143v-229h237v229h143v-595h-143v248z" />
    <glyph glyph-name="i.sc" horiz-adv-x="291" 
d="M74 595h143v-595h-143v595z" />
    <glyph glyph-name="j.sc" horiz-adv-x="341" 
d="M267 159q0 -83 -46 -127q-44 -44 -117 -44q-49 0 -122 29l42 108q36 -19 58 -19q25 0 34 12q8 12 8 48v429h143v-436z" />
    <glyph glyph-name="k.sc" horiz-adv-x="593" 
d="M74 595h143v-235l190 235h166l-202 -238l213 -357h-167l-142 246l-58 -69v-177h-143v595z" />
    <glyph glyph-name="l.sc" horiz-adv-x="467" 
d="M74 595h143v-477h242v-118h-385v595z" />
    <glyph glyph-name="m.sc" horiz-adv-x="857" 
d="M640 0v394l-154 -394h-119l-150 395v-395h-143v595h214l141 -382h2l141 382h211v-595h-143z" />
    <glyph glyph-name="n.sc" horiz-adv-x="685" 
d="M214 0h-140v595h133l264 -357v357h140v-595h-134l-263 358v-358z" />
    <glyph glyph-name="o.sc" horiz-adv-x="716" 
d="M358 607q137 0 229 -90t92 -220t-92 -219.5t-229 -89.5t-229 89.5t-92 219.5t92 220t229 90zM358 489q-76 0 -125 -54t-49 -138t49 -137.5t125 -53.5t125 53.5t49 137.5t-49 138t-125 54z" />
    <glyph glyph-name="p.sc" horiz-adv-x="538" 
d="M205 595q82 0 113 -4q83 -12 139.5 -62t56.5 -126q0 -64 -43 -114.5t-112 -70.5q-40 -12 -124 -13h-18v-205h-143v595h131zM238 323q55 1 79 9q50 16 50 70t-49 69q-22 6 -78 6h-23v-154h21z" />
    <glyph glyph-name="q.sc" horiz-adv-x="716" 
d="M500 19q-65 -31 -142 -31q-137 0 -229 89.5t-92 219.5t92 220t229 90t229 -90t92 -220q0 -116 -78 -204l76 -76l-87 -88zM504 190q28 49 28 107q0 84 -49 138t-125 54t-125 -54t-49 -138t49 -137.5t125 -53.5q22 0 48 7l-68 69l87 88z" />
    <glyph glyph-name="r.sc" horiz-adv-x="603" 
d="M247 595q126 0 196.5 -45.5t70.5 -139.5q0 -57 -32.5 -101.5t-86.5 -65.5l183 -243h-180l-159 220h-22v-220h-143v595h173zM231 338q65 0 100.5 13.5t35.5 53.5q0 43 -28.5 57.5t-97.5 14.5h-24v-139h14z" />
    <glyph glyph-name="s.sc" horiz-adv-x="538" 
d="M397 439q-58 50 -122 50q-27 0 -45.5 -13.5t-18.5 -36.5q0 -20 17 -35t33.5 -21.5t54.5 -19.5l48 -18t44 -22.5t40.5 -33t25.5 -45t11 -62.5q0 -88 -71 -141t-158 -53q-122 0 -228 98l82 94q40 -38 71.5 -56t73.5 -18q34 0 58.5 18.5t24.5 51.5q0 22 -18 38.5t-34 23
t-57 21.5q-76 28 -118.5 65.5t-42.5 107.5q0 83 59 129t144 46q104 0 199 -70z" />
    <glyph glyph-name="t.sc" horiz-adv-x="471" 
d="M307 0h-143v477h-140v118h423v-118h-140v-477z" />
    <glyph glyph-name="u.sc" horiz-adv-x="648" 
d="M215 267q0 -161 109 -161t109 161v328h143v-315q0 -292 -254 -292q-250 0 -250 292v315h143v-328z" />
    <glyph glyph-name="v.sc" horiz-adv-x="599" 
d="M231 0l-227 595h158l140 -384h2l137 384h154l-238 -595h-126z" />
    <glyph glyph-name="w.sc" horiz-adv-x="859" 
d="M532 0l-102 386h-2l-110 -386h-144l-162 595h153l92 -361h2l99 361h144l97 -361h2l95 361h151l-176 -595h-139z" />
    <glyph glyph-name="x.sc" horiz-adv-x="639" 
d="M324 408l133 186h172l-221 -293l227 -301h-177l-142 192l-138 -192h-174l227 300l-221 294h177z" />
    <glyph glyph-name="y.sc" horiz-adv-x="554" 
d="M203 249l-199 346h170l106 -203h2l105 203h163l-204 -354v-241h-143v249z" />
    <glyph glyph-name="z.sc" horiz-adv-x="508" 
d="M488 118v-118h-451v69l240 408h-237v118h426v-70l-240 -407h262z" />
    <glyph glyph-name="ae.sc" horiz-adv-x="904" 
d="M448 107h-209l-70 -107h-173l420 595h427v-118h-252v-114h252v-118h-252v-127h252v-118h-395v107zM448 223v202l-132 -202h132z" />
    <glyph glyph-name="eth.sc" horiz-adv-x="631" 
d="M179 595q165 0 238 -28q82 -33 131.5 -99.5t49.5 -167.5q0 -113 -58 -185.5t-150 -95.5q-83 -19 -208 -19h-108v264h-57v87h57v244h105zM217 264v-146q68 1 114 12q120 29 120 163q0 117 -79 157q-53 26 -155 27v-126h99v-87h-99z" />
    <glyph glyph-name="ij.sc" horiz-adv-x="632" 
d="M74 595h143v-595h-143v595zM558 159q0 -83 -46 -127q-44 -44 -117 -44q-49 0 -122 29l42 108q36 -19 58 -19q25 0 34 12q8 12 8 48v429h143v-436z" />
    <glyph glyph-name="eng.sc" horiz-adv-x="685" 
d="M371 -85q36 -19 58 -19q25 0 34 12q8 10 8 48v52l-257 350v-358h-140v595h133l264 -357v357h140v-646q0 -84 -44 -127q-44 -44 -116 -44q-49 0 -122 29z" />
    <glyph glyph-name="oe.sc" horiz-adv-x="944" 
d="M631 477v-114h252v-118h-252v-127h252v-118h-395v18q-60 -30 -130 -30q-137 0 -229 89.5t-92 219.5t92 220t229 90q68 0 130 -30v18h395v-118h-252zM488 438q-51 51 -130 51q-76 0 -125 -54t-49 -138t49 -137.5t125 -53.5q79 0 130 51v281z" />
    <glyph glyph-name="thorn.sc" horiz-adv-x="555" 
d="M217 498q73 0 101 -4q83 -12 139.5 -62t56.5 -126q0 -64 -43 -114.5t-112 -70.5q-40 -12 -124 -13h-18v-108h-143v595h143v-97zM238 226q55 1 79 9q50 16 50 70t-49 69q-22 6 -78 6h-23v-154h21z" />
    <glyph glyph-name="germandbls.sc" horiz-adv-x="690" 
d="M327 344q11 -1 45 -1q80 0 80 76q0 37 -28.5 58.5t-75.5 21.5q-68 0 -99.5 -37.5t-31.5 -118.5v-344h-140v359q0 121 69.5 184.5t202.5 63.5q108 0 172 -48t64 -128q0 -83 -71 -122q122 -28 122 -150q0 -81 -55 -124.5t-158 -43.5q-76 0 -130 23l23 101q42 -17 91 -17
q91 0 91 72q0 77 -96 77q-35 0 -75 -4v102z" />
    <glyph glyph-name="dotlessi.sc" horiz-adv-x="291" 
d="M74 595h143v-595h-143v595z" />
    <glyph glyph-name="kgreenlandic.sc" horiz-adv-x="593" 
d="M74 595h143v-235l190 235h166l-202 -238l213 -357h-167l-142 246l-58 -69v-177h-143v595z" />
    <glyph glyph-name="zero.sc" horiz-adv-x="496" 
d="M248 582q104 0 161 -79t57 -218t-57 -218t-161 -79t-161 79t-57 218t57 218t161 79zM248 466q-78 0 -78 -181t78 -181t78 181t-78 181z" />
    <glyph glyph-name="one.sc" horiz-adv-x="329" 
d="M120 414q-39 -19 -79 -34v123q70 35 126 67h91v-570h-138v414z" />
    <glyph glyph-name="two.sc" horiz-adv-x="464" 
d="M360 259q-17 -24 -126 -146h208v-113h-392v97q100 103 191 228q38 53 38 92q0 23 -14 37t-38 14q-56 0 -56 -78l-136 21q5 77 60.5 124t133.5 47t134 -43t56 -119t-59 -161z" />
    <glyph glyph-name="three.sc" horiz-adv-x="476" 
d="M163 339q29 -1 61 6q52 13 52 64q0 25 -16.5 42t-46.5 17q-23 0 -39.5 -15t-21.5 -42l-114 46q16 57 71 91t115 34q81 0 135.5 -43.5t54.5 -113.5q0 -35 -20 -69t-51 -53q44 -16 69.5 -55t25.5 -86q0 -80 -61 -127t-151 -47q-66 0 -120.5 34t-79.5 97l116 52
q24 -69 88 -69q28 0 48 16.5t20 44.5q0 37 -26.5 55t-71.5 18q-21 0 -37 -4v107z" />
    <glyph glyph-name="four.sc" horiz-adv-x="485" 
d="M255 139h-235v109q140 181 235 322h136v-320h78v-111h-78v-139h-136v139zM255 394q-10 -20 -26 -46l-36.5 -57l-27.5 -41h90v144z" />
    <glyph glyph-name="five.sc" horiz-adv-x="456" 
d="M215 457q-3 -56 -8 -103q32 13 59 13q71 0 117 -52t46 -123q0 -89 -59 -146.5t-147 -57.5q-139 0 -199 120l117 57q21 -63 82 -63q30 0 48.5 23t18.5 54q0 33 -18.5 54.5t-50.5 21.5q-41 0 -67 -35l-87 65q16 168 18 285h321v-113h-191z" />
    <glyph glyph-name="six.sc" horiz-adv-x="494" 
d="M388 505q-149 -63 -194 -158q37 26 84 26q79 0 132.5 -52.5t53.5 -128.5q0 -86 -57.5 -145t-148.5 -59q-104 0 -166 69.5t-62 168.5q0 132 87 229.5t225 153.5zM245 264q-49 0 -77 -42q0 -53 20.5 -87.5t64.5 -34.5q32 0 52.5 24t20.5 56q0 40 -24 62t-57 22z" />
    <glyph glyph-name="seven.sc" horiz-adv-x="422" 
d="M407 486q-149 -313 -233 -518l-124 57q34 80 73.5 163l77.5 160l53 109h-244v113h397v-84z" />
    <glyph glyph-name="eight.sc" horiz-adv-x="498" 
d="M249 582q83 0 136 -46.5t53 -113.5q0 -83 -65 -123q43 -26 63 -57.5t20 -80.5q0 -74 -58.5 -123.5t-148.5 -49.5t-148.5 49.5t-58.5 123.5q0 49 20 80.5t63 57.5q-65 40 -65 123q0 67 53 113.5t136 46.5zM249 100q30 0 49.5 20t19.5 50t-19.5 50t-49.5 20t-49.5 -20
t-19.5 -50t19.5 -50t49.5 -20zM249 352q26 0 41.5 17t15.5 43q0 25 -15.5 41.5t-41.5 16.5t-41.5 -16.5t-15.5 -41.5q0 -26 15.5 -43t41.5 -17z" />
    <glyph glyph-name="nine.sc" horiz-adv-x="494" 
d="M106 65q149 63 194 158q-37 -26 -84 -26q-79 0 -132.5 52.5t-53.5 128.5q0 86 57.5 145t148.5 59q104 0 166 -69.5t62 -168.5q0 -132 -87 -229.5t-225 -153.5zM249 306q49 0 77 42q0 53 -20.5 87.5t-64.5 34.5q-32 0 -52.5 -24t-20.5 -56q0 -40 24 -62t57 -22z" />
    <glyph glyph-name="dollar.sc" horiz-adv-x="536" 
d="M122 165q67 -70 139 -70q38 0 66 17.5t28 53.5q0 31 -27 47.5t-81 34.5q-9 3 -13 4q-34 12 -55 22t-46 28.5t-37 45.5t-12 63q0 75 46 118t118 51v79h70v-80q68 -8 151 -63l-68 -89q-63 47 -121 47q-30 0 -50.5 -13.5t-20.5 -42.5q0 -13 6.5 -23t22.5 -18t28 -13t38 -13
t39 -13q65 -23 103 -59t38 -106q0 -73 -50 -119.5t-121 -60.5v-82h-70v78q-104 7 -197 92z" />
    <glyph glyph-name="Euro.sc" horiz-adv-x="646" 
d="M127 389q31 88 108.5 140.5t180.5 52.5q89 0 177 -55l-57 -93q-55 45 -120 45q-42 0 -87 -21t-71 -69h205v-81h-226q-1 -8 -1 -24q0 -18 1 -26h226v-81h-205q42 -86 158 -86q68 0 122 48l66 -86q-88 -65 -193 -65q-106 0 -180.5 50.5t-103.5 138.5h-71v81h55q-1 8 -1 26
q0 16 1 24h-55v81h71z" />
    <glyph glyph-name="cent.sc" horiz-adv-x="536" 
d="M420 368q-47 42 -101 42q-59 0 -98 -44.5t-39 -109.5q0 -66 38.5 -110t95.5 -44q60 0 100 39l74 -89q-56 -50 -139 -61v-87h-81v88q-99 11 -160.5 83.5t-61.5 180.5q0 102 61 176.5t161 88.5v89h81v-89q79 -11 140 -60z" />
    <glyph glyph-name="sterling.sc" horiz-adv-x="536" 
d="M127 384q0 86 53.5 142.5t135.5 56.5q76 0 148 -43l-48 -96q-42 33 -87 33q-36 0 -57.5 -27t-21.5 -75v-15h110v-103h-110v-154h210v-103h-380v103h47v154h-47v103h47v24z" />
    <glyph glyph-name="yen.sc" horiz-adv-x="536" 
d="M173 304l-149 268h140l107 -195h1l101 195h139l-153 -268h108v-81h-140v-47h140v-80h-140v-96h-123v96h-138v80h138v47h-138v81h107z" />
    <glyph glyph-name="florin.sc" horiz-adv-x="536" 
d="M194 434q8 72 49 110.5t107 38.5q63 0 131 -31l-40 -98q-37 25 -78 25q-25 0 -34.5 -16t-13.5 -48l-6 -54h97v-103h-108l-33 -285q-8 -72 -48 -111t-103 -39q-45 0 -84 12l25 99q20 -7 45 -7q24 0 32 15.5t12 49.5l30 266h-62v103h74z" />
    <glyph glyph-name="uni20BA.sc" horiz-adv-x="583" 
d="M40 189v86l84 29v59l-84 -29v88l84 28v144h125v-111l129 45v-88l-129 -45v-59l130 46v-87l-130 -45v-146h5q93 0 134 36t41 139h124v-4q0 -153 -71.5 -222.5t-214.5 -69.5q-80 0 -143 15v220z" />
    <glyph glyph-name="percent.sc" horiz-adv-x="812" 
d="M240 579q60 0 102.5 -40.5t42.5 -101.5q0 -60 -42.5 -100t-102.5 -40q-61 0 -104 40t-43 100q0 61 43.5 101.5t103.5 40.5zM240 494q-23 0 -37.5 -15.5t-14.5 -40.5t14.5 -41t37.5 -16q22 0 36.5 16t14.5 41t-14.5 40.5t-36.5 15.5zM573 275q60 0 103 -40t43 -101
t-43 -101t-103 -40t-103 40t-43 101t43 101t103 40zM573 191q-22 0 -36.5 -16t-14.5 -40q0 -26 14 -41.5t37 -15.5t37 15.5t14 41.5q0 24 -14.5 40t-36.5 16zM232 -17l-61 44l410 562l60 -44z" />
    <glyph glyph-name="perthousand.sc" horiz-adv-x="1133" 
d="M894 275q60 0 103 -40t43 -101t-43 -101t-103 -40t-103.5 40.5t-43.5 100.5t43.5 100.5t103.5 40.5zM894 191q-22 0 -37 -16t-15 -40q0 -26 14.5 -41.5t37.5 -15.5q22 0 36.5 15.5t14.5 41.5q0 24 -14.5 40t-36.5 16zM240 579q60 0 102.5 -40.5t42.5 -101.5
q0 -60 -42.5 -100t-102.5 -40q-61 0 -104 40t-43 100q0 61 43.5 101.5t103.5 40.5zM240 494q-23 0 -37.5 -15.5t-14.5 -40.5t14.5 -41t37.5 -16q22 0 36.5 16t14.5 41t-14.5 40.5t-36.5 15.5zM573 275q60 0 103 -40t43 -101t-43 -101t-103 -40t-103 40t-43 101t43 101
t103 40zM573 191q-22 0 -36.5 -16t-14.5 -40q0 -26 14 -41.5t37 -15.5t37 15.5t14 41.5q0 24 -14.5 40t-36.5 16zM232 -17l-61 44l410 562l60 -44z" />
    <glyph glyph-name="exclam.sc" horiz-adv-x="307" 
d="M214 199h-121l-10 275v122h141v-122zM86 130h135v-130h-135v130z" />
    <glyph glyph-name="exclamdown.sc" horiz-adv-x="307" 
d="M93 397h121l10 -276v-121h-141v121zM221 466h-135v130h135v-130z" />
    <glyph glyph-name="question.sc" horiz-adv-x="470" 
d="M166 347q36 12 52 18.5t36 18.5t27.5 27t7.5 37q0 23 -13.5 39t-39.5 16q-25 0 -39 -17t-14 -47v-20h-125v16q0 77 51 124.5t127 47.5q78 0 127.5 -48.5t49.5 -108.5q0 -65 -30 -100.5t-87 -66.5v-84h-130v148zM163 130h136v-130h-136v130z" />
    <glyph glyph-name="questiondown.sc" horiz-adv-x="470" 
d="M304 246q-36 -12 -52 -18.5t-36 -18.5t-27.5 -27t-7.5 -37q0 -23 13.5 -39t39.5 -16q25 0 39 17t14 47v20h125v-16q0 -77 -51 -124.5t-127 -47.5q-78 0 -127.5 48.5t-49.5 108.5q0 65 30 100.5t87 66.5v84h130v-148zM307 463h-136v130h136v-130z" />
    <glyph glyph-name="quoteleft.sc" horiz-adv-x="306" 
d="M49 331l73 276h135l-57 -276h-151z" />
    <glyph glyph-name="quoteright.sc" horiz-adv-x="306" 
d="M257 607l-73 -276h-135l57 276h151z" />
    <glyph glyph-name="quotedblleft.sc" horiz-adv-x="571" 
d="M66 331l73 276h135l-57 -276h-151zM297 331l73 276h135l-57 -276h-151z" />
    <glyph glyph-name="quotedblright.sc" horiz-adv-x="571" 
d="M505 607l-73 -276h-135l57 276h151zM274 607l-73 -276h-135l57 276h151z" />
    <glyph glyph-name="aacute.sc" horiz-adv-x="608" 
d="M373 595l227 -595h-158l-39 107h-202l-38 -107h-154l238 595h126zM360 223l-58 170h-2l-58 -170h118zM234 691l133 186l96 -76l-147 -172z" />
    <glyph glyph-name="abreve.sc" horiz-adv-x="608" 
d="M373 595l227 -595h-158l-39 107h-202l-38 -107h-154l238 595h126zM360 223l-58 170h-2l-58 -170h118zM474 803q0 -69 -48 -116.5t-117 -47.5t-117 47.5t-48 116.5v17h102q-1 -5 -1 -19q0 -28 18.5 -48.5t45.5 -20.5t46 20.5t19 48.5q0 14 -1 19h101v-17z" />
    <glyph glyph-name="acircumflex.sc" horiz-adv-x="608" 
d="M373 595l227 -595h-158l-39 107h-202l-38 -107h-154l238 595h126zM360 223l-58 170h-2l-58 -170h118zM495 684l-80 -48l-105 129l-104 -129l-80 48l114 168h143z" />
    <glyph glyph-name="adieresis.sc" horiz-adv-x="608" 
d="M373 595l227 -595h-158l-39 107h-202l-38 -107h-154l238 595h126zM360 223l-58 170h-2l-58 -170h118zM121 774h143v-121h-143v121zM362 774h143v-121h-143v121z" />
    <glyph glyph-name="aeacute.sc" horiz-adv-x="904" 
d="M448 107h-209l-70 -107h-173l420 595h427v-118h-252v-114h252v-118h-252v-127h252v-118h-395v107zM448 223v202l-132 -202h132zM406 691l133 186l96 -76l-147 -172z" />
    <glyph glyph-name="agrave.sc" horiz-adv-x="608" 
d="M373 595l227 -595h-158l-39 107h-202l-38 -107h-154l238 595h126zM360 223l-58 170h-2l-58 -170h118zM239 877l133 -186l-82 -62l-147 172z" />
    <glyph glyph-name="amacron.sc" horiz-adv-x="608" 
d="M373 595l227 -595h-158l-39 107h-202l-38 -107h-154l238 595h126zM360 223l-58 170h-2l-58 -170h118zM141 761h342v-98h-342v98z" />
    <glyph glyph-name="aogonek.sc" horiz-adv-x="608" 
d="M373 595l227 -595q-125 -23 -125 -95q0 -18 11 -30t30 -12q16 0 29 6l27 -84q-34 -12 -77 -12q-54 0 -94 28.5t-40 83.5q0 75 81 115l-39 107h-202l-38 -107h-154l238 595h126zM360 223l-58 170h-2l-58 -170h118z" />
    <glyph glyph-name="aring.sc" horiz-adv-x="608" 
d="M373 595l227 -595h-158l-39 107h-202l-38 -107h-154l238 595h126zM360 223l-58 170h-2l-58 -170h118zM196 746q0 47 33 80t80 33t80 -33t33 -80t-33 -80t-80 -33t-80 33t-33 80zM264 746q0 -19 13 -32t32 -13t32 13t13 32t-13 32t-32 13t-32 -13t-13 -32z" />
    <glyph glyph-name="atilde.sc" horiz-adv-x="608" 
d="M373 595l227 -595h-158l-39 107h-202l-38 -107h-154l238 595h126zM360 223l-58 170h-2l-58 -170h118zM143 645q-6 19 -6 38q0 46 31.5 74.5t83.5 28.5q37 0 86 -25.5t60 -25.5q23 0 25 23q0 6 -1 7l81 9q6 -19 6 -38q0 -46 -31.5 -74.5t-83.5 -28.5q-37 0 -86 25.5
t-60 25.5q-23 0 -25 -23q0 -6 1 -7z" />
    <glyph glyph-name="cacute.sc" horiz-adv-x="585" 
d="M555 52q-82 -64 -190 -64q-143 0 -235.5 86t-92.5 223q0 133 95 221.5t233 88.5q93 0 182 -58l-63 -105q-61 45 -121 45q-78 0 -128.5 -54t-50.5 -138q0 -88 48 -139.5t131 -51.5q65 0 120 45zM301 691l133 186l96 -76l-147 -172z" />
    <glyph glyph-name="ccaron.sc" horiz-adv-x="585" 
d="M555 52q-82 -64 -190 -64q-143 0 -235.5 86t-92.5 223q0 133 95 221.5t233 88.5q93 0 182 -58l-63 -105q-61 45 -121 45q-78 0 -128.5 -54t-50.5 -138q0 -88 48 -139.5t131 -51.5q65 0 120 45zM164 815l81 48l105 -129l104 129l79 -48l-114 -168h-143z" />
    <glyph glyph-name="ccedilla.sc" horiz-adv-x="585" 
d="M555 52q-82 -64 -190 -64q-25 0 -47 3l-20 -52h1q20 15 47 15q37 0 65 -29t28 -72t-33.5 -76.5t-81.5 -33.5q-76 0 -115 70l69 33q12 -32 40 -32q16 0 26.5 10.5t10.5 26.5t-11 28t-26 12q-25 0 -37 -20l-73 37l42 96q-98 30 -155.5 108t-57.5 185q0 133 95 221.5
t233 88.5q93 0 182 -58l-63 -105q-61 45 -121 45q-78 0 -128.5 -54t-50.5 -138q0 -88 48 -139.5t131 -51.5q65 0 120 45z" />
    <glyph glyph-name="ccircumflex.sc" horiz-adv-x="585" 
d="M536 684l-80 -48l-105 129l-104 -129l-80 48l114 168h143zM555 52q-82 -64 -190 -64q-143 0 -235.5 86t-92.5 223q0 133 95 221.5t233 88.5q93 0 182 -58l-63 -105q-61 45 -121 45q-78 0 -128.5 -54t-50.5 -138q0 -88 48 -139.5t131 -51.5q65 0 120 45z" />
    <glyph glyph-name="cdotaccent.sc" horiz-adv-x="585" 
d="M555 52q-82 -64 -190 -64q-143 0 -235.5 86t-92.5 223q0 133 95 221.5t233 88.5q93 0 182 -58l-63 -105q-61 45 -121 45q-78 0 -128.5 -54t-50.5 -138q0 -88 48 -139.5t131 -51.5q65 0 120 45zM276 774h142v-121h-142v121z" />
    <glyph glyph-name="dcaron.sc" horiz-adv-x="631" 
d="M179 595q165 0 238 -28q82 -33 131.5 -99.5t49.5 -167.5q0 -113 -58 -185.5t-150 -95.5q-83 -19 -208 -19h-108v595h105zM217 118q68 1 114 12q120 29 120 163q0 117 -79 157q-53 26 -155 27v-359zM96 815l81 48l105 -129l104 129l79 -48l-114 -168h-143z" />
    <glyph glyph-name="dcroat.sc" horiz-adv-x="631" 
d="M179 595q165 0 238 -28q82 -33 131.5 -99.5t49.5 -167.5q0 -113 -58 -185.5t-150 -95.5q-83 -19 -208 -19h-108v264h-57v87h57v244h105zM217 264v-146q68 1 114 12q120 29 120 163q0 117 -79 157q-53 26 -155 27v-126h99v-87h-99z" />
    <glyph glyph-name="eacute.sc" horiz-adv-x="530" 
d="M74 595h395v-118h-252v-114h252v-118h-252v-127h252v-118h-395v595zM215 691l133 186l96 -76l-147 -172z" />
    <glyph glyph-name="ebreve.sc" horiz-adv-x="530" 
d="M74 595h395v-118h-252v-114h252v-118h-252v-127h252v-118h-395v595zM445 804q0 -69 -48 -116.5t-117 -47.5t-117 47.5t-48 116.5v17h102q-1 -5 -1 -19q0 -28 18.5 -48.5t45.5 -20.5t46 20.5t19 48.5q0 14 -1 19h101v-17z" />
    <glyph glyph-name="ecaron.sc" horiz-adv-x="530" 
d="M74 595h395v-118h-252v-114h252v-118h-252v-127h252v-118h-395v595zM96 815l81 48l105 -129l104 129l79 -48l-114 -168h-143z" />
    <glyph glyph-name="ecircumflex.sc" horiz-adv-x="530" 
d="M74 595h395v-118h-252v-114h252v-118h-252v-127h252v-118h-395v595zM474 684l-80 -48l-105 129l-104 -129l-80 48l114 168h143z" />
    <glyph glyph-name="edieresis.sc" horiz-adv-x="530" 
d="M96 774h143v-121h-143v121zM312 774h143v-121h-143v121zM74 595h395v-118h-252v-114h252v-118h-252v-127h252v-118h-395v595z" />
    <glyph glyph-name="edotaccent.sc" horiz-adv-x="530" 
d="M74 595h395v-118h-252v-114h252v-118h-252v-127h252v-118h-395v595zM219 774h142v-121h-142v121z" />
    <glyph glyph-name="egrave.sc" horiz-adv-x="530" 
d="M74 595h395v-118h-252v-114h252v-118h-252v-127h252v-118h-395v595zM221 877l133 -186l-82 -62l-147 172z" />
    <glyph glyph-name="emacron.sc" horiz-adv-x="530" 
d="M74 595h395v-118h-252v-114h252v-118h-252v-127h252v-118h-395v595zM105 761h342v-98h-342v98z" />
    <glyph glyph-name="eogonek.sc" horiz-adv-x="530" 
d="M217 477v-114h252v-118h-252v-127h252v-118q-114 -31 -114 -95q0 -18 11 -30t30 -12q16 0 30 6l26 -84q-33 -12 -77 -12q-53 0 -93 28.5t-40 83.5q0 76 88 115h-256v595h395v-118h-252z" />
    <glyph glyph-name="gbreve.sc" horiz-adv-x="684" 
d="M623 114q-41 -57 -109.5 -91.5t-145.5 -34.5q-139 0 -233 85.5t-94 223.5q0 132 95 221t232 89q126 0 229 -95l-83 -93q-63 70 -147 70q-77 0 -128 -54t-51 -138q0 -88 50 -139.5t129 -51.5q68 0 116 41v92h-133v116h273v-241zM532 803q0 -69 -48 -116.5t-117 -47.5
t-117 47.5t-48 116.5v17h102q-1 -5 -1 -19q0 -28 18.5 -48.5t45.5 -20.5t46 20.5t19 48.5q0 14 -1 19h101v-17z" />
    <glyph glyph-name="gcircumflex.sc" horiz-adv-x="684" 
d="M623 114q-41 -57 -109.5 -91.5t-145.5 -34.5q-139 0 -233 85.5t-94 223.5q0 132 95 221t232 89q126 0 229 -95l-83 -93q-63 70 -147 70q-77 0 -128 -54t-51 -138q0 -88 50 -139.5t129 -51.5q68 0 116 41v92h-133v116h273v-241zM546 689l-80 -48l-105 129l-104 -129
l-80 48l114 168h143z" />
    <glyph glyph-name="uni0123.sc" horiz-adv-x="684" 
d="M623 114q-41 -57 -109.5 -91.5t-145.5 -34.5q-139 0 -233 85.5t-94 223.5q0 132 95 221t232 89q126 0 229 -95l-83 -93q-63 70 -147 70q-77 0 -128 -54t-51 -138q0 -88 50 -139.5t129 -51.5q68 0 116 41v92h-133v116h273v-241zM274 -58h127l-55 -191h-108z" />
    <glyph glyph-name="gdotaccent.sc" horiz-adv-x="684" 
d="M623 114q-41 -57 -109.5 -91.5t-145.5 -34.5q-139 0 -233 85.5t-94 223.5q0 132 95 221t232 89q126 0 229 -95l-83 -93q-63 70 -147 70q-77 0 -128 -54t-51 -138q0 -88 50 -139.5t129 -51.5q68 0 116 41v92h-133v116h273v-241zM281 774h142v-121h-142v121z" />
    <glyph glyph-name="hbar.sc" horiz-adv-x="671" 
d="M454 248h-237v-248h-143v419h-73v96h73v80h143v-80h237v80h143v-80h74v-96h-74v-419h-143v248zM454 419h-237v-53h237v53z" />
    <glyph glyph-name="hcircumflex.sc" horiz-adv-x="671" 
d="M454 248h-237v-248h-143v595h143v-229h237v229h143v-595h-143v248zM516 684l-80 -48l-105 129l-104 -129l-80 48l114 168h143z" />
    <glyph glyph-name="iacute.sc" horiz-adv-x="291" 
d="M74 595h143v-595h-143v595zM94 691l133 186l96 -76l-147 -172z" />
    <glyph glyph-name="ibreve.sc" horiz-adv-x="291" 
d="M74 595h143v-595h-143v595zM310 803q0 -69 -48 -116.5t-117 -47.5t-117 47.5t-48 116.5v17h102q-1 -5 -1 -19q0 -28 18.5 -48.5t45.5 -20.5t46 20.5t19 48.5q0 14 -1 19h101v-17z" />
    <glyph glyph-name="icircumflex.sc" horiz-adv-x="291" 
d="M74 595h143v-595h-143v595zM329 684l-80 -48l-105 129l-104 -129l-80 48l114 168h143z" />
    <glyph glyph-name="idieresis.sc" horiz-adv-x="291" 
d="M-34 774h143v-121h-143v121zM182 774h143v-121h-143v121zM74 595h143v-595h-143v595z" />
    <glyph glyph-name="i.sc.loclTRK" horiz-adv-x="291" 
d="M74 774h143v-121h-143v121zM74 595h143v-595h-143v595z" />
    <glyph glyph-name="igrave.sc" horiz-adv-x="291" 
d="M74 595h143v-595h-143v595zM63 877l133 -186l-82 -62l-147 172z" />
    <glyph glyph-name="imacron.sc" horiz-adv-x="291" 
d="M74 595h143v-595h-143v595zM-26 761h342v-98h-342v98z" />
    <glyph glyph-name="iogonek.sc" horiz-adv-x="271" 
d="M217 0q-114 -31 -114 -95q0 -18 11 -30t30 -12q15 0 30 6l26 -84q-34 -12 -77 -12q-54 0 -94 28.5t-40 83.5q0 37 23.5 67.5t61.5 47.5v595h143v-595z" />
    <glyph glyph-name="itilde.sc" horiz-adv-x="291" 
d="M74 595h143v-595h-143v595zM-33 645q-6 19 -6 38q0 46 31.5 74.5t83.5 28.5q37 0 86 -25.5t60 -25.5q23 0 25 23q0 6 -1 7l81 9q6 -19 6 -38q0 -46 -31.5 -74.5t-83.5 -28.5q-37 0 -86 25.5t-60 25.5q-23 0 -25 -23q0 -6 1 -7z" />
    <glyph glyph-name="ijacute.sc" horiz-adv-x="632" 
d="M558 159q0 -83 -46 -127q-44 -44 -117 -44q-49 0 -122 29l42 108q36 -19 58 -19q25 0 34 12q8 12 8 48v429h143v-436zM74 595h143v-595h-143v595zM94 691l133 186l96 -76l-147 -172zM427 691l133 186l96 -76l-147 -172z" />
    <glyph glyph-name="jcircumflex.sc" horiz-adv-x="341" 
d="M267 159q0 -83 -46 -127q-44 -44 -117 -44q-49 0 -122 29l42 108q36 -19 58 -19q25 0 34 12q8 12 8 48v429h143v-436zM379 684l-80 -48l-105 129l-104 -129l-80 48l114 168h143z" />
    <glyph glyph-name="uni0137.sc" horiz-adv-x="593" 
d="M74 595h143v-235l190 235h166l-202 -238l213 -357h-167l-142 246l-58 -69v-177h-143v595zM240 -58h127l-55 -191h-108z" />
    <glyph glyph-name="lacute.sc" horiz-adv-x="467" 
d="M74 595h143v-477h242v-118h-385v595zM94 691l133 186l96 -76l-147 -172z" />
    <glyph glyph-name="lcaron.sc" horiz-adv-x="467" 
d="M332 595h132l-58 -222h-119zM74 595h143v-477h242v-118h-385v595z" />
    <glyph glyph-name="uni013C.sc" horiz-adv-x="467" 
d="M74 595h143v-477h242v-118h-385v595zM204 -58h127l-55 -191h-108z" />
    <glyph glyph-name="ldot.sc" horiz-adv-x="467" 
d="M74 595h143v-477h242v-118h-385v595zM316 425h142v-121h-142v121z" />
    <glyph glyph-name="lslash.sc" horiz-adv-x="467" 
d="M74 186l-75 -49v130l75 48v280h143v-193l124 81v-130l-124 -80v-155h242v-118h-385v186z" />
    <glyph glyph-name="nacute.sc" horiz-adv-x="685" 
d="M214 0h-140v595h133l264 -357v357h140v-595h-134l-263 358v-358zM276 691l133 186l96 -76l-147 -172z" />
    <glyph glyph-name="ncaron.sc" horiz-adv-x="685" 
d="M214 0h-140v595h133l264 -357v357h140v-595h-134l-263 358v-358zM165 815l81 48l105 -129l104 129l79 -48l-114 -168h-143z" />
    <glyph glyph-name="uni0146.sc" horiz-adv-x="685" 
d="M214 0h-140v595h133l264 -357v357h140v-595h-134l-263 358v-358zM273 -58h127l-55 -191h-108z" />
    <glyph glyph-name="ntilde.sc" horiz-adv-x="685" 
d="M214 0h-140v595h133l264 -357v357h140v-595h-134l-263 358v-358zM164 645q-6 19 -6 38q0 46 31.5 74.5t83.5 28.5q37 0 86 -25.5t60 -25.5q23 0 25 23q0 6 -1 7l81 9q6 -19 6 -38q0 -46 -31.5 -74.5t-83.5 -28.5q-37 0 -86 25.5t-60 25.5q-23 0 -25 -23q0 -6 1 -7z" />
    <glyph glyph-name="oacute.sc" horiz-adv-x="716" 
d="M358 607q137 0 229 -90t92 -220t-92 -219.5t-229 -89.5t-229 89.5t-92 219.5t92 220t229 90zM358 489q-76 0 -125 -54t-49 -138t49 -137.5t125 -53.5t125 53.5t49 137.5t-49 138t-125 54zM303 691l133 186l96 -76l-147 -172z" />
    <glyph glyph-name="obreve.sc" horiz-adv-x="716" 
d="M358 607q137 0 229 -90t92 -220t-92 -219.5t-229 -89.5t-229 89.5t-92 219.5t92 220t229 90zM358 489q-76 0 -125 -54t-49 -138t49 -137.5t125 -53.5t125 53.5t49 137.5t-49 138t-125 54zM523 803q0 -69 -48 -116.5t-117 -47.5t-117 47.5t-48 116.5v17h102q-1 -5 -1 -19
q0 -28 18.5 -48.5t45.5 -20.5t46 20.5t19 48.5q0 14 -1 19h101v-17z" />
    <glyph glyph-name="ocircumflex.sc" horiz-adv-x="716" 
d="M358 607q137 0 229 -90t92 -220t-92 -219.5t-229 -89.5t-229 89.5t-92 219.5t92 220t229 90zM358 489q-76 0 -125 -54t-49 -138t49 -137.5t125 -53.5t125 53.5t49 137.5t-49 138t-125 54zM542 684l-80 -48l-105 129l-104 -129l-80 48l114 168h143z" />
    <glyph glyph-name="odieresis.sc" horiz-adv-x="716" 
d="M358 607q137 0 229 -90t92 -220t-92 -219.5t-229 -89.5t-229 89.5t-92 219.5t92 220t229 90zM358 489q-76 0 -125 -54t-49 -138t49 -137.5t125 -53.5t125 53.5t49 137.5t-49 138t-125 54zM166 774h143v-121h-143v121zM407 774h143v-121h-143v121z" />
    <glyph glyph-name="ograve.sc" horiz-adv-x="716" 
d="M358 607q137 0 229 -90t92 -220t-92 -219.5t-229 -89.5t-229 89.5t-92 219.5t92 220t229 90zM358 489q-76 0 -125 -54t-49 -138t49 -137.5t125 -53.5t125 53.5t49 137.5t-49 138t-125 54zM275 877l133 -186l-82 -62l-147 172z" />
    <glyph glyph-name="ohungarumlaut.sc" horiz-adv-x="716" 
d="M358 607q137 0 229 -90t92 -220t-92 -219.5t-229 -89.5t-229 89.5t-92 219.5t92 220t229 90zM358 489q-76 0 -125 -54t-49 -138t49 -137.5t125 -53.5t125 53.5t49 137.5t-49 138t-125 54zM188 693l132 188l95 -73l-147 -172zM389 691l130 183l96 -76l-144 -169z" />
    <glyph glyph-name="omacron.sc" horiz-adv-x="716" 
d="M358 607q137 0 229 -90t92 -220t-92 -219.5t-229 -89.5t-229 89.5t-92 219.5t92 220t229 90zM358 489q-76 0 -125 -54t-49 -138t49 -137.5t125 -53.5t125 53.5t49 137.5t-49 138t-125 54zM187 761h342v-98h-342v98z" />
    <glyph glyph-name="oslash.sc" horiz-adv-x="716" 
d="M572 530q107 -91 107 -233q0 -130 -92 -219.5t-229 -89.5q-71 0 -135 27l-28 -41l-80 51l27 40q-105 90 -105 232q0 130 92 220t229 90q68 0 131 -26l26 38l81 -53zM532 297q0 71 -36 121l-204 -300q30 -12 66 -12q76 0 125 53.5t49 137.5zM420 478q-30 11 -62 11
q-76 0 -125 -54t-49 -138q0 -70 34 -119z" />
    <glyph glyph-name="otilde.sc" horiz-adv-x="716" 
d="M358 607q137 0 229 -90t92 -220t-92 -219.5t-229 -89.5t-229 89.5t-92 219.5t92 220t229 90zM358 489q-76 0 -125 -54t-49 -138t49 -137.5t125 -53.5t125 53.5t49 137.5t-49 138t-125 54zM188 645q-6 19 -6 38q0 46 31.5 74.5t83.5 28.5q37 0 86 -25.5t60 -25.5
q23 0 25 23q0 6 -1 7l81 9q6 -19 6 -38q0 -46 -31.5 -74.5t-83.5 -28.5q-37 0 -86 25.5t-60 25.5q-23 0 -25 -23q0 -6 1 -7z" />
    <glyph glyph-name="racute.sc" horiz-adv-x="603" 
d="M247 595q126 0 196.5 -45.5t70.5 -139.5q0 -57 -32.5 -101.5t-86.5 -65.5l183 -243h-180l-159 220h-22v-220h-143v595h173zM231 338q65 0 100.5 13.5t35.5 53.5q0 43 -28.5 57.5t-97.5 14.5h-24v-139h14zM202 691l133 186l96 -76l-147 -172z" />
    <glyph glyph-name="rcaron.sc" horiz-adv-x="603" 
d="M247 595q126 0 196.5 -45.5t70.5 -139.5q0 -57 -32.5 -101.5t-86.5 -65.5l183 -243h-180l-159 220h-22v-220h-143v595h173zM231 338q65 0 100.5 13.5t35.5 53.5q0 43 -28.5 57.5t-97.5 14.5h-24v-139h14zM96 815l81 48l105 -129l104 129l79 -48l-114 -168h-143z" />
    <glyph glyph-name="uni0157.sc" horiz-adv-x="603" 
d="M247 595q126 0 196.5 -45.5t70.5 -139.5q0 -57 -32.5 -101.5t-86.5 -65.5l183 -243h-180l-159 220h-22v-220h-143v595h173zM231 338q65 0 100.5 13.5t35.5 53.5q0 43 -28.5 57.5t-97.5 14.5h-24v-139h14zM230 -58h127l-55 -191h-108z" />
    <glyph glyph-name="sacute.sc" horiz-adv-x="538" 
d="M397 439q-58 50 -122 50q-27 0 -45.5 -13.5t-18.5 -36.5q0 -20 17 -35t33.5 -21.5t54.5 -19.5l48 -18t44 -22.5t40.5 -33t25.5 -45t11 -62.5q0 -88 -71 -141t-158 -53q-122 0 -228 98l82 94q40 -38 71.5 -56t73.5 -18q34 0 58.5 18.5t24.5 51.5q0 22 -18 38.5t-34 23
t-57 21.5q-76 28 -118.5 65.5t-42.5 107.5q0 83 59 129t144 46q104 0 199 -70zM227 691l133 186l96 -76l-147 -172z" />
    <glyph glyph-name="scaron.sc" horiz-adv-x="538" 
d="M397 439q-58 50 -122 50q-27 0 -45.5 -13.5t-18.5 -36.5q0 -20 17 -35t33.5 -21.5t54.5 -19.5l48 -18t44 -22.5t40.5 -33t25.5 -45t11 -62.5q0 -88 -71 -141t-158 -53q-122 0 -228 98l82 94q40 -38 71.5 -56t73.5 -18q34 0 58.5 18.5t24.5 51.5q0 22 -18 38.5t-34 23
t-57 21.5q-76 28 -118.5 65.5t-42.5 107.5q0 83 59 129t144 46q104 0 199 -70zM95 815l81 48l105 -129l104 129l79 -48l-114 -168h-143z" />
    <glyph glyph-name="scedilla.sc" horiz-adv-x="538" 
d="M397 439q-58 50 -122 50q-27 0 -45.5 -13.5t-18.5 -36.5q0 -20 17 -35t33.5 -21.5t54.5 -19.5l48 -18t44 -22.5t40.5 -33t25.5 -45t11 -62.5q0 -86 -68.5 -139t-153.5 -55l-18 -49h1q20 15 46 15q37 0 65.5 -29t28.5 -72t-33.5 -76.5t-81.5 -33.5q-76 0 -115 70l68 33
q13 -32 41 -32q16 0 26.5 10.5t10.5 26.5t-11 28t-26 12q-25 0 -37 -20l-73 37l37 86q-84 18 -164 92l82 94q40 -38 71.5 -56t73.5 -18q34 0 58.5 18.5t24.5 51.5q0 22 -18 38.5t-34 23t-57 21.5q-76 28 -118.5 65.5t-42.5 107.5q0 83 59 129t144 46q104 0 199 -70z" />
    <glyph glyph-name="scircumflex.sc" horiz-adv-x="538" 
d="M397 439q-58 50 -122 50q-27 0 -45.5 -13.5t-18.5 -36.5q0 -20 17 -35t33.5 -21.5t54.5 -19.5l48 -18t44 -22.5t40.5 -33t25.5 -45t11 -62.5q0 -88 -71 -141t-158 -53q-122 0 -228 98l82 94q40 -38 71.5 -56t73.5 -18q34 0 58.5 18.5t24.5 51.5q0 22 -18 38.5t-34 23
t-57 21.5q-76 28 -118.5 65.5t-42.5 107.5q0 83 59 129t144 46q104 0 199 -70zM460 684l-80 -48l-105 129l-104 -129l-80 48l114 168h143z" />
    <glyph glyph-name="uni0219.sc" horiz-adv-x="538" 
d="M397 439q-58 50 -122 50q-27 0 -45.5 -13.5t-18.5 -36.5q0 -20 17 -35t33.5 -21.5t54.5 -19.5l48 -18t44 -22.5t40.5 -33t25.5 -45t11 -62.5q0 -88 -71 -141t-158 -53q-122 0 -228 98l82 94q40 -38 71.5 -56t73.5 -18q34 0 58.5 18.5t24.5 51.5q0 22 -18 38.5t-34 23
t-57 21.5q-76 28 -118.5 65.5t-42.5 107.5q0 83 59 129t144 46q104 0 199 -70zM175 -58h127l-55 -191h-108z" />
    <glyph glyph-name="tbar.sc" horiz-adv-x="471" 
d="M307 356h87v-106h-87v-250h-142v250h-87v106h87v121h-140v118h422v-118h-140v-121z" />
    <glyph glyph-name="tcaron.sc" horiz-adv-x="471" 
d="M307 0h-143v477h-140v118h423v-118h-140v-477zM51 815l81 48l105 -129l104 129l79 -48l-114 -168h-143z" />
    <glyph glyph-name="uni0163.sc" horiz-adv-x="472" 
d="M307 0h-37l-24 -61h1q20 15 47 15q37 0 65 -29t28 -72t-33 -76.5t-81 -33.5q-76 0 -116 70l69 33q12 -32 40 -32q16 0 26.5 10.5t10.5 26.5t-11 28t-26 12q-24 0 -37 -20l-73 37l40 92h-32v477h-140v118h423v-118h-140v-477z" />
    <glyph glyph-name="uni021B.sc" horiz-adv-x="471" 
d="M307 0h-143v477h-140v118h423v-118h-140v-477zM164 -58h127l-55 -191h-108z" />
    <glyph glyph-name="uacute.sc" horiz-adv-x="648" 
d="M215 267q0 -161 109 -161t109 161v328h143v-315q0 -292 -254 -292q-250 0 -250 292v315h143v-328zM260 691l133 186l96 -76l-147 -172z" />
    <glyph glyph-name="ubreve.sc" horiz-adv-x="648" 
d="M215 267q0 -161 109 -161t109 161v328h143v-315q0 -292 -254 -292q-250 0 -250 292v315h143v-328zM489 803q0 -69 -48 -116.5t-117 -47.5t-117 47.5t-48 116.5v17h102q-1 -5 -1 -19q0 -28 18.5 -48.5t45.5 -20.5t46 20.5t19 48.5q0 14 -1 19h101v-17z" />
    <glyph glyph-name="ucircumflex.sc" horiz-adv-x="648" 
d="M215 267q0 -161 109 -161t109 161v328h143v-315q0 -292 -254 -292q-250 0 -250 292v315h143v-328zM510 684l-80 -48l-105 129l-104 -129l-80 48l114 168h143z" />
    <glyph glyph-name="udieresis.sc" horiz-adv-x="648" 
d="M215 267q0 -161 109 -161t109 161v328h143v-315q0 -292 -254 -292q-250 0 -250 292v315h143v-328zM132 774h143v-121h-143v121zM373 774h143v-121h-143v121z" />
    <glyph glyph-name="ugrave.sc" horiz-adv-x="648" 
d="M215 267q0 -161 109 -161t109 161v328h143v-315q0 -292 -254 -292q-250 0 -250 292v315h143v-328zM265 877l133 -186l-82 -62l-147 172z" />
    <glyph glyph-name="uhungarumlaut.sc" horiz-adv-x="654" 
d="M215 267q0 -161 109 -161t109 161v328h143v-315q0 -292 -254 -292q-250 0 -250 292v315h143v-328zM155 693l132 188l95 -73l-147 -172zM356 691l130 183l96 -76l-144 -169z" />
    <glyph glyph-name="umacron.sc" horiz-adv-x="648" 
d="M215 267q0 -161 109 -161t109 161v328h143v-315q0 -292 -254 -292q-250 0 -250 292v315h143v-328zM153 761h342v-98h-342v98z" />
    <glyph glyph-name="uogonek.sc" horiz-adv-x="648" 
d="M215 267q0 -161 109 -161q110 0 110 161v328h142v-315q0 -243 -176 -284q-44 -10 -72 -33.5t-28 -57.5q0 -18 11 -30t30 -12q15 0 30 6l26 -84q-34 -12 -77 -12q-54 0 -94 28.5t-40 83.5q0 72 75 108q-189 34 -189 287v315h143v-328z" />
    <glyph glyph-name="uring.sc" horiz-adv-x="648" 
d="M215 267q0 -161 109 -161t109 161v328h143v-315q0 -292 -254 -292q-250 0 -250 292v315h143v-328zM211 747q0 47 33 80t80 33t80 -33t33 -80t-33 -80t-80 -33t-80 33t-33 80zM279 747q0 -19 13 -32t32 -13t32 13t13 32t-13 32t-32 13t-32 -13t-13 -32z" />
    <glyph glyph-name="utilde.sc" horiz-adv-x="648" 
d="M215 267q0 -161 109 -161t109 161v328h143v-315q0 -292 -254 -292q-250 0 -250 292v315h143v-328zM152 645q-6 19 -6 38q0 46 31.5 74.5t83.5 28.5q37 0 86 -25.5t60 -25.5q23 0 25 23q0 6 -1 7l81 9q6 -19 6 -38q0 -46 -31.5 -74.5t-83.5 -28.5q-37 0 -86 25.5t-60 25.5
q-23 0 -25 -23q0 -6 1 -7z" />
    <glyph glyph-name="wacute.sc" horiz-adv-x="859" 
d="M532 0l-102 386h-2l-110 -386h-144l-162 595h153l92 -361h2l99 361h144l97 -361h2l95 361h151l-176 -595h-139zM377 691l133 186l96 -76l-147 -172z" />
    <glyph glyph-name="wcircumflex.sc" horiz-adv-x="859" 
d="M532 0l-102 386h-2l-110 -386h-144l-162 595h153l92 -361h2l99 361h144l97 -361h2l95 361h151l-176 -595h-139zM615 689l-80 -48l-105 129l-104 -129l-80 48l114 168h143z" />
    <glyph glyph-name="wdieresis.sc" horiz-adv-x="859" 
d="M532 0l-102 386h-2l-110 -386h-144l-162 595h153l92 -361h2l99 361h144l97 -361h2l95 361h151l-176 -595h-139zM240 774h143v-121h-143v121zM481 774h143v-121h-143v121z" />
    <glyph glyph-name="wgrave.sc" horiz-adv-x="859" 
d="M532 0l-102 386h-2l-110 -386h-144l-162 595h153l92 -361h2l99 361h144l97 -361h2l95 361h151l-176 -595h-139zM371 877l133 -186l-82 -62l-147 172z" />
    <glyph glyph-name="yacute.sc" horiz-adv-x="554" 
d="M203 249l-199 346h170l106 -203h2l105 203h163l-204 -354v-241h-143v249zM217 691l133 186l96 -76l-147 -172z" />
    <glyph glyph-name="ycircumflex.sc" horiz-adv-x="554" 
d="M203 249l-199 346h170l106 -203h2l105 203h163l-204 -354v-241h-143v249zM466 684l-80 -48l-105 129l-104 -129l-80 48l114 168h143z" />
    <glyph glyph-name="ydieresis.sc" horiz-adv-x="554" 
d="M203 249l-199 346h170l106 -203h2l105 203h163l-204 -354v-241h-143v249zM88 774h143v-121h-143v121zM329 774h143v-121h-143v121z" />
    <glyph glyph-name="ygrave.sc" horiz-adv-x="554" 
d="M203 249l-199 346h170l106 -203h2l105 203h163l-204 -354v-241h-143v249zM234 877l133 -186l-82 -62l-147 172z" />
    <glyph glyph-name="zacute.sc" horiz-adv-x="508" 
d="M488 118v-118h-451v69l240 408h-237v118h426v-70l-240 -407h262zM199 691l133 186l96 -76l-147 -172z" />
    <glyph glyph-name="zcaron.sc" horiz-adv-x="508" 
d="M488 118v-118h-451v69l240 408h-237v118h426v-70l-240 -407h262zM69 815l81 48l105 -129l104 129l79 -48l-114 -168h-143z" />
    <glyph glyph-name="zdotaccent.sc" horiz-adv-x="508" 
d="M488 118v-118h-451v69l240 408h-237v118h426v-70l-240 -407h262zM176 774h142v-121h-142v121z" />
    <glyph glyph-name="asterisk.sc" horiz-adv-x="493" 
d="M388 392l-96 -69l-45 91l-45 -91l-95 69l73 72l-100 13l35 110l90 -48l-18 99h119l-18 -99l90 48l35 -109l-100 -14z" />
    <glyph glyph-name="ampersand.sc" horiz-adv-x="604" 
d="M444 62q-32 -35 -78 -54.5t-94 -19.5q-88 0 -152.5 57t-64.5 136q0 93 90 153q-50 56 -50 114q0 69 56.5 114t128.5 45q68 0 113 -35.5t62 -99.5l-120 -34q-5 27 -20 43.5t-38 16.5q-21 0 -36 -15t-15 -37q0 -25 19.5 -50.5t70.5 -70.5l-73 -84l-20 19q-40 -26 -40 -73
q0 -38 27 -64t65 -26q49 0 82 41l-60 55l72 85l247 -223l-72 -84z" />
    <glyph glyph-name="at.sc" horiz-adv-x="678" 
d="M467 -15q-67 -33 -134 -33q-119 0 -202 82.5t-83 199.5q0 121 85 202t204 81q124 0 209 -74t85 -194q0 -72 -37.5 -120.5t-103.5 -48.5q-60 0 -90 55q-28 -38 -84 -38q-51 0 -83 39.5t-32 93.5q0 52 31 93.5t82 41.5q42 0 65 -29v24h85v-123q0 -37 5.5 -54t20.5 -17
q20 0 30.5 23t10.5 51q0 91 -50 141t-143 50q-81 0 -135.5 -55.5t-54.5 -140.5q0 -83 54 -140t132 -57q44 0 89 21zM379 270q-20 21 -46 21q-22 0 -34.5 -18.5t-12.5 -42.5q0 -23 12.5 -40t33.5 -17q32 0 47 34v63z" />
    <glyph glyph-name="parenleft.sc" horiz-adv-x="347" 
d="M337 604q-162 -105 -162 -307q0 -205 161 -309l-42 -89q-244 148 -244 398q0 245 243 396z" />
    <glyph glyph-name="parenright.sc" horiz-adv-x="347" 
d="M56 692q241 -151 241 -395q0 -250 -244 -398l-42 89q161 104 161 309q0 202 -162 307z" />
    <glyph glyph-name="bracketleft.sc" horiz-adv-x="316" 
d="M90 655h216v-99h-98v-542h98v-99h-216v740z" />
    <glyph glyph-name="bracketright.sc" horiz-adv-x="315" 
d="M10 14h98v542h-98v99h215v-740h-215v99z" />
    <glyph glyph-name="braceleft.sc" horiz-adv-x="296" 
d="M249 566q-61 0 -61 -92v-59q0 -82 -50 -122q50 -39 50 -121v-75q0 -92 62 -92h36v-95q-38 -4 -50 -4q-74 0 -120 48t-46 124v83q0 33 -15 56t-45 29v94q60 12 60 96v56q0 76 46 124t120 48q18 0 50 -2v-96h-37z" />
    <glyph glyph-name="braceright.sc" horiz-adv-x="296" 
d="M10 662q32 2 50 2q74 0 120 -48t46 -124v-56q0 -84 60 -96v-94q-30 -6 -45 -29t-15 -56v-83q0 -76 -46 -124t-120 -48q-12 0 -50 4v95h36q62 0 62 92v75q0 82 50 121q-50 41 -50 122v59q0 92 -60 92h-38v96z" />
    <glyph glyph-name="slash.sc" horiz-adv-x="374" 
d="M15 18l239 647l105 -40l-239 -648z" />
    <glyph glyph-name="backslash.sc" horiz-adv-x="374" 
d="M15 625l104 40l240 -647l-105 -41z" />
    <glyph glyph-name="hyphen.sc" horiz-adv-x="460" 
d="M82 324h283v-118h-283v118z" />
    <glyph glyph-name="endash.sc" horiz-adv-x="600" 
d="M50 353h500v-119h-500v119z" />
    <glyph glyph-name="emdash.sc" horiz-adv-x="900" 
d="M50 353h800v-119h-800v119z" />
    <glyph glyph-name="copyright.sc" horiz-adv-x="670" 
d="M48 271q0 117 84.5 200t202.5 83t202.5 -83t84.5 -200t-84.5 -200t-202.5 -83t-202.5 83t-84.5 200zM143 271q0 -82 56 -139.5t136 -57.5t136 57.5t56 139.5t-56 139.5t-136 57.5t-136 -57.5t-56 -139.5zM432 166q-42 -40 -90 -40q-64 0 -107 40.5t-43 102.5q0 60 44 102
t104 42q50 0 89 -30l-44 -62q-17 17 -43 17q-29 0 -45 -18.5t-16 -50.5q0 -70 60 -70q30 0 46 19z" />
    <glyph glyph-name="uni2116.sc" horiz-adv-x="1100" 
d="M1077 422q0 -78 -56 -131.5t-138 -53.5t-138 53.5t-56 131.5t56 131.5t138 53.5t138 -53.5t56 -131.5zM973 422q0 42 -25.5 70t-64.5 28t-64.5 -28t-25.5 -70t25.5 -70t64.5 -28t64.5 28t25.5 70zM214 0h-140v595h133l264 -357v357h140v-595h-134l-263 358v-358z" />
    <glyph glyph-name="ordfeminine.sc" horiz-adv-x="479" 
d="M165 341l-25 -73h-107l164 405h81l155 -405h-110l-26 73h-132zM231 536l-40 -118h80z" />
    <glyph glyph-name="ordmasculine.sc" horiz-adv-x="490" 
d="M456 471q0 -90 -62 -150.5t-155 -60.5q-92 0 -154 60.5t-62 150.5q0 89 62 149.5t154 60.5q93 0 155 -60.5t62 -149.5zM347 471q0 52 -30.5 86t-77.5 34q-46 0 -76.5 -34t-30.5 -86q0 -53 30.5 -87t76.5 -34q47 0 77.5 34t30.5 87z" />
    <glyph glyph-name="zero.osf" horiz-adv-x="635" 
d="M317 538q117 0 201 -79t84 -196q0 -118 -84 -196.5t-201 -78.5q-116 0 -200 78.5t-84 196.5t84 196.5t200 78.5zM317 418q-60 0 -100 -43.5t-40 -111.5t40 -111.5t100 -43.5q61 0 101 43.5t40 111.5t-40 111.5t-101 43.5z" />
    <glyph glyph-name="one.osf" horiz-adv-x="359" 
d="M139 367q-13 -7 -94 -41v128q73 36 143 75h93v-529h-142v367z" />
    <glyph glyph-name="two.osf" horiz-adv-x="521" 
d="M40 351q1 85 61 136t147 51q89 0 148.5 -46t59.5 -128q0 -76 -92 -159q-45 -39 -121 -86h251v-119h-438v121q136 90 194 141q62 54 62 101q0 27 -18 41.5t-47 14.5q-30 0 -50 -22.5t-16 -64.5z" />
    <glyph glyph-name="three.osf" horiz-adv-x="536" 
d="M176 257q49 0 78 8q32 8 50.5 28.5t18.5 50.5q0 32 -22.5 53t-61.5 21q-31 0 -52.5 -17.5t-27.5 -49.5l-120 52q20 64 75.5 99.5t125.5 35.5q92 0 158.5 -49t66.5 -129q0 -43 -22.5 -82t-59.5 -60q51 -19 81.5 -64t30.5 -100q0 -94 -69 -149t-171 -55q-73 0 -135.5 37
t-91.5 104l119 55q32 -76 109 -76q40 0 67.5 22t27.5 61q0 45 -33.5 69t-88.5 24q-29 0 -53 -5v116z" />
    <glyph glyph-name="four.osf" horiz-adv-x="567" 
d="M469 -153h-140v153h-309v120l321 406h128v-409h82v-117h-82v-153zM329 322l-157 -205h157v205z" />
    <glyph glyph-name="five.osf" horiz-adv-x="516" 
d="M228 407q-3 -73 -10 -137q36 16 77 16q83 0 138 -60.5t55 -143.5q0 -100 -67.5 -166t-167.5 -66q-75 0 -134 34t-91 98l119 60q27 -72 103 -72q42 0 68 30t26 71q0 43 -26 70t-69 27q-51 0 -85 -41l-92 65q16 151 22 334h364v-119h-230z" />
    <glyph glyph-name="six.osf" horiz-adv-x="555" 
d="M435 597q-89 -38 -148 -86.5t-87 -117.5q48 40 112 40q90 0 150 -62t60 -151q0 -98 -64.5 -165t-166.5 -67q-117 0 -187.5 80t-70.5 194q0 154 98.5 268.5t253.5 177.5zM175 259q-6 -63 23 -108.5t86 -45.5q43 0 69.5 31t26.5 75q0 49 -29 77t-72 28q-31 0 -59.5 -15
t-44.5 -42z" />
    <glyph glyph-name="seven.osf" horiz-adv-x="477" 
d="M461 437q-157 -328 -273 -606l-127 57l85.5 192l94.5 198.5l62 128.5h-293v119h451v-89z" />
    <glyph glyph-name="eight.osf" horiz-adv-x="564" 
d="M421 349q49 -29 73.5 -66.5t24.5 -95.5q0 -85 -66.5 -142t-170.5 -57t-170.5 57t-66.5 142q0 58 24.5 95.5t73.5 66.5q-78 49 -78 143q0 83 63.5 133.5t153.5 50.5t153.5 -50.5t63.5 -133.5q0 -94 -78 -143zM282 105q40 0 67 26.5t27 64.5t-27 64.5t-67 26.5t-67 -26.5
t-27 -64.5t27 -64.5t67 -26.5zM282 403q35 0 57 22.5t22 56.5t-22 55.5t-57 21.5t-57 -21.5t-22 -55.5t22 -56.5t57 -22.5z" />
    <glyph glyph-name="nine.osf" horiz-adv-x="555" 
d="M120 -71q89 38 148 86.5t87 117.5q-48 -40 -112 -40q-90 0 -150 62t-60 151q0 98 64.5 165t166.5 67q117 0 187.5 -80t70.5 -194q0 -154 -98.5 -268.5t-253.5 -177.5zM380 267q6 63 -23 108.5t-86 45.5q-43 0 -69.5 -31t-26.5 -75q0 -49 29 -77t72 -28q31 0 59.5 15
t44.5 42z" />
    <glyph glyph-name="dollar.osf" 
d="M99 188q86 -82 158 -82q56 0 86.5 22t30.5 64q0 13 -4 24t-14 20.5t-18 15.5t-26 14l-27.5 12t-33 12.5t-32.5 11.5q-36 13 -61 26t-50.5 34t-39 51.5t-13.5 70.5q0 84 52 133.5t136 56.5v96h83v-98q87 -13 173 -74l-79 -97q-73 59 -144 59q-33 0 -58.5 -18.5
t-25.5 -51.5q0 -10 4 -18.5t13 -15.5t18 -13t25 -12.5t28 -10.5l32.5 -11t32.5 -12q37 -14 63.5 -28t54 -37t42 -56t14.5 -75q0 -87 -56.5 -140t-143.5 -67v-100h-82v96q-122 8 -228 111z" />
    <glyph glyph-name="Euro.osf" horiz-adv-x="650" 
d="M99 457q26 71 81 122.5t117 74t125 22.5q107 0 211 -64l-61 -103q-66 53 -145 53q-125 0 -181 -105h236v-95h-265q-2 -10 -2 -30q0 -23 2 -33h265v-93h-239q28 -54 78 -79t106 -25q85 0 147 56l73 -94q-101 -76 -229 -76q-102 0 -192.5 55.5t-127.5 162.5h-84v93h66
q-2 22 -2 33q0 10 2 30h-66v95h85z" />
    <glyph glyph-name="cent.osf" 
d="M511 92q-58 -51 -143 -62v-90h-84v89q-102 14 -165 88t-63 185q0 105 63 181t165 91v91h84v-91q80 -10 143 -61l-72 -100q-48 43 -102 43q-59 0 -98 -45t-39 -109q0 -65 39 -109t95 -44q60 0 101 40z" />
    <glyph glyph-name="sterling.osf" 
d="M72 121h54v177h-54v120h54v29q0 100 61 164.5t156 64.5q90 0 171 -48l-55 -108q-45 36 -100 36q-44 0 -69 -31.5t-25 -88.5v-18h128v-120h-128v-177h243v-121h-436v121z" />
    <glyph glyph-name="yen.osf" 
d="M168 351l-176 314h160l126 -229h2l118 229h159l-179 -314h126v-94h-162v-56h162v-93h-162v-108h-139v108h-162v93h162v56h-162v94h127z" />
    <glyph glyph-name="florin.osf" 
d="M300 298l-36 -324q-10 -83 -56.5 -128.5t-119.5 -45.5q-44 0 -95 14l28 114q24 -9 51 -9q20 0 32 11.5t15.5 25.5t6.5 40l34 302h-73v119h86l10 86q10 83 57.5 128t123.5 45q75 0 151 -36l-46 -111q-45 29 -90 29q-31 0 -42.5 -19t-15.5 -58l-7 -64h112v-119h-126z" />
    <glyph glyph-name="uni20BA.osf" horiz-adv-x="591" 
d="M22 242v87l84 29v58l-84 -28v87l84 29v162h133v-128l134 45v-88l-134 -45v-58l135 45v-87l-135 -45v-201h5q102 0 146 39.5t44 155.5h135v-4q0 -164 -78 -238t-234 -74q-84 0 -151 15v273z" />
    <glyph glyph-name="uni2116.osf" horiz-adv-x="1143" 
d="M221 438v-438h-143v700h126l324 -439v439h143v-700h-129zM936 728q80 0 131.5 -51t51.5 -127t-51.5 -127t-131.5 -51t-131.5 51t-51.5 127t51.5 127t131.5 51zM936 647q-35 0 -56 -27t-21 -70t21 -70t56 -27t56 27t21 70t-21 70t-56 27z" />
    <glyph glyph-name="percent.osf" horiz-adv-x="856" 
d="M225 706q73 0 124.5 -48.5t51.5 -122.5q0 -73 -51.5 -121.5t-124.5 -48.5t-125 48.5t-52 121.5q0 74 52 122.5t125 48.5zM225 606q-29 0 -47 -20t-18 -51t18 -50.5t47 -19.5q28 0 46 19.5t18 50.5t-18 51t-46 20zM632 335q73 0 124.5 -48.5t51.5 -121.5
q0 -74 -51.5 -122.5t-124.5 -48.5t-125 48.5t-52 122.5q0 73 52 121.5t125 48.5zM632 235q-29 0 -47 -19.5t-18 -50.5t18 -51t47 -20q28 0 46 20t18 51t-18 50.5t-46 19.5zM215 -18l-71 53l498 683l71 -53z" />
    <glyph glyph-name="perthousand.osf" horiz-adv-x="1248" 
d="M1023 335q73 0 125 -48.5t52 -121.5q0 -74 -52 -122.5t-125 -48.5t-124.5 48.5t-51.5 122.5q0 73 51.5 121.5t124.5 48.5zM1024 235q-29 0 -47 -19.5t-18 -50.5t18 -51t47 -20q27 0 45.5 20t18.5 51q0 30 -18.5 50t-45.5 20zM225 706q73 0 124.5 -48.5t51.5 -122.5
q0 -73 -51.5 -121.5t-124.5 -48.5t-125 48.5t-52 121.5q0 74 52 122.5t125 48.5zM225 606q-29 0 -47 -20t-18 -51t18 -50.5t47 -19.5q28 0 46 19.5t18 50.5t-18 51t-46 20zM632 335q73 0 124.5 -48.5t51.5 -121.5q0 -74 -51.5 -122.5t-124.5 -48.5t-125 48.5t-52 122.5
q0 73 52 121.5t125 48.5zM632 235q-29 0 -47 -19.5t-18 -50.5t18 -51t47 -20q28 0 46 20t18 51t-18 50.5t-46 19.5zM215 -18l-71 53l498 683l71 -53z" />
    <glyph glyph-name="zeroslash.tf" 
d="M275 676q118 0 183 -91t65 -253t-65 -253t-183 -91t-183 91t-65 253t65 253t183 91zM275 109q90 0 102 173h-205q12 -173 103 -173zM275 555q-90 0 -102 -170h204q-12 170 -102 170z" />
    <glyph glyph-name="zero.tf" 
d="M275 676q118 0 183 -91t65 -253t-65 -253t-183 -91t-183 91t-65 253t65 253t183 91zM275 555q-104 0 -104 -223t104 -223t104 223t-104 223z" />
    <glyph glyph-name="one.tf" 
d="M242 515l-163 -74v126l210 108h95v-556h142v-119h-429v119h145v396z" />
    <glyph glyph-name="two.tf" 
d="M56 0v105q143 149 226 268q48 70 48 117q0 30 -20.5 49t-52.5 19q-35 0 -55.5 -25.5t-20.5 -68.5l-141 23q7 84 70 136.5t149 52.5q88 0 151.5 -50t63.5 -134q0 -89 -68 -185q-50 -70 -160 -188h256v-119h-446z" />
    <glyph glyph-name="three.tf" 
d="M170 395q49 0 78 8q32 8 50.5 28.5t18.5 50.5q0 32 -22.5 53t-61.5 21q-31 0 -52.5 -17.5t-27.5 -49.5l-120 52q20 64 75.5 99.5t125.5 35.5q92 0 158.5 -49t66.5 -129q0 -43 -22.5 -82t-59.5 -60q51 -19 81.5 -64t30.5 -100q0 -94 -69 -149t-171 -55q-73 0 -135.5 37
t-91.5 104l119 55q32 -76 109 -76q40 0 67.5 22t27.5 61q0 45 -33.5 69t-88.5 24q-29 0 -53 -5v116z" />
    <glyph glyph-name="four.tf" 
d="M294 163h-281v119q107 139 279 382h142v-384h93v-117h-93v-163h-140v163zM294 481l-60.5 -94.5t-70.5 -106.5h131v201z" />
    <glyph glyph-name="five.tf" 
d="M235 545q-3 -73 -10 -137q36 16 77 16q83 0 138 -60.5t55 -143.5q0 -100 -67.5 -166t-167.5 -66q-75 0 -134 34t-91 98l119 60q27 -72 103 -72q42 0 68 30t26 71q0 43 -26 70t-69 27q-51 0 -85 -41l-92 65q16 151 22 334h364v-119h-230z" />
    <glyph glyph-name="six.tf" 
d="M432 597q-89 -38 -148 -86.5t-87 -117.5q48 40 112 40q90 0 150 -62t60 -151q0 -98 -64.5 -165t-166.5 -67q-117 0 -187.5 80t-70.5 194q0 154 98.5 268.5t253.5 177.5zM172 259q-6 -63 23 -108.5t86 -45.5q43 0 69.5 31t26.5 75q0 49 -29 77t-72 28q-31 0 -59.5 -15
t-44.5 -42z" />
    <glyph glyph-name="seven.tf" 
d="M501 575q-157 -328 -273 -606l-127 57l85.5 192l94.5 198.5l62 128.5h-293v119h451v-89z" />
    <glyph glyph-name="eight.tf" 
d="M414 349q49 -29 73.5 -66.5t24.5 -95.5q0 -85 -66.5 -142t-170.5 -57t-170.5 57t-66.5 142q0 58 24.5 95.5t73.5 66.5q-78 49 -78 143q0 83 63.5 133.5t153.5 50.5t153.5 -50.5t63.5 -133.5q0 -94 -78 -143zM275 105q40 0 67 26.5t27 64.5t-27 64.5t-67 26.5t-67 -26.5
t-27 -64.5t27 -64.5t67 -26.5zM275 403q35 0 57 22.5t22 56.5t-22 55.5t-57 21.5t-57 -21.5t-22 -55.5t22 -56.5t57 -22.5z" />
    <glyph glyph-name="nine.tf" 
d="M118 67q89 38 148 86.5t87 117.5q-48 -40 -112 -40q-90 0 -150 62t-60 151q0 98 64.5 165t166.5 67q117 0 187.5 -80t70.5 -194q0 -154 -98.5 -268.5t-253.5 -177.5zM378 405q6 63 -23 108.5t-86 45.5q-43 0 -69.5 -31t-26.5 -75q0 -49 29 -77t72 -28q31 0 59.5 15
t44.5 42z" />
    <glyph glyph-name="dollar.tf" 
d="M99 188q86 -82 158 -82q56 0 86.5 22t30.5 64q0 13 -4 24t-14 20.5t-18 15.5t-26 14l-27.5 12t-33 12.5t-32.5 11.5q-36 13 -61 26t-50.5 34t-39 51.5t-13.5 70.5q0 84 52 133.5t136 56.5v96h83v-98q87 -13 173 -74l-79 -97q-73 59 -144 59q-33 0 -58.5 -18.5
t-25.5 -51.5q0 -10 4 -18.5t13 -15.5t18 -13t25 -12.5t28 -10.5l32.5 -11t32.5 -12q37 -14 63.5 -28t54 -37t42 -56t14.5 -75q0 -87 -56.5 -140t-143.5 -67v-100h-82v96q-122 8 -228 111z" />
    <glyph glyph-name="Euro.tf" 
d="M91 457q45 220 235 220q74 0 130.5 -40t77.5 -111l-111 -39q-12 32 -37.5 51t-56.5 19q-72 0 -95 -100h133v-95h-144v-31v-32h144v-93h-134q22 -97 96 -97q37 0 65 27.5t39 70.5l113 -37q-54 -182 -220 -182q-95 0 -154 57.5t-81 160.5h-75v93h63v32v31h-63v95h75z" />
    <glyph glyph-name="cent.tf" 
d="M511 92q-58 -51 -143 -62v-90h-84v89q-102 14 -165 88t-63 185q0 105 63 181t165 91v91h84v-91q80 -10 143 -61l-72 -100q-48 43 -102 43q-59 0 -98 -45t-39 -109q0 -65 39 -109t95 -44q60 0 101 40z" />
    <glyph glyph-name="sterling.tf" 
d="M72 121h54v177h-54v120h54v29q0 100 61 164.5t156 64.5q90 0 171 -48l-55 -108q-45 36 -100 36q-44 0 -69 -31.5t-25 -88.5v-18h128v-120h-128v-177h243v-121h-436v121z" />
    <glyph glyph-name="yen.tf" 
d="M168 351l-176 314h160l126 -229h2l118 229h159l-179 -314h126v-94h-162v-56h162v-93h-162v-108h-139v108h-162v93h162v56h-162v94h127z" />
    <glyph glyph-name="florin.tf" 
d="M300 298l-36 -324q-10 -83 -56.5 -128.5t-119.5 -45.5q-44 0 -95 14l28 114q24 -9 51 -9q20 0 32 11.5t15.5 25.5t6.5 40l34 302h-73v119h86l10 86q10 83 57.5 128t123.5 45q75 0 151 -36l-46 -111q-45 29 -90 29q-31 0 -42.5 -19t-15.5 -58l-7 -64h112v-119h-126z" />
    <glyph glyph-name="uni20BA.tf" 
d="M22 242v87l79 27v59l-79 -27v87l79 27v164h120v-133l142 48v-88l-142 -48v-58l143 48v-87l-143 -48v-196h4q96 0 137 38t41 147h126v-4q0 -158 -73 -230t-219 -72q-76 0 -136 15v271z" />
    <glyph glyph-name="uni2116.tf" horiz-adv-x="1143" 
d="M221 438v-438h-143v700h126l324 -439v439h143v-700h-129zM936 728q80 0 131.5 -51t51.5 -127t-51.5 -127t-131.5 -51t-131.5 51t-51.5 127t51.5 127t131.5 51zM936 647q-35 0 -56 -27t-21 -70t21 -70t56 -27t56 27t21 70t-21 70t-56 27z" />
    <glyph glyph-name="percent.tf" horiz-adv-x="856" 
d="M225 706q73 0 124.5 -48.5t51.5 -122.5q0 -73 -51.5 -121.5t-124.5 -48.5t-125 48.5t-52 121.5q0 74 52 122.5t125 48.5zM225 606q-29 0 -47 -20t-18 -51t18 -50.5t47 -19.5q28 0 46 19.5t18 50.5t-18 51t-46 20zM632 335q73 0 124.5 -48.5t51.5 -121.5
q0 -74 -51.5 -122.5t-124.5 -48.5t-125 48.5t-52 122.5q0 73 52 121.5t125 48.5zM632 235q-29 0 -47 -19.5t-18 -50.5t18 -51t47 -20q28 0 46 20t18 51t-18 50.5t-46 19.5zM215 -18l-71 53l498 683l71 -53z" />
    <glyph glyph-name="perthousand.tf" horiz-adv-x="1248" 
d="M1023 335q73 0 125 -48.5t52 -121.5q0 -74 -52 -122.5t-125 -48.5t-124.5 48.5t-51.5 122.5q0 73 51.5 121.5t124.5 48.5zM1024 235q-29 0 -47 -19.5t-18 -50.5t18 -51t47 -20q27 0 45.5 20t18.5 51q0 30 -18.5 50t-45.5 20zM225 706q73 0 124.5 -48.5t51.5 -122.5
q0 -73 -51.5 -121.5t-124.5 -48.5t-125 48.5t-52 121.5q0 74 52 122.5t125 48.5zM225 606q-29 0 -47 -20t-18 -51t18 -50.5t47 -19.5q28 0 46 19.5t18 50.5t-18 51t-46 20zM632 335q73 0 124.5 -48.5t51.5 -121.5q0 -74 -51.5 -122.5t-124.5 -48.5t-125 48.5t-52 122.5
q0 73 52 121.5t125 48.5zM632 235q-29 0 -47 -19.5t-18 -50.5t18 -51t47 -20q28 0 46 20t18 51t-18 50.5t-46 19.5zM215 -18l-71 53l498 683l71 -53z" />
    <glyph glyph-name="zeroslash.tosf" 
d="M275 538q115 0 182 -76.5t67 -198.5t-67 -198.5t-182 -76.5t-182 76.5t-67 198.5t67 198.5t182 76.5zM275 108q83 0 101 105h-203q8 -50 34.5 -77.5t67.5 -27.5zM275 418q-41 0 -67 -27t-34 -76h202q-19 103 -101 103z" />
    <glyph glyph-name="zero.tosf" 
d="M275 538q115 0 182 -76.5t67 -198.5t-67 -198.5t-182 -76.5t-182 76.5t-67 198.5t67 198.5t182 76.5zM275 418q-51 0 -78.5 -41t-27.5 -114t27.5 -114t78.5 -41t78.5 41t27.5 114t-27.5 114t-78.5 41z" />
    <glyph glyph-name="one.tosf" 
d="M242 369q-75 -37 -163 -74v126q117 56 210 108h95v-409h142v-120h-429v120h145v249z" />
    <glyph glyph-name="two.tosf" 
d="M47 351q1 85 61 136t147 51q89 0 148.5 -46t59.5 -128q0 -76 -92 -159q-45 -39 -121 -86h251v-119h-438v121q136 90 194 141q62 54 62 101q0 27 -18 41.5t-47 14.5q-30 0 -50 -22.5t-16 -64.5z" />
    <glyph glyph-name="three.tosf" 
d="M170 257q49 0 78 8q32 8 50.5 28.5t18.5 50.5q0 32 -22.5 53t-61.5 21q-31 0 -52.5 -17.5t-27.5 -49.5l-120 52q20 64 75.5 99.5t125.5 35.5q92 0 158.5 -49t66.5 -129q0 -43 -22.5 -82t-59.5 -60q51 -19 81.5 -64t30.5 -100q0 -94 -69 -149t-171 -55q-73 0 -135.5 37
t-91.5 104l119 55q32 -76 109 -76q40 0 67.5 22t27.5 61q0 45 -33.5 69t-88.5 24q-29 0 -53 -5v116z" />
    <glyph glyph-name="four.tosf" 
d="M460 -153h-140v153h-309v120l321 406h128v-409h82v-117h-82v-153zM320 322l-157 -205h157v205z" />
    <glyph glyph-name="five.tosf" 
d="M235 407q-3 -73 -10 -137q36 16 77 16q83 0 138 -60.5t55 -143.5q0 -100 -67.5 -166t-167.5 -66q-75 0 -134 34t-91 98l119 60q27 -72 103 -72q42 0 68 30t26 71q0 43 -26 70t-69 27q-51 0 -85 -41l-92 65q16 151 22 334h364v-119h-230z" />
    <glyph glyph-name="six.tosf" 
d="M432 597q-89 -38 -148 -86.5t-87 -117.5q48 40 112 40q90 0 150 -62t60 -151q0 -98 -64.5 -165t-166.5 -67q-117 0 -187.5 80t-70.5 194q0 154 98.5 268.5t253.5 177.5zM172 259q-6 -63 23 -108.5t86 -45.5q43 0 69.5 31t26.5 75q0 49 -29 77t-72 28q-31 0 -59.5 -15
t-44.5 -42z" />
    <glyph glyph-name="seven.tosf" 
d="M501 437q-157 -328 -273 -606l-127 57l85.5 192l94.5 198.5l62 128.5h-293v119h451v-89z" />
    <glyph glyph-name="eight.tosf" 
d="M414 349q49 -29 73.5 -66.5t24.5 -95.5q0 -85 -66.5 -142t-170.5 -57t-170.5 57t-66.5 142q0 58 24.5 95.5t73.5 66.5q-78 49 -78 143q0 83 63.5 133.5t153.5 50.5t153.5 -50.5t63.5 -133.5q0 -94 -78 -143zM275 105q40 0 67 26.5t27 64.5t-27 64.5t-67 26.5t-67 -26.5
t-27 -64.5t27 -64.5t67 -26.5zM275 403q35 0 57 22.5t22 56.5t-22 55.5t-57 21.5t-57 -21.5t-22 -55.5t22 -56.5t57 -22.5z" />
    <glyph glyph-name="nine.tosf" 
d="M118 -71q89 38 148 86.5t87 117.5q-48 -40 -112 -40q-90 0 -150 62t-60 151q0 98 64.5 165t166.5 67q117 0 187.5 -80t70.5 -194q0 -154 -98.5 -268.5t-253.5 -177.5zM378 267q6 63 -23 108.5t-86 45.5q-43 0 -69.5 -31t-26.5 -75q0 -49 29 -77t72 -28q31 0 59.5 15
t44.5 42z" />
    <glyph glyph-name="dollar.tosf" 
d="M99 188q86 -82 158 -82q56 0 86.5 22t30.5 64q0 13 -4 24t-14 20.5t-18 15.5t-26 14l-27.5 12t-33 12.5t-32.5 11.5q-36 13 -61 26t-50.5 34t-39 51.5t-13.5 70.5q0 84 52 133.5t136 56.5v96h83v-98q87 -13 173 -74l-79 -97q-73 59 -144 59q-33 0 -58.5 -18.5
t-25.5 -51.5q0 -10 4 -18.5t13 -15.5t18 -13t25 -12.5t28 -10.5l32.5 -11t32.5 -12q37 -14 63.5 -28t54 -37t42 -56t14.5 -75q0 -87 -56.5 -140t-143.5 -67v-100h-82v96q-122 8 -228 111z" />
    <glyph glyph-name="Euro.tosf" 
d="M91 457q45 220 235 220q74 0 130.5 -40t77.5 -111l-111 -39q-12 32 -37.5 51t-56.5 19q-72 0 -95 -100h133v-95h-144v-31v-32h144v-93h-134q22 -97 96 -97q37 0 65 27.5t39 70.5l113 -37q-54 -182 -220 -182q-95 0 -154 57.5t-81 160.5h-75v93h63v32v31h-63v95h75z" />
    <glyph glyph-name="cent.tosf" 
d="M511 92q-58 -51 -143 -62v-90h-84v89q-102 14 -165 88t-63 185q0 105 63 181t165 91v91h84v-91q80 -10 143 -61l-72 -100q-48 43 -102 43q-59 0 -98 -45t-39 -109q0 -65 39 -109t95 -44q60 0 101 40z" />
    <glyph glyph-name="sterling.tosf" 
d="M72 121h54v177h-54v120h54v29q0 100 61 164.5t156 64.5q90 0 171 -48l-55 -108q-45 36 -100 36q-44 0 -69 -31.5t-25 -88.5v-18h128v-120h-128v-177h243v-121h-436v121z" />
    <glyph glyph-name="yen.tosf" 
d="M168 351l-176 314h160l126 -229h2l118 229h159l-179 -314h126v-94h-162v-56h162v-93h-162v-108h-139v108h-162v93h162v56h-162v94h127z" />
    <glyph glyph-name="florin.tosf" 
d="M300 298l-36 -324q-10 -83 -56.5 -128.5t-119.5 -45.5q-44 0 -95 14l28 114q24 -9 51 -9q20 0 32 11.5t15.5 25.5t6.5 40l34 302h-73v119h86l10 86q10 83 57.5 128t123.5 45q75 0 151 -36l-46 -111q-45 29 -90 29q-31 0 -42.5 -19t-15.5 -58l-7 -64h112v-119h-126z" />
    <glyph glyph-name="uni20BA.tosf" 
d="M22 242v87l79 27v59l-79 -27v87l79 27v164h120v-133l142 48v-88l-142 -48v-58l143 48v-87l-143 -48v-196h4q96 0 137 38t41 147h126v-4q0 -158 -73 -230t-219 -72q-76 0 -136 15v271z" />
    <glyph glyph-name="uni2116.tosf" horiz-adv-x="1143" 
d="M221 438v-438h-143v700h126l324 -439v439h143v-700h-129zM936 728q80 0 131.5 -51t51.5 -127t-51.5 -127t-131.5 -51t-131.5 51t-51.5 127t51.5 127t131.5 51zM936 647q-35 0 -56 -27t-21 -70t21 -70t56 -27t56 27t21 70t-21 70t-56 27z" />
    <glyph glyph-name="percent.tosf" horiz-adv-x="856" 
d="M225 706q73 0 124.5 -48.5t51.5 -122.5q0 -73 -51.5 -121.5t-124.5 -48.5t-125 48.5t-52 121.5q0 74 52 122.5t125 48.5zM225 606q-29 0 -47 -20t-18 -51t18 -50.5t47 -19.5q28 0 46 19.5t18 50.5t-18 51t-46 20zM632 335q73 0 124.5 -48.5t51.5 -121.5
q0 -74 -51.5 -122.5t-124.5 -48.5t-125 48.5t-52 122.5q0 73 52 121.5t125 48.5zM632 235q-29 0 -47 -19.5t-18 -50.5t18 -51t47 -20q28 0 46 20t18 51t-18 50.5t-46 19.5zM215 -18l-71 53l498 683l71 -53z" />
    <glyph glyph-name="perthousand.tosf" horiz-adv-x="1248" 
d="M1023 335q73 0 125 -48.5t52 -121.5q0 -74 -52 -122.5t-125 -48.5t-124.5 48.5t-51.5 122.5q0 73 51.5 121.5t124.5 48.5zM1024 235q-29 0 -47 -19.5t-18 -50.5t18 -51t47 -20q27 0 45.5 20t18.5 51q0 30 -18.5 50t-45.5 20zM225 706q73 0 124.5 -48.5t51.5 -122.5
q0 -73 -51.5 -121.5t-124.5 -48.5t-125 48.5t-52 121.5q0 74 52 122.5t125 48.5zM225 606q-29 0 -47 -20t-18 -51t18 -50.5t47 -19.5q28 0 46 19.5t18 50.5t-18 51t-46 20zM632 335q73 0 124.5 -48.5t51.5 -121.5q0 -74 -51.5 -122.5t-124.5 -48.5t-125 48.5t-52 122.5
q0 73 52 121.5t125 48.5zM632 235q-29 0 -47 -19.5t-18 -50.5t18 -51t47 -20q28 0 46 20t18 51t-18 50.5t-46 19.5zM215 -18l-71 53l498 683l71 -53z" />
    <glyph glyph-name="a.sups" horiz-adv-x="349" 
d="M222 390q-31 -30 -84 -30q-47 0 -80 25.5t-33 71.5q0 53 39.5 77t98.5 24q27 0 51 -4v5q0 24 -15.5 38t-43.5 14q-47 0 -90 -30l-25 68q65 35 134 35q63 0 100.5 -33.5t37.5 -99.5v-184h-85zM214 500q-16 3 -30 3q-60 0 -60 -42q0 -36 44 -36q23 0 46 18v57z" />
    <glyph glyph-name="b.sups" horiz-adv-x="387" 
d="M139 644q36 40 91 40q63 0 100.5 -47.5t37.5 -113.5t-39 -114.5t-105 -48.5q-54 0 -94 37l-4 -30h-87v449h100v-172zM139 467q24 -27 60 -27q32 0 49.5 24.5t17.5 58.5q0 33 -17.5 57t-48.5 24q-40 0 -61 -34v-103z" />
    <glyph glyph-name="c.sups" horiz-adv-x="309" 
d="M297 402q-43 -42 -113 -42t-117.5 44t-47.5 118q0 70 47.5 116t118.5 46q66 0 113 -44l-53 -62q-26 26 -55 26q-32 0 -50.5 -24.5t-18.5 -58.5t18.5 -57.5t49.5 -23.5q28 0 54 24z" />
    <glyph glyph-name="d.sups" horiz-adv-x="387" 
d="M256 403q-32 -43 -94 -43q-64 0 -103.5 47.5t-39.5 114.5q0 65 39.5 113.5t101.5 48.5q50 0 89 -34v168h100v-451h-89zM249 578q-26 26 -61 26q-30 0 -48.5 -23.5t-18.5 -59.5q0 -35 18.5 -58t46.5 -23q40 0 63 33v105z" />
    <glyph glyph-name="e.sups" horiz-adv-x="352" 
d="M321 433q-51 -73 -142 -73q-70 0 -115 44t-45 114t46.5 118t114.5 48q63 0 108 -41.5t45 -103.5q0 -17 -5 -40h-208q8 -65 66 -65q44 0 72 42zM231 559q-2 23 -16.5 37.5t-35.5 14.5q-43 0 -56 -52h108z" />
    <glyph glyph-name="f.sups" horiz-adv-x="223" 
d="M48 711q0 114 112 114q43 0 87 -21l-28 -68q-17 12 -40 12q-19 0 -25 -9.5t-6 -31.5v-31h74v-73h-74v-236h-100v236h-32v73h32v35z" />
    <glyph glyph-name="g.sups" horiz-adv-x="386" 
d="M349 375q0 -74 -45 -111t-115 -37q-80 0 -149 43l34 74q53 -40 108 -40q31 0 49 17.5t18 49.5v31q-34 -35 -87 -35q-64 0 -103.5 46.5t-39.5 112.5q0 64 39.5 111t101.5 47q57 0 94 -40l6 32h89v-301zM249 578q-26 26 -61 26q-30 0 -48.5 -22t-18.5 -57t18.5 -56.5
t46.5 -21.5q40 0 63 33v98z" />
    <glyph glyph-name="h.sups" horiz-adv-x="378" 
d="M139 640q41 44 90 44q112 0 112 -145v-172h-100v163q0 16 -1 26t-4.5 22.5t-12.5 19t-23 6.5q-32 0 -61 -36v-201h-100v449h100v-176z" />
    <glyph glyph-name="i.sups" horiz-adv-x="178" 
d="M39 676h100v-309h-100v309zM39 795h100v-75h-100v75z" />
    <glyph glyph-name="j.sups" horiz-adv-x="185" 
d="M-17 313q16 -10 33 -10q30 0 30 40v333h100v-337q0 -58 -28 -85t-87 -27q-36 0 -72 14zM46 795h100v-75h-100v75z" />
    <glyph glyph-name="k.sups" horiz-adv-x="341" 
d="M140 570l83 106h111l-110 -129l118 -180h-120l-64 104l-19 -23v-81h-100v449h100v-246h1z" />
    <glyph glyph-name="l.sups" horiz-adv-x="178" 
d="M39 367v449h100v-449h-100z" />
    <glyph glyph-name="m.sups" horiz-adv-x="555" 
d="M39 676h88l4 -37q41 45 87 45q61 0 90 -46q45 46 100 46q111 0 111 -145v-172h-100v163q0 21 -1.5 34.5t-11 26.5t-27.5 13q-27 0 -53 -27q3 -18 3 -38v-172h-100v163q0 22 -1.5 35t-11 26t-27.5 13q-25 0 -50 -25v-212h-100v309z" />
    <glyph glyph-name="o.sups" horiz-adv-x="372" 
d="M186 684q73 0 120 -46.5t47 -115.5q0 -70 -46.5 -116t-120.5 -46t-120.5 46t-46.5 116q0 69 47 115.5t120 46.5zM251 522q0 36 -18 60t-47 24t-47 -24t-18 -60t18 -60t47 -24q30 0 47.5 23.5t17.5 60.5z" />
    <glyph glyph-name="p.sups" horiz-adv-x="387" 
d="M132 640q32 44 93 44q63 0 103 -48t40 -114q0 -65 -39.5 -113.5t-101.5 -48.5q-52 0 -88 33v-169h-100v452h88zM139 466q23 -26 60 -26q30 0 48.5 23.5t18.5 59.5q0 35 -18.5 58t-46.5 23q-39 0 -62 -34v-104z" />
    <glyph glyph-name="q.sups" horiz-adv-x="387" 
d="M248 224v175q-36 -39 -92 -39q-63 0 -100 47.5t-37 113.5t38.5 114.5t104.5 48.5q53 0 93 -37l5 29h88v-452h-100zM248 577q-26 27 -61 27q-32 0 -49 -25t-17 -58t17 -57t48 -24q40 0 62 33v104z" />
    <glyph glyph-name="r.sups" horiz-adv-x="240" 
d="M39 676h88l4 -38q30 46 73 46q23 0 47 -11l-22 -78q-13 8 -33 8q-34 0 -57 -35v-201h-100v309z" />
    <glyph glyph-name="s.sups" horiz-adv-x="292" 
d="M217 584q-27 27 -61 27q-24 0 -24 -22q0 -3 1 -5.5t3 -5t4 -4.5t6 -4t7 -4t8 -4l8.5 -3.5l9.5 -4t10 -4.5q35 -15 56.5 -35t21.5 -53q0 -50 -36.5 -76t-87.5 -26q-75 0 -130 54l53 58q39 -39 74 -39q28 0 28 21q0 4 -1.5 7.5t-5 7t-6.5 6t-10 6t-10.5 5t-12 5.5l-12.5 6
q-35 15 -54.5 34t-19.5 53q0 47 34.5 73.5t81.5 26.5q68 0 114 -43z" />
    <glyph glyph-name="t.sups" horiz-adv-x="237" 
d="M230 381q-39 -21 -80 -21q-105 0 -105 118v125h-35v73h40l14 70h81v-70h76v-73h-76v-115q0 -17 1 -25t6 -16.5t16 -8.5q15 0 34 10z" />
    <glyph glyph-name="u.sups" horiz-adv-x="378" 
d="M339 367h-88l-5 44q-45 -52 -96 -52q-113 0 -113 145v172h100v-164q0 -16 1 -26t4.5 -22.5t12.5 -18.5t23 -6q32 0 61 36v201h100v-309z" />
    <glyph glyph-name="v.sups" horiz-adv-x="330" 
d="M217 676h110l-126 -309h-83l-115 309h109l51 -172h2z" />
    <glyph glyph-name="w.sups" horiz-adv-x="467" 
d="M193 367h-106l-84 309h106l38 -169h2l42 169h87l41 -169h2l40 169h103l-88 -309h-104l-39 155h-1z" />
    <glyph glyph-name="x.sups" horiz-adv-x="368" 
d="M189 596l55 80h121l-120 -155l115 -154h-123l-55 83l-58 -83h-121l123 157l-113 152h123z" />
    <glyph glyph-name="y.sups" horiz-adv-x="326" 
d="M217 676h107l-174 -450l-89 33l49 130l-107 287h107l52 -168h2z" />
    <glyph glyph-name="z.sups" horiz-adv-x="294" 
d="M23 603v73h246v-40l-116 -196h125v-73h-249v42l112 194h-118z" />
    <glyph glyph-name="b.sinf" horiz-adv-x="387" 
d="M139 99q36 40 91 40q63 0 100.5 -47.5t37.5 -113.5t-39 -114.5t-105 -48.5q-54 0 -94 37l-4 -30h-87v449h100v-172zM139 -78q24 -27 60 -27q32 0 49.5 24.5t17.5 58.5q0 33 -17.5 57t-48.5 24q-40 0 -61 -34v-103z" />
    <glyph glyph-name="c.sinf" horiz-adv-x="309" 
d="M297 -143q-43 -42 -113 -42t-117.5 44t-47.5 118q0 70 47.5 116t118.5 46q66 0 113 -44l-53 -62q-26 26 -55 26q-32 0 -50.5 -24.5t-18.5 -58.5t18.5 -57.5t49.5 -23.5q28 0 54 24z" />
    <glyph glyph-name="d.sinf" horiz-adv-x="387" 
d="M256 -142q-32 -43 -94 -43q-64 0 -103.5 47.5t-39.5 114.5q0 65 39.5 113.5t101.5 48.5q50 0 89 -34v168h100v-451h-89zM249 33q-26 26 -61 26q-30 0 -48.5 -23.5t-18.5 -59.5q0 -35 18.5 -58t46.5 -23q40 0 63 33v105z" />
    <glyph glyph-name="f.sinf" horiz-adv-x="223" 
d="M48 166q0 114 112 114q43 0 87 -21l-28 -68q-17 12 -40 12q-19 0 -25 -9.5t-6 -31.5v-31h74v-73h-74v-236h-100v236h-32v73h32v35z" />
    <glyph glyph-name="g.sinf" horiz-adv-x="385" 
d="M349 -170q0 -74 -45 -111t-115 -37q-80 0 -149 43l34 74q53 -40 108 -40q31 0 49 17.5t18 49.5v31q-34 -35 -87 -35q-64 0 -103.5 47t-39.5 112q0 64 39.5 111t101.5 47q57 0 94 -40l6 32h89v-301zM249 33q-26 26 -61 26q-30 0 -48.5 -22t-18.5 -57t18.5 -56.5
t46.5 -21.5q40 0 63 33v98z" />
    <glyph glyph-name="h.sinf" horiz-adv-x="378" 
d="M139 95q41 44 90 44q112 0 112 -145v-172h-100v163q0 16 -1 26t-4.5 22.5t-12.5 19t-23 6.5q-32 0 -61 -36v-201h-100v449h100v-176z" />
    <glyph glyph-name="i.sinf" horiz-adv-x="178" 
d="M39 131h100v-309h-100v309zM39 250h100v-75h-100v75z" />
    <glyph glyph-name="j.sinf" horiz-adv-x="185" 
d="M-17 -232q16 -10 33 -10q30 0 30 40v333h100v-337q0 -58 -28 -85t-87 -27q-36 0 -72 14zM46 250h100v-75h-100v75z" />
    <glyph glyph-name="q.sinf" horiz-adv-x="387" 
d="M249 -321v175q-36 -39 -92 -39q-63 0 -100 47.5t-37 113.5t38.5 114.5t104.5 48.5q53 0 93 -37l5 29h88v-452h-100zM249 32q-26 27 -61 27q-32 0 -49 -25t-17 -58t17 -57t48 -24q40 0 62 33v104z" />
    <glyph glyph-name="r.sinf" horiz-adv-x="240" 
d="M39 131h88l4 -38q30 46 73 46q23 0 47 -11l-22 -78q-13 8 -33 8q-34 0 -57 -35v-201h-100v309z" />
    <glyph glyph-name="u.sinf" horiz-adv-x="378" 
d="M339 -178h-88l-5 44q-45 -52 -96 -52q-113 0 -113 145v172h100v-164q0 -16 1 -26t4.5 -22.5t12.5 -18.5t23 -6q32 0 61 36v201h100v-309z" />
    <glyph glyph-name="v.sinf" horiz-adv-x="330" 
d="M217 131h110l-126 -309h-83l-115 309h109l51 -172h2z" />
    <glyph glyph-name="w.sinf" horiz-adv-x="467" 
d="M193 -178h-106l-84 309h106l38 -169h2l42 169h87l41 -169h2l40 169h103l-88 -309h-104l-39 155h-1z" />
    <glyph glyph-name="y.sinf" horiz-adv-x="326" 
d="M217 131h107l-174 -450l-89 33l49 130l-107 287h107l52 -168h2z" />
    <glyph glyph-name="z.sinf" horiz-adv-x="294" 
d="M23 58v73h246v-40l-116 -196h125v-73h-249v42l112 194h-118z" />
    <glyph glyph-name="zero.numr" horiz-adv-x="339" 
d="M170 626q-47 0 -47 -106q0 -107 47 -107q46 0 46 107q0 106 -46 106zM315 520q0 -88 -38.5 -138.5t-106.5 -50.5q-70 0 -108 50.5t-38 138.5q0 87 38 137.5t108 50.5q68 0 106.5 -50.5t38.5 -137.5z" />
    <glyph glyph-name="one.numr" horiz-adv-x="256" 
d="M101 596q-26 -14 -57 -26v89q54 27 80 41h75v-362h-98v258z" />
    <glyph glyph-name="two.numr" horiz-adv-x="321" 
d="M36 406q80 70 127 127q29 37 29 66q0 15 -9.5 23.5t-24.5 8.5q-16 0 -25.5 -12t-9.5 -32l-93 15q2 50 38.5 78t91.5 28q52 0 91 -28.5t39 -75.5q0 -50 -38 -98q-34 -42 -88 -87h136v-80h-264v67z" />
    </font>
</defs>
</svg>
